<?xml version="1.0" encoding="UTF-8"?>
<svg id="Layer_1" xmlns="http://www.w3.org/2000/svg" version="1.1" viewBox="0 0 500 500">
  <!-- Generator: Adobe Illustrator 29.0.1, SVG Export Plug-In . SVG Version: 2.1.0 Build 192)  -->
  <defs>
    <style>
      .st0 {
        fill: #f48a8b;
      }

      .st1 {
        fill: #f8b3a3;
      }
    </style>
  </defs>
  <rect class="st1" x=".7" y="0" width="499.1" height="500"/>
  <rect class="st0" x=".7" y="142.1" width="38.4" height="13.2"/>
  <rect class="st0" x="21.8" y="160.6" width="38.4" height="13.2"/>
  <rect class="st0" x="219.5" y="450.9" width="38.4" height="13.2"/>
  <rect class="st0" x="240.6" y="469.4" width="38.4" height="13.2"/>
  <rect class="st0" x="261.4" y="222.7" width="38.4" height="13.2"/>
  <rect class="st0" x="291.6" y="242.2" width="38.4" height="13.2"/>
  <rect class="st0" x="334.1" y="449" width="38.4" height="13.2"/>
  <rect class="st0" x="364.2" y="468.5" width="38.4" height="13.2"/>
  <rect class="st0" x="83.3" y="58.2" width="38.4" height="13.2"/>
  <rect class="st0" x="113.4" y="77.7" width="38.4" height="13.2"/>
  <rect class="st0" x="459.3" y="208.6" width="38.4" height="13.2"/>
  <rect class="st0" x="368.6" y="305.4" width="38.4" height="13.2"/>
  <rect class="st0" x="461.6" y="373.6" width="38.4" height="13.2"/>
  <rect class="st0" x="461.6" y="389.2" width="38.4" height="13.2"/>
  <rect class="st0" x="53.6" y="432.1" width="38.4" height="13.2"/>
  <rect class="st0" x="260.3" y="399.4" width="38.4" height="13.2"/>
  <rect class="st0" x="279.6" y="384.2" width="38.4" height="13.2"/>
  <rect class="st0" x="443.3" y="79.2" width="38.4" height="13.2"/>
  <rect class="st0" x="248.1" y="324.2" width="38.4" height="13.2"/>
  <rect class="st0" y="277" width="19.3" height="13.2"/>
  <rect class="st0" x="100.3" y="303.1" width="38.4" height="13.2"/>
  <rect class="st0" x="112.8" y="320.7" width="38.4" height="13.2"/>
  <rect class="st0" x="2.4" y="392.7" width="38.4" height="13.2"/>
  <rect class="st0" x="150.8" y="454.6" width="38.4" height="13.2"/>
  <rect class="st0" x="338.5" y="325.7" width="38.4" height="13.2"/>
</svg>