<?xml version="1.0" encoding="UTF-8"?>
<svg id="Layer_1" xmlns="http://www.w3.org/2000/svg" version="1.1" viewBox="0 0 500 500">
  <!-- Generator: Adobe Illustrator 29.0.1, SVG Export Plug-In . SVG Version: 2.1.0 Build 192)  -->
  <defs>
    <style>
      .st0 {
        fill: #ffcb05;
      }

      .st1 {
        fill: #010101;
      }

      .st2 {
        fill: #f48a8b;
      }

      .st3 {
        fill: #f38090;
      }

      .st4 {
        fill: #ef3e30;
      }

      .st5 {
        fill: #ef529d;
      }

      .st6 {
        fill: #f8b3a3;
      }

      .st7 {
        fill: #8ac640;
      }

      .st8 {
        fill: #3996d3;
      }
    </style>
  </defs>
  <rect class="st6" x=".7" y="0" width="499.1" height="500"/>
  <rect class="st2" x=".7" y="142.1" width="38.4" height="13.2"/>
  <rect class="st2" x="21.8" y="160.6" width="38.4" height="13.2"/>
  <rect class="st2" x="219.5" y="450.9" width="38.4" height="13.2"/>
  <rect class="st2" x="240.6" y="469.4" width="38.4" height="13.2"/>
  <rect class="st2" x="261.4" y="222.7" width="38.4" height="13.2"/>
  <rect class="st2" x="291.6" y="242.2" width="38.4" height="13.2"/>
  <rect class="st2" x="334.1" y="449" width="38.4" height="13.2"/>
  <rect class="st2" x="364.2" y="468.5" width="38.4" height="13.2"/>
  <rect class="st2" x="83.3" y="58.2" width="38.4" height="13.2"/>
  <rect class="st2" x="113.4" y="77.7" width="38.4" height="13.2"/>
  <rect class="st2" x="459.3" y="208.6" width="38.4" height="13.2"/>
  <rect class="st2" x="368.6" y="305.4" width="38.4" height="13.2"/>
  <rect class="st2" x="461.6" y="373.6" width="38.4" height="13.2"/>
  <rect class="st2" x="461.6" y="389.2" width="38.4" height="13.2"/>
  <rect class="st2" x="53.6" y="432.1" width="38.4" height="13.2"/>
  <rect class="st2" x="260.3" y="399.4" width="38.4" height="13.2"/>
  <rect class="st2" x="279.6" y="384.2" width="38.4" height="13.2"/>
  <rect class="st2" x="443.3" y="79.2" width="38.4" height="13.2"/>
  <rect class="st2" x="248.1" y="324.2" width="38.4" height="13.2"/>
  <rect class="st2" y="277" width="19.3" height="13.2"/>
  <rect class="st2" x="100.3" y="303.1" width="38.4" height="13.2"/>
  <rect class="st2" x="112.8" y="320.7" width="38.4" height="13.2"/>
  <rect class="st2" x="2.4" y="392.7" width="38.4" height="13.2"/>
  <rect class="st2" x="150.8" y="454.6" width="38.4" height="13.2"/>
  <rect class="st2" x="338.5" y="325.7" width="38.4" height="13.2"/>
  <g>
    <g>
      <path class="st1" d="M57.3,2.4c-14.4,10-33.2,10-47.6,0,.2-.3.4-.7.7-1,14,9.7,32.3,9.7,46.3,0,.2.3.4.7.7,1Z"/>
      <g>
        <polygon class="st1" points="23.1 9.7 21.5 9 22.2 7.4 23.8 8.1 23.1 9.7"/>
        <ellipse class="st0" cx="21.1" cy="12.2" rx="3.3" ry="3.4"/>
      </g>
      <g>
        <polygon class="st1" points="30.4 10.8 28.7 10.6 28.8 8.9 30.6 9 30.4 10.8"/>
        <ellipse class="st5" cx="29.2" cy="13.8" rx="3.3" ry="3.4"/>
      </g>
      <g>
        <polygon class="st1" points="38 10.8 36.3 11.1 36 9.3 37.7 9 38 10.8"/>
        <ellipse class="st7" cx="37.6" cy="14" rx="3.3" ry="3.4"/>
      </g>
      <g>
        <polygon class="st1" points="45.8 8.6 44.2 9.4 43.5 7.8 45 7 45.8 8.6"/>
        <path class="st8" d="M49.3,10.3c.8,1.7.1,3.7-1.5,4.5-1.6.8-3.6.1-4.4-1.6-.8-1.7-.1-3.7,1.5-4.5,1.6-.8,3.6-.1,4.4,1.6Z"/>
      </g>
      <g>
        <polygon class="st1" points="53.2 6.3 51.7 7.3 50.8 5.7 52.3 4.8 53.2 6.3"/>
        <path class="st3" d="M56.8,7.6c1,1.6.5,3.7-1.1,4.6-1.5,1-3.6.5-4.5-1.1s-.5-3.7,1.1-4.6c1.5-1,3.6-.5,4.5,1.1Z"/>
      </g>
      <g>
        <polygon class="st1" points="15 6.3 16.4 7.3 17.4 5.7 15.9 4.8 15 6.3"/>
        <path class="st4" d="M11.3,7.6c-1,1.6-.5,3.7,1.1,4.6,1.5,1,3.6.5,4.5-1.1,1-1.6.5-3.7-1.1-4.6-1.5-1-3.6-.5-4.5,1.1Z"/>
      </g>
    </g>
    <g>
      <path class="st1" d="M104.9,2.4c-14.4,10-33.2,10-47.6,0,.2-.3.4-.7.7-1,14,9.7,32.3,9.7,46.3,0,.2.3.4.7.7,1Z"/>
      <g>
        <polygon class="st1" points="70.7 9.7 69.1 9 69.8 7.4 71.4 8.1 70.7 9.7"/>
        <path class="st0" d="M71.8,13.5c-.7,1.7-2.6,2.5-4.3,1.8-1.7-.7-2.5-2.7-1.7-4.4.7-1.7,2.6-2.5,4.3-1.8,1.7.7,2.5,2.7,1.7,4.4Z"/>
      </g>
      <g>
        <polygon class="st1" points="78 10.8 76.3 10.6 76.4 8.9 78.2 9 78 10.8"/>
        <path class="st5" d="M80.1,14.1c-.2,1.9-1.8,3.2-3.6,3-1.8-.2-3.1-1.9-2.9-3.7.2-1.9,1.8-3.2,3.6-3,1.8.2,3.1,1.9,2.9,3.7Z"/>
      </g>
      <g>
        <polygon class="st1" points="85.6 10.8 83.9 11.1 83.6 9.3 85.3 9 85.6 10.8"/>
        <path class="st7" d="M88.4,13.5c.3,1.8-1,3.6-2.8,3.8-1.8.3-3.5-1-3.7-2.8-.3-1.8,1-3.6,2.8-3.8,1.8-.3,3.5,1,3.7,2.8Z"/>
      </g>
      <g>
        <polygon class="st1" points="93.4 8.6 91.8 9.4 91.1 7.8 92.6 7 93.4 8.6"/>
        <path class="st8" d="M96.9,10.3c.8,1.7.1,3.7-1.5,4.5-1.6.8-3.6.1-4.4-1.6-.8-1.7-.1-3.7,1.5-4.5,1.6-.8,3.6-.1,4.4,1.6Z"/>
      </g>
      <g>
        <polygon class="st1" points="100.8 6.3 99.3 7.3 98.4 5.7 99.9 4.8 100.8 6.3"/>
        <path class="st3" d="M104.4,7.6c1,1.6.5,3.7-1.1,4.6-1.5,1-3.6.5-4.5-1.1s-.5-3.7,1.1-4.6c1.5-1,3.6-.5,4.5,1.1Z"/>
      </g>
      <g>
        <polygon class="st1" points="62.6 6.3 64 7.3 65 5.7 63.5 4.8 62.6 6.3"/>
        <path class="st4" d="M58.9,7.6c-1,1.6-.5,3.7,1.1,4.6,1.5,1,3.6.5,4.5-1.1,1-1.6.5-3.7-1.1-4.6-1.5-1-3.6-.5-4.5,1.1Z"/>
      </g>
    </g>
    <g>
      <path class="st1" d="M152.5,2.4c-14.4,10-33.2,10-47.6,0,.2-.3.4-.7.7-1,14,9.7,32.3,9.7,46.3,0,.2.3.4.7.7,1Z"/>
      <g>
        <polygon class="st1" points="118.3 9.7 116.7 9 117.4 7.4 119 8.1 118.3 9.7"/>
        <path class="st0" d="M119.4,13.5c-.7,1.7-2.6,2.5-4.3,1.8-1.7-.7-2.5-2.7-1.7-4.4.7-1.7,2.6-2.5,4.3-1.8,1.7.7,2.5,2.7,1.7,4.4Z"/>
      </g>
      <g>
        <polygon class="st1" points="125.6 10.8 123.9 10.6 124 8.9 125.8 9 125.6 10.8"/>
        <ellipse class="st5" cx="124.4" cy="13.8" rx="3.3" ry="3.4"/>
      </g>
      <g>
        <polygon class="st1" points="133.2 10.8 131.5 11.1 131.2 9.3 132.9 9 133.2 10.8"/>
        <path class="st7" d="M136,13.5c.3,1.8-1,3.6-2.8,3.8-1.8.3-3.5-1-3.7-2.8-.3-1.8,1-3.6,2.8-3.8,1.8-.3,3.5,1,3.7,2.8Z"/>
      </g>
      <g>
        <polygon class="st1" points="141 8.6 139.4 9.4 138.7 7.8 140.2 7 141 8.6"/>
        <path class="st8" d="M144.5,10.3c.8,1.7.1,3.7-1.5,4.5-1.6.8-3.6.1-4.4-1.6-.8-1.7-.1-3.7,1.5-4.5,1.6-.8,3.6-.1,4.4,1.6Z"/>
      </g>
      <g>
        <polygon class="st1" points="148.4 6.3 146.9 7.3 146 5.7 147.5 4.8 148.4 6.3"/>
        <path class="st3" d="M152,7.6c1,1.6.5,3.7-1.1,4.6-1.5,1-3.6.5-4.5-1.1s-.5-3.7,1.1-4.6c1.5-1,3.6-.5,4.5,1.1Z"/>
      </g>
      <g>
        <polygon class="st1" points="110.2 6.3 111.6 7.3 112.6 5.7 111.1 4.8 110.2 6.3"/>
        <path class="st4" d="M106.5,7.6c-1,1.6-.5,3.7,1.1,4.6,1.5,1,3.6.5,4.5-1.1,1-1.6.5-3.7-1.1-4.6s-3.6-.5-4.5,1.1Z"/>
      </g>
    </g>
    <g>
      <path class="st1" d="M200.1,2.4c-14.4,10-33.2,10-47.6,0,.2-.3.4-.7.7-1,14,9.7,32.3,9.7,46.3,0,.2.3.4.7.7,1Z"/>
      <g>
        <polygon class="st1" points="165.9 9.7 164.3 9 165 7.4 166.6 8.1 165.9 9.7"/>
        <path class="st0" d="M167,13.5c-.7,1.7-2.6,2.5-4.3,1.8-1.7-.7-2.5-2.7-1.7-4.4.7-1.7,2.6-2.5,4.3-1.8,1.7.7,2.5,2.7,1.7,4.4Z"/>
      </g>
      <g>
        <polygon class="st1" points="173.2 10.8 171.5 10.6 171.6 8.9 173.4 9 173.2 10.8"/>
        <ellipse class="st5" cx="172" cy="13.8" rx="3.3" ry="3.4"/>
      </g>
      <g>
        <polygon class="st1" points="180.8 10.8 179.1 11.1 178.8 9.3 180.5 9 180.8 10.8"/>
        <path class="st7" d="M183.6,13.5c.3,1.8-1,3.6-2.8,3.8-1.8.3-3.5-1-3.7-2.8-.3-1.8,1-3.6,2.8-3.8,1.8-.3,3.5,1,3.7,2.8Z"/>
      </g>
      <g>
        <polygon class="st1" points="188.6 8.6 187 9.4 186.3 7.8 187.8 7 188.6 8.6"/>
        <path class="st8" d="M192.1,10.3c.8,1.7.1,3.7-1.5,4.5-1.6.8-3.6.1-4.4-1.6-.8-1.7-.1-3.7,1.5-4.5,1.6-.8,3.6-.1,4.4,1.6Z"/>
      </g>
      <g>
        <polygon class="st1" points="196 6.3 194.5 7.3 193.6 5.7 195.1 4.8 196 6.3"/>
        <path class="st3" d="M199.6,7.6c1,1.6.5,3.7-1.1,4.6-1.5,1-3.6.5-4.5-1.1-1-1.6-.5-3.7,1.1-4.6s3.6-.5,4.5,1.1Z"/>
      </g>
      <g>
        <polygon class="st1" points="157.8 6.3 159.2 7.3 160.2 5.7 158.7 4.8 157.8 6.3"/>
        <path class="st4" d="M154.1,7.6c-1,1.6-.5,3.7,1.1,4.6,1.5,1,3.6.5,4.5-1.1,1-1.6.5-3.7-1.1-4.6-1.5-1-3.6-.5-4.5,1.1Z"/>
      </g>
    </g>
    <g>
      <path class="st1" d="M247.7,2.4c-14.4,10-33.2,10-47.6,0,.2-.3.4-.7.7-1,14,9.7,32.3,9.7,46.3,0,.2.3.4.7.7,1Z"/>
      <g>
        <polygon class="st1" points="213.5 9.7 211.9 9 212.6 7.4 214.2 8.1 213.5 9.7"/>
        <path class="st0" d="M214.6,13.5c-.7,1.7-2.6,2.5-4.3,1.8-1.7-.7-2.5-2.7-1.7-4.4.7-1.7,2.6-2.5,4.3-1.8,1.7.7,2.5,2.7,1.7,4.4Z"/>
      </g>
      <g>
        <polygon class="st1" points="220.8 10.8 219.1 10.6 219.3 8.9 221 9 220.8 10.8"/>
        <path class="st5" d="M222.9,14.1c-.2,1.9-1.8,3.2-3.6,3-1.8-.2-3.1-1.9-2.9-3.7.2-1.9,1.8-3.2,3.6-3,1.8.2,3.1,1.9,2.9,3.7Z"/>
      </g>
      <g>
        <polygon class="st1" points="228.4 10.8 226.7 11.1 226.4 9.3 228.1 9 228.4 10.8"/>
        <path class="st7" d="M231.2,13.5c.3,1.8-1,3.6-2.8,3.8-1.8.3-3.5-1-3.7-2.8-.3-1.8,1-3.6,2.8-3.8,1.8-.3,3.5,1,3.7,2.8Z"/>
      </g>
      <g>
        <polygon class="st1" points="236.2 8.6 234.6 9.4 233.9 7.8 235.4 7 236.2 8.6"/>
        <path class="st8" d="M239.7,10.3c.8,1.7.1,3.7-1.5,4.5-1.6.8-3.6.1-4.4-1.6-.8-1.7-.1-3.7,1.5-4.5,1.6-.8,3.6-.1,4.4,1.6Z"/>
      </g>
      <g>
        <polygon class="st1" points="243.6 6.3 242.1 7.3 241.2 5.7 242.7 4.8 243.6 6.3"/>
        <path class="st3" d="M247.2,7.6c1,1.6.5,3.7-1.1,4.6-1.5,1-3.6.5-4.5-1.1-1-1.6-.5-3.7,1.1-4.6s3.6-.5,4.5,1.1Z"/>
      </g>
      <g>
        <polygon class="st1" points="205.4 6.3 206.9 7.3 207.8 5.7 206.3 4.8 205.4 6.3"/>
        <path class="st4" d="M201.7,7.6c-1,1.6-.5,3.7,1.1,4.6,1.5,1,3.6.5,4.5-1.1,1-1.6.5-3.7-1.1-4.6-1.5-1-3.6-.5-4.5,1.1Z"/>
      </g>
    </g>
    <g>
      <path class="st1" d="M295.3,2.4c-14.4,10-33.2,10-47.6,0,.2-.3.4-.7.7-1,14,9.7,32.3,9.7,46.3,0,.2.3.4.7.7,1Z"/>
      <g>
        <polygon class="st1" points="261.1 9.7 259.5 9 260.2 7.4 261.8 8.1 261.1 9.7"/>
        <ellipse class="st0" cx="259.2" cy="12.2" rx="3.3" ry="3.4"/>
      </g>
      <g>
        <polygon class="st1" points="268.4 10.8 266.7 10.6 266.9 8.9 268.6 9 268.4 10.8"/>
        <path class="st5" d="M270.5,14.1c-.2,1.9-1.8,3.2-3.6,3-1.8-.2-3.1-1.9-2.9-3.7.2-1.9,1.8-3.2,3.6-3,1.8.2,3.1,1.9,2.9,3.7Z"/>
      </g>
      <g>
        <polygon class="st1" points="276 10.8 274.3 11.1 274 9.3 275.7 9 276 10.8"/>
        <path class="st7" d="M278.8,13.5c.3,1.8-1,3.6-2.8,3.8-1.8.3-3.5-1-3.7-2.8-.3-1.8,1-3.6,2.8-3.8,1.8-.3,3.5,1,3.7,2.8Z"/>
      </g>
      <g>
        <polygon class="st1" points="283.8 8.6 282.2 9.4 281.5 7.8 283 7 283.8 8.6"/>
        <path class="st8" d="M287.3,10.3c.8,1.7.1,3.7-1.5,4.5-1.6.8-3.6.1-4.4-1.6-.8-1.7-.1-3.7,1.5-4.5,1.6-.8,3.6-.1,4.4,1.6Z"/>
      </g>
      <g>
        <polygon class="st1" points="291.2 6.3 289.7 7.3 288.8 5.7 290.3 4.8 291.2 6.3"/>
        <path class="st3" d="M294.9,7.6c1,1.6.5,3.7-1.1,4.6-1.5,1-3.6.5-4.5-1.1-1-1.6-.5-3.7,1.1-4.6,1.5-1,3.6-.5,4.5,1.1Z"/>
      </g>
      <g>
        <polygon class="st1" points="253 6.3 254.5 7.3 255.4 5.7 253.9 4.8 253 6.3"/>
        <path class="st4" d="M249.3,7.6c-1,1.6-.5,3.7,1.1,4.6,1.5,1,3.6.5,4.5-1.1,1-1.6.5-3.7-1.1-4.6s-3.6-.5-4.5,1.1Z"/>
      </g>
    </g>
    <g>
      <path class="st1" d="M343,2.4c-14.4,10-33.2,10-47.6,0,.2-.3.4-.7.7-1,14,9.7,32.3,9.7,46.3,0,.2.3.4.7.7,1Z"/>
      <g>
        <polygon class="st1" points="308.7 9.7 307.1 9 307.8 7.4 309.4 8.1 308.7 9.7"/>
        <ellipse class="st0" cx="306.8" cy="12.2" rx="3.3" ry="3.4"/>
      </g>
      <g>
        <polygon class="st1" points="316 10.8 314.3 10.6 314.5 8.9 316.2 9 316 10.8"/>
        <ellipse class="st5" cx="314.8" cy="13.8" rx="3.3" ry="3.4"/>
      </g>
      <g>
        <polygon class="st1" points="323.6 10.8 321.9 11.1 321.6 9.3 323.4 9 323.6 10.8"/>
        <path class="st7" d="M326.4,13.5c.3,1.8-1,3.6-2.8,3.8-1.8.3-3.5-1-3.7-2.8-.3-1.8,1-3.6,2.8-3.8,1.8-.3,3.5,1,3.7,2.8Z"/>
      </g>
      <g>
        <polygon class="st1" points="331.4 8.6 329.8 9.4 329.1 7.8 330.7 7 331.4 8.6"/>
        <path class="st8" d="M334.9,10.3c.8,1.7.1,3.7-1.5,4.5-1.6.8-3.6.1-4.4-1.6-.8-1.7-.1-3.7,1.5-4.5,1.6-.8,3.6-.1,4.4,1.6Z"/>
      </g>
      <g>
        <polygon class="st1" points="338.8 6.3 337.3 7.3 336.4 5.7 337.9 4.8 338.8 6.3"/>
        <path class="st3" d="M342.5,7.6c1,1.6.5,3.7-1.1,4.6-1.5,1-3.6.5-4.5-1.1-1-1.6-.5-3.7,1.1-4.6s3.6-.5,4.5,1.1Z"/>
      </g>
      <g>
        <polygon class="st1" points="300.6 6.3 302.1 7.3 303 5.7 301.5 4.8 300.6 6.3"/>
        <path class="st4" d="M296.9,7.6c-1,1.6-.5,3.7,1.1,4.6,1.5,1,3.6.5,4.5-1.1,1-1.6.5-3.7-1.1-4.6s-3.6-.5-4.5,1.1Z"/>
      </g>
    </g>
    <g>
      <path class="st1" d="M390.6,2.4c-14.4,10-33.2,10-47.6,0,.2-.3.4-.7.7-1,14,9.7,32.3,9.7,46.3,0,.2.3.4.7.7,1Z"/>
      <g>
        <polygon class="st1" points="356.3 9.7 354.7 9 355.4 7.4 357 8.1 356.3 9.7"/>
        <path class="st0" d="M357.4,13.5c-.7,1.7-2.6,2.5-4.3,1.8-1.7-.7-2.5-2.7-1.7-4.4.7-1.7,2.6-2.5,4.3-1.8,1.7.7,2.5,2.7,1.7,4.4Z"/>
      </g>
      <g>
        <polygon class="st1" points="363.6 10.8 361.9 10.6 362.1 8.9 363.8 9 363.6 10.8"/>
        <path class="st5" d="M365.7,14.1c-.2,1.9-1.8,3.2-3.6,3-1.8-.2-3.1-1.9-2.9-3.7s1.8-3.2,3.6-3c1.8.2,3.1,1.9,2.9,3.7Z"/>
      </g>
      <g>
        <polygon class="st1" points="371.2 10.8 369.5 11.1 369.2 9.3 371 9 371.2 10.8"/>
        <path class="st7" d="M374,13.5c.3,1.8-1,3.6-2.8,3.8-1.8.3-3.5-1-3.7-2.8-.3-1.8,1-3.6,2.8-3.8,1.8-.3,3.5,1,3.7,2.8Z"/>
      </g>
      <g>
        <polygon class="st1" points="379 8.6 377.4 9.4 376.7 7.8 378.3 7 379 8.6"/>
        <path class="st8" d="M382.5,10.3c.8,1.7.1,3.7-1.5,4.5-1.6.8-3.6.1-4.4-1.6-.8-1.7-.1-3.7,1.5-4.5s3.6-.1,4.4,1.6Z"/>
      </g>
      <g>
        <polygon class="st1" points="386.4 6.3 384.9 7.3 384 5.7 385.5 4.8 386.4 6.3"/>
        <path class="st3" d="M390.1,7.6c1,1.6.5,3.7-1.1,4.6-1.5,1-3.6.5-4.5-1.1-1-1.6-.5-3.7,1.1-4.6,1.5-1,3.6-.5,4.5,1.1Z"/>
      </g>
      <g>
        <polygon class="st1" points="348.2 6.3 349.7 7.3 350.6 5.7 349.1 4.8 348.2 6.3"/>
        <path class="st4" d="M344.5,7.6c-1,1.6-.5,3.7,1.1,4.6,1.5,1,3.6.5,4.5-1.1,1-1.6.5-3.7-1.1-4.6-1.5-1-3.6-.5-4.5,1.1Z"/>
      </g>
    </g>
    <g>
      <path class="st1" d="M438.2,2.4c-14.4,10-33.2,10-47.6,0,.2-.3.4-.7.7-1,14,9.7,32.3,9.7,46.3,0,.2.3.4.7.7,1Z"/>
      <g>
        <polygon class="st1" points="403.9 9.7 402.3 9 403 7.4 404.6 8.1 403.9 9.7"/>
        <path class="st0" d="M405,13.5c-.7,1.7-2.6,2.5-4.3,1.8-1.7-.7-2.5-2.7-1.7-4.4.7-1.7,2.6-2.5,4.3-1.8,1.7.7,2.5,2.7,1.7,4.4Z"/>
      </g>
      <g>
        <polygon class="st1" points="411.2 10.8 409.5 10.6 409.7 8.9 411.4 9 411.2 10.8"/>
        <path class="st5" d="M413.3,14.1c-.2,1.9-1.8,3.2-3.6,3-1.8-.2-3.1-1.9-2.9-3.7.2-1.9,1.8-3.2,3.6-3,1.8.2,3.1,1.9,2.9,3.7Z"/>
      </g>
      <g>
        <polygon class="st1" points="418.8 10.8 417.1 11.1 416.8 9.3 418.6 9 418.8 10.8"/>
        <path class="st7" d="M421.6,13.5c.3,1.8-1,3.6-2.8,3.8-1.8.3-3.5-1-3.7-2.8-.3-1.8,1-3.6,2.8-3.8,1.8-.3,3.5,1,3.7,2.8Z"/>
      </g>
      <g>
        <polygon class="st1" points="426.6 8.6 425 9.4 424.3 7.8 425.9 7 426.6 8.6"/>
        <path class="st8" d="M430.1,10.3c.8,1.7.1,3.7-1.5,4.5-1.6.8-3.6.1-4.4-1.6-.8-1.7-.1-3.7,1.5-4.5,1.6-.8,3.6-.1,4.4,1.6Z"/>
      </g>
      <g>
        <polygon class="st1" points="434 6.3 432.5 7.3 431.6 5.7 433.1 4.8 434 6.3"/>
        <path class="st3" d="M437.7,7.6c1,1.6.5,3.7-1.1,4.6-1.5,1-3.6.5-4.5-1.1-1-1.6-.5-3.7,1.1-4.6,1.5-1,3.6-.5,4.5,1.1Z"/>
      </g>
      <g>
        <polygon class="st1" points="395.8 6.3 397.3 7.3 398.2 5.7 396.7 4.8 395.8 6.3"/>
        <path class="st4" d="M392.1,7.6c-1,1.6-.5,3.7,1.1,4.6,1.5,1,3.6.5,4.5-1.1,1-1.6.5-3.7-1.1-4.6s-3.6-.5-4.5,1.1Z"/>
      </g>
    </g>
    <g>
      <path class="st1" d="M485.8,2.4c-14.4,10-33.2,10-47.6,0,.2-.3.4-.7.7-1,14,9.7,32.3,9.7,46.3,0,.2.3.4.7.7,1Z"/>
      <g>
        <polygon class="st1" points="451.6 9.7 449.9 9 450.6 7.4 452.2 8.1 451.6 9.7"/>
        <path class="st0" d="M452.6,13.5c-.7,1.7-2.6,2.5-4.3,1.8-1.7-.7-2.5-2.7-1.7-4.4.7-1.7,2.6-2.5,4.3-1.8,1.7.7,2.5,2.7,1.7,4.4Z"/>
      </g>
      <g>
        <polygon class="st1" points="458.8 10.8 457.1 10.6 457.3 8.9 459 9 458.8 10.8"/>
        <ellipse class="st5" cx="457.6" cy="13.8" rx="3.3" ry="3.4"/>
      </g>
      <g>
        <polygon class="st1" points="466.4 10.8 464.7 11.1 464.4 9.3 466.2 9 466.4 10.8"/>
        <path class="st7" d="M469.2,13.5c.3,1.8-1,3.6-2.8,3.8-1.8.3-3.5-1-3.7-2.8-.3-1.8,1-3.6,2.8-3.8,1.8-.3,3.5,1,3.7,2.8Z"/>
      </g>
      <g>
        <polygon class="st1" points="474.2 8.6 472.7 9.4 471.9 7.8 473.5 7 474.2 8.6"/>
        <path class="st8" d="M477.7,10.3c.8,1.7.1,3.7-1.5,4.5-1.6.8-3.6.1-4.4-1.6-.8-1.7-.1-3.7,1.5-4.5,1.6-.8,3.6-.1,4.4,1.6Z"/>
      </g>
      <g>
        <polygon class="st1" points="481.6 6.3 480.1 7.3 479.2 5.7 480.7 4.8 481.6 6.3"/>
        <path class="st3" d="M485.3,7.6c1,1.6.5,3.7-1.1,4.6-1.5,1-3.6.5-4.5-1.1-1-1.6-.5-3.7,1.1-4.6s3.6-.5,4.5,1.1Z"/>
      </g>
      <g>
        <polygon class="st1" points="443.4 6.3 444.9 7.3 445.8 5.7 444.3 4.8 443.4 6.3"/>
        <path class="st4" d="M439.7,7.6c-1,1.6-.5,3.7,1.1,4.6,1.5,1,3.6.5,4.5-1.1,1-1.6.5-3.7-1.1-4.6-1.5-1-3.6-.5-4.5,1.1Z"/>
      </g>
    </g>
  </g>
</svg>