<?xml version="1.0" encoding="UTF-8"?>
<svg id="Layer_1" xmlns="http://www.w3.org/2000/svg" version="1.1" viewBox="0 0 500 348.9">
  <!-- Generator: Adobe Illustrator 29.0.1, SVG Export Plug-In . SVG Version: 2.1.0 Build 192)  -->
  <defs>
    <style>
      .st0 {
        fill-rule: evenodd;
      }

      .st0, .st1 {
        fill: #fff;
      }
    </style>
  </defs>
  <path class="st0" d="M157.3,303.2h-3.8v-24.4h11.1v3.5h-7.4v6.6h5.5v3.5h-5.5v10.9M190.8,278.8v16.5c0,3.1-.4,4.6-1.4,6-1.1,1.4-2.9,2.2-5,2.2s-4-.8-5.1-2.2c-1-1.4-1.4-3-1.4-6v-16.5h3.8v17.1c0,2.9.8,4.1,2.7,4.1s2.7-1.2,2.7-4.1v-17.1h3.8M214.9,285.6c-.6-2.4-1.7-3.6-3.2-3.6s-2.4,1.1-2.4,2.5.4,1.8,1,2.4q.6.7,3.2,2.7c2,1.6,2.8,2.3,3.6,3.3,1,1.2,1.6,2.8,1.6,4.5,0,3.7-2.7,6.2-6.7,6.2s-6.6-2.2-7.4-6.9l3.6-1.1c.5,2.9,1.8,4.4,3.8,4.4s2.8-1.1,2.8-2.8-.8-2.5-3.6-4.7c-3.4-2.7-3.5-2.8-4.5-4-.9-1.1-1.4-2.6-1.4-4.1,0-3.5,2.6-6,6.4-6s5.8,2.1,6.8,6.1l-3.6,1.1M243.3,282.3h-7.3v6.4h5.4v3.5h-5.4v7.5h7.3v3.5h-11v-24.4h11v3.5M256.8,303.2h3.8v-24.4h-3.8v24.4ZM280.9,299.7c2.7,0,3.6-1.4,3.6-5.2v-7.1c0-3.8-.9-5.2-3.6-5.2h-1.9v17.4h1.9ZM275.3,278.8h6c4.8,0,7,2.4,7,7.6v9.1c0,5.2-2.3,7.6-7,7.6h-6v-24.4h0ZM313.7,282.3h-7.3v6.4h5.4v3.5h-5.4v7.5h7.3v3.5h-11v-24.4h11v3.5M334.4,283.5l-2,10.9h4l-2-10.9ZM331.8,297.9l-1,5.3h-3.7l4.7-24.4h5.2l4.9,24.4h-3.9l-1-5.3h-5.2ZM364.8,285.6c-.6-2.4-1.7-3.6-3.2-3.6s-2.4,1.1-2.4,2.5.4,1.8,1,2.4q.6.7,3.2,2.7c2,1.6,2.8,2.3,3.6,3.3,1,1.2,1.6,2.8,1.6,4.5,0,3.7-2.7,6.2-6.7,6.2s-6.6-2.2-7.4-6.9l3.6-1.1c.5,2.9,1.8,4.4,3.8,4.4s2.8-1.1,2.8-2.8-.8-2.5-3.6-4.7c-3.4-2.7-3.5-2.8-4.5-4-.9-1.1-1.4-2.6-1.4-4.1,0-3.5,2.6-6,6.4-6s5.8,2.1,6.8,6.1l-3.6,1.1M113.2,279.1l-8.1,8.1-5.9-5.9,14-14,14,14-5.9,5.9s-8.1-8.1-8.1-8.1ZM107.6,289.6l5.7-5.7,5.7,5.7-5.7,5.7-5.7-5.7ZM127.2,297.9l-14,14-14-14,5.9-5.9,8.1,8.1,8.1-8.1s5.9,5.9,5.9,5.9ZM132,281.3l-18.7-18.7-18.7,18.7,8.3,8.3-8.3,8.3,18.7,18.7,18.7-18.7-8.3-8.3s8.3-8.3,8.3-8.3Z"/>
  <g>
    <g>
      <path class="st1" d="M205.1,211.9h-.9l-.8-.7-1.2.7v.8c.1,0-.4.6-.4.6l-.5-.6v-.8c.1,0-1.2-.6-1.2-.6l-.7.6h-.7v-.7c.5-.1.9-.3,1.2-.5v-1.7c-.1,0-1.1-.5-1.1-.5l-.2-.7.8-.2s0,0,.8.8l1.3-.7c0-.5-.1-.8-.1-1.1l.6-.6.5.6c-.1.4-.2.8-.3,1.1l1.1.8,1.1-.8h.7c0,.1-.2.8-.2.8l-1.2.5v1.7c.4.1.8.2,1.1.4l.3.8ZM200.2,209.2v1.3c.4-.2.8-.5,1.2-.7l-1.2-.6ZM200.5,211l1.1.5v-1.4l-1.1.9ZM201.6,208l-1,.6,1.1.7c0-.5,0-.9,0-1.3ZM202.2,211.4l.9-.5c-.5-.3-.9-.7-1.1-.8l.2,1.3ZM202.1,209.3l.9-.7-.9-.6c0,.4,0,.8,0,1.3ZM203.4,210.4v-1.3c-.3.2-.7.4-1.1.7.3.3.7.5,1.1.7ZM205.5,239.9l.8-.7v-.2l-.8-.7v-.2c.1,0,1,.4,1,.4h.1c0,0,.2-1.2.2-1.2h.2v1.2c.1,0,.2.1.2.1l1-.4v.2c0,0-.8.6-.8.6v.2l.9.7v.2c-.1,0-1.1-.4-1.1-.4h-.1c0,.1-.2,1.1-.2,1.1h-.2v-1c-.1,0-.3-.1-.3-.1l-.9.4v-.2ZM208.6,223c0,5.3.5,10.1.5,11.1s-.2.1-.5.1c-.8,0-1.6-.1-2.4-.1.1-1.7.2-5.7.2-10.1s-.1-10.2-.5-14c0-.2,12.5-.2,12.5-.3,0,.8.3,1.6.3,2.6,0-.3-7.7-.3-10.2-.3,0,1,0,2.3,0,3.9s0,3.3,0,5.1c.2,0,1.2,0,2.4,0s4,0,6-.3c.2.9.3,1.5.3,2.5-.6-.1-3.3-.3-4.6-.3h-4.1ZM212.2,227l-.3,1-.3-1.1h-1c0,.1.6-.5.6-.5l-.7-1,1.1.2.3-.9.4,1,.9-.2-.6.7.8.9-1.1-.2ZM215,206.3v.9l-.6.3-.6-.3v-.7l.6-.5.6.3ZM219,217.9c-.2-.2-1.4-1.1-1.7-1.3,0,.5.1.8.2,2h-.8c.1-.9,0-1.2.1-2l-1.6,1.4s-.5-.6-.5-.6c.9-.2,1.2-.7,2-1.1l-2-1,.5-.7c.6.7,1.1,1,1.7,1.4,0-1.3,0-1.8-.1-2.2h.8c-.2.9-.2,1.3-.2,2.1l1.8-1.3c.1,0,.4.6.4.6-.9.4-1.3.6-2.1,1.1.8.7,1.5.7,2,1-.1.2-.3.3-.5.6ZM217.7,228.3l-.4.7h-.7l-.5-.6.4-.7h.7l.5.6Z"/>
      <path class="st1" d="M222.8,213.4l.8-.7v-.2l-.8-.7v-.2c.1,0,1,.4,1,.4h.1c0,0,.2-1.2.2-1.2h.2v1.2c.1,0,.2.1.2.1l1-.4v.2c0,0-.8.6-.8.6v.2l.9.7v.2c-.1,0-1.1-.4-1.1-.4h-.1c0,.1-.2,1.1-.2,1.1h-.2v-1c-.1,0-.3-.1-.3-.1l-.9.4v-.2ZM234.7,224.8c-1.9-.3-3.8-.8-5.2-1.2,0,5.2.2,9.8.2,10.6-.3,0-.7-.1-1.1-.1-.6,0-1.2,0-1.7.1.4-6,.5-10.2.5-16.4s-.3-5.2-.5-7.4c2.5-.1,5.3-.7,8.2-.7s1.3,0,1.9,0c1.9,1.3,4.2,3.7,5.5,7.4-.9,3.1-3.6,5.8-5.4,7.3,1.1,2,2.4,4.1,3.7,6.4.5.9,1.7,2.6,2.6,3.4,0,0-1.4,1.1-2.4,1.5-.6-.8-1-1.4-3.7-6.4-.8-1.5-1.7-3-2.6-4.5ZM229.5,221.5c1.9.6,4.7,1.4,6,1.4,1.3-1,3.8-3.4,4.2-5.8-.6-3-3.4-5.1-4.2-5.4-1,0-1.7-.1-2.4-.1-1.3,0-2.3.2-3.7.5,0,1.4,0,3.4,0,5.8v3.7ZM232.3,218.6l-.3,1-.3-1.1h-1c0,.1.6-.5.6-.5l-.7-1,1.1.2.3-.9.4,1,.9-.2-.6.7.8.9-1.1-.2ZM231.2,237.2l1.4-1.1v-.3l-1.4-1.1.2-.3,1.6.7h.2c0-.1.3-2.1.3-2.1h.4l.2,2,.2.2,1.8-.7v.4c.1,0-1.5,1-1.5,1v.3l1.5,1.1-.2.3-1.6-.7-.2.2-.3,1.8h-.4l-.2-1.8-.2-.2-1.5.7-.2-.4ZM233.7,235.2l-.7.3v.9l.7.3.6-.3v-.9l-.6-.4ZM242.6,210c-.2-.2-1.4-1.1-1.7-1.3,0,.5.1.8.2,2h-.8c.1-.9,0-1.2.1-2l-1.6,1.4s-.5-.6-.5-.6c.9-.2,1.2-.7,2-1.1l-2-1,.5-.7c.6.7,1.1,1,1.7,1.4,0-1.3,0-1.8-.1-2.2h.8c-.2.9-.2,1.3-.2,2.1l1.8-1.3c.1,0,.4.6.4.6-.9.4-1.3.6-2.1,1.1.8.7,1.5.7,2,1-.1.2-.3.3-.5.6ZM243.3,222v.9l-.6.3-.6-.3v-.7l.6-.5.6.3Z"/>
      <path class="st1" d="M249.1,236.3l1.4-1.1v-.3l-1.4-1.1.2-.3,1.6.7h.2c0-.1.3-2.1.3-2.1h.4l.2,2,.2.2,1.8-.7v.4c.1,0-1.5,1-1.5,1v.3l1.5,1.1-.2.3-1.6-.7-.2.2-.3,1.8h-.4l-.2-1.8-.2-.2-1.5.7-.2-.4ZM262.9,235.2c-4.3-1.4-7.5-3.1-11.1-5.6-.7-2.5-1.1-5-1.1-7.6s.3-4.9,1-7.2c3.5-2.8,6.3-4.2,10.7-5.8,4.2,1.6,8.1,3.5,11.6,6.5.6,2.7.8,4.9.8,7.1s-.2,4.1-.6,6.5c-3.1,2.9-7.2,4.9-11.3,6.1ZM251.6,234.2l-.7.3v.9l.7.3.6-.3v-.9l-.6-.4ZM251.1,209.9l.8-.7v-.2l-.8-.7v-.2c.1,0,1,.4,1,.4h.1c0,0,.2-1.2.2-1.2h.2v1.2c.1,0,.2.1.2.1l1-.4v.2c0,0-.8.6-.8.6v.2l.9.7v.2c-.1,0-1.1-.4-1.1-.4h-.1c0,.1-.2,1.1-.2,1.1h-.2v-1c-.1,0-.3-.1-.3-.1l-.9.4v-.2ZM272.3,223c0-2.1-.2-4.2-.6-6.2-2.4-2.7-6.9-4.5-9.7-5.5-2.4,1-6.1,2.9-8.1,4.6-.4,2-.6,4-.6,6.1s.2,4,.6,6c2.2,1.8,6.9,4.1,9.2,5.1,2.2-.8,6.7-3.1,8.5-4.9.5-1.7.7-3.5.7-5.2ZM256.5,206.5v.9l-.6.3-.6-.3v-.7l.6-.5.6.3ZM265.6,218.6h-.9l-.8-.7-1.2.7v.8c.1,0-.4.6-.4.6l-.5-.6v-.8c.1,0-1.2-.6-1.2-.6l-.7.6h-.7v-.7c.5-.1.9-.3,1.2-.5v-1.7c-.1,0-1.1-.5-1.1-.5l-.2-.7.8-.2s0,0,.8.8l1.3-.7c0-.5-.1-.8-.1-1.1l.6-.6.5.6c-.1.4-.2.8-.3,1.1l1.1.8,1.1-.8h.7c0,.1-.2.8-.2.8l-1.2.5v1.7c.4.1.8.2,1.1.4l.3.8ZM260.8,215.9v1.3c.4-.2.8-.5,1.2-.7l-1.2-.6ZM261,217.7l1.1.5v-1.4l-1.1.9ZM262.1,214.7l-1,.6,1.1.7c0-.5,0-.9,0-1.3ZM263.4,228.3l-.4.7h-.7l-.5-.6.4-.7h.7l.5.6ZM262.7,218.1l.9-.5c-.5-.3-.9-.7-1.1-.8l.2,1.3ZM262.6,216l.9-.7-.9-.6c0,.4,0,.8,0,1.3ZM263.9,217.1v-1.3c-.3.2-.7.4-1.1.7.3.3.7.5,1.1.7ZM268.3,225.4l-.3,1-.3-1.1h-1c0,.1.6-.5.6-.5l-.7-1,1.1.2.3-.9.4,1,.9-.2-.6.7.8.9-1.1-.2Z"/>
      <path class="st1" d="M284.5,211.3c-.2-.2-1.4-1.1-1.7-1.3,0,.5.1.8.2,2h-.8c.1-.9,0-1.2.1-2l-1.6,1.4s-.5-.6-.5-.6c.9-.2,1.2-.7,2-1.1l-2-1,.5-.7c.6.7,1.1,1,1.7,1.4,0-1.3,0-1.8-.1-2.2h.8c-.2.9-.2,1.3-.2,2.1l1.8-1.3c.1,0,.4.6.4.6-.9.4-1.3.6-2.1,1.1.8.7,1.5.7,2,1-.1.2-.3.3-.5.6ZM309.9,235.1c-.7-6.6-1.8-13.8-3.2-20.5-.9,2.5-8,18.3-8.5,20.1-.6-1.7-8.2-17.1-9.5-19.7-.8,4.8-1.8,10.3-2.3,15.6-.1.7-.3,3.4-.3,4.4-1-.3-1.9-.5-2.9-.6.3-1.7.8-3.7,1.1-5.6,1-6.9,2-12.1,2.8-18.6.6,0,1.3-.2,1.8-.4,1.9,4.6,6.9,14.8,9.2,19.8,2-5.1,4.9-11.7,7.4-17.7.3-.7.5-1.3.6-2,.8,0,1.4,0,2.2-.1,1.4,8.3,2.4,16.7,4.7,24.7-.9.1-2,.5-3,.8ZM287,239.3l1.4-1.1v-.3l-1.4-1.1.2-.3,1.6.7h.2c0-.1.3-2.1.3-2.1h.4l.2,2,.2.2,1.8-.7v.4c.1,0-1.5,1-1.5,1v.3l1.5,1.1-.2.3-1.6-.7-.2.2-.3,1.8h-.4l-.2-1.8-.2-.2-1.5.7-.2-.4ZM289.5,237.3l-.7.3v.9l.7.3.6-.3v-.9l-.6-.4ZM291.2,228.6l-.3,1-.3-1.1h-1c0,.1.6-.5.6-.5l-.7-1,1.1.2.3-.9.4,1,.9-.2-.6.7.8.9-1.1-.2ZM294.5,205.4l-.4.7h-.7l-.5-.6.4-.7h.7l.5.6ZM302.5,214.1h-.9l-.8-.7-1.2.7v.8c.1,0-.4.6-.4.6l-.5-.6v-.8c.1,0-1.2-.6-1.2-.6l-.7.6h-.7v-.7c.5-.1.9-.3,1.2-.5v-1.7c-.1,0-1.1-.5-1.1-.5l-.2-.7.8-.2s0,0,.8.8l1.3-.7c0-.5-.1-.8-.1-1.1l.6-.6.5.6c-.1.4-.2.8-.3,1.1l1.1.8,1.1-.8h.7c0,.1-.2.8-.2.8l-1.2.5v1.7c.4.1.8.2,1.1.4l.3.8ZM297.6,211.4v1.3c.4-.2.8-.5,1.2-.7l-1.2-.6ZM297.9,213.2l1.1.5v-1.4l-1.1.9ZM299,210.3l-1,.6,1.1.7c0-.5,0-.9,0-1.3ZM299.6,213.7l.9-.5c-.5-.3-.9-.7-1.1-.8l.2,1.3ZM299.5,211.5l.9-.7-.9-.6c0,.4,0,.8,0,1.3ZM300.8,212.7v-1.3c-.3.2-.7.4-1.1.7.3.3.7.5,1.1.7ZM303.1,238.8l.8-.7v-.2l-.8-.7v-.2c.1,0,1,.4,1,.4h.1c0,0,.2-1.2.2-1.2h.2v1.2c.1,0,.2.1.2.1l1-.4v.2c0,0-.8.6-.8.6v.2l.9.7v.2c-.1,0-1.1-.4-1.1-.4h-.1c0,.1-.2,1.1-.2,1.1h-.2v-1c-.1,0-.3-.1-.3-.1l-.9.4v-.2ZM308.5,235.4v.9l-.6.3-.6-.3v-.7l.6-.5.6.3Z"/>
    </g>
    <g>
      <polygon class="st1" points="332.5 75.1 332.5 75.1 332.5 75.1 332.5 75.1"/>
      <polygon class="st1" points="307 23.8 307 22.3 305.9 21.7 304.7 22.3 304.7 23.9 306 24.6 307 23.8"/>
      <path class="st1" d="M136,70.2c.7,0,1.3,0,1.9.1v-6.6c0-2.8,0-6.7,0-13.6,8.1-1.2,17.4-1.3,25-1.4v1.9c0,4.3,0,8.4,0,11.8s0,7.9,0,7.9c.5-.2,1.5-.2,2.4-.2s1.7,0,2.2.2c-.4-3.9-.7-10.1-.7-14.2,0-11,.6-18.3,1.2-28.9-.7.2-1.4.2-2.2.2s-2-.1-2.9-.2c0,.4.1,1.6.1,3.3,0,3.3-.1,8.6-.1,14.2-3.9.7-19.9,1.4-25,1.4,0-9.7.1-19.1.1-19.1-.7.1-2.4.2-3.8.2s-.7,0-1,0c.4,3.9.8,9.9.8,14.1,0,11-.6,18.5-1.3,29.1,1-.1,2.1-.2,3.1-.2Z"/>
      <path class="st1" d="M142.7,25.1l.2,3c-.6.3-1.2.6-2,.8l-.2,1.3h1.3l1.2-1,2.3,1.1-.2,1.4.9,1,.9-1-.2-1.5,2.1-1.2,1.4,1.2h1.5l-.6-1.5c-.6-.3-1.2-.5-1.9-.7v-3l2.2-.9.4-1.2-1.3-.2-2,1.4-2-1.4c.1-.6.2-1.2.5-1.9l-.9-1.1-1,1.1c0,.5.2,1.1.2,1.9l-2.3,1.2c-1.3-1.3-1.3-1.4-1.4-1.4l-1.4.3.4,1.3,1.7.9ZM148.9,25.4v2.3c-.7-.2-1.4-.6-2-1.2M146.7,23.4l1.5,1.1-1.6,1.2c0-.9,0-1.6,0-2.3ZM148.5,28.6l-1.6.9-.3-2.3c.3.2,1.1.8,1.9,1.4ZM145.8,29.5l-1.9-.9,1.9-1.6v2.5ZM145.7,23.4c0,.7.1,1.5.1,2.3l-1.9-1.3,1.8-1ZM145.5,26.5c-.8.4-1.4.8-2,1.2v-2.2c-.1,0,2,1,2,1Z"/>
      <polygon class="st1" points="158.8 74.6 159.9 75.1 161 74.6 161 73 159.9 72.5 158.8 73.3 158.8 74.6"/>
      <path class="st1" d="M122.4,45.1l2.9-2.4c0,1.5,0,2-.2,3.6h1.4c-.2-2.1-.4-2.8-.4-3.6.6.3,2.7,2,3,2.3.2-.5.6-.7.9-1.1-1-.6-2.2-.6-3.6-1.8,1.5-.9,2.2-1.2,3.7-1.9,0,0-.5-1-.7-1.1l-3.3,2.3c0-1.5,0-2.2.4-3.8h-1.5c.1.7.2,1.7.2,3.9-.9-.7-1.9-1.2-3-2.5l-.8,1.2,3.5,1.9c-1.4.7-2,1.5-3.6,1.9,0,0,.9,1,.9,1Z"/>
      <polygon class="st1" points="143.6 60.3 144.2 62.2 144.8 60.5 146.8 60.8 145.4 59.3 146.6 58 144.9 58.3 144.2 56.5 143.7 58.2 141.7 57.7 142.9 59.5 141.8 60.5 143.6 60.3"/>
      <polygon class="st1" points="157.8 53 157 51.9 155.7 51.9 155 53.1 155.8 54.2 157 54.2 157.8 53"/>
      <path class="st1" d="M177.9,39.5l.4.6,2.8-1.3.4.2.6,3.5h.7l.3-3.6.4-.3,3.1,1.2.2-.7-2.8-1.8v-.6l2.7-2-.4-.6-2.9,1.3-.3-.4-.6-3.2h-.7l-.4,3.2-.4.4-2.7-1.2-.4.7,2.5,2v.6l-2.5,2ZM181.1,36.3l1.2-.6,1.1.6v1.5l-1,.7-1.3-.6v-1.7Z"/>
      <polygon class="st1" points="214.7 20.7 215.4 19.5 214.6 18.4 213.3 18.4 212.7 19.6 213.5 20.7 214.7 20.7"/>
      <path class="st1" d="M218.3,57.8c-5-10.8-10.7-23.9-13.7-30.6h-3.5c-4.1,11.2-9.7,21.5-14.2,33.1-1.3,3.2-3.3,7.1-4.6,9.2,2.6.6,3.3.7,5.4,1.5.4-1.5,1.8-6.4,2.3-7.5,7.1-1.9,17-3.7,23.6-3.9,1.7-.8,3-1.3,4.1-1.4.2-.1.4-.2.7-.3ZM191.7,58.8c3.3-8.3,8.3-18.7,11.3-25.3,1,1.8,5.6,12.3,9.7,22.1-4.3,1.5-16.8,3.1-21.1,3.2Z"/>
      <polygon class="st1" points="187.2 26.2 186.6 27.9 186.9 28.1 187.9 26.7 188.2 26.8 189.4 28.3 189.8 28 189.1 26.3 189.2 26 191 25.8 191 25.4 189.1 25.1 188.9 24.9 189.8 23.1 189.5 22.9 188.3 24.4 188 24.4 186.8 22.6 186.4 22.8 187.2 24.7 187 25 185.3 25.2 185.2 25.6 187.1 25.9 187.2 26.2"/>
      <path class="st1" d="M212,76.5c0,0,0,.1-.1.2h.4c0,0-.2-.2-.2-.2Z"/>
      <path class="st1" d="M218.4,68.9c.3.7.5,1.3.8,1.9,1.5-.6,3.4-.8,4.9-.9-.5-1-1.1-2.1-1.7-3.4-.3,0-.8.2-1.5.4-.7.3-1.6,1-2.5,1.9Z"/>
      <path class="st1" d="M238.3,70.3c.9-.1,1.8-.2,2.8-.2s1.6,0,2.3.2c0-1.2-.4-8.6-.5-17.3,3.4.9,9.8,1.9,14.3,2.4,3-2.3,8.8-8.1,10.1-14.5-2.6-7.5-7.8-11.3-11.2-13.8-1.1-.1-2.2-.1-3.3-.1-5.4,0-10.7,1-14.7,1.2.4,3.9.9,9,.9,13.1,0,11-.1,18.4-.8,29ZM249.3,30.4c1.4,0,2.8,0,4.5.2,1.4.6,7.8,5,8.9,10.2-.4,4.3-4.7,8.8-6.8,10.8-2.5-.1-9.2-1.3-12.9-2.4v-8c0-4.3,0-7.9,0-10.3,2.2-.4,4.1-.6,6.4-.6Z"/>
      <path class="st1" d="M265.4,71l1.3-.2-.4-1.2-2.2-.9v-3c.7-.2,1.4-.4,1.9-.7l.6-1.5h-1.5l-1.4,1.2-2.1-1.2.2-1.5-.9-1-.9,1,.2,1.4-2.3,1.1-1.2-1h-1.3l.2,1.3c.7.2,1.4.5,2,.8l-.2,3-1.7.9-.4,1.3,1.4.3c0,0,0,0,1.4-1.4l2.3,1.2c0,.8-.2,1.4-.2,1.9l1,1.1.9-1.1c-.2-.7-.4-1.4-.5-1.9l2-1.4,2,1.4ZM260.4,64.2v2.5l-1.9-1.6,1.9-.9ZM258.1,66.1c.6.4,1.2.8,2,1.2l-2.2,1v-2.2ZM260.3,70.3l-1.8-1,1.9-1.3c0,.9,0,1.7-.1,2.3ZM263.5,68.4c-.6-.3-1.2-.7-2-1.2.6-.6,1.3-.9,2-1.2v2.3ZM261.5,64.3l1.6.9c-.8.6-1.6,1.2-1.9,1.4l.3-2.3ZM261.4,70.3c0-.7,0-1.4,0-2.3l1.6,1.2-1.5,1.1Z"/>
      <polygon class="st1" points="258.2 44.5 259 43.5 258.2 42.3 257 42.3 256.2 43.4 256.9 44.5 258.2 44.5"/>
      <polygon class="st1" points="230.8 29.3 231.1 29.7 232.7 28.9 232.9 29.1 233.2 31.1 233.7 31.1 233.9 29 234.1 28.8 235.9 29.5 236 29.1 234.4 28.1 234.4 27.8 236 26.6 235.7 26.2 234.1 27 233.9 26.8 233.6 24.9 233.1 24.9 232.9 26.8 232.6 27 231.1 26.3 230.8 26.6 232.3 27.8 232.3 28.1 230.8 29.3"/>
      <path class="st1" d="M257.5,25.5l.4.6,2.8-1.3.4.2.6,3.5h.7l.3-3.6.4-.3,3.1,1.2.2-.7-2.8-1.8v-.6l2.7-2-.4-.6-2.9,1.3-.3-.4-.6-3.2h-.7l-.4,3.2-.4.4-2.7-1.2-.4.7,2.5,2v.6l-2.5,2ZM260.8,22.3l1.2-.6,1.1.6v1.5l-1,.7-1.3-.6v-1.7Z"/>
      <path class="st1" d="M301.5,25.5l.4.6,2.8-1.3.4.2.6,3.5h.7l.3-3.6.4-.3,3.1,1.2.2-.7-2.8-1.8v-.6l2.7-2-.4-.6-2.9,1.3-.3-.4-.6-3.2h-.7l-.4,3.2-.4.4-2.7-1.2-.4.7,2.5,2v.6l-2.5,2ZM304.7,22.3l1.2-.6,1.1.6v1.5l-1,.7-1.3-.6v-1.7Z"/>
      <path class="st1" d="M282.3,70.3c.9-.1,1.9-.2,2.8-.2s1.6,0,2.3.2c0-1.2-.4-8.6-.5-17.3,3.4.9,9.8,1.9,14.3,2.4,3-2.3,8.8-8.1,10.1-14.5-2.6-7.5-7.8-11.3-11.2-13.8-1.1-.1-2.2-.1-3.3-.1-5.4,0-10.7,1-14.7,1.2.4,3.9.9,9,.9,13.1,0,11-.1,18.4-.8,29ZM293.2,30.4c1.4,0,2.8,0,4.5.2,1.4.6,7.8,5,8.9,10.2-.4,4.3-4.7,8.8-6.8,10.8-2.5-.1-9.2-1.3-12.9-2.4v-8c0-4.3,0-7.9,0-10.3,2.2-.4,4.1-.6,6.4-.6Z"/>
      <path class="st1" d="M308.1,68.1v-2.3c.7-.2,1.4-.4,1.9-.7l.6-1.5h-1.5l-1.4,1.2-2.1-1.2.2-1.5-.9-1-.9,1,.2,1.4-2.3,1.1-1.2-1h-1.3l.2,1.3c.7.2,1.4.5,2,.8l-.2,3-1.7.9-.4,1.3,1.4.3c0,0,0,0,1.4-1.4l2.3,1.2c0,.7-.1,1.2-.2,1.7,1.2-1.6,2.8-3.5,4.1-4.6ZM304.3,64.2v2.5l-1.9-1.6,1.9-.9ZM302.1,66.1c.6.4,1.2.8,2,1.2l-2.2,1v-2.2ZM304.3,70.3l-1.8-1,1.9-1.3c0,.9,0,1.7-.1,2.3ZM307.5,68.4c-.6-.3-1.2-.7-2-1.2.6-.6,1.3-.9,2-1.2v2.3ZM305.5,64.3l1.6.9c-.8.6-1.6,1.2-1.9,1.4l.3-2.3ZM305.3,70.3c0-.7,0-1.4,0-2.3l1.6,1.2-1.5,1.1Z"/>
      <polygon class="st1" points="302.1 44.5 302.9 43.5 302.2 42.3 301 42.3 300.2 43.4 300.8 44.5 302.1 44.5"/>
      <polygon class="st1" points="274.8 29.3 275.1 29.7 276.7 28.9 276.9 29.1 277.2 31.1 277.6 31.1 277.8 29 278.1 28.8 279.9 29.5 280 29.1 278.4 28.1 278.4 27.8 279.9 26.6 279.7 26.2 278 27 277.8 26.8 277.5 24.9 277.1 24.9 276.8 26.8 276.6 27 275.1 26.3 274.8 26.6 276.2 27.8 276.2 28.1 274.8 29.3"/>
      <polygon class="st1" points="350.5 57.9 351.1 59.8 351.7 58.1 353.7 58.4 352.4 56.9 353.5 55.6 351.8 55.9 351.1 54.1 350.6 55.8 348.6 55.3 349.8 57 348.7 58.1 350.5 57.9"/>
      <path class="st1" d="M322.8,51.7l.2,3c-.6.3-1.2.6-2,.8l-.2,1.3h1.3l1.2-1,2.3,1.1-.2,1.4.9,1,.9-1-.2-1.5,2.1-1.2,1.4,1.2h1.5l-.6-1.5c-.6-.3-1.2-.5-1.9-.7v-3l2.2-.9.4-1.2-1.3-.2-2,1.4-2-1.4c.1-.6.2-1.2.5-1.9l-.9-1.1-1,1.1c0,.5.2,1.1.2,1.9l-2.3,1.2c-1.3-1.3-1.3-1.4-1.4-1.4l-1.4.3.4,1.3,1.7.9ZM329,51.9v2.3c-.7-.2-1.4-.6-2-1.2.7-.5,1.4-.9,2-1.2ZM326.8,50l1.5,1.1-1.6,1.2M328.6,55.1l-1.6.9-.3-2.3c.3.2,1.1.8,1.9,1.4ZM325.9,56.1l-1.9-.9,1.9-1.6v2.5ZM325.8,50c0,.7.1,1.5.1,2.3l-1.9-1.3,1.8-1ZM325.6,53.1c-.8.4-1.4.8-2,1.2v-2.2c-.1,0,2,1,2,1Z"/>
      <polygon class="st1" points="341.9 18 341.9 16.4 340.8 15.9 339.7 16.7 339.7 18 340.8 18.5 341.9 18"/>
      <path class="st1" d="M337.1,70.3c.8,0,1.7-.1,2.6-.1s2,0,2.8.2c-.3-2.2-.8-12.6-.9-19.5,4.9-6.4,11-17.4,16-22.1-1.8-.7-3.2-1.2-4.4-2.5l-13.1,20.7c-4.4-7.2-8.9-14.4-13.8-20.7-1,1-4.4,2.5-4.4,2.5,5.2,5.1,11.7,14.9,16.2,21.9-.2,7.5-.3,12.8-.9,19.7Z"/>
      <path class="st1" d="M340.4,23.9l2.5,2v.6l-2.5,2,.4.7,2.7-1.2.4.4.4,3.2h.7l.6-3.2.3-.4,2.9,1.3.4-.6-2.7-2v-.6l2.8-1.8-.2-.7-3.1,1.2-.4-.3-.3-3.6h-.7l-.6,3.5-.4.2-2.8-1.3-.4.6ZM343.6,25.5l1.3-.6,1,.7v1.5l-1.1.6-1.2-.6v-1.7Z"/>
      <polygon class="st1" points="327.7 23.2 328 23.6 329.5 22.9 329.7 23.1 330 24.9 330.4 24.9 330.7 23.1 330.9 22.9 332.6 23.6 332.8 23.3 331.3 22.1 331.3 21.8 332.9 20.7 332.8 20.4 331 21 330.7 20.9 330.5 18.8 330.1 18.8 329.8 20.8 329.6 20.9 328 20.2 327.7 20.5 329.1 21.7 329.1 22 327.7 23.2"/>
    </g>
    <g>
      <path class="st1" d="M90.3,189.7l-2.5-2.3c.2-1.8.2-3.5.4-5.3.2-3,.4-5.4.7-5.8.4-.4.4-.5.4-.9v-.9c0-1.9,1.2-8.9,1.8-12.1l.5-3.5c.5-2.5,2.6-13.5,3.2-14.4.2-.4.2-.7.2-1.6s0-.7.2-.7c.4,0,.7-.9.7-1.9s.2-1.8.4-1.8.2-.4.2-.7v-.5l-.4-1.2-2.5.4c-1.8.2-13.7.9-18.4.9-10.3,0-12.3-1.2-14.9-1.8-.7.2-.9.9-1.4,2.3-.4,1.1-.7,2.3-1.1,2.8-.4.5-.5,1.9-.7,3.3-.2,1.2-.5,2.6-.7,2.8-.4.4-.5,2.1-1.1,3.9l-1.8,6.5c-1.2,4.2-2.3,11.2-2.6,15.8-.4,4-1.9,11.9-2.8,14-.4.9-1.4,1.2-2.5,1.2s-2.1-.4-2.8-.9-1.4-.9-1.6-.9c-.5,0-1.2-1.9-1.2-3.3s0-.7.2-1.1c.4-.7.5-3.7.7-6.7.2-2.8.4-5.4.7-5.8.2-.2.7-2.3,1.1-4.6.4-2.1.9-4.6,1.2-5.3.4-.7.7-2.3.7-3.3s.2-3.7.9-4.4c.4-.4.5-1.8.5-2.8,0-1.9,2.8-12.4,3.5-15.8-1.6-1.1-6.7-3.3-20-3.3s-14.7,4.6-15.4,10.5c-.2.5-.2,1.1-.2,1.6,0,2.3,1.1,4,3,5.4,1.1.9,1.8,1.2,2.6,1.2s.7,0,1.2-.2l1.8-.4c.2.2.4.4.4.5,0,.4-.4.7-.4,1.1,0,.7-.7,2.3-3.9,2.3s-2.8-.9-4.4-1.4c-3-2.5-5.8-6-5.8-10.2s.2-1.4.4-2.1c1.9-8.2,12.8-12.1,20.8-12.1s13.1,3.2,20.3,3.2.9-.2,1.2-1.1l1.2-5.4c0-1.2.4-2.8.7-3.7.4-1.1.9-2.8,1.1-4.2v-.4c.2-1.4.4-2.6.7-3s.5-1.4.7-2.1l.5-2.5c.2-.7.4-1.9.4-2.6s.2-1.8.5-2.1c.2-.2.7-2.3,1.1-4.6.4-2.3.9-4.4,1.1-4.6.4-.4.5-1.9.7-3.7.4-3.5,1.9-7.7,3.5-9.3s1.9-1.1,3-1.1,1.2.2,1.6.4c.9.5,1.2,2.6,1.2,5.4s-.2,4.6-.5,7.2c-.2,1.8-.5,3.5-.7,5.3-.2,1.2-.5,2.6-.7,3-.2.4-.5,2.1-.7,3.9-.2,1.9-.5,3.3-.7,3.3s-.4.2-.4.4c0,.4.2.7.2,1.1,0,.7-.2,1.6-.4,2.5l-1.6,6c-.4,1.6-1.2,4-1.8,5.4-.9,2.1-1.1,3.7-1.1,6v3.2l1.4.2c2.8.4,8.1,1.6,16.3,1.6s15.9,0,17.7-.9c1.1-.5,2.6-3.5,3.7-11,.2-1.2.5-2.5.7-2.8.4-.9.2-1.1,1.1-5.1.4-1.6.7-3,1.1-3.3.4-.4.7-1.9.9-3.3.2-1.6.7-3.7,1.1-4.9l1.6-4.7,1.1-3.3c.2-.4.5-1.6.5-2.6s.7-3,1.1-4.4l1.6-5.3c.9-3.2,1.2-3.7,2.5-3.9,1.1-.2,1.9-.2,2.6-.2s1.4.2,1.8.7c.4.5.5,3.5.5,6.5s-.2,5.8-.5,6.5c-.2.4-.5,1.4-.7,2.3l-.7,3.9c-.7,4.2-2.3,11.2-3,12.8-.4.9-.9,2.5-1.1,3.7-3.3,13.8-3.5,15.2-4.9,21l-1.6,6.5c-.5,2.1-.9,4.2-1.4,6.3-1.8,7.9-2.5,11.7-3.2,13.5-.4.9-.9,3-1.1,4.9-.2,1.8-.7,4.2-.9,5.4-.7,4.7-1.2,9.6-1.9,14.4l.4,2.1c0,.7-.4,1.2-1.1,2.1-.7.9-1.4,1.2-2.1,1.2-1.1,0-2.1-.9-3.9-2.5Z"/>
      <path class="st1" d="M121.7,178.6c-.4-1.1-1.2-2.8-1.9-3.9-.9-1.2-1.1-3-1.2-6.1v-1.9c0-7.7,2.6-19.1,7.5-23.3,3.9-3.2,4.7-9.8,14-14.4,1.8-.9,4.9-1.8,6.8-1.8,3.2,0,7.9,2.5,8.2,4,.2.7.9,1.6,1.6,1.8,1.2.4,1.8,2.3,1.8,4.9,0,4.7-1.6,11.7-3.2,15.6-.4.9-.9,2.6-.9,3.5,3.7,0,6.7-.7,9.8-3.5s6-6.3,7.2-9.1c.7-1.6,1.2-1.6,1.9-1.6s1.8.2,1.8,1.1-1.8,5.8-8.2,11.9c-4.2,4-13.3,4.9-14,4.9-.5,1.4-6.5,9.1-7.7,10.3s-2.5,2.5-2.5,2.8c0,.5-2.8,3.5-6.5,6-1.6.7-3.2,1.2-4.7,1.9-4.2,0-8.8,0-9.8-3.2ZM135.3,175.3c.9-1.1,7.4-6.7,9.1-9.5.9-1.4,1.9-3,2.6-3.7.7-.7,1.1-1.2,1.1-1.8s-.7-.9-2.1-.9-1.9-.5-2.5-.7c-2.8-.9-7.5-6-8.1-7.9-.4-1.1-.9-1.6-1.4-1.6s-.7.2-.9.9c-.4,1.4-1.4,3.9-2.1,5.1-.4.5-.5,1.6-.5,1.9,0,.5-.2,1.4-.5,2.1-.9,1.4-2.8,11-2.8,12.4,0,2.5,1.2,5.4,4,5.4s2.8-.5,4-1.9ZM152.5,145.2c.5-1.2.9-3.2.9-5.3s-.5-5.8-1.4-7c-.7-.9-1.8-1.4-2.8-1.4s-2.8.7-4,1.9-3.9,3.5-3.9,5.8-.2.9-.4,1.2c-.4.4-.4,1.6-.4,3s.2,4.6.7,6.7,6,7,7.9,7c1.4-3.5,2.1-9.5,3.3-11.9Z"/>
      <path class="st1" d="M177.3,183.5c-3.3-2.1-6.7-8.8-6.7-12.1s-.2-3.2-.4-3.7c-.2-.5-.2-1.1-.2-1.4,0-.5,0-1.1.2-1.8.2-.7.4-1.2.4-1.6s0-.4-.4-.5c-.2-.2-.4-.4-.4-.9,0-2.5,1.1-1.9,1.1-8.4s2.1-18.4,3-19.8c.4-.7,1.8-6.1,2.3-6.1s.5-1.4,1.2-3.9l1.1-4c.7-2.1,4-10.3,4-9.6,0-.4.5-1.6,1.1-2.5l1.6-3.9c.4-1.1.7-2.3,1.1-2.8,1.8-4,10.2-19.8,11.4-21,0,0,3.9-5.3,4.2-5.6q2.3-3.5,3.9-4.7l1.1-1.1c0-1.4,9.3-7,11.4-7s.9-.2,1.1-.4c.4-.4,1.4-.5,1.9-.5h2.8c5.4,0,8.4,2.5,8.4,10.9s-.2,3.7-.5,3.9c-.5.2-.7.9-.7,1.4l-1.2,2.8c-.9,2.1-1.8,4.9-1.9,5.3-.5,1.2-1.2,2.3-1.6,3-.2.5-1.4,1.6-1.6,2.1-1.1,2.8-13.8,16.1-16.6,16.1s-.4.4-.7.7c-1.4,1.4-9.5,6.5-13.3,7.7-3.3,1.1-3.3,1.2-3.5,1.6-.9,1.9-1.6,4.2-2.1,5.1-.4.7-.9,2.5-1.1,3.9-.7,4.4-3.2,8.4-3.5,13.3-.2,1.6-.5,3.2-.7,4.7-.7,1.6-1.1,5.3-1.4,7.7-.2,1.9-.5,3.7-.7,5.6,0,.2-.4,4.9-.4,10.3s.2,10.5.7,11.4c1.4,2.5,1.9,2.8,4,2.8s6-3.3,11.6-13.7c1.1-1.9,4.2-7,5.1-7.9s1.2-1.8,1.6-2.8c.4-1.2,1.1-2.3,1.4-2.6.4-.4.5-.7.5-.9,0,0,2.1-5.4,3.3-7.7.2-.2.5-.4.9-.4.7,0,1.9.5,1.9,1.8-.2.2-.2.4-.2.5-1.9,4.4-7.2,14.9-8.2,16.3l-1.8,3c-.7,1.2-1.9,3-2.8,3.9-1.1,1.1-1.8,2.1-1.8,2.5s-.9,2.6-6.3,8.1c-2.6,2.1-3.5,4.9-7.7,4.9s-3.5-.4-5.8-1.9ZM194.5,111.1c1.4-.7,7.5-4.4,8.8-5.3,5.8-3.9,7-6,10-8.4l3.7-3.2c2.6-2.3,4.7-6,6.1-8.8l1.8-3c1.6-2.8,3.3-8.8,3.3-8.9v-1.2c0-5.1-1.9-8.9-3.7-8.9s-.9-.2-1.6-.2-1.8.2-3.2.7c-4.6,1.9-12.8,13.3-14.7,17.7-.9,2.1-2.1,4.2-2.3,4.2-.4,0-.4.7-.4,1.4s0,.9-.5,1.4c-.5.4-1.1,1.1-1.1,1.6s-.7,2.6-1.8,4.6c-2.3,4.6-6.3,11.2-6.3,16.8l.4.2c.5,0,1.1-.5,1.4-.7Z"/>
      <path class="st1" d="M212.3,181.6c-1.8-1.1-3.7-3-3.7-3.5s-.2-.7-.5-.7-.5-.4-.7-.9c-.2-.7-.7-1.6-1.1-2.3-1.1-1.4-1.8-4.6-1.8-9.3s.2-3.2.4-5.1v-.5l.5-7c.4-2.6.7-4.2.9-4.4s.2-.4.2-.5c0,0,2.6-9.5,2.6-9.8,0-1.6,4.7-6.3,6.5-7h3c1.6,0,1.8.2,1.9,1.1.2.4.2.9.2,1.6,0,2.6-.7,7.4-1.8,11.9-2.3,9.6-3.3,15.9-4,23.8-.2,1.8-.2,2.8-.2,3.7s.2,1.8.5,2.8c.5,1.1,1.2,1.9,1.4,2.1.2,0,.4.2.7.2.5,0,1.2-.2,1.9-.4,1.8-.4,2.8-1.1,4.9-3l3.9-3.2c.7-.4,1.8-1.9,2.5-3.3.7-1.4,1.8-3.3,2.5-4,.5-.7,1.1-1.6,1.1-1.9s.4-1.1.9-1.8c.5-.5.9-1.4.9-1.8,0-.7,2.3-4.2,3-4.9.4-.2,1.2-1.6,1.9-3,.7-1.6,1.6-2.6,1.8-2.6.4,0,1.4-1.8,1.4-2.3.4-.5.9-.9,1.6-.9s1.6.5,1.6,1.4,0,.4-.2.7l-.9,1.9-1.6,2.8c-.7,1.4-1.6,2.8-1.8,3-.4.2-.7.9-1.2,1.6-1.2,3-2.1,4.4-2.8,4.9-.4.4-1.1,1.6-1.4,2.8-1.4,4.7-6,11-8.4,11.9-.5.2-1.1.7-1.4,1.2-.2.7-1.6,1.6-3.5,2.3-1.8.9-3.7,1.8-4.2,2.3s-2.1.9-3.5.9-2.8-.2-3.9-.9ZM220.6,110.5c-1.8-.9-2.6-2.1-2.6-3.7s1.2-3.5,3.5-4.7c1.2-.5,2.8-.9,4-.9s2.1.4,2.3.7c.2.4.4.9.4,1.4,0,2.1-1.4,4.9-2.5,6s-2.5,1.6-3.7,1.6-1.1-.2-1.4-.4Z"/>
      <path class="st1" d="M329.3,73.3c0,3.3-.9,7.5-2.8,13.7-1.2,3.9-1.4,5.6-2.3,6.5s-1.9,2.6-2.5,3.9c-.7,1.4-1.4,2.3-1.8,2.5-.5.4-1.9,1.9-3.3,3.9-2.5,3.7-3.3,3.2-3.3,4.6s-6.1,8.1-6.3,8.2c-1.1.4-2.5,3.7-7,8.1-3.7,3.5-6.5,7-6.5,7.2,0,.4-4.7,13.5-6,17.9-.5,1.9-1.1,6.5-1.8,10.2-.4,2.5-.5,4.2-.5,5.6,0,2.3.2,3.9.4,6.1.2,2.8,1.2,5.4,1.4,6.1.2,1.2.7,1.6,1.4,1.6s.7,0,1.1-.2c.7,0,4.6-3.5,5.6-5.6.4-.7,1.4-1.6,2.1-2.1.7-.5,1.6-1.4,1.9-2.1,1.1-1.9,4.2-7,5.1-7.9.3-.4,1.2-1.8,1.6-2.8.3-1.2,1.1-2.3,1.4-2.6.3-.4.5-.7.5-.9,0,0,1.8-5.3,3-7.5.4-.5.7-.7,1.1-.7.7,0,2.1.7,2.1,1.9-.2.2-.2.4-.2.5v.5c-1.9,3.9-7.2,14.4-8.2,15.8l-1.8,3c-.7,1.2-1.9,3-2.8,3.9-1.1,1.1-1.8,2.1-1.8,2.5s-.9,1.4-6.3,6.8c-2.1,1.2-3.7,1.6-5.1,1.6-2.1,0-3.5-.9-4.9-1.6-2.8-1.6-4.2-6-6-8.8-.4-.5-.7-2.1-1.2-3-.7-1.1-.9-1.8-.9-3.2,0-5.1.5-7.7.5-8.8s-.2-.5-.4-.7c0,0-7.9,10.9-7.7,10.9-.2.5-.5.7-.7,1.1l-1.1,2.1c-.2.4-7.4,7.4-8.6,8.2-4.2,2.6-6.8,3.5-8.9,3.5s-3-.5-4.4-1.4c-.9-.2-2.3-2.8-3.5-6.5-.9-2.3-1.4-3.7-1.4-6.1s.2-1.4.2-2.3c.4-3.9,1.1-6.8,1.1-9.8s.4-.5.4-.9.9-1.1,1.1-3c.4-3.3,1.9-5.8,3-7.4,1.8-3.9,2.3-4.9,10-14,2.8-3.3,6.1-4.6,6.7-4.6,2.8-1.8,4.9-2.5,8.1-2.5s7.9,2.3,9.1,6.1c.5,1.9,1.4,3.9,1.4,4.9s.4,1.6.7,1.6.7-.4.9-1.2l.5-2.1c1.1-2.1,3.2-8.1,3.5-10.2l.9-3.2c.5-.4,1.1-1.6,1.1-2.5s.7-3,1.4-4.6c1.1-2.8,1.9-5.6,3-8.4,1.9-5.3,6.5-17.2,7.7-17.2s.3-.5.3-1.1c0-1.8,2.3-5.3,3-5.3s.2-.2.2-.4c0-1.6,5.8-9.6,7.7-10.9.9-.5,1.9-1.2,1.9-1.4,0-.7,4.6-3.9,7-4,.9,0,1.8-.2,2.6-.2,5.3,0,7.4,1.9,7.4,8.4ZM276.1,138.4c0-.9,0-1.8-.2-2.3l-.4-2.3c0-.4-.5-.7-1.1-1.6-.4-.5-.7-1.4-.7-1.8,0,0-.7-.5-1.4-1.2-.7-.7-2.1-1.2-3-1.2-2.1,0-2.5.9-4.2,2.5-1.6,1.4-2.5,3-2.5,3,0,.2-1.4,1.2-2.3,2.6-.7,1.2-2.3,3.5-2.3,3.7,0,.7-.7,1.4-1.2,1.9-2.1,2.1-5.1,9.6-5.8,13.5,0,.2-2.5,9.5-2.3,9.5v3.9c-.4,1.9-.5,4-.5,5.8s.2,3.2.9,3.9c.4.4.7.5,1.2.5s.9-.2,1.4-.2c5.4,0,15.9-14.7,19.4-21-.5.5-2.1.7-2.3.7-.5,0-.7-.2-.7-.5,0-.5.5-1.1,1.6-1.4.7-.2,1.6-1.2,1.8-1.6l1.2-2.1c1.6-2.5,3.2-9.8,3.2-14.2ZM325.9,74c0-2.3-.7-3.9-2.1-5.1-.9-.7-1.8-1.6-2.1-1.6-1.4,0-5.1,4.4-7,7.7l-2.1,3.5c-.3.4-1.2,2.1-3.5,7.7l-2.5,6.1c-1.4,3.7-4.6,11.6-5.4,14.9l-2.3,8.6c-.9,3-2.1,5.4-2.1,6s.2.9.5.9c.9,0,3.2-2.3,5.8-6.3.5-.9,2.6-2.6,2.6-2.8,0,0,7.7-10.9,7.7-10.7.7-1.8,2.6-3.9,3.9-4.9,2.1-1.8,5.6-10.3,5.6-11.4s.5-2.5.7-2.8c1.4-3.9,2.3-7.2,2.3-9.8Z"/>
      <path class="st1" d="M308.8,178.8c-.5-.9-1.2-1.8-1.6-1.8-.9,0-1.8-3.3-1.8-8.4s2.5-14.2,3.7-16.8l.4-1.4c.3-.9.5-2.5,1.2-3.3.7-.9.9-2.5,1.1-2.1s4-7.2,7.2-10.5c3.5-3.7,8.2-7.4,9.6-7.4s2.8-1.2,4.2-1.2c5.8,0,7.9,2.5,11.2,8.1.5.9.9,1.9.9,2.3s0,.5.2.5c.3,0,1.1-.9,1.9-2.8,1.1-2.3,1.6-3,3.3-3.7,1.6-.5,3-.9,4.2-.9s1.6.2,1.9.7c.2.2.2.5.2,1.1,0,1.9-.7,5.6-1.2,5.6s-.4.4-.4.7,0,3-1.8,3.9c-.3.2-4.4,9.6-4.6,11.2-.2,2.3-1.8,7.7-2.5,7.7s-.4,2.8-.5,6v3.2c0,2.3.2,3.3.3,4.4.5,1.8,1.9,3,3.3,3s4.6-3.5,5.6-5.6c.4-.7,1.4-1.6,2.1-2.1.7-.5,1.6-1.4,1.9-2.1,1.1-1.9,4.2-7,5.1-7.9.3-.4,1.2-1.8,1.6-2.8.3-1.2,1.1-2.3,1.4-2.6.4-.4.5-.7.5-.9,0,0,1.8-5.3,3-7.5.3-.5.7-.7,1.1-.7.5,0,1.4.5,1.4.5q.7.7.7,1.4c-.2.2-.2.4-.2.5v.5c-1.6,4-7.2,14.4-8.2,15.8l-1.8,3c-.7,1.2-1.9,3-2.8,3.9s-1.8,2.1-1.8,2.5-.9,1.4-6.3,6.8c-1.1.9-2.1.9-3.9,1.1h-.7c-2.3,0-4.2-.5-4.2-1.2s-.5-.7-1.2-.9c-1.6-.4-3.7-2.8-3.7-3.7s-.4-.2-.7-.9c-1.4-2.8-1.8-8.2-2.8-8.2s-.7.4-.9.9c-.3,1.2-1.9,2.8-4,5.4-.9,1.1-1.6,2.1-1.6,2.5s-1.1.9-2.3,1.9c-2.1,1.9-5.4,6.1-9.8,6.1s-7.2-1.8-8.2-3.5ZM323.5,174.6c.4-.5,1.1-1.4,1.8-1.6.5-.2,1.1-.7,1.1-.9s.5-.9,1.2-1.4c.7-.5,1.6-1.9,2.1-2.8.5-1.1,1.2-2.1,1.8-2.5.5-.4.9-.9.9-1.1s.4-1.4,1.1-2.1c.5-.5,4.4-9.1,4.4-10s-.2-.4-.4-.4c-.3,0-1.2-.5-1.2-.5-.4-.2-.5-.4-.5-.7s0-.4.4-.7c1.1-1.2,3.7-4.4,4.9-8.4.3-1.2.7-1.9.7-2.8,0-4-3.2-10.2-6.8-10.2h-1.1c-.9,0-1.6,0-2.5.9-.5.5-1.6,1.6-2.3,1.9-.7.4-5.8,8.1-5.8,9.1s-.4.9-.7,1.1-.7,1.1-1.1,1.9c-.7,1.8-1.2,3.7-1.9,5.4-3.9,10.7-5.1,17.3-5.1,23.6s0,3.5,1.2,4.4c.7.5,1.6,1.1,1.9,1.1,1.2,0,5.3-2.6,6-3.5Z"/>
      <path class="st1" d="M453.9,146.4c-.2.4,0,.7-.2,1.1-2.5,4.7-4.9,10.9-11.7,18.7-1.2,1.4-1.9,2.8-2.8,3.9-6,7.2-14.7,18.6-27,24.5l-.4,1.4c-.2,1.2-3.5,7.9-4.4,10-.4.9-1.1,3-2.1,4.7-1.2,1.9-2.3,4.4-3.2,5.6-1.6,1.9-3,4-4.6,6-1.4,1.9-3.2,4.6-4.6,6-3.3,3.3-10.3,8.1-11.2,8.1s-1.4.5-2.5,1.2c-.5.4-2.6,1.1-4.2,1.4-1.8.4-3.5,1.2-4.2,1.6s-1.9.5-3.2.5c-3.3,0-7.9-1.4-9.5-4.2-.7-1.2-1.4-2.3-1.4-7s1.2-5.1,1.6-5.1.3-.9.3-1.4c0-1.4,2.6-5.4,3.3-6.5,2.3-3.5,8.1-7.4,8.1-7.5,0-.5,1.1-1.2,1.8-1.6,6.5-3.3,7.7-4.6,16.8-9.3,2.1-1.8,4.2-2.8,6.7-2.8s1.8-.5,2.5-.9c1.1-.5,2.1-.7,2.5-.7,1.2,0,2.3-2.5,4.6-12.8l1.1-4.7c.4-.7.5-1.9.4-2.1-.5-.5.4-1.1.4-1.6s.5-2.1.7-3.3l1.1-5.8c1.6-4.6,2.1-6.5,2.1-8.2-.7,1.1-3.2,2.8-3.2,3.3s-.7.9-1.1,1.4c-.4.5-1.4,1.8-1.8,2.5-.3.9-1.2,2.3-2.5,3.2-.9.7-1.2,2.3-1.6,2.3s0,1.1-.9,1.4c-.9.4-1.4,1.2-1.4,1.6s-.7,1.2-1.2,1.4c-.7.2-1.1.7-1.1.7,0,1.8-5.1,3.5-8.9,3.5s-7-.4-7.7-1.9c-.2-.4-1.4-7.7-1.6-9.3-.4-2.8,2.6-7.5,1.6-7.5,0,0,.7-1.1.7-2.3s.9-2.5,1.4-3.5l1.6-4.6c.4-1.8,1.1-3.3,1.8-4.4l.7-2.3.4-1.4c.2-.9,1.8-4.4,1.8-5.4.2-1.1.4-2.1.4-2.8s-.4-1.4-1.2-1.4c-3,0-8.2,7.7-9.5,11.2-.3,1.1-1.2,1.9-1.6,2.1-.5.2-.7.5-.7.7.4.5-1.1,3.2-2.6,4.9-.2.5-.7,1.1-.9,1.6-.2.4-.7.5-1.1.5-.9,0-1.9-.9-1.6-1.9.2-.2.2-.5.3-.7l1.2-2.8c.5-1.8,7.5-14,12.6-17.5.5-.4,1.2-.7,1.9-1.1,2.1-1.1,3.7-1.2,5.3-1.2,6,0,8.1,2.8,8.1,10.2s-1.2,8.9-3.7,12.4c-.4.5-2.1,5.3-3.7,9.6l-3.3,9.1c-.2.4-.9,1.6-.9,2.6,0,1.9.4,2.5.7,3.2.2.4.7.5,1.1.5.5,0,1.1-.2,1.6-.2s.9-.9,2.1-1.6c.9-.5,3.2-3,4.9-5.1l3.9-4.4c.3-.2.7-1.1.7-1.4s.3-.5.5-.5l2.5-2.8c1.2-1.6,2.6-3.7,3.7-4.6.9-.7,1.9-2.3,2.3-3,.3-.7,1.6-1.2,1.1-1.2s.4-.4.2-.7v-.2c0-.4.4-.9.7-1.2.9-.9,2.5-3.9,2.5-5.8s.5-2.3,1.2-2.8c.5-.4,1.2-1.9,1.4-3.3.4-3.5,1.1-7.5,1.6-7.5s1.4-2.8,3.3-3.5l3-1.1h.5c1.6,0,4.6.7,4.7.9.7.7.9,1.8.9,3,0,3.3-1.8,8.4-2.6,10.7-.4.9-.4,2.3-.5,2.5-.7.7-2.6,6.3-3.5,10.7-.4,1.9-1.1,4.4-1.6,5.1-.4.5-.4,1.6-.4,2.1s-.7,2.1-1.4,4.6l-1.6,5.8c-.5,1.8-1.2,3.7-1.8,5.4-.7,3.5-2.1,9.1-3.9,13.8l-.5,2.1c11.9-7.5,17.9-15.8,23.5-22.2,7.5-8.6,10.3-14.5,13.7-21.9.7-1.2,1.9-.2,2.1,0,.5.5,1.1.9.7,1.4ZM400.3,198.8c0-1.1-.2-1.2-.2-1.2-2.1,0-3,.7-4.7,1.6-11.9,6-17.2,9.8-19.4,9.8s-3.2,2.5-8.2,7.2c-3.2,3-3.9,4.7-5.4,9.6l-.9,2.5.5,3.5c.3,2.1.7,3.2,1.4,3.5.9.5,2.8,1.8,6.1,1.8s5.6-.7,10-3c2.6-1.4,7.4-5.6,8.2-7.9l1.6-2.5c.5-.7,1.1-1.6,1.2-2.1l1.8-3c.7-1.2,1.2-2.6,1.1-2.8-.2-.2.2-.7.7-1.2.9-.9,5.1-9.5,5.1-12.3s.5-1.4.9-1.8c.2-.2.4-.9.4-1.8Z"/>
      <path class="st1" d="M494.5,145c0,1.6-.9,4.6-7.4,10.9-3.5,3.3-12.8,5.4-16.1,6.1-.3,0-.9.2-1.1.4,0,2.1-.5,5.3-1.1,6.5-1.1,3.7-1.8,5.1-2.1,5.3-.2.2-.4.4-.4.7,0,.5-3,4.4-3.2,4.4-.3,0-.5,0-.5.2s-.2.4-.4.4-.5.2-.5.4c0,.4,0,.5-.4.7l-.7.9c-.3.5-1.1,1.1-1.6,1.2-2.5,1.8-6.1,3-9.1,3s-3.5-.5-4.4-1.6c-.5-.4-1.1-.7-1.2-1.1l-.9-.9c-.4,0-.5-.4-.5-.5,0-.4-.3-.7-.7-1.1-.9-.9-1.4-1.9-1.8-3.3l-.5-3.3c-.4-1.1-.5-2.1-.5-2.5s-.4-.7-.4-.7q-.2,0-.2-.2c0-.2,0-.4.2-.5.2-.4.2-.7.2-.9-.4-.2-.4-1.1-.4-1.6s0-1.1.4-1.1.9-.2,1.2-.4c.5-.2,1.8-.4,3-.4,1.4-.2,2.5-.4,3.5-.7.7-.4,1.6-.5,1.8-.5.4,0,.9-.2,1.2-.4.4-.2,1.1-.4,1.8-.4s1.2-.4,1.2-.5c.2-.2.5-.4,1.1-.4l1.1-.2c.2-.2,1.2-.5,2.1-.7l1.9-.9c.2-.2,1.1-.4,2.6-.5.2,0,.2-.2.2-.7s0-1.8-.2-2.5c0-.4-.7-1.8-.9-3.3-.4-1.6-.7-2.8-.9-2.8s-.5-.4-.5-.9l-.5-1.1c-.2-.2-.3-.7-.3-1.4-.2-.9-.5-1.6-.9-2.1-.4-.4-.7-.9-.7-1.1,0-.7-.5-1.9-.9-1.9s-.2-.4-.2-.7-.2-.7-.3-.9c0,0-1.8,4.7-3,7-.7,1.1-2.1,1.6-2.6,1.6h-.2c-.4-.4-.5-1.1-.5-1.6s0-.5.2-.7l.9-1.9c1.2-2.5,3.2-7.5,4.2-11.7v-3.9c0-1.4,0-2.6.2-2.6.2-.2.3-.9.3-1.6.2-1.8.9-3.9,1.1-3.9s.3-.4.5-.7c.2-1.1.9-1.9,1.4-1.9s.5-.4.9-.7c.5-.5.9-.7,1.2-.7s.5,0,.7-.2c0-.2.5-.2.7-.2,1.4.4,1.9.9,2.1,1.8.2.4.2.9.2,1.6,0,1.6-.3,3.7-.9,4.6-.2.2-.3.7-.3,1.6s.2,2.6.2,3.9c0,1.8.2,3.3.3,3.5.2,0,.4.9.5,1.8l.5,2.8c.3.7.5,1.4.5,1.8s.2.7.4.9c.2,0,.3.4.3.7s.4,1.1.5,1.6c.2.4.3,1.1.3,1.2,0,.4.2.7.4.7.3.2.5.9.9,1.6.2.9.3,1.4.5,1.6.2,0,.4.7.4,1.4l.5,1.9c.2.4.3,1.2.3,1.9.4,2.1.4,3.5.5,4.6,3.5-.2,9.8-2.5,14.5-5.6,3.5-2.3,6.3-6.3,7.2-9.1.5-1.6.9-1.6,1.6-1.6s1.2.5,1.2,2.1ZM462.8,165.8c0-1.1,0-2.1-.2-2.5-1.8.7-3.9.7-4.7,1.4-.5.4-1.2.7-1.6.7-.5,0-3.3.9-4.6,1.4-.7.4-3.9,1.2-5.1,1.4-.9.2-1.9.9-3.2,1.9-.2.2-.4.4-.5.4.4.5,1.1,5.3,1.1,5.3,1.4,3.9,5.3,6,8.4,6s1.9-.4,2.8-.7c.2-.2,5.3-5.3,5.1-5.3.3,0,1.6-3.7,1.6-4.6l.3-1.4c.2,0,.4-1.2.5-4Z"/>
    </g>
  </g>
</svg>