<?xml version="1.0" encoding="UTF-8"?>
<svg id="Layer_1" xmlns="http://www.w3.org/2000/svg" version="1.1" viewBox="0 0 500 39.1">
  <!-- Generator: Adobe Illustrator 29.0.1, SVG Export Plug-In . SVG Version: 2.1.0 Build 192)  -->
  <defs>
    <style>
      .st0 {
        fill: #ffcb05;
      }

      .st1 {
        fill: #010101;
      }

      .st2 {
        fill: #f38090;
      }

      .st3 {
        fill: #fff;
      }

      .st4 {
        fill: #ef3e30;
      }

      .st5 {
        fill: #ef529d;
      }

      .st6 {
        fill: #8ac640;
      }

      .st7 {
        fill: #3996d3;
      }
    </style>
  </defs>
  <g>
    <g>
      <path class="st1" d="M56.6,15.4c-14.4,10-33.2,10-47.6,0,.2-.3.4-.7.7-1,14,9.7,32.3,9.7,46.3,0,.2.3.4.7.7,1Z"/>
      <g>
        <polygon class="st1" points="22.4 22.8 20.8 22.1 21.4 20.4 23 21.1 22.4 22.8"/>
        <ellipse class="st0" cx="20.4" cy="25.2" rx="3.3" ry="3.4"/>
      </g>
      <g>
        <polygon class="st1" points="29.6 23.8 27.9 23.7 28.1 21.9 29.8 22.1 29.6 23.8"/>
        <ellipse class="st5" cx="28.4" cy="26.8" rx="3.3" ry="3.4"/>
      </g>
      <g>
        <polygon class="st1" points="37.2 23.8 35.5 24.1 35.2 22.3 37 22.1 37.2 23.8"/>
        <ellipse class="st6" cx="36.8" cy="27" rx="3.3" ry="3.4"/>
      </g>
      <g>
        <polygon class="st1" points="45 21.7 43.5 22.5 42.7 20.9 44.3 20.1 45 21.7"/>
        <path class="st7" d="M48.5,23.4c.8,1.7.1,3.7-1.5,4.5-1.6.8-3.6.1-4.4-1.6-.8-1.7-.1-3.7,1.5-4.5,1.6-.8,3.6-.1,4.4,1.6Z"/>
      </g>
      <g>
        <polygon class="st1" points="52.4 19.4 51 20.3 50 18.8 51.5 17.8 52.4 19.4"/>
        <path class="st2" d="M56.1,20.7c1,1.6.5,3.7-1.1,4.6-1.5,1-3.6.5-4.5-1.1s-.5-3.7,1.1-4.6c1.5-1,3.6-.5,4.5,1.1Z"/>
      </g>
      <g>
        <polygon class="st1" points="14.2 19.4 15.7 20.3 16.6 18.8 15.1 17.8 14.2 19.4"/>
        <path class="st4" d="M10.6,20.7c-1,1.6-.5,3.7,1.1,4.6,1.5,1,3.6.5,4.5-1.1,1-1.6.5-3.7-1.1-4.6-1.5-1-3.6-.5-4.5,1.1Z"/>
      </g>
    </g>
    <g>
      <path class="st1" d="M104.2,15.4c-14.4,10-33.2,10-47.6,0,.2-.3.4-.7.7-1,14,9.7,32.3,9.7,46.3,0,.2.3.4.7.7,1Z"/>
      <g>
        <polygon class="st1" points="70 22.8 68.4 22.1 69 20.4 70.6 21.1 70 22.8"/>
        <path class="st0" d="M71,26.6c-.7,1.7-2.6,2.5-4.3,1.8-1.7-.7-2.5-2.7-1.7-4.4.7-1.7,2.6-2.5,4.3-1.8,1.7.7,2.5,2.7,1.7,4.4Z"/>
      </g>
      <g>
        <polygon class="st1" points="77.2 23.8 75.5 23.7 75.7 21.9 77.4 22.1 77.2 23.8"/>
        <path class="st5" d="M79.3,27.2c-.2,1.9-1.8,3.2-3.6,3-1.8-.2-3.1-1.9-2.9-3.7.2-1.9,1.8-3.2,3.6-3,1.8.2,3.1,1.9,2.9,3.7Z"/>
      </g>
      <g>
        <polygon class="st1" points="84.8 23.8 83.1 24.1 82.8 22.3 84.6 22.1 84.8 23.8"/>
        <path class="st6" d="M87.7,26.5c.3,1.8-1,3.6-2.8,3.8-1.8.3-3.5-1-3.7-2.8-.3-1.8,1-3.6,2.8-3.8,1.8-.3,3.5,1,3.7,2.8Z"/>
      </g>
      <g>
        <polygon class="st1" points="92.6 21.7 91.1 22.5 90.3 20.9 91.9 20.1 92.6 21.7"/>
        <path class="st7" d="M96.1,23.4c.8,1.7.1,3.7-1.5,4.5-1.6.8-3.6.1-4.4-1.6-.8-1.7-.1-3.7,1.5-4.5,1.6-.8,3.6-.1,4.4,1.6Z"/>
      </g>
      <g>
        <polygon class="st1" points="100 19.4 98.6 20.3 97.6 18.8 99.1 17.8 100 19.4"/>
        <path class="st2" d="M103.7,20.7c1,1.6.5,3.7-1.1,4.6-1.5,1-3.6.5-4.5-1.1s-.5-3.7,1.1-4.6c1.5-1,3.6-.5,4.5,1.1Z"/>
      </g>
      <g>
        <polygon class="st1" points="61.8 19.4 63.3 20.3 64.2 18.8 62.7 17.8 61.8 19.4"/>
        <path class="st4" d="M58.2,20.7c-1,1.6-.5,3.7,1.1,4.6,1.5,1,3.6.5,4.5-1.1,1-1.6.5-3.7-1.1-4.6-1.5-1-3.6-.5-4.5,1.1Z"/>
      </g>
    </g>
    <g>
      <path class="st1" d="M151.8,15.4c-14.4,10-33.2,10-47.6,0,.2-.3.4-.7.7-1,14,9.7,32.3,9.7,46.3,0,.2.3.4.7.7,1Z"/>
      <g>
        <polygon class="st1" points="117.6 22.8 116 22.1 116.6 20.4 118.3 21.1 117.6 22.8"/>
        <path class="st0" d="M118.6,26.6c-.7,1.7-2.6,2.5-4.3,1.8-1.7-.7-2.5-2.7-1.7-4.4.7-1.7,2.6-2.5,4.3-1.8,1.7.7,2.5,2.7,1.7,4.4Z"/>
      </g>
      <g>
        <polygon class="st1" points="124.8 23.8 123.1 23.7 123.3 21.9 125 22.1 124.8 23.8"/>
        <ellipse class="st5" cx="123.7" cy="26.8" rx="3.3" ry="3.4"/>
      </g>
      <g>
        <polygon class="st1" points="132.4 23.8 130.7 24.1 130.5 22.3 132.2 22.1 132.4 23.8"/>
        <path class="st6" d="M135.3,26.5c.3,1.8-1,3.6-2.8,3.8-1.8.3-3.5-1-3.7-2.8-.3-1.8,1-3.6,2.8-3.8,1.8-.3,3.5,1,3.7,2.8Z"/>
      </g>
      <g>
        <polygon class="st1" points="140.2 21.7 138.7 22.5 137.9 20.9 139.5 20.1 140.2 21.7"/>
        <path class="st7" d="M143.7,23.4c.8,1.7.1,3.7-1.5,4.5-1.6.8-3.6.1-4.4-1.6-.8-1.7-.1-3.7,1.5-4.5,1.6-.8,3.6-.1,4.4,1.6Z"/>
      </g>
      <g>
        <polygon class="st1" points="147.6 19.4 146.2 20.3 145.2 18.8 146.7 17.8 147.6 19.4"/>
        <path class="st2" d="M151.3,20.7c1,1.6.5,3.7-1.1,4.6-1.5,1-3.6.5-4.5-1.1s-.5-3.7,1.1-4.6c1.5-1,3.6-.5,4.5,1.1Z"/>
      </g>
      <g>
        <polygon class="st1" points="109.4 19.4 110.9 20.3 111.8 18.8 110.3 17.8 109.4 19.4"/>
        <path class="st4" d="M105.8,20.7c-1,1.6-.5,3.7,1.1,4.6,1.5,1,3.6.5,4.5-1.1,1-1.6.5-3.7-1.1-4.6s-3.6-.5-4.5,1.1Z"/>
      </g>
    </g>
    <g>
      <path class="st1" d="M199.4,15.4c-14.4,10-33.2,10-47.6,0,.2-.3.4-.7.7-1,14,9.7,32.3,9.7,46.3,0,.2.3.4.7.7,1Z"/>
      <g>
        <polygon class="st1" points="165.2 22.8 163.6 22.1 164.2 20.4 165.9 21.1 165.2 22.8"/>
        <path class="st0" d="M166.2,26.6c-.7,1.7-2.6,2.5-4.3,1.8-1.7-.7-2.5-2.7-1.7-4.4.7-1.7,2.6-2.5,4.3-1.8,1.7.7,2.5,2.7,1.7,4.4Z"/>
      </g>
      <g>
        <polygon class="st1" points="172.4 23.8 170.7 23.7 170.9 21.9 172.6 22.1 172.4 23.8"/>
        <ellipse class="st5" cx="171.3" cy="26.8" rx="3.3" ry="3.4"/>
      </g>
      <g>
        <polygon class="st1" points="180 23.8 178.3 24.1 178.1 22.3 179.8 22.1 180 23.8"/>
        <path class="st6" d="M182.9,26.5c.3,1.8-1,3.6-2.8,3.8-1.8.3-3.5-1-3.7-2.8-.3-1.8,1-3.6,2.8-3.8,1.8-.3,3.5,1,3.7,2.8Z"/>
      </g>
      <g>
        <polygon class="st1" points="187.8 21.7 186.3 22.5 185.5 20.9 187.1 20.1 187.8 21.7"/>
        <path class="st7" d="M191.3,23.4c.8,1.7.1,3.7-1.5,4.5-1.6.8-3.6.1-4.4-1.6-.8-1.7-.1-3.7,1.5-4.5,1.6-.8,3.6-.1,4.4,1.6Z"/>
      </g>
      <g>
        <polygon class="st1" points="195.2 19.4 193.8 20.3 192.8 18.8 194.3 17.8 195.2 19.4"/>
        <path class="st2" d="M198.9,20.7c1,1.6.5,3.7-1.1,4.6-1.5,1-3.6.5-4.5-1.1-1-1.6-.5-3.7,1.1-4.6s3.6-.5,4.5,1.1Z"/>
      </g>
      <g>
        <polygon class="st1" points="157 19.4 158.5 20.3 159.4 18.8 157.9 17.8 157 19.4"/>
        <path class="st4" d="M153.4,20.7c-1,1.6-.5,3.7,1.1,4.6,1.5,1,3.6.5,4.5-1.1,1-1.6.5-3.7-1.1-4.6-1.5-1-3.6-.5-4.5,1.1Z"/>
      </g>
    </g>
    <g>
      <path class="st1" d="M247,15.4c-14.4,10-33.2,10-47.6,0,.2-.3.4-.7.7-1,14,9.7,32.3,9.7,46.3,0,.2.3.4.7.7,1Z"/>
      <g>
        <polygon class="st1" points="212.8 22.8 211.2 22.1 211.9 20.4 213.5 21.1 212.8 22.8"/>
        <path class="st0" d="M213.8,26.6c-.7,1.7-2.6,2.5-4.3,1.8-1.7-.7-2.5-2.7-1.7-4.4.7-1.7,2.6-2.5,4.3-1.8,1.7.7,2.5,2.7,1.7,4.4Z"/>
      </g>
      <g>
        <polygon class="st1" points="220 23.8 218.3 23.7 218.5 21.9 220.2 22.1 220 23.8"/>
        <path class="st5" d="M222.1,27.2c-.2,1.9-1.8,3.2-3.6,3-1.8-.2-3.1-1.9-2.9-3.7.2-1.9,1.8-3.2,3.6-3,1.8.2,3.1,1.9,2.9,3.7Z"/>
      </g>
      <g>
        <polygon class="st1" points="227.6 23.8 225.9 24.1 225.7 22.3 227.4 22.1 227.6 23.8"/>
        <path class="st6" d="M230.5,26.5c.3,1.8-1,3.6-2.8,3.8-1.8.3-3.5-1-3.7-2.8-.3-1.8,1-3.6,2.8-3.8,1.8-.3,3.5,1,3.7,2.8Z"/>
      </g>
      <g>
        <polygon class="st1" points="235.4 21.7 233.9 22.5 233.1 20.9 234.7 20.1 235.4 21.7"/>
        <path class="st7" d="M238.9,23.4c.8,1.7.1,3.7-1.5,4.5-1.6.8-3.6.1-4.4-1.6-.8-1.7-.1-3.7,1.5-4.5,1.6-.8,3.6-.1,4.4,1.6Z"/>
      </g>
      <g>
        <polygon class="st1" points="242.9 19.4 241.4 20.3 240.5 18.8 241.9 17.8 242.9 19.4"/>
        <path class="st2" d="M246.5,20.7c1,1.6.5,3.7-1.1,4.6-1.5,1-3.6.5-4.5-1.1-1-1.6-.5-3.7,1.1-4.6s3.6-.5,4.5,1.1Z"/>
      </g>
      <g>
        <polygon class="st1" points="204.6 19.4 206.1 20.3 207 18.8 205.5 17.8 204.6 19.4"/>
        <path class="st4" d="M201,20.7c-1,1.6-.5,3.7,1.1,4.6,1.5,1,3.6.5,4.5-1.1,1-1.6.5-3.7-1.1-4.6-1.5-1-3.6-.5-4.5,1.1Z"/>
      </g>
    </g>
    <g>
      <path class="st1" d="M294.6,15.4c-14.4,10-33.2,10-47.6,0,.2-.3.4-.7.7-1,14,9.7,32.3,9.7,46.3,0,.2.3.4.7.7,1Z"/>
      <g>
        <polygon class="st1" points="260.4 22.8 258.8 22.1 259.5 20.4 261.1 21.1 260.4 22.8"/>
        <ellipse class="st0" cx="258.4" cy="25.2" rx="3.3" ry="3.4"/>
      </g>
      <g>
        <polygon class="st1" points="267.6 23.8 265.9 23.7 266.1 21.9 267.8 22.1 267.6 23.8"/>
        <path class="st5" d="M269.7,27.2c-.2,1.9-1.8,3.2-3.6,3-1.8-.2-3.1-1.9-2.9-3.7.2-1.9,1.8-3.2,3.6-3,1.8.2,3.1,1.9,2.9,3.7Z"/>
      </g>
      <g>
        <polygon class="st1" points="275.2 23.8 273.5 24.1 273.3 22.3 275 22.1 275.2 23.8"/>
        <path class="st6" d="M278.1,26.5c.3,1.8-1,3.6-2.8,3.8-1.8.3-3.5-1-3.7-2.8-.3-1.8,1-3.6,2.8-3.8,1.8-.3,3.5,1,3.7,2.8Z"/>
      </g>
      <g>
        <polygon class="st1" points="283 21.7 281.5 22.5 280.7 20.9 282.3 20.1 283 21.7"/>
        <path class="st7" d="M286.5,23.4c.8,1.7.1,3.7-1.5,4.5-1.6.8-3.6.1-4.4-1.6-.8-1.7-.1-3.7,1.5-4.5,1.6-.8,3.6-.1,4.4,1.6Z"/>
      </g>
      <g>
        <polygon class="st1" points="290.5 19.4 289 20.3 288.1 18.8 289.5 17.8 290.5 19.4"/>
        <path class="st2" d="M294.1,20.7c1,1.6.5,3.7-1.1,4.6-1.5,1-3.6.5-4.5-1.1-1-1.6-.5-3.7,1.1-4.6,1.5-1,3.6-.5,4.5,1.1Z"/>
      </g>
      <g>
        <polygon class="st1" points="252.2 19.4 253.7 20.3 254.6 18.8 253.1 17.8 252.2 19.4"/>
        <path class="st4" d="M248.6,20.7c-1,1.6-.5,3.7,1.1,4.6,1.5,1,3.6.5,4.5-1.1,1-1.6.5-3.7-1.1-4.6s-3.6-.5-4.5,1.1Z"/>
      </g>
    </g>
    <g>
      <path class="st1" d="M342.2,15.4c-14.4,10-33.2,10-47.6,0,.2-.3.4-.7.7-1,14,9.7,32.3,9.7,46.3,0,.2.3.4.7.7,1Z"/>
      <g>
        <polygon class="st1" points="308 22.8 306.4 22.1 307.1 20.4 308.7 21.1 308 22.8"/>
        <ellipse class="st0" cx="306" cy="25.2" rx="3.3" ry="3.4"/>
      </g>
      <g>
        <polygon class="st1" points="315.2 23.8 313.5 23.7 313.7 21.9 315.4 22.1 315.2 23.8"/>
        <ellipse class="st5" cx="314.1" cy="26.8" rx="3.3" ry="3.4"/>
      </g>
      <g>
        <polygon class="st1" points="322.8 23.8 321.1 24.1 320.9 22.3 322.6 22.1 322.8 23.8"/>
        <path class="st6" d="M325.7,26.5c.3,1.8-1,3.6-2.8,3.8-1.8.3-3.5-1-3.7-2.8-.3-1.8,1-3.6,2.8-3.8,1.8-.3,3.5,1,3.7,2.8Z"/>
      </g>
      <g>
        <polygon class="st1" points="330.6 21.7 329.1 22.5 328.3 20.9 329.9 20.1 330.6 21.7"/>
        <path class="st7" d="M334.1,23.4c.8,1.7.1,3.7-1.5,4.5-1.6.8-3.6.1-4.4-1.6-.8-1.7-.1-3.7,1.5-4.5,1.6-.8,3.6-.1,4.4,1.6Z"/>
      </g>
      <g>
        <polygon class="st1" points="338.1 19.4 336.6 20.3 335.7 18.8 337.1 17.8 338.1 19.4"/>
        <path class="st2" d="M341.7,20.7c1,1.6.5,3.7-1.1,4.6-1.5,1-3.6.5-4.5-1.1-1-1.6-.5-3.7,1.1-4.6s3.6-.5,4.5,1.1Z"/>
      </g>
      <g>
        <polygon class="st1" points="299.8 19.4 301.3 20.3 302.2 18.8 300.7 17.8 299.8 19.4"/>
        <path class="st4" d="M296.2,20.7c-1,1.6-.5,3.7,1.1,4.6,1.5,1,3.6.5,4.5-1.1,1-1.6.5-3.7-1.1-4.6s-3.6-.5-4.5,1.1Z"/>
      </g>
    </g>
    <g>
      <path class="st1" d="M389.8,15.4c-14.4,10-33.2,10-47.6,0,.2-.3.4-.7.7-1,14,9.7,32.3,9.7,46.3,0,.2.3.4.7.7,1Z"/>
      <g>
        <polygon class="st1" points="355.6 22.8 354 22.1 354.7 20.4 356.3 21.1 355.6 22.8"/>
        <path class="st0" d="M356.6,26.6c-.7,1.7-2.6,2.5-4.3,1.8-1.7-.7-2.5-2.7-1.7-4.4.7-1.7,2.6-2.5,4.3-1.8,1.7.7,2.5,2.7,1.7,4.4Z"/>
      </g>
      <g>
        <polygon class="st1" points="362.8 23.8 361.1 23.7 361.3 21.9 363 22.1 362.8 23.8"/>
        <path class="st5" d="M364.9,27.2c-.2,1.9-1.8,3.2-3.6,3-1.8-.2-3.1-1.9-2.9-3.7s1.8-3.2,3.6-3c1.8.2,3.1,1.9,2.9,3.7Z"/>
      </g>
      <g>
        <polygon class="st1" points="370.4 23.8 368.7 24.1 368.5 22.3 370.2 22.1 370.4 23.8"/>
        <path class="st6" d="M373.3,26.5c.3,1.8-1,3.6-2.8,3.8-1.8.3-3.5-1-3.7-2.8-.3-1.8,1-3.6,2.8-3.8,1.8-.3,3.5,1,3.7,2.8Z"/>
      </g>
      <g>
        <polygon class="st1" points="378.3 21.7 376.7 22.5 375.9 20.9 377.5 20.1 378.3 21.7"/>
        <path class="st7" d="M381.7,23.4c.8,1.7.1,3.7-1.5,4.5-1.6.8-3.6.1-4.4-1.6-.8-1.7-.1-3.7,1.5-4.5s3.6-.1,4.4,1.6Z"/>
      </g>
      <g>
        <polygon class="st1" points="385.7 19.4 384.2 20.3 383.3 18.8 384.7 17.8 385.7 19.4"/>
        <path class="st2" d="M389.3,20.7c1,1.6.5,3.7-1.1,4.6-1.5,1-3.6.5-4.5-1.1-1-1.6-.5-3.7,1.1-4.6,1.5-1,3.6-.5,4.5,1.1Z"/>
      </g>
      <g>
        <polygon class="st1" points="347.4 19.4 348.9 20.3 349.8 18.8 348.3 17.8 347.4 19.4"/>
        <path class="st4" d="M343.8,20.7c-1,1.6-.5,3.7,1.1,4.6,1.5,1,3.6.5,4.5-1.1,1-1.6.5-3.7-1.1-4.6-1.5-1-3.6-.5-4.5,1.1Z"/>
      </g>
    </g>
    <g>
      <path class="st1" d="M437.4,15.4c-14.4,10-33.2,10-47.6,0,.2-.3.4-.7.7-1,14,9.7,32.3,9.7,46.3,0,.2.3.4.7.7,1Z"/>
      <g>
        <polygon class="st1" points="403.2 22.8 401.6 22.1 402.3 20.4 403.9 21.1 403.2 22.8"/>
        <path class="st0" d="M404.2,26.6c-.7,1.7-2.6,2.5-4.3,1.8-1.7-.7-2.5-2.7-1.7-4.4.7-1.7,2.6-2.5,4.3-1.8,1.7.7,2.5,2.7,1.7,4.4Z"/>
      </g>
      <g>
        <polygon class="st1" points="410.4 23.8 408.7 23.7 408.9 21.9 410.6 22.1 410.4 23.8"/>
        <path class="st5" d="M412.5,27.2c-.2,1.9-1.8,3.2-3.6,3-1.8-.2-3.1-1.9-2.9-3.7.2-1.9,1.8-3.2,3.6-3,1.8.2,3.1,1.9,2.9,3.7Z"/>
      </g>
      <g>
        <polygon class="st1" points="418 23.8 416.3 24.1 416.1 22.3 417.8 22.1 418 23.8"/>
        <path class="st6" d="M420.9,26.5c.3,1.8-1,3.6-2.8,3.8-1.8.3-3.5-1-3.7-2.8-.3-1.8,1-3.6,2.8-3.8,1.8-.3,3.5,1,3.7,2.8Z"/>
      </g>
      <g>
        <polygon class="st1" points="425.9 21.7 424.3 22.5 423.5 20.9 425.1 20.1 425.9 21.7"/>
        <path class="st7" d="M429.3,23.4c.8,1.7.1,3.7-1.5,4.5-1.6.8-3.6.1-4.4-1.6-.8-1.7-.1-3.7,1.5-4.5,1.6-.8,3.6-.1,4.4,1.6Z"/>
      </g>
      <g>
        <polygon class="st1" points="433.3 19.4 431.8 20.3 430.9 18.8 432.3 17.8 433.3 19.4"/>
        <path class="st2" d="M436.9,20.7c1,1.6.5,3.7-1.1,4.6-1.5,1-3.6.5-4.5-1.1-1-1.6-.5-3.7,1.1-4.6,1.5-1,3.6-.5,4.5,1.1Z"/>
      </g>
      <g>
        <polygon class="st1" points="395 19.4 396.5 20.3 397.4 18.8 395.9 17.8 395 19.4"/>
        <path class="st4" d="M391.4,20.7c-1,1.6-.5,3.7,1.1,4.6,1.5,1,3.6.5,4.5-1.1,1-1.6.5-3.7-1.1-4.6s-3.6-.5-4.5,1.1Z"/>
      </g>
    </g>
    <g>
      <path class="st1" d="M485,15.4c-14.4,10-33.2,10-47.6,0,.2-.3.4-.7.7-1,14,9.7,32.3,9.7,46.3,0,.2.3.4.7.7,1Z"/>
      <g>
        <polygon class="st1" points="450.8 22.8 449.2 22.1 449.9 20.4 451.5 21.1 450.8 22.8"/>
        <path class="st0" d="M451.8,26.6c-.7,1.7-2.6,2.5-4.3,1.8-1.7-.7-2.5-2.7-1.7-4.4.7-1.7,2.6-2.5,4.3-1.8,1.7.7,2.5,2.7,1.7,4.4Z"/>
      </g>
      <g>
        <polygon class="st1" points="458.1 23.8 456.3 23.7 456.5 21.9 458.2 22.1 458.1 23.8"/>
        <ellipse class="st5" cx="456.9" cy="26.8" rx="3.3" ry="3.4"/>
      </g>
      <g>
        <polygon class="st1" points="465.6 23.8 463.9 24.1 463.7 22.3 465.4 22.1 465.6 23.8"/>
        <path class="st6" d="M468.5,26.5c.3,1.8-1,3.6-2.8,3.8-1.8.3-3.5-1-3.7-2.8-.3-1.8,1-3.6,2.8-3.8,1.8-.3,3.5,1,3.7,2.8Z"/>
      </g>
      <g>
        <polygon class="st1" points="473.5 21.7 471.9 22.5 471.1 20.9 472.7 20.1 473.5 21.7"/>
        <path class="st7" d="M476.9,23.4c.8,1.7.1,3.7-1.5,4.5-1.6.8-3.6.1-4.4-1.6-.8-1.7-.1-3.7,1.5-4.5,1.6-.8,3.6-.1,4.4,1.6Z"/>
      </g>
      <g>
        <polygon class="st1" points="480.9 19.4 479.4 20.3 478.5 18.8 479.9 17.8 480.9 19.4"/>
        <path class="st2" d="M484.5,20.7c1,1.6.5,3.7-1.1,4.6-1.5,1-3.6.5-4.5-1.1-1-1.6-.5-3.7,1.1-4.6s3.6-.5,4.5,1.1Z"/>
      </g>
      <g>
        <polygon class="st1" points="442.6 19.4 444.1 20.3 445 18.8 443.5 17.8 442.6 19.4"/>
        <path class="st4" d="M439,20.7c-1,1.6-.5,3.7,1.1,4.6,1.5,1,3.6.5,4.5-1.1,1-1.6.5-3.7-1.1-4.6-1.5-1-3.6-.5-4.5,1.1Z"/>
      </g>
    </g>
  </g>
  <path class="st3" d="M-.5.3S490.8-.2,499.5,0c-.8,4.1-4.5,7.2-7.6,8.3-1.9.7-5.3-.3-7.9.7-5.3,1.8-10.3,3.9-15.7,5.2-1,.1-1.9.3-2.9.2-1.1,0-2.2,0-3.3-.2-4.4-.5-8.8-1.6-13.3-2.6-2.2-.5-4.3-.5-6.5-.4-5.6.7-11.3,1.9-16.8.6-1.2-.3-2.3-.8-3.4-1.3-1.1-.5-2.2-.9-3.3-1.3-.9-.3-1.8-.5-2.8-.7-.9-.2-1.9-.3-2.8-.4-14.2-.6-28.3,2.3-42.3,4.4-1,0-2,.2-3,.3-2,.2-4,.4-6,.7-2.6.3-5.2-.3-7.7-1.3-1-.3-2-.7-3-1-1-.3-2-.7-3-1-1.1-.3-2.3-.6-3.4-.7-1.1-.1-2.2-.1-3.3,0-7.4.7-14.6,3-21.9,3.2-6.4.3-12.8-1-19.1-2.1-.9,0-1.7-.1-2.6-.2-1.7,0-3.4.1-5.1.3-1.1.2-2.2.4-3.4.6-2.7.7-5.5,1.3-8.4.8-1.4-.3-2.8-.5-4.1-.6-1.4-.1-2.7-.2-4-.2-7.6.2-15.2.7-22.8,1.5-3.3.3-6.5-.4-9.8-1-3.1-.5-5.8-1.5-8.9-1.5-.9,0-1.9,0-2.8,0-2.9,0-5.7.5-8.6.8-6.7.5-13-2.2-19.6-3.2-.9-.1-1.8-.2-2.8-.3-1.9,0-3.8,0-5.8.4-7.6,1.2-14.8,1.1-22.1,1.8-1.3,0-2.5,0-3.8.1-11.5.7-23.5,4.2-34.4.5-.7-.4-1.5-.9-2.2-1.3-3.7-2-7.6-1.5-11.5-1-1.4.2-2.8.5-4.1.8-4.4,1.2-8.9,2.6-13.5,2.4-8.7-.3-17.2.7-25.9,1.2-1.3,0-2.6,0-3.9-.2-2.6-.2-5.1-.7-7.6-1.8-1-.4-2-.7-3-.9-3-.6-6.1-.4-9.2.2-8.1,1.5-15.7,5-23.9,3.7-1.4-.2-2.9-.3-4.3-.5C13.4,12.1,4.2,10.4.1,2.4-.2,1.2-.4.3-.5.3Z"/>
</svg>