<?xml version="1.0" encoding="UTF-8"?>
<svg id="Layer_1" xmlns="http://www.w3.org/2000/svg" version="1.1" viewBox="0 0 500 162.7">
  <!-- Generator: Adobe Illustrator 29.0.1, SVG Export Plug-In . SVG Version: 2.1.0 Build 192)  -->
  <defs>
    <style>
      .st0 {
        fill: none;
      }

      .st1 {
        fill: #ee413c;
      }

      .st2 {
        fill: #be2026;
      }
    </style>
  </defs>
  <polygon class="st1" points="499.9 162.7 0 162.7 43.4 0 456.4 0 499.9 162.7"/>
  <g>
    <path class="st0" d="M200.8,69.9c8.5,0,15.4-7.6,15.4-16.9s0-.3.1-.5c-8.4-.9-15.1-8.5-15.4-17.9,0,0,0,0,0,0-.3,9.5-7.1,17.2-15.6,18,0,.1.1.3.1.4,0,9.3,6.9,16.9,15.4,16.9Z"/>
    <path class="st0" d="M152.3,91.8c0,9.8-6.9,17.9-15.7,18.7,0,9.3,6.9,16.9,15.4,16.9s15.4-7.6,15.4-16.9,0,0,0,0c-8.5-1.1-15.1-9-15.1-18.6Z"/>
    <path class="st0" d="M220.6,91.8c0,9.8-6.9,17.9-15.7,18.7,0,9.3,6.9,16.9,15.4,16.9s15.4-7.6,15.4-16.9,0,0,0,0c-8.5-1.1-15.1-9-15.1-18.6Z"/>
    <path class="st0" d="M337.4,69.9c8.5,0,15.4-7.6,15.4-16.9s0-.3.1-.5c-8.4-.9-15-8.5-15.4-17.9,0,0,0,0,0,0-.3,9.5-7.1,17.2-15.6,17.9,0,.1.1.3.1.4,0,9.3,6.9,16.9,15.4,16.9Z"/>
    <path class="st0" d="M288.8,91.8c0,9.8-6.9,17.9-15.7,18.7,0,9.3,6.9,16.9,15.4,16.9s15.4-7.6,15.4-16.9,0,0,0,0c-8.5-1.1-15.1-9-15.1-18.6Z"/>
    <path class="st0" d="M269.1,69.9c8.5,0,15.4-7.6,15.4-16.9s0-.3.1-.5c-8.4-.9-15.1-8.5-15.4-17.9,0,0,0,0,0,0-.3,9.5-7.1,17.2-15.6,17.9,0,.1.1.3.1.4,0,9.3,6.9,16.9,15.4,16.9Z"/>
    <path class="st0" d="M186.5,91.8c0,9.8-6.9,17.9-15.7,18.7,0,9.3,6.9,16.9,15.4,16.9s15.4-7.6,15.4-16.9,0,0,0,0c-8.5-1.1-15.1-9-15.1-18.6Z"/>
    <path class="st0" d="M473.9,71.7c-.2,0-.4,0-.6,0,.2.2.3.4.3.7,0-.3.1-.5.3-.7,0,0,0,0,0,0Z"/>
    <path class="st0" d="M391.2,91.8c0,9.8-6.9,17.9-15.7,18.7,0,9.3,6.9,16.9,15.4,16.9s15.4-7.6,15.4-16.9,0,0,0,0c-8.5-1.1-15.1-9-15.1-18.6Z"/>
    <path class="st0" d="M235,69.9c8.5,0,15.4-7.6,15.4-16.9s0-.3.1-.5c-8.4-.9-15.1-8.5-15.4-17.9,0,0,0,0,0,0-.3,9.5-7.1,17.2-15.6,17.9,0,.1.1.3.1.4,0,9.3,6.9,16.9,15.4,16.9Z"/>
    <path class="st0" d="M320.4,52.6c0,0-.1,0-.2,0,0,.1,0,.2,0,.4,0-.1,0-.3,0-.4Z"/>
    <path class="st0" d="M323,91.8c0,9.8-6.9,17.9-15.7,18.7,0,9.3,6.9,16.9,15.4,16.9s15.4-7.6,15.4-16.9,0,0,0,0c-8.5-1.1-15.1-9-15.1-18.6Z"/>
    <path class="st0" d="M183.9,52.6c0,0-.1,0-.2,0,0,.1,0,.2,0,.4,0-.1,0-.3,0-.4Z"/>
    <path class="st0" d="M357.1,91.8c0,9.8-6.9,17.9-15.7,18.7,0,9.3,6.9,16.9,15.4,16.9s15.4-7.6,15.4-16.9,0,0,0,0c-8.5-1.1-15.1-9-15.1-18.6Z"/>
    <path class="st0" d="M254.7,91.8c0,9.8-6.9,17.9-15.7,18.7,0,9.3,6.9,16.9,15.4,16.9s15.4-7.6,15.4-16.9,0,0,0,0c-8.5-1.1-15.1-9-15.1-18.6Z"/>
    <path class="st0" d="M115.6,52.6c0,0-.1,0-.2,0,0,.1,0,.2,0,.4,0-.1,0-.3,0-.4Z"/>
    <path class="st0" d="M98.5,69.9c8.5,0,15.4-7.6,15.4-16.9s0-.3.1-.5c-8.4-.9-15.1-8.6-15.4-18,0,0,0,0,0,0-.3,9.5-7.1,17.2-15.6,18,0,.1.1.3.1.4,0,9.3,6.9,16.9,15.4,16.9Z"/>
    <path class="st0" d="M81.4,52.9c0,9.9-7.1,18.1-16,18.7.2.2.3.4.3.7,0,9.3,6.9,16.9,15.4,16.9s15.4-7.6,15.4-16.9.1-.6.4-.8c-8.7-.9-15.5-8.9-15.5-18.7Z"/>
    <path class="st0" d="M303.2,69.9c8.5,0,15.4-7.6,15.4-16.9s0-.3.1-.5c-8.4-.9-15-8.5-15.4-17.9,0,0,0,0,0,0-.3,9.5-7.1,17.2-15.6,17.9,0,.1.1.3.1.4,0,9.3,6.9,16.9,15.4,16.9Z"/>
    <path class="st0" d="M98.5,71.7c-.2,0-.4,0-.6,0,.2.2.3.4.3.7,0-.3.1-.5.3-.7,0,0,0,0,0,0Z"/>
    <path class="st0" d="M149.7,52.6c0,0-.1,0-.2,0,0,.1,0,.2,0,.4,0-.1,0-.3,0-.4Z"/>
    <path class="st0" d="M252.1,52.6c0,0-.1,0-.2,0,0,.1,0,.2,0,.4,0-.1,0-.3,0-.4Z"/>
    <path class="st0" d="M84.1,91.8c0,9.8-6.9,17.9-15.7,18.7,0,9.3,6.9,16.9,15.4,16.9s15.4-7.6,15.4-16.9,0,0,0,0c-8.5-1.1-15.1-9-15.1-18.6Z"/>
    <path class="st0" d="M218,52.6c0,0-.1,0-.2,0,0,.1,0,.2,0,.4,0-.1,0-.3,0-.4Z"/>
    <path class="st0" d="M84.9,90.9c.5,0,.8.4.8.9,0,9.3,6.9,16.9,15.4,16.9s15.4-7.6,15.4-16.9.2-.6.4-.8c-.6,0-1.1,0-1.7,0-9.4,0-17.1-8.4-17.1-18.7,0,9.4-6.4,17.3-14.7,18.6.3.1.6.5.6.9,0-.5.4-.9.8-.9Z"/>
    <path class="st0" d="M118.2,91.8c0,9.8-6.9,17.9-15.7,18.7,0,9.3,6.9,16.9,15.4,16.9s15.4-7.6,15.4-16.9,0,0,0,0c-8.5-1.1-15.1-9-15.1-18.6Z"/>
    <path class="st0" d="M286.2,52.6c0,0-.1,0-.2,0,0,.1,0,.2,0,.4,0-.1,0-.3,0-.4Z"/>
    <path class="st0" d="M132.6,69.9c8.5,0,15.4-7.6,15.4-16.9s0-.3.1-.5c-8.4-.9-15.1-8.6-15.4-18,0,0,0,0,0,0-.3,9.5-7.1,17.2-15.6,18,0,.1.1.3.1.4,0,9.3,6.9,16.9,15.4,16.9Z"/>
    <path class="st0" d="M166.7,69.9c8.5,0,15.4-7.6,15.4-16.9s0-.3.1-.5c-8.4-.9-15.1-8.6-15.4-17.9,0,0,0,0,0,0-.3,9.5-7.1,17.2-15.6,18,0,.1.1.3.1.4,0,9.3,6.9,16.9,15.4,16.9Z"/>
    <path class="st0" d="M49.7,127.4c8.5,0,15.4-7.6,15.4-16.9s0,0,0,0c-8.5-1.1-15.1-9-15.1-18.6,0,9.8-6.9,17.9-15.7,18.7,0,9.3,6.9,16.9,15.4,16.9Z"/>
    <path class="st0" d="M32.6,110.5h0c0,9.3-6.2,17-14.3,18.4,0,0,0,.1,0,.2,0,9.3,6.9,16.9,15.4,16.9s15.4-7.6,15.4-16.8c-9.1-.3-16.5-8.6-16.5-18.7Z"/>
    <path class="st0" d="M50.8,90.9c.5,0,.8.4.8.9,0,9.3,6.9,16.9,15.4,16.9s15.4-7.6,15.4-16.9.2-.6.4-.8c-.6,0-1.1,0-1.7,0-9.4,0-17.1-8.4-17.1-18.7,0,9.4-6.4,17.3-14.7,18.6.3.1.6.5.6.9,0-.5.4-.9.8-.9Z"/>
    <path class="st0" d="M66.7,110.5h0c0,9.3-6.2,17-14.3,18.4,0,0,0,.1,0,.2,0,9.3,6.9,16.9,15.4,16.9s15.4-7.6,15.4-16.8c-9.1-.3-16.5-8.6-16.5-18.7Z"/>
    <path class="st0" d="M135,110.5h0c0,9.3-6.2,17-14.3,18.4,0,0,0,.1,0,.2,0,9.3,6.9,16.9,15.4,16.9s15.4-7.6,15.4-16.8c-9.1-.3-16.5-8.6-16.5-18.7Z"/>
    <path class="st0" d="M64.3,71.7c-.2,0-.4,0-.6,0,.2.2.3.4.3.7,0-.3.1-.5.3-.7,0,0,0,0,0,0Z"/>
    <path class="st0" d="M320.4,50.7c8.3,0,15.1-7.2,15.4-16.3-8.6-.8-15.3-8.5-15.6-18,0,0,0,0,0,0-.3,9.3-6.8,16.9-15.1,17.9.3,9,7.1,16.3,15.4,16.3Z"/>
    <path class="st0" d="M169.1,110.5h0c0,9.3-6.2,17-14.3,18.4,0,0,0,.1,0,.2,0,9.3,6.9,16.9,15.4,16.9s15.4-7.6,15.4-16.8c-9.1-.3-16.5-8.6-16.5-18.7Z"/>
    <path class="st0" d="M100.9,110.5h0c0,9.3-6.2,17-14.3,18.4,0,0,0,.1,0,.2,0,9.3,6.9,16.9,15.4,16.9s15.4-7.6,15.4-16.8c-9.1-.3-16.5-8.6-16.5-18.7Z"/>
    <path class="st0" d="M409.7,110.4c0,9.3,6.9,16.9,15.4,16.9s15.4-7.6,15.4-16.9,0,0,0,0c-8.5-1.1-15.1-9-15.1-18.6,0,9.8-6.9,17.9-15.7,18.7Z"/>
    <path class="st0" d="M81.5,50.7c8.3,0,15-7.2,15.4-16.2-9.1-.2-16.5-8.1-16.9-18.1,0,0,0,0,0,0-.3,8.8-6.2,16.1-13.9,17.7.2,9.1,7,16.5,15.4,16.5Z"/>
    <path class="st0" d="M218,50.7c8.3,0,15.1-7.2,15.4-16.2-8.8-.5-15.8-8.4-16.2-18,0,0,0,0,0,0-.3,9.1-6.5,16.5-14.6,17.9.3,9.1,7.1,16.4,15.4,16.4Z"/>
    <path class="st0" d="M183.9,50.7c8.3,0,15-7.2,15.4-16.2-8.9-.5-16-8.3-16.3-18,0,0,0,0,0,0-.3,9-6.5,16.4-14.4,17.8.2,9.1,7.1,16.4,15.4,16.4Z"/>
    <path class="st0" d="M286.3,50.7c8.3,0,15.1-7.2,15.4-16.2-8.6-.7-15.5-8.5-15.8-18,0,0,0,0,0,0-.3,9.2-6.7,16.8-15,17.9.3,9.1,7.1,16.3,15.4,16.3Z"/>
    <path class="st0" d="M149.8,50.7c8.3,0,15-7.2,15.4-16.2-9-.4-16.2-8.3-16.5-18,0,0,0,0,0,0-.3,9-6.4,16.3-14.3,17.8.2,9.1,7,16.4,15.4,16.4Z"/>
    <path class="st0" d="M252.2,50.7c8.3,0,15.1-7.2,15.4-16.2-8.7-.6-15.7-8.4-16-18,0,0,0,0,0,0-.3,9.2-6.6,16.7-14.8,17.9.3,9.1,7.1,16.4,15.4,16.4Z"/>
    <path class="st0" d="M47.3,52.9c0,9.9-7.1,18.1-16,18.7.2.2.3.4.3.7,0,9.3,6.9,16.9,15.4,16.9s15.4-7.6,15.4-16.9.1-.6.4-.8c-8.7-.9-15.5-8.9-15.5-18.7Z"/>
    <path class="st0" d="M64.3,69.9c8.5,0,15.4-7.6,15.4-16.9s0-.3.1-.5c-8.4-.9-15.1-8.6-15.4-18,0,0,0,0,0,0-.3,9.5-7.1,17.2-15.6,18,0,.1.1.3.1.4,0,9.3,6.9,16.9,15.4,16.9Z"/>
    <path class="st0" d="M115.7,50.7c8.3,0,15-7.2,15.4-16.2-9-.3-16.4-8.2-16.7-18,0,0,0,0,0,0-.3,8.9-6.3,16.2-14.1,17.8.2,9.1,7,16.5,15.4,16.5Z"/>
    <path class="st0" d="M203.3,110.5h0c0,9.3-6.2,17-14.3,18.4,0,0,0,.1,0,.2,0,9.3,6.9,16.9,15.4,16.9s15.4-7.6,15.4-16.8c-9.1-.3-16.5-8.6-16.5-18.7Z"/>
    <path class="st0" d="M422.8,50.7c8.3,0,15.1-7.3,15.4-16.3-8.3-1.1-14.8-8.7-15.1-18,0,0,0,0,0,0-.3,9.5-7.1,17.2-15.7,18,.3,9,7.1,16.2,15.4,16.2Z"/>
    <path class="st0" d="M440.8,71.6c.2.2.3.4.3.7,0,9.3,6.9,16.9,15.4,16.9s15.4-7.6,15.4-16.9.1-.6.4-.8c-8.7-.9-15.5-8.9-15.5-18.7,0,9.9-7.1,18.1-16,18.7Z"/>
    <path class="st0" d="M442.2,110.5h0c0,9.3-6.2,17-14.3,18.4,0,0,0,.1,0,.2,0,9.3,6.9,16.9,15.4,16.9s15.4-7.6,15.4-16.8c-9.1-.3-16.5-8.6-16.5-18.7Z"/>
    <path class="st0" d="M439.2,71.7c.2.2.3.4.3.7,0-.3.1-.5.3-.7,0,0,0,0,0,0-.2,0-.4,0-.6,0Z"/>
    <path class="st0" d="M424.8,90.9c.3.1.6.5.6.9,0-.5.4-.9.8-.9s.8.4.8.9c0,9.3,6.9,16.9,15.4,16.9s15.4-7.6,15.4-16.9.2-.6.4-.8c-.6,0-1.1,0-1.7,0-9.4,0-17.1-8.4-17.1-18.7,0,9.4-6.4,17.3-14.7,18.6Z"/>
    <path class="st0" d="M443.8,110.4c0,9.3,6.9,16.9,15.4,16.9s15.4-7.6,15.4-16.9,0,0,0,0c-8.5-1.1-15.1-9-15.1-18.6,0,9.8-6.9,17.9-15.7,18.7Z"/>
    <path class="st0" d="M424.2,52.5c0,.1.1.3.1.4,0,9.3,6.9,16.9,15.4,16.9s15.4-7.6,15.4-16.9,0-.3.1-.5c-8.4-.9-15-8.5-15.4-17.9,0,0,0,0,0,0-.3,9.5-7.1,17.2-15.6,17.9Z"/>
    <path class="st0" d="M271.5,110.5h0c0,9.3-6.2,17-14.3,18.4,0,0,0,.1,0,.2,0,9.3,6.9,16.9,15.4,16.9s15.4-7.6,15.4-16.8c-9.1-.3-16.5-8.6-16.5-18.7Z"/>
    <path class="st0" d="M305.6,110.5h0c0,9.3-6.2,17-14.3,18.4,0,0,0,.1,0,.2,0,9.3,6.9,16.9,15.4,16.9s15.4-7.6,15.4-16.8c-9.1-.3-16.5-8.6-16.5-18.7Z"/>
    <path class="st0" d="M408,110.5h0c0,9.3-6.2,17-14.3,18.4,0,0,0,.1,0,.2,0,9.3,6.9,16.9,15.4,16.9s15.4-7.6,15.4-16.8c-9.1-.3-16.5-8.6-16.5-18.7Z"/>
    <path class="st0" d="M354.6,50.7c8.3,0,15.1-7.2,15.4-16.3-8.5-.9-15.2-8.6-15.4-18,0,0,0,0,0,0-.3,9.4-6.9,17-15.3,18,.3,9,7.1,16.3,15.4,16.3Z"/>
    <path class="st0" d="M237.4,110.5h0c0,9.3-6.2,17-14.3,18.4,0,0,0,.1,0,.2,0,9.3,6.9,16.9,15.4,16.9s15.4-7.6,15.4-16.8c-9.1-.3-16.5-8.6-16.5-18.7Z"/>
    <path class="st0" d="M373.9,110.5h0c0,9.3-6.2,17-14.3,18.4,0,0,0,.1,0,.2,0,9.3,6.9,16.9,15.4,16.9s15.4-7.6,15.4-16.8c-9.1-.3-16.5-8.6-16.5-18.7Z"/>
    <path class="st0" d="M388.7,50.7c8.3,0,15.1-7.3,15.4-16.3-8.4-1-15-8.6-15.3-18,0,0,0,0,0,0-.3,9.4-7,17.1-15.5,18,.3,9,7.1,16.3,15.4,16.3Z"/>
    <path class="st0" d="M339.8,110.5h0c0,9.3-6.2,17-14.3,18.4,0,0,0,.1,0,.2,0,9.3,6.9,16.9,15.4,16.9s15.4-7.6,15.4-16.8c-9.1-.3-16.5-8.6-16.5-18.7Z"/>
    <path class="st0" d="M47.2,52.6c0,.1,0,.2,0,.4,0-.1,0-.3,0-.4,0,0-.1,0-.2,0Z"/>
    <path class="st0" d="M354.2,89.3c8.5,0,15.4-7.6,15.4-16.9s.1-.6.4-.8c-8.7-.9-15.5-8.9-15.5-18.7,0,9.9-7.1,18.1-16,18.7.2.2.3.4.3.7,0,9.3,6.9,16.9,15.4,16.9Z"/>
    <path class="st0" d="M337.1,72.4c0,9.4-6.4,17.3-14.7,18.6.3.1.6.5.6.9,0-.5.4-.9.8-.9s.8.4.8.9c0,9.3,6.9,16.9,15.4,16.9s15.4-7.6,15.4-16.9.2-.6.4-.8c-.6,0-1.1,0-1.7,0-9.4,0-17.1-8.4-17.1-18.7Z"/>
    <path class="st0" d="M320,89.3c8.5,0,15.4-7.6,15.4-16.9s.1-.6.4-.8c-8.7-.9-15.5-8.9-15.5-18.7,0,9.9-7.1,18.1-16,18.7.2.2.3.4.3.7,0,9.3,6.9,16.9,15.4,16.9Z"/>
    <path class="st0" d="M285.9,89.3c8.5,0,15.4-7.6,15.4-16.9s.1-.6.4-.8c-8.7-.9-15.5-8.9-15.5-18.7,0,9.9-7.1,18.1-16,18.7.2.2.3.4.3.7,0,9.3,6.9,16.9,15.4,16.9Z"/>
    <path class="st0" d="M303.2,71.7s0,0,0,0c-.2,0-.4,0-.6,0,.2.2.3.4.3.7,0-.3.1-.5.3-.7Z"/>
    <path class="st0" d="M388.3,89.3c8.5,0,15.4-7.6,15.4-16.9s.1-.6.4-.8c-8.7-.9-15.5-8.9-15.5-18.7,0,9.9-7.1,18.1-16,18.7.2.2.3.4.3.7,0,9.3,6.9,16.9,15.4,16.9Z"/>
    <path class="st0" d="M303,72.4c0,9.4-6.4,17.3-14.7,18.6.3.1.6.5.6.9,0-.5.4-.9.8-.9s.8.4.8.9c0,9.3,6.9,16.9,15.4,16.9s15.4-7.6,15.4-16.9.2-.6.4-.8c-.6,0-1.1,0-1.7,0-9.4,0-17.1-8.4-17.1-18.7Z"/>
    <path class="st0" d="M234.7,72.4c0,9.4-6.4,17.3-14.7,18.6.3.1.6.5.6.9,0-.5.4-.9.8-.9s.8.4.8.9c0,9.3,6.9,16.9,15.4,16.9s15.4-7.6,15.4-16.9.2-.6.4-.8c-.6,0-1.1,0-1.7,0-9.4,0-17.1-8.4-17.1-18.7Z"/>
    <path class="st0" d="M268.8,72.4c0,9.4-6.4,17.3-14.7,18.6.3.1.6.5.6.9,0-.5.4-.9.8-.9s.8.4.8.9c0,9.3,6.9,16.9,15.4,16.9s15.4-7.6,15.4-16.9.2-.6.4-.8c-.6,0-1.1,0-1.7,0-9.4,0-17.1-8.4-17.1-18.7Z"/>
    <path class="st0" d="M371.5,71.7s0,0,0,0c-.2,0-.4,0-.6,0,.2.2.3.4.3.7,0-.3.1-.5.3-.7Z"/>
    <path class="st0" d="M337.4,71.7s0,0,0,0c-.2,0-.4,0-.6,0,.2.2.3.4.3.7,0-.3.1-.5.3-.7Z"/>
    <path class="st0" d="M200.9,71.7s0,0,0,0c-.2,0-.4,0-.6,0,.2.2.3.4.3.7,0-.3.1-.5.3-.7Z"/>
    <path class="st0" d="M183.5,89.3c8.5,0,15.4-7.6,15.4-16.9s.1-.6.4-.8c-8.7-.9-15.5-8.9-15.5-18.7,0,9.9-7.1,18.1-16,18.7.2.2.3.4.3.7,0,9.3,6.9,16.9,15.4,16.9Z"/>
    <path class="st0" d="M166.4,72.4c0,9.4-6.4,17.3-14.7,18.6.3.1.6.5.6.9,0-.5.4-.9.8-.9s.8.4.8.9c0,9.3,6.9,16.9,15.4,16.9s15.4-7.6,15.4-16.9.2-.6.4-.8c-.6,0-1.1,0-1.7,0-9.4,0-17.1-8.4-17.1-18.7Z"/>
    <path class="st0" d="M149.4,89.3c8.5,0,15.4-7.6,15.4-16.9s.1-.6.4-.8c-8.7-.9-15.5-8.9-15.5-18.7,0,9.9-7.1,18.1-16,18.7.2.2.3.4.3.7,0,9.3,6.9,16.9,15.4,16.9Z"/>
    <path class="st0" d="M132.3,72.4c0,9.4-6.4,17.3-14.7,18.6.3.1.6.5.6.9,0-.5.4-.9.8-.9s.8.4.8.9c0,9.3,6.9,16.9,15.4,16.9s15.4-7.6,15.4-16.9.2-.6.4-.8c-.6,0-1.1,0-1.7,0-9.4,0-17.1-8.4-17.1-18.7Z"/>
    <path class="st0" d="M269.1,71.7s0,0,0,0c-.2,0-.4,0-.6,0,.2.2.3.4.3.7,0-.3.1-.5.3-.7Z"/>
    <path class="st0" d="M251.8,89.3c8.5,0,15.4-7.6,15.4-16.9s.1-.6.4-.8c-8.7-.9-15.5-8.9-15.5-18.7,0,9.9-7.1,18.1-16,18.7.2.2.3.4.3.7,0,9.3,6.9,16.9,15.4,16.9Z"/>
    <path class="st0" d="M200.6,72.4c0,9.4-6.4,17.3-14.7,18.6.3.1.6.5.6.9,0-.5.4-.9.8-.9s.8.4.8.9c0,9.3,6.9,16.9,15.4,16.9s15.4-7.6,15.4-16.9.2-.6.4-.8c-.6,0-1.1,0-1.7,0-9.4,0-17.1-8.4-17.1-18.7Z"/>
    <path class="st0" d="M235,71.7s0,0,0,0c-.2,0-.4,0-.6,0,.2.2.3.4.3.7,0-.3.1-.5.3-.7Z"/>
    <path class="st0" d="M217.6,89.3c8.5,0,15.4-7.6,15.4-16.9s.1-.6.4-.8c-8.7-.9-15.5-8.9-15.5-18.7,0,9.9-7.1,18.1-16,18.7.2.2.3.4.3.7,0,9.3,6.9,16.9,15.4,16.9Z"/>
    <path class="st0" d="M388.6,52.6c0,0-.1,0-.2,0,0,.1,0,.2,0,.4,0-.1,0-.3,0-.4Z"/>
    <path class="st0" d="M456.9,52.6c0,0-.1,0-.2,0,0,.1,0,.2,0,.4,0-.1,0-.3,0-.4Z"/>
    <path class="st0" d="M406.7,71.6c.2.2.3.4.3.7,0,9.3,6.9,16.9,15.4,16.9s15.4-7.6,15.4-16.9.1-.6.4-.8c-8.7-.9-15.5-8.9-15.5-18.7,0,9.9-7.1,18.1-16,18.7Z"/>
    <path class="st0" d="M405.1,71.7c.2.2.3.4.3.7,0-.3.1-.5.3-.7,0,0,0,0,0,0-.2,0-.4,0-.6,0Z"/>
    <path class="st0" d="M81.3,52.6c0,.1,0,.2,0,.4,0-.1,0-.3,0-.4,0,0-.1,0-.2,0Z"/>
    <path class="st0" d="M371.5,69.9c8.5,0,15.4-7.6,15.4-16.9s0-.3.1-.5c-8.4-.9-15-8.5-15.4-17.9,0,0,0,0,0,0-.3,9.5-7.1,17.2-15.6,17.9,0,.1.1.3.1.4,0,9.3,6.9,16.9,15.4,16.9Z"/>
    <path class="st0" d="M390.7,90.9c.3.1.6.5.6.9,0-.5.4-.9.8-.9s.8.4.8.9c0,9.3,6.9,16.9,15.4,16.9s15.4-7.6,15.4-16.9.2-.6.4-.8c-.6,0-1.1,0-1.7,0-9.4,0-17.1-8.4-17.1-18.7,0,9.4-6.4,17.3-14.7,18.6Z"/>
    <path class="st0" d="M354.5,52.6c0,0-.1,0-.2,0,0,.1,0,.2,0,.4,0-.1,0-.3,0-.4Z"/>
    <path class="st0" d="M166.7,71.7s0,0,0,0c-.2,0-.4,0-.6,0,.2.2.3.4.3.7,0-.3.1-.5.3-.7Z"/>
    <path class="st0" d="M405.6,69.9c8.5,0,15.4-7.6,15.4-16.9s0-.3.1-.5c-8.4-.9-15-8.5-15.4-17.9,0,0,0,0,0,0-.3,9.5-7.1,17.2-15.6,17.9,0,.1.1.3.1.4,0,9.3,6.9,16.9,15.4,16.9Z"/>
    <path class="st0" d="M422.8,52.6c0,0-.1,0-.2,0,0,.1,0,.2,0,.4,0-.1,0-.3,0-.4Z"/>
    <path class="st0" d="M115.5,52.9c0,9.9-7.1,18.1-16,18.7.2.2.3.4.3.7,0,9.3,6.9,16.9,15.4,16.9s15.4-7.6,15.4-16.9.1-.6.4-.8c-8.7-.9-15.5-8.9-15.5-18.7Z"/>
    <path class="st0" d="M132.6,71.7c-.2,0-.4,0-.6,0,.2.2.3.4.3.7,0-.3.1-.5.3-.7,0,0,0,0,0,0Z"/>
    <path class="st0" d="M30.2,71.7c-.2,0-.4,0-.6,0,.2.2.3.4.3.7,0-.3.1-.5.3-.7,0,0,0,0,0,0Z"/>
    <path class="st0" d="M371.2,72.4c0,9.4-6.4,17.3-14.7,18.6.3.1.6.5.6.9,0-.5.4-.9.8-.9s.8.4.8.9c0,9.3,6.9,16.9,15.4,16.9s15.4-7.6,15.4-16.9.2-.6.4-.8c-.6,0-1.1,0-1.7,0-9.4,0-17.1-8.4-17.1-18.7Z"/>
    <path class="st2" d="M44.9,14.9c.5,0,.8.4.8.9,0-.5.4-.9.8-.9s.8.4.8.9,0,.4,0,.6C55.6,15.8,62.1,8.8,63.1,0h-1.7c-1,8.3-7.5,14.7-15.3,14.7s-4.3-.5-6.3-1.5l-.5,1.8c1.4.7,3,1.2,4.6,1.4,0-.2,0-.4,0-.5,0-.5.4-.9.8-.9Z"/>
    <path class="st2" d="M45.7,16.5s0,0,0,0c0-.2,0-.5,0-.7,0,.2,0,.5,0,.7Z"/>
    <path class="st2" d="M80,15.8c0,.2,0,.5,0,.7,0,0,0,0,0,0,0-.2,0-.5,0-.7Z"/>
    <path class="st2" d="M79.2,14.9c.5,0,.8.4.8.9,0-.5.4-.9.8-.9s.8.4.8.9,0,.4,0,.6C89.8,15.7,96.3,8.8,97.3,0h-1.7c-1,8.3-7.5,14.7-15.3,14.7S66.1,8.3,65.1,0h-1.7c.9,8.6,7.2,15.4,15,16.4,0-.2,0-.4,0-.6,0-.5.4-.9.8-.9Z"/>
    <path class="st2" d="M113.5,14.9c.5,0,.8.4.8.9,0-.5.4-.9.8-.9s.8.4.8.9,0,.4,0,.6C124,15.6,130.4,8.7,131.4,0h-1.7c-1,8.3-7.5,14.7-15.3,14.7S100.2,8.3,99.2,0h-1.7c.9,8.6,7.2,15.5,15.2,16.4,0-.2,0-.4,0-.6,0-.5.4-.9.8-.9Z"/>
    <path class="st2" d="M114.3,15.8c0,.2,0,.5,0,.7,0,0,0,0,0,0,0-.2,0-.5,0-.7Z"/>
    <path class="st2" d="M147.8,14.9c.5,0,.8.4.8.9,0-.5.4-.9.8-.9s.8.4.8.9,0,.4,0,.6C158.3,15.5,164.6,8.7,165.5,0h-1.7c-1,8.3-7.5,14.7-15.3,14.7S134.3,8.3,133.3,0h-1.7c.9,8.7,7.3,15.6,15.3,16.4,0-.2,0-.4,0-.6,0-.5.4-.9.8-.9Z"/>
    <path class="st2" d="M148.7,15.8c0,.2,0,.5,0,.7,0,0,0,0,0,0,0-.2,0-.5,0-.7Z"/>
    <path class="st2" d="M182.1,14.9c.5,0,.8.4.8.9,0-.5.4-.9.8-.9s.8.4.8.9,0,.4,0,.6C192.5,15.4,198.8,8.6,199.7,0h-1.7c-1,8.3-7.5,14.7-15.3,14.7S168.5,8.3,167.5,0h-1.7c1,8.8,7.4,15.7,15.5,16.4,0-.2,0-.4,0-.6,0-.5.4-.9.8-.9Z"/>
    <path class="st2" d="M183,15.8c0,.2,0,.5,0,.7,0,0,0,0,0,0,0-.2,0-.5,0-.7Z"/>
    <path class="st2" d="M217.3,15.8c0,.2,0,.5,0,.7,0,0,0,0,0,0,0-.2,0-.5,0-.7Z"/>
    <path class="st2" d="M216.4,14.9c.5,0,.8.4.8.9,0-.5.4-.9.8-.9s.8.4.8.9,0,.4,0,.5C226.7,15.3,232.9,8.5,233.8,0h-1.7c-1,8.3-7.5,14.7-15.3,14.7S202.6,8.3,201.6,0h-1.7c1,8.8,7.5,15.8,15.6,16.5,0-.2,0-.4,0-.6,0-.5.4-.9.8-.9Z"/>
    <path class="st2" d="M251.6,15.8c0,.2,0,.4,0,.7,0,0,0,0,0,0,0-.2,0-.4,0-.7Z"/>
    <path class="st2" d="M250.7,14.9c.5,0,.8.4.8.9,0-.5.4-.9.8-.9s.8.4.8.9,0,.4,0,.5C261,15.3,267.1,8.5,268,0h-1.7c-1,8.3-7.5,14.7-15.3,14.7S236.8,8.3,235.8,0h-1.7c1,8.9,7.6,15.9,15.8,16.5,0-.2,0-.4,0-.6,0-.5.4-.9.8-.9Z"/>
    <path class="st2" d="M285,14.9c.5,0,.8.4.8.9,0-.5.4-.9.8-.9s.8.4.8.9,0,.3,0,.5C295.2,15.2,301.2,8.4,302.1,0h-1.7c-1,8.3-7.5,14.7-15.3,14.7S270.9,8.3,269.9,0h-1.7c1,8.9,7.7,16,16,16.5,0-.2,0-.4,0-.7,0-.5.4-.9.8-.9Z"/>
    <path class="st2" d="M285.9,15.8c0,.2,0,.4,0,.7,0,0,0,0,0,0,0-.2,0-.4,0-.7Z"/>
    <path class="st2" d="M320.2,15.8c0,.2,0,.4,0,.7,0,0,0,0,0,0,0-.2,0-.4,0-.7Z"/>
    <path class="st2" d="M319.4,14.9c.5,0,.8.4.8.9,0-.5.4-.9.8-.9s.8.4.8.9,0,.3,0,.5C329.4,15.1,335.4,8.4,336.3,0h-1.7c-1,8.3-7.5,14.7-15.3,14.7S305.1,8.3,304.1,0h-1.7c1,9,7.8,16.1,16.1,16.5,0-.2,0-.4,0-.7,0-.5.4-.9.8-.9Z"/>
    <path class="st2" d="M354.5,15.8c0,.2,0,.4,0,.6,0,0,0,0,0,0,0-.2,0-.4,0-.6Z"/>
    <path class="st2" d="M353.7,14.9c.5,0,.8.4.8.9,0-.5.4-.9.8-.9s.8.4.8.9,0,.3,0,.4C363.6,15,369.5,8.3,370.4,0h-1.7c-1,8.3-7.5,14.7-15.3,14.7S339.2,8.3,338.2,0h-1.7c1,9,7.9,16.1,16.3,16.5,0-.2,0-.4,0-.7,0-.5.4-.9.8-.9Z"/>
    <path class="st2" d="M388.8,15.8c0,.2,0,.4,0,.6,0,0,0,0,0,0,0-.2,0-.4,0-.6Z"/>
    <path class="st2" d="M388,14.9c.5,0,.8.4.8.9,0-.5.4-.9.8-.9s.8.4.8.9,0,.3,0,.4C397.9,14.9,403.7,8.2,404.6,0h-1.7c-1,8.3-7.5,14.7-15.3,14.7S373.3,8.3,372.4,0h-1.7c1,9.1,7.9,16.2,16.4,16.5,0-.2,0-.4,0-.7,0-.5.4-.9.8-.9Z"/>
    <path class="st2" d="M422.3,14.9c.5,0,.8.4.8.9,0-.5.4-.9.8-.9s.8.4.8.9,0,.3,0,.4C432.1,14.8,437.8,8.2,438.7,0h-1.7c-1,8.3-7.5,14.7-15.3,14.7S407.5,8.3,406.5,0h-1.7c1,9.2,8,16.3,16.6,16.5,0-.2,0-.5,0-.7,0-.5.4-.9.8-.9Z"/>
    <path class="st2" d="M423.1,15.8c0,.2,0,.4,0,.6,0,0,0,0,0,0,0-.2,0-.4,0-.6Z"/>
    <path class="st2" d="M456.6,14.9c.5,0,.8.4.8.9,0-.5.4-.9.8-.9s.8.4.8.9,0,.2,0,.4c.5-.1,1-.3,1.5-.4l-.5-1.7c-1.4.4-2.8.7-4.3.7C448.1,14.7,441.6,8.3,440.6,0h-1.7c1,9.2,8.1,16.4,16.8,16.5,0-.2,0-.5,0-.7,0-.5.4-.9.8-.9Z"/>
    <path class="st2" d="M457.4,16.4s0,0,0,0c0-.2,0-.4,0-.6,0,.2,0,.4,0,.6Z"/>
    <path class="st2" d="M35.1,31.1l-.6,2.3c6.4-2.6,10.9-9.1,11.2-16.9-.6,0-1.1,0-1.7-.1-.2,6.5-3.8,12.1-8.9,14.8Z"/>
    <path class="st2" d="M44.9,14.9c-.5,0-.8.4-.8.9s0,.4,0,.5c.5,0,1.1.1,1.7.1,0-.2,0-.4,0-.7,0-.5-.4-.9-.8-.9Z"/>
    <path class="st2" d="M64.5,33.8c0,.2,0,.4,0,.7,0,0,0,0,0,0,0-.2,0-.4,0-.7Z"/>
    <path class="st2" d="M63.6,32.9c.5,0,.8.4.8.9,0-.5.4-.9.8-.9s.8.4.8.9,0,.3,0,.4c7.7-1.6,13.6-8.9,13.9-17.7-.6,0-1.1,0-1.7-.1-.3,9.1-7.1,16.4-15.5,16.4s-15.2-7.2-15.5-16.3c-.4,0-.8,0-1.2,0s-.3,0-.4,0c.3,10,7.8,18,17,18.1,0-.2,0-.5,0-.7,0-.5.4-.9.8-.9Z"/>
    <path class="st2" d="M47.4,16.5c0-.2,0-.4,0-.6,0-.5-.4-.9-.8-.9s-.8.4-.8.9,0,.5,0,.7c.1,0,.3,0,.4,0,.4,0,.8,0,1.2,0Z"/>
    <path class="st2" d="M80,15.8c0-.5-.4-.9-.8-.9s-.8.4-.8.9,0,.4,0,.6c.5,0,1.1.1,1.7.1,0-.2,0-.5,0-.7Z"/>
    <path class="st2" d="M98.6,34.5c0-.2,0-.4,0-.7,0,.2,0,.5,0,.7,0,0,0,0,0,0Z"/>
    <path class="st2" d="M80.1,16.5c.3,9.9,7.7,17.9,16.9,18.1,0-.2,0-.5,0-.7,0-.5.4-.9.8-.9s.8.4.8.9c0-.5.4-.9.8-.9s.8.4.8.9,0,.3,0,.4c7.8-1.5,13.8-8.9,14.1-17.8-.6,0-1.1,0-1.7-.1-.3,9.1-7.1,16.3-15.5,16.3s-15.2-7.3-15.5-16.3c-.5,0-.9,0-1.4,0s-.2,0-.3,0Z"/>
    <path class="st2" d="M80.9,14.9c-.5,0-.8.4-.8.9s0,.5,0,.7c0,0,.2,0,.3,0,.5,0,.9,0,1.4,0,0-.2,0-.4,0-.6,0-.5-.4-.9-.8-.9Z"/>
    <path class="st2" d="M114.3,15.8c0-.5-.4-.9-.8-.9s-.8.4-.8.9,0,.4,0,.6c.5,0,1.1,0,1.7.1,0-.2,0-.5,0-.7Z"/>
    <path class="st2" d="M132.7,34.5c0-.2,0-.5,0-.7,0,.2,0,.5,0,.7,0,0,0,0,0,0Z"/>
    <path class="st2" d="M114.4,16.5c.3,9.9,7.6,17.8,16.7,18,0-.2,0-.5,0-.7,0-.5.4-.9.8-.9s.8.4.8.9c0-.5.4-.9.8-.9s.8.4.8.9,0,.3,0,.5c7.9-1.5,14-8.8,14.3-17.8,0,0,0,0,0,0-.5,0-1.1,0-1.6,0-.3,9.1-7.1,16.3-15.5,16.3s-15.2-7.3-15.5-16.3c-.5,0-1,0-1.6,0s0,0,0,0Z"/>
    <path class="st2" d="M115.2,14.9c-.5,0-.8.4-.8.9s0,.5,0,.7c0,0,0,0,0,0,.5,0,1.1,0,1.6,0,0-.2,0-.4,0-.6,0-.5-.4-.9-.8-.9Z"/>
    <path class="st2" d="M148.6,16.5c0-.2,0-.5,0-.7,0-.5-.4-.9-.8-.9s-.8.4-.8.9,0,.4,0,.6c.5,0,1.1,0,1.6,0s0,0,0,0Z"/>
    <path class="st2" d="M166.9,34.5c0-.2,0-.5,0-.7,0,.2,0,.5,0,.7,0,0,0,0,0,0Z"/>
    <path class="st2" d="M165.2,34.5c0-.2,0-.5,0-.7,0-.5.4-.9.8-.9s.8.4.8.9c0-.5.4-.9.8-.9s.8.4.8.9,0,.3,0,.5c8-1.4,14.1-8.8,14.4-17.8,0,0-.1,0-.2,0-.5,0-1,0-1.5,0-.3,9-7.1,16.3-15.5,16.3s-15.2-7.3-15.5-16.3c-.5,0-1.1,0-1.7,0,.3,9.8,7.5,17.7,16.5,18Z"/>
    <path class="st2" d="M149.5,14.9c-.5,0-.8.4-.8.9s0,.5,0,.7c.6,0,1.1,0,1.7,0,0-.2,0-.4,0-.6,0-.5-.4-.9-.8-.9Z"/>
    <path class="st2" d="M182.9,16.5c0-.2,0-.5,0-.7,0-.5-.4-.9-.8-.9s-.8.4-.8.9,0,.4,0,.6c.5,0,1,0,1.5,0s.1,0,.2,0Z"/>
    <path class="st2" d="M199.3,34.5c0-.2,0-.5,0-.7,0-.5.4-.9.8-.9s.8.4.8.9c0-.5.4-.9.8-.9s.8.4.8.9,0,.4,0,.5c8.1-1.3,14.3-8.8,14.6-17.9-.1,0-.2,0-.4,0-.4,0-.9,0-1.3,0-.3,9-7.1,16.3-15.5,16.3s-15.2-7.3-15.5-16.3c-.5,0-1.1.1-1.7.1.3,9.7,7.5,17.6,16.3,18Z"/>
    <path class="st2" d="M201,34.5c0-.2,0-.5,0-.7,0,.2,0,.5,0,.7,0,0,0,0,0,0Z"/>
    <path class="st2" d="M183.8,14.9c-.5,0-.8.4-.8.9s0,.5,0,.7c.6,0,1.1,0,1.7-.1,0-.2,0-.4,0-.6,0-.5-.4-.9-.8-.9Z"/>
    <path class="st2" d="M217.3,16.5c0-.2,0-.5,0-.7,0-.5-.4-.9-.8-.9s-.8.4-.8.9,0,.4,0,.6c.4,0,.9,0,1.3,0s.2,0,.4,0Z"/>
    <path class="st2" d="M235.1,34.5c0-.2,0-.5,0-.7,0,.2,0,.5,0,.7,0,0,0,0,0,0Z"/>
    <path class="st2" d="M233.4,34.5c0-.2,0-.5,0-.7,0-.5.4-.9.8-.9s.8.4.8.9c0-.5.4-.9.8-.9s.8.4.8.9,0,.4,0,.6c8.1-1.2,14.5-8.7,14.8-17.9-.2,0-.4,0-.5,0-.4,0-.8,0-1.1,0-.3,9-7.1,16.3-15.5,16.3s-15.2-7.3-15.5-16.4c-.5,0-1.1.1-1.7.1.3,9.7,7.4,17.5,16.2,18Z"/>
    <path class="st2" d="M218.1,14.9c-.5,0-.8.4-.8.9s0,.5,0,.7c.6,0,1.1,0,1.7-.1,0-.2,0-.4,0-.5,0-.5-.4-.9-.8-.9Z"/>
    <path class="st2" d="M251.6,16.5c0-.2,0-.4,0-.7,0-.5-.4-.9-.8-.9s-.8.4-.8.9,0,.4,0,.6c.4,0,.8,0,1.1,0s.4,0,.5,0Z"/>
    <path class="st2" d="M267.6,34.5c0-.2,0-.5,0-.7,0-.5.4-.9.8-.9s.8.4.8.9c0-.5.4-.9.8-.9s.8.4.8.9,0,.4,0,.6c8.2-1.1,14.7-8.7,15-17.9-.2,0-.5,0-.7,0-.3,0-.7,0-1,0-.3,9-7.1,16.3-15.5,16.3s-15.2-7.3-15.5-16.4c-.5,0-1.1.1-1.7.1.3,9.6,7.3,17.4,16,18Z"/>
    <path class="st2" d="M269.3,34.6c0-.2,0-.5,0-.7,0,.2,0,.5,0,.7,0,0,0,0,0,0Z"/>
    <path class="st2" d="M252.4,14.9c-.5,0-.8.4-.8.9s0,.4,0,.7c.6,0,1.1,0,1.7-.1,0-.2,0-.3,0-.5,0-.5-.4-.9-.8-.9Z"/>
    <path class="st2" d="M285.9,16.5c0-.2,0-.4,0-.7,0-.5-.4-.9-.8-.9s-.8.4-.8.9,0,.4,0,.7c.3,0,.7,0,1,0s.5,0,.7,0Z"/>
    <path class="st2" d="M303.4,34.6c0-.2,0-.5,0-.7,0,.2,0,.5,0,.7,0,0,0,0,0,0Z"/>
    <path class="st2" d="M301.7,34.5c0-.2,0-.5,0-.7,0-.5.4-.9.8-.9s.8.4.8.9c0-.5.4-.9.8-.9s.8.4.8.9,0,.4,0,.6c8.3-1.1,14.8-8.7,15.1-17.9-.3,0-.6,0-.9,0s-.5,0-.8,0c-.3,9-7.1,16.3-15.5,16.3s-15.2-7.3-15.5-16.4c-.5,0-1.1.1-1.7.2.3,9.5,7.2,17.3,15.8,18Z"/>
    <path class="st2" d="M286.7,14.9c-.5,0-.8.4-.8.9s0,.4,0,.7c.6,0,1.1,0,1.7-.2,0-.2,0-.3,0-.5,0-.5-.4-.9-.8-.9Z"/>
    <path class="st2" d="M320.2,16.5c0-.2,0-.4,0-.7,0-.5-.4-.9-.8-.9s-.8.4-.8.9,0,.4,0,.7c.3,0,.5,0,.8,0s.6,0,.9,0Z"/>
    <path class="st2" d="M335.8,34.5c0-.2,0-.4,0-.7,0-.5.4-.9.8-.9s.8.4.8.9c0-.5.4-.9.8-.9s.8.4.8.9,0,.4,0,.6c8.4-1,15-8.6,15.3-18-.3,0-.7,0-1,0s-.4,0-.7,0c-.3,9-7.1,16.2-15.5,16.2s-15.2-7.3-15.5-16.4c-.5,0-1.1.2-1.7.2.3,9.5,7.1,17.2,15.6,18Z"/>
    <path class="st2" d="M337.5,34.6c0-.2,0-.5,0-.7,0,.2,0,.5,0,.7,0,0,0,0,0,0Z"/>
    <path class="st2" d="M321,14.9c-.5,0-.8.4-.8.9s0,.4,0,.7c.6,0,1.1,0,1.7-.2,0-.2,0-.3,0-.5,0-.5-.4-.9-.8-.9Z"/>
    <path class="st2" d="M354.5,16.5c0-.2,0-.4,0-.6,0-.5-.4-.9-.8-.9s-.8.4-.8.9,0,.4,0,.7c.2,0,.4,0,.7,0,.3,0,.7,0,1,0Z"/>
    <path class="st2" d="M370,34.5c0-.2,0-.4,0-.6,0-.5.4-.9.8-.9s.8.4.8.9c0-.5.4-.9.8-.9s.8.4.8.9,0,.4,0,.7c8.5-.9,15.2-8.6,15.5-18-.4,0-.8,0-1.2,0s-.3,0-.5,0c-.3,9-7.1,16.2-15.5,16.2s-15.3-7.3-15.5-16.5c-.5,0-1.1.2-1.7.2.3,9.4,7,17.1,15.4,18Z"/>
    <path class="st2" d="M371.6,34.6c0-.2,0-.5,0-.7,0,.2,0,.5,0,.7,0,0,0,0,0,0Z"/>
    <path class="st2" d="M355.3,14.9c-.5,0-.8.4-.8.9s0,.4,0,.6c.6,0,1.1-.1,1.7-.2,0-.1,0-.3,0-.4,0-.5-.4-.9-.8-.9Z"/>
    <path class="st2" d="M388.8,16.5c0-.2,0-.4,0-.6,0-.5-.4-.9-.8-.9s-.8.4-.8.9,0,.5,0,.7c.2,0,.3,0,.5,0,.4,0,.8,0,1.2,0Z"/>
    <path class="st2" d="M404.1,34.4c0-.2,0-.4,0-.6,0-.5.4-.9.8-.9s.8.4.8.9c0-.5.4-.9.8-.9s.8.4.8.9,0,.4,0,.7c8.6-.8,15.4-8.5,15.7-18-.4,0-.9,0-1.3,0s-.2,0-.3,0c-.3,9-7.1,16.2-15.5,16.2s-15.3-7.4-15.5-16.5c-.5.1-1.1.2-1.7.2.3,9.4,6.9,17,15.3,18Z"/>
    <path class="st2" d="M405.8,34.6c0-.2,0-.5,0-.7,0,.2,0,.5,0,.7,0,0,0,0,0,0Z"/>
    <path class="st2" d="M389.6,14.9c-.5,0-.8.4-.8.9s0,.4,0,.6c.6,0,1.1-.1,1.7-.2,0-.1,0-.3,0-.4,0-.5-.4-.9-.8-.9Z"/>
    <path class="st2" d="M423.1,16.5c0-.2,0-.4,0-.6,0-.5-.4-.9-.8-.9s-.8.4-.8.9,0,.5,0,.7c.1,0,.2,0,.3,0,.5,0,.9,0,1.3,0Z"/>
    <path class="st2" d="M439.9,34.6c0-.2,0-.5,0-.7,0,.2,0,.5,0,.7,0,0,0,0,0,0Z"/>
    <path class="st2" d="M438.2,34.4c0-.2,0-.4,0-.6,0-.5.4-.9.8-.9s.8.4.8.9c0-.5.4-.9.8-.9s.8.4.8.9,0,.5,0,.7c8.7-.7,15.6-8.5,15.9-18.1-.5,0-1,0-1.5,0s-.1,0-.2,0c-.3,9-7.1,16.2-15.5,16.2s-15.3-7.4-15.5-16.5c-.5.1-1.1.2-1.7.2.3,9.3,6.8,16.9,15.1,18Z"/>
    <path class="st2" d="M423.9,14.9c-.5,0-.8.4-.8.9s0,.4,0,.6c.6,0,1.1-.1,1.7-.2,0-.1,0-.3,0-.4,0-.5-.4-.9-.8-.9Z"/>
    <path class="st2" d="M457.4,16.4c0-.2,0-.4,0-.6,0-.5-.4-.9-.8-.9s-.8.4-.8.9,0,.5,0,.7c0,0,.1,0,.2,0,.5,0,1,0,1.5,0Z"/>
    <path class="st2" d="M464.7,31.2l-.8-3c-2.9-3-4.8-7.2-4.8-11.9-.5.1-1.1.2-1.7.3.2,6.1,3,11.4,7.3,14.7Z"/>
    <path class="st2" d="M458.2,14.9c-.5,0-.8.4-.8.9s0,.4,0,.6c.6,0,1.1-.1,1.7-.3,0-.1,0-.2,0-.4,0-.5-.4-.9-.8-.9Z"/>
    <path class="st2" d="M46.4,52c.3,0,.6.2.8.5,0,0,.1,0,.2,0,.1-.3.4-.5.8-.5s.6.2.7.5c8.6-.8,15.3-8.5,15.6-18-.5,0-1,0-1.6,0s0,0,0,0c-.4,9-7.1,16.2-15.4,16.2s-12.4-4.7-14.5-11.2l-.7,2.7c2.6,5.6,7.6,9.6,13.6,10.2.1-.3.4-.4.7-.4Z"/>
    <path class="st2" d="M64.5,34.5c0-.2,0-.4,0-.7,0-.5-.4-.9-.8-.9s-.8.4-.8.9,0,.5,0,.7c0,0,0,0,0,0,.5,0,1,0,1.6,0Z"/>
    <path class="st2" d="M79.9,52.5c.1-.3.4-.4.7-.4s.6.2.8.5c0,0,.1,0,.2,0,.1-.3.4-.5.8-.5s.6.2.7.5c8.5-.8,15.3-8.5,15.6-18-.5,0-.9,0-1.4,0s-.2,0-.3,0c-.4,9-7.1,16.2-15.4,16.2s-15.2-7.4-15.4-16.5c-.5.1-1.1.2-1.7.3.3,9.4,6.9,17.1,15.4,18Z"/>
    <path class="st2" d="M66.1,34.2c0-.1,0-.3,0-.4,0-.5-.4-.9-.8-.9s-.8.4-.8.9,0,.4,0,.7c.6,0,1.1-.1,1.7-.3Z"/>
    <path class="st2" d="M98.6,34.5c0-.2,0-.4,0-.7,0-.5-.4-.9-.8-.9s-.8.4-.8.9,0,.5,0,.7c0,0,.2,0,.3,0,.5,0,.9,0,1.4,0Z"/>
    <path class="st2" d="M114,52.5c.1-.3.4-.4.7-.4s.6.2.8.5c0,0,.1,0,.2,0,.1-.3.4-.5.8-.5s.6.2.7.5c8.5-.8,15.3-8.5,15.6-18-.4,0-.8,0-1.2,0s-.3,0-.5,0c-.3,9-7.1,16.2-15.4,16.2s-15.2-7.4-15.4-16.5c-.5.1-1.1.2-1.7.2.3,9.4,7,17.1,15.4,18Z"/>
    <path class="st2" d="M100.3,34.3c0-.1,0-.3,0-.4,0-.5-.4-.9-.8-.9s-.8.4-.8.9,0,.4,0,.7c.6,0,1.1-.1,1.7-.2Z"/>
    <path class="st2" d="M132.7,34.5c0-.2,0-.5,0-.7,0-.5-.4-.9-.8-.9s-.8.4-.8.9,0,.5,0,.7c.2,0,.3,0,.5,0,.4,0,.8,0,1.2,0Z"/>
    <path class="st2" d="M148.1,52.5c.1-.3.4-.4.7-.4s.6.2.8.5c0,0,.1,0,.2,0,.1-.3.4-.5.8-.5s.6.2.7.5c8.5-.8,15.3-8.5,15.6-18-.3,0-.7,0-1,0s-.4,0-.6,0c-.3,9-7.1,16.2-15.4,16.2s-15.2-7.3-15.4-16.4c-.5.1-1.1.2-1.7.2.3,9.4,7,17.1,15.4,18Z"/>
    <path class="st2" d="M134.4,34.3c0-.2,0-.3,0-.5,0-.5-.4-.9-.8-.9s-.8.4-.8.9,0,.5,0,.7c.6,0,1.1-.1,1.7-.2Z"/>
    <path class="st2" d="M166.8,34.5c0-.2,0-.5,0-.7,0-.5-.4-.9-.8-.9s-.8.4-.8.9,0,.5,0,.7c.2,0,.4,0,.6,0,.3,0,.7,0,1,0Z"/>
    <path class="st2" d="M182.2,52.5c.1-.3.4-.4.7-.4s.6.2.8.5c0,0,.1,0,.2,0,.1-.3.4-.5.8-.5s.6.2.7.5c8.5-.8,15.3-8.5,15.6-18-.3,0-.6,0-.9,0s-.5,0-.8,0c-.3,9-7.1,16.2-15.4,16.2s-15.2-7.3-15.4-16.4c-.5,0-1.1.2-1.7.2.3,9.4,7,17,15.4,17.9Z"/>
    <path class="st2" d="M168.5,34.3c0-.2,0-.3,0-.5,0-.5-.4-.9-.8-.9s-.8.4-.8.9,0,.5,0,.7c.6,0,1.1-.1,1.7-.2Z"/>
    <path class="st2" d="M201,34.5c0-.2,0-.5,0-.7,0-.5-.4-.9-.8-.9s-.8.4-.8.9,0,.5,0,.7c.3,0,.5,0,.8,0s.6,0,.9,0Z"/>
    <path class="st2" d="M216.4,52.5c.1-.3.4-.4.7-.4s.6.2.8.5c0,0,.1,0,.2,0,.1-.3.4-.5.8-.5s.6.2.7.5c8.5-.8,15.3-8.5,15.6-17.9-.2,0-.4,0-.7,0-.3,0-.7,0-1,0-.3,9-7.1,16.2-15.4,16.2s-15.1-7.3-15.4-16.4c-.5,0-1.1.1-1.7.2.3,9.4,7,17,15.4,17.9Z"/>
    <path class="st2" d="M202.6,34.4c0-.2,0-.4,0-.5,0-.5-.4-.9-.8-.9s-.8.4-.8.9,0,.5,0,.7c.6,0,1.1,0,1.7-.2Z"/>
    <path class="st2" d="M235.1,34.5c0-.2,0-.5,0-.7,0-.5-.4-.9-.8-.9s-.8.4-.8.9,0,.5,0,.7c.3,0,.7,0,1,0s.4,0,.7,0Z"/>
    <path class="st2" d="M250.5,52.5c.1-.3.4-.4.7-.4s.6.2.8.5c0,0,.1,0,.2,0,.1-.3.4-.5.8-.5s.6.2.7.5c8.5-.8,15.3-8.5,15.6-17.9-.2,0-.3,0-.5,0-.4,0-.8,0-1.2,0-.3,9-7.1,16.2-15.4,16.2s-15.1-7.3-15.4-16.4c-.5,0-1.1.1-1.7.2.3,9.4,7,17,15.4,17.9Z"/>
    <path class="st2" d="M236.8,34.4c0-.2,0-.4,0-.6,0-.5-.4-.9-.8-.9s-.8.4-.8.9,0,.5,0,.7c.6,0,1.1,0,1.7-.2Z"/>
    <path class="st2" d="M269.2,34.6c0-.2,0-.5,0-.7,0-.5-.4-.9-.8-.9s-.8.4-.8.9,0,.5,0,.7c.4,0,.8,0,1.2,0s.3,0,.5,0Z"/>
    <path class="st2" d="M284.6,52.5c.1-.3.4-.4.7-.4s.6.2.8.5c0,0,.1,0,.2,0,.1-.3.4-.5.8-.5s.6.2.7.5c8.5-.8,15.3-8.5,15.6-17.9-.1,0-.2,0-.3,0-.5,0-.9,0-1.3,0-.3,9-7.1,16.2-15.4,16.2s-15.1-7.3-15.4-16.3c-.5,0-1.1.1-1.7.1.3,9.4,7,17,15.4,17.9Z"/>
    <path class="st2" d="M270.9,34.4c0-.2,0-.4,0-.6,0-.5-.4-.9-.8-.9s-.8.4-.8.9,0,.5,0,.7c.6,0,1.1,0,1.7-.1Z"/>
    <path class="st2" d="M303.4,34.6c0-.2,0-.5,0-.7,0-.5-.4-.9-.8-.9s-.8.4-.8.9,0,.5,0,.7c.4,0,.9,0,1.3,0s.2,0,.3,0Z"/>
    <path class="st2" d="M318.8,52.5c.1-.3.4-.4.7-.4s.6.2.8.5c0,0,.1,0,.2,0,.1-.3.4-.5.8-.5s.6.2.7.5c8.5-.8,15.3-8.5,15.6-17.9,0,0,0,0-.1,0-.5,0-1,0-1.5,0-.3,9-7.1,16.3-15.4,16.3s-15.1-7.3-15.4-16.3c-.5,0-1.1.1-1.7.1.3,9.4,7,17,15.4,17.9Z"/>
    <path class="st2" d="M305,34.4c0-.2,0-.4,0-.6,0-.5-.4-.9-.8-.9s-.8.4-.8.9,0,.5,0,.7c.6,0,1.1,0,1.7-.1Z"/>
    <path class="st2" d="M337.5,34.6c0-.2,0-.5,0-.7,0-.5-.4-.9-.8-.9s-.8.4-.8.9,0,.4,0,.7c.5,0,1,0,1.5,0s0,0,.1,0Z"/>
    <path class="st2" d="M352.9,52.5c.1-.3.4-.4.7-.4s.6.2.8.5c0,0,.1,0,.2,0,.1-.3.4-.5.8-.5s.6.2.7.5c8.5-.8,15.3-8.5,15.6-17.9-.6,0-1.1,0-1.7,0-.3,9-7.1,16.3-15.4,16.3s-15.1-7.2-15.4-16.3c-.5,0-1.1,0-1.7.1.3,9.4,7,17,15.4,17.9Z"/>
    <path class="st2" d="M339.2,34.5c0-.2,0-.4,0-.6,0-.5-.4-.9-.8-.9s-.8.4-.8.9,0,.5,0,.7c.6,0,1.1,0,1.7-.1Z"/>
    <path class="st2" d="M371.6,33.8c0-.5-.4-.9-.8-.9s-.8.4-.8.9,0,.4,0,.6c.5,0,1.1,0,1.7,0,0-.2,0-.5,0-.7Z"/>
    <path class="st2" d="M371.6,34.6c.3,9.4,7,17,15.4,17.9.1-.3.4-.4.7-.4s.6.2.8.5c0,0,.1,0,.2,0,.1-.3.4-.5.8-.5s.6.2.7.5c8.5-.8,15.3-8.5,15.6-17.9-.6,0-1.1,0-1.7-.1-.3,9-7.1,16.3-15.4,16.3s-15.1-7.2-15.4-16.3c-.5,0-1.1,0-1.6,0s0,0,0,0Z"/>
    <path class="st2" d="M371.6,34.6c.6,0,1.1,0,1.6,0,0-.2,0-.4,0-.7,0-.5-.4-.9-.8-.9s-.8.4-.8.9,0,.5,0,.7c0,0,0,0,0,0Z"/>
    <path class="st2" d="M405.8,33.8c0-.5-.4-.9-.8-.9s-.8.4-.8.9,0,.4,0,.6c.5,0,1.1.1,1.7.1,0-.2,0-.5,0-.7Z"/>
    <path class="st2" d="M405.8,34.6c.3,9.4,7,17,15.4,17.9.1-.3.4-.4.7-.4s.6.2.8.5c0,0,.1,0,.2,0,.1-.3.4-.5.8-.5s.6.2.7.5c8.5-.8,15.3-8.5,15.6-17.9-.6,0-1.1,0-1.7-.1-.3,9-7.1,16.3-15.4,16.3s-15.1-7.2-15.4-16.2c-.5,0-1,0-1.5,0s-.1,0-.2,0Z"/>
    <path class="st2" d="M406,34.6c.5,0,1,0,1.5,0,0-.2,0-.4,0-.7,0-.5-.4-.9-.8-.9s-.8.4-.8.9,0,.5,0,.7c0,0,.1,0,.2,0Z"/>
    <path class="st2" d="M439.9,33.8c0-.5-.4-.9-.8-.9s-.8.4-.8.9,0,.4,0,.6c.5,0,1.1.1,1.7.1,0-.2,0-.5,0-.7Z"/>
    <path class="st2" d="M439.9,34.6c.3,9.4,7,17,15.4,17.9.1-.3.4-.4.7-.4s.6.2.8.5c0,0,.1,0,.2,0,.1-.3.4-.5.8-.5s.6.2.7.5c4.1-.4,7.9-2.4,10.6-5.4l-.5-2c-2.8,3.5-6.9,5.7-11.5,5.7-8.3,0-15.1-7.2-15.4-16.2-.4,0-.9,0-1.3,0s-.2,0-.4,0Z"/>
    <path class="st2" d="M440.7,32.9c-.5,0-.8.4-.8.9s0,.5,0,.7c.1,0,.2,0,.4,0,.4,0,.9,0,1.3,0,0-.2,0-.5,0-.7,0-.5-.4-.9-.8-.9Z"/>
    <path class="st2" d="M29.6,71.7c.2,0,.4,0,.6,0s0,0,0,0c.1-.1.3-.2.5-.2s.4,0,.5.2c8.9-.6,16-8.8,16-18.7s0-.3,0-.4c-.5,0-1,0-1.5,0,0,.1-.1.3-.1.5,0,9.3-6.9,16.9-15.4,16.9s-3.5-.4-5.1-1l-.5,1.8c1.3.5,2.6.8,4.1,1,.1,0,.3-.1.5-.1s.4,0,.5.2Z"/>
    <path class="st2" d="M46.4,52c-.3,0-.6.2-.7.4.5,0,1,0,1.5,0-.1-.3-.4-.5-.8-.5Z"/>
    <path class="st2" d="M64.3,71.7c.1-.1.3-.2.5-.2s.4,0,.5.2c8.9-.6,16-8.8,16-18.7s0-.3,0-.4c-.5,0-1,0-1.5,0,0,.1-.1.3-.1.5,0,9.3-6.9,16.9-15.4,16.9s-15.4-7.6-15.4-16.9,0-.3-.1-.4c-.5,0-.9,0-1.4,0s0,0,0,0c0,.1,0,.2,0,.4,0,9.8,6.8,17.8,15.5,18.7.1,0,.3-.1.5-.1s.4,0,.5.2c.2,0,.4,0,.6,0s0,0,0,0Z"/>
    <path class="st2" d="M48.8,52.5c-.1-.3-.4-.5-.7-.5s-.6.2-.8.5c0,0,0,0,0,0,.5,0,1,0,1.4,0Z"/>
    <path class="st2" d="M80.6,52c-.3,0-.6.2-.7.4.5,0,1,0,1.5,0-.1-.3-.4-.5-.8-.5Z"/>
    <path class="st2" d="M98.5,71.7c.1-.1.3-.2.5-.2s.4,0,.5.2c8.9-.6,16-8.8,16-18.7s0-.3,0-.4c-.5,0-1,0-1.5,0,0,.1-.1.3-.1.5,0,9.3-6.9,16.9-15.4,16.9s-15.4-7.6-15.4-16.9,0-.3-.1-.4c-.5,0-.9,0-1.4,0s0,0,0,0c0,.1,0,.2,0,.4,0,9.8,6.8,17.8,15.5,18.7.1,0,.3-.1.5-.1s.4,0,.5.2c.2,0,.4,0,.6,0s0,0,0,0Z"/>
    <path class="st2" d="M82.9,52.5c-.1-.3-.4-.5-.7-.5s-.6.2-.8.5c0,0,0,0,0,0,.5,0,1,0,1.4,0Z"/>
    <path class="st2" d="M114.7,52c-.3,0-.6.2-.7.4.5,0,1,0,1.5,0-.1-.3-.4-.5-.8-.5Z"/>
    <path class="st2" d="M131,71.6c.1,0,.3-.1.5-.1s.4,0,.5.2c.2,0,.4,0,.6,0s0,0,0,0c.1-.1.3-.2.5-.2s.4,0,.5.2c8.9-.6,16-8.8,16-18.7s0-.3,0-.4c-.5,0-1,0-1.5,0,0,.1-.1.3-.1.5,0,9.3-6.9,16.9-15.4,16.9s-15.4-7.6-15.4-16.9,0-.3-.1-.4c-.5,0-.9,0-1.4,0s0,0,0,0c0,.1,0,.2,0,.4,0,9.8,6.8,17.8,15.5,18.7Z"/>
    <path class="st2" d="M117.1,52.5c-.1-.3-.4-.5-.7-.5s-.6.2-.8.5c0,0,0,0,0,0,.5,0,1,0,1.4,0Z"/>
    <path class="st2" d="M148.8,52c-.3,0-.6.2-.7.4.5,0,1,0,1.5,0-.1-.3-.4-.5-.8-.5Z"/>
    <path class="st2" d="M165.2,71.6c.1,0,.3-.1.5-.1s.4,0,.5.2c.2,0,.4,0,.6,0s0,0,0,0c.1-.1.3-.2.5-.2s.4,0,.5.2c8.9-.6,16-8.8,16-18.7s0-.3,0-.4c-.5,0-1,0-1.5,0,0,.1-.1.3-.1.5,0,9.3-6.9,16.9-15.4,16.9s-15.4-7.6-15.4-16.9,0-.3-.1-.4c-.5,0-.9,0-1.4,0s0,0,0,0c0,.1,0,.2,0,.4,0,9.8,6.8,17.8,15.5,18.7Z"/>
    <path class="st2" d="M151.2,52.5c-.1-.3-.4-.5-.7-.5s-.6.2-.8.5c0,0,0,0,0,0,.5,0,1,0,1.4,0Z"/>
    <path class="st2" d="M183,52c-.3,0-.6.2-.7.4.5,0,1,0,1.5,0-.1-.3-.4-.5-.8-.5Z"/>
    <path class="st2" d="M199.3,71.6c.1,0,.3-.1.5-.1s.4,0,.5.2c.2,0,.4,0,.6,0s0,0,0,0c.1-.1.3-.2.5-.2s.4,0,.5.2c8.9-.6,16-8.8,16-18.7s0-.3,0-.4c-.5,0-1,0-1.5,0,0,.1-.1.3-.1.5,0,9.3-6.9,16.9-15.4,16.9s-15.4-7.6-15.4-16.9,0-.3-.1-.4c-.5,0-.9,0-1.4,0s0,0,0,0c0,.1,0,.2,0,.4,0,9.8,6.8,17.8,15.5,18.7Z"/>
    <path class="st2" d="M185.3,52.5c-.1-.3-.4-.5-.7-.5s-.6.2-.8.5c0,0,0,0,0,0,.5,0,1,0,1.4,0Z"/>
    <path class="st2" d="M217.1,52c-.3,0-.6.2-.7.4.5,0,1,0,1.5,0-.1-.3-.4-.5-.8-.5Z"/>
    <path class="st2" d="M233.4,71.6c.1,0,.3-.1.5-.1s.4,0,.5.2c.2,0,.4,0,.6,0s0,0,0,0c.1-.1.3-.2.5-.2s.4,0,.5.2c8.9-.6,16-8.8,16-18.7s0-.3,0-.4c-.5,0-1,0-1.5,0,0,.1-.1.3-.1.5,0,9.3-6.9,16.9-15.4,16.9s-15.4-7.6-15.4-16.9,0-.3-.1-.4c-.5,0-.9,0-1.4,0s0,0,0,0c0,.1,0,.2,0,.4,0,9.8,6.8,17.8,15.5,18.7Z"/>
    <path class="st2" d="M219.5,52.5c-.1-.3-.4-.5-.7-.5s-.6.2-.8.5c0,0,0,0,0,0,.5,0,1,0,1.4,0Z"/>
    <path class="st2" d="M251.2,52c-.3,0-.6.2-.7.4.5,0,1,0,1.5,0-.1-.3-.4-.5-.8-.5Z"/>
    <path class="st2" d="M267.5,71.6c.1,0,.3-.1.5-.1s.4,0,.5.2c.2,0,.4,0,.6,0s0,0,0,0c.1-.1.3-.2.5-.2s.4,0,.5.2c8.9-.6,16-8.8,16-18.7s0-.3,0-.4c-.5,0-1,0-1.5,0,0,.1-.1.3-.1.5,0,9.3-6.9,16.9-15.4,16.9s-15.4-7.6-15.4-16.9,0-.3-.1-.4c-.5,0-.9,0-1.4,0s0,0,0,0c0,.1,0,.2,0,.4,0,9.8,6.8,17.8,15.5,18.7Z"/>
    <path class="st2" d="M253.6,52.5c-.1-.3-.4-.5-.7-.5s-.6.2-.8.5c0,0,0,0,0,0,.5,0,1,0,1.4,0Z"/>
    <path class="st2" d="M285.3,52c-.3,0-.6.2-.7.4.5,0,1,0,1.5,0-.1-.3-.4-.5-.8-.5Z"/>
    <path class="st2" d="M301.7,71.6c.1,0,.3-.1.5-.1s.4,0,.5.2c.2,0,.4,0,.6,0s0,0,0,0c.1-.1.3-.2.5-.2s.4,0,.5.2c8.9-.6,16-8.8,16-18.7s0-.3,0-.4c-.5,0-1,0-1.5,0,0,.1-.1.3-.1.5,0,9.3-6.9,16.9-15.4,16.9s-15.4-7.6-15.4-16.9,0-.3-.1-.4c-.5,0-.9,0-1.4,0s0,0,0,0c0,.1,0,.2,0,.4,0,9.8,6.8,17.8,15.5,18.7Z"/>
    <path class="st2" d="M287.7,52.5c-.1-.3-.4-.5-.7-.5s-.6.2-.8.5c0,0,0,0,0,0,.5,0,1,0,1.4,0Z"/>
    <path class="st2" d="M319.5,52c-.3,0-.6.2-.7.4.5,0,1,0,1.5,0-.1-.3-.4-.5-.8-.5Z"/>
    <path class="st2" d="M335.8,71.6c.1,0,.3-.1.5-.1s.4,0,.5.2c.2,0,.4,0,.6,0s0,0,0,0c.1-.1.3-.2.5-.2s.4,0,.5.2c8.9-.6,16-8.8,16-18.7s0-.3,0-.4c-.5,0-1,0-1.5,0,0,.1-.1.3-.1.5,0,9.3-6.9,16.9-15.4,16.9s-15.4-7.6-15.4-16.9,0-.3-.1-.4c-.5,0-.9,0-1.4,0s0,0,0,0c0,.1,0,.2,0,.4,0,9.8,6.8,17.8,15.5,18.7Z"/>
    <path class="st2" d="M321.9,52.5c-.1-.3-.4-.5-.7-.5s-.6.2-.8.5c0,0,0,0,0,0,.5,0,1,0,1.4,0Z"/>
    <path class="st2" d="M353.6,52c-.3,0-.6.2-.7.4.5,0,1,0,1.5,0-.1-.3-.4-.5-.8-.5Z"/>
    <path class="st2" d="M369.9,71.6c.1,0,.3-.1.5-.1s.4,0,.5.2c.2,0,.4,0,.6,0s0,0,0,0c.1-.1.3-.2.5-.2s.4,0,.5.2c8.9-.6,16-8.8,16-18.7s0-.3,0-.4c-.5,0-1,0-1.5,0,0,.1-.1.3-.1.5,0,9.3-6.9,16.9-15.4,16.9s-15.4-7.6-15.4-16.9,0-.3-.1-.4c-.5,0-.9,0-1.4,0s0,0,0,0c0,.1,0,.2,0,.4,0,9.8,6.8,17.8,15.5,18.7Z"/>
    <path class="st2" d="M356,52.5c-.1-.3-.4-.5-.7-.5s-.6.2-.8.5c0,0,0,0,0,0,.5,0,1,0,1.4,0Z"/>
    <path class="st2" d="M387.7,52c-.3,0-.6.2-.7.4.5,0,1,0,1.5,0-.1-.3-.4-.5-.8-.5Z"/>
    <path class="st2" d="M404.1,71.6c.1,0,.3-.1.5-.1s.4,0,.5.2c.2,0,.4,0,.6,0s0,0,0,0c.1-.1.3-.2.5-.2s.4,0,.5.2c8.9-.6,16-8.8,16-18.7s0-.3,0-.4c-.5,0-1,0-1.5,0,0,.1-.1.3-.1.5,0,9.3-6.9,16.9-15.4,16.9s-15.4-7.6-15.4-16.9,0-.3-.1-.4c-.5,0-.9,0-1.4,0s0,0,0,0c0,.1,0,.2,0,.4,0,9.8,6.8,17.8,15.5,18.7Z"/>
    <path class="st2" d="M390.1,52.5c-.1-.3-.4-.5-.7-.5s-.6.2-.8.5c0,0,0,0,0,0,.5,0,1,0,1.4,0Z"/>
    <path class="st2" d="M421.9,52c-.3,0-.6.2-.7.4.5,0,1,0,1.5,0-.1-.3-.4-.5-.8-.5Z"/>
    <path class="st2" d="M439.8,69.9c-8.5,0-15.4-7.6-15.4-16.9s0-.3-.1-.4c-.5,0-.9,0-1.4,0s0,0,0,0c0,.1,0,.2,0,.4,0,9.8,6.8,17.8,15.5,18.7.1,0,.3-.1.5-.1s.4,0,.5.2c.2,0,.4,0,.6,0s0,0,0,0c.1-.1.3-.2.5-.2s.4,0,.5.2c8.9-.6,16-8.8,16-18.7s0-.3,0-.4c-.5,0-1,0-1.5,0,0,.1-.1.3-.1.5,0,9.3-6.9,16.9-15.4,16.9Z"/>
    <path class="st2" d="M424.2,52.5c-.1-.3-.4-.5-.7-.5s-.6.2-.8.5c0,0,0,0,0,0,.5,0,1,0,1.4,0Z"/>
    <path class="st2" d="M456,52c-.3,0-.6.2-.7.4.5,0,1,0,1.5,0-.1-.3-.4-.5-.8-.5Z"/>
    <path class="st2" d="M456.9,52.6c0,.1,0,.2,0,.4,0,9.8,6.8,17.8,15.5,18.7.1,0,.3-.1.5-.1s.4,0,.5.2c.2,0,.4,0,.6,0s0,0,0,0c.1-.1.3-.2.5-.2s.4,0,.5.2c.2,0,.4,0,.6,0l-.5-1.8c-.4,0-.8,0-1.2,0-8.5,0-15.4-7.6-15.4-16.9s0-.3-.1-.4c-.5,0-.9,0-1.4,0s0,0,0,0Z"/>
    <path class="st2" d="M457.6,52c-.3,0-.6.2-.8.5,0,0,0,0,0,0,.5,0,1,0,1.4,0-.1-.3-.4-.5-.7-.5Z"/>
    <path class="st2" d="M28.6,71.6c-.2.2-.4.4-.4.8,0,6.4-3.3,12-8.1,14.9l-.6,2.4c6.1-2.9,10.4-9.5,10.4-17.2s-.1-.5-.3-.7c-.3,0-.7,0-1,0Z"/>
    <path class="st2" d="M29.1,71.4c-.2,0-.3,0-.5.1.3,0,.7,0,1,0-.1-.1-.3-.2-.5-.2Z"/>
    <path class="st2" d="M49.4,90.9c8.3-1.3,14.7-9.1,14.7-18.6s-.1-.5-.3-.7c-.3,0-.7,0-1,0-.2.2-.4.4-.4.8,0,9.3-6.9,16.9-15.4,16.9s-15.4-7.6-15.4-16.9-.1-.6-.3-.7c-.3,0-.7,0-1.1,0-.2.2-.3.4-.3.7,0,10.3,7.7,18.7,17.1,18.7s1.1,0,1.7,0c.1,0,.3-.1.4-.1s.2,0,.3,0Z"/>
    <path class="st2" d="M30.2,71.7c.4,0,.7,0,1.1,0-.1-.1-.3-.2-.5-.2s-.4,0-.5.2Z"/>
    <path class="st2" d="M62.8,71.6c.3,0,.7,0,1,0-.1-.1-.3-.2-.5-.2s-.3,0-.5.1Z"/>
    <path class="st2" d="M81.1,91.1c.6,0,1.1,0,1.7,0,.1,0,.3-.1.4-.1s.2,0,.3,0c8.3-1.3,14.7-9.1,14.7-18.6s-.1-.5-.3-.7c-.3,0-.7,0-1,0-.2.2-.4.4-.4.8,0,9.3-6.9,16.9-15.4,16.9s-15.4-7.6-15.4-16.9-.1-.6-.3-.7c-.3,0-.7,0-1.1,0-.2.2-.3.4-.3.7,0,10.3,7.7,18.7,17.1,18.7Z"/>
    <path class="st2" d="M64.3,71.7c.4,0,.7,0,1.1,0-.1-.1-.3-.2-.5-.2s-.4,0-.5.2Z"/>
    <path class="st2" d="M96.9,71.6c.3,0,.7,0,1,0-.1-.1-.3-.2-.5-.2s-.3,0-.5.1Z"/>
    <path class="st2" d="M115.3,91.1c.6,0,1.1,0,1.7,0,.1,0,.3-.1.4-.1s.2,0,.3,0c8.3-1.3,14.7-9.1,14.7-18.6s-.1-.5-.3-.7c-.3,0-.7,0-1,0-.2.2-.4.4-.4.8,0,9.3-6.9,16.9-15.4,16.9s-15.4-7.6-15.4-16.9-.1-.6-.3-.7c-.3,0-.7,0-1.1,0-.2.2-.3.4-.3.7,0,10.3,7.7,18.7,17.1,18.7Z"/>
    <path class="st2" d="M98.5,71.7c.4,0,.7,0,1.1,0-.1-.1-.3-.2-.5-.2s-.4,0-.5.2Z"/>
    <path class="st2" d="M131,71.6c.3,0,.7,0,1,0-.1-.1-.3-.2-.5-.2s-.3,0-.5.1Z"/>
    <path class="st2" d="M166.4,72.4c0-.3-.1-.5-.3-.7-.3,0-.7,0-1,0-.2.2-.4.4-.4.8,0,9.3-6.9,16.9-15.4,16.9s-15.4-7.6-15.4-16.9-.1-.6-.3-.7c-.3,0-.7,0-1.1,0-.2.2-.3.4-.3.7,0,10.3,7.7,18.7,17.1,18.7s1.1,0,1.7,0c.1,0,.3-.1.4-.1s.2,0,.3,0c8.3-1.3,14.7-9.1,14.7-18.6Z"/>
    <path class="st2" d="M133.1,71.4c-.2,0-.4,0-.5.2.4,0,.7,0,1.1,0-.1-.1-.3-.2-.5-.2Z"/>
    <path class="st2" d="M165.6,71.4c-.2,0-.3,0-.5.1.3,0,.7,0,1,0-.1-.1-.3-.2-.5-.2Z"/>
    <path class="st2" d="M200.6,72.4c0-.3-.1-.5-.3-.7-.3,0-.7,0-1,0-.2.2-.4.4-.4.8,0,9.3-6.9,16.9-15.4,16.9s-15.4-7.6-15.4-16.9-.1-.6-.3-.7c-.3,0-.7,0-1.1,0-.2.2-.3.4-.3.7,0,10.3,7.7,18.7,17.1,18.7s1.1,0,1.7,0c.1,0,.3-.1.4-.1s.2,0,.3,0c8.3-1.3,14.7-9.1,14.7-18.6Z"/>
    <path class="st2" d="M167.3,71.4c-.2,0-.4,0-.5.2.4,0,.7,0,1.1,0-.1-.1-.3-.2-.5-.2Z"/>
    <path class="st2" d="M199.7,71.4c-.2,0-.3,0-.5.1.3,0,.7,0,1,0-.1-.1-.3-.2-.5-.2Z"/>
    <path class="st2" d="M234.7,72.4c0-.3-.1-.5-.3-.7-.3,0-.7,0-1,0-.2.2-.4.4-.4.8,0,9.3-6.9,16.9-15.4,16.9s-15.4-7.6-15.4-16.9-.1-.6-.3-.7c-.3,0-.7,0-1.1,0-.2.2-.3.4-.3.7,0,10.3,7.7,18.7,17.1,18.7s1.1,0,1.7,0c.1,0,.3-.1.4-.1s.2,0,.3,0c8.3-1.3,14.7-9.1,14.7-18.6Z"/>
    <path class="st2" d="M201.4,71.4c-.2,0-.4,0-.5.2.4,0,.7,0,1.1,0-.1-.1-.3-.2-.5-.2Z"/>
    <path class="st2" d="M233.9,71.4c-.2,0-.3,0-.5.1.3,0,.7,0,1,0-.1-.1-.3-.2-.5-.2Z"/>
    <path class="st2" d="M268.8,72.4c0-.3-.1-.5-.3-.7-.3,0-.7,0-1,0-.2.2-.4.4-.4.8,0,9.3-6.9,16.9-15.4,16.9s-15.4-7.6-15.4-16.9-.1-.6-.3-.7c-.3,0-.7,0-1.1,0-.2.2-.3.4-.3.7,0,10.3,7.7,18.7,17.1,18.7s1.1,0,1.7,0c.1,0,.3-.1.4-.1s.2,0,.3,0c8.3-1.3,14.7-9.1,14.7-18.6Z"/>
    <path class="st2" d="M235.5,71.4c-.2,0-.4,0-.5.2.4,0,.7,0,1.1,0-.1-.1-.3-.2-.5-.2Z"/>
    <path class="st2" d="M268,71.4c-.2,0-.3,0-.5.1.3,0,.7,0,1,0-.1-.1-.3-.2-.5-.2Z"/>
    <path class="st2" d="M303,72.4c0-.3-.1-.5-.3-.7-.3,0-.7,0-1,0-.2.2-.4.4-.4.8,0,9.3-6.9,16.9-15.4,16.9s-15.4-7.6-15.4-16.9-.1-.6-.3-.7c-.3,0-.7,0-1.1,0-.2.2-.3.4-.3.7,0,10.3,7.7,18.7,17.1,18.7s1.1,0,1.7,0c.1,0,.3-.1.4-.1s.2,0,.3,0c8.3-1.3,14.7-9.1,14.7-18.6Z"/>
    <path class="st2" d="M269.7,71.4c-.2,0-.4,0-.5.2.4,0,.7,0,1.1,0-.1-.1-.3-.2-.5-.2Z"/>
    <path class="st2" d="M302.1,71.4c-.2,0-.3,0-.5.1.3,0,.7,0,1,0-.1-.1-.3-.2-.5-.2Z"/>
    <path class="st2" d="M337.1,72.4c0-.3-.1-.5-.3-.7-.3,0-.7,0-1,0-.2.2-.4.4-.4.8,0,9.3-6.9,16.9-15.4,16.9s-15.4-7.6-15.4-16.9-.1-.6-.3-.7c-.3,0-.7,0-1.1,0-.2.2-.3.4-.3.7,0,10.3,7.7,18.7,17.1,18.7s1.1,0,1.7,0c.1,0,.3-.1.4-.1s.2,0,.3,0c8.3-1.3,14.7-9.1,14.7-18.6Z"/>
    <path class="st2" d="M303.8,71.4c-.2,0-.4,0-.5.2.4,0,.7,0,1.1,0-.1-.1-.3-.2-.5-.2Z"/>
    <path class="st2" d="M336.3,71.4c-.2,0-.3,0-.5.1.3,0,.7,0,1,0-.1-.1-.3-.2-.5-.2Z"/>
    <path class="st2" d="M371.2,72.4c0-.3-.1-.5-.3-.7-.3,0-.7,0-1,0-.2.2-.4.4-.4.8,0,9.3-6.9,16.9-15.4,16.9s-15.4-7.6-15.4-16.9-.1-.6-.3-.7c-.3,0-.7,0-1.1,0-.2.2-.3.4-.3.7,0,10.3,7.7,18.7,17.1,18.7s1.1,0,1.7,0c.1,0,.3-.1.4-.1s.2,0,.3,0c8.3-1.3,14.7-9.1,14.7-18.6Z"/>
    <path class="st2" d="M337.9,71.4c-.2,0-.4,0-.5.2.4,0,.7,0,1.1,0-.1-.1-.3-.2-.5-.2Z"/>
    <path class="st2" d="M370.4,71.4c-.2,0-.3,0-.5.1.3,0,.7,0,1,0-.1-.1-.3-.2-.5-.2Z"/>
    <path class="st2" d="M404.1,71.6c-.2.2-.4.4-.4.8,0,9.3-6.9,16.9-15.4,16.9s-15.4-7.6-15.4-16.9-.1-.6-.3-.7c-.3,0-.7,0-1.1,0-.2.2-.3.4-.3.7,0,10.3,7.7,18.7,17.1,18.7s1.1,0,1.7,0c.1,0,.3-.1.4-.1s.2,0,.3,0c8.3-1.3,14.7-9.1,14.7-18.6s-.1-.5-.3-.7c-.3,0-.7,0-1,0Z"/>
    <path class="st2" d="M372,71.4c-.2,0-.4,0-.5.2.4,0,.7,0,1.1,0-.1-.1-.3-.2-.5-.2Z"/>
    <path class="st2" d="M404.5,71.4c-.2,0-.3,0-.5.1.3,0,.7,0,1,0-.1-.1-.3-.2-.5-.2Z"/>
    <path class="st2" d="M438.2,71.6c-.2.2-.4.4-.4.8,0,9.3-6.9,16.9-15.4,16.9s-15.4-7.6-15.4-16.9-.1-.6-.3-.7c-.3,0-.7,0-1.1,0-.2.2-.3.4-.3.7,0,10.3,7.7,18.7,17.1,18.7s1.1,0,1.7,0c.1,0,.3-.1.4-.1s.2,0,.3,0c8.3-1.3,14.7-9.1,14.7-18.6s-.1-.5-.3-.7c-.3,0-.7,0-1,0Z"/>
    <path class="st2" d="M405.6,71.7c.4,0,.7,0,1.1,0-.1-.1-.3-.2-.5-.2s-.4,0-.5.2Z"/>
    <path class="st2" d="M438.6,71.4c-.2,0-.3,0-.5.1.3,0,.7,0,1,0-.1-.1-.3-.2-.5-.2Z"/>
    <path class="st2" d="M472.3,71.6c-.2.2-.4.4-.4.8,0,9.3-6.9,16.9-15.4,16.9s-15.4-7.6-15.4-16.9-.1-.6-.3-.7c-.3,0-.7,0-1.1,0-.2.2-.3.4-.3.7,0,10.3,7.7,18.7,17.1,18.7s1.1,0,1.7,0c.1,0,.3-.1.4-.1s.2,0,.3,0c8.3-1.3,14.7-9.1,14.7-18.6s-.1-.5-.3-.7c-.3,0-.7,0-1,0Z"/>
    <path class="st2" d="M439.8,71.7c.4,0,.7,0,1.1,0-.1-.1-.3-.2-.5-.2s-.4,0-.5.2Z"/>
    <path class="st2" d="M472.8,71.4c-.2,0-.3,0-.5.1.3,0,.7,0,1,0-.1-.1-.3-.2-.5-.2Z"/>
    <path class="st2" d="M473.6,72.4c0,5.7,2.3,10.8,6,14.2l-1-3.8c-2.1-2.9-3.3-6.5-3.3-10.4s-.1-.6-.3-.7c-.3,0-.7,0-1.1,0-.2.2-.3.4-.3.7Z"/>
    <path class="st2" d="M473.9,71.7c.4,0,.7,0,1.1,0-.1-.1-.3-.2-.5-.2s-.4,0-.5.2Z"/>
    <path class="st2" d="M31.8,109.5c.5,0,.8.4.8.9,0-.5.4-.9.8-.9s.8.4.8.9,0,0,0,0c8.8-.8,15.7-8.9,15.7-18.7s-.2-.7-.6-.9c-.2,0-.5,0-.7,0-.2.2-.4.4-.4.8,0,9.3-6.9,16.9-15.4,16.9s-13.4-5.6-15-13l-.8,3.1c2.3,6.2,7.6,10.8,13.9,11.6,0-.5.4-.9.8-.9Z"/>
    <path class="st2" d="M32.6,110.4s0,0,0,0h0s0,0,0,0Z"/>
    <path class="st2" d="M49.1,90.9c-.2,0-.3,0-.4.1.2,0,.5,0,.7,0,0,0-.2,0-.3,0Z"/>
    <path class="st2" d="M65.1,110.4c0-.5.4-.9.8-.9s.8.4.8.9c0-.5.4-.9.8-.9s.8.4.8.9,0,0,0,0c8.8-.8,15.7-8.9,15.7-18.7s-.2-.7-.6-.9c-.2,0-.5,0-.7,0-.2.2-.4.4-.4.8,0,9.3-6.9,16.9-15.4,16.9s-15.4-7.6-15.4-16.9-.4-.9-.8-.9-.8.4-.8.9c0,9.6,6.6,17.6,15.1,18.6Z"/>
    <path class="st2" d="M66.7,110.5h0s0,0,0,0c0,0,0,0,0,0Z"/>
    <path class="st2" d="M82.8,91c.2,0,.5,0,.7,0,0,0-.2,0-.3,0-.2,0-.3,0-.4.1Z"/>
    <path class="st2" d="M118.2,91.8c0-.4-.2-.7-.6-.9-.2,0-.5,0-.7,0-.2.2-.4.4-.4.8,0,9.3-6.9,16.9-15.4,16.9s-15.4-7.6-15.4-16.9-.4-.9-.8-.9-.8.4-.8.9c0,9.6,6.6,17.6,15.1,18.6,0-.5.4-.9.8-.9s.8.4.8.9c0-.5.4-.9.8-.9s.8.4.8.9,0,0,0,0c8.8-.8,15.7-8.9,15.7-18.7Z"/>
    <path class="st2" d="M100.9,110.5h0s0,0,0,0c0,0,0,0,0,0Z"/>
    <path class="st2" d="M116.9,91c.2,0,.5,0,.7,0,0,0-.2,0-.3,0-.2,0-.3,0-.4.1Z"/>
    <path class="st2" d="M135,110.5h0s0,0,0,0c0,0,0,0,0,0Z"/>
    <path class="st2" d="M152.3,91.8c0-.4-.2-.7-.6-.9-.2,0-.5,0-.7,0-.2.2-.4.4-.4.8,0,9.3-6.9,16.9-15.4,16.9s-15.4-7.6-15.4-16.9-.4-.9-.8-.9-.8.4-.8.9c0,9.6,6.6,17.6,15.1,18.6,0-.5.4-.9.8-.9s.8.4.8.9c0-.5.4-.9.8-.9s.8.4.8.9,0,0,0,0c8.8-.8,15.7-8.9,15.7-18.7Z"/>
    <path class="st2" d="M151.1,91c.2,0,.5,0,.7,0,0,0-.2,0-.3,0-.2,0-.3,0-.4.1Z"/>
    <path class="st2" d="M169.1,110.5h0s0,0,0,0c0,0,0,0,0,0Z"/>
    <path class="st2" d="M186.5,91.8c0-.4-.2-.7-.6-.9-.2,0-.5,0-.7,0-.2.2-.4.4-.4.8,0,9.3-6.9,16.9-15.4,16.9s-15.4-7.6-15.4-16.9-.4-.9-.8-.9-.8.4-.8.9c0,9.6,6.6,17.6,15.1,18.6,0-.5.4-.9.8-.9s.8.4.8.9c0-.5.4-.9.8-.9s.8.4.8.9,0,0,0,0c8.8-.8,15.7-8.9,15.7-18.7Z"/>
    <path class="st2" d="M185.2,91c.2,0,.5,0,.7,0,0,0-.2,0-.3,0-.2,0-.3,0-.4.1Z"/>
    <path class="st2" d="M203.3,110.5h0s0,0,0,0c0,0,0,0,0,0Z"/>
    <path class="st2" d="M220.6,91.8c0-.4-.2-.7-.6-.9-.2,0-.5,0-.7,0-.2.2-.4.4-.4.8,0,9.3-6.9,16.9-15.4,16.9s-15.4-7.6-15.4-16.9-.4-.9-.8-.9-.8.4-.8.9c0,9.6,6.6,17.6,15.1,18.6,0-.5.4-.9.8-.9s.8.4.8.9c0-.5.4-.9.8-.9s.8.4.8.9,0,0,0,0c8.8-.8,15.7-8.9,15.7-18.7Z"/>
    <path class="st2" d="M219.3,91c.2,0,.5,0,.7,0,0,0-.2,0-.3,0-.2,0-.3,0-.4.1Z"/>
    <path class="st2" d="M237.4,110.5h0s0,0,0,0c0,0,0,0,0,0Z"/>
    <path class="st2" d="M254.7,91.8c0-.4-.2-.7-.6-.9-.2,0-.5,0-.7,0-.2.2-.4.4-.4.8,0,9.3-6.9,16.9-15.4,16.9s-15.4-7.6-15.4-16.9-.4-.9-.8-.9-.8.4-.8.9c0,9.6,6.6,17.6,15.1,18.6,0-.5.4-.9.8-.9s.8.4.8.9c0-.5.4-.9.8-.9s.8.4.8.9,0,0,0,0c8.8-.8,15.7-8.9,15.7-18.7Z"/>
    <path class="st2" d="M253.5,91c.2,0,.5,0,.7,0,0,0-.2,0-.3,0-.2,0-.3,0-.4.1Z"/>
    <path class="st2" d="M288.8,91.8c0-.4-.2-.7-.6-.9-.2,0-.5,0-.7,0-.2.2-.4.4-.4.8,0,9.3-6.9,16.9-15.4,16.9s-15.4-7.6-15.4-16.9-.4-.9-.8-.9-.8.4-.8.9c0,9.6,6.6,17.6,15.1,18.6,0-.5.4-.9.8-.9s.8.4.8.9c0-.5.4-.9.8-.9s.8.4.8.9,0,0,0,0c8.8-.8,15.7-8.9,15.7-18.7Z"/>
    <path class="st2" d="M271.5,110.5h0s0,0,0,0c0,0,0,0,0,0Z"/>
    <path class="st2" d="M287.6,91c.2,0,.5,0,.7,0,0,0-.2,0-.3,0-.2,0-.3,0-.4.1Z"/>
    <path class="st2" d="M323,91.8c0-.4-.2-.7-.6-.9-.2,0-.5,0-.7,0-.2.2-.4.4-.4.8,0,9.3-6.9,16.9-15.4,16.9s-15.4-7.6-15.4-16.9-.4-.9-.8-.9-.8.4-.8.9c0,9.6,6.6,17.6,15.1,18.6,0-.5.4-.9.8-.9s.8.4.8.9c0-.5.4-.9.8-.9s.8.4.8.9,0,0,0,0c8.8-.8,15.7-8.9,15.7-18.7Z"/>
    <path class="st2" d="M305.6,110.5h0s0,0,0,0c0,0,0,0,0,0Z"/>
    <path class="st2" d="M321.7,91c.2,0,.5,0,.7,0,0,0-.2,0-.3,0-.2,0-.3,0-.4.1Z"/>
    <path class="st2" d="M339.8,110.5h0s0,0,0,0c0,0,0,0,0,0Z"/>
    <path class="st2" d="M357.1,91.8c0-.4-.2-.7-.6-.9-.2,0-.5,0-.7,0-.2.2-.4.4-.4.8,0,9.3-6.9,16.9-15.4,16.9s-15.4-7.6-15.4-16.9-.4-.9-.8-.9-.8.4-.8.9c0,9.6,6.6,17.6,15.1,18.6,0-.5.4-.9.8-.9s.8.4.8.9c0-.5.4-.9.8-.9s.8.4.8.9,0,0,0,0c8.8-.8,15.7-8.9,15.7-18.7Z"/>
    <path class="st2" d="M355.8,91c.2,0,.5,0,.7,0,0,0-.2,0-.3,0-.2,0-.3,0-.4.1Z"/>
    <path class="st2" d="M391.2,91.8c0-.4-.2-.7-.6-.9-.2,0-.5,0-.7,0-.2.2-.4.4-.4.8,0,9.3-6.9,16.9-15.4,16.9s-15.4-7.6-15.4-16.9-.4-.9-.8-.9-.8.4-.8.9c0,9.6,6.6,17.6,15.1,18.6,0-.5.4-.9.8-.9s.8.4.8.9c0-.5.4-.9.8-.9s.8.4.8.9,0,0,0,0c8.8-.8,15.7-8.9,15.7-18.7Z"/>
    <path class="st2" d="M373.9,110.5h0s0,0,0,0c0,0,0,0,0,0Z"/>
    <path class="st2" d="M390,91c.2,0,.5,0,.7,0,0,0-.2,0-.3,0-.2,0-.3,0-.4.1Z"/>
    <path class="st2" d="M408,110.5h0s0,0,0,0c0,0,0,0,0,0Z"/>
    <path class="st2" d="M424.8,90.9c-.2,0-.5,0-.7,0-.2.2-.4.4-.4.8,0,9.3-6.9,16.9-15.4,16.9s-15.4-7.6-15.4-16.9-.4-.9-.8-.9-.8.4-.8.9c0,9.6,6.6,17.6,15.1,18.6,0-.5.4-.9.8-.9s.8.4.8.9c0-.5.4-.9.8-.9s.8.4.8.9,0,0,0,0c8.8-.8,15.7-8.9,15.7-18.7s-.2-.7-.6-.9Z"/>
    <path class="st2" d="M424.5,90.9c-.2,0-.3,0-.4.1.2,0,.5,0,.7,0,0,0-.2,0-.3,0Z"/>
    <path class="st2" d="M457.8,91.8c0,9.3-6.9,16.9-15.4,16.9s-15.4-7.6-15.4-16.9-.4-.9-.8-.9-.8.4-.8.9c0,9.6,6.6,17.6,15.1,18.6,0-.5.4-.9.8-.9s.8.4.8.9c0-.5.4-.9.8-.9s.8.4.8.9,0,0,0,0c8.8-.8,15.7-8.9,15.7-18.7s-.2-.7-.6-.9c-.2,0-.5,0-.7,0-.2.2-.4.4-.4.8Z"/>
    <path class="st2" d="M442.2,110.5s0,0,0,0c0,0,0,0,0,0h0Z"/>
    <path class="st2" d="M458.2,91c.2,0,.5,0,.7,0,0,0-.2,0-.3,0-.2,0-.3,0-.4.1Z"/>
    <path class="st2" d="M476.3,110.5h0s0,0,0,0c0,0,0,0,0,0Z"/>
    <path class="st2" d="M474.6,110.4c0-.5.4-.9.8-.9s.8.4.8.9c0-.5.4-.9.8-.9s.8.4.8.9,0,0,0,0c2.7-.2,5.1-1.2,7.3-2.6l-.5-1.8c-2.4,1.7-5.2,2.6-8.2,2.6-8.5,0-15.4-7.6-15.4-16.9s-.4-.9-.8-.9-.8.4-.8.9c0,9.6,6.6,17.6,15.1,18.6Z"/>
    <path class="st2" d="M16.7,129.1s0,0,0,0c0,0,0,0,0,0,0,0,0,0,0,0Z"/>
    <path class="st2" d="M15.8,128.2c.5,0,.8.4.8.9,0-.5.4-.9.8-.9s.7.3.8.7c8.1-1.4,14.3-9.2,14.3-18.4-.6,0-1.1,0-1.7-.1,0,0,0,0,0,0,0,9.3-6.9,16.9-15.4,16.9s-4-.4-5.8-1.2l-.5,1.8c1.8.8,3.7,1.2,5.7,1.3,0,0,0,0,0,0,0-.5.4-.9.8-.9Z"/>
    <path class="st2" d="M32.6,110.4c0-.5-.4-.9-.8-.9s-.8.4-.8.9c.5,0,1.1.1,1.7.1,0,0,0,0,0,0Z"/>
    <path class="st2" d="M66.7,110.5c-.6,0-1.1,0-1.7-.1,0,0,0,0,0,0,0,9.3-6.9,16.9-15.4,16.9s-15.4-7.6-15.4-16.9c-.5,0-.9,0-1.4,0s-.2,0-.3,0c0,10.1,7.4,18.3,16.5,18.7,0,0,0,0,0,0,0-.5.4-.9.8-.9s.8.4.8.9c0-.5.4-.9.8-.9s.7.3.8.7c8.1-1.4,14.3-9.2,14.3-18.4Z"/>
    <path class="st2" d="M50.8,129.1s0,0,0,0c0,0,0,0,0,0,0,0,0,0,0,0Z"/>
    <path class="st2" d="M32.9,110.5c.5,0,.9,0,1.4,0,0,0,0,0,0,0,0-.5-.4-.9-.8-.9s-.8.4-.8.9,0,0,0,0c0,0,.2,0,.3,0Z"/>
    <path class="st2" d="M65.9,109.5c-.4,0-.8.4-.8.9.5,0,1.1.1,1.7.1,0,0,0,0,0,0,0-.5-.4-.9-.8-.9Z"/>
    <path class="st2" d="M100.9,110.5c-.6,0-1.1,0-1.7-.1,0,0,0,0,0,0,0,9.3-6.9,16.9-15.4,16.9s-15.4-7.6-15.4-16.9c-.5,0-.9,0-1.4,0s-.2,0-.3,0c0,10.1,7.4,18.3,16.5,18.7,0,0,0,0,0,0,0-.5.4-.9.8-.9s.8.4.8.9c0-.5.4-.9.8-.9s.7.3.8.7c8.1-1.4,14.3-9.2,14.3-18.4Z"/>
    <path class="st2" d="M84.9,129.1s0,0,0,0c0,0,0,0,0,0,0,0,0,0,0,0Z"/>
    <path class="st2" d="M67.6,109.5c-.5,0-.8.4-.8.9s0,0,0,0c0,0,.2,0,.3,0,.5,0,.9,0,1.4,0,0,0,0,0,0,0,0-.5-.4-.9-.8-.9Z"/>
    <path class="st2" d="M100,109.5c-.4,0-.8.4-.8.9.5,0,1.1.1,1.7.1,0,0,0,0,0,0,0-.5-.4-.9-.8-.9Z"/>
    <path class="st2" d="M119,129.1s0,0,0,0c0,0,0,0,0,0,0,0,0,0,0,0Z"/>
    <path class="st2" d="M135,110.5c-.6,0-1.1,0-1.7-.1,0,0,0,0,0,0,0,9.3-6.9,16.9-15.4,16.9s-15.4-7.6-15.4-16.9c-.5,0-.9,0-1.4,0s-.2,0-.3,0c0,10.1,7.4,18.3,16.5,18.7,0,0,0,0,0,0,0-.5.4-.9.8-.9s.8.4.8.9c0-.5.4-.9.8-.9s.7.3.8.7c8.1-1.4,14.3-9.2,14.3-18.4Z"/>
    <path class="st2" d="M101.7,109.5c-.5,0-.8.4-.8.9s0,0,0,0c0,0,.2,0,.3,0,.5,0,.9,0,1.4,0,0,0,0,0,0,0,0-.5-.4-.9-.8-.9Z"/>
    <path class="st2" d="M134.2,109.5c-.4,0-.8.4-.8.9.5,0,1.1.1,1.7.1,0,0,0,0,0,0,0-.5-.4-.9-.8-.9Z"/>
    <path class="st2" d="M153.2,129.1s0,0,0,0c0,0,0,0,0,0,0,0,0,0,0,0Z"/>
    <path class="st2" d="M169.1,110.5c-.6,0-1.1,0-1.7-.1,0,0,0,0,0,0,0,9.3-6.9,16.9-15.4,16.9s-15.4-7.6-15.4-16.9c-.5,0-.9,0-1.4,0s-.2,0-.3,0c0,10.1,7.4,18.3,16.5,18.7,0,0,0,0,0,0,0-.5.4-.9.8-.9s.8.4.8.9c0-.5.4-.9.8-.9s.7.3.8.7c8.1-1.4,14.3-9.2,14.3-18.4Z"/>
    <path class="st2" d="M135.8,109.5c-.5,0-.8.4-.8.9s0,0,0,0c0,0,.2,0,.3,0,.5,0,.9,0,1.4,0,0,0,0,0,0,0,0-.5-.4-.9-.8-.9Z"/>
    <path class="st2" d="M168.3,109.5c-.4,0-.8.4-.8.9.5,0,1.1.1,1.7.1,0,0,0,0,0,0,0-.5-.4-.9-.8-.9Z"/>
    <path class="st2" d="M203.3,110.5c-.6,0-1.1,0-1.7-.1,0,0,0,0,0,0,0,9.3-6.9,16.9-15.4,16.9s-15.4-7.6-15.4-16.9c-.5,0-.9,0-1.4,0s-.2,0-.3,0c0,10.1,7.4,18.3,16.5,18.7,0,0,0,0,0,0,0-.5.4-.9.8-.9s.8.4.8.9c0-.5.4-.9.8-.9s.7.3.8.7c8.1-1.4,14.3-9.2,14.3-18.4Z"/>
    <path class="st2" d="M187.3,129.1s0,0,0,0c0,0,0,0,0,0,0,0,0,0,0,0Z"/>
    <path class="st2" d="M170,109.5c-.5,0-.8.4-.8.9s0,0,0,0c0,0,.2,0,.3,0,.5,0,.9,0,1.4,0,0,0,0,0,0,0,0-.5-.4-.9-.8-.9Z"/>
    <path class="st2" d="M202.4,109.5c-.4,0-.8.4-.8.9.5,0,1.1.1,1.7.1,0,0,0,0,0,0,0-.5-.4-.9-.8-.9Z"/>
    <path class="st2" d="M237.4,110.5c-.6,0-1.1,0-1.7-.1,0,0,0,0,0,0,0,9.3-6.9,16.9-15.4,16.9s-15.4-7.6-15.4-16.9c-.5,0-.9,0-1.4,0s-.2,0-.3,0c0,10.1,7.4,18.3,16.5,18.7,0,0,0,0,0,0,0-.5.4-.9.8-.9s.8.4.8.9c0-.5.4-.9.8-.9s.7.3.8.7c8.1-1.4,14.3-9.2,14.3-18.4Z"/>
    <path class="st2" d="M221.4,129.1s0,0,0,0c0,0,0,0,0,0,0,0,0,0,0,0Z"/>
    <path class="st2" d="M204.1,109.5c-.5,0-.8.4-.8.9s0,0,0,0c0,0,.2,0,.3,0,.5,0,.9,0,1.4,0,0,0,0,0,0,0,0-.5-.4-.9-.8-.9Z"/>
    <path class="st2" d="M236.6,109.5c-.4,0-.8.4-.8.9.5,0,1.1.1,1.7.1,0,0,0,0,0,0,0-.5-.4-.9-.8-.9Z"/>
    <path class="st2" d="M255.6,129.1s0,0,0,0c0,0,0,0,0,0,0,0,0,0,0,0Z"/>
    <path class="st2" d="M271.5,110.5c-.6,0-1.1,0-1.7-.1,0,0,0,0,0,0,0,9.3-6.9,16.9-15.4,16.9s-15.4-7.6-15.4-16.9c-.5,0-.9,0-1.4,0s-.2,0-.3,0c0,10.1,7.4,18.3,16.5,18.7,0,0,0,0,0,0,0-.5.4-.9.8-.9s.8.4.8.9c0-.5.4-.9.8-.9s.7.3.8.7c8.1-1.4,14.3-9.2,14.3-18.4Z"/>
    <path class="st2" d="M238.2,109.5c-.5,0-.8.4-.8.9s0,0,0,0c0,0,.2,0,.3,0,.5,0,.9,0,1.4,0,0,0,0,0,0,0,0-.5-.4-.9-.8-.9Z"/>
    <path class="st2" d="M270.7,109.5c-.4,0-.8.4-.8.9.5,0,1.1.1,1.7.1,0,0,0,0,0,0,0-.5-.4-.9-.8-.9Z"/>
    <path class="st2" d="M289.7,129.1s0,0,0,0c0,0,0,0,0,0,0,0,0,0,0,0Z"/>
    <path class="st2" d="M305.6,110.5c-.6,0-1.1,0-1.7-.1,0,0,0,0,0,0,0,9.3-6.9,16.9-15.4,16.9s-15.4-7.6-15.4-16.9c-.5,0-.9,0-1.4,0s-.2,0-.3,0c0,10.1,7.4,18.3,16.5,18.7,0,0,0,0,0,0,0-.5.4-.9.8-.9s.8.4.8.9c0-.5.4-.9.8-.9s.7.3.8.7c8.1-1.4,14.3-9.2,14.3-18.4Z"/>
    <path class="st2" d="M272.3,109.5c-.5,0-.8.4-.8.9s0,0,0,0c0,0,.2,0,.3,0,.5,0,.9,0,1.4,0,0,0,0,0,0,0,0-.5-.4-.9-.8-.9Z"/>
    <path class="st2" d="M304.8,109.5c-.4,0-.8.4-.8.9.5,0,1.1.1,1.7.1,0,0,0,0,0,0,0-.5-.4-.9-.8-.9Z"/>
    <path class="st2" d="M339.8,110.5c-.6,0-1.1,0-1.7-.1,0,0,0,0,0,0,0,9.3-6.9,16.9-15.4,16.9s-15.4-7.6-15.4-16.9c-.5,0-.9,0-1.4,0s-.2,0-.3,0c0,10.1,7.4,18.3,16.5,18.7,0,0,0,0,0,0,0-.5.4-.9.8-.9s.8.4.8.9c0-.5.4-.9.8-.9s.7.3.8.7c8.1-1.4,14.3-9.2,14.3-18.4Z"/>
    <path class="st2" d="M323.8,129.1s0,0,0,0c0,0,0,0,0,0,0,0,0,0,0,0Z"/>
    <path class="st2" d="M306.5,109.5c-.5,0-.8.4-.8.9s0,0,0,0c0,0,.2,0,.3,0,.5,0,.9,0,1.4,0,0,0,0,0,0,0,0-.5-.4-.9-.8-.9Z"/>
    <path class="st2" d="M338.9,109.5c-.4,0-.8.4-.8.9.5,0,1.1.1,1.7.1,0,0,0,0,0,0,0-.5-.4-.9-.8-.9Z"/>
    <path class="st2" d="M358,129.1s0,0,0,0c0,0,0,0,0,0,0,0,0,0,0,0Z"/>
    <path class="st2" d="M373.9,110.5c-.6,0-1.1,0-1.7-.1,0,0,0,0,0,0,0,9.3-6.9,16.9-15.4,16.9s-15.4-7.6-15.4-16.9c-.5,0-.9,0-1.4,0s-.2,0-.3,0c0,10.1,7.4,18.3,16.5,18.7,0,0,0,0,0,0,0-.5.4-.9.8-.9s.8.4.8.9c0-.5.4-.9.8-.9s.7.3.8.7c8.1-1.4,14.3-9.2,14.3-18.4Z"/>
    <path class="st2" d="M340.6,109.5c-.5,0-.8.4-.8.9s0,0,0,0c0,0,.2,0,.3,0,.5,0,.9,0,1.4,0,0,0,0,0,0,0,0-.5-.4-.9-.8-.9Z"/>
    <path class="st2" d="M373.1,109.5c-.4,0-.8.4-.8.9.5,0,1.1.1,1.7.1,0,0,0,0,0,0,0-.5-.4-.9-.8-.9Z"/>
    <path class="st2" d="M392.1,129.1s0,0,0,0c0,0,0,0,0,0,0,0,0,0,0,0Z"/>
    <path class="st2" d="M408,110.5c-.6,0-1.1,0-1.7-.1,0,0,0,0,0,0,0,9.3-6.9,16.9-15.4,16.9s-15.4-7.6-15.4-16.9c-.5,0-.9,0-1.4,0s-.2,0-.3,0c0,10.1,7.4,18.3,16.5,18.7,0,0,0,0,0,0,0-.5.4-.9.8-.9s.8.4.8.9c0-.5.4-.9.8-.9s.7.3.8.7c8.1-1.4,14.3-9.2,14.3-18.4Z"/>
    <path class="st2" d="M374.7,109.5c-.5,0-.8.4-.8.9s0,0,0,0c0,0,.2,0,.3,0,.5,0,.9,0,1.4,0,0,0,0,0,0,0,0-.5-.4-.9-.8-.9Z"/>
    <path class="st2" d="M407.2,109.5c-.4,0-.8.4-.8.9.5,0,1.1.1,1.7.1,0,0,0,0,0,0,0-.5-.4-.9-.8-.9Z"/>
    <path class="st2" d="M442.2,110.5c-.6,0-1.1,0-1.7-.1,0,0,0,0,0,0,0,9.3-6.9,16.9-15.4,16.9s-15.4-7.6-15.4-16.9c-.5,0-.9,0-1.4,0s-.2,0-.3,0c0,10.1,7.4,18.3,16.5,18.7,0,0,0,0,0,0,0-.5.4-.9.8-.9s.8.4.8.9c0-.5.4-.9.8-.9s.7.3.8.7c8.1-1.4,14.3-9.2,14.3-18.4Z"/>
    <path class="st2" d="M426.2,129.1s0,0,0,0c0,0,0,0,0,0,0,0,0,0,0,0Z"/>
    <path class="st2" d="M408.9,109.5c-.5,0-.8.4-.8.9s0,0,0,0c0,0,.2,0,.3,0,.5,0,.9,0,1.4,0,0,0,0,0,0,0,0-.5-.4-.9-.8-.9Z"/>
    <path class="st2" d="M442.2,110.4c0-.5-.4-.9-.8-.9s-.8.4-.8.9c.5,0,1.1.1,1.7.1,0,0,0,0,0,0Z"/>
    <path class="st2" d="M474.6,110.4c0,9.3-6.9,16.9-15.4,16.9s-15.4-7.6-15.4-16.9c-.5,0-.9,0-1.4,0s-.2,0-.3,0c0,10.1,7.4,18.3,16.5,18.7,0,0,0,0,0,0,0-.5.4-.9.8-.9s.8.4.8.9c0-.5.4-.9.8-.9s.7.3.8.7c8.1-1.4,14.3-9.2,14.3-18.4-.6,0-1.1,0-1.7-.1,0,0,0,0,0,0Z"/>
    <path class="st2" d="M460.3,129.1s0,0,0,0c0,0,0,0,0,0,0,0,0,0,0,0Z"/>
    <path class="st2" d="M442.4,110.5c.5,0,.9,0,1.4,0,0,0,0,0,0,0,0-.5-.4-.9-.8-.9s-.8.4-.8.9,0,0,0,0c0,0,.2,0,.3,0Z"/>
    <path class="st2" d="M475.5,109.5c-.4,0-.8.4-.8.9.5,0,1.1.1,1.7.1,0,0,0,0,0,0,0-.5-.4-.9-.8-.9Z"/>
    <path class="st2" d="M476.3,110.5c0,9.4,6.4,17.2,14.6,18.5l-.5-1.9c-7.1-1.5-12.4-8.4-12.4-16.6-.5,0-.9,0-1.4,0s-.2,0-.3,0Z"/>
    <path class="st2" d="M477.1,109.5c-.5,0-.8.4-.8.9s0,0,0,0c0,0,.2,0,.3,0,.5,0,.9,0,1.4,0,0,0,0,0,0,0,0-.5-.4-.9-.8-.9Z"/>
    <path class="st2" d="M15,129.2c0,7.3-4.3,13.5-10.3,15.9l-.6,2.1c7.2-2.2,12.5-9.4,12.5-18-.4,0-.7,0-1.1,0s-.4,0-.5,0Z"/>
    <path class="st2" d="M15.8,128.2c-.5,0-.8.4-.8.9s0,0,0,0c.2,0,.4,0,.5,0,.4,0,.7,0,1.1,0,0,0,0,0,0,0,0-.5-.4-.9-.8-.9Z"/>
    <path class="st2" d="M49.1,129.2c0,9.3-6.9,16.8-15.4,16.8s-15.4-7.6-15.4-16.9,0-.1,0-.2c-.5,0-1.1.2-1.6.2,0,10,7.2,18.2,16.2,18.7,0-.2,0-.4,0-.7,0-.5.4-.9.8-.9s.8.4.8.9c0-.5.4-.9.8-.9s.8.4.8.9,0,.3,0,.5c8.2-1.3,14.5-9.1,14.5-18.5-.4,0-.7,0-1.1,0s-.4,0-.5,0Z"/>
    <path class="st2" d="M34.6,147.8s0,0,0,0c0-.2,0-.4,0-.7,0,.2,0,.4,0,.7Z"/>
    <path class="st2" d="M17.5,128.2c-.5,0-.8.4-.8.9s0,0,0,0c.6,0,1.1-.1,1.6-.2,0-.4-.4-.7-.8-.7Z"/>
    <path class="st2" d="M50,128.2c-.5,0-.8.4-.8.9s0,0,0,0c.2,0,.4,0,.5,0,.4,0,.7,0,1.1,0,0,0,0,0,0,0,0-.5-.4-.9-.8-.9Z"/>
    <path class="st2" d="M83.3,129.2c0,9.3-6.9,16.8-15.4,16.8s-15.4-7.6-15.4-16.9,0-.1,0-.2c-.5,0-1.1.2-1.6.2,0,10,7.2,18.2,16.2,18.7,0-.2,0-.4,0-.7,0-.5.4-.9.8-.9s.8.4.8.9c0-.5.4-.9.8-.9s.8.4.8.9,0,.3,0,.5c8.2-1.3,14.5-9.1,14.5-18.5-.4,0-.7,0-1.1,0s-.4,0-.5,0Z"/>
    <path class="st2" d="M68.7,147.8s0,0,0,0c0-.2,0-.4,0-.7,0,.2,0,.4,0,.7Z"/>
    <path class="st2" d="M51.6,128.2c-.5,0-.8.4-.8.9s0,0,0,0c.6,0,1.1-.1,1.6-.2,0-.4-.4-.7-.8-.7Z"/>
    <path class="st2" d="M84.1,128.2c-.5,0-.8.4-.8.9s0,0,0,0c.2,0,.4,0,.5,0,.4,0,.7,0,1.1,0,0,0,0,0,0,0,0-.5-.4-.9-.8-.9Z"/>
    <path class="st2" d="M102.8,147.8s0,0,0,0c0-.2,0-.4,0-.7,0,.2,0,.4,0,.7Z"/>
    <path class="st2" d="M117.4,129.2c0,9.3-6.9,16.8-15.4,16.8s-15.4-7.6-15.4-16.9,0-.1,0-.2c-.5,0-1.1.2-1.6.2,0,10,7.2,18.2,16.2,18.7,0-.2,0-.4,0-.7,0-.5.4-.9.8-.9s.8.4.8.9c0-.5.4-.9.8-.9s.8.4.8.9,0,.3,0,.5c8.2-1.3,14.5-9.1,14.5-18.5-.4,0-.7,0-1.1,0s-.4,0-.5,0Z"/>
    <path class="st2" d="M85.7,128.2c-.5,0-.8.4-.8.9s0,0,0,0c.6,0,1.1-.1,1.6-.2,0-.4-.4-.7-.8-.7Z"/>
    <path class="st2" d="M118.2,128.2c-.5,0-.8.4-.8.9s0,0,0,0c.2,0,.4,0,.5,0,.4,0,.7,0,1.1,0,0,0,0,0,0,0,0-.5-.4-.9-.8-.9Z"/>
    <path class="st2" d="M137,147.8s0,0,0,0c0-.2,0-.4,0-.7,0,.2,0,.4,0,.7Z"/>
    <path class="st2" d="M151.5,129.2c0,9.3-6.9,16.8-15.4,16.8s-15.4-7.6-15.4-16.9,0-.1,0-.2c-.5,0-1.1.2-1.6.2,0,10,7.2,18.2,16.2,18.7,0-.2,0-.4,0-.7,0-.5.4-.9.8-.9s.8.4.8.9c0-.5.4-.9.8-.9s.8.4.8.9,0,.3,0,.5c8.2-1.3,14.5-9.1,14.5-18.5-.4,0-.7,0-1.1,0s-.4,0-.5,0Z"/>
    <path class="st2" d="M119.9,128.2c-.5,0-.8.4-.8.9s0,0,0,0c.6,0,1.1-.1,1.6-.2,0-.4-.4-.7-.8-.7Z"/>
    <path class="st2" d="M152.3,128.2c-.5,0-.8.4-.8.9s0,0,0,0c.2,0,.4,0,.5,0,.4,0,.7,0,1.1,0,0,0,0,0,0,0,0-.5-.4-.9-.8-.9Z"/>
    <path class="st2" d="M171.1,147.8s0,0,0,0c0-.2,0-.4,0-.7,0,.2,0,.4,0,.7Z"/>
    <path class="st2" d="M185.6,129.2c0,9.3-6.9,16.8-15.4,16.8s-15.4-7.6-15.4-16.9,0-.1,0-.2c-.5,0-1.1.2-1.6.2,0,10,7.2,18.2,16.2,18.7,0-.2,0-.4,0-.7,0-.5.4-.9.8-.9s.8.4.8.9c0-.5.4-.9.8-.9s.8.4.8.9,0,.3,0,.5c8.2-1.3,14.5-9.1,14.5-18.5-.4,0-.7,0-1.1,0s-.4,0-.5,0Z"/>
    <path class="st2" d="M154,128.2c-.5,0-.8.4-.8.9s0,0,0,0c.6,0,1.1-.1,1.6-.2,0-.4-.4-.7-.8-.7Z"/>
    <path class="st2" d="M186.5,128.2c-.5,0-.8.4-.8.9s0,0,0,0c.2,0,.4,0,.5,0,.4,0,.7,0,1.1,0,0,0,0,0,0,0,0-.5-.4-.9-.8-.9Z"/>
    <path class="st2" d="M205.2,147.8s0,0,0,0c0-.2,0-.4,0-.7,0,.2,0,.4,0,.7Z"/>
    <path class="st2" d="M219.8,129.2c0,9.3-6.9,16.8-15.4,16.8s-15.4-7.6-15.4-16.9,0-.1,0-.2c-.5,0-1.1.2-1.6.2,0,10,7.2,18.2,16.2,18.7,0-.2,0-.4,0-.7,0-.5.4-.9.8-.9s.8.4.8.9c0-.5.4-.9.8-.9s.8.4.8.9,0,.3,0,.5c8.2-1.3,14.5-9.1,14.5-18.5-.4,0-.7,0-1.1,0s-.4,0-.5,0Z"/>
    <path class="st2" d="M188.1,128.2c-.5,0-.8.4-.8.9s0,0,0,0c.6,0,1.1-.1,1.6-.2,0-.4-.4-.7-.8-.7Z"/>
    <path class="st2" d="M220.6,128.2c-.5,0-.8.4-.8.9s0,0,0,0c.2,0,.4,0,.5,0,.4,0,.7,0,1.1,0,0,0,0,0,0,0,0-.5-.4-.9-.8-.9Z"/>
    <path class="st2" d="M239.3,147.8s0,0,0,0c0-.2,0-.4,0-.7,0,.2,0,.4,0,.7Z"/>
    <path class="st2" d="M253.9,129.2c0,9.3-6.9,16.8-15.4,16.8s-15.4-7.6-15.4-16.9,0-.1,0-.2c-.5,0-1.1.2-1.6.2,0,10,7.2,18.2,16.2,18.7,0-.2,0-.4,0-.7,0-.5.4-.9.8-.9s.8.4.8.9c0-.5.4-.9.8-.9s.8.4.8.9,0,.3,0,.5c8.2-1.3,14.5-9.1,14.5-18.5-.4,0-.7,0-1.1,0s-.4,0-.5,0Z"/>
    <path class="st2" d="M222.3,128.2c-.5,0-.8.4-.8.9s0,0,0,0c.6,0,1.1-.1,1.6-.2,0-.4-.4-.7-.8-.7Z"/>
    <path class="st2" d="M254.7,128.2c-.5,0-.8.4-.8.9s0,0,0,0c.2,0,.4,0,.5,0,.4,0,.7,0,1.1,0,0,0,0,0,0,0,0-.5-.4-.9-.8-.9Z"/>
    <path class="st2" d="M288,129.2c0,9.3-6.9,16.8-15.4,16.8s-15.4-7.6-15.4-16.9,0-.1,0-.2c-.5,0-1.1.2-1.6.2,0,10,7.2,18.2,16.2,18.7,0-.2,0-.4,0-.7,0-.5.4-.9.8-.9s.8.4.8.9c0-.5.4-.9.8-.9s.8.4.8.9,0,.3,0,.5c8.2-1.3,14.5-9.1,14.5-18.5-.4,0-.7,0-1.1,0s-.4,0-.5,0Z"/>
    <path class="st2" d="M273.5,147.8s0,0,0,0c0-.2,0-.4,0-.7,0,.2,0,.4,0,.7Z"/>
    <path class="st2" d="M256.4,128.2c-.5,0-.8.4-.8.9s0,0,0,0c.6,0,1.1-.1,1.6-.2,0-.4-.4-.7-.8-.7Z"/>
    <path class="st2" d="M288.9,128.2c-.5,0-.8.4-.8.9s0,0,0,0c.2,0,.4,0,.5,0,.4,0,.7,0,1.1,0,0,0,0,0,0,0,0-.5-.4-.9-.8-.9Z"/>
    <path class="st2" d="M307.6,147.8s0,0,0,0c0-.2,0-.4,0-.7,0,.2,0,.4,0,.7Z"/>
    <path class="st2" d="M322.2,129.2c0,9.3-6.9,16.8-15.4,16.8s-15.4-7.6-15.4-16.9,0-.1,0-.2c-.5,0-1.1.2-1.6.2,0,10,7.2,18.2,16.2,18.7,0-.2,0-.4,0-.7,0-.5.4-.9.8-.9s.8.4.8.9c0-.5.4-.9.8-.9s.8.4.8.9,0,.3,0,.5c8.2-1.3,14.5-9.1,14.5-18.5-.4,0-.7,0-1.1,0s-.4,0-.5,0Z"/>
    <path class="st2" d="M290.5,128.2c-.5,0-.8.4-.8.9s0,0,0,0c.6,0,1.1-.1,1.6-.2,0-.4-.4-.7-.8-.7Z"/>
    <path class="st2" d="M323,128.2c-.5,0-.8.4-.8.9s0,0,0,0c.2,0,.4,0,.5,0,.4,0,.7,0,1.1,0,0,0,0,0,0,0,0-.5-.4-.9-.8-.9Z"/>
    <path class="st2" d="M356.3,129.2c0,9.3-6.9,16.8-15.4,16.8s-15.4-7.6-15.4-16.9,0-.1,0-.2c-.5,0-1.1.2-1.6.2,0,10,7.2,18.2,16.2,18.7,0-.2,0-.4,0-.7,0-.5.4-.9.8-.9s.8.4.8.9c0-.5.4-.9.8-.9s.8.4.8.9,0,.3,0,.5c8.2-1.3,14.5-9.1,14.5-18.5-.4,0-.7,0-1.1,0s-.4,0-.5,0Z"/>
    <path class="st2" d="M341.7,147.8s0,0,0,0c0-.2,0-.4,0-.7,0,.2,0,.4,0,.7Z"/>
    <path class="st2" d="M324.7,128.2c-.5,0-.8.4-.8.9s0,0,0,0c.6,0,1.1-.1,1.6-.2,0-.4-.4-.7-.8-.7Z"/>
    <path class="st2" d="M357.1,128.2c-.5,0-.8.4-.8.9s0,0,0,0c.2,0,.4,0,.5,0,.4,0,.7,0,1.1,0,0,0,0,0,0,0,0-.5-.4-.9-.8-.9Z"/>
    <path class="st2" d="M390.4,129.2c0,9.3-6.9,16.8-15.4,16.8s-15.4-7.6-15.4-16.9,0-.1,0-.2c-.5,0-1.1.2-1.6.2,0,10,7.2,18.2,16.2,18.7,0-.2,0-.4,0-.7,0-.5.4-.9.8-.9s.8.4.8.9c0-.5.4-.9.8-.9s.8.4.8.9,0,.3,0,.5c8.2-1.3,14.5-9.1,14.5-18.5-.4,0-.7,0-1.1,0s-.4,0-.5,0Z"/>
    <path class="st2" d="M375.9,147.8s0,0,0,0c0-.2,0-.4,0-.7,0,.2,0,.4,0,.7Z"/>
    <path class="st2" d="M358.8,128.2c-.5,0-.8.4-.8.9s0,0,0,0c.6,0,1.1-.1,1.6-.2,0-.4-.4-.7-.8-.7Z"/>
    <path class="st2" d="M391.3,128.2c-.5,0-.8.4-.8.9s0,0,0,0c.2,0,.4,0,.5,0,.4,0,.7,0,1.1,0,0,0,0,0,0,0,0-.5-.4-.9-.8-.9Z"/>
    <path class="st2" d="M410,147.8s0,0,0,0c0-.2,0-.4,0-.7,0,.2,0,.4,0,.7Z"/>
    <path class="st2" d="M424.6,129.2c0,9.3-6.9,16.8-15.4,16.8s-15.4-7.6-15.4-16.9,0-.1,0-.2c-.5,0-1.1.2-1.6.2,0,10,7.2,18.2,16.2,18.7,0-.2,0-.4,0-.7,0-.5.4-.9.8-.9s.8.4.8.9c0-.5.4-.9.8-.9s.8.4.8.9,0,.3,0,.5c8.2-1.3,14.5-9.1,14.5-18.5-.4,0-.7,0-1.1,0s-.4,0-.5,0Z"/>
    <path class="st2" d="M392.9,128.2c-.5,0-.8.4-.8.9s0,0,0,0c.6,0,1.1-.1,1.6-.2,0-.4-.4-.7-.8-.7Z"/>
    <path class="st2" d="M425.4,128.2c-.5,0-.8.4-.8.9s0,0,0,0c.2,0,.4,0,.5,0,.4,0,.7,0,1.1,0,0,0,0,0,0,0,0-.5-.4-.9-.8-.9Z"/>
    <path class="st2" d="M444.1,147.8s0,0,0,0c0-.2,0-.4,0-.7,0,.2,0,.4,0,.7Z"/>
    <path class="st2" d="M458.7,129.2c0,9.3-6.9,16.8-15.4,16.8s-15.4-7.6-15.4-16.9,0-.1,0-.2c-.5,0-1.1.2-1.6.2,0,10,7.2,18.2,16.2,18.7,0-.2,0-.4,0-.7,0-.5.4-.9.8-.9s.8.4.8.9c0-.5.4-.9.8-.9s.8.4.8.9,0,.3,0,.5c8.2-1.3,14.5-9.1,14.5-18.5-.4,0-.7,0-1.1,0s-.4,0-.5,0Z"/>
    <path class="st2" d="M427,128.2c-.5,0-.8.4-.8.9s0,0,0,0c.6,0,1.1-.1,1.6-.2,0-.4-.4-.7-.8-.7Z"/>
    <path class="st2" d="M459.5,128.2c-.5,0-.8.4-.8.9s0,0,0,0c.2,0,.4,0,.5,0,.4,0,.7,0,1.1,0,0,0,0,0,0,0,0-.5-.4-.9-.8-.9Z"/>
    <path class="st2" d="M477.4,146.2c.5,0,.8.4.8.9,0-.5.4-.9.8-.9s.8.4.8.9,0,.3,0,.5c5.8-1,10.7-5.2,13.1-10.9l-.8-2.9c-1.9,7-7.8,12.2-14.8,12.2s-15.4-7.6-15.4-16.9,0-.1,0-.2c-.5,0-1.1.2-1.6.2,0,10,7.2,18.2,16.2,18.7,0-.2,0-.4,0-.7,0-.5.4-.9.8-.9Z"/>
    <path class="st2" d="M478.2,147.8s0,0,0,0c0-.2,0-.4,0-.7,0,.2,0,.4,0,.7Z"/>
    <path class="st2" d="M461.2,128.2c-.5,0-.8.4-.8.9s0,0,0,0c.6,0,1.1-.1,1.6-.2,0-.4-.4-.7-.8-.7Z"/>
    <path class="st2" d="M32.9,147.8c-.2,6.7-4.1,12.5-9.4,14.9h3.5c4.4-3.2,7.4-8.7,7.6-14.9-.3,0-.6,0-.8,0s-.5,0-.8,0Z"/>
    <path class="st2" d="M2.8,152.2l-.8,2.9c1.3,3.1,3.4,5.8,6,7.7h3.5c-4.2-1.9-7.4-5.8-8.7-10.6Z"/>
    <path class="st2" d="M33.8,146.2c-.5,0-.8.4-.8.9s0,.4,0,.7c.3,0,.5,0,.8,0s.6,0,.8,0c0-.2,0-.4,0-.7,0-.5-.4-.9-.8-.9Z"/>
    <path class="st2" d="M67,147.8c-.2,6.7-4.1,12.5-9.4,14.9h3.5c4.4-3.2,7.4-8.7,7.6-14.9-.3,0-.6,0-.8,0s-.5,0-.8,0Z"/>
    <path class="st2" d="M42.2,162.7h3.5c-5.4-2.5-9.3-8.3-9.4-15.1-.5,0-1.1.1-1.7.2.2,6.2,3.2,11.7,7.6,14.9Z"/>
    <path class="st2" d="M35.4,146.2c-.5,0-.8.4-.8.9s0,.4,0,.7c.6,0,1.1,0,1.7-.2,0-.2,0-.3,0-.5,0-.5-.4-.9-.8-.9Z"/>
    <path class="st2" d="M67.9,146.2c-.5,0-.8.4-.8.9s0,.4,0,.7c.3,0,.5,0,.8,0s.6,0,.8,0c0-.2,0-.4,0-.7,0-.5-.4-.9-.8-.9Z"/>
    <path class="st2" d="M76.3,162.7h3.5c-5.4-2.5-9.3-8.3-9.4-15.1-.5,0-1.1.1-1.7.2.2,6.2,3.2,11.7,7.6,14.9Z"/>
    <path class="st2" d="M101.2,147.8c-.2,6.7-4.1,12.5-9.4,14.9h3.5c4.4-3.2,7.4-8.7,7.6-14.9-.3,0-.6,0-.8,0s-.5,0-.8,0Z"/>
    <path class="st2" d="M69.5,146.2c-.5,0-.8.4-.8.9s0,.4,0,.7c.6,0,1.1,0,1.7-.2,0-.2,0-.3,0-.5,0-.5-.4-.9-.8-.9Z"/>
    <path class="st2" d="M102,146.2c-.5,0-.8.4-.8.9s0,.4,0,.7c.3,0,.5,0,.8,0s.6,0,.8,0c0-.2,0-.4,0-.7,0-.5-.4-.9-.8-.9Z"/>
    <path class="st2" d="M110.5,162.7h3.5c-5.4-2.5-9.3-8.3-9.4-15.1-.5,0-1.1.1-1.7.2.2,6.2,3.2,11.7,7.6,14.9Z"/>
    <path class="st2" d="M135.3,147.8c-.2,6.7-4.1,12.5-9.4,14.9h3.5c4.4-3.2,7.4-8.7,7.6-14.9-.3,0-.6,0-.8,0s-.5,0-.8,0Z"/>
    <path class="st2" d="M103.7,146.2c-.5,0-.8.4-.8.9s0,.4,0,.7c.6,0,1.1,0,1.7-.2,0-.2,0-.3,0-.5,0-.5-.4-.9-.8-.9Z"/>
    <path class="st2" d="M136.1,146.2c-.5,0-.8.4-.8.9s0,.4,0,.7c.3,0,.5,0,.8,0s.6,0,.8,0c0-.2,0-.4,0-.7,0-.5-.4-.9-.8-.9Z"/>
    <path class="st2" d="M169.4,147.8c-.2,6.7-4.1,12.5-9.4,14.9h3.5c4.4-3.2,7.4-8.7,7.6-14.9-.3,0-.6,0-.8,0s-.5,0-.8,0Z"/>
    <path class="st2" d="M144.6,162.7h3.5c-5.4-2.5-9.3-8.3-9.4-15.1-.5,0-1.1.1-1.7.2.2,6.2,3.2,11.7,7.6,14.9Z"/>
    <path class="st2" d="M137.8,146.2c-.5,0-.8.4-.8.9s0,.4,0,.7c.6,0,1.1,0,1.7-.2,0-.2,0-.3,0-.5,0-.5-.4-.9-.8-.9Z"/>
    <path class="st2" d="M170.3,146.2c-.5,0-.8.4-.8.9s0,.4,0,.7c.3,0,.5,0,.8,0s.6,0,.8,0c0-.2,0-.4,0-.7,0-.5-.4-.9-.8-.9Z"/>
    <path class="st2" d="M178.7,162.7h3.5c-5.4-2.5-9.3-8.3-9.4-15.1-.5,0-1.1.1-1.7.2.2,6.2,3.2,11.7,7.6,14.9Z"/>
    <path class="st2" d="M203.6,147.8c-.2,6.7-4.1,12.5-9.4,14.9h3.5c4.4-3.2,7.4-8.7,7.6-14.9-.3,0-.6,0-.8,0s-.5,0-.8,0Z"/>
    <path class="st2" d="M171.9,146.2c-.5,0-.8.4-.8.9s0,.4,0,.7c.6,0,1.1,0,1.7-.2,0-.2,0-.3,0-.5,0-.5-.4-.9-.8-.9Z"/>
    <path class="st2" d="M204.4,146.2c-.5,0-.8.4-.8.9s0,.4,0,.7c.3,0,.5,0,.8,0s.6,0,.8,0c0-.2,0-.4,0-.7,0-.5-.4-.9-.8-.9Z"/>
    <path class="st2" d="M212.9,162.7h3.5c-5.4-2.5-9.3-8.3-9.4-15.1-.5,0-1.1.1-1.7.2.2,6.2,3.2,11.7,7.6,14.9Z"/>
    <path class="st2" d="M237.7,147.8c-.2,6.7-4.1,12.5-9.4,14.9h3.5c4.4-3.2,7.4-8.7,7.6-14.9-.3,0-.6,0-.8,0s-.5,0-.8,0Z"/>
    <path class="st2" d="M206.1,146.2c-.5,0-.8.4-.8.9s0,.4,0,.7c.6,0,1.1,0,1.7-.2,0-.2,0-.3,0-.5,0-.5-.4-.9-.8-.9Z"/>
    <path class="st2" d="M238.5,146.2c-.5,0-.8.4-.8.9s0,.4,0,.7c.3,0,.5,0,.8,0s.6,0,.8,0c0-.2,0-.4,0-.7,0-.5-.4-.9-.8-.9Z"/>
    <path class="st2" d="M247,162.7h3.5c-5.4-2.5-9.3-8.3-9.4-15.1-.5,0-1.1.1-1.7.2.2,6.2,3.2,11.7,7.6,14.9Z"/>
    <path class="st2" d="M271.8,147.8c-.2,6.7-4.1,12.5-9.4,14.9h3.5c4.4-3.2,7.4-8.7,7.6-14.9-.3,0-.6,0-.8,0s-.5,0-.8,0Z"/>
    <path class="st2" d="M240.2,146.2c-.5,0-.8.4-.8.9s0,.4,0,.7c.6,0,1.1,0,1.7-.2,0-.2,0-.3,0-.5,0-.5-.4-.9-.8-.9Z"/>
    <path class="st2" d="M272.7,146.2c-.5,0-.8.4-.8.9s0,.4,0,.7c.3,0,.5,0,.8,0s.6,0,.8,0c0-.2,0-.4,0-.7,0-.5-.4-.9-.8-.9Z"/>
    <path class="st2" d="M305.9,147.8c-.2,6.7-4.1,12.5-9.4,14.9h3.5c4.4-3.2,7.4-8.7,7.6-14.9-.3,0-.6,0-.8,0s-.5,0-.8,0Z"/>
    <path class="st2" d="M281.1,162.7h3.5c-5.4-2.5-9.3-8.3-9.4-15.1-.5,0-1.1.1-1.7.2.2,6.2,3.2,11.7,7.6,14.9Z"/>
    <path class="st2" d="M274.3,146.2c-.5,0-.8.4-.8.9s0,.4,0,.7c.6,0,1.1,0,1.7-.2,0-.2,0-.3,0-.5,0-.5-.4-.9-.8-.9Z"/>
    <path class="st2" d="M306.8,146.2c-.5,0-.8.4-.8.9s0,.4,0,.7c.3,0,.5,0,.8,0s.6,0,.8,0c0-.2,0-.4,0-.7,0-.5-.4-.9-.8-.9Z"/>
    <path class="st2" d="M340.1,147.8c-.2,6.7-4.1,12.5-9.4,14.9h3.5c4.4-3.2,7.4-8.7,7.6-14.9-.3,0-.6,0-.8,0s-.5,0-.8,0Z"/>
    <path class="st2" d="M315.2,162.7h3.5c-5.4-2.5-9.3-8.3-9.4-15.1-.5,0-1.1.1-1.7.2.2,6.2,3.2,11.7,7.6,14.9Z"/>
    <path class="st2" d="M308.4,146.2c-.5,0-.8.4-.8.9s0,.4,0,.7c.6,0,1.1,0,1.7-.2,0-.2,0-.3,0-.5,0-.5-.4-.9-.8-.9Z"/>
    <path class="st2" d="M340.9,146.2c-.5,0-.8.4-.8.9s0,.4,0,.7c.3,0,.5,0,.8,0s.6,0,.8,0c0-.2,0-.4,0-.7,0-.5-.4-.9-.8-.9Z"/>
    <path class="st2" d="M374.2,147.8c-.2,6.7-4.1,12.5-9.4,14.9h3.5c4.4-3.2,7.4-8.7,7.6-14.9-.3,0-.6,0-.8,0s-.5,0-.8,0Z"/>
    <path class="st2" d="M349.4,162.7h3.5c-5.4-2.5-9.3-8.3-9.4-15.1-.5,0-1.1.1-1.7.2.2,6.2,3.2,11.7,7.6,14.9Z"/>
    <path class="st2" d="M342.6,146.2c-.5,0-.8.4-.8.9s0,.4,0,.7c.6,0,1.1,0,1.7-.2,0-.2,0-.3,0-.5,0-.5-.4-.9-.8-.9Z"/>
    <path class="st2" d="M375,146.2c-.5,0-.8.4-.8.9s0,.4,0,.7c.3,0,.5,0,.8,0s.6,0,.8,0c0-.2,0-.4,0-.7,0-.5-.4-.9-.8-.9Z"/>
    <path class="st2" d="M383.5,162.7h3.5c-5.4-2.5-9.3-8.3-9.4-15.1-.5,0-1.1.1-1.7.2.2,6.2,3.2,11.7,7.6,14.9Z"/>
    <path class="st2" d="M408.3,147.8c-.2,6.7-4.1,12.5-9.4,14.9h3.5c4.4-3.2,7.4-8.7,7.6-14.9-.3,0-.6,0-.8,0s-.5,0-.8,0Z"/>
    <path class="st2" d="M376.7,146.2c-.5,0-.8.4-.8.9s0,.4,0,.7c.6,0,1.1,0,1.7-.2,0-.2,0-.3,0-.5,0-.5-.4-.9-.8-.9Z"/>
    <path class="st2" d="M409.2,146.2c-.5,0-.8.4-.8.9s0,.4,0,.7c.3,0,.5,0,.8,0s.6,0,.8,0c0-.2,0-.4,0-.7,0-.5-.4-.9-.8-.9Z"/>
    <path class="st2" d="M442.5,147.8c-.2,6.7-4.1,12.5-9.4,14.9h3.5c4.4-3.2,7.4-8.7,7.6-14.9-.3,0-.6,0-.8,0s-.5,0-.8,0Z"/>
    <path class="st2" d="M417.6,162.7h3.5c-5.4-2.5-9.3-8.3-9.4-15.1-.5,0-1.1.1-1.7.2.2,6.2,3.2,11.7,7.6,14.9Z"/>
    <path class="st2" d="M410.8,146.2c-.5,0-.8.4-.8.9s0,.4,0,.7c.6,0,1.1,0,1.7-.2,0-.2,0-.3,0-.5,0-.5-.4-.9-.8-.9Z"/>
    <path class="st2" d="M443.3,146.2c-.5,0-.8.4-.8.9s0,.4,0,.7c.3,0,.5,0,.8,0s.6,0,.8,0c0-.2,0-.4,0-.7,0-.5-.4-.9-.8-.9Z"/>
    <path class="st2" d="M451.8,162.7h3.5c-5.4-2.5-9.3-8.3-9.4-15.1-.5,0-1.1.1-1.7.2.2,6.2,3.2,11.7,7.6,14.9Z"/>
    <path class="st2" d="M476.6,147.8c-.2,6.7-4.1,12.5-9.4,14.9h3.5c4.4-3.2,7.4-8.7,7.6-14.9-.3,0-.6,0-.8,0s-.5,0-.8,0Z"/>
    <path class="st2" d="M445,146.2c-.5,0-.8.4-.8.9s0,.4,0,.7c.6,0,1.1,0,1.7-.2,0-.2,0-.3,0-.5,0-.5-.4-.9-.8-.9Z"/>
    <path class="st2" d="M477.4,146.2c-.5,0-.8.4-.8.9s0,.4,0,.7c.3,0,.5,0,.8,0s.6,0,.8,0c0-.2,0-.4,0-.7,0-.5-.4-.9-.8-.9Z"/>
    <path class="st2" d="M479.9,147.6c-.5,0-1.1.1-1.7.2.2,6.2,3.2,11.7,7.6,14.9h3.5c-5.4-2.5-9.3-8.3-9.4-15.1Z"/>
    <path class="st2" d="M479.9,147.1c0-.5-.4-.9-.8-.9s-.8.4-.8.9,0,.4,0,.7c.6,0,1.1,0,1.7-.2,0-.2,0-.3,0-.5Z"/>
  </g>
</svg>