<?xml version="1.0" encoding="UTF-8"?>
<svg id="Layer_1" xmlns="http://www.w3.org/2000/svg" version="1.1" viewBox="0 0 500 162.7">
  <!-- Generator: Adobe Illustrator 29.0.1, SVG Export Plug-In . SVG Version: 2.1.0 Build 192)  -->
  <defs>
    <style>
      .st0 {
        fill: none;
      }

      .st1 {
        fill: #ee413c;
      }

      .st2 {
        fill: #fff;
      }

      .st3 {
        fill: #be2026;
      }

      .st4 {
        opacity: .5;
      }
    </style>
  </defs>
  <polygon class="st1" points="499.9 159.1 3.3 159.1 46.5 0 456.7 0 499.9 159.1"/>
  <g class="st4">
    <path class="st0" d="M108.2,101.9s0,0,0,0c0,8.3-6,15.2-13.8,16.5,0,0,0,.1,0,.2,0,8.3,6.7,15.1,14.8,15.1s14.8-6.8,14.8-15.1c-8.8-.3-15.9-7.7-15.9-16.7Z"/>
    <path class="st0" d="M141.1,101.9s0,0,0,0c0,8.3-6,15.2-13.8,16.5,0,0,0,.1,0,.2,0,8.3,6.7,15.1,14.8,15.1s14.8-6.8,14.8-15.1c-8.8-.3-15.9-7.7-15.9-16.7Z"/>
    <path class="st0" d="M91.8,117c8.2,0,14.8-6.8,14.8-15.1s0,0,0,0c-8.2-.9-14.6-8.1-14.6-16.7,0,8.8-6.7,16-15.1,16.7,0,8.3,6.7,15.1,14.8,15.1Z"/>
    <path class="st0" d="M75.4,101.9s0,0,0,0c0,8.3-6,15.2-13.8,16.5,0,0,0,.1,0,.2,0,8.3,6.7,15.1,14.8,15.1s14.8-6.8,14.8-15.1c-8.8-.3-15.9-7.7-15.9-16.7Z"/>
    <path class="st0" d="M92.9,84.4c.4,0,.8.4.8.8,0,8.3,6.7,15.1,14.8,15.1s14.8-6.8,14.8-15.1.2-.5.4-.7c-.5,0-1.1,0-1.6,0-9.1,0-16.4-7.5-16.4-16.8,0,8.4-6.2,15.5-14.1,16.6.3.1.6.4.6.8,0-.4.4-.8.8-.8Z"/>
    <path class="st0" d="M174,101.9s0,0,0,0c0,8.3-6,15.2-13.8,16.5,0,0,0,.1,0,.2,0,8.3,6.7,15.1,14.8,15.1s14.8-6.8,14.8-15.1c-8.8-.3-15.9-7.7-15.9-16.7Z"/>
    <path class="st0" d="M371.1,101.9s0,0,0,0c0,8.3-6,15.2-13.8,16.5,0,0,0,.1,0,.2,0,8.3,6.7,15.1,14.8,15.1s14.8-6.8,14.8-15.1c-8.8-.3-15.9-7.7-15.9-16.7Z"/>
    <path class="st0" d="M305.4,101.9s0,0,0,0c0,8.3-6,15.2-13.8,16.5,0,0,0,.1,0,.2,0,8.3,6.7,15.1,14.8,15.1s14.8-6.8,14.8-15.1c-8.8-.3-15.9-7.7-15.9-16.7Z"/>
    <path class="st0" d="M338.3,101.9s0,0,0,0c0,8.3-6,15.2-13.8,16.5,0,0,0,.1,0,.2,0,8.3,6.7,15.1,14.8,15.1s14.8-6.8,14.8-15.1c-8.8-.3-15.9-7.7-15.9-16.7Z"/>
    <path class="st0" d="M73.1,67.2s0,0,0,0c-.2,0-.4,0-.5,0,.2.1.3.4.3.6,0-.2.1-.5.3-.6Z"/>
    <path class="st0" d="M206.8,101.9s0,0,0,0c0,8.3-6,15.2-13.8,16.5,0,0,0,.1,0,.2,0,8.3,6.7,15.1,14.8,15.1s14.8-6.8,14.8-15.1c-8.8-.3-15.9-7.7-15.9-16.7Z"/>
    <path class="st0" d="M239.7,101.9s0,0,0,0c0,8.3-6,15.2-13.8,16.5,0,0,0,.1,0,.2,0,8.3,6.7,15.1,14.8,15.1s14.8-6.8,14.8-15.1c-8.8-.3-15.9-7.7-15.9-16.7Z"/>
    <path class="st0" d="M404,101.9s0,0,0,0c0,8.3-6,15.2-13.8,16.5,0,0,0,.1,0,.2,0,8.3,6.7,15.1,14.8,15.1s14.8-6.8,14.8-15.1c-8.8-.3-15.9-7.7-15.9-16.7Z"/>
    <path class="st0" d="M272.5,101.9s0,0,0,0c0,8.3-6,15.2-13.8,16.5,0,0,0,.1,0,.2,0,8.3,6.7,15.1,14.8,15.1s14.8-6.8,14.8-15.1c-8.8-.3-15.9-7.7-15.9-16.7Z"/>
    <path class="st0" d="M319.7,48.5c8,0,14.5-6.5,14.8-14.5-8.2-.7-14.8-7.6-15-16.1,0,0,0,0,0,0-.3,8.3-6.6,15.1-14.6,16.1.3,8.1,6.8,14.6,14.8,14.6Z"/>
    <path class="st0" d="M286.8,48.5c8,0,14.5-6.5,14.8-14.5-8.3-.7-14.9-7.6-15.2-16.1,0,0,0,0,0,0-.3,8.3-6.5,15-14.4,16,.3,8.1,6.8,14.6,14.8,14.6Z"/>
    <path class="st0" d="M74.4,67.8c0,8.3,6.7,15.1,14.8,15.1s14.8-6.8,14.8-15.1.1-.5.4-.7c-8.4-.8-14.9-8-14.9-16.7,0,8.9-6.8,16.2-15.4,16.7.2.1.3.4.3.6Z"/>
    <path class="st0" d="M385.4,48.5c8,0,14.5-6.5,14.8-14.6-8.1-.9-14.4-7.7-14.7-16.1,0,0,0,0,0,0-.3,8.4-6.7,15.3-14.9,16.1.3,8.1,6.8,14.6,14.8,14.6Z"/>
    <path class="st0" d="M418.1,50.4c0-.1,0-.2,0-.3,0,0,0,0-.1,0,0,.1,0,.2,0,.3Z"/>
    <path class="st0" d="M253.9,48.5c8,0,14.5-6.5,14.8-14.5-8.4-.6-15.1-7.5-15.4-16.1,0,0,0,0,0,0-.3,8.2-6.4,14.9-14.2,16,.3,8.1,6.8,14.6,14.8,14.6Z"/>
    <path class="st0" d="M418.2,48.5c8,0,14.5-6.5,14.8-14.6-8-1-14.3-7.8-14.5-16.1,0,0,0,0,0,0-.3,8.5-6.8,15.4-15.1,16.1.3,8.1,6.8,14.5,14.8,14.5Z"/>
    <path class="st0" d="M352.5,48.5c8,0,14.5-6.5,14.8-14.6-8.2-.8-14.6-7.7-14.9-16.1,0,0,0,0,0,0-.3,8.4-6.7,15.2-14.7,16.1.3,8.1,6.8,14.6,14.8,14.6Z"/>
    <path class="st0" d="M122.5,48.5c8,0,14.5-6.4,14.8-14.5-8.7-.2-15.8-7.3-16.1-16.1,0,0,0,0,0,0-.3,7.9-6,14.5-13.6,15.9.2,8.2,6.8,14.7,14.8,14.7Z"/>
    <path class="st0" d="M89.6,48.5c8,0,14.5-6.4,14.8-14.5-8.8-.1-15.9-7.3-16.2-16.2,0,0,0,0,0,0-.3,7.9-6,14.4-13.4,15.9.2,8.2,6.8,14.8,14.8,14.8Z"/>
    <path class="st0" d="M402.7,67.2c.2.1.3.4.3.6,0,8.3,6.7,15.1,14.8,15.1s14.8-6.8,14.8-15.1.1-.5.4-.7c-8.4-.8-14.9-8-14.9-16.7,0,8.9-6.8,16.2-15.4,16.7Z"/>
    <path class="st0" d="M188.2,48.5c8,0,14.5-6.4,14.8-14.5-8.5-.4-15.4-7.4-15.7-16.1,0,0,0,0,0,0-.3,8.1-6.2,14.7-13.9,15.9.2,8.1,6.8,14.7,14.8,14.7Z"/>
    <path class="st0" d="M438.5,101.9c0,8.3,6.7,15.1,14.8,15.1s14.8-6.8,14.8-15.1,0,0,0,0c-8.2-.9-14.6-8.1-14.6-16.7,0,8.8-6.7,16-15.1,16.7Z"/>
    <path class="st0" d="M155.3,48.5c8,0,14.5-6.4,14.8-14.5-8.6-.3-15.6-7.4-15.9-16.1,0,0,0,0,0,0-.3,8-6.1,14.6-13.7,15.9.2,8.2,6.8,14.7,14.8,14.7Z"/>
    <path class="st0" d="M89.4,50.1c0,.1,0,.2,0,.3,0-.1,0-.2,0-.3,0,0,0,0-.1,0Z"/>
    <path class="st0" d="M158.6,118.6s0,0,0,0c0,8.4-6.1,15.3-14,16.5.2,8.1,6.8,14.7,14.8,14.7s14.5-6.5,14.8-14.5c-8.7-.4-15.6-7.8-15.6-16.7Z"/>
    <path class="st0" d="M191.5,118.6h0c0,8.4-6.1,15.3-14,16.5.2,8.1,6.8,14.7,14.8,14.7s14.5-6.5,14.8-14.5c-8.7-.4-15.6-7.8-15.6-16.7Z"/>
    <path class="st0" d="M224.3,118.6h0c0,8.4-6.1,15.3-14,16.5.2,8.1,6.8,14.7,14.8,14.7s14.5-6.5,14.8-14.5c-8.7-.4-15.6-7.8-15.6-16.7Z"/>
    <path class="st0" d="M60,118.6s0,0,0,0c0,8.4-6.1,15.3-14,16.5.2,8.1,6.8,14.7,14.8,14.7s14.5-6.5,14.8-14.5c-8.7-.4-15.6-7.8-15.6-16.7Z"/>
    <path class="st0" d="M125.7,118.6s0,0,0,0c0,8.4-6.1,15.3-14,16.5.2,8.1,6.8,14.7,14.8,14.7s14.5-6.5,14.8-14.5c-8.7-.4-15.6-7.8-15.6-16.7Z"/>
    <path class="st0" d="M257.2,118.6h0c0,8.4-6.1,15.3-14,16.5.2,8.1,6.8,14.7,14.8,14.7s14.5-6.5,14.8-14.5c-8.7-.4-15.6-7.8-15.6-16.7Z"/>
    <path class="st0" d="M92.9,118.6s0,0,0,0c0,8.4-6.1,15.3-14,16.5.2,8.1,6.8,14.7,14.8,14.7s14.5-6.5,14.8-14.5c-8.7-.4-15.6-7.8-15.6-16.7Z"/>
    <path class="st0" d="M454.4,118.6h0c0,8.4-6.1,15.3-14,16.5.2,8.1,6.8,14.7,14.8,14.7s14.5-6.5,14.8-14.5c-8.7-.4-15.6-7.8-15.6-16.7Z"/>
    <path class="st0" d="M388.6,118.6h0c0,8.4-6.1,15.3-14,16.5.2,8.1,6.8,14.7,14.8,14.7s14.5-6.5,14.8-14.5c-8.7-.4-15.6-7.8-15.6-16.7Z"/>
    <path class="st0" d="M421.5,118.6h0c0,8.4-6.1,15.3-14,16.5.2,8.1,6.8,14.7,14.8,14.7s14.5-6.5,14.8-14.5c-8.7-.4-15.6-7.8-15.6-16.7Z"/>
    <path class="st0" d="M27.2,118.6s0,0,0,0c0,8.4-6.1,15.3-14,16.5.2,8.1,6.8,14.7,14.8,14.7s14.5-6.5,14.8-14.5c-8.7-.4-15.6-7.8-15.6-16.7Z"/>
    <path class="st0" d="M355.8,118.6h0c0,8.4-6.1,15.3-14,16.5.2,8.1,6.8,14.7,14.8,14.7s14.5-6.5,14.8-14.5c-8.7-.4-15.6-7.8-15.6-16.7Z"/>
    <path class="st0" d="M290.1,118.6h0c0,8.4-6.1,15.3-14,16.5.2,8.1,6.8,14.7,14.8,14.7s14.5-6.5,14.8-14.5c-8.7-.4-15.6-7.8-15.6-16.7Z"/>
    <path class="st0" d="M322.9,118.6h0c0,8.4-6.1,15.3-14,16.5.2,8.1,6.8,14.7,14.8,14.7s14.5-6.5,14.8-14.5c-8.7-.4-15.6-7.8-15.6-16.7Z"/>
    <path class="st0" d="M435.6,67.2c.2.1.3.4.3.6,0,8.3,6.7,15.1,14.8,15.1s14.8-6.8,14.8-15.1.1-.5.4-.7c-8.4-.8-14.9-8-14.9-16.7,0,8.9-6.8,16.2-15.4,16.7Z"/>
    <path class="st0" d="M43.6,133.7c8.2,0,14.8-6.8,14.8-15.1-8.8-.3-15.9-7.7-15.9-16.7,0,0,0,0,0,0,0,8.3-6,15.2-13.8,16.5,0,0,0,.1,0,.2,0,8.3,6.7,15.1,14.8,15.1Z"/>
    <path class="st0" d="M436.9,101.9s0,0,0,0c0,8.3-6,15.2-13.8,16.5,0,0,0,.1,0,.2,0,8.3,6.7,15.1,14.8,15.1s14.8-6.8,14.8-15.1c-8.8-.3-15.9-7.7-15.9-16.7Z"/>
    <path class="st0" d="M419.6,50c0,.1.1.3.1.4,0,8.3,6.7,15.1,14.8,15.1s14.8-6.8,14.8-15.1,0-.3.1-.4c-8.1-.8-14.5-7.6-14.8-16,0,0,0,0,0,0-.3,8.5-6.8,15.4-15,16Z"/>
    <path class="st0" d="M436.3,34c.3,8.1,6.8,14.5,14.8,14.5s14.6-6.5,14.8-14.6c-7.9-1-14.1-7.8-14.4-16.1,0,0,0,0,0,0-.3,8.6-6.9,15.5-15.3,16.2Z"/>
    <path class="st0" d="M455.9,118.4s0,.1,0,.2c0,8.3,6.7,15.1,14.8,15.1s14.8-6.8,14.8-15.1c-8.8-.3-15.9-7.7-15.9-16.7,0,0,0,0,0,0,0,8.3-6,15.2-13.8,16.5Z"/>
    <path class="st0" d="M405.6,101.9c0,8.3,6.7,15.1,14.8,15.1s14.8-6.8,14.8-15.1,0,0,0,0c-8.2-.9-14.6-8.1-14.6-16.7,0,8.8-6.7,16-15.1,16.7Z"/>
    <path class="st0" d="M420.1,84.4c.3.1.6.4.6.8,0-.4.4-.8.8-.8s.8.4.8.8c0,8.3,6.7,15.1,14.8,15.1s14.8-6.8,14.8-15.1.2-.5.4-.7c-.5,0-1.1,0-1.6,0-9.1,0-16.4-7.5-16.4-16.8,0,8.4-6.2,15.5-14.1,16.6Z"/>
    <path class="st0" d="M434,67.2c.2.1.3.4.3.6,0-.2.1-.5.3-.6,0,0,0,0,0,0-.2,0-.4,0-.5,0Z"/>
    <path class="st0" d="M60,84.4c.4,0,.8.4.8.8,0,8.3,6.7,15.1,14.8,15.1s14.8-6.8,14.8-15.1.2-.5.4-.7c-.5,0-1.1,0-1.6,0-9.1,0-16.4-7.5-16.4-16.8,0,8.4-6.2,15.5-14.1,16.6.3.1.6.4.6.8,0-.4.4-.8.8-.8Z"/>
    <path class="st0" d="M58.9,117c8.2,0,14.8-6.8,14.8-15.1s0,0,0,0c-8.2-.9-14.6-8.1-14.6-16.7,0,8.8-6.7,16-15.1,16.7,0,8.3,6.7,15.1,14.8,15.1Z"/>
    <path class="st0" d="M55.2,17.8s0,0,0,0c-.3,7.8-5.9,14.3-13.2,15.8.2,8.2,6.8,14.8,14.8,14.8s14.5-6.4,14.8-14.5c-8.9,0-16.1-7.2-16.4-16.2Z"/>
    <path class="st0" d="M40.2,67.2s0,0,0,0c-.2,0-.4,0-.5,0,.2.1.3.4.3.6,0-.2.1-.5.3-.6Z"/>
    <path class="st0" d="M73.1,65.6c8.2,0,14.8-6.8,14.8-15.1s0-.3.1-.4c-8.1-.8-14.5-7.7-14.8-16.1,0,0,0,0,0,0-.3,8.5-6.8,15.4-15.1,16.1,0,.1.1.3.1.4,0,8.3,6.7,15.1,14.8,15.1Z"/>
    <path class="st0" d="M41.5,67.8c0,8.3,6.7,15.1,14.8,15.1s14.8-6.8,14.8-15.1.1-.5.4-.7c-8.4-.8-14.9-8-14.9-16.7,0,8.9-6.8,16.2-15.4,16.7.2.1.3.4.3.6Z"/>
    <path class="st0" d="M221.1,48.5c8,0,14.5-6.4,14.8-14.5-8.5-.5-15.3-7.5-15.6-16.1,0,0,0,0,0,0-.3,8.1-6.3,14.8-14.1,16,.2,8.1,6.8,14.7,14.8,14.7Z"/>
    <path class="st0" d="M237.1,67.8c0-.2.1-.5.3-.6,0,0,0,0,0,0-.2,0-.4,0-.5,0,.2.1.3.4.3.6Z"/>
    <path class="st0" d="M140.1,67.8c0,8.3,6.7,15.1,14.8,15.1s14.8-6.8,14.8-15.1.1-.5.4-.7c-8.4-.8-14.9-8-14.9-16.7,0,8.9-6.8,16.2-15.4,16.7.2.1.3.4.3.6Z"/>
    <path class="st0" d="M138.8,67.2s0,0,0,0c-.2,0-.4,0-.5,0,.2.1.3.4.3.6,0-.2.1-.5.3-.6Z"/>
    <path class="st0" d="M173,67.8c0,8.3,6.7,15.1,14.8,15.1s14.8-6.8,14.8-15.1.1-.5.4-.7c-8.4-.8-14.9-8-14.9-16.7,0,8.9-6.8,16.2-15.4,16.7.2.1.3.4.3.6Z"/>
    <path class="st0" d="M205.8,67.8c0,8.3,6.7,15.1,14.8,15.1s14.8-6.8,14.8-15.1.1-.5.4-.7c-8.4-.8-14.9-8-14.9-16.7,0,8.9-6.8,16.2-15.4,16.7.2.1.3.4.3.6Z"/>
    <path class="st0" d="M204.2,67.8c0-.2.1-.5.3-.6,0,0,0,0,0,0-.2,0-.4,0-.5,0,.2.1.3.4.3.6Z"/>
    <path class="st0" d="M171.4,67.8c0,8.4-6.2,15.5-14.1,16.6.3.1.6.4.6.8,0-.4.4-.8.8-.8s.8.4.8.8c0,8.3,6.7,15.1,14.8,15.1s14.8-6.8,14.8-15.1.2-.5.4-.7c-.5,0-1.1,0-1.6,0-9.1,0-16.4-7.5-16.4-16.8Z"/>
    <path class="st0" d="M171.4,67.8c0-.2.1-.5.3-.6,0,0,0,0,0,0-.2,0-.4,0-.5,0,.2.1.3.4.3.6Z"/>
    <path class="st0" d="M335.7,67.8c0,8.4-6.2,15.5-14.1,16.6.3.1.6.4.6.8,0-.4.4-.8.8-.8s.8.4.8.8c0,8.3,6.7,15.1,14.8,15.1s14.8-6.8,14.8-15.1.2-.5.4-.7c-.5,0-1.1,0-1.6,0-9.1,0-16.4-7.5-16.4-16.8Z"/>
    <path class="st0" d="M302.8,67.8c0,8.4-6.2,15.5-14.1,16.6.3.1.6.4.6.8,0-.4.4-.8.8-.8s.8.4.8.8c0,8.3,6.7,15.1,14.8,15.1s14.8-6.8,14.8-15.1.2-.5.4-.7c-.5,0-1.1,0-1.6,0-9.1,0-16.4-7.5-16.4-16.8Z"/>
    <path class="st0" d="M204.2,67.8c0,8.4-6.2,15.5-14.1,16.6.3.1.6.4.6.8,0-.4.4-.8.8-.8s.8.4.8.8c0,8.3,6.7,15.1,14.8,15.1s14.8-6.8,14.8-15.1.2-.5.4-.7c-.5,0-1.1,0-1.6,0-9.1,0-16.4-7.5-16.4-16.8Z"/>
    <path class="st0" d="M354.4,84.4c.3.1.6.4.6.8,0-.4.4-.8.8-.8s.8.4.8.8c0,8.3,6.7,15.1,14.8,15.1s14.8-6.8,14.8-15.1.2-.5.4-.7c-.5,0-1.1,0-1.6,0-9.1,0-16.4-7.5-16.4-16.8,0,8.4-6.2,15.5-14.1,16.6Z"/>
    <path class="st0" d="M237.1,67.8c0,8.4-6.2,15.5-14.1,16.6.3.1.6.4.6.8,0-.4.4-.8.8-.8s.8.4.8.8c0,8.3,6.7,15.1,14.8,15.1s14.8-6.8,14.8-15.1.2-.5.4-.7c-.5,0-1.1,0-1.6,0-9.1,0-16.4-7.5-16.4-16.8Z"/>
    <path class="st0" d="M270,67.8c0,8.4-6.2,15.5-14.1,16.6.3.1.6.4.6.8,0-.4.4-.8.8-.8s.8.4.8.8c0,8.3,6.7,15.1,14.8,15.1s14.8-6.8,14.8-15.1.2-.5.4-.7c-.5,0-1.1,0-1.6,0-9.1,0-16.4-7.5-16.4-16.8Z"/>
    <path class="st0" d="M238.7,67.8c0,8.3,6.7,15.1,14.8,15.1s14.8-6.8,14.8-15.1.1-.5.4-.7c-8.4-.8-14.9-8-14.9-16.7,0,8.9-6.8,16.2-15.4,16.7.2.1.3.4.3.6Z"/>
    <path class="st0" d="M122.3,50.1c0,.1,0,.2,0,.3,0-.1,0-.2,0-.3,0,0,0,0-.1,0Z"/>
    <path class="st0" d="M106.1,33.9s0,0,0,0c-.3,8.5-6.8,15.4-15.1,16.1,0,.1.1.3.1.4,0,8.3,6.7,15.1,14.8,15.1s14.8-6.8,14.8-15.1,0-.3.1-.4c-8.1-.8-14.5-7.7-14.8-16.1Z"/>
    <path class="st0" d="M401.7,65.6c8.2,0,14.8-6.8,14.8-15.1s0-.3.1-.4c-8.1-.8-14.5-7.6-14.8-16,0,0,0,0,0,0-.3,8.5-6.8,15.4-15,16,0,.1.1.3.1.4,0,8.3,6.7,15.1,14.8,15.1Z"/>
    <path class="st0" d="M451,50.1s0,0-.1,0c0,.1,0,.2,0,.3,0-.1,0-.2,0-.3Z"/>
    <path class="st0" d="M56.6,50.1c0,.1,0,.2,0,.3,0-.1,0-.2,0-.3,0,0,0,0-.1,0Z"/>
    <path class="st0" d="M368.3,67.2c.2.1.3.4.3.6,0-.2.1-.5.3-.6,0,0,0,0,0,0-.2,0-.4,0-.5,0Z"/>
    <path class="st0" d="M385.3,50.1s0,0-.1,0c0,.1,0,.2,0,.3,0-.1,0-.2,0-.3Z"/>
    <path class="st0" d="M302.8,67.8c0-.2.1-.5.3-.6,0,0,0,0,0,0-.2,0-.4,0-.5,0,.2.1.3.4.3.6Z"/>
    <path class="st0" d="M271.6,67.8c0,8.3,6.7,15.1,14.8,15.1s14.8-6.8,14.8-15.1.1-.5.4-.7c-8.4-.8-14.9-8-14.9-16.7,0,8.9-6.8,16.2-15.4,16.7.2.1.3.4.3.6Z"/>
    <path class="st0" d="M270,67.8c0-.2.1-.5.3-.6,0,0,0,0,0,0-.2,0-.4,0-.5,0,.2.1.3.4.3.6Z"/>
    <path class="st0" d="M335.7,67.8c0-.2.1-.5.3-.6,0,0,0,0,0,0-.2,0-.4,0-.5,0,.2.1.3.4.3.6Z"/>
    <path class="st0" d="M337.3,67.8c0,8.3,6.7,15.1,14.8,15.1s14.8-6.8,14.8-15.1.1-.5.4-.7c-8.4-.8-14.9-8-14.9-16.7,0,8.9-6.8,16.2-15.4,16.7.2.1.3.4.3.6Z"/>
    <path class="st0" d="M304.4,67.8c0,8.3,6.7,15.1,14.8,15.1s14.8-6.8,14.8-15.1.1-.5.4-.7c-8.4-.8-14.9-8-14.9-16.7,0,8.9-6.8,16.2-15.4,16.7.2.1.3.4.3.6Z"/>
    <path class="st0" d="M372.7,101.9c0,8.3,6.7,15.1,14.8,15.1s14.8-6.8,14.8-15.1,0,0,0,0c-8.2-.9-14.6-8.1-14.6-16.7,0,8.8-6.7,16-15.1,16.7Z"/>
    <path class="st0" d="M157.8,85.2c0,8.8-6.7,16-15.1,16.7,0,8.3,6.7,15.1,14.8,15.1s14.8-6.8,14.8-15.1,0,0,0,0c-8.2-.9-14.6-8.1-14.6-16.7Z"/>
    <path class="st0" d="M124.9,85.2c0,8.8-6.7,16-15.1,16.7,0,8.3,6.7,15.1,14.8,15.1s14.8-6.8,14.8-15.1,0,0,0,0c-8.2-.9-14.6-8.1-14.6-16.7Z"/>
    <path class="st0" d="M190.7,85.2c0,8.8-6.7,16-15.1,16.7,0,8.3,6.7,15.1,14.8,15.1s14.8-6.8,14.8-15.1,0,0,0,0c-8.2-.9-14.6-8.1-14.6-16.7Z"/>
    <path class="st0" d="M125.7,84.4c.4,0,.8.4.8.8,0,8.3,6.7,15.1,14.8,15.1s14.8-6.8,14.8-15.1.2-.5.4-.7c-.5,0-1.1,0-1.6,0-9.1,0-16.4-7.5-16.4-16.8,0,8.4-6.2,15.5-14.1,16.6.3.1.6.4.6.8,0-.4.4-.8.8-.8Z"/>
    <path class="st0" d="M107.3,67.8c0,8.3,6.7,15.1,14.8,15.1s14.8-6.8,14.8-15.1.1-.5.4-.7c-8.4-.8-14.9-8-14.9-16.7,0,8.9-6.8,16.2-15.4,16.7.2.1.3.4.3.6Z"/>
    <path class="st0" d="M105.9,67.2s0,0,0,0c-.2,0-.4,0-.5,0,.2.1.3.4.3.6,0-.2.1-.5.3-.6Z"/>
    <path class="st0" d="M223.5,85.2c0,8.8-6.7,16-15.1,16.7,0,8.3,6.7,15.1,14.8,15.1s14.8-6.8,14.8-15.1,0,0,0,0c-8.2-.9-14.6-8.1-14.6-16.7Z"/>
    <path class="st0" d="M401.1,67.2c.2.1.3.4.3.6,0-.2.1-.5.3-.6,0,0,0,0,0,0-.2,0-.4,0-.5,0Z"/>
    <path class="st0" d="M138.8,65.6c8.2,0,14.8-6.8,14.8-15.1s0-.3.1-.4c-8.1-.8-14.5-7.7-14.8-16.1,0,0,0,0,0,0-.3,8.5-6.8,15.4-15.1,16.1,0,.1.1.3.1.4,0,8.3,6.7,15.1,14.8,15.1Z"/>
    <path class="st0" d="M355,85.2c0,8.8-6.7,16-15.1,16.7,0,8.3,6.7,15.1,14.8,15.1s14.8-6.8,14.8-15.1,0,0,0,0c-8.2-.9-14.6-8.1-14.6-16.7Z"/>
    <path class="st0" d="M387.3,84.4c.3.1.6.4.6.8,0-.4.4-.8.8-.8s.8.4.8.8c0,8.3,6.7,15.1,14.8,15.1s14.8-6.8,14.8-15.1.2-.5.4-.7c-.5,0-1.1,0-1.6,0-9.1,0-16.4-7.5-16.4-16.8,0,8.4-6.2,15.5-14.1,16.6Z"/>
    <path class="st0" d="M322.1,85.2c0,8.8-6.7,16-15.1,16.7,0,8.3,6.7,15.1,14.8,15.1s14.8-6.8,14.8-15.1,0,0,0,0c-8.2-.9-14.6-8.1-14.6-16.7Z"/>
    <path class="st0" d="M289.2,85.2c0,8.8-6.7,16-15.1,16.7,0,8.3,6.7,15.1,14.8,15.1s14.8-6.8,14.8-15.1,0,0,0,0c-8.2-.9-14.6-8.1-14.6-16.7Z"/>
    <path class="st0" d="M256.4,85.2c0,8.8-6.7,16-15.1,16.7,0,8.3,6.7,15.1,14.8,15.1s14.8-6.8,14.8-15.1,0,0,0,0c-8.2-.9-14.6-8.1-14.6-16.7Z"/>
    <path class="st0" d="M303.1,65.6c8.2,0,14.8-6.8,14.8-15.1s0-.3.1-.4c-8.1-.8-14.5-7.6-14.8-16,0,0,0,0,0,0-.3,8.5-6.8,15.4-15,16,0,.1.1.3.1.4,0,8.3,6.7,15.1,14.8,15.1Z"/>
    <path class="st0" d="M369.8,67.2c.2.1.3.4.3.6,0,8.3,6.7,15.1,14.8,15.1s14.8-6.8,14.8-15.1.1-.5.4-.7c-8.4-.8-14.9-8-14.9-16.7,0,8.9-6.8,16.2-15.4,16.7Z"/>
    <path class="st0" d="M336,65.6c8.2,0,14.8-6.8,14.8-15.1s0-.3.1-.4c-8.1-.8-14.5-7.6-14.8-16,0,0,0,0,0,0-.3,8.5-6.8,15.4-15,16,0,.1.1.3.1.4,0,8.3,6.7,15.1,14.8,15.1Z"/>
    <path class="st0" d="M286.7,50.1s0,0-.1,0c0,.1,0,.2,0,.3,0-.1,0-.2,0-.3Z"/>
    <path class="st0" d="M368.8,65.6c8.2,0,14.8-6.8,14.8-15.1s0-.3.1-.4c-8.1-.8-14.5-7.6-14.8-16,0,0,0,0,0,0-.3,8.5-6.8,15.4-15,16,0,.1.1.3.1.4,0,8.3,6.7,15.1,14.8,15.1Z"/>
    <path class="st0" d="M270.2,65.6c8.2,0,14.8-6.8,14.8-15.1s0-.3.1-.4c-8.1-.8-14.5-7.6-14.8-16,0,0,0,0,0,0-.3,8.5-6.8,15.4-15.1,16.1,0,.1.1.3.1.4,0,8.3,6.7,15.1,14.8,15.1Z"/>
    <path class="st0" d="M352.5,50.1s0,0-.1,0c0,.1,0,.2,0,.3,0-.1,0-.2,0-.3Z"/>
    <path class="st0" d="M221,50.1s0,0-.1,0c0,.1,0,.2,0,.3,0-.1,0-.2,0-.3Z"/>
    <path class="st0" d="M188.2,50.1s0,0-.1,0c0,.1,0,.2,0,.3,0-.1,0-.2,0-.3Z"/>
    <path class="st0" d="M204.5,65.6c8.2,0,14.8-6.8,14.8-15.1s0-.3.1-.4c-8.1-.8-14.5-7.6-14.8-16,0,0,0,0,0,0-.3,8.5-6.8,15.4-15.1,16.1,0,.1.1.3.1.4,0,8.3,6.7,15.1,14.8,15.1Z"/>
    <path class="st0" d="M171.6,65.6c8.2,0,14.8-6.8,14.8-15.1s0-.3.1-.4c-8.1-.8-14.5-7.7-14.8-16.1,0,0,0,0,0,0-.3,8.5-6.8,15.4-15.1,16.1,0,.1.1.3.1.4,0,8.3,6.7,15.1,14.8,15.1Z"/>
    <path class="st0" d="M237.4,65.6c8.2,0,14.8-6.8,14.8-15.1s0-.3.1-.4c-8.1-.8-14.5-7.6-14.8-16,0,0,0,0,0,0-.3,8.5-6.8,15.4-15.1,16.1,0,.1.1.3.1.4,0,8.3,6.7,15.1,14.8,15.1Z"/>
    <path class="st0" d="M253.9,50.1s0,0-.1,0c0,.1,0,.2,0,.3,0-.1,0-.2,0-.3Z"/>
    <path class="st0" d="M155.3,50.1s0,0-.1,0c0,.1,0,.2,0,.3,0-.1,0-.2,0-.3Z"/>
    <path class="st0" d="M319.6,50.1s0,0-.1,0c0,.1,0,.2,0,.3,0-.1,0-.2,0-.3Z"/>
    <path class="st0" d="M188.9,17.7c.3,8.1,6.8,14.6,14.9,14.6s14.6-6.5,14.9-14.6c-8.5-.7-15.2-7.9-15.2-16.7,0,8.6-6.4,15.7-14.6,16.7Z"/>
    <path class="st0" d="M255,17.7c.2,8.1,6.8,14.7,14.9,14.7s14.6-6.5,14.9-14.6c-8.6-.5-15.5-7.8-15.5-16.7,0,8.5-6.2,15.6-14.3,16.6Z"/>
    <path class="st0" d="M221.9,17.7c.3,8.1,6.8,14.6,14.9,14.6s14.6-6.5,14.9-14.6c-8.6-.6-15.3-7.9-15.3-16.7,0,8.6-6.3,15.6-14.5,16.6Z"/>
    <path class="st0" d="M155.9,17.8c.3,8.1,6.9,14.6,14.9,14.6s14.6-6.5,14.9-14.6c-8.4-.7-15-7.9-15-16.7,0,8.7-6.5,15.8-14.8,16.7Z"/>
    <path class="st0" d="M467.4,67.2s0,0,0,0c-.2,0-.4,0-.5,0,.2.1.3.4.3.6,0-.2.1-.5.3-.6Z"/>
    <path class="st0" d="M122.8,17.8c.3,8.1,6.9,14.6,14.9,14.6s14.6-6.5,14.9-14.6c-8.3-.8-14.9-8-14.9-16.7,0,8.7-6.6,15.9-14.9,16.7Z"/>
    <path class="st0" d="M321,17.7c.2,8.1,6.8,14.7,14.9,14.7s14.6-6.5,14.9-14.5c-8.8-.3-15.8-7.7-15.8-16.7,0,8.4-6.1,15.4-14,16.6Z"/>
    <path class="st0" d="M288,17.7c.2,8.1,6.8,14.7,14.9,14.7s14.6-6.5,14.9-14.5c-8.7-.4-15.7-7.8-15.7-16.7,0,8.5-6.2,15.5-14.2,16.6Z"/>
    <path class="st0" d="M354.1,17.6c.2,8.2,6.8,14.7,14.9,14.7s14.6-6.5,14.9-14.5c-8.8-.3-16-7.7-16-16.8,0,8.3-6,15.3-13.8,16.6Z"/>
    <path class="st0" d="M27.1,84.4c.4,0,.8.4.8.8,0,8.3,6.7,15.1,14.8,15.1s14.8-6.8,14.8-15.1.2-.5.4-.7c-.5,0-1.1,0-1.6,0-9.1,0-16.4-7.5-16.4-16.8,0,8.4-6.2,15.5-14.1,16.6.3.1.6.4.6.8,0-.4.4-.8.8-.8Z"/>
    <path class="st0" d="M420.1,17.6c.2,8.2,6.8,14.8,14.9,14.8s14.6-6.5,14.9-14.5c-9,0-16.3-7.6-16.3-16.8,0,8.2-5.8,15.1-13.5,16.5Z"/>
    <path class="st0" d="M56.8,17.8c.3,8.1,6.9,14.6,14.9,14.6s14.6-6.5,14.9-14.6c-8.2-1-14.6-8.1-14.6-16.7,0,8.8-6.7,16.1-15.2,16.7Z"/>
    <path class="st0" d="M89.8,17.8c.3,8.1,6.9,14.6,14.9,14.6s14.6-6.5,14.9-14.6c-8.3-.9-14.7-8-14.7-16.7,0,8.8-6.7,16-15.1,16.7Z"/>
    <path class="st0" d="M387.1,17.6c.2,8.2,6.8,14.8,14.9,14.8s14.6-6.5,14.9-14.5c-8.9-.2-16.1-7.6-16.1-16.8,0,8.3-5.9,15.2-13.7,16.5Z"/>
    <path class="st3" d="M54.4,16.4c.4,0,.8.4.8.8,0-.4.4-.8.8-.8s.8.4.8.8,0,.4,0,.6c8.5-.6,15.2-7.9,15.2-16.7s-.4-.8-.8-.8-.8.4-.8.8c0,8.3-6.7,15.1-14.8,15.1s-8.9-2.2-11.6-5.7l-.5,1.9c2.6,2.9,6.1,4.8,10.1,5.3,0-.2,0-.3,0-.5,0-.4.4-.8.8-.8Z"/>
    <path class="st3" d="M55.2,17.2c0,.2,0,.4,0,.6,0,0,0,0,0,0,0-.2,0-.4,0-.6Z"/>
    <path class="st3" d="M88.2,17.8c0-.2,0-.4,0-.6,0,.2,0,.4,0,.6,0,0,0,0,0,0Z"/>
    <path class="st3" d="M86.6,17.7c0-.2,0-.3,0-.5,0-.4.4-.8.8-.8s.8.4.8.8c0-.4.4-.8.8-.8s.8.4.8.8,0,.4,0,.6c8.4-.7,15.1-7.9,15.1-16.7s-.4-.8-.8-.8-.8.4-.8.8c0,8.3-6.7,15.1-14.8,15.1s-14.8-6.8-14.8-15.1-.4-.8-.8-.8-.8.4-.8.8c0,8.6,6.4,15.7,14.6,16.7Z"/>
    <path class="st3" d="M119.6,17.8c0-.2,0-.3,0-.5,0-.4.4-.8.8-.8s.8.4.8.8c0-.4.4-.8.8-.8s.8.4.8.8,0,.4,0,.5c8.4-.8,14.9-8,14.9-16.7s-.4-.8-.8-.8-.8.4-.8.8c0,8.3-6.7,15.1-14.8,15.1s-14.8-6.8-14.8-15.1-.4-.8-.8-.8-.8.4-.8.8c0,8.6,6.5,15.8,14.7,16.7Z"/>
    <path class="st3" d="M121.2,17.9c0-.2,0-.4,0-.6,0,.2,0,.4,0,.6,0,0,0,0,0,0Z"/>
    <path class="st3" d="M152.6,17.8c0-.2,0-.4,0-.5,0-.4.4-.8.8-.8s.8.4.8.8c0-.4.4-.8.8-.8s.8.4.8.8,0,.4,0,.5c8.3-.9,14.8-8,14.8-16.7s-.4-.8-.8-.8-.8.4-.8.8c0,8.3-6.7,15.1-14.8,15.1s-14.8-6.8-14.8-15.1-.4-.8-.8-.8-.8.4-.8.8c0,8.7,6.5,15.9,14.9,16.7Z"/>
    <path class="st3" d="M154.3,17.9c0-.2,0-.4,0-.6,0,.2,0,.4,0,.6,0,0,0,0,0,0Z"/>
    <path class="st3" d="M185.7,17.8c0-.2,0-.4,0-.5,0-.4.4-.8.8-.8s.8.4.8.8c0-.4.4-.8.8-.8s.8.4.8.8,0,.3,0,.5c8.2-.9,14.6-8,14.6-16.7s-.4-.8-.8-.8-.8.4-.8.8c0,8.3-6.7,15.1-14.8,15.1s-14.8-6.8-14.8-15.1-.4-.8-.8-.8-.8.4-.8.8c0,8.8,6.6,16,15,16.7Z"/>
    <path class="st3" d="M187.3,17.9c0-.2,0-.4,0-.6,0,.2,0,.4,0,.6,0,0,0,0,0,0Z"/>
    <path class="st3" d="M220.3,17.8c0-.2,0-.4,0-.6,0,.2,0,.4,0,.6,0,0,0,0,0,0Z"/>
    <path class="st3" d="M218.7,17.8c0-.2,0-.4,0-.6,0-.4.4-.8.8-.8s.8.4.8.8c0-.4.4-.8.8-.8s.8.4.8.8,0,.3,0,.5c8.1-1,14.5-8.1,14.5-16.6s-.4-.8-.8-.8-.8.4-.8.8c0,8.3-6.7,15.1-14.8,15.1s-14.8-6.8-14.8-15.1-.4-.8-.8-.8-.8.4-.8.8c0,8.8,6.7,16.1,15.2,16.7Z"/>
    <path class="st3" d="M253.4,17.8c0-.2,0-.4,0-.6,0,.2,0,.4,0,.6,0,0,0,0,0,0Z"/>
    <path class="st3" d="M251.7,17.8c0-.2,0-.4,0-.6,0-.4.4-.8.8-.8s.8.4.8.8c0-.4.4-.8.8-.8s.8.4.8.8,0,.3,0,.5c8.1-1.1,14.3-8.1,14.3-16.6s-.4-.8-.8-.8-.8.4-.8.8c0,8.3-6.7,15.1-14.8,15.1s-14.8-6.8-14.8-15.1-.4-.8-.8-.8-.8.4-.8.8c0,8.9,6.8,16.1,15.3,16.7Z"/>
    <path class="st3" d="M284.8,17.8c0-.2,0-.4,0-.6,0-.4.4-.8.8-.8s.8.4.8.8c0-.4.4-.8.8-.8s.8.4.8.8,0,.3,0,.4c8-1.1,14.2-8.1,14.2-16.6s-.4-.8-.8-.8-.8.4-.8.8c0,8.3-6.7,15.1-14.8,15.1s-14.8-6.8-14.8-15.1-.4-.8-.8-.8-.8.4-.8.8c0,8.9,6.9,16.2,15.5,16.7Z"/>
    <path class="st3" d="M286.4,17.8c0-.2,0-.4,0-.6,0,.2,0,.4,0,.6,0,0,0,0,0,0Z"/>
    <path class="st3" d="M319.4,17.8c0-.2,0-.4,0-.6,0,.2,0,.4,0,.6,0,0,0,0,0,0Z"/>
    <path class="st3" d="M317.8,17.8c0-.2,0-.4,0-.6,0-.4.4-.8.8-.8s.8.4.8.8c0-.4.4-.8.8-.8s.8.4.8.8,0,.3,0,.4c7.9-1.2,14-8.2,14-16.6s-.4-.8-.8-.8-.8.4-.8.8c0,8.3-6.7,15.1-14.8,15.1s-14.8-6.8-14.8-15.1-.4-.8-.8-.8-.8.4-.8.8c0,9,7,16.3,15.7,16.7Z"/>
    <path class="st3" d="M352.5,17.8c0-.2,0-.4,0-.6,0,.2,0,.4,0,.6,0,0,0,0,0,0Z"/>
    <path class="st3" d="M350.8,17.8c0-.2,0-.4,0-.6,0-.4.4-.8.8-.8s.8.4.8.8c0-.4.4-.8.8-.8s.8.4.8.8,0,.3,0,.4c7.8-1.3,13.8-8.2,13.8-16.6s-.4-.8-.8-.8-.8.4-.8.8c0,8.3-6.7,15.1-14.8,15.1s-14.8-6.8-14.8-15.1-.4-.8-.8-.8-.8.4-.8.8c0,9,7,16.4,15.8,16.7Z"/>
    <path class="st3" d="M385.5,17.8c0-.2,0-.4,0-.6,0,.2,0,.4,0,.6,0,0,0,0,0,0Z"/>
    <path class="st3" d="M383.9,17.8c0-.2,0-.4,0-.6,0-.4.4-.8.8-.8s.8.4.8.8c0-.4.4-.8.8-.8s.8.4.8.8,0,.2,0,.4c7.8-1.3,13.7-8.2,13.7-16.5s-.4-.8-.8-.8-.8.4-.8.8c0,8.3-6.7,15.1-14.8,15.1s-14.8-6.8-14.8-15.1-.4-.8-.8-.8-.8.4-.8.8c0,9.1,7.1,16.5,16,16.8Z"/>
    <path class="st3" d="M416.9,17.8c0-.2,0-.4,0-.6,0-.4.4-.8.8-.8s.8.4.8.8c0-.4.4-.8.8-.8s.8.4.8.8,0,.2,0,.3c7.7-1.4,13.5-8.3,13.5-16.5s-.4-.8-.8-.8-.8.4-.8.8c0,8.3-6.7,15.1-14.8,15.1s-14.8-6.8-14.8-15.1-.4-.8-.8-.8-.8.4-.8.8c0,9.1,7.2,16.6,16.1,16.8Z"/>
    <path class="st3" d="M418.5,17.8c0-.2,0-.4,0-.6,0,.2,0,.4,0,.6,0,0,0,0,0,0Z"/>
    <path class="st3" d="M449.9,17.9c0-.2,0-.4,0-.6,0-.4.4-.8.8-.8s.8.4.8.8c0-.4.4-.8.8-.8s.8.4.8.8,0,.2,0,.3c2.9-.6,5.6-1.9,7.8-3.9l-.5-1.8c-2.7,2.7-6.3,4.3-10.3,4.3-8.2,0-14.8-6.8-14.8-15.1s-.4-.8-.8-.8-.8.4-.8.8c0,9.2,7.3,16.7,16.3,16.8Z"/>
    <path class="st3" d="M451.6,17.8c0-.2,0-.4,0-.5,0,.2,0,.4,0,.5,0,0,0,0,0,0Z"/>
    <path class="st3" d="M39.5,32.5c.4,0,.8.4.8.8,0-.4.4-.8.8-.8s.8.4.8.8,0,.2,0,.3c7.3-1.5,12.9-8,13.2-15.8-.5,0-1.1,0-1.6-.1-.3,8.1-6.8,14.7-14.9,14.7s-.4,0-.6,0l-.4,1.6c.3,0,.7,0,1,0s0,0,0,0c0-.2,0-.4,0-.7,0-.4.4-.8.8-.8Z"/>
    <path class="st3" d="M40.3,33.9s0,0,0,0c0-.2,0-.4,0-.6,0,.2,0,.4,0,.6Z"/>
    <path class="st3" d="M55.2,17.2c0-.4-.4-.8-.8-.8s-.8.4-.8.8,0,.3,0,.5c.5,0,1.1.1,1.6.1,0-.2,0-.4,0-.6Z"/>
    <path class="st3" d="M73.2,33.3c0,.2,0,.4,0,.6,0,0,0,0,0,0,0-.2,0-.4,0-.6Z"/>
    <path class="st3" d="M72.4,32.5c.4,0,.8.4.8.8,0-.4.4-.8.8-.8s.8.4.8.8,0,.2,0,.4c7.4-1.4,13.1-8,13.4-15.9-.5,0-1.1,0-1.6-.1-.3,8.1-6.8,14.6-14.9,14.6s-14.6-6.5-14.9-14.6c-.4,0-.8,0-1.2,0s-.3,0-.4,0c.3,8.9,7.5,16.1,16.4,16.2,0-.2,0-.4,0-.7,0-.4.4-.8.8-.8Z"/>
    <path class="st3" d="M55.6,17.9c.4,0,.8,0,1.2,0,0-.2,0-.4,0-.6,0-.4-.4-.8-.8-.8s-.8.4-.8.8,0,.4,0,.6c.1,0,.3,0,.4,0Z"/>
    <path class="st3" d="M88.2,17.2c0-.4-.4-.8-.8-.8s-.8.4-.8.8,0,.3,0,.5c.5,0,1.1,0,1.6.1,0-.2,0-.4,0-.6Z"/>
    <path class="st3" d="M106.1,33.9c0-.2,0-.4,0-.6,0,.2,0,.4,0,.6,0,0,0,0,0,0Z"/>
    <path class="st3" d="M88.2,17.8c.3,8.9,7.5,16,16.2,16.2,0-.2,0-.4,0-.7,0-.4.4-.8.8-.8s.8.4.8.8c0-.4.4-.8.8-.8s.8.4.8.8,0,.3,0,.4c7.5-1.4,13.3-7.9,13.6-15.9-.5,0-1.1,0-1.6,0-.3,8.1-6.9,14.6-14.9,14.6s-14.6-6.5-14.9-14.6c-.4,0-.9,0-1.4,0s-.2,0-.3,0Z"/>
    <path class="st3" d="M88.5,17.9c.5,0,.9,0,1.4,0,0-.2,0-.4,0-.6,0-.4-.4-.8-.8-.8s-.8.4-.8.8,0,.4,0,.6c0,0,.2,0,.3,0Z"/>
    <path class="st3" d="M121.2,17.2c0-.4-.4-.8-.8-.8s-.8.4-.8.8,0,.3,0,.5c.5,0,1.1,0,1.6,0,0-.2,0-.4,0-.6Z"/>
    <path class="st3" d="M138.9,34c0-.2,0-.4,0-.6,0,.2,0,.4,0,.6,0,0,0,0,0,0Z"/>
    <path class="st3" d="M121.2,17.9c.3,8.8,7.4,15.9,16.1,16.1,0-.2,0-.4,0-.7,0-.4.4-.8.8-.8s.8.4.8.8c0-.4.4-.8.8-.8s.8.4.8.8,0,.3,0,.4c7.6-1.3,13.4-7.9,13.7-15.9,0,0,0,0,0,0-.5,0-1.1,0-1.6,0-.3,8.1-6.9,14.6-14.9,14.6s-14.6-6.5-14.9-14.6c-.5,0-1,0-1.5,0s0,0,0,0Z"/>
    <path class="st3" d="M121.3,17.9c.5,0,1,0,1.5,0,0-.2,0-.4,0-.5,0-.4-.4-.8-.8-.8s-.8.4-.8.8,0,.4,0,.6c0,0,0,0,0,0Z"/>
    <path class="st3" d="M154.2,17.9c0-.2,0-.4,0-.6,0-.4-.4-.8-.8-.8s-.8.4-.8.8,0,.4,0,.5c.5,0,1,0,1.6,0s0,0,0,0Z"/>
    <path class="st3" d="M171.8,34c0-.2,0-.4,0-.6,0,.2,0,.4,0,.6,0,0,0,0,0,0Z"/>
    <path class="st3" d="M170.2,34c0-.2,0-.4,0-.6,0-.4.4-.8.8-.8s.8.4.8.8c0-.4.4-.8.8-.8s.8.4.8.8,0,.3,0,.4c7.7-1.2,13.6-7.9,13.9-15.9,0,0-.1,0-.2,0-.5,0-.9,0-1.4,0-.3,8.1-6.9,14.6-14.9,14.6s-14.6-6.5-14.9-14.6c-.5,0-1.1,0-1.6,0,.3,8.8,7.3,15.8,15.9,16.1Z"/>
    <path class="st3" d="M155.9,17.8c0-.2,0-.3,0-.5,0-.4-.4-.8-.8-.8s-.8.4-.8.8,0,.4,0,.6c.5,0,1.1,0,1.6,0Z"/>
    <path class="st3" d="M187.3,17.9c0-.2,0-.4,0-.6,0-.4-.4-.8-.8-.8s-.8.4-.8.8,0,.4,0,.5c.5,0,.9,0,1.4,0s.1,0,.2,0Z"/>
    <path class="st3" d="M203,34c0-.2,0-.4,0-.6,0-.4.4-.8.8-.8s.8.4.8.8c0-.4.4-.8.8-.8s.8.4.8.8,0,.3,0,.5c7.8-1.2,13.8-7.8,14.1-16-.1,0-.2,0-.4,0-.4,0-.8,0-1.3,0-.3,8.1-6.9,14.6-14.9,14.6s-14.6-6.5-14.9-14.6c-.5,0-1.1,0-1.6.1.3,8.7,7.2,15.7,15.7,16.1Z"/>
    <path class="st3" d="M204.6,34c0-.2,0-.4,0-.6,0,.2,0,.4,0,.6,0,0,0,0,0,0Z"/>
    <path class="st3" d="M188.9,17.7c0-.2,0-.3,0-.5,0-.4-.4-.8-.8-.8s-.8.4-.8.8,0,.4,0,.6c.5,0,1.1,0,1.6-.1Z"/>
    <path class="st3" d="M220.3,17.8c0-.2,0-.4,0-.6,0-.4-.4-.8-.8-.8s-.8.4-.8.8,0,.4,0,.6c.4,0,.8,0,1.3,0s.2,0,.4,0Z"/>
    <path class="st3" d="M237.5,34c0-.2,0-.4,0-.6,0,.2,0,.4,0,.6,0,0,0,0,0,0Z"/>
    <path class="st3" d="M235.9,34c0-.2,0-.4,0-.6,0-.4.4-.8.8-.8s.8.4.8.8c0-.4.4-.8.8-.8s.8.4.8.8,0,.3,0,.5c7.8-1.1,14-7.8,14.2-16-.2,0-.3,0-.5,0-.4,0-.7,0-1.1,0-.3,8.1-6.9,14.6-14.9,14.6s-14.6-6.5-14.9-14.6c-.5,0-1.1.1-1.6.1.3,8.6,7.1,15.6,15.6,16.1Z"/>
    <path class="st3" d="M221.9,17.7c0-.2,0-.3,0-.5,0-.4-.4-.8-.8-.8s-.8.4-.8.8,0,.4,0,.6c.5,0,1.1,0,1.6-.1Z"/>
    <path class="st3" d="M253.3,17.8c0-.2,0-.4,0-.6,0-.4-.4-.8-.8-.8s-.8.4-.8.8,0,.4,0,.6c.4,0,.7,0,1.1,0s.3,0,.5,0Z"/>
    <path class="st3" d="M268.7,34c0-.2,0-.4,0-.6,0-.4.4-.8.8-.8s.8.4.8.8c0-.4.4-.8.8-.8s.8.4.8.8,0,.4,0,.5c7.9-1,14.1-7.8,14.4-16-.2,0-.4,0-.7,0-.3,0-.6,0-.9,0-.3,8.1-6.9,14.6-14.9,14.6s-14.7-6.5-14.9-14.7c-.5,0-1.1.1-1.6.1.3,8.6,7,15.5,15.4,16.1Z"/>
    <path class="st3" d="M270.4,34c0-.2,0-.4,0-.7,0,.2,0,.4,0,.7,0,0,0,0,0,0Z"/>
    <path class="st3" d="M255,17.7c0-.2,0-.3,0-.5,0-.4-.4-.8-.8-.8s-.8.4-.8.8,0,.4,0,.6c.5,0,1.1,0,1.6-.1Z"/>
    <path class="st3" d="M286.4,17.8c0-.2,0-.4,0-.6,0-.4-.4-.8-.8-.8s-.8.4-.8.8,0,.4,0,.6c.3,0,.6,0,.9,0s.4,0,.7,0Z"/>
    <path class="st3" d="M303.2,34c0-.2,0-.4,0-.7,0,.2,0,.4,0,.7,0,0,0,0,0,0Z"/>
    <path class="st3" d="M301.6,34c0-.2,0-.4,0-.6,0-.4.4-.8.8-.8s.8.4.8.8c0-.4.4-.8.8-.8s.8.4.8.8,0,.4,0,.5c8-.9,14.3-7.7,14.6-16.1-.3,0-.5,0-.8,0s-.5,0-.8,0c-.3,8.1-6.9,14.5-14.9,14.5s-14.7-6.5-14.9-14.7c-.5,0-1.1.1-1.6.1.3,8.5,6.9,15.5,15.2,16.1Z"/>
    <path class="st3" d="M288,17.7c0-.1,0-.3,0-.4,0-.4-.4-.8-.8-.8s-.8.4-.8.8,0,.4,0,.6c.5,0,1.1,0,1.6-.1Z"/>
    <path class="st3" d="M319.4,17.8c0-.2,0-.4,0-.6,0-.4-.4-.8-.8-.8s-.8.4-.8.8,0,.4,0,.6c.3,0,.5,0,.8,0s.5,0,.8,0Z"/>
    <path class="st3" d="M334.5,33.9c0-.2,0-.4,0-.6,0-.4.4-.8.8-.8s.8.4.8.8c0-.4.4-.8.8-.8s.8.4.8.8,0,.4,0,.6c8.1-.9,14.5-7.7,14.7-16.1-.3,0-.6,0-1,0s-.4,0-.6,0c-.3,8.1-6.9,14.5-14.9,14.5s-14.7-6.6-14.9-14.7c-.5,0-1.1.1-1.6.2.3,8.5,6.8,15.4,15,16.1Z"/>
    <path class="st3" d="M336.1,34c0-.2,0-.4,0-.7,0,.2,0,.4,0,.7,0,0,0,0,0,0Z"/>
    <path class="st3" d="M321,17.7c0-.1,0-.3,0-.4,0-.4-.4-.8-.8-.8s-.8.4-.8.8,0,.4,0,.6c.5,0,1.1,0,1.6-.2Z"/>
    <path class="st3" d="M352.4,17.8c0-.2,0-.4,0-.6,0-.4-.4-.8-.8-.8s-.8.4-.8.8,0,.4,0,.6c.2,0,.4,0,.6,0,.3,0,.7,0,1,0Z"/>
    <path class="st3" d="M367.3,33.9c0-.2,0-.4,0-.6,0-.4.4-.8.8-.8s.8.4.8.8c0-.4.4-.8.8-.8s.8.4.8.8,0,.4,0,.6c8.2-.8,14.6-7.7,14.9-16.1-.4,0-.8,0-1.1,0s-.3,0-.5,0c-.3,8.1-6.9,14.5-14.9,14.5s-14.7-6.6-14.9-14.7c-.5,0-1.1.1-1.6.2.3,8.4,6.7,15.3,14.9,16.1Z"/>
    <path class="st3" d="M369,34c0-.2,0-.4,0-.7,0,.2,0,.4,0,.7,0,0,0,0,0,0Z"/>
    <path class="st3" d="M354.1,17.6c0-.1,0-.3,0-.4,0-.4-.4-.8-.8-.8s-.8.4-.8.8,0,.4,0,.6c.5,0,1.1,0,1.6-.2Z"/>
    <path class="st3" d="M385.5,17.8c0-.2,0-.4,0-.6,0-.4-.4-.8-.8-.8s-.8.4-.8.8,0,.4,0,.6c.2,0,.3,0,.5,0,.4,0,.8,0,1.1,0Z"/>
    <path class="st3" d="M400.2,33.9c0-.2,0-.4,0-.6,0-.4.4-.8.8-.8s.8.4.8.8c0-.4.4-.8.8-.8s.8.4.8.8,0,.4,0,.6c8.3-.7,14.8-7.6,15.1-16.1-.4,0-.9,0-1.3,0s-.2,0-.3,0c-.3,8.1-6.9,14.5-14.9,14.5s-14.7-6.6-14.9-14.8c-.5,0-1.1.2-1.6.2.3,8.4,6.6,15.2,14.7,16.1Z"/>
    <path class="st3" d="M401.8,34c0-.2,0-.4,0-.7,0,.2,0,.4,0,.7,0,0,0,0,0,0Z"/>
    <path class="st3" d="M387.1,17.6c0-.1,0-.2,0-.4,0-.4-.4-.8-.8-.8s-.8.4-.8.8,0,.4,0,.6c.5,0,1.1-.1,1.6-.2Z"/>
    <path class="st3" d="M418.5,17.8c0-.2,0-.4,0-.6,0-.4-.4-.8-.8-.8s-.8.4-.8.8,0,.4,0,.6c.1,0,.2,0,.3,0,.4,0,.9,0,1.3,0Z"/>
    <path class="st3" d="M434.7,34s0,0,0,0c0-.2,0-.4,0-.7,0,.2,0,.4,0,.7Z"/>
    <path class="st3" d="M433.1,33.9c0-.2,0-.4,0-.5,0-.4.4-.8.8-.8s.8.4.8.8c0-.4.4-.8.8-.8s.8.4.8.8,0,.4,0,.6c8.4-.6,15-7.6,15.3-16.2-.5,0-1,0-1.4,0s-.1,0-.2,0c-.3,8.1-6.9,14.5-14.9,14.5s-14.7-6.6-14.9-14.8c-.5,0-1.1.2-1.6.2.3,8.3,6.5,15.1,14.5,16.1Z"/>
    <path class="st3" d="M420.1,17.6c0-.1,0-.2,0-.3,0-.4-.4-.8-.8-.8s-.8.4-.8.8,0,.4,0,.6c.5,0,1.1-.1,1.6-.2Z"/>
    <path class="st3" d="M451.5,17.8c0-.2,0-.4,0-.5,0-.4-.4-.8-.8-.8s-.8.4-.8.8,0,.4,0,.6c0,0,.1,0,.2,0,.5,0,1,0,1.4,0Z"/>
    <path class="st3" d="M465.9,33.9c0-.2,0-.3,0-.5s0-.4.2-.5l-.2-.6c-7.1-1-12.6-7.2-12.8-14.7-.5.1-1.1.2-1.6.2.3,8.3,6.4,15,14.4,16.1Z"/>
    <path class="st3" d="M452.4,16.4c-.4,0-.8.4-.8.8s0,.4,0,.5c.5,0,1.1-.1,1.6-.2,0-.1,0-.2,0-.3,0-.4-.4-.8-.8-.8Z"/>
    <path class="st3" d="M35.1,43.3l-.8,3.1c3.6-3,5.9-7.4,6.1-12.4-.5,0-1.1,0-1.6,0-.1,3.5-1.5,6.8-3.6,9.3Z"/>
    <path class="st3" d="M39.5,32.5c-.4,0-.8.4-.8.8s0,.4,0,.7c.5,0,1.1,0,1.6,0,0-.2,0-.4,0-.6,0-.4-.4-.8-.8-.8Z"/>
    <path class="st3" d="M55.8,49.6c.3,0,.6.2.7.5,0,0,0,0,.1,0,.1-.3.4-.5.7-.5s.6.2.7.4c8.2-.7,14.8-7.6,15.1-16.1-.5,0-1,0-1.5,0s0,0,0,0c-.3,8-6.9,14.5-14.8,14.5s-14.7-6.6-14.8-14.8c-.5.1-1.1.2-1.6.2.3,8.4,6.7,15.3,14.8,16.1.1-.2.4-.4.7-.4Z"/>
    <path class="st3" d="M41.9,33.3c0-.4-.4-.8-.8-.8s-.8.4-.8.8,0,.4,0,.6c.5,0,1.1-.1,1.6-.2,0-.1,0-.2,0-.3Z"/>
    <path class="st3" d="M72.4,32.5c-.4,0-.8.4-.8.8s0,.4,0,.7c0,0,0,0,0,0,.5,0,1,0,1.5,0,0-.2,0-.4,0-.6,0-.4-.4-.8-.8-.8Z"/>
    <path class="st3" d="M90.3,49.6c.3,0,.6.2.7.4,8.2-.7,14.8-7.6,15.1-16.1-.4,0-.9,0-1.3,0s-.2,0-.3,0c-.3,8-6.9,14.5-14.8,14.5s-14.6-6.6-14.8-14.8c-.5.1-1.1.2-1.6.2.3,8.4,6.7,15.3,14.8,16.1.1-.2.4-.4.7-.4s.6.2.7.5c0,0,0,0,.1,0,.1-.3.4-.5.7-.5Z"/>
    <path class="st3" d="M74.8,33.3c0-.4-.4-.8-.8-.8s-.8.4-.8.8,0,.4,0,.6c.5,0,1.1-.1,1.6-.2,0-.1,0-.2,0-.4Z"/>
    <path class="st3" d="M106,33.9c0-.2,0-.4,0-.6,0-.4-.4-.8-.8-.8s-.8.4-.8.8,0,.4,0,.7c0,0,.2,0,.3,0,.4,0,.9,0,1.3,0Z"/>
    <path class="st3" d="M120.9,50c.1-.2.4-.4.7-.4s.6.2.7.5c0,0,0,0,.1,0,.1-.3.4-.5.7-.5s.6.2.7.4c8.2-.7,14.7-7.6,15.1-16.1-.4,0-.8,0-1.2,0s-.3,0-.4,0c-.3,8-6.9,14.5-14.8,14.5s-14.6-6.6-14.8-14.7c-.5,0-1.1.2-1.6.2.3,8.4,6.7,15.3,14.8,16.1Z"/>
    <path class="st3" d="M107.7,33.7c0-.1,0-.3,0-.4,0-.4-.4-.8-.8-.8s-.8.4-.8.8,0,.4,0,.6c.5,0,1.1-.1,1.6-.2Z"/>
    <path class="st3" d="M138.9,34c0-.2,0-.4,0-.6,0-.4-.4-.8-.8-.8s-.8.4-.8.8,0,.4,0,.7c.1,0,.3,0,.4,0,.4,0,.8,0,1.2,0Z"/>
    <path class="st3" d="M153.7,50c.1-.2.4-.4.7-.4s.6.2.7.5c0,0,0,0,.1,0,.1-.3.4-.5.7-.5s.6.2.7.4c8.2-.7,14.7-7.6,15.1-16.1-.3,0-.7,0-1,0s-.4,0-.6,0c-.3,8-6.9,14.5-14.8,14.5s-14.6-6.6-14.8-14.7c-.5,0-1.1.2-1.6.2.3,8.4,6.7,15.3,14.8,16.1Z"/>
    <path class="st3" d="M140.5,33.8c0-.1,0-.3,0-.4,0-.4-.4-.8-.8-.8s-.8.4-.8.8,0,.4,0,.6c.5,0,1.1-.1,1.6-.2Z"/>
    <path class="st3" d="M171.8,34c0-.2,0-.4,0-.6,0-.4-.4-.8-.8-.8s-.8.4-.8.8,0,.4,0,.6c.2,0,.4,0,.6,0,.3,0,.7,0,1,0Z"/>
    <path class="st3" d="M186.6,50c.1-.2.4-.4.7-.4s.6.2.7.5c0,0,0,0,.1,0,.1-.3.4-.5.7-.5s.6.2.7.4c8.2-.7,14.7-7.6,15.1-16.1-.3,0-.5,0-.8,0s-.5,0-.8,0c-.3,8-6.9,14.5-14.8,14.5s-14.6-6.5-14.8-14.7c-.5,0-1.1.1-1.6.2.3,8.4,6.7,15.2,14.8,16.1Z"/>
    <path class="st3" d="M173.4,33.8c0-.1,0-.3,0-.4,0-.4-.4-.8-.8-.8s-.8.4-.8.8,0,.4,0,.6c.5,0,1.1,0,1.6-.2Z"/>
    <path class="st3" d="M204.6,34c0-.2,0-.4,0-.6,0-.4-.4-.8-.8-.8s-.8.4-.8.8,0,.4,0,.6c.3,0,.5,0,.8,0s.5,0,.8,0Z"/>
    <path class="st3" d="M219.5,50c.1-.2.4-.4.7-.4s.6.2.7.5c0,0,0,0,.1,0,.1-.3.4-.5.7-.5s.6.2.7.4c8.2-.7,14.7-7.6,15.1-16.1-.2,0-.4,0-.6,0-.3,0-.6,0-.9,0-.3,8.1-6.8,14.5-14.8,14.5s-14.6-6.5-14.8-14.7c-.5,0-1.1.1-1.6.2.3,8.4,6.7,15.2,14.8,16Z"/>
    <path class="st3" d="M206.2,33.8c0-.2,0-.3,0-.5,0-.4-.4-.8-.8-.8s-.8.4-.8.8,0,.4,0,.6c.5,0,1.1,0,1.6-.2Z"/>
    <path class="st3" d="M237.5,34c0-.2,0-.4,0-.6,0-.4-.4-.8-.8-.8s-.8.4-.8.8,0,.4,0,.6c.3,0,.6,0,.9,0s.4,0,.6,0Z"/>
    <path class="st3" d="M252.3,50c.1-.2.4-.4.7-.4s.6.2.7.5c0,0,0,0,.1,0,.1-.3.4-.5.7-.5s.6.2.7.4c8.2-.7,14.7-7.6,15.1-16.1-.2,0-.3,0-.5,0-.4,0-.7,0-1.1,0-.3,8.1-6.8,14.5-14.8,14.5s-14.6-6.5-14.8-14.6c-.5,0-1.1.1-1.6.1.3,8.4,6.7,15.2,14.8,16Z"/>
    <path class="st3" d="M239.1,33.8c0-.2,0-.3,0-.5,0-.4-.4-.8-.8-.8s-.8.4-.8.8,0,.4,0,.6c.5,0,1.1,0,1.6-.1Z"/>
    <path class="st3" d="M270.3,34c0-.2,0-.4,0-.7,0-.4-.4-.8-.8-.8s-.8.4-.8.8,0,.4,0,.6c.4,0,.7,0,1.1,0s.3,0,.5,0Z"/>
    <path class="st3" d="M285.2,50c.1-.2.4-.4.7-.4s.6.2.7.5c0,0,0,0,.1,0,.1-.3.4-.5.7-.5s.6.2.7.4c8.2-.7,14.7-7.6,15-16-.1,0-.2,0-.3,0-.4,0-.9,0-1.3,0-.3,8.1-6.8,14.5-14.8,14.5s-14.6-6.5-14.8-14.6c-.5,0-1.1.1-1.6.1.3,8.4,6.7,15.2,14.8,16Z"/>
    <path class="st3" d="M272,33.9c0-.2,0-.3,0-.5,0-.4-.4-.8-.8-.8s-.8.4-.8.8,0,.4,0,.7c.5,0,1.1,0,1.6-.1Z"/>
    <path class="st3" d="M303.2,34c0-.2,0-.4,0-.7,0-.4-.4-.8-.8-.8s-.8.4-.8.8,0,.4,0,.6c.4,0,.9,0,1.3,0s.2,0,.3,0Z"/>
    <path class="st3" d="M318,50c.1-.2.4-.4.7-.4s.6.2.7.5c0,0,0,0,.1,0,.1-.3.4-.5.7-.5s.6.2.7.4c8.2-.7,14.7-7.6,15-16,0,0,0,0-.1,0-.5,0-1,0-1.5,0-.3,8.1-6.8,14.5-14.8,14.5s-14.5-6.5-14.8-14.6c-.5,0-1.1,0-1.6.1.3,8.4,6.7,15.2,14.8,16Z"/>
    <path class="st3" d="M304.8,33.9c0-.2,0-.4,0-.5,0-.4-.4-.8-.8-.8s-.8.4-.8.8,0,.4,0,.7c.5,0,1.1,0,1.6-.1Z"/>
    <path class="st3" d="M336.1,34c0-.2,0-.4,0-.7,0-.4-.4-.8-.8-.8s-.8.4-.8.8,0,.4,0,.6c.5,0,1,0,1.5,0s0,0,.1,0Z"/>
    <path class="st3" d="M350.9,50c.1-.2.4-.4.7-.4s.6.2.7.5c0,0,0,0,.1,0,.1-.3.4-.5.7-.5s.6.2.7.4c8.2-.7,14.7-7.6,15-16-.5,0-1.1,0-1.6,0-.3,8.1-6.8,14.6-14.8,14.6s-14.5-6.5-14.8-14.6c-.5,0-1.1,0-1.6,0,.3,8.4,6.7,15.2,14.8,16Z"/>
    <path class="st3" d="M337.7,33.9c0-.2,0-.4,0-.6,0-.4-.4-.8-.8-.8s-.8.4-.8.8,0,.4,0,.7c.5,0,1.1,0,1.6,0Z"/>
    <path class="st3" d="M368.9,33.3c0-.4-.4-.8-.8-.8s-.8.4-.8.8,0,.4,0,.6c.5,0,1.1,0,1.6,0,0-.2,0-.4,0-.7Z"/>
    <path class="st3" d="M369,34c.3,8.4,6.7,15.2,14.8,16,.1-.2.4-.4.7-.4s.6.2.7.5c0,0,0,0,.1,0,.1-.3.4-.5.7-.5s.6.2.7.4c8.2-.7,14.7-7.6,15-16-.5,0-1.1,0-1.6,0-.3,8.1-6.8,14.6-14.8,14.6s-14.5-6.5-14.8-14.6c-.5,0-1.1,0-1.6,0s0,0,0,0Z"/>
    <path class="st3" d="M369,34c.5,0,1.1,0,1.6,0,0-.2,0-.4,0-.6,0-.4-.4-.8-.8-.8s-.8.4-.8.8,0,.4,0,.7c0,0,0,0,0,0Z"/>
    <path class="st3" d="M401.8,33.3c0-.4-.4-.8-.8-.8s-.8.4-.8.8,0,.4,0,.6c.5,0,1.1,0,1.6,0,0-.2,0-.4,0-.7Z"/>
    <path class="st3" d="M401.8,34c.3,8.4,6.7,15.2,14.8,16,.1-.2.4-.4.7-.4s.6.2.7.5c0,0,0,0,.1,0,.1-.3.4-.5.7-.5s.6.2.7.4c8.2-.7,14.7-7.6,15-16-.5,0-1.1,0-1.6-.1-.3,8.1-6.8,14.6-14.8,14.6s-14.5-6.5-14.8-14.5c-.5,0-.9,0-1.4,0s-.1,0-.2,0Z"/>
    <path class="st3" d="M402,34c.5,0,.9,0,1.4,0,0-.2,0-.4,0-.6,0-.4-.4-.8-.8-.8s-.8.4-.8.8,0,.4,0,.7c0,0,.1,0,.2,0Z"/>
    <path class="st3" d="M434.7,33.3c0-.4-.4-.8-.8-.8s-.8.4-.8.8,0,.4,0,.5c.5,0,1.1.1,1.6.1,0-.2,0-.4,0-.7Z"/>
    <path class="st3" d="M451.1,48.5c-8,0-14.5-6.5-14.8-14.5-.4,0-.8,0-1.2,0s-.2,0-.4,0c.3,8.4,6.7,15.2,14.8,16,.1-.2.4-.4.7-.4s.6.2.7.5c0,0,0,0,.1,0,.1-.3.4-.5.7-.5s.6.2.7.4c7.3-.6,13.2-6.1,14.7-13.3l-.8-2.9c-.2,0-.3,0-.5,0-.3,8.1-6.8,14.6-14.8,14.6Z"/>
    <path class="st3" d="M435.5,32.5c-.4,0-.8.4-.8.8s0,.4,0,.7c.1,0,.2,0,.4,0,.4,0,.8,0,1.2,0,0-.2,0-.4,0-.6,0-.4-.4-.8-.8-.8Z"/>
    <path class="st3" d="M465.9,33.9c.2,0,.3,0,.5,0l-.3-1.1c-.1.1-.2.3-.2.5s0,.3,0,.5Z"/>
    <path class="st3" d="M39.7,67.2c.2,0,.4,0,.5,0s0,0,0,0c.1-.1.3-.2.5-.2s.4,0,.5.2c8.6-.5,15.4-7.8,15.4-16.7s0-.2,0-.3c-.5,0-.9,0-1.4,0,0,.1-.1.3-.1.4,0,8.3-6.7,15.1-14.8,15.1s-7.4-1.5-10.1-4l-.5,1.7c2.5,2.1,5.6,3.5,9.1,3.9.1,0,.3-.1.4-.1s.4,0,.5.2Z"/>
    <path class="st3" d="M55.8,49.6c-.3,0-.5.2-.7.4.5,0,.9,0,1.4,0-.1-.3-.4-.5-.7-.5Z"/>
    <path class="st3" d="M71.6,67.1c.1,0,.3-.1.4-.1s.4,0,.5.2c.2,0,.4,0,.5,0s0,0,0,0c.1-.1.3-.2.5-.2s.4,0,.5.2c8.6-.5,15.4-7.8,15.4-16.7s0-.2,0-.3c-.5,0-.9,0-1.4,0,0,.1-.1.3-.1.4,0,8.3-6.7,15.1-14.8,15.1s-14.8-6.8-14.8-15.1,0-.3-.1-.4c-.5,0-.9,0-1.4,0s0,0,0,0c0,.1,0,.2,0,.3,0,8.7,6.6,15.9,14.9,16.7Z"/>
    <path class="st3" d="M58.1,50c-.1-.2-.4-.4-.7-.4s-.6.2-.7.5c0,0,0,0,0,0,.5,0,.9,0,1.4,0Z"/>
    <path class="st3" d="M88.7,49.6c-.3,0-.5.2-.7.4.5,0,.9,0,1.4,0-.1-.3-.4-.5-.7-.5Z"/>
    <path class="st3" d="M104.4,67.1c.1,0,.3-.1.4-.1s.4,0,.5.2c.2,0,.4,0,.5,0s0,0,0,0c.1-.1.3-.2.5-.2s.4,0,.5.2c8.6-.5,15.4-7.8,15.4-16.7s0-.2,0-.3c-.5,0-.9,0-1.4,0,0,.1-.1.3-.1.4,0,8.3-6.7,15.1-14.8,15.1s-14.8-6.8-14.8-15.1,0-.3-.1-.4c-.5,0-.9,0-1.4,0s0,0,0,0c0,.1,0,.2,0,.3,0,8.7,6.6,15.9,14.9,16.7Z"/>
    <path class="st3" d="M90.3,49.6c-.3,0-.6.2-.7.5,0,0,0,0,0,0,.5,0,.9,0,1.4,0-.1-.2-.4-.4-.7-.4Z"/>
    <path class="st3" d="M121.6,49.6c-.3,0-.5.2-.7.4.5,0,.9,0,1.4,0-.1-.3-.4-.5-.7-.5Z"/>
    <path class="st3" d="M137.3,67.1c.1,0,.3-.1.4-.1s.4,0,.5.2c.2,0,.4,0,.5,0s0,0,0,0c.1-.1.3-.2.5-.2s.4,0,.5.2c8.6-.5,15.4-7.8,15.4-16.7s0-.2,0-.3c-.5,0-.9,0-1.4,0,0,.1-.1.3-.1.4,0,8.3-6.7,15.1-14.8,15.1s-14.8-6.8-14.8-15.1,0-.3-.1-.4c-.5,0-.9,0-1.4,0s0,0,0,0c0,.1,0,.2,0,.3,0,8.7,6.6,15.9,14.9,16.7Z"/>
    <path class="st3" d="M123.8,50c-.1-.2-.4-.4-.7-.4s-.6.2-.7.5c0,0,0,0,0,0,.5,0,.9,0,1.4,0Z"/>
    <path class="st3" d="M154.4,49.6c-.3,0-.5.2-.7.4.5,0,.9,0,1.4,0-.1-.3-.4-.5-.7-.5Z"/>
    <path class="st3" d="M170.1,67.1c.1,0,.3-.1.4-.1s.4,0,.5.2c.2,0,.4,0,.5,0s0,0,0,0c.1-.1.3-.2.5-.2s.4,0,.5.2c8.6-.5,15.4-7.8,15.4-16.7s0-.2,0-.3c-.5,0-.9,0-1.4,0,0,.1-.1.3-.1.4,0,8.3-6.7,15.1-14.8,15.1s-14.8-6.8-14.8-15.1,0-.3-.1-.4c-.5,0-.9,0-1.4,0s0,0,0,0c0,.1,0,.2,0,.3,0,8.7,6.6,15.9,14.9,16.7Z"/>
    <path class="st3" d="M156.7,50c-.1-.2-.4-.4-.7-.4s-.6.2-.7.5c0,0,0,0,0,0,.5,0,.9,0,1.4,0Z"/>
    <path class="st3" d="M187.3,49.6c-.3,0-.5.2-.7.4.5,0,.9,0,1.4,0-.1-.3-.4-.5-.7-.5Z"/>
    <path class="st3" d="M203,67.1c.1,0,.3-.1.4-.1s.4,0,.5.2c.2,0,.4,0,.5,0s0,0,0,0c.1-.1.3-.2.5-.2s.4,0,.5.2c8.6-.5,15.4-7.8,15.4-16.7s0-.2,0-.3c-.5,0-.9,0-1.4,0,0,.1-.1.3-.1.4,0,8.3-6.7,15.1-14.8,15.1s-14.8-6.8-14.8-15.1,0-.3-.1-.4c-.5,0-.9,0-1.4,0s0,0,0,0c0,.1,0,.2,0,.3,0,8.7,6.6,15.9,14.9,16.7Z"/>
    <path class="st3" d="M189.6,50c-.1-.2-.4-.4-.7-.4s-.6.2-.7.5c0,0,0,0,0,0,.5,0,.9,0,1.4,0Z"/>
    <path class="st3" d="M220.1,49.6c-.3,0-.5.2-.7.4.5,0,.9,0,1.4,0-.1-.3-.4-.5-.7-.5Z"/>
    <path class="st3" d="M235.9,67.1c.1,0,.3-.1.4-.1s.4,0,.5.2c.2,0,.4,0,.5,0s0,0,0,0c.1-.1.3-.2.5-.2s.4,0,.5.2c8.6-.5,15.4-7.8,15.4-16.7s0-.2,0-.3c-.5,0-.9,0-1.4,0,0,.1-.1.3-.1.4,0,8.3-6.7,15.1-14.8,15.1s-14.8-6.8-14.8-15.1,0-.3-.1-.4c-.5,0-.9,0-1.4,0s0,0,0,0c0,.1,0,.2,0,.3,0,8.7,6.6,15.9,14.9,16.7Z"/>
    <path class="st3" d="M222.4,50c-.1-.2-.4-.4-.7-.4s-.6.2-.7.5c0,0,0,0,0,0,.5,0,.9,0,1.4,0Z"/>
    <path class="st3" d="M253,49.6c-.3,0-.5.2-.7.4.5,0,.9,0,1.4,0-.1-.3-.4-.5-.7-.5Z"/>
    <path class="st3" d="M268.7,67.1c.1,0,.3-.1.4-.1s.4,0,.5.2c.2,0,.4,0,.5,0s0,0,0,0c.1-.1.3-.2.5-.2s.4,0,.5.2c8.6-.5,15.4-7.8,15.4-16.7s0-.2,0-.3c-.5,0-.9,0-1.4,0,0,.1-.1.3-.1.4,0,8.3-6.7,15.1-14.8,15.1s-14.8-6.8-14.8-15.1,0-.3-.1-.4c-.5,0-.9,0-1.4,0s0,0,0,0c0,.1,0,.2,0,.3,0,8.7,6.6,15.9,14.9,16.7Z"/>
    <path class="st3" d="M255.3,50c-.1-.2-.4-.4-.7-.4s-.6.2-.7.5c0,0,0,0,0,0,.5,0,.9,0,1.4,0Z"/>
    <path class="st3" d="M285.9,49.6c-.3,0-.5.2-.7.4.5,0,.9,0,1.4,0-.1-.3-.4-.5-.7-.5Z"/>
    <path class="st3" d="M301.6,67.1c.1,0,.3-.1.4-.1s.4,0,.5.2c.2,0,.4,0,.5,0s0,0,0,0c.1-.1.3-.2.5-.2s.4,0,.5.2c8.6-.5,15.4-7.8,15.4-16.7s0-.2,0-.3c-.5,0-.9,0-1.4,0,0,.1-.1.3-.1.4,0,8.3-6.7,15.1-14.8,15.1s-14.8-6.8-14.8-15.1,0-.3-.1-.4c-.5,0-.9,0-1.4,0s0,0,0,0c0,.1,0,.2,0,.3,0,8.7,6.6,15.9,14.9,16.7Z"/>
    <path class="st3" d="M288.2,50c-.1-.2-.4-.4-.7-.4s-.6.2-.7.5c0,0,0,0,0,0,.5,0,.9,0,1.4,0Z"/>
    <path class="st3" d="M318.7,49.6c-.3,0-.5.2-.7.4.5,0,.9,0,1.4,0-.1-.3-.4-.5-.7-.5Z"/>
    <path class="st3" d="M334.5,67.1c.1,0,.3-.1.4-.1s.4,0,.5.2c.2,0,.4,0,.5,0s0,0,0,0c.1-.1.3-.2.5-.2s.4,0,.5.2c8.6-.5,15.4-7.8,15.4-16.7s0-.2,0-.3c-.5,0-.9,0-1.4,0,0,.1-.1.3-.1.4,0,8.3-6.7,15.1-14.8,15.1s-14.8-6.8-14.8-15.1,0-.3-.1-.4c-.5,0-.9,0-1.4,0s0,0,0,0c0,.1,0,.2,0,.3,0,8.7,6.6,15.9,14.9,16.7Z"/>
    <path class="st3" d="M321,50c-.1-.2-.4-.4-.7-.4s-.6.2-.7.5c0,0,0,0,0,0,.5,0,.9,0,1.4,0Z"/>
    <path class="st3" d="M351.6,49.6c-.3,0-.5.2-.7.4.5,0,.9,0,1.4,0-.1-.3-.4-.5-.7-.5Z"/>
    <path class="st3" d="M367.3,67.1c.1,0,.3-.1.4-.1s.4,0,.5.2c.2,0,.4,0,.5,0s0,0,0,0c.1-.1.3-.2.5-.2s.4,0,.5.2c8.6-.5,15.4-7.8,15.4-16.7s0-.2,0-.3c-.5,0-.9,0-1.4,0,0,.1-.1.3-.1.4,0,8.3-6.7,15.1-14.8,15.1s-14.8-6.8-14.8-15.1,0-.3-.1-.4c-.5,0-.9,0-1.4,0s0,0,0,0c0,.1,0,.2,0,.3,0,8.7,6.6,15.9,14.9,16.7Z"/>
    <path class="st3" d="M353.9,50c-.1-.2-.4-.4-.7-.4s-.6.2-.7.5c0,0,0,0,0,0,.5,0,.9,0,1.4,0Z"/>
    <path class="st3" d="M384.4,49.6c-.3,0-.5.2-.7.4.5,0,.9,0,1.4,0-.1-.3-.4-.5-.7-.5Z"/>
    <path class="st3" d="M416.6,50c0,.1-.1.3-.1.4,0,8.3-6.7,15.1-14.8,15.1s-14.8-6.8-14.8-15.1,0-.3-.1-.4c-.5,0-.9,0-1.4,0s0,0,0,0c0,.1,0,.2,0,.3,0,8.7,6.6,15.9,14.9,16.7.1,0,.3-.1.4-.1s.4,0,.5.2c.2,0,.4,0,.5,0s0,0,0,0c.1-.1.3-.2.5-.2s.4,0,.5.2c8.6-.5,15.4-7.8,15.4-16.7s0-.2,0-.3c-.5,0-.9,0-1.4,0Z"/>
    <path class="st3" d="M386.7,50c-.1-.2-.4-.4-.7-.4s-.6.2-.7.5c0,0,0,0,0,0,.5,0,.9,0,1.4,0Z"/>
    <path class="st3" d="M417.3,49.6c-.3,0-.5.2-.7.4.5,0,.9,0,1.4,0-.1-.3-.4-.5-.7-.5Z"/>
    <path class="st3" d="M434.5,65.6c-8.2,0-14.8-6.8-14.8-15.1s0-.3-.1-.4c-.5,0-.9,0-1.4,0s0,0,0,0c0,.1,0,.2,0,.3,0,8.7,6.6,15.9,14.9,16.7.1,0,.3-.1.4-.1s.4,0,.5.2c.2,0,.4,0,.5,0s0,0,0,0c.1-.1.3-.2.5-.2s.4,0,.5.2c8.6-.5,15.4-7.8,15.4-16.7s0-.2,0-.3c-.5,0-.9,0-1.4,0,0,.1-.1.3-.1.4,0,8.3-6.7,15.1-14.8,15.1Z"/>
    <path class="st3" d="M418.9,49.6c-.3,0-.6.2-.7.5,0,0,0,0,0,0,.5,0,.9,0,1.4,0-.1-.2-.4-.4-.7-.4Z"/>
    <path class="st3" d="M450.2,49.6c-.3,0-.5.2-.7.4.5,0,.9,0,1.4,0-.1-.3-.4-.5-.7-.5Z"/>
    <path class="st3" d="M451,50.1c0,.1,0,.2,0,.3,0,8.7,6.6,15.9,14.9,16.7.1,0,.3-.1.4-.1s.4,0,.5.2c.2,0,.4,0,.5,0s0,0,0,0c.1-.1.3-.2.5-.2s.4,0,.5.2c2.3-.1,4.5-.8,6.5-1.8l-.4-1.6c-2.1,1.2-4.5,1.8-7.1,1.8-8.2,0-14.8-6.8-14.8-15.1s0-.3-.1-.4c-.5,0-.9,0-1.4,0s0,0,0,0Z"/>
    <path class="st3" d="M451.8,49.6c-.3,0-.6.2-.7.5,0,0,0,0,0,0,.5,0,.9,0,1.4,0-.1-.2-.4-.4-.7-.4Z"/>
    <path class="st3" d="M25.8,84.4c8-1.1,14.1-8.1,14.1-16.6s-.1-.5-.3-.6c-.3,0-.6,0-1,0-.2.1-.4.4-.4.7,0,8.1-6.2,14.7-14,15.1l-.4,1.6c.4,0,.8,0,1.3,0,.1,0,.3-.1.4-.1s.2,0,.2,0Z"/>
    <path class="st3" d="M39.1,67c-.2,0-.3,0-.4.1.3,0,.6,0,1,0-.1-.1-.3-.2-.5-.2Z"/>
    <path class="st3" d="M72.8,67.8c0-.2-.1-.5-.3-.6-.3,0-.6,0-1,0-.2.1-.4.4-.4.7,0,8.3-6.7,15.1-14.8,15.1s-14.8-6.8-14.8-15.1-.1-.5-.3-.6c-.3,0-.7,0-1,0-.2.1-.3.4-.3.6,0,9.2,7.4,16.8,16.4,16.8s1.1,0,1.6,0c.1,0,.3-.1.4-.1s.2,0,.2,0c8-1.1,14.1-8.1,14.1-16.6Z"/>
    <path class="st3" d="M40.7,67c-.2,0-.4,0-.5.2.3,0,.7,0,1,0-.1-.1-.3-.2-.5-.2Z"/>
    <path class="st3" d="M71.6,67.1c.3,0,.6,0,1,0-.1-.1-.3-.2-.5-.2s-.3,0-.4.1Z"/>
    <path class="st3" d="M105.7,67.8c0-.2-.1-.5-.3-.6-.3,0-.6,0-1,0-.2.1-.4.4-.4.7,0,8.3-6.7,15.1-14.8,15.1s-14.8-6.8-14.8-15.1-.1-.5-.3-.6c-.3,0-.7,0-1,0-.2.1-.3.4-.3.6,0,9.2,7.4,16.8,16.4,16.8s1.1,0,1.6,0c.1,0,.3-.1.4-.1s.2,0,.2,0c8-1.1,14.1-8.1,14.1-16.6Z"/>
    <path class="st3" d="M73.6,67c-.2,0-.4,0-.5.2.3,0,.7,0,1,0-.1-.1-.3-.2-.5-.2Z"/>
    <path class="st3" d="M104.4,67.1c.3,0,.6,0,1,0-.1-.1-.3-.2-.5-.2s-.3,0-.4.1Z"/>
    <path class="st3" d="M138.5,67.8c0-.2-.1-.5-.3-.6-.3,0-.6,0-1,0-.2.1-.4.4-.4.7,0,8.3-6.7,15.1-14.8,15.1s-14.8-6.8-14.8-15.1-.1-.5-.3-.6c-.3,0-.7,0-1,0-.2.1-.3.4-.3.6,0,9.2,7.4,16.8,16.4,16.8s1.1,0,1.6,0c.1,0,.3-.1.4-.1s.2,0,.2,0c8-1.1,14.1-8.1,14.1-16.6Z"/>
    <path class="st3" d="M106.5,67c-.2,0-.4,0-.5.2.3,0,.7,0,1,0-.1-.1-.3-.2-.5-.2Z"/>
    <path class="st3" d="M137.3,67.1c.3,0,.6,0,1,0-.1-.1-.3-.2-.5-.2s-.3,0-.4.1Z"/>
    <path class="st3" d="M171.4,67.8c0-.2-.1-.5-.3-.6-.3,0-.6,0-1,0-.2.1-.4.4-.4.7,0,8.3-6.7,15.1-14.8,15.1s-14.8-6.8-14.8-15.1-.1-.5-.3-.6c-.3,0-.7,0-1,0-.2.1-.3.4-.3.6,0,9.2,7.4,16.8,16.4,16.8s1.1,0,1.6,0c.1,0,.3-.1.4-.1s.2,0,.2,0c8-1.1,14.1-8.1,14.1-16.6Z"/>
    <path class="st3" d="M139.3,67c-.2,0-.4,0-.5.2.3,0,.7,0,1,0-.1-.1-.3-.2-.5-.2Z"/>
    <path class="st3" d="M170.6,67c-.2,0-.3,0-.4.1.3,0,.6,0,1,0-.1-.1-.3-.2-.5-.2Z"/>
    <path class="st3" d="M204.2,67.8c0-.2-.1-.5-.3-.6-.3,0-.6,0-1,0-.2.1-.4.4-.4.7,0,8.3-6.7,15.1-14.8,15.1s-14.8-6.8-14.8-15.1-.1-.5-.3-.6c-.3,0-.7,0-1,0-.2.1-.3.4-.3.6,0,9.2,7.4,16.8,16.4,16.8s1.1,0,1.6,0c.1,0,.3-.1.4-.1s.2,0,.2,0c8-1.1,14.1-8.1,14.1-16.6Z"/>
    <path class="st3" d="M172.2,67c-.2,0-.4,0-.5.2.3,0,.7,0,1,0-.1-.1-.3-.2-.5-.2Z"/>
    <path class="st3" d="M203.4,67c-.2,0-.3,0-.4.1.3,0,.6,0,1,0-.1-.1-.3-.2-.5-.2Z"/>
    <path class="st3" d="M237.1,67.8c0-.2-.1-.5-.3-.6-.3,0-.6,0-1,0-.2.1-.4.4-.4.7,0,8.3-6.7,15.1-14.8,15.1s-14.8-6.8-14.8-15.1-.1-.5-.3-.6c-.3,0-.7,0-1,0-.2.1-.3.4-.3.6,0,9.2,7.4,16.8,16.4,16.8s1.1,0,1.6,0c.1,0,.3-.1.4-.1s.2,0,.2,0c8-1.1,14.1-8.1,14.1-16.6Z"/>
    <path class="st3" d="M205,67c-.2,0-.4,0-.5.2.3,0,.7,0,1,0-.1-.1-.3-.2-.5-.2Z"/>
    <path class="st3" d="M236.3,67c-.2,0-.3,0-.4.1.3,0,.6,0,1,0-.1-.1-.3-.2-.5-.2Z"/>
    <path class="st3" d="M270,67.8c0-.2-.1-.5-.3-.6-.3,0-.6,0-1,0-.2.1-.4.4-.4.7,0,8.3-6.7,15.1-14.8,15.1s-14.8-6.8-14.8-15.1-.1-.5-.3-.6c-.3,0-.7,0-1,0-.2.1-.3.4-.3.6,0,9.2,7.4,16.8,16.4,16.8s1.1,0,1.6,0c.1,0,.3-.1.4-.1s.2,0,.2,0c8-1.1,14.1-8.1,14.1-16.6Z"/>
    <path class="st3" d="M237.9,67c-.2,0-.4,0-.5.2.3,0,.7,0,1,0-.1-.1-.3-.2-.5-.2Z"/>
    <path class="st3" d="M269.2,67c-.2,0-.3,0-.4.1.3,0,.6,0,1,0-.1-.1-.3-.2-.5-.2Z"/>
    <path class="st3" d="M302.8,67.8c0-.2-.1-.5-.3-.6-.3,0-.6,0-1,0-.2.1-.4.4-.4.7,0,8.3-6.7,15.1-14.8,15.1s-14.8-6.8-14.8-15.1-.1-.5-.3-.6c-.3,0-.7,0-1,0-.2.1-.3.4-.3.6,0,9.2,7.4,16.8,16.4,16.8s1.1,0,1.6,0c.1,0,.3-.1.4-.1s.2,0,.2,0c8-1.1,14.1-8.1,14.1-16.6Z"/>
    <path class="st3" d="M270.8,67c-.2,0-.4,0-.5.2.3,0,.7,0,1,0-.1-.1-.3-.2-.5-.2Z"/>
    <path class="st3" d="M302,67c-.2,0-.3,0-.4.1.3,0,.6,0,1,0-.1-.1-.3-.2-.5-.2Z"/>
    <path class="st3" d="M335.7,67.8c0-.2-.1-.5-.3-.6-.3,0-.6,0-1,0-.2.1-.4.4-.4.7,0,8.3-6.7,15.1-14.8,15.1s-14.8-6.8-14.8-15.1-.1-.5-.3-.6c-.3,0-.7,0-1,0-.2.1-.3.4-.3.6,0,9.2,7.4,16.8,16.4,16.8s1.1,0,1.6,0c.1,0,.3-.1.4-.1s.2,0,.2,0c8-1.1,14.1-8.1,14.1-16.6Z"/>
    <path class="st3" d="M303.6,67c-.2,0-.4,0-.5.2.3,0,.7,0,1,0-.1-.1-.3-.2-.5-.2Z"/>
    <path class="st3" d="M334.9,67c-.2,0-.3,0-.4.1.3,0,.6,0,1,0-.1-.1-.3-.2-.5-.2Z"/>
    <path class="st3" d="M368.3,67.2c-.3,0-.6,0-1,0-.2.1-.4.4-.4.7,0,8.3-6.7,15.1-14.8,15.1s-14.8-6.8-14.8-15.1-.1-.5-.3-.6c-.3,0-.7,0-1,0-.2.1-.3.4-.3.6,0,9.2,7.4,16.8,16.4,16.8s1.1,0,1.6,0c.1,0,.3-.1.4-.1s.2,0,.2,0c8-1.1,14.1-8.1,14.1-16.6s-.1-.5-.3-.6Z"/>
    <path class="st3" d="M336.5,67c-.2,0-.4,0-.5.2.3,0,.7,0,1,0-.1-.1-.3-.2-.5-.2Z"/>
    <path class="st3" d="M367.8,67c-.2,0-.3,0-.4.1.3,0,.6,0,1,0-.1-.1-.3-.2-.5-.2Z"/>
    <path class="st3" d="M401.1,67.2c-.3,0-.6,0-1,0-.2.1-.4.4-.4.7,0,8.3-6.7,15.1-14.8,15.1s-14.8-6.8-14.8-15.1-.1-.5-.3-.6c-.3,0-.7,0-1,0-.2.1-.3.4-.3.6,0,9.2,7.4,16.8,16.4,16.8s1.1,0,1.6,0c.1,0,.3-.1.4-.1s.2,0,.2,0c8-1.1,14.1-8.1,14.1-16.6s-.1-.5-.3-.6Z"/>
    <path class="st3" d="M368.8,67.2c.3,0,.7,0,1,0-.1-.1-.3-.2-.5-.2s-.4,0-.5.2Z"/>
    <path class="st3" d="M400.6,67c-.2,0-.3,0-.4.1.3,0,.6,0,1,0-.1-.1-.3-.2-.5-.2Z"/>
    <path class="st3" d="M434,67.2c-.3,0-.6,0-1,0-.2.1-.4.4-.4.7,0,8.3-6.7,15.1-14.8,15.1s-14.8-6.8-14.8-15.1-.1-.5-.3-.6c-.3,0-.7,0-1,0-.2.1-.3.4-.3.6,0,9.2,7.4,16.8,16.4,16.8s1.1,0,1.6,0c.1,0,.3-.1.4-.1s.2,0,.2,0c8-1.1,14.1-8.1,14.1-16.6s-.1-.5-.3-.6Z"/>
    <path class="st3" d="M401.7,67.2c.3,0,.7,0,1,0-.1-.1-.3-.2-.5-.2s-.4,0-.5.2Z"/>
    <path class="st3" d="M433.5,67c-.2,0-.3,0-.4.1.3,0,.6,0,1,0-.1-.1-.3-.2-.5-.2Z"/>
    <path class="st3" d="M466.9,67.2c-.3,0-.6,0-1,0-.2.1-.4.4-.4.7,0,8.3-6.7,15.1-14.8,15.1s-14.8-6.8-14.8-15.1-.1-.5-.3-.6c-.3,0-.7,0-1,0-.2.1-.3.4-.3.6,0,9.2,7.4,16.8,16.4,16.8s1.1,0,1.6,0c.1,0,.3-.1.4-.1s.2,0,.2,0c8-1.1,14.1-8.1,14.1-16.6s-.1-.5-.3-.6Z"/>
    <path class="st3" d="M434.5,67.2c.3,0,.7,0,1,0-.1-.1-.3-.2-.5-.2s-.4,0-.5.2Z"/>
    <path class="st3" d="M466.3,67c-.2,0-.3,0-.4.1.3,0,.6,0,1,0-.1-.1-.3-.2-.5-.2Z"/>
    <path class="st3" d="M467.1,67.8c0,8,5.5,14.7,12.9,16.4l-.5-1.8c-6.2-1.8-10.8-7.6-10.8-14.6s-.1-.5-.3-.6c-.3,0-.7,0-1,0-.2.1-.3.4-.3.6Z"/>
    <path class="st3" d="M467.4,67.2c.3,0,.7,0,1,0-.1-.1-.3-.2-.5-.2s-.4,0-.5.2Z"/>
    <path class="st3" d="M25.8,84.4c-.2,0-.4,0-.7,0-.2.1-.4.4-.4.7,0,3.9-1.4,7.4-3.8,10.1l-.8,3c3.8-3.1,6.2-7.8,6.2-13.1s-.2-.7-.6-.8Z"/>
    <path class="st3" d="M25.5,84.4c-.2,0-.3,0-.4.1.2,0,.4,0,.7,0,0,0-.2,0-.2,0Z"/>
    <path class="st3" d="M41.7,101.1c.4,0,.8.4.8.8,0-.4.4-.8.8-.8s.8.4.8.8,0,0,0,0c8.4-.7,15.1-7.9,15.1-16.7s-.2-.7-.6-.8c-.2,0-.4,0-.7,0-.2.1-.4.4-.4.7,0,8.3-6.7,15.1-14.8,15.1s-14.8-6.8-14.8-15.1-.4-.8-.8-.8-.8.4-.8.8c0,8.6,6.4,15.7,14.6,16.7,0-.4.4-.8.8-.8Z"/>
    <path class="st3" d="M42.5,101.9s0,0,0,0c0,0,0,0,0,0,0,0,0,0,0,0Z"/>
    <path class="st3" d="M58,84.5c.2,0,.4,0,.7,0,0,0-.2,0-.2,0-.2,0-.3,0-.4.1Z"/>
    <path class="st3" d="M73.8,101.8c0-.4.4-.8.8-.8s.8.4.8.8c0-.4.4-.8.8-.8s.8.4.8.8,0,0,0,0c8.4-.7,15.1-7.9,15.1-16.7s-.2-.7-.6-.8c-.2,0-.4,0-.7,0-.2.1-.4.4-.4.7,0,8.3-6.7,15.1-14.8,15.1s-14.8-6.8-14.8-15.1-.4-.8-.8-.8-.8.4-.8.8c0,8.6,6.4,15.7,14.6,16.7Z"/>
    <path class="st3" d="M75.4,101.9s0,0,0,0c0,0,0,0,0,0,0,0,0,0,0,0Z"/>
    <path class="st3" d="M90.9,84.5c.2,0,.4,0,.7,0,0,0-.2,0-.2,0-.2,0-.3,0-.4.1Z"/>
    <path class="st3" d="M106.6,101.8c0-.4.4-.8.8-.8s.8.4.8.8c0-.4.4-.8.8-.8s.8.4.8.8,0,0,0,0c8.4-.7,15.1-7.9,15.1-16.7s-.2-.7-.6-.8c-.2,0-.4,0-.7,0-.2.1-.4.4-.4.7,0,8.3-6.7,15.1-14.8,15.1s-14.8-6.8-14.8-15.1-.4-.8-.8-.8-.8.4-.8.8c0,8.6,6.4,15.7,14.6,16.7Z"/>
    <path class="st3" d="M108.2,101.9s0,0,0,0c0,0,0,0,0,0,0,0,0,0,0,0Z"/>
    <path class="st3" d="M123.7,84.5c.2,0,.4,0,.7,0,0,0-.2,0-.2,0-.2,0-.3,0-.4.1Z"/>
    <path class="st3" d="M141.1,101.9s0,0,0,0c0,0,0,0,0,0,0,0,0,0,0,0Z"/>
    <path class="st3" d="M157.8,85.2c0-.4-.2-.7-.6-.8-.2,0-.4,0-.7,0-.2.1-.4.4-.4.7,0,8.3-6.7,15.1-14.8,15.1s-14.8-6.8-14.8-15.1-.4-.8-.8-.8-.8.4-.8.8c0,8.6,6.4,15.7,14.6,16.7,0-.4.4-.8.8-.8s.8.4.8.8c0-.4.4-.8.8-.8s.8.4.8.8,0,0,0,0c8.4-.7,15.1-7.9,15.1-16.7Z"/>
    <path class="st3" d="M156.6,84.5c.2,0,.4,0,.7,0,0,0-.2,0-.2,0-.2,0-.3,0-.4.1Z"/>
    <path class="st3" d="M174,101.9s0,0,0,0c0,0,0,0,0,0,0,0,0,0,0,0Z"/>
    <path class="st3" d="M190.7,85.2c0-.4-.2-.7-.6-.8-.2,0-.4,0-.7,0-.2.1-.4.4-.4.7,0,8.3-6.7,15.1-14.8,15.1s-14.8-6.8-14.8-15.1-.4-.8-.8-.8-.8.4-.8.8c0,8.6,6.4,15.7,14.6,16.7,0-.4.4-.8.8-.8s.8.4.8.8c0-.4.4-.8.8-.8s.8.4.8.8,0,0,0,0c8.4-.7,15.1-7.9,15.1-16.7Z"/>
    <path class="st3" d="M189.4,84.5c.2,0,.4,0,.7,0,0,0-.2,0-.2,0-.2,0-.3,0-.4.1Z"/>
    <path class="st3" d="M206.8,101.9s0,0,0,0c0,0,0,0,0,0,0,0,0,0,0,0Z"/>
    <path class="st3" d="M223.5,85.2c0-.4-.2-.7-.6-.8-.2,0-.4,0-.7,0-.2.1-.4.4-.4.7,0,8.3-6.7,15.1-14.8,15.1s-14.8-6.8-14.8-15.1-.4-.8-.8-.8-.8.4-.8.8c0,8.6,6.4,15.7,14.6,16.7,0-.4.4-.8.8-.8s.8.4.8.8c0-.4.4-.8.8-.8s.8.4.8.8,0,0,0,0c8.4-.7,15.1-7.9,15.1-16.7Z"/>
    <path class="st3" d="M222.3,84.5c.2,0,.4,0,.7,0,0,0-.2,0-.2,0-.2,0-.3,0-.4.1Z"/>
    <path class="st3" d="M239.7,101.9s0,0,0,0c0,0,0,0,0,0,0,0,0,0,0,0Z"/>
    <path class="st3" d="M256.4,85.2c0-.4-.2-.7-.6-.8-.2,0-.4,0-.7,0-.2.1-.4.4-.4.7,0,8.3-6.7,15.1-14.8,15.1s-14.8-6.8-14.8-15.1-.4-.8-.8-.8-.8.4-.8.8c0,8.6,6.4,15.7,14.6,16.7,0-.4.4-.8.8-.8s.8.4.8.8c0-.4.4-.8.8-.8s.8.4.8.8,0,0,0,0c8.4-.7,15.1-7.9,15.1-16.7Z"/>
    <path class="st3" d="M255.2,84.5c.2,0,.4,0,.7,0,0,0-.2,0-.2,0-.2,0-.3,0-.4.1Z"/>
    <path class="st3" d="M289.2,85.2c0-.4-.2-.7-.6-.8-.2,0-.4,0-.7,0-.2.1-.4.4-.4.7,0,8.3-6.7,15.1-14.8,15.1s-14.8-6.8-14.8-15.1-.4-.8-.8-.8-.8.4-.8.8c0,8.6,6.4,15.7,14.6,16.7,0-.4.4-.8.8-.8s.8.4.8.8c0-.4.4-.8.8-.8s.8.4.8.8,0,0,0,0c8.4-.7,15.1-7.9,15.1-16.7Z"/>
    <path class="st3" d="M272.5,101.9s0,0,0,0c0,0,0,0,0,0,0,0,0,0,0,0Z"/>
    <path class="st3" d="M288,84.5c.2,0,.4,0,.7,0,0,0-.2,0-.2,0-.2,0-.3,0-.4.1Z"/>
    <path class="st3" d="M322.1,85.2c0-.4-.2-.7-.6-.8-.2,0-.4,0-.7,0-.2.1-.4.4-.4.7,0,8.3-6.7,15.1-14.8,15.1s-14.8-6.8-14.8-15.1-.4-.8-.8-.8-.8.4-.8.8c0,8.6,6.4,15.7,14.6,16.7,0-.4.4-.8.8-.8s.8.4.8.8c0-.4.4-.8.8-.8s.8.4.8.8,0,0,0,0c8.4-.7,15.1-7.9,15.1-16.7Z"/>
    <path class="st3" d="M305.4,101.9s0,0,0,0c0,0,0,0,0,0,0,0,0,0,0,0Z"/>
    <path class="st3" d="M320.9,84.5c.2,0,.4,0,.7,0,0,0-.2,0-.2,0-.2,0-.3,0-.4.1Z"/>
    <path class="st3" d="M338.3,101.9s0,0,0,0c0,0,0,0,0,0,0,0,0,0,0,0Z"/>
    <path class="st3" d="M355,85.2c0-.4-.2-.7-.6-.8-.2,0-.4,0-.7,0-.2.1-.4.4-.4.7,0,8.3-6.7,15.1-14.8,15.1s-14.8-6.8-14.8-15.1-.4-.8-.8-.8-.8.4-.8.8c0,8.6,6.4,15.7,14.6,16.7,0-.4.4-.8.8-.8s.8.4.8.8c0-.4.4-.8.8-.8s.8.4.8.8,0,0,0,0c8.4-.7,15.1-7.9,15.1-16.7Z"/>
    <path class="st3" d="M353.7,84.5c.2,0,.4,0,.7,0,0,0-.2,0-.2,0-.2,0-.3,0-.4.1Z"/>
    <path class="st3" d="M387.3,84.4c-.2,0-.4,0-.7,0-.2.1-.4.4-.4.7,0,8.3-6.7,15.1-14.8,15.1s-14.8-6.8-14.8-15.1-.4-.8-.8-.8-.8.4-.8.8c0,8.6,6.4,15.7,14.6,16.7,0-.4.4-.8.8-.8s.8.4.8.8c0-.4.4-.8.8-.8s.8.4.8.8,0,0,0,0c8.4-.7,15.1-7.9,15.1-16.7s-.2-.7-.6-.8Z"/>
    <path class="st3" d="M371.1,101.9s0,0,0,0c0,0,0,0,0,0,0,0,0,0,0,0Z"/>
    <path class="st3" d="M387,84.4c-.2,0-.3,0-.4.1.2,0,.4,0,.7,0,0,0-.2,0-.2,0Z"/>
    <path class="st3" d="M404,101.9s0,0,0,0c0,0,0,0,0,0,0,0,0,0,0,0Z"/>
    <path class="st3" d="M420.1,84.4c-.2,0-.4,0-.7,0-.2.1-.4.4-.4.7,0,8.3-6.7,15.1-14.8,15.1s-14.8-6.8-14.8-15.1-.4-.8-.8-.8-.8.4-.8.8c0,8.6,6.4,15.7,14.6,16.7,0-.4.4-.8.8-.8s.8.4.8.8c0-.4.4-.8.8-.8s.8.4.8.8,0,0,0,0c8.4-.7,15.1-7.9,15.1-16.7s-.2-.7-.6-.8Z"/>
    <path class="st3" d="M419.9,84.4c-.2,0-.3,0-.4.1.2,0,.4,0,.7,0,0,0-.2,0-.2,0Z"/>
    <path class="st3" d="M452,85.2c0,8.3-6.7,15.1-14.8,15.1s-14.8-6.8-14.8-15.1-.4-.8-.8-.8-.8.4-.8.8c0,8.6,6.4,15.7,14.6,16.7,0-.4.4-.8.8-.8s.8.4.8.8c0-.4.4-.8.8-.8s.8.4.8.8,0,0,0,0c8.4-.7,15.1-7.9,15.1-16.7s-.2-.7-.6-.8c-.2,0-.4,0-.7,0-.2.1-.4.4-.4.7Z"/>
    <path class="st3" d="M436.9,101.9s0,0,0,0c0,0,0,0,0,0,0,0,0,0,0,0Z"/>
    <path class="st3" d="M452.3,84.5c.2,0,.4,0,.7,0,0,0-.2,0-.2,0-.2,0-.3,0-.4.1Z"/>
    <path class="st3" d="M469.7,101.9s0,0,0,0c0,0,0,0,0,0,0,0,0,0,0,0Z"/>
    <path class="st3" d="M468.1,101.8c0-.4.4-.8.8-.8s.8.4.8.8c0-.4.4-.8.8-.8s.8.4.8.8,0,0,0,0c4.8-.4,9-2.9,11.8-6.6l-.6-2c-2.6,4.2-7.3,7.1-12.5,7.1-8.2,0-14.8-6.8-14.8-15.1s-.4-.8-.8-.8-.8.4-.8.8c0,8.6,6.4,15.7,14.6,16.7Z"/>
    <path class="st3" d="M27.2,118.6s0,0,0,0c0,0,0,0,0,0,0,0,0,0,0,0Z"/>
    <path class="st3" d="M26.4,117.8c.4,0,.8.4.8.8,0-.4.4-.8.8-.8s.7.3.8.7c7.8-1.3,13.7-8.2,13.8-16.5-.5,0-1.1,0-1.6-.1,0,0,0,0,0,0,0,8.3-6.7,15.1-14.8,15.1s-7.3-1.5-10-3.9l-.5,1.7c2.7,2.3,6.2,3.7,9.9,3.8,0,0,0,0,0,0,0-.4.4-.8.8-.8Z"/>
    <path class="st3" d="M42.5,101.9c0-.4-.4-.8-.8-.8s-.8.3-.8.8c.5,0,1.1,0,1.6.1,0,0,0,0,0,0Z"/>
    <path class="st3" d="M42.5,101.9c0,9,7.1,16.4,15.9,16.7,0,0,0,0,0,0,0-.4.4-.8.8-.8s.8.4.8.8c0-.4.4-.8.8-.8s.7.3.8.7c7.8-1.3,13.7-8.2,13.8-16.5-.5,0-1.1,0-1.6-.1,0,0,0,0,0,0,0,8.3-6.7,15.1-14.8,15.1s-14.8-6.8-14.8-15.1c-.4,0-.9,0-1.3,0s-.2,0-.3,0Z"/>
    <path class="st3" d="M60,118.6s0,0,0,0c0,0,0,0,0,0,0,0,0,0,0,0Z"/>
    <path class="st3" d="M42.8,102c.4,0,.9,0,1.3,0,0,0,0,0,0,0,0-.4-.4-.8-.8-.8s-.8.4-.8.8,0,0,0,0c0,0,.2,0,.3,0Z"/>
    <path class="st3" d="M74.6,101.1c-.4,0-.8.3-.8.8.5,0,1.1,0,1.6.1,0,0,0,0,0,0,0-.4-.4-.8-.8-.8Z"/>
    <path class="st3" d="M108.2,101.9c-.5,0-1.1,0-1.6-.1,0,0,0,0,0,0,0,8.3-6.7,15.1-14.8,15.1s-14.8-6.8-14.8-15.1c-.4,0-.9,0-1.3,0s-.2,0-.3,0c0,9,7.1,16.4,15.9,16.7,0,0,0,0,0,0,0-.4.4-.8.8-.8s.8.4.8.8c0-.4.4-.8.8-.8s.7.3.8.7c7.8-1.3,13.7-8.2,13.8-16.5Z"/>
    <path class="st3" d="M92.9,118.6s0,0,0,0c0,0,0,0,0,0,0,0,0,0,0,0Z"/>
    <path class="st3" d="M75.6,102c.4,0,.9,0,1.3,0,0,0,0,0,0,0,0-.4-.4-.8-.8-.8s-.8.4-.8.8,0,0,0,0c0,0,.2,0,.3,0Z"/>
    <path class="st3" d="M107.4,101.1c-.4,0-.8.3-.8.8.5,0,1.1,0,1.6.1,0,0,0,0,0,0,0-.4-.4-.8-.8-.8Z"/>
    <path class="st3" d="M125.7,118.6s0,0,0,0c0,0,0,0,0,0,0,0,0,0,0,0Z"/>
    <path class="st3" d="M141.1,101.9c-.5,0-1.1,0-1.6-.1,0,0,0,0,0,0,0,8.3-6.7,15.1-14.8,15.1s-14.8-6.8-14.8-15.1c-.4,0-.9,0-1.3,0s-.2,0-.3,0c0,9,7.1,16.4,15.9,16.7,0,0,0,0,0,0,0-.4.4-.8.8-.8s.8.4.8.8c0-.4.4-.8.8-.8s.7.3.8.7c7.8-1.3,13.7-8.2,13.8-16.5Z"/>
    <path class="st3" d="M109,101.1c-.4,0-.8.4-.8.8s0,0,0,0c0,0,.2,0,.3,0,.4,0,.9,0,1.3,0,0,0,0,0,0,0,0-.4-.4-.8-.8-.8Z"/>
    <path class="st3" d="M140.3,101.1c-.4,0-.8.3-.8.8.5,0,1.1,0,1.6.1,0,0,0,0,0,0,0-.4-.4-.8-.8-.8Z"/>
    <path class="st3" d="M158.6,118.6s0,0,0,0c0,0,0,0,0,0,0,0,0,0,0,0Z"/>
    <path class="st3" d="M174,101.9c-.5,0-1.1,0-1.6-.1,0,0,0,0,0,0,0,8.3-6.7,15.1-14.8,15.1s-14.8-6.8-14.8-15.1c-.4,0-.9,0-1.3,0s-.2,0-.3,0c0,9,7.1,16.4,15.9,16.7,0,0,0,0,0,0,0-.4.4-.8.8-.8s.8.4.8.8c0-.4.4-.8.8-.8s.7.3.8.7c7.8-1.3,13.7-8.2,13.8-16.5Z"/>
    <path class="st3" d="M141.9,101.1c-.4,0-.8.4-.8.8s0,0,0,0c0,0,.2,0,.3,0,.4,0,.9,0,1.3,0,0,0,0,0,0,0,0-.4-.4-.8-.8-.8Z"/>
    <path class="st3" d="M173.2,101.1c-.4,0-.8.3-.8.8.5,0,1.1,0,1.6.1,0,0,0,0,0,0,0-.4-.4-.8-.8-.8Z"/>
    <path class="st3" d="M206.8,101.9c-.5,0-1.1,0-1.6-.1,0,0,0,0,0,0,0,8.3-6.7,15.1-14.8,15.1s-14.8-6.8-14.8-15.1c-.4,0-.9,0-1.3,0s-.2,0-.3,0c0,9,7.1,16.4,15.9,16.7,0,0,0,0,0,0,0-.4.4-.8.8-.8s.8.4.8.8c0-.4.4-.8.8-.8s.7.3.8.7c7.8-1.3,13.7-8.2,13.8-16.5Z"/>
    <path class="st3" d="M191.5,118.6h0s0,0,0,0c0,0,0,0,0,0Z"/>
    <path class="st3" d="M174.8,101.1c-.4,0-.8.4-.8.8s0,0,0,0c0,0,.2,0,.3,0,.4,0,.9,0,1.3,0,0,0,0,0,0,0,0-.4-.4-.8-.8-.8Z"/>
    <path class="st3" d="M206,101.1c-.4,0-.8.3-.8.8.5,0,1.1,0,1.6.1,0,0,0,0,0,0,0-.4-.4-.8-.8-.8Z"/>
    <path class="st3" d="M239.7,101.9c-.5,0-1.1,0-1.6-.1,0,0,0,0,0,0,0,8.3-6.7,15.1-14.8,15.1s-14.8-6.8-14.8-15.1c-.4,0-.9,0-1.3,0s-.2,0-.3,0c0,9,7.1,16.4,15.9,16.7,0,0,0,0,0,0,0-.4.4-.8.8-.8s.8.4.8.8c0-.4.4-.8.8-.8s.7.3.8.7c7.8-1.3,13.7-8.2,13.8-16.5Z"/>
    <path class="st3" d="M224.3,118.6h0s0,0,0,0c0,0,0,0,0,0Z"/>
    <path class="st3" d="M207.6,101.1c-.4,0-.8.4-.8.8s0,0,0,0c0,0,.2,0,.3,0,.4,0,.9,0,1.3,0,0,0,0,0,0,0,0-.4-.4-.8-.8-.8Z"/>
    <path class="st3" d="M238.9,101.1c-.4,0-.8.3-.8.8.5,0,1.1,0,1.6.1,0,0,0,0,0,0,0-.4-.4-.8-.8-.8Z"/>
    <path class="st3" d="M257.2,118.6h0s0,0,0,0c0,0,0,0,0,0Z"/>
    <path class="st3" d="M272.5,101.9c-.5,0-1.1,0-1.6-.1,0,0,0,0,0,0,0,8.3-6.7,15.1-14.8,15.1s-14.8-6.8-14.8-15.1c-.4,0-.9,0-1.3,0s-.2,0-.3,0c0,9,7.1,16.4,15.9,16.7,0,0,0,0,0,0,0-.4.4-.8.8-.8s.8.4.8.8c0-.4.4-.8.8-.8s.7.3.8.7c7.8-1.3,13.7-8.2,13.8-16.5Z"/>
    <path class="st3" d="M240.5,101.1c-.4,0-.8.4-.8.8s0,0,0,0c0,0,.2,0,.3,0,.4,0,.9,0,1.3,0,0,0,0,0,0,0,0-.4-.4-.8-.8-.8Z"/>
    <path class="st3" d="M271.7,101.1c-.4,0-.8.3-.8.8.5,0,1.1,0,1.6.1,0,0,0,0,0,0,0-.4-.4-.8-.8-.8Z"/>
    <path class="st3" d="M290.1,118.6h0s0,0,0,0c0,0,0,0,0,0Z"/>
    <path class="st3" d="M305.4,101.9c-.5,0-1.1,0-1.6-.1,0,0,0,0,0,0,0,8.3-6.7,15.1-14.8,15.1s-14.8-6.8-14.8-15.1c-.4,0-.9,0-1.3,0s-.2,0-.3,0c0,9,7.1,16.4,15.9,16.7,0,0,0,0,0,0,0-.4.4-.8.8-.8s.8.4.8.8c0-.4.4-.8.8-.8s.7.3.8.7c7.8-1.3,13.7-8.2,13.8-16.5Z"/>
    <path class="st3" d="M273.3,101.1c-.4,0-.8.4-.8.8s0,0,0,0c0,0,.2,0,.3,0,.4,0,.9,0,1.3,0,0,0,0,0,0,0,0-.4-.4-.8-.8-.8Z"/>
    <path class="st3" d="M304.6,101.1c-.4,0-.8.3-.8.8.5,0,1.1,0,1.6.1,0,0,0,0,0,0,0-.4-.4-.8-.8-.8Z"/>
    <path class="st3" d="M338.3,101.9c-.5,0-1.1,0-1.6-.1,0,0,0,0,0,0,0,8.3-6.7,15.1-14.8,15.1s-14.8-6.8-14.8-15.1c-.4,0-.9,0-1.3,0s-.2,0-.3,0c0,9,7.1,16.4,15.9,16.7,0,0,0,0,0,0,0-.4.4-.8.8-.8s.8.4.8.8c0-.4.4-.8.8-.8s.7.3.8.7c7.8-1.3,13.7-8.2,13.8-16.5Z"/>
    <path class="st3" d="M322.9,118.6h0s0,0,0,0c0,0,0,0,0,0Z"/>
    <path class="st3" d="M306.2,101.1c-.4,0-.8.4-.8.8s0,0,0,0c0,0,.2,0,.3,0,.4,0,.9,0,1.3,0,0,0,0,0,0,0,0-.4-.4-.8-.8-.8Z"/>
    <path class="st3" d="M337.5,101.1c-.4,0-.8.3-.8.8.5,0,1.1,0,1.6.1,0,0,0,0,0,0,0-.4-.4-.8-.8-.8Z"/>
    <path class="st3" d="M355.8,118.6h0s0,0,0,0c0,0,0,0,0,0Z"/>
    <path class="st3" d="M371.1,101.9c-.5,0-1.1,0-1.6-.1,0,0,0,0,0,0,0,8.3-6.7,15.1-14.8,15.1s-14.8-6.8-14.8-15.1c-.4,0-.9,0-1.3,0s-.2,0-.3,0c0,9,7.1,16.4,15.9,16.7,0,0,0,0,0,0,0-.4.4-.8.8-.8s.8.4.8.8c0-.4.4-.8.8-.8s.7.3.8.7c7.8-1.3,13.7-8.2,13.8-16.5Z"/>
    <path class="st3" d="M339.1,101.1c-.4,0-.8.4-.8.8s0,0,0,0c0,0,.2,0,.3,0,.4,0,.9,0,1.3,0,0,0,0,0,0,0,0-.4-.4-.8-.8-.8Z"/>
    <path class="st3" d="M370.3,101.1c-.4,0-.8.3-.8.8.5,0,1.1,0,1.6.1,0,0,0,0,0,0,0-.4-.4-.8-.8-.8Z"/>
    <path class="st3" d="M388.6,118.6h0s0,0,0,0c0,0,0,0,0,0Z"/>
    <path class="st3" d="M404,101.9c-.5,0-1.1,0-1.6-.1,0,0,0,0,0,0,0,8.3-6.7,15.1-14.8,15.1s-14.8-6.8-14.8-15.1c-.4,0-.9,0-1.3,0s-.2,0-.3,0c0,9,7.1,16.4,15.9,16.7,0,0,0,0,0,0,0-.4.4-.8.8-.8s.8.4.8.8c0-.4.4-.8.8-.8s.7.3.8.7c7.8-1.3,13.7-8.2,13.8-16.5Z"/>
    <path class="st3" d="M371.9,101.1c-.4,0-.8.4-.8.8s0,0,0,0c0,0,.2,0,.3,0,.4,0,.9,0,1.3,0,0,0,0,0,0,0,0-.4-.4-.8-.8-.8Z"/>
    <path class="st3" d="M404,101.9c0-.4-.4-.8-.8-.8s-.8.3-.8.8c.5,0,1.1,0,1.6.1,0,0,0,0,0,0Z"/>
    <path class="st3" d="M420.4,117c-8.2,0-14.8-6.8-14.8-15.1-.4,0-.9,0-1.3,0s-.2,0-.3,0c0,9,7.1,16.4,15.9,16.7,0,0,0,0,0,0,0-.4.4-.8.8-.8s.8.4.8.8c0-.4.4-.8.8-.8s.7.3.8.7c7.8-1.3,13.7-8.2,13.8-16.5-.5,0-1.1,0-1.6-.1,0,0,0,0,0,0,0,8.3-6.7,15.1-14.8,15.1Z"/>
    <path class="st3" d="M421.5,118.6h0s0,0,0,0c0,0,0,0,0,0Z"/>
    <path class="st3" d="M404.3,102c.4,0,.9,0,1.3,0,0,0,0,0,0,0,0-.4-.4-.8-.8-.8s-.8.4-.8.8,0,0,0,0c0,0,.2,0,.3,0Z"/>
    <path class="st3" d="M436.9,101.9c0-.4-.4-.8-.8-.8s-.8.3-.8.8c.5,0,1.1,0,1.6.1,0,0,0,0,0,0Z"/>
    <path class="st3" d="M436.9,101.9c0,9,7.1,16.4,15.9,16.7,0,0,0,0,0,0,0-.4.4-.8.8-.8s.8.4.8.8c0-.4.4-.8.8-.8s.7.3.8.7c7.8-1.3,13.7-8.2,13.8-16.5-.5,0-1.1,0-1.6-.1,0,0,0,0,0,0,0,8.3-6.7,15.1-14.8,15.1s-14.8-6.8-14.8-15.1c-.4,0-.9,0-1.3,0s-.2,0-.3,0Z"/>
    <path class="st3" d="M454.4,118.6h0s0,0,0,0c0,0,0,0,0,0Z"/>
    <path class="st3" d="M437.1,102c.4,0,.9,0,1.3,0,0,0,0,0,0,0,0-.4-.4-.8-.8-.8s-.8.4-.8.8,0,0,0,0c0,0,.2,0,.3,0Z"/>
    <path class="st3" d="M469.7,101.9c0-.4-.4-.8-.8-.8s-.8.3-.8.8c.5,0,1.1,0,1.6.1,0,0,0,0,0,0Z"/>
    <path class="st3" d="M469.7,101.9c0,9,7.1,16.4,15.9,16.7,0,0,0,0,0,0,0-.4.4-.8.8-.8s.8.4.8.8c0-.4.4-.8.8-.8s.7.3.8.7c.2,0,.4,0,.5,0l-.4-1.6c-.9.2-1.8.3-2.8.3-8.2,0-14.8-6.8-14.8-15.1-.4,0-.9,0-1.3,0s-.2,0-.3,0Z"/>
    <path class="st3" d="M487.2,118.6h0s0,0,0,0c0,0,0,0,0,0Z"/>
    <path class="st3" d="M470.5,101.1c-.4,0-.8.4-.8.8s0,0,0,0c0,0,.2,0,.3,0,.4,0,.9,0,1.3,0,0,0,0,0,0,0,0-.4-.4-.8-.8-.8Z"/>
    <path class="st3" d="M11.5,135.3s0,0,0,0c0-.2,0-.4,0-.6,0,.2,0,.4,0,.6Z"/>
    <path class="st3" d="M11.6,134.7c0-.4.4-.8.8-.8s.8.4.8.8,0,.3,0,.4c7.9-1.2,14-8.2,14-16.5-.4,0-.7,0-1.1,0s-.3,0-.5,0c0,8.3-6.7,15.1-14.8,15.1s-.1,0-.2,0v.3s.1,0,.2,0c.4,0,.8.4.8.8Z"/>
    <path class="st3" d="M27.2,118.6s0,0,0,0c0-.4-.4-.8-.8-.8s-.8.4-.8.8,0,0,0,0c.2,0,.3,0,.5,0,.4,0,.7,0,1.1,0Z"/>
    <path class="st3" d="M60,118.6c-.4,0-.7,0-1.1,0s-.3,0-.5,0c0,8.3-6.7,15.1-14.8,15.1s-14.8-6.8-14.8-15.1,0-.1,0-.2c-.5,0-1,.1-1.6.2,0,9,7,16.3,15.6,16.7,0-.2,0-.4,0-.6,0-.4.4-.8.8-.8s.8.4.8.8c0-.4.4-.8.8-.8s.8.4.8.8,0,.3,0,.4c7.9-1.2,14-8.2,14-16.5Z"/>
    <path class="st3" d="M44.4,135.3s0,0,0,0c0-.2,0-.4,0-.6,0,.2,0,.4,0,.6Z"/>
    <path class="st3" d="M28.7,118.4c0-.4-.4-.7-.8-.7s-.8.4-.8.8,0,0,0,0c.5,0,1.1,0,1.6-.2Z"/>
    <path class="st3" d="M59.2,117.8c-.4,0-.8.4-.8.8s0,0,0,0c.2,0,.3,0,.5,0,.4,0,.7,0,1.1,0,0,0,0,0,0,0,0-.4-.4-.8-.8-.8Z"/>
    <path class="st3" d="M92.9,118.6c-.4,0-.7,0-1.1,0s-.3,0-.5,0c0,8.3-6.7,15.1-14.8,15.1s-14.8-6.8-14.8-15.1,0-.1,0-.2c-.5,0-1,.1-1.6.2,0,9,7,16.3,15.6,16.7,0-.2,0-.4,0-.6,0-.4.4-.8.8-.8s.8.4.8.8c0-.4.4-.8.8-.8s.8.4.8.8,0,.3,0,.4c7.9-1.2,14-8.2,14-16.5Z"/>
    <path class="st3" d="M77.3,135.3s0,0,0,0c0-.2,0-.4,0-.6,0,.2,0,.4,0,.6Z"/>
    <path class="st3" d="M60.8,117.8c-.4,0-.8.4-.8.8s0,0,0,0c.5,0,1.1,0,1.6-.2,0-.4-.4-.7-.8-.7Z"/>
    <path class="st3" d="M92.1,117.8c-.4,0-.8.4-.8.8s0,0,0,0c.2,0,.3,0,.5,0,.4,0,.7,0,1.1,0,0,0,0,0,0,0,0-.4-.4-.8-.8-.8Z"/>
    <path class="st3" d="M110.1,135.3s0,0,0,0c0-.2,0-.4,0-.6,0,.2,0,.4,0,.6Z"/>
    <path class="st3" d="M125.7,118.6c-.4,0-.7,0-1.1,0s-.3,0-.5,0c0,8.3-6.7,15.1-14.8,15.1s-14.8-6.8-14.8-15.1,0-.1,0-.2c-.5,0-1,.1-1.6.2,0,9,7,16.3,15.6,16.7,0-.2,0-.4,0-.6,0-.4.4-.8.8-.8s.8.4.8.8c0-.4.4-.8.8-.8s.8.4.8.8,0,.3,0,.4c7.9-1.2,14-8.2,14-16.5Z"/>
    <path class="st3" d="M93.7,117.8c-.4,0-.8.4-.8.8s0,0,0,0c.5,0,1.1,0,1.6-.2,0-.4-.4-.7-.8-.7Z"/>
    <path class="st3" d="M124.9,117.8c-.4,0-.8.4-.8.8s0,0,0,0c.2,0,.3,0,.5,0,.4,0,.7,0,1.1,0,0,0,0,0,0,0,0-.4-.4-.8-.8-.8Z"/>
    <path class="st3" d="M143,135.3s0,0,0,0c0-.2,0-.4,0-.6,0,.2,0,.4,0,.6Z"/>
    <path class="st3" d="M158.6,118.6c-.4,0-.7,0-1.1,0s-.3,0-.5,0c0,8.3-6.7,15.1-14.8,15.1s-14.8-6.8-14.8-15.1,0-.1,0-.2c-.5,0-1,.1-1.6.2,0,9,7,16.3,15.6,16.7,0-.2,0-.4,0-.6,0-.4.4-.8.8-.8s.8.4.8.8c0-.4.4-.8.8-.8s.8.4.8.8,0,.3,0,.4c7.9-1.2,14-8.2,14-16.5Z"/>
    <path class="st3" d="M126.5,117.8c-.4,0-.8.4-.8.8s0,0,0,0c.5,0,1.1,0,1.6-.2,0-.4-.4-.7-.8-.7Z"/>
    <path class="st3" d="M157.8,117.8c-.4,0-.8.4-.8.8s0,0,0,0c.2,0,.3,0,.5,0,.4,0,.7,0,1.1,0,0,0,0,0,0,0,0-.4-.4-.8-.8-.8Z"/>
    <path class="st3" d="M175.9,135.3s0,0,0,0c0-.2,0-.4,0-.6,0,.2,0,.4,0,.6Z"/>
    <path class="st3" d="M191.5,118.6c-.4,0-.7,0-1.1,0s-.3,0-.5,0c0,8.3-6.7,15.1-14.8,15.1s-14.8-6.8-14.8-15.1,0-.1,0-.2c-.5,0-1,.1-1.6.2,0,9,7,16.3,15.6,16.7,0-.2,0-.4,0-.6,0-.4.4-.8.8-.8s.8.4.8.8c0-.4.4-.8.8-.8s.8.4.8.8,0,.3,0,.4c7.9-1.2,14-8.2,14-16.5Z"/>
    <path class="st3" d="M159.4,117.8c-.4,0-.8.4-.8.8s0,0,0,0c.5,0,1.1,0,1.6-.2,0-.4-.4-.7-.8-.7Z"/>
    <path class="st3" d="M190.7,117.8c-.4,0-.8.4-.8.8s0,0,0,0c.2,0,.3,0,.5,0,.4,0,.7,0,1.1,0,0,0,0,0,0,0,0-.4-.4-.8-.8-.8Z"/>
    <path class="st3" d="M208.7,135.3s0,0,0,0c0-.2,0-.4,0-.6,0,.2,0,.4,0,.6Z"/>
    <path class="st3" d="M224.3,118.6c-.4,0-.7,0-1.1,0s-.3,0-.5,0c0,8.3-6.7,15.1-14.8,15.1s-14.8-6.8-14.8-15.1,0-.1,0-.2c-.5,0-1,.1-1.6.2,0,9,7,16.3,15.6,16.7,0-.2,0-.4,0-.6,0-.4.4-.8.8-.8s.8.4.8.8c0-.4.4-.8.8-.8s.8.4.8.8,0,.3,0,.4c7.9-1.2,14-8.2,14-16.5Z"/>
    <path class="st3" d="M192.3,117.8c-.4,0-.8.4-.8.8s0,0,0,0c.5,0,1.1,0,1.6-.2,0-.4-.4-.7-.8-.7Z"/>
    <path class="st3" d="M223.5,117.8c-.4,0-.8.4-.8.8s0,0,0,0c.2,0,.3,0,.5,0,.4,0,.7,0,1.1,0,0,0,0,0,0,0,0-.4-.4-.8-.8-.8Z"/>
    <path class="st3" d="M241.6,135.3s0,0,0,0c0-.2,0-.4,0-.6,0,.2,0,.4,0,.6Z"/>
    <path class="st3" d="M257.2,118.6c-.4,0-.7,0-1.1,0s-.3,0-.5,0c0,8.3-6.7,15.1-14.8,15.1s-14.8-6.8-14.8-15.1,0-.1,0-.2c-.5,0-1,.1-1.6.2,0,9,7,16.3,15.6,16.7,0-.2,0-.4,0-.6,0-.4.4-.8.8-.8s.8.4.8.8c0-.4.4-.8.8-.8s.8.4.8.8,0,.3,0,.4c7.9-1.2,14-8.2,14-16.5Z"/>
    <path class="st3" d="M225.1,117.8c-.4,0-.8.4-.8.8s0,0,0,0c.5,0,1.1,0,1.6-.2,0-.4-.4-.7-.8-.7Z"/>
    <path class="st3" d="M256.4,117.8c-.4,0-.8.4-.8.8s0,0,0,0c.2,0,.3,0,.5,0,.4,0,.7,0,1.1,0,0,0,0,0,0,0,0-.4-.4-.8-.8-.8Z"/>
    <path class="st3" d="M290.1,118.6c-.4,0-.7,0-1.1,0s-.3,0-.5,0c0,8.3-6.7,15.1-14.8,15.1s-14.8-6.8-14.8-15.1,0-.1,0-.2c-.5,0-1,.1-1.6.2,0,9,7,16.3,15.6,16.7,0-.2,0-.4,0-.6,0-.4.4-.8.8-.8s.8.4.8.8c0-.4.4-.8.8-.8s.8.4.8.8,0,.3,0,.4c7.9-1.2,14-8.2,14-16.5Z"/>
    <path class="st3" d="M274.4,135.3s0,0,0,0c0-.2,0-.4,0-.6,0,.2,0,.4,0,.6Z"/>
    <path class="st3" d="M258,117.8c-.4,0-.8.4-.8.8s0,0,0,0c.5,0,1.1,0,1.6-.2,0-.4-.4-.7-.8-.7Z"/>
    <path class="st3" d="M289.3,117.8c-.4,0-.8.4-.8.8s0,0,0,0c.2,0,.3,0,.5,0,.4,0,.7,0,1.1,0,0,0,0,0,0,0,0-.4-.4-.8-.8-.8Z"/>
    <path class="st3" d="M307.3,135.3s0,0,0,0c0-.2,0-.4,0-.6,0,.2,0,.4,0,.6Z"/>
    <path class="st3" d="M322.9,118.6c-.4,0-.7,0-1.1,0s-.3,0-.5,0c0,8.3-6.7,15.1-14.8,15.1s-14.8-6.8-14.8-15.1,0-.1,0-.2c-.5,0-1,.1-1.6.2,0,9,7,16.3,15.6,16.7,0-.2,0-.4,0-.6,0-.4.4-.8.8-.8s.8.4.8.8c0-.4.4-.8.8-.8s.8.4.8.8,0,.3,0,.4c7.9-1.2,14-8.2,14-16.5Z"/>
    <path class="st3" d="M290.9,117.8c-.4,0-.8.4-.8.8s0,0,0,0c.5,0,1.1,0,1.6-.2,0-.4-.4-.7-.8-.7Z"/>
    <path class="st3" d="M322.1,117.8c-.4,0-.8.4-.8.8s0,0,0,0c.2,0,.3,0,.5,0,.4,0,.7,0,1.1,0,0,0,0,0,0,0,0-.4-.4-.8-.8-.8Z"/>
    <path class="st3" d="M355.8,118.6c-.4,0-.7,0-1.1,0s-.3,0-.5,0c0,8.3-6.7,15.1-14.8,15.1s-14.8-6.8-14.8-15.1,0-.1,0-.2c-.5,0-1,.1-1.6.2,0,9,7,16.3,15.6,16.7,0-.2,0-.4,0-.6,0-.4.4-.8.8-.8s.8.4.8.8c0-.4.4-.8.8-.8s.8.4.8.8,0,.3,0,.4c7.9-1.2,14-8.2,14-16.5Z"/>
    <path class="st3" d="M340.2,135.3s0,0,0,0c0-.2,0-.4,0-.6,0,.2,0,.4,0,.6Z"/>
    <path class="st3" d="M323.7,117.8c-.4,0-.8.4-.8.8s0,0,0,0c.5,0,1.1,0,1.6-.2,0-.4-.4-.7-.8-.7Z"/>
    <path class="st3" d="M355,117.8c-.4,0-.8.4-.8.8s0,0,0,0c.2,0,.3,0,.5,0,.4,0,.7,0,1.1,0,0,0,0,0,0,0,0-.4-.4-.8-.8-.8Z"/>
    <path class="st3" d="M388.6,118.6c-.4,0-.7,0-1.1,0s-.3,0-.5,0c0,8.3-6.7,15.1-14.8,15.1s-14.8-6.8-14.8-15.1,0-.1,0-.2c-.5,0-1,.1-1.6.2,0,9,7,16.3,15.6,16.7,0-.2,0-.4,0-.6,0-.4.4-.8.8-.8s.8.4.8.8c0-.4.4-.8.8-.8s.8.4.8.8,0,.3,0,.4c7.9-1.2,14-8.2,14-16.5Z"/>
    <path class="st3" d="M373,135.3s0,0,0,0c0-.2,0-.4,0-.6,0,.2,0,.4,0,.6Z"/>
    <path class="st3" d="M356.6,117.8c-.4,0-.8.4-.8.8s0,0,0,0c.5,0,1.1,0,1.6-.2,0-.4-.4-.7-.8-.7Z"/>
    <path class="st3" d="M387.8,117.8c-.4,0-.8.4-.8.8s0,0,0,0c.2,0,.3,0,.5,0,.4,0,.7,0,1.1,0,0,0,0,0,0,0,0-.4-.4-.8-.8-.8Z"/>
    <path class="st3" d="M405.9,135.3s0,0,0,0c0-.2,0-.4,0-.6,0,.2,0,.4,0,.6Z"/>
    <path class="st3" d="M421.5,118.6c-.4,0-.7,0-1.1,0s-.3,0-.5,0c0,8.3-6.7,15.1-14.8,15.1s-14.8-6.8-14.8-15.1,0-.1,0-.2c-.5,0-1,.1-1.6.2,0,9,7,16.3,15.6,16.7,0-.2,0-.4,0-.6,0-.4.4-.8.8-.8s.8.4.8.8c0-.4.4-.8.8-.8s.8.4.8.8,0,.3,0,.4c7.9-1.2,14-8.2,14-16.5Z"/>
    <path class="st3" d="M389.4,117.8c-.4,0-.8.4-.8.8s0,0,0,0c.5,0,1.1,0,1.6-.2,0-.4-.4-.7-.8-.7Z"/>
    <path class="st3" d="M420.7,117.8c-.4,0-.8.4-.8.8s0,0,0,0c.2,0,.3,0,.5,0,.4,0,.7,0,1.1,0,0,0,0,0,0,0,0-.4-.4-.8-.8-.8Z"/>
    <path class="st3" d="M438.7,135.3s0,0,0,0c0-.2,0-.4,0-.6,0,.2,0,.4,0,.6Z"/>
    <path class="st3" d="M454.4,118.6c-.4,0-.7,0-1.1,0s-.3,0-.5,0c0,8.3-6.7,15.1-14.8,15.1s-14.8-6.8-14.8-15.1,0-.1,0-.2c-.5,0-1,.1-1.6.2,0,9,7,16.3,15.6,16.7,0-.2,0-.4,0-.6,0-.4.4-.8.8-.8s.8.4.8.8c0-.4.4-.8.8-.8s.8.4.8.8,0,.3,0,.4c7.9-1.2,14-8.2,14-16.5Z"/>
    <path class="st3" d="M422.3,117.8c-.4,0-.8.4-.8.8s0,0,0,0c.5,0,1.1,0,1.6-.2,0-.4-.4-.7-.8-.7Z"/>
    <path class="st3" d="M453.6,117.8c-.4,0-.8.4-.8.8s0,0,0,0c.2,0,.3,0,.5,0,.4,0,.7,0,1.1,0,0,0,0,0,0,0,0-.4-.4-.8-.8-.8Z"/>
    <path class="st3" d="M485.6,118.6c0,8.3-6.7,15.1-14.8,15.1s-14.8-6.8-14.8-15.1,0-.1,0-.2c-.5,0-1,.1-1.6.2,0,9,7,16.3,15.6,16.7,0-.2,0-.4,0-.6,0-.4.4-.8.8-.8s.8.4.8.8c0-.4.4-.8.8-.8s.8.4.8.8,0,.3,0,.4c7.9-1.2,14-8.2,14-16.5-.4,0-.7,0-1.1,0s-.3,0-.5,0Z"/>
    <path class="st3" d="M471.6,135.3s0,0,0,0c0-.2,0-.4,0-.6,0,.2,0,.4,0,.6Z"/>
    <path class="st3" d="M455.2,117.8c-.4,0-.8.4-.8.8s0,0,0,0c.5,0,1.1,0,1.6-.2,0-.4-.4-.7-.8-.7Z"/>
    <path class="st3" d="M486.4,117.8c-.4,0-.8.4-.8.8s0,0,0,0c.2,0,.3,0,.5,0,.4,0,.7,0,1.1,0,0,0,0,0,0,0,0-.4-.4-.8-.8-.8Z"/>
    <path class="st3" d="M492.8,131.2l-.9-3.4c-1.9-2.6-3.1-5.8-3.1-9.2s0-.1,0-.2c-.5,0-1,.1-1.6.2,0,5,2.2,9.5,5.6,12.6Z"/>
    <path class="st3" d="M488,117.8c-.4,0-.8.4-.8.8s0,0,0,0c.5,0,1.1,0,1.6-.2,0-.4-.4-.7-.8-.7Z"/>
    <path class="st3" d="M10.1,135.3l-.2.8c-.2,1.8-.7,3.6-1.4,5.2l-1.3,4.8c2.6-2.9,4.2-6.6,4.4-10.8-.3,0-.5,0-.8,0s-.4,0-.6,0Z"/>
    <path class="st3" d="M10.8,133.9c0,0-.2,0-.3,0l-.4,1.4c.2,0,.4,0,.6,0s.5,0,.8,0c0-.2,0-.4,0-.6,0-.4-.4-.8-.8-.8Z"/>
    <path class="st3" d="M42.8,135.3c-.3,8.1-6.8,14.5-14.8,14.5s-14.6-6.6-14.8-14.7c-.5,0-1.1.1-1.6.2.3,9,7.6,16.2,16.4,16.2s16.1-7.2,16.4-16.2c-.3,0-.5,0-.8,0s-.5,0-.8,0Z"/>
    <path class="st3" d="M13.1,134.7c0-.4-.4-.8-.8-.8s-.8.4-.8.8,0,.4,0,.6c.5,0,1.1,0,1.6-.2,0-.1,0-.3,0-.4Z"/>
    <path class="st3" d="M43.6,133.9c-.4,0-.8.4-.8.8s0,.4,0,.6c.3,0,.5,0,.8,0s.5,0,.8,0c0-.2,0-.4,0-.6,0-.4-.4-.8-.8-.8Z"/>
    <path class="st3" d="M75.7,135.3c-.3,8.1-6.8,14.5-14.8,14.5s-14.6-6.6-14.8-14.7c-.5,0-1.1.1-1.6.2.3,9,7.6,16.2,16.4,16.2s16.1-7.2,16.4-16.2c-.3,0-.5,0-.8,0s-.5,0-.8,0Z"/>
    <path class="st3" d="M46,134.7c0-.4-.4-.8-.8-.8s-.8.4-.8.8,0,.4,0,.6c.5,0,1.1,0,1.6-.2,0-.1,0-.3,0-.4Z"/>
    <path class="st3" d="M76.5,133.9c-.4,0-.8.4-.8.8s0,.4,0,.6c.3,0,.5,0,.8,0s.5,0,.8,0c0-.2,0-.4,0-.6,0-.4-.4-.8-.8-.8Z"/>
    <path class="st3" d="M108.5,135.3c-.3,8.1-6.8,14.5-14.8,14.5s-14.6-6.6-14.8-14.7c-.5,0-1.1.1-1.6.2.3,9,7.6,16.2,16.4,16.2s16.1-7.2,16.4-16.2c-.3,0-.5,0-.8,0s-.5,0-.8,0Z"/>
    <path class="st3" d="M78.9,134.7c0-.4-.4-.8-.8-.8s-.8.4-.8.8,0,.4,0,.6c.5,0,1.1,0,1.6-.2,0-.1,0-.3,0-.4Z"/>
    <path class="st3" d="M109.3,133.9c-.4,0-.8.4-.8.8s0,.4,0,.6c.3,0,.5,0,.8,0s.5,0,.8,0c0-.2,0-.4,0-.6,0-.4-.4-.8-.8-.8Z"/>
    <path class="st3" d="M141.4,135.3c-.3,8.1-6.8,14.5-14.8,14.5s-14.6-6.6-14.8-14.7c-.5,0-1.1.1-1.6.2.3,9,7.6,16.2,16.4,16.2s16.1-7.2,16.4-16.2c-.3,0-.5,0-.8,0s-.5,0-.8,0Z"/>
    <path class="st3" d="M111.7,134.7c0-.4-.4-.8-.8-.8s-.8.4-.8.8,0,.4,0,.6c.5,0,1.1,0,1.6-.2,0-.1,0-.3,0-.4Z"/>
    <path class="st3" d="M142.2,133.9c-.4,0-.8.4-.8.8s0,.4,0,.6c.3,0,.5,0,.8,0s.5,0,.8,0c0-.2,0-.4,0-.6,0-.4-.4-.8-.8-.8Z"/>
    <path class="st3" d="M174.3,135.3c-.3,8.1-6.8,14.5-14.8,14.5s-14.6-6.6-14.8-14.7c-.5,0-1.1.1-1.6.2.3,9,7.6,16.2,16.4,16.2s16.1-7.2,16.4-16.2c-.3,0-.5,0-.8,0s-.5,0-.8,0Z"/>
    <path class="st3" d="M144.6,134.7c0-.4-.4-.8-.8-.8s-.8.4-.8.8,0,.4,0,.6c.5,0,1.1,0,1.6-.2,0-.1,0-.3,0-.4Z"/>
    <path class="st3" d="M175.1,133.9c-.4,0-.8.4-.8.8s0,.4,0,.6c.3,0,.5,0,.8,0s.5,0,.8,0c0-.2,0-.4,0-.6,0-.4-.4-.8-.8-.8Z"/>
    <path class="st3" d="M207.1,135.3c-.3,8.1-6.8,14.5-14.8,14.5s-14.6-6.6-14.8-14.7c-.5,0-1.1.1-1.6.2.3,9,7.6,16.2,16.4,16.2s16.1-7.2,16.4-16.2c-.3,0-.5,0-.8,0s-.5,0-.8,0Z"/>
    <path class="st3" d="M177.5,134.7c0-.4-.4-.8-.8-.8s-.8.4-.8.8,0,.4,0,.6c.5,0,1.1,0,1.6-.2,0-.1,0-.3,0-.4Z"/>
    <path class="st3" d="M207.9,133.9c-.4,0-.8.4-.8.8s0,.4,0,.6c.3,0,.5,0,.8,0s.5,0,.8,0c0-.2,0-.4,0-.6,0-.4-.4-.8-.8-.8Z"/>
    <path class="st3" d="M240,135.3c-.3,8.1-6.8,14.5-14.8,14.5s-14.6-6.6-14.8-14.7c-.5,0-1.1.1-1.6.2.3,9,7.6,16.2,16.4,16.2s16.1-7.2,16.4-16.2c-.3,0-.5,0-.8,0s-.5,0-.8,0Z"/>
    <path class="st3" d="M210.3,134.7c0-.4-.4-.8-.8-.8s-.8.4-.8.8,0,.4,0,.6c.5,0,1.1,0,1.6-.2,0-.1,0-.3,0-.4Z"/>
    <path class="st3" d="M240.8,133.9c-.4,0-.8.4-.8.8s0,.4,0,.6c.3,0,.5,0,.8,0s.5,0,.8,0c0-.2,0-.4,0-.6,0-.4-.4-.8-.8-.8Z"/>
    <path class="st3" d="M272.8,135.3c-.3,8.1-6.8,14.5-14.8,14.5s-14.6-6.6-14.8-14.7c-.5,0-1.1.1-1.6.2.3,9,7.6,16.2,16.4,16.2s16.1-7.2,16.4-16.2c-.3,0-.5,0-.8,0s-.5,0-.8,0Z"/>
    <path class="st3" d="M243.2,134.7c0-.4-.4-.8-.8-.8s-.8.4-.8.8,0,.4,0,.6c.5,0,1.1,0,1.6-.2,0-.1,0-.3,0-.4Z"/>
    <path class="st3" d="M273.6,133.9c-.4,0-.8.4-.8.8s0,.4,0,.6c.3,0,.5,0,.8,0s.5,0,.8,0c0-.2,0-.4,0-.6,0-.4-.4-.8-.8-.8Z"/>
    <path class="st3" d="M305.7,135.3c-.3,8.1-6.8,14.5-14.8,14.5s-14.6-6.6-14.8-14.7c-.5,0-1.1.1-1.6.2.3,9,7.6,16.2,16.4,16.2s16.1-7.2,16.4-16.2c-.3,0-.5,0-.8,0s-.5,0-.8,0Z"/>
    <path class="st3" d="M276,134.7c0-.4-.4-.8-.8-.8s-.8.4-.8.8,0,.4,0,.6c.5,0,1.1,0,1.6-.2,0-.1,0-.3,0-.4Z"/>
    <path class="st3" d="M306.5,133.9c-.4,0-.8.4-.8.8s0,.4,0,.6c.3,0,.5,0,.8,0s.5,0,.8,0c0-.2,0-.4,0-.6,0-.4-.4-.8-.8-.8Z"/>
    <path class="st3" d="M338.6,135.3c-.3,8.1-6.8,14.5-14.8,14.5s-14.6-6.6-14.8-14.7c-.5,0-1.1.1-1.6.2.3,9,7.6,16.2,16.4,16.2s16.1-7.2,16.4-16.2c-.3,0-.5,0-.8,0s-.5,0-.8,0Z"/>
    <path class="st3" d="M308.9,134.7c0-.4-.4-.8-.8-.8s-.8.4-.8.8,0,.4,0,.6c.5,0,1.1,0,1.6-.2,0-.1,0-.3,0-.4Z"/>
    <path class="st3" d="M339.4,133.9c-.4,0-.8.4-.8.8s0,.4,0,.6c.3,0,.5,0,.8,0s.5,0,.8,0c0-.2,0-.4,0-.6,0-.4-.4-.8-.8-.8Z"/>
    <path class="st3" d="M371.4,135.3c-.3,8.1-6.8,14.5-14.8,14.5s-14.6-6.6-14.8-14.7c-.5,0-1.1.1-1.6.2.3,9,7.6,16.2,16.4,16.2s16.1-7.2,16.4-16.2c-.3,0-.5,0-.8,0s-.5,0-.8,0Z"/>
    <path class="st3" d="M341.8,134.7c0-.4-.4-.8-.8-.8s-.8.4-.8.8,0,.4,0,.6c.5,0,1.1,0,1.6-.2,0-.1,0-.3,0-.4Z"/>
    <path class="st3" d="M372.2,133.9c-.4,0-.8.4-.8.8s0,.4,0,.6c.3,0,.5,0,.8,0s.5,0,.8,0c0-.2,0-.4,0-.6,0-.4-.4-.8-.8-.8Z"/>
    <path class="st3" d="M404.3,135.3c-.3,8.1-6.8,14.5-14.8,14.5s-14.6-6.6-14.8-14.7c-.5,0-1.1.1-1.6.2.3,9,7.6,16.2,16.4,16.2s16.1-7.2,16.4-16.2c-.3,0-.5,0-.8,0s-.5,0-.8,0Z"/>
    <path class="st3" d="M374.6,134.7c0-.4-.4-.8-.8-.8s-.8.4-.8.8,0,.4,0,.6c.5,0,1.1,0,1.6-.2,0-.1,0-.3,0-.4Z"/>
    <path class="st3" d="M405.1,133.9c-.4,0-.8.4-.8.8s0,.4,0,.6c.3,0,.5,0,.8,0s.5,0,.8,0c0-.2,0-.4,0-.6,0-.4-.4-.8-.8-.8Z"/>
    <path class="st3" d="M437.1,135.3c-.3,8.1-6.8,14.5-14.8,14.5s-14.6-6.6-14.8-14.7c-.5,0-1.1.1-1.6.2.3,9,7.6,16.2,16.4,16.2s16.1-7.2,16.4-16.2c-.3,0-.5,0-.8,0s-.5,0-.8,0Z"/>
    <path class="st3" d="M407.5,134.7c0-.4-.4-.8-.8-.8s-.8.4-.8.8,0,.4,0,.6c.5,0,1.1,0,1.6-.2,0-.1,0-.3,0-.4Z"/>
    <path class="st3" d="M438,133.9c-.4,0-.8.4-.8.8s0,.4,0,.6c.3,0,.5,0,.8,0s.5,0,.8,0c0-.2,0-.4,0-.6,0-.4-.4-.8-.8-.8Z"/>
    <path class="st3" d="M470,135.3c-.3,8.1-6.8,14.5-14.8,14.5s-14.6-6.6-14.8-14.7c-.5,0-1.1.1-1.6.2.3,9,7.6,16.2,16.4,16.2s16.1-7.2,16.4-16.2c-.3,0-.5,0-.8,0s-.5,0-.8,0Z"/>
    <path class="st3" d="M440.4,134.7c0-.4-.4-.8-.8-.8s-.8.4-.8.8,0,.4,0,.6c.5,0,1.1,0,1.6-.2,0-.1,0-.3,0-.4Z"/>
    <path class="st3" d="M470.8,133.9c-.4,0-.8.4-.8.8s0,.4,0,.6c.3,0,.5,0,.8,0s.5,0,.8,0c0-.2,0-.4,0-.6,0-.4-.4-.8-.8-.8Z"/>
    <path class="st3" d="M497.1,146.7c-2.5,2-5.6,3.1-9,3.1-8,0-14.6-6.6-14.8-14.7-.5,0-1.1.1-1.6.2.3,9,7.6,16.2,16.4,16.2s6.8-1.1,9.5-3.1l-.5-1.7Z"/>
    <path class="st3" d="M473.2,134.7c0-.4-.4-.8-.8-.8s-.8.4-.8.8,0,.4,0,.6c.5,0,1.1,0,1.6-.2,0-.1,0-.3,0-.4Z"/>
  </g>
  <path class="st2" d="M500,162.7s-491.3.5-500,.3c.8-4.1,4.5-7.2,7.6-8.3,1.9-.7,5.3.3,7.9-.7,5.3-1.8,10.3-3.9,15.7-5.2,1-.1,1.9-.3,2.9-.2,1.1,0,2.2,0,3.3.2,4.4.5,8.8,1.6,13.3,2.6,2.2.5,4.3.5,6.5.4,5.6-.7,11.3-1.9,16.8-.6,1.2.3,2.3.8,3.4,1.3,1.1.5,2.2.9,3.3,1.3.9.3,1.8.5,2.8.7.9.2,1.9.3,2.8.4,14.2.6,28.3-2.3,42.3-4.4,1,0,2-.2,3-.3,2-.2,4-.4,6-.7,2.6-.3,5.2.3,7.7,1.3,1,.3,2,.7,3,1,1,.3,2,.7,3,1,1.1.3,2.3.6,3.4.7,1.1.1,2.2.1,3.3,0,7.4-.7,14.6-3,21.9-3.2,6.4-.3,12.8,1,19.1,2.1.9,0,1.7.1,2.6.2,1.7,0,3.4-.1,5.1-.3,1.1-.2,2.2-.4,3.4-.6,2.7-.7,5.5-1.3,8.4-.8,1.4.3,2.8.5,4.1.6,1.4.1,2.7.2,4,.2,7.6-.2,15.2-.7,22.8-1.5,3.3-.3,6.5.4,9.8,1,3.1.5,5.8,1.5,8.9,1.5.9,0,1.9,0,2.8,0,2.9,0,5.7-.5,8.6-.8,6.7-.5,13,2.2,19.6,3.2.9.1,1.8.2,2.8.3,1.9,0,3.8,0,5.8-.4,7.6-1.2,14.8-1.1,22.1-1.8,1.3,0,2.5,0,3.8-.1,11.5-.7,23.5-4.2,34.4-.5.7.4,1.5.9,2.2,1.3,3.7,2,7.6,1.5,11.5,1,1.4-.2,2.8-.5,4.1-.8,4.4-1.2,8.9-2.6,13.5-2.4,8.7.3,17.2-.7,25.9-1.2,1.3,0,2.6,0,3.9.2,2.6.2,5.1.7,7.6,1.8,1,.4,2,.7,3,.9,3,.6,6.1.4,9.2-.2,8.1-1.5,15.7-5,23.9-3.7,1.4.2,2.9.3,4.3.5,8.8,1,18,2.7,22.1,10.7.3,1.2.5,2.1.6,2.1Z"/>
</svg>