<?xml version="1.0" encoding="UTF-8"?>
<svg id="Layer_1" xmlns="http://www.w3.org/2000/svg" version="1.1" viewBox="0 0 500 74">
  <!-- Generator: Adobe Illustrator 29.0.1, SVG Export Plug-In . SVG Version: 2.1.0 Build 192)  -->
  <defs>
    <style>
      .st0 {
        fill: #f48a8b;
      }

      .st1 {
        fill: #fff;
      }

      .st2 {
        fill: #f8b3a3;
      }

      .st3 {
        fill: #e97d82;
      }
    </style>
  </defs>
  <g>
    <g>
      <rect class="st0" x="53.7" y="19.6" width="75" height="54.3"/>
      <rect class="st2" x="46.4" width="89.5" height="19.6"/>
      <rect class="st3" x="72.7" y="49.6" width="44.6" height="18.4"/>
      <rect class="st3" x="97.5" y="28.3" width="31.2" height="18.4"/>
    </g>
    <g>
      <rect class="st0" x="369.2" y="19.6" width="75" height="54.3"/>
      <rect class="st2" x="362" width="89.5" height="19.6"/>
      <rect class="st3" x="386.5" y="51.2" width="44.6" height="18.4"/>
      <rect class="st3" x="369.1" y="28.3" width="24.5" height="18.4"/>
      <rect class="st3" x="369.1" y="51.2" width="12.2" height="18.4"/>
    </g>
  </g>
  <path class="st1" d="M0,73.6s491.3.7,500,.3c-.8-5-4.5-8.8-7.6-10.1-1.9-.8-5.3.3-7.9-.8-5.3-2.1-10.3-4.8-15.7-6.3-1-.2-1.9-.3-2.9-.2-1.1,0-2.2.1-3.3.3-4.4.6-8.8,2-13.3,3.1-2.2.7-4.3.7-6.5.5-5.6-.8-11.3-2.3-16.8-.8-1.2.4-2.3,1-3.4,1.5-1.1.6-2.2,1.1-3.3,1.5-.9.3-1.8.6-2.8.8-.9.2-1.9.4-2.8.5-14.2.7-28.3-2.7-42.3-5.3-1-.1-2-.2-3-.3-2-.2-4-.5-6-.9-2.6-.3-5.2.3-7.7,1.6-1,.4-2,.8-3,1.3-1,.4-2,.8-3,1.2-1.1.4-2.3.7-3.4.8-1.1.1-2.2.1-3.3,0-7.4-.9-14.6-3.7-21.9-3.8-6.4-.3-12.8,1.2-19.1,2.6-.9.1-1.7.2-2.6.2-1.7,0-3.4-.1-5.1-.4-1.1-.2-2.2-.4-3.4-.7-2.7-.8-5.5-1.6-8.4-1-1.4.4-2.8.6-4.1.8-1.4.2-2.7.2-4,.3-7.6-.2-15.2-.9-22.8-1.9-3.3-.3-6.5.5-9.8,1.2-3.1.7-5.8,1.8-8.9,1.9-.9,0-1.9,0-2.8,0-2.9-.1-5.7-.6-8.6-.9-6.7-.7-13,2.6-19.6,3.9-.9.2-1.8.3-2.8.3-1.9.1-3.8,0-5.8-.4-7.6-1.5-14.8-1.3-22.1-2.1-1.3,0-2.5,0-3.8-.2-11.5-.9-23.5-5.1-34.4-.7-.7.5-1.5,1.1-2.2,1.6-3.7,2.5-7.6,1.8-11.5,1.2-1.4-.2-2.8-.6-4.1-1-4.4-1.5-8.9-3.1-13.5-2.9-8.7.3-17.2-.8-25.9-1.5-1.3,0-2.6,0-3.9.2-2.6.3-5.1.9-7.6,2.1-1,.5-2,.9-3,1.1-3,.7-6.1.5-9.2-.3-8.1-1.8-15.7-6.1-23.9-4.5-1.4.2-2.9.4-4.3.6-8.8,1.3-18,3.3-22.1,13.1-.3,1.5-.5,2.6-.6,2.6Z"/>
  <path class="st1" d="M135.9,10.9c-5.6,6.8-15.2,14.2-22.9,5.8-.9-.7-1.8-1.4-2.7-2.1-.9-.7-1.8-1.4-2.8-2-2.1-1.5-4.5-2.3-6.9-2.1-1.3,0-2.6.2-3.9.3-1.3.1-2.6.3-4,.4-6.3.8-12.6-.3-18.7-2-1.3-.5-2.6-.2-4,0-7.6.7-15.5,5.6-22.6,2.1-3.3-1.7-.8-6.4-1-9.7h89.5c0,1.5,0,3,0,4.5,0,2.4,0,4.9,0,4.9Z"/>
  <path class="st1" d="M451.7,10.9c-.8.9-1.7,1.7-2.7,2.5-.9.8-2,1.5-3,2.2-3.7,2.3-8.3,4.3-12.3,2.2-11.4-6.1-23.8-13-36.3-6.5-1.2.5-2.4,1-3.6,1.5-2.4,1.1-4.7,2.3-6.9,3.5-3.8,2-8.4,2.3-12.8,1-1.4-.4-2.8-1-4.1-1.7-2.7-1.4-5.2-3.1-7.5-5.1-2.5-2.1-.2-5.9-.2-8.9h89.5c0,1.5,0,3,0,4.5,0,2.4,0,4.8,0,4.8Z"/>
</svg>