<?xml version="1.0" encoding="UTF-8"?>
<svg id="window" xmlns="http://www.w3.org/2000/svg" version="1.1" viewBox="0 0 500 500">
  <!-- Generator: Adobe Illustrator 29.0.1, SVG Export Plug-In . SVG Version: 2.1.0 Build 192)  -->
  <defs>
    <style>
      .st0 {
        fill: #cc2727;
      }

      .st1 {
        fill: #010101;
      }

      .st2 {
        fill: #003a50;
      }

      .st3 {
        fill: #db2726;
      }

      .st4 {
        fill: #edd542;
      }

      .st5 {
        fill: #fff;
      }

      .st6 {
        fill: #ef3e23;
      }
    </style>
  </defs>
  <g id="color">
    <rect class="st4" x="83.8" y="12.1" width="334.9" height="466.6"/>
  </g>
  <g id="line">
    <path class="st1" d="M248.9,185.3c-56.3,0-112.5-6.7-167.2-19.8l1-4.3c108.7,26.1,223.6,26.1,332.4,0l1,4.3c-54.7,13.1-111,19.8-167.2,19.8Z"/>
  </g>
  <g id="sweater">
    <g>
      <path class="st6" d="M401.7,345.5l1.1-11.7c-.2-.5-.3-1-.5-1.5-.4-1.2-1-2.5-1.6-3.9-2.5-5.6-6.4-13-11.3-21.4-.7-1.2-1.4-2.5-2.2-3.7-3.1-5.3-6.5-10.9-10.1-16.8-.7-1.2-1.5-2.4-2.2-3.6-3.9-6.2-7.9-12.6-12.1-18.9-.8-1.2-1.5-2.4-2.3-3.5-3.5-5.4-7.1-10.8-10.7-16-.8-1.1-1.5-2.3-2.3-3.4-3.8-5.6-7.6-11-11.2-16.1-.8-1.1-1.5-2.2-2.3-3.2-3.1-4.3-6.1-8.3-8.8-12-11.1-14.6-20-17.3-20-17.3v.2c-7.1-3.1-16.4-5.7-23-7.4-5.5,16.3-18.8,26-38.2,26s-32.7-9.7-38.3-26.1c-2.7.6-7.6,1.5-10.3,2.3-4.5,1.2-9,2.7-13.4,4.4h0s-.5.1-1.3.5c-.2,0-.3.1-.5.2,0,0,0,0,0,0-3.2,1.6-10.1,5.9-18.1,16.5-2.8,3.6-5.7,7.7-8.8,12-.8,1-1.5,2.1-2.3,3.2-3.6,5.1-7.4,10.5-11.2,16.1-.8,1.1-1.5,2.2-2.3,3.4-3.6,5.2-7.1,10.6-10.7,16-.8,1.2-1.5,2.4-2.3,3.5-4.1,6.4-8.2,12.7-12.1,18.9-.8,1.2-1.5,2.4-2.2,3.6-3.6,5.8-7,11.5-10.1,16.8-.7,1.3-1.5,2.5-2.2,3.7-4.9,8.5-8.8,15.9-11.3,21.4-.6,1.4-1.2,2.7-1.6,3.9-.2.5-.4,1-.5,1.5l1.1,11.7-3.4,6.9s8.1,13,26.2,10l3.7-6.6,7.3-3.7,1.6-2.7,9.3-15.8,1.9-3.2,10.4-17.6,1.9-3.2,11.2-18.9,1.9-3.2,10.7-18h0c-.2,1.8-.3,3.7-.5,5.5-.5,5.4-1,10.8-1.5,16.1-.2,5.7-.3,11.3-.3,17,0,4.2,0,8.3,0,12.1v33.4c0,5.4,2.3,10.2,6,13.5h0l3.7,14s54,23.7,135,3.3l3.6-17.3h0c3.7-3.4,6-8.2,6-13.5v-45.5c0-4.2,0-8.6,0-13-.9-8.7-1.4-17.5-1.8-26.3l.9,1.5,10.7,18,1.9,3.2,11.2,18.9,1.9,3.2,10.4,17.6,1.9,3.2,9.3,15.8,1.6,2.7,7.3,3.7,3.7,6.6c18.1,2.9,26.2-10,26.2-10l-3.4-6.9Z"/>
      <g>
        <path class="st0" d="M398,348.6c1.6,1.4,2.8,3.6,3.3,5.6.2.9-1.2,1.3-1.4.4-.5-1.8-1.5-3.7-2.9-5-.7-.6.3-1.7,1-1Z"/>
        <path class="st0" d="M382,354.8c.7,2,1.7,4,3.2,5.5.7.7-.3,1.8-1,1.1-1.7-1.8-2.8-3.9-3.6-6.1-.3-.9,1.1-1.4,1.4-.5Z"/>
        <path class="st0" d="M390.3,351.8c1.2,2,2.4,4,3.9,5.8.6.7-.5,1.8-1,1-1.5-1.9-2.9-4-4.1-6.1-.5-.8.8-1.5,1.3-.7Z"/>
        <path class="st5" d="M336.3,224.9c-5.8,8.6-13.1,14.3-18.9,17.7-1.5.9-3,1.7-4.4,2.4l-.6-3.9c6.8-3.6,15.4-9.6,21.6-19.5.8,1,1.5,2.1,2.3,3.2Z"/>
        <path class="st5" d="M349.8,244.4c-5.9,10-14.1,16.3-20.4,20.1-4,2.4-7.7,4-10.3,5l-1.9-3.2c6.8-2.5,21.7-9.5,30.4-25.2.8,1.1,1.5,2.2,2.3,3.4Z"/>
        <path class="st5" d="M362.8,263.9c-6,11.1-14.8,18-21.5,22-3.7,2.2-7.1,3.7-9.7,4.8l-1.9-3.2c7.4-2.8,22.6-10.4,30.8-27.1.8,1.2,1.5,2.4,2.3,3.5Z"/>
        <path class="st5" d="M377.1,286.4c-6,10.5-14.5,17.1-20.9,21-4.6,2.7-8.7,4.4-11.5,5.4l-1.9-3.2c6.2-2.1,23.1-9.3,32.1-26.8.8,1.2,1.5,2.4,2.2,3.6Z"/>
        <path class="st5" d="M389.3,306.9c-6,10.7-14.6,17.5-21.2,21.4-4.5,2.7-8.5,4.3-11.2,5.3l-1.9-3.2c6.5-2.3,23.3-9.6,32.1-27.2.7,1.3,1.5,2.5,2.2,3.7Z"/>
        <path class="st5" d="M402.3,332.3c-7.6,9.5-17.1,14.7-24.2,17.5-3.4,1.4-6.6,2.3-9.1,2.9l-1.1-.5-1.6-2.7c7.6-1.5,23.5-6.4,34.3-21,.6,1.4,1.2,2.7,1.6,3.9Z"/>
      </g>
      <g>
        <path class="st0" d="M89.2,347.9c-1.6,1.4-2.8,3.6-3.3,5.6-.2.9,1.2,1.3,1.4.4.5-1.8,1.5-3.7,2.9-5,.7-.6-.3-1.7-1-1Z"/>
        <path class="st0" d="M105.1,354.1c-.7,2-1.7,4-3.2,5.5-.6.7.3,1.8,1,1.1,1.7-1.8,2.8-3.9,3.6-6.1.3-.9-1.1-1.4-1.4-.5Z"/>
        <path class="st0" d="M96.8,351c-1.2,2-2.4,4-3.9,5.8-.6.7.5,1.8,1,1,1.5-1.9,2.9-4,4.1-6.1.5-.8-.8-1.5-1.3-.7Z"/>
        <path class="st5" d="M150.9,224.2c5.8,8.6,13.1,14.3,18.9,17.7,1.5.9,3,1.7,4.4,2.4l.6-3.9c-6.8-3.6-15.4-9.6-21.6-19.5-.8,1-1.5,2.1-2.3,3.2Z"/>
        <path class="st5" d="M137.4,243.6c5.9,10,14.1,16.3,20.4,20.1,4,2.4,7.7,4,10.3,5l1.9-3.2c-6.8-2.5-21.7-9.5-30.4-25.2-.8,1.1-1.5,2.2-2.3,3.4Z"/>
        <path class="st5" d="M124.3,263.2c6,11.1,14.8,18,21.5,22,3.7,2.2,7.1,3.7,9.7,4.8l1.9-3.2c-7.4-2.8-22.6-10.4-30.8-27.1-.8,1.2-1.5,2.4-2.3,3.5Z"/>
        <path class="st5" d="M110,285.7c6,10.5,14.5,17.1,20.9,21,4.6,2.7,8.7,4.4,11.5,5.4l1.9-3.2c-6.2-2.1-23.1-9.3-32.1-26.8-.8,1.2-1.5,2.4-2.2,3.6Z"/>
        <path class="st5" d="M97.8,306.2c6,10.7,14.6,17.5,21.2,21.4,4.5,2.7,8.5,4.3,11.2,5.3l1.9-3.2c-6.5-2.3-23.3-9.6-32.1-27.2-.7,1.3-1.5,2.5-2.2,3.7Z"/>
        <path class="st5" d="M84.9,331.6c7.6,9.5,17.1,14.7,24.2,17.5,3.4,1.4,6.6,2.3,9.1,2.9l1.1-.5,1.6-2.7c-7.6-1.5-23.5-6.4-34.3-21-.6,1.4-1.2,2.7-1.6,3.9Z"/>
      </g>
      <path class="st0" d="M183.4,382.3c-.5,0-1-.4-1.1-.9-1.2-5.7-1.5-11.7-1.5-11.9,0-.6.4-1.1,1.1-1.1.6,0,1.1.4,1.1,1.1,0,0,.3,6.1,1.4,11.6.1.6-.2,1.2-.8,1.3,0,0-.2,0-.2,0Z"/>
      <path class="st0" d="M194.9,386.2c-.5,0-1-.4-1.1-.9-1.2-5.7-1.5-11.7-1.5-11.9,0-.6.4-1.1,1.1-1.1.6,0,1.1.4,1.1,1.1,0,0,.3,6.1,1.4,11.6.1.6-.2,1.2-.8,1.3,0,0-.2,0-.2,0Z"/>
      <path class="st0" d="M206.9,388.2c-.5,0-1-.4-1.1-.9-1.2-5.7-1.5-11.7-1.5-11.9,0-.6.4-1.1,1.1-1.1.6,0,1.1.4,1.1,1.1,0,0,.3,6.1,1.4,11.6.1.6-.2,1.2-.8,1.3,0,0-.2,0-.2,0Z"/>
      <path class="st0" d="M220.2,390.6c-.5,0-1-.4-1.1-.9-1.2-5.7-1.5-11.7-1.5-11.9,0-.6.4-1.1,1.1-1.1.6,0,1.1.4,1.1,1.1,0,0,.3,6.1,1.4,11.6.1.6-.2,1.2-.8,1.3,0,0-.2,0-.2,0Z"/>
      <path class="st0" d="M233,391c-.5,0-1-.4-1.1-.9-1.2-5.7-1.5-11.7-1.5-11.9,0-.6.4-1.1,1.1-1.1.6,0,1.1.4,1.1,1.1,0,0,.3,6.1,1.4,11.6.1.6-.2,1.2-.8,1.3,0,0-.2,0-.2,0Z"/>
      <path class="st0" d="M244.8,391.3c-.5,0-1-.4-1.1-.9-1.3-5.8-.4-11.2-.4-11.4,0-.6.7-1,1.3-.9.6,0,1,.7.9,1.3,0,0-.8,5.3.4,10.6.1.6-.2,1.2-.8,1.3,0,0-.2,0-.2,0Z"/>
      <path class="st0" d="M305.1,383.1c0,0-.2,0-.3,0-.6-.2-.9-.8-.8-1.3,1.4-5.4,1.9-11.4,1.9-11.5,0-.6.6-1.1,1.2-1,.6,0,1.1.6,1,1.2,0,.3-.5,6.3-1.9,11.9-.1.5-.6.8-1.1.8Z"/>
      <path class="st0" d="M293.6,386.5c0,0-.2,0-.3,0-.6-.2-.9-.8-.8-1.3,1.4-5.4,1.9-11.4,1.9-11.5,0-.6.6-1.1,1.2-1,.6,0,1.1.6,1,1.2,0,.3-.5,6.3-1.9,11.9-.1.5-.6.8-1.1.8Z"/>
      <path class="st0" d="M281.5,388.1c0,0-.2,0-.3,0-.6-.2-.9-.8-.8-1.3,1.4-5.4,1.9-11.4,1.9-11.5,0-.6.6-1.1,1.2-1,.6,0,1.1.6,1,1.2,0,.3-.5,6.3-1.9,11.9-.1.5-.6.8-1.1.8Z"/>
      <path class="st0" d="M268.1,390c0,0-.2,0-.3,0-.6-.2-.9-.7-.8-1.3,1.4-5.4,1.9-11.4,1.9-11.5,0-.6.6-1.1,1.2-1,.6,0,1.1.6,1,1.2,0,.3-.5,6.3-1.9,11.9-.1.5-.6.8-1.1.8Z"/>
      <path class="st0" d="M256.5,391.3c0,0-.2,0-.3,0-.6-.2-.9-.7-.8-1.3,1-4,1-4.6.8-6.6,0-.9-.2-2.2-.2-4.1,0-.6.5-1.1,1.1-1.1.6,0,1.1.5,1.1,1.1,0,1.9.1,3,.2,4,.2,2.3.2,3.1-.9,7.3-.1.5-.6.8-1.1.8Z"/>
      <path class="st3" d="M282.1,185.2c-5,18.2-20.3,26-38.2,26s-32.5-7.8-38.3-26.1c2.3-.5,4.7-.9,7-1.3,22.9-2.6,47.1-4.4,69.5,1.4Z"/>
      <path class="st0" d="M197.6,192.6c-.2,0-.5,0-.7-.2-.4-.4-.5-1-.1-1.4.7-.8,5-2.5,8.4-3.8.5-.2,1.1,0,1.3.6.2.5,0,1.1-.6,1.3-3.2,1.2-7,2.8-7.6,3.2-.2.2-.5.3-.7.3Z"/>
      <path class="st0" d="M203,203.3c-.4,0-.7-.2-.9-.6-.2-.5,0-1.1.5-1.4l7.3-3.6c.5-.2,1.1,0,1.4.5.2.5,0,1.1-.5,1.4l-7.3,3.6c-.1,0-.3.1-.5.1Z"/>
      <path class="st0" d="M212.9,213.3c-.3,0-.6-.1-.8-.4-.4-.4-.3-1.1.1-1.4l6.3-5.1c.4-.4,1.1-.3,1.4.1.4.4.3,1.1-.1,1.4l-6.3,5.1c-.2.2-.4.2-.6.2Z"/>
      <path class="st0" d="M227.6,220.8c-.1,0-.3,0-.4,0-.5-.2-.8-.8-.5-1.3l3.1-7.5c.2-.5.8-.8,1.3-.5.5.2.8.8.5,1.3l-3.1,7.5c-.2.4-.5.6-.9.6Z"/>
      <path class="st0" d="M291,192.8c-.3,0-.6-.1-.8-.3-.6-.5-4.4-2.1-7.6-3.4-.5-.2-.8-.8-.6-1.3.2-.5.8-.8,1.3-.6,3.4,1.3,7.7,3.1,8.4,3.9.4.4.3,1.1-.1,1.4-.2.2-.4.2-.7.2Z"/>
      <path class="st0" d="M284.4,203.5c-.2,0-.3,0-.5-.1l-7.3-3.7c-.5-.3-.7-.9-.4-1.4.3-.5.9-.7,1.4-.4l7.3,3.7c.5.3.7.9.4,1.4-.2.4-.5.6-.9.6Z"/>
      <path class="st0" d="M274.4,213.3c-.2,0-.5,0-.7-.2l-6.2-5.2c-.4-.4-.5-1-.1-1.4.4-.4,1-.5,1.4-.1l6.2,5.2c.4.4.5,1,.1,1.4-.2.2-.5.4-.8.4Z"/>
      <path class="st0" d="M259.6,220.6c-.4,0-.8-.2-.9-.6l-3-7.6c-.2-.5,0-1.1.6-1.3.5-.2,1.1,0,1.3.6l3,7.6c.2.5,0,1.1-.6,1.3-.1,0-.3,0-.4,0Z"/>
      <path class="st0" d="M244.7,222.5c-.5,0-1-.4-1-.9l-.6-8.1c0-.6.4-1,.9-1.1.6,0,1,.4,1.1.9l.6,8.1c0,.6-.4,1-.9,1.1,0,0,0,0,0,0Z"/>
      <path class="st0" d="M168.3,265c0,0-.1,0-.2,0-1.4,0-2.4-1.3-2.3-2.6l1.2-18.1c0-1.4,1.3-2.4,2.6-2.3,1.4,0,2.4,1.3,2.3,2.6l-1.2,18.1c0,1.3-1.2,2.3-2.5,2.3Z"/>
      <path class="st0" d="M317.5,267c-1.3,0-2.4-1-2.5-2.3l-1.5-17.1c-.1-1.4.9-2.6,2.3-2.7,1.4-.1,2.6.9,2.7,2.3l1.5,17.1c.1,1.4-.9,2.6-2.3,2.7,0,0-.1,0-.2,0Z"/>
      <path class="st5" d="M289,331.5l-22.2-4.4-5.2-7.8,15.1,3c2,.4,3.9-.9,4.3-2.8,0,0,0-.1,0-.2,0,0,0,0,.1-.1,1.3-1.5,1.2-3.8-.3-5.1l-11.5-10.2,9.3-.6,16.9,15c.2.2.5.4.8.5,1.4.7,3.2.4,4.3-.8,1.3-1.5,1.2-3.8-.3-5.1l-11.5-10.2,14.1-.9c2-.1,3.5-1.8,3.4-3.8-.1-2-1.8-3.5-3.8-3.4l-14.1.9,10.2-11.6c1.3-1.5,1.2-3.8-.3-5.1-1.5-1.3-3.8-1.2-5.1.3l-14.9,17-9.3.6,10.2-11.6c1.3-1.5,1.2-3.8-.3-5.1,0,0,0,0-.1-.1,0,0,0-.1,0-.2-.6-1.9-2.7-2.9-4.6-2.3l-14.6,4.9,4.2-8.4,21.5-7.1c1.9-.6,2.9-2.7,2.3-4.6-.6-1.9-2.7-2.9-4.6-2.3l-14.6,4.9,6.3-12.6c.9-1.8.2-4-1.6-4.9-1.8-.9-4-.2-4.9,1.6l-6.3,12.6-4.9-14.6c-.6-1.9-2.7-2.9-4.6-2.3-1.9.6-2.9,2.7-2.3,4.6l7.3,21.4-4.2,8.4-4.9-14.6c-.6-1.9-2.7-2.9-4.6-2.3,0,0-.1,0-.2,0,0,0-.1,0-.2,0-2-.4-3.9.9-4.3,2.8l-3.1,15.1-5.2-7.8,4.5-22.2c.4-2-.9-3.9-2.8-4.3-2-.4-3.9.9-4.3,2.8l-3.1,15.1-7.8-11.7c-1.1-1.7-3.4-2.1-5-1-1.7,1.1-2.1,3.4-1,5l7.8,11.7-15.1-3c-2-.4-3.9.9-4.3,2.8-.3,1.6.5,3.2,1.9,3.9.3.1.6.2.9.3l22.2,4.4,5.2,7.8-15.1-3c-2-.4-3.9.9-4.3,2.8,0,0,0,.1,0,.2,0,0,0,0-.1.1-1.3,1.5-1.2,3.8.3,5.1l11.5,10.2-9.3.6-16.9-15c-1.5-1.3-3.8-1.2-5.1.3-1.3,1.5-1.2,3.8.3,5.1l11.5,10.2-14.1.9c-2,.1-3.5,1.8-3.4,3.8,0,1.3.9,2.5,2,3,.6.3,1.2.4,1.8.4l14.1-.9-10.2,11.6c-1.3,1.5-1.2,3.8.3,5.1.2.2.5.4.8.5,1.4.7,3.2.4,4.3-.9l14.9-17,9.3-.6-10.2,11.6c-1.3,1.5-1.2,3.8.3,5.1,0,0,0,0,.1.1,0,0,0,.1,0,.2.6,1.9,2.7,2.9,4.6,2.3l14.6-4.9-4.2,8.4-21.5,7.1c-1.9.6-2.9,2.7-2.3,4.6.6,1.9,2.7,2.9,4.6,2.3l14.6-4.9-6.3,12.6c-.9,1.8-.2,4,1.6,4.9,1.8.9,4,.2,4.9-1.6l6.3-12.6,4.9,14.6c.3.9,1,1.7,1.8,2.1.8.4,1.8.5,2.8.2,1.9-.6,2.9-2.7,2.3-4.6l-7.3-21.4,4.2-8.4,4.9,14.6c.3.9,1,1.7,1.8,2.1.8.4,1.8.5,2.8.2,0,0,.1,0,.2,0,0,0,.1,0,.2,0,2,.4,3.9-.9,4.3-2.8l3.1-15.1,5.2,7.8-4.5,22.2c-.3,1.6.5,3.3,1.9,4,.3.1.6.2.9.3,2,.4,3.9-.9,4.3-2.8l3.1-15.1,7.8,11.7c.4.5.9,1,1.4,1.2,1.1.6,2.5.5,3.6-.2,1.7-1.1,2.1-3.4,1-5l-7.8-11.7,15.1,3c2,.4,3.9-.9,4.3-2.8.4-2-.9-3.9-2.8-4.3ZM269.3,313.4l-13.3-2.6-3.9-5.9,7.1-.4,10.1,9ZM267.6,287.1l-8.9,10.2-7.1.4,3.1-6.3,12.8-4.3ZM244,275.3l4.3,12.8-3.1,6.3-3.9-5.9,2.7-13.2ZM222,289.9l13.3,2.6,3.9,5.9-7.1.4-10.1-9ZM223.6,316.3l8.9-10.2,7.1-.4-3.1,6.3-12.8,4.3ZM247.3,328l-4.3-12.8,3.1-6.3,3.9,5.9-2.7,13.2Z"/>
    </g>
    <rect class="st2" x="182.7" y="174.1" width="6.5" height="23.4"/>
    <rect class="st2" x="293.3" y="175.7" width="6.5" height="23.4"/>
  </g>
  <path id="frame" class="st5" d="M432,456.2V-1.2H70.6v457.3h-10.6v44.3h382.7v-44.3h-10.6ZM97.1,25.3h308.4v430.8H97.1V25.3Z"/>
  <g id="number">
    <path class="st1" d="M236.7,95.6c-6.5,13.5-14,36.8-17,36.8s-8.2-5.8-8.2-8.8,13.2-29.2,14.6-32.1l-.4-.2c-2.4,3.2-7,7.2-8.8,7.2s-1.9-.3-1.9-.6,6.5-6.3,12.8-16.2c6-9.5,10.8-20,13.8-20s9.1,2.5,9.1,4.3c0,4-7.3,16.1-13.9,29.5Z"/>
    <path class="st1" d="M291.1,97.2v.3c2,1.3,3.6,4.8,3.6,9,0,13.4-15.3,25.8-34.2,25.8s-21.1-6.7-21.1-15.8,8-14.8,14-14.8,8.8,3.8,8.8,8.2-3.6,8.6-8.2,8.6-6.7-3.1-6.7-6,.2-1.2.2-1.6,0-.7-.4-.7c-.5,0-1.3,1.3-1.3,3.1,0,5.2,3.5,9.3,11.1,9.3s21.9-6.8,21.9-16.2-3.8-8.1-10.3-8.1-1.8,0-2.3,0-.8-.4-.8-1.3,1.2-4,2.6-4h3.3c15.2,0,22.7-8.5,22.7-15.6s-3.8-9.3-11.3-9.3c-11.1,0-16.6,10.2-16.6,13.1s.3.7.7.7c4.4,0,10-10.5,10.5-10.5s2.9,1.6,2.9,3.8c0,4.2-10.4,14.3-16.8,14.3s-6-2.5-6-6.7c0-8.7,10.8-20.7,26.4-20.7s23.8,6.3,23.8,17.2-13,17.3-16.3,18Z"/>
  </g>
</svg>