<?xml version="1.0" encoding="UTF-8"?>
<svg id="Layer_4" xmlns="http://www.w3.org/2000/svg" version="1.1" viewBox="0 0 500 500">
  <!-- Generator: Adobe Illustrator 29.0.1, SVG Export Plug-In . SVG Version: 2.1.0 Build 192)  -->
  <defs>
    <style>
      .st0 {
        fill: #ffcb05;
      }

      .st1 {
        fill: #010101;
      }

      .st2 {
        fill: #231f20;
      }

      .st3 {
        fill: #2e944c;
      }

      .st4 {
        fill: #f38090;
      }

      .st5 {
        fill: #fff;
      }

      .st6 {
        fill: #4ac0b6;
      }

      .st7 {
        fill: #ef3e30;
      }

      .st8 {
        fill: #549e46;
      }

      .st9 {
        fill: #67bd4e;
      }
    </style>
  </defs>
  <g id="color">
    <rect className="st3" x="74.7" y="12.7" width="334" height="465.3"/>
  </g>
  <g id="flagthree">
    <g>
      <polygon className="st7" points="87.8 98.8 78.1 57.8 111.5 61.1 87.8 98.8"/>
      <polygon className="st4" points="122.4 102.2 112.7 61.2 146.1 64.5 122.4 102.2"/>
      <polygon className="st6" points="157 105.6 147.3 64.7 180.7 68 157 105.6"/>
      <polygon className="st0" points="191.6 109 181.9 68.1 215.3 71.4 191.6 109"/>
      <polygon className="st9" points="226.2 112.4 216.5 71.5 249.9 74.8 226.2 112.4"/>
      <g>
        <line className="st1" x1="78.1" y1="57.8" x2="249.9" y2="74.8"/>
        <polygon className="st2" points="249.6 76.3 77.8 59.4 78.4 56.3 250.1 73.2 249.6 76.3"/>
      </g>
    </g>
    <g>
      <polygon className="st7" points="259.6 115.7 249.9 74.8 283.2 78.1 259.6 115.7"/>
      <polygon className="st4" points="294.2 119.2 284.5 78.2 317.8 81.5 294.2 119.2"/>
      <polygon className="st6" points="328.8 122.6 319.1 81.6 352.4 84.9 328.8 122.6"/>
      <polygon className="st0" points="363.4 126 353.7 85 387 88.3 363.4 126"/>
      <polygon className="st8" points="398 129.4 388.3 88.5 421.6 91.8 398 129.4"/>
      <g>
        <line className="st1" x1="249.9" y1="74.8" x2="421.6" y2="91.8"/>
        <polygon className="st2" points="421.4 93.3 249.6 76.3 250.1 73.2 421.9 90.2 421.4 93.3"/>
      </g>
    </g>
  </g>
  <g id="flagtwo">
    <g>
      <g>
        <polygon className="st7" points="398 186.8 412.3 147 379.5 150 398 186.8"/>
        <polygon className="st4" points="364 190 378.3 150.1 345.5 153.2 364 190"/>
        <polygon className="st6" points="330 193.2 344.3 153.3 311.6 156.4 330 193.2"/>
        <polygon className="st0" points="296.1 196.3 310.4 156.5 277.6 159.5 296.1 196.3"/>
        <polygon className="st9" points="262.1 199.5 276.4 159.7 243.6 162.7 262.1 199.5"/>
        <g>
          <line className="st1" x1="412.3" y1="147" x2="243.6" y2="162.7"/>
          <polygon className="st2" points="243.7 164.2 412.3 148.5 412.2 145.5 243.6 161.2 243.7 164.2"/>
        </g>
      </g>
      <g>
        <polygon className="st7" points="229.4 202.6 243.6 162.7 210.9 165.8 229.4 202.6"/>
        <polygon className="st4" points="195.4 205.7 209.7 165.9 176.9 168.9 195.4 205.7"/>
        <polygon className="st6" points="161.4 208.9 175.7 169.1 143 172.1 161.4 208.9"/>
        <polygon className="st0" points="127.5 212.1 141.8 172.2 109 175.3 127.5 212.1"/>
        <polygon className="st8" points="93.5 215.3 107.8 175.4 75 178.5 93.5 215.3"/>
        <g>
          <line className="st1" x1="243.6" y1="162.7" x2="75" y2="178.5"/>
          <polygon className="st2" points="75.1 180 243.7 164.2 243.6 161.2 75 177 75.1 180"/>
        </g>
      </g>
    </g>
  </g>
  <g id="flagone">
    <g>
      <g>
        <polygon className="st7" points="88 323.6 78.5 284.7 110.9 287.8 88 323.6"/>
        <polygon className="st4" points="121.5 326.9 112.1 288 144.4 291.1 121.5 326.9"/>
        <polygon className="st6" points="155.1 330.1 145.6 291.2 178 294.3 155.1 330.1"/>
        <polygon className="st0" points="188.6 333.4 179.2 294.5 211.6 297.6 188.6 333.4"/>
        <polygon className="st9" points="222.2 336.6 212.8 297.7 245.1 300.8 222.2 336.6"/>
        <g>
          <line className="st1" x1="78.5" y1="284.7" x2="245.1" y2="300.8"/>
          <polygon className="st2" points="244.9 302.3 78.3 286.2 78.8 283.2 245.4 299.4 244.9 302.3"/>
        </g>
      </g>
      <g>
        <polygon className="st7" points="254.6 339.8 245.1 300.8 277.5 304 254.6 339.8"/>
        <polygon className="st4" points="288.1 343 278.7 304.1 311 307.2 288.1 343"/>
        <polygon className="st6" points="321.7 346.3 312.2 307.3 344.6 310.5 321.7 346.3"/>
        <polygon className="st0" points="355.2 349.5 345.8 310.6 378.2 313.7 355.2 349.5"/>
        <polygon className="st8" points="388.8 352.8 379.4 313.8 411.7 317 388.8 352.8"/>
        <g>
          <line className="st1" x1="245.1" y1="300.8" x2="411.7" y2="317"/>
          <polygon className="st2" points="411.5 318.4 244.9 302.3 245.4 299.4 412 315.5 411.5 318.4"/>
        </g>
      </g>
    </g>
  </g>
  <path id="frame" className="st5" d="M421.9,455.6V-.5H61.5v456.1h-10.6v44.2h381.6v-44.2h-10.6ZM395.5,232.9h-145.5V25.9h145.5v206.9ZM215.8,25.9v206.9h-127.9V25.9h127.9ZM87.9,267.1h127.9v188.5h-127.9v-188.5ZM250,455.6v-188.5h145.5v188.5h-145.5Z"/>
  <g id="number">
    <path className="st5" d="M157.7,396.9c-1.1,1.9-2,3.7-3.1,5.6,2.7.6,5.1,1,6.9,1,6.5,0,8.4-3.3,8.9-3.3s.5.2.5.5c0,2.9-8.4,16.1-19.7,16.1s-2.7-.1-4.2-.4c-7.5,13.4-13.2,23.9-15,23.9-2.9,0-8.3-3.6-8.3-9.8s3.6-10.8,7.6-18.7c-6.5-2.9-14.8-5.5-19.6-5.5s-6.1,1.4-7.1,1.4-2-4.9-2-6.3,12.4-10.9,29.6-26.4c17.1-15.3,27.6-28.2,33.1-28.2s17.4,4.9,17.4,6.8-12.6,21.9-24.9,43.3ZM158.2,362.5c-6.2,4.2-24.9,27.1-32.1,32.4v.6c2,0,7.4,1.5,12,2.9,1.2-2,2.1-3.8,2.9-5.1,4.5-8.2,16.9-28.8,18.1-30.3l-.8-.4Z"/>
  </g>
</svg>