<?xml version="1.0" encoding="UTF-8"?>
<svg id="layer" xmlns="http://www.w3.org/2000/svg" version="1.1" viewBox="0 0 500 500">
  <!-- Generator: Adobe Illustrator 29.0.1, SVG Export Plug-In . SVG Version: 2.1.0 Build 192)  -->
  <defs>
    <style>
      .st0 {
        fill: none;
      }

      .st1 {
        fill: #181012;
      }

      .st2 {
        fill: #010101;
      }

      .st3 {
        fill: #1a0e0f;
      }

      .st4 {
        fill: #e88a24;
      }

      .st5 {
        fill: #231f20;
      }

      .st6 {
        fill: #003a50;
      }

      .st7 {
        fill: #f3951f;
      }

      .st8 {
        fill: #107691;
      }

      .st9 {
        fill: #b7d9f2;
      }

      .st10 {
        fill: #1c9cba;
      }

      .st11 {
        fill: #f37f81;
      }

      .st12 {
        fill: #fff;
      }

      .st13 {
        fill: #faa62a;
      }

      .st14 {
        fill: #f16464;
      }

      .st15 {
        fill: #f9c78a;
      }

      .st16 {
        fill: #1f92ad;
      }

      .st17 {
        fill: #0c79a5;
      }

      .st18 {
        fill: #fbe0c8;
      }
    </style>
  </defs>
  <g id="color">
    <rect className="st6" x="83.2" y="13.8" width="333.4" height="464.5"/>
  </g>
  <path id="frame" className="st12" d="M429.9,455.9V.6H70.1v455.3h-10.6v44.1h381v-44.1h-10.6ZM96.5,27h307v428.9H96.5V27Z"/>
  <g id="tiger">
    <path className="st0" d="M335.3,360.2c-.1,0-.2.1-.3.2l.6.2-.3-.4Z"/>
    <path className="st0" d="M324,366.4h5.3l-3.9-1.1c-.5.2-.9.4-1.4.6v.4Z"/>
    <path className="st0" d="M370.8,359.5c0-.2.2-.5,0-.9l-3.8-6c-.2-.3-.5-.4-.7-.4,0,0,0,0,0,0-.2,0-.5,0-.8.3l-8.9,9.4,13.5-1.8c.4,0,.6-.3.7-.5Z"/>
    <path className="st0" d="M346.4,356l2-4.7c-.9.7-1.8,1.4-2.8,2.1l.7,2.6Z"/>
    <path className="st7" d="M200.3,434.3c-.8-.3-1.5-.5-2.3-.8-1.8,3.8-3.4,7.9-4.2,12.1,0,0-4.2,11.1-7,1.3-2-6.9-1.3-13.3.6-18.7-5.1-3.3-9.6-7.8-12.5-13.7-2.6-5.4-5.5-10.8-8.4-15.8-4.5,3.7-8.8,8-12.2,12.8,0,0-10.1,10.4-8.5-1.9,1.3-10.1,6.4-17.7,12-23.2-7.2-8.4-15.3-12.8-24-8.5-16.4,8-14,29.1,2.3,53.1,2.6,3.8,6,7.7,10,11.3,1.5-2.9,3.3-5.6,5.3-7.9,4.7-5.3,9.6-7.8,5.4,3.2-1.3,3.4-2.2,7.2-2.9,10.9,4.2,3,8.8,5.6,13.6,7.9h27.7c.4-2.3,1.1-4.5,2.1-6.7l3.1-15.3Z"/>
    <path className="st2" d="M145.6,409.5c-1.5,12.3,8.5,1.9,8.5,1.9,3.4-4.8,7.7-9.1,12.2-12.8-2.7-4.6-5.6-8.8-8.6-12.3-5.6,5.4-10.8,13-12,23.2Z"/>
    <path className="st2" d="M186.7,446.9c2.8,9.8,7-1.3,7-1.3.9-4.1,2.4-8.2,4.2-12.1-3.6-1.3-7.3-3.1-10.7-5.3-1.8,5.4-2.6,11.8-.6,18.7Z"/>
    <path className="st2" d="M151.3,434.3c-2,2.3-3.8,5-5.3,7.9,2.4,2.2,5,4.2,7.8,6.2.7-3.7,1.6-7.5,2.9-10.9,4.1-11-.8-8.5-5.4-3.2Z"/>
    <path className="st18" d="M291.2,385.1h-4.6v-1.1c-6,.9-12.9,1.5-20.9,1.3-1.5,0-3,0-4.4-.1l8.5,3.8s3.7,1.6,8.2,3.5c3.9,1.7,8.4,3.6,11.3,4.9,1.4.6,2.4,1.1,2.9,1.3.1,0,.3.1.5.2l-1.2-11.6-.2-2.2Z"/>
    <path className="st18" d="M290.4,440.4s0,0,0,0c-.7,0-1.4,0-2.1,0,0,0-6.1-.2-12.8-10.3,0,0-9.2,2.5-24.6-1.3-1.9-.5-4-1.1-6.1-1.8l-5.9-2.3-14.9-6.4-2.4,14.6c-1.2,3.3-1.8,6.8-1.8,10.5,0,4.5,1.1,8.9,3.1,12.9h75.8l-1.8-17.4c-2.9,1.7-6.4,1.6-6.4,1.6Z"/>
    <path className="st5" d="M286.6,384.1v-8.8c-3.1.3-6.4.4-9.7.4-2,0-4,0-6-.1-3,.2-6,.3-8.9.3-18.9,0-34.7-4.2-47.5-9.9.5.6,1.9,2.3,4.3,4.3.4,0,.9-.1,1.3-.2,3.6-.4,19.6,5.7,23.2,7.1l1.7.8,11.7,5.3,4.5,2.1c1.4,0,2.9.1,4.4.1,8,.1,14.9-.4,20.9-1.3Z"/>
    <path className="st7" d="M164.5,214.6c-.2-.6-.3-1.3-.5-1.9.2.6.3,1.3.5,1.9Z"/>
    <path className="st7" d="M167.3,224.7c-.4-1.2-.7-2.3-1.1-3.6.4,1.2.7,2.4,1.1,3.6Z"/>
    <path className="st7" d="M160.9,182.1c0-.5.2-1,.3-1.4,0,.5-.2.9-.3,1.4Z"/>
    <path className="st7" d="M166.2,220.8c-.2-.6-.3-1.2-.5-1.8.2.6.3,1.2.5,1.8Z"/>
    <path className="st7" d="M165.6,218.8c-.3-1.2-.7-2.5-1-3.8.3,1.3.7,2.6,1,3.8Z"/>
    <path className="st7" d="M164,212.5c-.2-.6-.3-1.3-.5-1.9.1.6.3,1.3.5,1.9Z"/>
    <path className="st7" d="M162.6,206.1c-.1-.6-.3-1.3-.4-1.9.1.6.2,1.3.4,1.9Z"/>
    <path className="st7" d="M162.1,204c-.1-.6-.2-1.3-.3-1.9.1.6.2,1.3.3,1.9Z"/>
    <path className="st7" d="M161.7,201.7c-.2-1.3-.4-2.6-.6-3.9.2,1.3.4,2.6.6,3.9Z"/>
    <path className="st7" d="M160.5,187.5c0-.6,0-1.1,0-1.6,0,.5,0,1.1,0,1.6Z"/>
    <path className="st7" d="M163,208.2c-.1-.7-.3-1.3-.4-2,.1.7.3,1.3.4,2Z"/>
    <path className="st7" d="M163.5,210.5c-.1-.6-.3-1.3-.4-1.9.1.7.3,1.3.4,1.9Z"/>
    <path className="st7" d="M160.5,185.5c0-.5,0-1.1.1-1.6,0,.5,0,1.1-.1,1.6Z"/>
    <path className="st7" d="M168.5,228.4c-.2-.5-.3-1-.5-1.6.2.5.3,1.1.5,1.6Z"/>
    <path className="st7" d="M160.7,183.8c0-.5.1-1,.2-1.5,0,.5-.1,1-.2,1.5Z"/>
    <path className="st7" d="M170.1,233.2c-.1-.4-.3-.9-.5-1.3.2.5.3.9.5,1.3Z"/>
    <path className="st7" d="M160.7,193.5c0-.6,0-1.2-.1-1.8,0,.6,0,1.2.1,1.8Z"/>
    <path className="st7" d="M170.6,234.8c.3.8.6,1.6.8,2.3,0,0,0,0,0,0-.3-.7-.5-1.5-.8-2.3Z"/>
    <path className="st7" d="M170.6,234.7c-.1-.4-.3-.9-.5-1.3.2.5.3.9.5,1.3Z"/>
    <path className="st7" d="M160.5,191.3c0-.6,0-1.2,0-1.8,0,.6,0,1.2,0,1.8Z"/>
    <path className="st7" d="M161.1,197.5c0-.6-.2-1.2-.2-1.9,0,.6.1,1.2.2,1.9Z"/>
    <path className="st7" d="M160.5,189.3c0-.6,0-1.1,0-1.6,0,.5,0,1.1,0,1.6Z"/>
    <path className="st7" d="M167.9,226.6c-.2-.5-.3-1.1-.5-1.7.2.6.3,1.1.5,1.7Z"/>
    <path className="st7" d="M169,230c-.2-.5-.3-1-.5-1.6.2.5.3,1,.5,1.6Z"/>
    <path className="st7" d="M160.9,195.4c0-.6-.1-1.2-.2-1.8,0,.6.1,1.2.2,1.8Z"/>
    <path className="st7" d="M169.6,231.7c-.2-.5-.3-1-.5-1.5.2.5.3,1,.5,1.5Z"/>
    <path className="st7" d="M161.5,179c3.9-6.4,8.5-9.2,13.3-9.6,4.3-.4,8.9,1.2,13.3,3.8.3-1.1.6-2.2,1-3.3-9.6-2.1-18.5-2.2-23.5,2.1-1.9,1.7-3.3,4-4.1,7-.1.5-.2.9-.3,1.4.1-.5.2-1,.3-1.4,0,0,0,0,0,0Z"/>
    <path className="st15" d="M179.1,225.7c2.5-4.5,5-9.3,7.2-13.9-.6.3-1.2.7-1.8,1-3.5,1.7-8.7-8.7-8.1-15.6.6-5.2,2.3-10.1,6.3-13.7,1-1,2.1-1.9,3.4-2.8-4.3-4.9-9.4-9.5-11.4-11.3-4.9.4-9.4,3.2-13.3,9.6,0,0,0,0,0,0-.1.5-.2.9-.3,1.4,0,0,0,.2,0,.3,0,.5-.2.9-.3,1.4,0,0,0,.2,0,.3,0,.5-.1,1-.2,1.5,0,0,0,0,0,.1,0,.5,0,1.1-.1,1.6,0,.1,0,.2,0,.3,0,.5,0,1.1,0,1.6,0,0,0,.1,0,.2,0,.5,0,1.1,0,1.6,0,0,0,.1,0,.2,0,.6,0,1.2,0,1.8,0,.1,0,.2,0,.3,0,.6,0,1.2.1,1.8,0,0,0,0,0,0,0,.6.1,1.2.2,1.8,0,0,0,.2,0,.3,0,.6.1,1.2.2,1.9,0,.1,0,.2,0,.3.2,1.3.4,2.6.6,3.9,0,.1,0,.2,0,.3.1.6.2,1.3.3,1.9,0,0,0,.2,0,.3.1.6.2,1.3.4,1.9,0,0,0,0,0,.1.1.7.3,1.3.4,2,0,.1,0,.2,0,.3.1.7.3,1.3.4,1.9,0,0,0,.1,0,.2.1.6.3,1.3.5,1.9,0,0,0,.1,0,.2.2.6.3,1.3.5,1.9,0,.1,0,.2,0,.3.3,1.3.7,2.6,1,3.8,0,0,0,.2,0,.3.2.6.3,1.2.5,1.8,0,0,0,.2,0,.3.4,1.2.7,2.4,1.1,3.6,0,0,0,.2,0,.3.2.6.3,1.1.5,1.7,0,0,0,.1,0,.2.2.5.3,1.1.5,1.6,0,0,0,0,0,0,.2.5.3,1,.5,1.6,0,0,0,.2,0,.2.2.5.3,1,.5,1.5,0,0,0,0,0,.1.2.5.3.9.5,1.3,0,0,0,0,0,.1.2.5.3.9.5,1.3,0,0,0,.1,0,.2.3.8.6,1.6.8,2.3,2.4-3.8,5-7.7,7.7-11.4Z"/>
    <path className="st5" d="M189,210.2c-.9.6-1.7,1.1-2.6,1.6-2.2,4.6-4.7,9.3-7.2,13.9,4.9-6.9,10.2-13.6,15.7-19.6-.5.4-1,.8-1.5,1.2-1.5,1-2.9,2-4.4,2.9Z"/>
    <path className="st5" d="M188.1,173.2c-4.4-2.6-9-4.2-13.3-3.8,2.1,1.8,7.1,6.4,11.4,11.3.3-.2.6-.4.8-.6.1-2.3.5-4.6,1-6.8Z"/>
    <path className="st7" d="M376.5,198.6c0,.6-.2,1.3-.3,1.9.1-.6.2-1.3.3-1.9Z"/>
    <path className="st7" d="M377.1,194.3c-.1,1.3-.3,2.6-.5,3.9.2-1.3.4-2.6.5-3.9Z"/>
    <path className="st7" d="M377.3,192.2c0,.6-.1,1.2-.2,1.9,0-.6.1-1.3.2-1.9Z"/>
    <path className="st7" d="M375.4,205.1c-.1.7-.3,1.3-.4,2,.1-.7.3-1.3.4-2Z"/>
    <path className="st7" d="M376.2,200.8c-.1.6-.2,1.3-.3,1.9.1-.6.2-1.3.3-1.9Z"/>
    <path className="st7" d="M377.4,190c0,.6,0,1.2-.1,1.8,0-.6,0-1.2.1-1.8Z"/>
    <path className="st7" d="M375.9,202.8c-.1.7-.2,1.3-.4,2,.1-.7.2-1.3.4-2Z"/>
    <path className="st7" d="M377.5,184.2c0,.5,0,1.1,0,1.6,0-.6,0-1.1,0-1.6Z"/>
    <path className="st7" d="M377.5,188.1c0,.6,0,1.2,0,1.8,0-.6,0-1.2,0-1.8Z"/>
    <path className="st7" d="M376.7,177.2c.1.5.2.9.3,1.4,0-.5-.2-1-.3-1.4Z"/>
    <path className="st7" d="M377.2,180.4c0,.5.1,1.1.2,1.6,0-.5,0-1.1-.2-1.6Z"/>
    <path className="st7" d="M377,178.8c0,.5.2,1,.2,1.5,0-.5-.1-1-.2-1.5Z"/>
    <path className="st7" d="M377.6,186c0,.6,0,1.2,0,1.8,0-.6,0-1.2,0-1.8Z"/>
    <path className="st7" d="M362.7,166.2c4.9.3,9.5,3,13.5,9.3,0,0,0,0,0,0,.1.5.3.9.4,1.4-.1-.5-.2-.9-.4-1.4-.9-2.9-2.3-5.3-4.2-6.9-4.9-3.9-13.1-3.9-22-1.9.4.9.8,1.8,1.1,2.7,3.9-2.2,7.8-3.4,11.6-3.2Z"/>
    <path className="st7" d="M377.4,182.3c0,.5,0,1.1,0,1.6,0-.6,0-1.1,0-1.6Z"/>
    <path className="st7" d="M374.1,211.5c-.3,1.3-.6,2.6-.9,3.8.3-1.3.6-2.5.9-3.8Z"/>
    <path className="st7" d="M370.5,225.1c-.2.5-.3,1.1-.5,1.6.2-.5.3-1,.5-1.6Z"/>
    <path className="st7" d="M371,223.4c-.2.5-.3,1.1-.5,1.6.2-.5.3-1.1.5-1.6Z"/>
    <path className="st7" d="M371.5,221.6c-.2.6-.3,1.1-.5,1.7.2-.6.3-1.1.5-1.7Z"/>
    <path className="st7" d="M372.5,217.7c-.3,1.2-.6,2.4-1,3.6.3-1.2.6-2.4,1-3.6Z"/>
    <path className="st7" d="M369.9,226.9c-.2.5-.3,1-.4,1.5.1-.5.3-1,.4-1.5Z"/>
    <path className="st7" d="M369.5,228.6c-.1.5-.3.9-.4,1.3.1-.4.3-.9.4-1.3Z"/>
    <path className="st7" d="M368.5,231.6c-.3.9-.5,1.6-.8,2.4.2-.7.5-1.5.8-2.4Z"/>
    <path className="st7" d="M369,230.1c-.1.4-.3.9-.4,1.3.1-.4.3-.8.4-1.3Z"/>
    <path className="st7" d="M374.6,209.3c-.1.6-.3,1.3-.4,1.9.1-.6.3-1.3.4-1.9Z"/>
    <path className="st7" d="M375,207.2c-.1.6-.3,1.3-.4,1.9.1-.6.3-1.3.4-1.9Z"/>
    <path className="st7" d="M367.7,234.1c-.1.4-.2.7-.3,1,.1-.3.2-.7.3-1Z"/>
    <path className="st7" d="M373.1,215.6c-.2.6-.3,1.2-.5,1.8.2-.6.3-1.2.5-1.8Z"/>
    <path className="st15" d="M376.2,175.5c-4-6.3-8.7-9-13.5-9.3-1.8,1.7-6,5.6-9.8,10,.2,1.1.3,2.1.4,3.2,0,0,0,0,0,0,4.2,2.9,7.7,6.8,9.2,11.8.4,1.5.7,3.1.8,4.7.2,3.6-1.1,8-3,11.3-1.2,2.3-3.2,5.5-5.3,4.6-.6-.2-1.1-.5-1.6-.8,4.5,8.5,9.9,17.5,13.9,24,0,0,0,0,0,0,.1-.3.2-.7.3-1,0,0,0,0,0-.1.2-.7.5-1.5.8-2.4,0,0,0-.2,0-.2.1-.4.3-.8.4-1.3,0,0,0-.1,0-.2.1-.4.3-.9.4-1.3,0,0,0,0,0-.1.1-.5.3-1,.4-1.5,0,0,0-.2,0-.2.2-.5.3-1,.5-1.6,0,0,0,0,0-.1.2-.5.3-1.1.5-1.6,0,0,0-.1,0-.2.2-.6.3-1.1.5-1.7,0,0,0-.2,0-.3.3-1.2.6-2.4,1-3.6,0,0,0-.2,0-.3.2-.6.3-1.2.5-1.8,0,0,0-.2,0-.2.3-1.3.6-2.5.9-3.8,0-.1,0-.2,0-.3.1-.6.3-1.3.4-1.9,0,0,0-.1,0-.2.1-.6.3-1.3.4-1.9,0,0,0-.1,0-.2.1-.7.3-1.3.4-2,0-.1,0-.2,0-.3.1-.7.2-1.3.4-2,0,0,0,0,0-.1.1-.6.2-1.3.3-1.9,0,0,0-.2,0-.3.1-.6.2-1.3.3-1.9,0-.1,0-.2,0-.3.2-1.3.4-2.6.5-3.9,0-.1,0-.2,0-.3,0-.6.1-1.3.2-1.9,0,0,0-.2,0-.3,0-.6,0-1.2.1-1.8,0,0,0,0,0,0,0-.6,0-1.2,0-1.8,0-.1,0-.2,0-.3,0-.6,0-1.2,0-1.8,0,0,0-.1,0-.2,0-.6,0-1.1,0-1.6,0,0,0-.1,0-.2,0-.6,0-1.1,0-1.6,0-.1,0-.2,0-.3,0-.5,0-1.1-.2-1.6,0,0,0,0,0-.1,0-.5-.1-1-.2-1.5,0,0,0-.2,0-.3,0-.5-.2-1-.3-1.4,0,0,0-.2,0-.3-.1-.5-.2-.9-.4-1.4,0,0,0,0,0,0Z"/>
    <path className="st5" d="M362.7,166.2c-3.8-.2-7.7,1-11.6,3.2.8,2.2,1.4,4.5,1.8,6.8,3.9-4.4,8-8.4,9.8-10Z"/>
    <path className="st5" d="M353.4,211.2c-2.6-1.2-5.1-2.5-7.6-3.8,7.7,8.5,15.1,18.2,21.5,27.8,0,0,0,0,0,0-4-6.5-9.4-15.5-13.9-24Z"/>
    <path className="st18" d="M262.1,375.8c2.9,0,5.9,0,8.9-.3h0c2,0,4,.1,6,.1,3.3,0,6.6-.2,9.7-.4v-8.8h36.3c.8-.4,1.7-.7,2.5-1.1l-4.9-1.3c-2.7-.7-4.9-2.8-5.7-5.5-.8-2.7-.2-5.6,1.6-7.8l4.6-5.5c1.7-2,4.1-3,6.6-2.9,2.6.1,4.9,1.4,6.4,3.5l3.3,4.6-1.4-4.9c-.7-2.5-.2-5.1,1.3-7.1,1.5-2.1,3.9-3.3,6.4-3.3l7.2-.2c2.8,0,5.5,1.3,7,3.6.7,1,1.1,2.1,1.3,3.2,5-5.1,7.4-8.7,7.4-8.7,8.3-9.9,14.5-24.5,16.9-39.6-8.6,13.2-28.3,39.8-50,42-8.5.9-21.3-1.3-32.6-10.6-6-4.9-14.3-7.2-20.9-8.2-1.1.4-2,.8-2.4,1.1-.5.4-2.5,1.8-4.2,3.1-.9.7-1.7,1.3-2.2,1.8-.5.4-1.2.4-1.6,0-.6-.5-1.4-1.1-2.3-1.7-1.8-1.3-3.7-2.6-4.3-3-.4-.3-1.3-.6-2.4-1-6.6,1.2-14.9,3.7-20.7,8.7-11.1,9.6-23.8,12.1-32.4,11.5-9.3-.7-18.3-5.9-26.3-12.6-1.1-.7-2.1-1.4-3.2-2.2-2.7-2-5.2-4.4-7.4-7-1.3-1.6-2.6-3.4-3.6-5.1-4.3-5.1-7.9-10-10.5-13.8,0,0,0,0,0,0,2.7,15,9.3,29.5,17.9,39.2,0,0,13.2,18.4,39.9,30.4,0,0,.2,0,.3.1,12.8,5.7,28.6,9.9,47.5,9.9ZM243.5,325.8c.9-1.1,2.5-1.3,3.6-.3,1.1.9,1.3,2.5.3,3.6,0,0,0,0,0,.1,0,0,0,0,0,.1,0,0,0,.2,0,.3,0,.2,0,.3,0,.5,0,.3.2.7.3,1,.1.3.3.6.5.9s.4.6.6.8c.4.5.9,1,1.3,1.5.2.2.5.5.7.7l.4.3.4.3c1,.8,2.2,1.5,3.4,2,1.2.5,2.5.7,3.8.7h0s.2,0,.2,0h.2s.2,0,.2,0c.1,0,.3,0,.4,0,.3,0,.5,0,.8,0,.5,0,1.1,0,1.6-.2,1-.2,2-.6,2.9-1.1.5-.3.9-.5,1.3-.9.2-.2.4-.3.6-.5.2-.2.4-.3.6-.5l.3-.3.3-.3c.2-.2.3-.4.5-.6.2-.2.3-.4.5-.6,0,0,0,0,0-.1,0-.4.3-.8.7-1.1.3-.2.6-.3.9-.3.4,0,.8,0,1.1.4.3.2.5.6.5.9,0,0,0,0,0,.1.2.2.3.4.5.6.2.2.3.4.5.6l.3.3.3.3c.2.2.4.3.6.5.2.2.4.3.6.5.4.3.9.6,1.3.8.9.5,1.9.8,3,1,.5.1,1,.2,1.6.2.3,0,.5,0,.8,0,.1,0,.3,0,.4,0h.2s.2,0,.2,0h.2s0,0,0,0c1.3,0,2.6-.3,3.8-.8,1.2-.5,2.4-1.2,3.4-2.1l.4-.3.4-.3c.3-.2.5-.5.7-.7.5-.5.9-1,1.3-1.6.2-.3.4-.5.6-.8.2-.3.3-.6.5-.9.1-.3.2-.6.3-1,0-.2,0-.3,0-.5,0,0,0-.2,0-.3,0,0,0,0,0-.1,0,0,0,0,0-.1-.8-1-.8-2.4,0-3.4,1-1.1,2.6-1.1,3.6-.2,1.1,1,1.1,2.6.2,3.6l-1.1,1.2c0,0,0,0-.1.1,0,0,0,0-.1.1,0,0-.2.1-.2.2,0,0,0,0-.1.1-.5,1.5-2.2,5.9-5.5,10.4-5.1,7.2-11.8,11.3-19.4,11.9h0c0,0-.2,0-.2,0,0,0-.2,0-.2,0h0c-7.6-.5-14.3-4.4-19.7-11.4-2.8-3.7-4.5-7.3-5.3-9.3-.2-.2-.4-.5-.6-.7-.1-.1-.3-.3-.4-.4,0,0-.2-.1-.2-.2,0,0,0,0-.1-.1,0,0,0,0-.1-.1l-1.1-1.1c-.9-.9-1-2.4-.1-3.4Z"/>
    <path className="st18" d="M286.8,343.2c-.2.2-.3.3-.5.5.2-.2.3-.3.5-.5Z"/>
    <path className="st18" d="M288.7,340.9c-.2.2-.3.4-.5.6.2-.2.3-.4.5-.6Z"/>
    <path className="st18" d="M283.7,346c-.2.1-.4.3-.6.4.2-.1.4-.3.6-.4Z"/>
    <path className="st18" d="M282.7,346.8c-.2.1-.4.3-.6.4.2-.1.4-.3.6-.4Z"/>
    <path className="st18" d="M285.8,344.2c-.2.2-.3.3-.5.5.2-.2.3-.3.5-.5Z"/>
    <path className="st18" d="M284.8,345.1c-.2.2-.4.3-.5.5.2-.1.4-.3.5-.5Z"/>
    <path className="st18" d="M287.8,342.1c-.2.2-.3.4-.5.5.2-.2.3-.4.5-.5Z"/>
    <path className="st18" d="M271.7,336.5l.4.3.4.3h.2c0,.1.2.3.2.3l.4.3c.3.2.5.4.8.5.5.3,1.1.6,1.7.9,1.2.5,2.4.8,3.6,1,.6,0,1.2.1,1.9,0h0c-.6,0-1.3,0-1.9,0-1.2-.2-2.5-.5-3.6-1-.6-.2-1.2-.5-1.7-.9-.3-.2-.5-.3-.8-.5l-.4-.3h-.2c0-.1-.2-.3-.2-.3l-.4-.3-.4-.3c-.2-.2-.5-.4-.7-.6,0,0,0,0,0,0,0,0,0,0,0,0,0,0,0,0,0,0,.2.2.5.4.7.6Z"/>
    <path className="st18" d="M345.7,353.4c1-.7,1.9-1.4,2.8-2.1l3.4-7.8c.2-.4,0-.7,0-.9-.1-.2-.4-.4-.8-.4l-7.2.2c-.4,0-.6.2-.7.3,0,0,0,0,0,0-.1.2-.3.4-.1.8l2.8,9.9Z"/>
    <path className="st18" d="M250.8,336.9c1.1.9,2.4,1.7,3.8,2.3,1.4.6,2.8.9,4.3,1h0s.1,0,.1,0c0,0,.2,0,.2,0,.2,0,.3,0,.5,0,.3,0,.6,0,.9,0h0c-.3,0-.6,0-.9,0-.2,0-.3,0-.5,0,0,0-.2,0-.2,0h-.1s0,0,0,0c-1.5,0-3-.4-4.3-1-1.4-.6-2.7-1.4-3.8-2.3h0c0,0,0,0,0,0h0Z"/>
    <path className="st18" d="M328.1,350.1c-.2-.3-.5-.4-.7-.4,0,0,0,0,0,0-.2,0-.5,0-.7.3l-4.6,5.5c-.3.3-.3.7-.2.9,0,.2.2.5.7.6l12.5,3.4c.1,0,.2-.1.3-.2l-7.2-10.2Z"/>
    <path className="st18" d="M255.2,342.8c0-.1-.2-.2-.3-.3,0,.1.2.2.3.3Z"/>
    <path className="st18" d="M256.2,343.9c-.1-.1-.2-.2-.4-.4.1.1.2.2.4.4Z"/>
    <path className="st18" d="M254.1,341.5c0,0-.1-.1-.2-.2,0,0,.1.1.2.2Z"/>
    <path className="st18" d="M289.2,340.3c.2-.2.3-.4.5-.6,1.1-1.5,2-3.1,2.8-4.5h0c-.7,1.4-1.7,2.9-2.8,4.5-.2.2-.3.4-.5.6Z"/>
    <path className="st18" d="M260.5,347.3c-.1,0-.3-.2-.4-.3.1,0,.3.2.4.3Z"/>
    <path className="st18" d="M271.4,350.8c.5,0,.9,0,1.4-.1-.4,0-.9.1-1.4.1,0,0,0,0,0,0Z"/>
    <path className="st18" d="M264.2,349.2c-.2,0-.4-.2-.6-.3.2,0,.4.2.6.3Z"/>
    <path className="st18" d="M262.9,348.7c-.2,0-.4-.2-.6-.3.2.1.4.2.6.3Z"/>
    <path className="st18" d="M261.7,348c-.2-.1-.4-.2-.6-.3.2.1.4.2.6.3Z"/>
    <path className="st18" d="M265.5,349.7c-.2,0-.5-.2-.7-.2.2,0,.4.2.7.2Z"/>
    <path className="st18" d="M266.8,350.1c-.2,0-.5-.1-.7-.2.2,0,.5.1.7.2Z"/>
    <path className="st18" d="M271.4,350.8c-.4,0-.9,0-1.3-.1.4,0,.9,0,1.3.1Z"/>
    <path className="st18" d="M268.1,350.4c-.3,0-.5-.1-.8-.2.3,0,.5.1.8.2Z"/>
    <path className="st18" d="M269.6,350.7c-.3,0-.6,0-.9-.1.3,0,.6,0,.9.1Z"/>
    <path className="st18" d="M258.3,345.7c-.1-.1-.3-.2-.4-.3.1.1.3.2.4.3Z"/>
    <path className="st18" d="M257.3,344.8c-.1-.1-.3-.2-.4-.4.1.1.3.2.4.4Z"/>
    <path className="st18" d="M278,349.3c-.2,0-.5.2-.7.3.2,0,.5-.2.7-.3Z"/>
    <path className="st18" d="M275.4,350.2c-.3,0-.5.1-.8.2.3,0,.5-.1.8-.2Z"/>
    <path className="st18" d="M274.1,350.5c-.3,0-.6.1-.9.2.3,0,.6,0,.9-.2Z"/>
    <path className="st18" d="M276.7,349.8c-.2,0-.5.1-.7.2.2,0,.5-.1.7-.2Z"/>
    <path className="st18" d="M259.4,346.6c-.1-.1-.3-.2-.4-.3.1.1.3.2.4.3Z"/>
    <path className="st18" d="M280.4,348.2c-.2.1-.4.2-.7.3.2-.1.4-.2.7-.3Z"/>
    <path className="st18" d="M281.6,347.5c-.2.1-.4.3-.7.4.2-.1.5-.3.7-.4Z"/>
    <path className="st18" d="M279.2,348.8c-.2.1-.5.2-.7.3.2,0,.5-.2.7-.3Z"/>
    <path className="st15" d="M210.3,269c-6.9,2.4-11,8.9-11.7,16.2,1.2.7,1.9,1.1,1.9,1.1,7.4-6,23.5-2.4,23.5-2.4,9.2,1.4,16.6,5.8,19.2,13.1,0-.4.1-.8.1-1.2,2.1-16.6-10.5-34.6-33.1-26.8Z"/>
    <path className="st1" d="M200.4,296.8c-.4-4.5.7-12.3,13.5-13.2,3.5-.3,7-.2,10.2.3,0,0,0,0,0,0,0,0-16.1-3.6-23.5,2.4,0,0-.7-.4-1.9-1.1-3.9-2.3-12.7-7.4-15-9.1,0,0,6.5,11.5,15.3,18,0,0,1.1,2.9,1.6,5.1,0-.5-.1-1.2,0-2,0,0,0,0,0,0,0-.1,0-.2,0-.4Z"/>
    <path className="st1" d="M200.5,299.2c0,.5.2.8.2.8,0-.3-.1-.5-.2-.8Z"/>
    <path className="st1" d="M224.1,283.9s0,0,0,0c-3.2-.5-6.6-.6-10.2-.3-12.7.9-13.9,8.7-13.5,13.2,0,.1,0,.2,0,.4,0,0,0,0,0,0,.2,1.7.6,2.9.6,2.9,0-.6,0-1.2,0-1.7.6-3.7,4.7-5.6,6.9-6.5,15-6.4,32.9,4.2,35.2,5.7.2.1.3.2.3.2,0-.2-.1-.4-.2-.6-2.6-7.3-9.9-11.8-19.2-13.1Z"/>
    <path className="st15" d="M294,297c2.6-7.3,9.9-11.8,19.2-13.1,0,0,16.1-3.6,23.5,2.4,0,0,.7-.4,1.9-1.1-.7-7.3-4.7-13.8-11.7-16.2-22.5-7.7-35.2,10.3-33.1,26.8,0,.4,0,.8.1,1.2Z"/>
    <path className="st1" d="M336.8,299.2c0,.3-.1.6-.2.8,0,0,0-.3.2-.8Z"/>
    <path className="st1" d="M313.2,283.9s0,0,0,0c3.2-.5,6.6-.6,10.2-.3,12.7.9,13.9,8.7,13.5,13.2,0,.1,0,.2,0,.4,0,0,0,0,0,0,0,.8,0,1.5,0,2,.5-2.2,1.6-5.1,1.6-5.1,8.7-6.4,15.3-18,15.3-18-2.2,1.7-11,6.9-15,9.1-1.2.7-1.9,1.1-1.9,1.1-7.4-6-23.5-2.4-23.5-2.4Z"/>
    <path className="st1" d="M336.9,296.8c.4-4.5-.7-12.3-13.5-13.2-3.5-.3-7-.2-10.2.3,0,0,0,0,0,0-9.2,1.4-16.6,5.8-19.2,13.1,0,.2-.1.4-.2.6,0,0,0,0,.3-.2,2.3-1.5,20.2-12.1,35.2-5.7,2.2.9,6.3,2.8,6.9,6.5,0,.5.1,1.1,0,1.7,0,0,.4-1.2.6-2.9,0,0,0,0,0,0,0-.1,0-.2,0-.4Z"/>
    <path className="st14" d="M277,313.4c.7-.3,3.7,1.5,5.1,2.5,1.1-.4,2-.6,2-.6,0,0,2.8-.9,1.4-2.9-1.4-2-5.3-3.8-7.2-3.9-1.9,0-8.2,2.4-8.2,2.4,0,0-6.3-2.3-8.2-2.2-1.9,0-5.8,2-7.1,4.1-1.4,2,1.5,2.9,1.5,2.9,0,0,.9.2,2,.6,1.4-1,4.4-2.9,5.1-2.6.8.3,3,5.3,3.8,7.3.9.6,1.7,1.2,2.3,1.7.5.4,1.2.4,1.6,0,.6-.5,1.4-1.1,2.2-1.8.8-2,2.9-7.1,3.6-7.4Z"/>
    <path className="st1" d="M277,313.4c-.7.3-2.8,5.4-3.6,7.4,1.7-1.3,3.6-2.7,4.2-3.1.4-.3,1.3-.7,2.4-1.1.7-.3,1.5-.5,2.2-.7-1.4-.9-4.4-2.8-5.1-2.5Z"/>
    <path className="st1" d="M263.4,313.5c-.7-.3-3.7,1.6-5.1,2.6.7.2,1.5.4,2.2.7,1.1.4,2,.7,2.4,1,.6.4,2.5,1.8,4.3,3-.9-2-3.1-7-3.8-7.3Z"/>
    <path className="st1" d="M244.7,330.3c0,0,0,0,.1.1,0,0,0,0,.1.1,0,0,.2.1.2.2.1.1.3.3.4.4.2.2.4.5.6.7-.4-.9-.5-1.4-.6-1.5l1.6-.5s1.1,3.2,3.4,7h0c1.1,1,2.4,1.8,3.8,2.4,1.4.6,2.8.9,4.3,1h0s.1,0,.1,0c0,0,.2,0,.2,0,.2,0,.3,0,.5,0,.3,0,.6,0,.9,0,.6,0,1.3,0,1.9-.1,1.2-.2,2.5-.5,3.6-1.1.6-.3,1.1-.6,1.7-.9.3-.2.5-.4.8-.5l.4-.3h.2c0-.1.2-.3.2-.3l.4-.3.4-.3c.2-.2.5-.4.7-.7,0,0,0,0,0,0,0,0,0,0,0,0,0,0,0,0,0,0,0,0,0,0,0,0,.2.2.5.4.7.6l.4.3.4.3h.2c0,.1.2.3.2.3l.4.3c.3.2.5.4.8.5.5.3,1.1.6,1.7.9,1.2.5,2.4.8,3.6,1,.6,0,1.2.1,1.9,0,.3,0,.6,0,.9,0,.2,0,.3,0,.5,0,0,0,.2,0,.2,0h.1s0,0,0,0c1.5-.1,3-.5,4.3-1.1,1.4-.6,2.7-1.4,3.8-2.4l.4-.4.4-.4c.2-.1.3-.3.4-.4,0,0,0,0,0,0h0c1.8-3.4,2.6-6,2.6-6l1.6.5s0,.2-.2.5c0,0,0,0,.1-.1,0,0,.1-.1.2-.2,0,0,0,0,.1-.1,0,0,0,0,.1-.1l1.1-1.2c1-1.1.9-2.7-.2-3.6-1.1-1-2.7-.9-3.6.2-.9,1-.9,2.4,0,3.4,0,0,0,0,0,.1,0,0,0,0,0,.1,0,0,0,.2,0,.3,0,.2,0,.4,0,.5,0,.3-.2.7-.3,1-.1.3-.3.6-.5.9-.2.3-.4.6-.6.8-.4.5-.9,1.1-1.3,1.6-.2.2-.5.5-.7.7l-.4.3-.4.3c-1,.9-2.2,1.6-3.4,2.1-1.2.5-2.5.8-3.8.8h0s-.2,0-.2,0h-.2s-.2,0-.2,0c-.1,0-.3,0-.4,0-.3,0-.5,0-.8,0-.5,0-1.1,0-1.6-.2-1-.2-2-.5-3-1-.5-.2-.9-.5-1.3-.8-.2-.1-.4-.3-.6-.5-.2-.2-.4-.3-.6-.5l-.3-.3-.3-.3c-.2-.2-.3-.4-.5-.6-.2-.2-.3-.4-.5-.6,0,0,0,0,0-.1,0-.3-.2-.7-.5-.9-.3-.3-.7-.4-1.1-.4-.3,0-.6,0-.9.3-.4.3-.6.6-.7,1.1,0,0,0,0,0,.1-.2.2-.3.4-.5.6-.2.2-.3.4-.5.6l-.3.3-.3.3c-.2.2-.4.4-.6.5-.2.2-.4.3-.6.5-.4.3-.9.6-1.3.9-.9.5-1.9.9-2.9,1.1-.5.1-1,.2-1.6.2-.3,0-.5,0-.8,0-.1,0-.3,0-.4,0h-.2s-.2,0-.2,0h-.2s0,0,0,0c-1.3,0-2.6-.2-3.8-.7-1.2-.5-2.4-1.1-3.4-2l-.4-.3-.4-.3c-.3-.2-.5-.5-.7-.7-.5-.5-.9-1-1.3-1.5-.2-.3-.4-.5-.6-.8s-.4-.6-.5-.9c-.1-.3-.3-.6-.3-1,0-.2,0-.3,0-.5,0,0,0-.2,0-.3,0,0,0,0,0-.1,0,0,0,0,0-.1.9-1.1.7-2.7-.3-3.6-1.1-.9-2.7-.7-3.6.3-.8,1-.8,2.5.1,3.4l1.1,1.1Z"/>
    <path className="st5" d="M259.9,340.4c-.2,0-.3,0-.5,0,0,0-.2,0-.2,0h-.1s0,0,0,0c-1.5,0-3-.4-4.3-1-1.4-.6-2.7-1.4-3.8-2.3h0c.6,1,1.4,2.1,2.2,3.2.3.4.6.8,1,1.2,0,0,.1.1.2.2.3.3.5.6.8.9,0,.1.2.2.3.3.2.2.5.5.7.7.1.1.2.2.4.4.2.2.4.4.7.6.1.1.3.2.4.4.2.2.4.4.6.6.1.1.3.2.4.3.2.2.4.3.7.5.1.1.3.2.4.3.2.2.5.3.7.5.1,0,.3.2.4.3.1,0,.2.1.4.2,2.5-1,6.2-1.7,10.3-1.8,4.3,0,8.1.6,10.6,1.7.1,0,.2-.2.4-.2.2-.1.4-.3.6-.4.2-.1.3-.3.5-.4.2-.1.4-.3.6-.4.2-.1.3-.3.5-.4.2-.1.4-.3.5-.5.2-.1.3-.3.5-.5.2-.2.3-.3.5-.5.2-.2.3-.3.5-.5.2-.2.3-.3.5-.5.2-.2.3-.4.5-.5.2-.2.3-.4.5-.5.2-.2.3-.4.5-.6.2-.2.3-.4.5-.6.1-.2.3-.4.4-.6.2-.2.3-.4.5-.6,1.1-1.5,2-3.1,2.8-4.5,0,0,0,0,0,0-.1.1-.3.3-.4.4l-.4.4-.4.4c-1.1,1-2.4,1.8-3.8,2.4-1.3.6-2.8,1-4.3,1.1h0s-.1,0-.1,0c0,0-.2,0-.2,0-.2,0-.3,0-.5,0-.3,0-.6,0-.9,0h0c-.6,0-1.3,0-1.9,0-1.2-.2-2.5-.5-3.6-1-.6-.2-1.2-.5-1.7-.9-.3-.2-.5-.3-.8-.5l-.4-.3h-.2c0-.1-.2-.3-.2-.3l-.4-.3-.4-.3c-.2-.2-.5-.4-.7-.6,0,0,0,0,0,0,0,0,0,0,0,0,0,0,0,0,0,0-.2.2-.4.5-.7.7l-.4.3-.4.3-.2.2h-.2c0,.1-.4.4-.4.4-.3.2-.5.4-.8.5-.5.3-1.1.6-1.7.9-1.1.5-2.4.9-3.6,1.1-.6,0-1.2.1-1.9.1h0c-.3,0-.6,0-.9,0Z"/>
    <path className="st3" d="M295,329.2s-.8,2.6-2.6,6c-.7,1.4-1.7,2.9-2.8,4.5-.2.2-.3.4-.5.6-.1.2-.3.4-.4.6-.2.2-.3.4-.5.6-.2.2-.3.4-.5.6-.2.2-.3.4-.5.5-.2.2-.3.4-.5.5-.2.2-.3.3-.5.5-.2.2-.3.3-.5.5-.2.2-.3.3-.5.5-.2.2-.3.3-.5.5-.2.2-.4.3-.5.5-.2.1-.3.3-.5.4-.2.1-.4.3-.6.4-.2.1-.3.3-.5.4-.2.1-.4.3-.6.4-.1,0-.2.2-.4.2,0,0,0,0,0,0,0,0-.1,0-.2,0-.2.1-.4.3-.7.4-.2,0-.3.2-.5.3-.2.1-.4.2-.7.3-.2,0-.4.2-.5.3-.2.1-.5.2-.7.3-.2,0-.4.2-.6.2-.2,0-.5.2-.7.3-.2,0-.4.1-.6.2-.2,0-.5.1-.7.2-.2,0-.4.1-.6.2-.3,0-.5.1-.8.2-.2,0-.3,0-.5.1-.3,0-.6.1-.9.2-.1,0-.3,0-.4,0-.4,0-.9.1-1.4.1,0,0,0,0,0,0s0,0,0,0c0,0,0,0,0,0-.4,0-.9,0-1.3-.1-.2,0-.3,0-.5,0-.3,0-.6,0-.9-.1-.2,0-.4,0-.6-.1-.3,0-.5-.1-.8-.2-.2,0-.4-.1-.6-.2-.2,0-.5-.1-.7-.2-.2,0-.4-.1-.6-.2-.2,0-.5-.2-.7-.2-.2,0-.4-.2-.6-.2-.2,0-.4-.2-.6-.3-.2,0-.4-.2-.6-.3-.2,0-.4-.2-.6-.3-.2-.1-.4-.2-.6-.3-.2-.1-.4-.2-.6-.3-.1,0-.2-.1-.3-.2,0,0,0,0,0,0-.1,0-.2-.1-.4-.2-.1,0-.3-.2-.4-.3-.2-.2-.5-.3-.7-.5-.1-.1-.3-.2-.4-.3-.2-.2-.4-.3-.7-.5-.1-.1-.3-.2-.4-.3-.2-.2-.4-.4-.6-.6-.1-.1-.3-.2-.4-.4-.2-.2-.4-.4-.7-.6-.1-.1-.2-.2-.4-.4-.2-.2-.5-.5-.7-.7,0-.1-.2-.2-.3-.3-.3-.3-.5-.6-.8-.9,0,0-.1-.1-.2-.2-.3-.4-.6-.8-1-1.2-.8-1.1-1.6-2.2-2.2-3.3,0,0,0,0,0,0-2.3-3.8-3.4-7-3.4-7l-1.6.5c0,0,.2.6.6,1.5.8,2,2.5,5.6,5.3,9.3,5.3,7,12.1,11,19.7,11.4h0c0,0,.2,0,.2,0,0,0,.2,0,.2,0h0c7.5-.7,14.2-4.7,19.4-11.9,3.3-4.6,4.9-9,5.5-10.4,0-.3.2-.5.2-.5l-1.6-.5Z"/>
    <path className="st11" d="M260.8,347.5s0,0,0,0c.1,0,.2.1.3.2.2.1.4.2.6.3.2.1.4.2.6.3.2.1.4.2.6.3.2,0,.4.2.6.3.2,0,.4.2.6.3.2,0,.4.2.6.2.2,0,.4.2.7.2.2,0,.4.1.6.2.2,0,.5.1.7.2.2,0,.4.1.6.2.3,0,.5.1.8.2.2,0,.4,0,.6.1.3,0,.6,0,.9.1.2,0,.3,0,.5,0,.4,0,.9,0,1.3.1,0,0,0,0,0,0,0,0,0,0,0,0,.5,0,.9,0,1.4-.1.1,0,.3,0,.4,0,.3,0,.6,0,.9-.2.2,0,.3,0,.5-.1.3,0,.5-.1.8-.2.2,0,.4-.1.6-.2.2,0,.5-.1.7-.2.2,0,.4-.1.6-.2.2,0,.5-.2.7-.3.2,0,.4-.2.6-.2.2,0,.5-.2.7-.3.2,0,.4-.2.5-.3.2-.1.4-.2.7-.3.2,0,.3-.2.5-.3.2-.1.5-.3.7-.4,0,0,.1,0,.2,0,0,0,0,0,0,0-2.6-1.1-6.4-1.7-10.6-1.7-4.1,0-7.7.7-10.3,1.8Z"/>
    <path className="st2" d="M297.9,192.3c-1.3,0-2.7-.2-4-.2,4.3,26.5-3.2,30.2,2.2,33,5.5,2.8,9.9-7.1,9.9-7.1,3.4-7.6,4.1-16.7,4-24.4-.5,0-.9-.1-1.4-.2-3.6-.5-7.2-.9-10.8-1.1Z"/>
    <path className="st2" d="M231.8,219.8s4.7,9.7,10.1,6.8c5.4-2.9-2.4-6.5,1.5-34.2,0-.4.1-.8.2-1.2-5.5.2-11,.7-16.4,1.7-.2,8.2.6,18.5,4.6,26.8Z"/>
    <path className="st2" d="M266.5,191.5c-2,0-4-.2-6-.2-.6,0-1.2,0-1.7,0,0,16.1,1,39.1,6.9,48.3,1.6,2.5,5.4,2.5,7,0,5.7-9.2,6.2-31.9,5.7-48-4,0-8,0-11.9,0Z"/>
    <path className="st2" d="M334.5,317.7c.6,0,1.2-.2,1.8-.3.6-.1,1.2-.3,1.8-.4,2.4-.6,4.8-1.5,7.1-2.6.3-.1.6-.3.9-.4.3-.1.6-.3.9-.5.6-.3,1.1-.6,1.7-1,1.1-.7,2.2-1.5,3.2-2.3,1-.8,2-1.7,2.9-2.7l.7-.7c.2-.2.4-.5.7-.7.2-.2.4-.5.6-.8.2-.3.4-.5.6-.8,1.6-2.1,3-4.5,4-6.9,1-2.5,1.7-5.1,2-7.7.3-2.6.3-5.2,0-7.8,0-.6-.2-1.3-.3-1.9-.1-.6-.3-1.2-.4-1.9-.2-.6-.4-1.2-.6-1.8-.1-.3-.2-.6-.4-.9,0-.1-.1-.3-.2-.5l-.2-.5c-.4-.8-1.4-1.2-2.2-.8-.4.2-.7.6-.9,1l-.2.6s0,.1,0,.2v.2s0,.4,0,.4c0,.3,0,.6,0,.8,0,.6,0,1.1-.1,1.7-.1,1.1-.3,2.2-.4,3.3-.4,2.1-.8,4.2-1.5,6.2-1.3,4-3.1,7.6-5.6,10.7-2.5,3.2-5.5,6-9,8.5-1.7,1.3-3.6,2.5-5.5,3.6-.5.3-1,.6-1.4.9-.5.3-1,.6-1.5.9l-.7.4-.7.4c-.5.3-1,.6-1.5.9h0c-.8.6-1,1.6-.5,2.5.3.5.9.8,1.5.8.6,0,1.2,0,1.9-.1.6,0,1.2-.1,1.8-.2Z"/>
    <path className="st2" d="M362.5,308c-3.6,4.5-8,8.3-13,11.4-2.5,1.6-5.1,3-7.9,4.3-1.4.7-2.8,1.3-4.2,1.9l-2.1.9c-.7.3-1.4.6-2.2.9h0c-.9.4-1.3,1.4-.9,2.3.3.7,1,1.1,1.7,1,.8,0,1.6-.2,2.4-.3.8-.1,1.6-.2,2.4-.4.4,0,.8-.2,1.2-.2.4,0,.8-.2,1.2-.3l1.2-.3h.6c0-.1.6-.3.6-.3l1.2-.3c.4-.1.8-.2,1.2-.4.4-.1.8-.3,1.2-.4l1.2-.4.6-.2c.2,0,.4-.2.6-.2l1.1-.5c.8-.3,1.5-.7,2.3-1,3-1.5,5.9-3.3,8.5-5.4,2.7-2.1,5.1-4.5,7.2-7.2,2.1-2.7,3.9-5.6,5.3-8.7.4-.8.7-1.5,1-2.3.3-.8.6-1.6.9-2.4.5-1.6,1-3.2,1.3-4.9.7-3.3,1-6.6,1-9.9,0-1.7,0-3.3-.3-4.9,0-.8-.2-1.6-.4-2.4,0-.4-.2-.8-.2-1.2,0-.2,0-.4-.1-.6l-.2-.6c-.2-.9-1.2-1.4-2.1-1.2-.7.2-1.2.8-1.3,1.6v.2s0,1.1,0,1.1c0,.4,0,.7,0,1.1,0,.8-.1,1.5-.2,2.3-.1,1.5-.3,3-.6,4.5-.5,2.9-1.2,5.8-2.1,8.6-.4,1.4-1,2.8-1.5,4.1-.3.7-.6,1.3-.9,2-.3.7-.6,1.3-1,1.9-1.3,2.5-2.9,5-4.7,7.2Z"/>
    <path className="st2" d="M209.2,316.3h0c-.5-.3-1-.6-1.5-.9l-.8-.4-.8-.4c-.5-.3-1-.6-1.5-.8-.5-.3-1-.6-1.5-.8-1.9-1.1-3.8-2.3-5.6-3.5-3.5-2.4-6.7-5.1-9.2-8.3-2.5-3.1-4.5-6.7-5.9-10.6-.7-2-1.2-4-1.6-6.2-.2-1.1-.4-2.1-.5-3.2,0-.5-.1-1.1-.2-1.7,0-.3,0-.6,0-.8v-.4s0-.2,0-.2c0,0,0-.1,0-.2l-.2-.6c-.1-.4-.5-.8-.9-1-.8-.4-1.8,0-2.2.9l-.2.5c0,.2-.1.3-.2.5-.1.3-.2.6-.3.9-.2.6-.4,1.2-.5,1.8-.2.6-.3,1.2-.4,1.9-.1.6-.2,1.3-.3,1.9-.3,2.6-.2,5.2.2,7.8.4,2.6,1.1,5.2,2.2,7.6,1.1,2.4,2.5,4.8,4.1,6.8.2.3.4.5.6.8.2.3.4.5.7.8.2.2.4.5.7.7l.7.7c1,.9,2,1.8,3,2.6,1.1.8,2.1,1.5,3.2,2.2.6.3,1.1.6,1.7.9.3.2.6.3.9.4.3.1.6.3.9.4,2.3,1.1,4.7,1.9,7.2,2.4.6.1,1.2.3,1.8.4.6,0,1.2.2,1.8.3.6,0,1.2.1,1.8.2.6,0,1.2,0,1.9,0,.6,0,1.2-.3,1.5-.8.5-.8.3-1.9-.6-2.4Z"/>
    <path className="st2" d="M188.9,328.4l1.2.4c.2,0,.4.2.6.2l.6.2,1.2.4c.4.1.8.2,1.2.4.4.1.8.2,1.2.3l1.2.3h.6c0,.1.6.3.6.3l1.2.3c.4,0,.8.2,1.2.2.4,0,.8.1,1.2.2.8.1,1.6.2,2.4.3.8,0,1.6.1,2.4.2.7,0,1.4-.4,1.7-1.1.4-.9,0-1.9-.9-2.2h0c-.7-.3-1.5-.6-2.2-.8l-2.2-.8c-1.4-.6-2.8-1.1-4.2-1.8-2.8-1.2-5.4-2.6-8-4.1-5.1-3-9.6-6.7-13.3-11-1.8-2.2-3.5-4.6-4.9-7.1-.3-.6-.7-1.3-1-1.9-.3-.6-.6-1.3-.9-2-.6-1.3-1.1-2.7-1.6-4.1-1-2.8-1.7-5.6-2.3-8.6-.3-1.5-.5-3-.7-4.4,0-.7-.2-1.5-.2-2.2,0-.4,0-.7,0-1.1v-1.1c0,0,0-.2,0-.2,0-.7-.6-1.4-1.3-1.5-.9-.2-1.8.3-2,1.3l-.2.6c0,.2,0,.4-.1.6,0,.4-.1.8-.2,1.2-.1.8-.2,1.6-.3,2.5-.1,1.6-.2,3.3-.2,4.9,0,3.3.5,6.6,1.3,9.9.4,1.6.9,3.2,1.4,4.8.3.8.6,1.6.9,2.4.3.8.7,1.5,1.1,2.3.6,1.2,1.2,2.3,1.9,3.4,1.1,1.8,2.3,3.5,3.6,5.1,2.2,2.6,4.7,5,7.4,7,1,.8,2.1,1.5,3.2,2.2,1.8,1.1,3.6,2.1,5.5,3,.8.4,1.5.7,2.3,1Z"/>
    <path className="st8" d="M286.4,127.8s0,0,0,0c4.5-.9,7.4-4.7,6.3-8.6-.8-2.8-3.4-4.8-6.5-5.4.2-1,.2-2,0-3-1.1-3.9-5.6-6.2-10.1-5.4-2,.4-3.6,1.3-4.8,2.6-2-1.9-5.1-2.9-8.3-2.2-4.5.9-7.4,4.7-6.3,8.6-4.5.9-7.4,4.7-6.3,8.6.6,2.2,2.3,3.8,4.5,4.8,5-.7,10.2-1,15.5-1s10.9.4,16.1,1.1ZM266.7,120.9c0,3-2.9,5.5-6.5,5.5s-6.5-2.4-6.5-5.5,2.9-5.5,6.5-5.5.3,0,.4,0c-.3-.5-.4-1.1-.4-1.7,0-2.2,2.1-4,4.7-4s4.7,1.8,4.7,4c2.6,0,4.7,1.8,4.7,4s-2.1,4-4.7,4-2.2-.3-3-.9c0,0,0,0,0,0Z"/>
    <g>
      <path className="st10" d="M353.2,179.5c0-1.1-.2-2.2-.4-3.2-.4-2.3-.9-4.6-1.8-6.8-.3-.9-.7-1.8-1.1-2.7-8.6-19.1-33-34.8-63.6-38.9-5.2-.7-10.6-1.1-16.1-1.1s-10.5.4-15.5,1c-32.6,4.2-58.5,21.5-65.7,42.2-.4,1.1-.7,2.2-1,3.3-.6,2.3-.9,4.5-1,6.8,2.5-1.7,5.5-3.3,8.9-4.7,17-7.3,43.9-10.8,74.2-10.8s57.1,3.1,74.1,10.2c.5.2,1,.4,1.4.6,1.4.6,2.7,1.3,4,2,1.2.7,2.4,1.4,3.5,2.2,0,0,0,0,0,0Z"/>
      <path className="st10" d="M196.2,205.4c1.1-1,2.3-2,3.6-2.9.3-.2.6-.4.8-.6-1.6,1-3.1,2-4.6,3.2,0,0,.1.2.2.3Z"/>
    </g>
    <path className="st8" d="M355,211.9c2,.9,4.1-2.3,5.3-4.6,1.9-3.3,3.2-7.7,3-11.3-.1-1.6-.4-3.2-.8-4.7-1.5-4.9-5.1-8.8-9.2-11.8-1.1-.8-2.3-1.5-3.5-2.2-1.3-.7-2.6-1.3-4-2-.5-.2-1-.4-1.4-.6-17-7.1-43.9-10.2-74.1-10.2s-57.2,3.6-74.2,10.8c-3.4,1.4-6.3,3-8.9,4.7-.3.2-.6.4-.8.6-1.3.9-2.4,1.8-3.4,2.8-4,3.6-5.8,8.5-6.3,13.7-.6,6.9,4.6,17.4,8.1,15.6.6-.3,1.2-.7,1.8-1,.9-.5,1.7-1,2.6-1.6,1.5-.9,2.9-1.9,4.4-2.9.5-.4,1-.8,1.5-1.2.4-.3.8-.6,1.2-.9,1.5-1.1,3-2.2,4.6-3.2,2.7-1.6,5.4-2.9,8.3-4,1.4-.6,2.9-1,4.3-1.5,4.6-1.6,9.3-2.7,14-3.5,5.4-.9,10.9-1.4,16.4-1.7,5-.2,10.1-.2,15.1,0,.6,0,1.2,0,1.7,0,2,0,4,.2,6,.2,4-.1,7.9-.1,11.9,0,1.2,0,2.3,0,3.5,0,1.7,0,3.4.1,5.2.2,2.3,0,4.5.1,6.8.3,1.3,0,2.7.1,4,.2,3.6.2,7.2.6,10.8,1.1.5,0,.9.1,1.4.2,13.1,1.5,24.3,7.9,35.8,13.8,2.5,1.3,5.1,2.6,7.6,3.8.5.3,1.1.5,1.6.8ZM191.4,200.2c-1.1.9-2.2,1.8-3.3,2.8-1.1,1-2.2,2.1-3.2,3.3-5.8-6.2-5.8-17.8,1-23.6,1.1-1,2.3-2,3.7-3,6.8-4.7,17.9-8.5,32-11,13.7-2.5,30.5-3.8,48.5-3.8,33,0,58.7,3.7,73.8,10.6,1.3.6,2.4,1.2,3.6,1.8,6.5,2.7,11.7,9.6,11.9,16.5.1,3.4-1,6.9-3.8,9.8-.3.6-.9.9-1.5.9-13-6.9-25.2-15-40-16.1-4-.6-8-1-12-1.3-4-.3-8-.6-12-1-1.8-.1-3.6-.2-5.4-.3-5.4-.2-10.8-.3-16.1-.2-1.7,0-3.4-.1-5.2-.2-15.5-.5-30.8,0-45.8,3.2-1.5.3-3,.7-4.5,1.1-5.9,1.6-11.7,3.8-16.9,7.2-1.7,1.1-3.4,2.2-5,3.5Z"/>
    <path className="st17" d="M196.4,196.8c5.2-3.4,11-5.6,16.9-7.2,1.5-.4,3-.7,4.5-1.1,15-3.1,30.3-3.7,45.8-3.2,1.7,0,3.4.1,5.2.2,5.4,0,10.8,0,16.1.2,1.8,0,3.6.2,5.4.3,4,.3,8,.6,12,1,4,.3,8,.8,12,1.3,14.8,1,26.9,9.1,40,16.1.6,0,1.2-.3,1.5-.9,2.8-2.9,3.9-6.3,3.8-9.8-.2-6.9-5.3-13.8-11.9-16.5-1.1-.6-2.3-1.2-3.6-1.8-15.1-6.8-40.8-10.6-73.8-10.6s-34.8,1.3-48.5,3.8c-14.1,2.5-25.1,6.3-32,11-1.4,1-2.7,2-3.7,3-6.8,5.8-6.8,17.4-1,23.6,1-1.2,2.1-2.3,3.2-3.3,1.1-1,2.2-1.9,3.3-2.8,1.6-1.3,3.3-2.4,5-3.5Z"/>
    <path className="st17" d="M274.5,117.8c0-2.2-2.1-4-4.7-4,0-2.2-2.1-4-4.7-4s-4.7,1.8-4.7,4,.2,1.2.4,1.7c-.1,0-.3,0-.4,0-3.6,0-6.5,2.4-6.5,5.5s2.9,5.5,6.5,5.5,6.5-2.4,6.5-5.5,0,0,0,0c.8.6,1.9.9,3,.9,2.6,0,4.7-1.8,4.7-4Z"/>
    <polygon className="st5" points="349.2 387.4 401.3 387.4 401.5 385.1 349.2 385.1 349.2 387.4"/>
    <polygon className="st5" points="291.2 385.1 291.4 387.4 343.5 387.4 343.5 385.1 291.2 385.1"/>
    <g>
      <path className="st16" d="M349.2,388.3v68h44.9l2-19.2c-2.8-.1-5.4-1.7-6.6-4.4-.4-.9-.7-1.8-.7-2.9,0,0-6.9-4.6-6.2-11.4,0,0-4.9-6.8,1.4-12.4,0,0,3.9-2.9,9.1-3.7,2.1-.3,4.4-.3,6.7.3l1.6-15.2h-52.1v.9Z"/>
      <path className="st16" d="M292.6,399c1.4.6,4.2,1.6,7.1,3.3,5.6,3.2,11.6,8.8,8.4,17.5,0,0,0,0,0,0h0s0,0,0,0c0,0,0,0,0,.1,2.3,5.3-2.5,8.1-5.3,9.3-1,.4-1.7.6-1.7.6,0,0,0,0,0,0,0,0,0,.9-.4,2.2-.2,3.5-2,5.6-4,6.7l1.8,17.4h44.9v-68.9h-52.1l1.2,11.6Z"/>
      <path className="st16" d="M401.9,366.4h-28.1c-.8.4-1.8.7-2.7.9l-21.9,2.9v14.9h56.9v-18.7h-4.2Z"/>
      <polygon className="st16" points="324 366.4 322.9 366.4 322.9 366.4 290.8 366.4 286.6 366.4 286.6 375.3 286.6 375.3 286.6 384.1 286.6 385.1 291.2 385.1 343.5 385.1 343.5 378 343.5 370.3 329.3 366.4 324 366.4"/>
    </g>
    <path className="st9" d="M349.2,388.3v-18.1l-1.8.2c-.3,0-.7,0-1,0,0,0,0,0,0,0-.3,0-.6,0-.9,0-.1,0-.3,0-.4,0-.2,0-.4,0-.6,0-.3,0-.6,0-1-.1h0s0,7.7,0,7.7v78.3h5.7v-68Z"/>
    <path className="st9" d="M342.2,367.8l-4.9-17.4-3.3-4.6c-1.5-2.1-3.8-3.3-6.4-3.5-2.6-.1-5,.9-6.6,2.9l-4.6,5.5c-1.8,2.2-2.4,5.1-1.6,7.8.8,2.7,3,4.8,5.7,5.5l4.9,1.3h0s3.9,1.1,3.9,1.1l14.2,3.9h0c.3,0,.6.1,1,.1s.4,0,.6,0c-1.4-.2-2.5-1.2-2.9-2.6ZM334.9,360.4l-12.5-3.4c-.4-.1-.6-.4-.7-.6,0-.2,0-.6.2-.9l4.6-5.5c.2-.3.5-.3.7-.3s0,0,0,0c.2,0,.5,0,.7.4l7.2,10.2h0s.3.4.3.4l-.6-.2h0Z"/>
    <path className="st9" d="M349,368.3c-.1.3-.3.6-.5.8-.5.7-1.3,1.1-2.2,1.3,0,0,0,0,0,0,.3,0,.6,0,1,0l1.8-.2,21.9-2.9c1-.1,1.9-.4,2.7-.9,1.6-.8,2.9-2.1,3.7-3.8,1.2-2.6,1-5.5-.5-7.9l-3.8-6c-1.4-2.2-3.6-3.5-6.2-3.8-2.5-.2-5,.7-6.8,2.6l-3.8,4-7.3,16.8ZM365.4,352.4c.3-.3.6-.3.8-.3,0,0,0,0,0,0,.2,0,.5.1.7.4l3.8,6c.2.4.2.7,0,.9,0,.2-.3.5-.7.5l-13.5,1.8,8.9-9.4Z"/>
    <path className="st9" d="M357.8,338.5c-1.6-2.3-4.2-3.7-7-3.6l-7.2.2c-2.6,0-4.9,1.3-6.4,3.3-1.5,2.1-2,4.7-1.3,7.1l1.4,4.9,4.9,17.4c.4,1.4,1.5,2.3,2.9,2.6.1,0,.3,0,.4,0,.3,0,.6,0,.9,0,.9-.2,1.6-.6,2.2-1.3.2-.3.4-.5.5-.8l7.3-16.8,2.2-5.1c.6-1.5.8-3.1.6-4.6,0,0,0,0,0,0-.2-1.1-.6-2.2-1.3-3.2ZM343.1,342.7s0,0,0,0c.1-.2.4-.3.7-.3l7.2-.2c.4,0,.7.2.8.4.1.2.3.5,0,.9l-3.4,7.8h0s-2,4.7-2,4.7l-.7-2.6h0s-2.8-9.9-2.8-9.9c-.1-.4,0-.6.1-.8Z"/>
    <path className="st4" d="M300.9,429.4c.7-8.6-10.6-7.5-10.6-7.5,8.3,1.8,10.6,7.5,10.6,7.5Z"/>
    <path className="st4" d="M307.8,419.6c.7-8.6-10.6-7.5-10.6-7.5,8.3,1.8,10.6,7.5,10.6,7.5Z"/>
    <path className="st4" d="M308.1,419.9s0,0,0-.1c0,0,0,0,0,0h0s.6,4.9-5.7,9.2c0,0,0,0,0,0-.4.3-.8.6-1.3.8,0,0,0,0,0,0,0,0,.7-.2,1.7-.6,2.8-1.2,7.7-4,5.3-9.3Z"/>
    <path className="st4" d="M290.4,440.4s0,0,0,0c0,0,3.5.1,6.4-1.6,2-1.2,3.8-3.2,4-6.7,0-.3,0-.7,0-1,0,0-3.2,8.6-10.4,9.3Z"/>
    <path className="st2" d="M275.1,404.7s-2.4,12.3,5.6,5.1c4.1-3.7,6.8-8,8.5-12.3-2.9-1.3-7.4-3.2-11.3-4.9-.5,4.1-1.4,8.2-2.8,12.1Z"/>
    <path className="st2" d="M244.9,377.9c-.4,5-1.4,10.2-3.1,15,0,0-2.4,12.3,5.6,5.1,4.9-4.4,7.8-9.7,9.4-14.9l-11.7-5.3c0,0-.1,0-.2,0Z"/>
    <path className="st2" d="M249.4,409.5c-5.5,4.4-8.7,9.9-10.5,15.3l5.9,2.3c2.1.7,4.2,1.3,6.1,1.8.7-4.7,1.9-9.6,3.8-14,0,0,3.1-12.2-5.3-5.4Z"/>
    <g>
      <path className="st13" d="M345.7,353.4c1-.7,1.9-1.4,2.8-2.1h0c-.9.7-1.8,1.4-2.8,2.1h0Z"/>
      <path className="st13" d="M334.9,360.4h0c.1,0,.2-.1.3-.2h0c-.1,0-.2.1-.3.2Z"/>
      <path className="st13" d="M378.1,252.9c-3.1-5.6-6.8-11.6-10.8-17.7-6.4-9.6-13.8-19.4-21.5-27.8-11.5-6-22.7-12.3-35.8-13.8.2,7.7-.6,16.8-4,24.4,0,0-4.4,9.8-9.9,7.1-5.4-2.7,2.1-6.5-2.2-33-2.3-.1-4.5-.2-6.8-.3-1.7,0-3.5-.2-5.2-.2-1.2,0-2.3,0-3.5,0,.4,16,0,38.7-5.7,48-1.6,2.6-5.3,2.6-7,0-6-9.2-7-32.2-6.9-48.3-5-.2-10.1-.2-15.1,0,0,.4-.1.8-.2,1.2-4,27.7,3.9,31.3-1.5,34.2-5.4,2.9-10.1-6.8-10.1-6.8-4-8.3-4.8-18.7-4.6-26.8-4.7.8-9.4,2-14,3.5-1.5.5-2.9,1-4.3,1.5-2.9,1.1-5.7,2.5-8.3,4-.3.2-.6.4-.8.6-1.2.9-2.4,1.8-3.6,2.9,0,0-.1-.2-.2-.3-.4.3-.8.6-1.2.9-5.4,6-10.7,12.7-15.7,19.6-2.7,3.8-5.3,7.6-7.7,11.4,0,0,0,0,0,0-4,6.3-7.6,12.6-10.7,18.5-6,11.5-6.9,26.4-4.3,40.7,0,0,0,0,0,0,2.6,3.8,6.2,8.7,10.5,13.8-.7-1.1-1.3-2.2-1.9-3.4-.4-.8-.7-1.5-1.1-2.3-.3-.8-.6-1.6-.9-2.4-.6-1.6-1-3.2-1.4-4.8-.8-3.3-1.2-6.6-1.3-9.9,0-1.7,0-3.3.2-4.9,0-.8.2-1.6.3-2.5,0-.4.1-.8.2-1.2,0-.2,0-.4.1-.6l.2-.6c.2-.9,1.1-1.5,2-1.3.7.2,1.3.8,1.3,1.5v.2s0,1.1,0,1.1c0,.4,0,.7,0,1.1,0,.8.1,1.5.2,2.2.2,1.5.4,3,.7,4.4.6,2.9,1.3,5.8,2.3,8.6.5,1.4,1,2.7,1.6,4.1.3.7.6,1.3.9,2,.3.6.7,1.3,1,1.9,1.4,2.5,3,4.9,4.9,7.1,3.7,4.4,8.2,8.1,13.3,11,2.5,1.5,5.2,2.8,8,4.1,1.4.6,2.8,1.2,4.2,1.8l2.2.8c.7.3,1.4.5,2.2.8h0c.9.4,1.3,1.4.9,2.2-.3.7-1,1.1-1.7,1.1-.8,0-1.6-.1-2.4-.2-.8-.1-1.6-.2-2.4-.3-.4,0-.8-.1-1.2-.2-.4,0-.8-.1-1.2-.2l-1.2-.3h-.6c0-.1-.6-.3-.6-.3l-1.2-.3c-.4,0-.8-.2-1.2-.3-.4-.1-.8-.2-1.2-.4l-1.2-.4-.6-.2c-.2,0-.4-.1-.6-.2l-1.2-.4c-.8-.3-1.5-.6-2.3-1-1.9-.9-3.7-1.9-5.5-3,8,6.7,17.1,11.9,26.3,12.6,8.6.6,21.2-1.8,32.4-11.5,5.8-5,14.1-7.5,20.7-8.7-.7-.2-1.5-.5-2.2-.7-1.1-.3-2-.6-2-.6,0,0-2.8-.8-1.5-2.9,1.4-2,5.2-4,7.1-4.1,1.9,0,8.2,2.2,8.2,2.2,0,0,6.3-2.5,8.2-2.4,1.9,0,5.8,1.9,7.2,3.9,1.4,2-1.4,2.9-1.4,2.9,0,0-.9.2-2,.6-.7.2-1.5.5-2.2.7,6.6,1,15,3.3,20.9,8.2,11.4,9.4,24.1,11.5,32.6,10.6,21.7-2.2,41.4-28.7,50-42-2.4,15.1-8.6,29.7-16.9,39.6,0,0-2.4,3.6-7.4,8.7,0,0,0,0,0,0,5-5.1,7.4-8.7,7.4-8.7,8.3-9.9,14.5-24.5,16.9-39.6,2.3-14.4,1-29.2-5.3-40.6ZM209.8,318.7c-.3.5-.9.8-1.5.8-.6,0-1.2,0-1.9,0-.6,0-1.2-.1-1.8-.2-.6,0-1.2-.2-1.8-.3-.6-.1-1.2-.2-1.8-.4-2.4-.6-4.8-1.4-7.2-2.4-.3-.1-.6-.3-.9-.4-.3-.1-.6-.3-.9-.4-.6-.3-1.1-.6-1.7-.9-1.1-.7-2.2-1.4-3.2-2.2-1-.8-2-1.7-3-2.6l-.7-.7c-.2-.2-.5-.5-.7-.7-.2-.2-.4-.5-.7-.8-.2-.3-.4-.5-.6-.8-1.7-2.1-3.1-4.4-4.1-6.8-1.1-2.4-1.8-5-2.2-7.6-.4-2.6-.5-5.2-.2-7.8,0-.6.1-1.3.3-1.9.1-.6.2-1.3.4-1.9.1-.6.3-1.2.5-1.8.1-.3.2-.6.3-.9,0-.2.1-.3.2-.5l.2-.5c.4-.8,1.3-1.2,2.2-.9.4.2.8.6.9,1l.2.6s0,.1,0,.2v.2s0,.4,0,.4c0,.3,0,.6,0,.8,0,.6.1,1.1.2,1.7.1,1.1.3,2.2.5,3.2.4,2.1,1,4.2,1.6,6.2,1.4,3.9,3.3,7.5,5.9,10.6,2.5,3.1,5.7,5.8,9.2,8.3,1.8,1.2,3.6,2.4,5.6,3.5.5.3,1,.6,1.5.8.5.3,1,.5,1.5.8l.8.4.8.4c.5.3,1,.6,1.5.9h0c.8.5,1.1,1.6.6,2.4ZM243.4,297.6s0,0-.3-.2c-2.3-1.5-20.2-12.1-35.2-5.7-2.2.9-6.3,2.8-6.9,6.5,0,.5-.1,1.1,0,1.7,0,0-.4-1.2-.6-2.9,0,.8,0,1.5,0,2,0,.3.1.6.2.8,0,0,0-.3-.2-.8-.5-2.2-1.6-5.1-1.6-5.1-8.7-6.4-15.3-18-15.3-18,2.2,1.7,11,6.9,15,9.1.7-7.3,4.7-13.8,11.7-16.2,22.5-7.7,35.2,10.3,33.1,26.8,0,.4,0,.8-.1,1.2,0,.2.1.4.2.6ZM294.1,297.4c-.2.1-.3.2-.3.2,0-.2.1-.4.2-.6,0-.4-.1-.8-.1-1.2-2.1-16.6,10.5-34.6,33.1-26.8,6.9,2.4,11,8.9,11.7,16.2,3.9-2.3,12.7-7.4,15-9.1,0,0-6.5,11.5-15.3,18,0,0-1.1,2.9-1.6,5.1,0,.5-.2.8-.2.8,0-.3.1-.5.2-.8,0-.5.1-1.2,0-2-.2,1.7-.6,2.9-.6,2.9,0-.6,0-1.2,0-1.7-.6-3.7-4.7-5.6-6.9-6.5-15-6.4-32.9,4.2-35.2,5.7ZM329.3,317.2c-.5-.8-.3-1.9.5-2.4h0c.5-.4,1-.7,1.5-.9l.7-.4.7-.4c.5-.3,1-.6,1.5-.9.5-.3,1-.6,1.4-.9,1.9-1.2,3.7-2.4,5.5-3.6,3.5-2.5,6.5-5.3,9-8.5,2.5-3.2,4.3-6.8,5.6-10.7.6-2,1.1-4.1,1.5-6.2.2-1.1.3-2.2.4-3.3,0-.5.1-1.1.1-1.7,0-.3,0-.6,0-.8v-.4s0-.2,0-.2c0,0,0-.1,0-.2l.2-.6c.1-.4.4-.8.9-1,.8-.4,1.8,0,2.2.8l.2.5c0,.2.1.3.2.5.1.3.2.6.4.9.2.6.4,1.2.6,1.8.2.6.3,1.2.4,1.9.1.6.2,1.3.3,1.9.3,2.5.3,5.2,0,7.8-.3,2.6-1,5.2-2,7.7-1,2.5-2.4,4.8-4,6.9-.2.3-.4.5-.6.8-.2.3-.4.5-.6.8-.2.2-.4.5-.7.7l-.7.7c-.9.9-1.9,1.8-2.9,2.7-1,.8-2.1,1.6-3.2,2.3-.5.4-1.1.7-1.7,1-.3.2-.6.3-.9.5-.3.1-.6.3-.9.4-2.3,1.1-4.7,2-7.1,2.6-.6.2-1.2.3-1.8.4-.6.1-1.2.2-1.8.3-.6,0-1.2.2-1.8.2-.6,0-1.2,0-1.9.1-.6,0-1.2-.3-1.5-.8ZM377,294.5c-.4,1.6-.8,3.3-1.3,4.9-.3.8-.6,1.6-.9,2.4-.3.8-.7,1.6-1,2.3-1.4,3.1-3.2,6-5.3,8.7-2.1,2.7-4.5,5.1-7.2,7.2-2.7,2.1-5.5,3.9-8.5,5.4-.7.4-1.5.7-2.3,1l-1.1.5c-.2,0-.4.2-.6.2l-.6.2-1.2.4c-.4.1-.8.3-1.2.4-.4.1-.8.3-1.2.4l-1.2.3-.6.2h-.6c0,.1-1.2.4-1.2.4-.4,0-.8.2-1.2.3-.4,0-.8.2-1.2.2-.8.1-1.6.3-2.4.4-.8,0-1.6.2-2.4.3-.7,0-1.4-.3-1.7-1-.4-.9,0-1.9.9-2.2h0c.7-.3,1.4-.6,2.2-.9l2.1-.9c1.4-.6,2.8-1.2,4.2-1.9,2.7-1.3,5.4-2.7,7.9-4.3,5-3.1,9.4-6.9,13-11.4,1.8-2.2,3.3-4.6,4.7-7.2.3-.6.7-1.3,1-1.9.3-.7.6-1.3.9-2,.5-1.3,1.1-2.7,1.5-4.1.9-2.8,1.6-5.7,2.1-8.6.2-1.5.4-3,.6-4.5,0-.7.1-1.5.2-2.3,0-.4,0-.8,0-1.1v-1.1s0-.2,0-.2c0-.7.5-1.4,1.3-1.6.9-.2,1.8.3,2.1,1.2l.2.6c0,.2,0,.4.1.6,0,.4.2.8.2,1.2.1.8.3,1.6.4,2.4.2,1.6.3,3.3.3,4.9,0,3.3-.3,6.6-1,9.9Z"/>
      <path className="st13" d="M325.3,365.3c-.8.4-1.6.7-2.5,1.1h1.1v-.4c.4-.2.9-.4,1.3-.6h0Z"/>
      <path className="st13" d="M270.9,375.5c-3,.2-6,.3-8.9.3,2.9,0,5.9,0,8.9-.3h0Z"/>
      <path className="st13" d="M286.6,375.3c-3.1.3-6.4.4-9.7.4,3.3,0,6.6-.2,9.7-.4h0Z"/>
      <path className="st13" d="M299.7,402.3c-2.9-1.7-5.7-2.7-7.1-3.3-.2,0-.4-.2-.5-.2-.5-.2-1.5-.7-2.9-1.3-1.7,4.3-4.4,8.6-8.5,12.3-8,7.2-5.6-5.1-5.6-5.1,1.4-3.9,2.3-8,2.8-12.1-4.4-1.9-8.2-3.5-8.2-3.5l-8.5-3.8-4.5-2.1c-1.6,5.2-4.4,10.4-9.4,14.9-8,7.2-5.6-5.1-5.6-5.1,1.7-4.8,2.7-10,3.1-15,0,0,.1,0,.2,0l-1.7-.8c-3.6-1.4-19.6-7.5-23.2-7.1-.4,0-.9.1-1.3.2-2.4-2.1-3.8-3.7-4.3-4.3,0,0-.2,0-.3-.1l-1.3,6.4c-4,1.9-7.5,5-9.9,9.1-5.2,8.9-3.7,19.6,2.5,26.7l-5.4,26.2-3.1,15.3c-.9,2.2-1.6,4.4-2.1,6.7h27.8c-1.9-4-3-8.4-3.1-12.9,0-3.6.6-7.1,1.8-10.5l2.4-14.6,14.9,6.4c1.8-5.4,5-10.9,10.5-15.3,8.4-6.7,5.3,5.4,5.3,5.4-1.9,4.4-3.1,9.2-3.8,14,15.3,3.8,24.6,1.3,24.6,1.3,6.7,10.1,12.8,10.3,12.8,10.3.7,0,1.4,0,2.1,0,7.2-.8,10.4-9.3,10.4-9.3,0,.4,0,.7,0,1,.3-1.3.4-2.2.4-2.2,0,0,0,0,0,0,0,0,0,0,0,0,.5-.3.9-.6,1.3-.8,0,0,0,0,0,0,6.2-4.3,5.7-9.2,5.7-9.2,0,0,0,0,0,0,3.2-8.8-2.8-14.3-8.4-17.5ZM300.9,429.4s-2.2-5.7-10.6-7.5c0,0,11.3-1.2,10.6,7.5ZM307.8,419.6s-2.2-5.7-10.6-7.5c0,0,11.3-1.2,10.6,7.5Z"/>
      <path className="st13" d="M409.4,409.6c-3.1-4.1-6.5-6.2-9.7-7-2.4-.6-4.6-.7-6.7-.3-5.2.8-9.1,3.7-9.1,3.7-6.2,5.7-1.4,12.4-1.4,12.4-.7,6.8,6.2,11.4,6.2,11.4,0,1.1.3,2.1.7,2.9,1.2,2.7,3.8,4.3,6.6,4.4,1.4,0,2.9-.2,4.3-1,4.9-2.6,20.1-12,9-26.5ZM382.6,417.8c1.8-6.8,9.8-5.6,9.8-5.6-6.6,1.2-9.8,5.6-9.8,5.6ZM389.4,430.2s5.4.3,10.5-4.1c0,0-4.1,7-10.5,4.1Z"/>
    </g>
    <path className="st4" d="M389.4,430.2c6.4,2.9,10.5-4.1,10.5-4.1-5.1,4.4-10.5,4.1-10.5,4.1Z"/>
    <path className="st4" d="M392.3,412.2s-8-1.2-9.8,5.6c0,0,3.1-4.4,9.8-5.6Z"/>
  </g>
  <g id="number">
    <path className="st12" d="M146.3,85.8c-6.8,14.1-14.6,38.3-17.7,38.3s-8.6-6.1-8.6-9.1,13.8-30.4,15.2-33.4l-.5-.2c-2.5,3.4-7.3,7.5-9.2,7.5s-2-.3-2-.7,6.8-6.5,13.3-16.8c6.2-9.9,11.3-20.8,14.4-20.8s9.5,2.6,9.5,4.5c0,4.2-7.6,16.8-14.5,30.7Z"/>
    <path className="st12" d="M196.8,64.6c-8.7,0-15-3.2-15.5-3.2s-9.7,16.8-11.5,19.4l.4.3c3.5-2.4,7.6-4.3,13.3-4.3,9.7,0,15.5,6.4,15.5,15.7,0,14.9-17.7,31.6-33.5,31.6s-18.5-6.4-18.5-15,7.8-14.5,14.1-14.5,7.4,3.1,7.4,6.5-3.9,9-9.5,9-4.1-1.4-4.5-1.4-.4.5-.4,1c0,3.6,3.7,6.1,7.5,6.1,9.9,0,21.8-17.3,21.8-26.2s-1.5-5.3-5-5.3c-10.3,0-16.7,8.6-17.3,8.6s-4.3-2.7-4.3-3.7,4-7.3,10-17.4c5.9-10.1,11.8-22,13-22s10.4,3.3,24.2,3.3,9.6-2.1,9.8-2.1.7,0,.7.6c0,2.7-6.2,13.1-17.8,13.1Z"/>
  </g>
</svg>