<?xml version="1.0" encoding="UTF-8"?>
<svg id="Layer_3" xmlns="http://www.w3.org/2000/svg" version="1.1" viewBox="0 0 500 500">
  <!-- Generator: Adobe Illustrator 29.0.1, SVG Export Plug-In . SVG Version: 2.1.0 Build 192)  -->
  <defs>
    <style>
      .st0 {
        fill: #c42126;
      }

      .st1 {
        fill: #d32d27;
      }

      .st2 {
        fill: #571e0d;
      }

      .st3 {
        fill: #eaeaea;
      }

      .st4 {
        fill: #bf744c;
      }

      .st5 {
        fill: #ab5f34;
      }

      .st6 {
        fill: #ba6f43;
      }

      .st7 {
        fill: #15783d;
      }

      .st8 {
        fill: #066634;
      }

      .st9 {
        fill: #fff;
      }

      .st10 {
        fill: #d7d7d7;
      }

      .st11 {
        fill: #00a69f;
      }

      .st12 {
        fill: #e84225;
      }

      .st13 {
        fill: #f7b0c2;
      }

      .st14 {
        fill: #31120d;
      }

      .st15 {
        fill: #b42025;
      }
    </style>
  </defs>
  <g id="color">
    <path class="st11" d="M393.1,451.4H106.9V179.2c0-89.6,64-162.3,143.1-162.3h0c79,0,143.1,72.7,143.1,162.3v272.2Z"/>
  </g>
  <g id="character">
    <g>
      <g>
        <path class="st5" d="M207.9,268.7c-10.1,5.3-17.7,23.8-10.3,38,8.2,15.7,16.2,17.7,34.5,8.2,13.1-6.8,20.3-18.8,12.9-33-7.4-14.1-26.9-18.5-37.1-13.2Z"/>
        <path class="st6" d="M207.6,268.9c-9.4,4.9-16.5,22.2-9.6,35.3,6.9,13.1,19.9,14,32.1,7.6,12.2-6.4,18.9-17.5,12-30.7-6.9-13.1-25.1-17.2-34.5-12.3Z"/>
        <path class="st4" d="M207.5,270.2c-8.6,4.5-15.1,20.3-8.8,32.4,6.3,12,18.2,12.8,29.4,7,11.2-5.8,17.3-16.1,11-28.1-6.3-12-23-15.8-31.6-11.2Z"/>
      </g>
      <g>
        <path class="st6" d="M386.6,268.9c9.4,4.9,16.5,22.2,9.6,35.3-6.9,13.1-19.9,14-32.1,7.6-12.2-6.4-18.9-17.5-12-30.7,6.9-13.1,25.1-17.2,34.5-12.3Z"/>
        <path class="st4" d="M386.7,270.2c8.6,4.5,15.1,20.3,8.8,32.4-6.3,12-18.2,12.8-29.4,7-11.2-5.8-17.3-16.1-11-28.1,6.3-12,23-15.8,31.6-11.2Z"/>
      </g>
    </g>
    <g>
      <path class="st5" d="M297.1,273.2c-45.3,0-106.1,47.5-106.1,106.1s47.5,85.4,106.1,85.4,106.1-26.8,106.1-85.4-60.8-106.1-106.1-106.1Z"/>
      <path class="st6" d="M295.4,273.2c-42.1,0-98.7,44.2-98.7,98.7s44.2,79.4,98.7,79.4,98.7-24.9,98.7-79.4-56.6-98.7-98.7-98.7Z"/>
      <path class="st4" d="M292.8,277.5c-38.6,0-90.5,40.5-90.5,90.5s40.5,72.8,90.5,72.8,90.5-22.9,90.5-72.8-51.9-90.5-90.5-90.5Z"/>
    </g>
    <g>
      <path class="st14" d="M274.9,358.5c0,4.8-4,8.7-8.9,8.7-4.9,0-8.7-4-8.7-8.8,0-4.8,4-8.7,8.9-8.7,4.9,0,8.7,4,8.7,8.8Z"/>
      <path class="st9" d="M271.8,355.7c0,1.5-1.3,2.8-2.8,2.8-1.5,0-2.8-1.3-2.8-2.8,0-1.5,1.3-2.8,2.8-2.8,1.5,0,2.8,1.3,2.8,2.8Z"/>
      <path class="st14" d="M336.8,359.1c0,4.8-4,8.7-8.9,8.7-4.9,0-8.7-4-8.7-8.8,0-4.8,4-8.7,8.9-8.7,4.9,0,8.7,4,8.7,8.8Z"/>
      <path class="st9" d="M333.6,356.2c0,1.5-1.3,2.8-2.8,2.8-1.5,0-2.8-1.3-2.8-2.8,0-1.5,1.3-2.8,2.8-2.8,1.5,0,2.8,1.3,2.8,2.8Z"/>
    </g>
    <ellipse class="st10" cx="297.1" cy="392.2" rx="39.4" ry="31.6"/>
    <ellipse class="st3" cx="297.1" cy="389.7" rx="34.3" ry="27.5"/>
    <path class="st14" d="M297.3,408.7c-1.5,0-2.9-.2-4.1-.5-4.4-1.1-7.3-3.4-7.8-3.9-.6-.6-.3-1.2,0-1.5.2-.3.8-.6,1.7,0,.2.1.3.3.4.4.9.7,3.2,2.2,6.4,3,4.9,1.2,9.6.1,13.8-3.2.5-.4,1.1-.3,1.5.2.4.5.3,1.1-.2,1.5-4.1,3.2-8.1,4.1-11.5,4.1Z"/>
    <g>
      <path class="st13" d="M257.4,371.8c0,3.1-3.8,5.6-8.4,5.5s-8.3-2.6-8.3-5.7c0-3.1,3.8-5.6,8.4-5.5,4.6,0,8.3,2.6,8.3,5.7Z"/>
      <path class="st13" d="M353.5,372.7c0,3.1-3.8,5.6-8.4,5.5-4.6,0-8.3-2.6-8.3-5.7,0-3.1,3.8-5.6,8.4-5.5,4.6,0,8.3,2.6,8.3,5.7Z"/>
    </g>
    <ellipse class="st2" cx="297.1" cy="372.1" rx="17.2" ry="9.9"/>
    <g>
      <g>
        <path class="st8" d="M338.4,289.5s.8-7.2-2.8-9.7c0,0,6-3.2,1.5-10.7,0,0,6.4.7,9.5-9.4,0,0,8.9,2.7,13.7-3.1,0,0-1.2,8.7,4.5,12.5,0,0-7.5,7.5-3.3,12.9,0,0-8.6.9-10.9,7.3,0,0-7.4-3.8-12.1.2Z"/>
        <path class="st7" d="M339.2,287c.6-1.2,1.3-2.4,1.9-3.6.7-1.2,1.3-2.3,2-3.5.7-1.2,1.4-2.3,2.1-3.4.7-1.1,1.4-2.3,2.2-3.4.7-1.1,1.5-2.2,2.3-3.3.8-1.1,1.6-2.2,2.4-3.2.8-1,1.7-2.1,2.6-3,.9-1,1.9-1.9,3-2.7-1,.9-2,1.8-2.8,2.8-.9,1-1.7,2.1-2.5,3.1-.8,1.1-1.6,2.2-2.3,3.3-.7,1.1-1.4,2.2-2.1,3.4-.7,1.1-1.4,2.3-2,3.5-.7,1.2-1.3,2.3-1.9,3.5-.6,1.2-1.2,2.4-1.8,3.6-.6,1.2-1.2,2.4-1.7,3.6h0c-.2.3-.6.5-.9.3-.3-.2-.5-.6-.3-.9,0,0,0,0,0,0Z"/>
        <path class="st7" d="M349,270.9c.2,0,.4-.1.6-.2.2,0,.4-.1.6-.2.2,0,.4,0,.6-.1h.6c.8-.3,1.7-.4,2.6-.5.9-.1,1.7-.2,2.6-.2h.6c.2,0,.4,0,.6,0h.3c.1,0,.2,0,.3,0h.6s-.6,0-.6,0c-.1,0-.2,0-.3,0h-.3c-.2,0-.4,0-.6,0h-.6c-.8.2-1.7.3-2.5.5-.8.2-1.7.4-2.5.6l-.6.2c-.2,0-.4.1-.6.2-.2,0-.4.1-.6.2-.2,0-.4.1-.6.2h0c-.2,0-.4,0-.5-.2,0-.2,0-.4.2-.5,0,0,0,0,0,0Z"/>
        <path class="st7" d="M347.5,264.6c.3.5.5.9.7,1.4.2.5.4.9.6,1.4,0,.1,0,.2.1.4,0,.1,0,.2.1.4,0,.1,0,.2.1.4v.4c.3.5.4,1,.4,1.6,0,.2-.1.4-.4.4-.2,0-.4-.1-.4-.4,0,0,0,0,0,0h0c0-.5,0-1-.1-1.5v-.4c0-.1-.1-.2-.1-.4,0-.1,0-.2,0-.4,0-.1,0-.2,0-.4-.1-.5-.3-1-.5-1.5-.2-.5-.3-1-.5-1.5Z"/>
        <path class="st7" d="M342.3,271.8c.4.5.7,1,1,1.5.3.5.6,1.1.8,1.6.1.3.2.6.3.9,0,.3.2.6.2.9,0,.3.1.6.2.9,0,.3,0,.6,0,1,0,.2-.2.4-.4.4s-.4-.2-.4-.4c0,0,0,0,0,0h0c0-.3,0-.6,0-.9,0-.3,0-.6,0-.9,0-.3,0-.6-.1-.9,0-.3-.1-.6-.2-.9-.2-.6-.4-1.1-.6-1.7-.2-.6-.5-1.1-.8-1.6Z"/>
        <path class="st7" d="M355.8,278.9c-1.1,0-2.1-.1-3.2-.1-1.1,0-2.1,0-3.2.2-.5,0-1,.1-1.6.2-.5,0-1,.2-1.5.3-.5.1-1,.3-1.5.5-.5.2-.9.5-1.3.8-.2.1-.4.1-.6,0-.1-.2-.1-.4,0-.6,0,0,0,0,0,0,.5-.3,1-.6,1.5-.8.5-.2,1-.3,1.6-.5.5-.1,1.1-.2,1.6-.3.5,0,1.1,0,1.6-.1,1.1,0,2.1,0,3.2,0,1.1,0,2.1.2,3.2.3Z"/>
      </g>
      <g>
        <path class="st8" d="M334.7,293.9s-4.2-5.9-2.2-9.8c0,0-6.8.1-6.5-8.6,0,0-5.3,3.7-12.9-3.7,0,0-6.5,6.7-13.5,3.9,0,0,5.3,7,2.1,13.1,0,0,10.3,2.9,9.2,9.6,0,0,7.9-3.4,13.1,1.2,0,0,4.6-7,10.7-5.7Z"/>
        <path class="st7" d="M332.9,292c-1.1-.8-2.3-1.5-3.4-2.2-1.1-.7-2.3-1.4-3.4-2.1-1.2-.7-2.3-1.4-3.5-2-1.2-.7-2.4-1.3-3.5-1.9-1.2-.6-2.4-1.2-3.6-1.8-1.2-.6-2.4-1.1-3.7-1.6-1.2-.5-2.5-1-3.8-1.4-1.3-.4-2.6-.7-3.9-1,1.3.3,2.6.7,3.8,1.1,1.3.5,2.5,1,3.7,1.5,1.2.6,2.4,1.1,3.6,1.8,1.2.6,2.4,1.3,3.5,1.9,1.2.7,2.3,1.3,3.4,2,1.1.7,2.3,1.4,3.4,2.1,1.1.7,2.2,1.5,3.3,2.2,1.1.8,2.2,1.5,3.3,2.3h0c.3.2.7.2.9-.1.2-.3.2-.7-.1-.9,0,0,0,0,0,0Z"/>
        <path class="st7" d="M316.5,282.7c-.2,0-.4.1-.6.2-.2,0-.4.1-.6.2-.2,0-.4.1-.6.2l-.6.2c-.8.3-1.6.6-2.4.9-.8.3-1.6.7-2.4,1.1l-.6.3c-.2.1-.4.2-.6.3l-.3.2c0,0-.2.1-.3.2l-.5.3.6-.3c0,0,.2,0,.3-.1h.3c.2-.2.4-.3.6-.4l.6-.2c.8-.3,1.6-.6,2.4-.9.8-.3,1.6-.5,2.5-.7h.6c.2-.2.4-.2.6-.3.2,0,.4,0,.6-.1.2,0,.4,0,.6-.1h0c.2,0,.4-.2.3-.5s-.2-.4-.4-.3c0,0,0,0,0,0Z"/>
        <path class="st7" d="M314.7,276.4c0,.5,0,1,0,1.6,0,.5,0,1,.1,1.6,0,.1,0,.3,0,.4,0,.1,0,.3,0,.4,0,.1,0,.3,0,.4v.4c.2.5.3,1,.6,1.5,0,.2.3.3.5.2s.3-.3.2-.5c0,0,0,0,0,0h0c-.2-.4-.4-.9-.6-1.4v-.4c-.2-.1-.2-.2-.2-.4,0-.1,0-.2-.1-.4,0-.1,0-.2,0-.4-.1-.5-.2-1-.3-1.5,0-.5-.2-1-.2-1.5Z"/>
        <path class="st7" d="M322.8,280.2c0,.6-.1,1.2-.1,1.8,0,.6,0,1.2,0,1.8,0,.3,0,.6.1.9,0,.3.1.6.2.9,0,.3.2.6.3.9.1.3.3.6.4.9.1.2.4.2.5.1.2-.1.2-.4.1-.5,0,0,0,0,0,0h0c-.2-.2-.3-.5-.5-.7-.1-.3-.3-.5-.4-.8-.1-.3-.2-.5-.3-.8,0-.3-.2-.6-.2-.9-.1-.6-.2-1.2-.3-1.8,0-.6,0-1.2,0-1.8Z"/>
        <path class="st7" d="M314.3,293c.9-.6,1.8-1.1,2.7-1.6.9-.5,1.9-1,2.9-1.4.5-.2,1-.4,1.5-.6.5-.2,1-.3,1.5-.4.5-.1,1-.2,1.5-.2.5,0,1,0,1.5,0,.2,0,.4-.1.5-.3,0-.2-.1-.4-.3-.5,0,0,0,0,0,0-.6,0-1.1,0-1.7,0-.5,0-1.1.2-1.6.4-.5.2-1,.3-1.5.6-.5.2-1,.4-1.5.7-1,.5-1.9,1-2.8,1.6-.9.6-1.8,1.2-2.6,1.8Z"/>
      </g>
      <g>
        <path class="st8" d="M336.5,294.8s7.2-.8,8.9-4.8c0,0,4.4,5.2,10.8-.8,0,0,.7,6.4,11.2,7.3,0,0-.7,9.3,6,12.7,0,0-8.8.6-11.3,7,0,0-9-5.8-13.3-.6,0,0-2.7-8.2-9.5-9.1,0,0,2.2-8.1-2.8-11.8Z"/>
        <path class="st7" d="M339.1,295c1.3.4,2.6.7,3.9,1.1,1.3.4,2.6.8,3.8,1.2,1.3.4,2.5.9,3.8,1.3,1.3.5,2.5.9,3.8,1.4,1.2.5,2.5,1,3.7,1.5,1.2.5,2.4,1.1,3.6,1.7,1.2.6,2.4,1.2,3.5,1.9,1.1.7,2.3,1.5,3.3,2.3-1.1-.8-2.2-1.5-3.4-2.2-1.2-.6-2.4-1.2-3.6-1.8-1.2-.5-2.5-1.1-3.7-1.5-1.2-.5-2.5-.9-3.8-1.4-1.3-.4-2.5-.8-3.8-1.2-1.3-.4-2.6-.8-3.8-1.1-1.3-.4-2.6-.7-3.9-1-1.3-.3-2.6-.7-3.9-.9h0c-.4,0-.6-.4-.5-.8,0-.4.4-.6.8-.5,0,0,0,0,0,0Z"/>
        <path class="st7" d="M356.9,301.2c.1.2.2.4.3.6,0,.2.2.4.3.6,0,.2.2.4.3.6l.3.6c.3.8.7,1.6.9,2.4.3.8.5,1.6.8,2.5l.2.6c0,.2,0,.4.1.6v.3c0,.1.1.2.1.3v.6c.1,0,0-.6,0-.6,0-.1,0-.2,0-.3v-.3c-.1-.2-.2-.4-.3-.6l-.2-.6c-.3-.8-.6-1.6-.9-2.4-.3-.8-.7-1.6-1.1-2.3l-.3-.6c-.1-.2-.2-.4-.3-.6-.1-.2-.2-.4-.3-.5-.1-.2-.2-.4-.3-.5h0c-.1-.2,0-.4.1-.6s.4,0,.5.1c0,0,0,0,0,0Z"/>
        <path class="st7" d="M362.8,298.4c-.4.3-.8.7-1.2,1-.4.3-.8.6-1.3.9-.1,0-.2.1-.3.2-.1,0-.2.1-.3.2-.1,0-.2.1-.3.2l-.3.2c-.5.3-1,.5-1.5.7-.2,0-.4,0-.5-.3s0-.4.3-.5c0,0,0,0,0,0h0c.5,0,1-.2,1.4-.4h.4c.1-.2.2-.2.3-.3.1,0,.2-.1.3-.2.1,0,.2-.1.3-.2.5-.2.9-.5,1.4-.8.4-.3.9-.5,1.3-.8Z"/>
        <path class="st7" d="M354.7,294.8c-.4.5-.8.9-1.3,1.3-.5.4-.9.8-1.4,1.1-.3.2-.5.3-.8.5-.3.2-.5.3-.8.4-.3.1-.6.2-.9.3-.3,0-.6.2-.9.2-.2,0-.4-.1-.5-.3,0-.2.1-.4.3-.5,0,0,0,0,0,0h0c.3,0,.6,0,.8-.1.3,0,.6-.1.8-.2.3,0,.6-.2.8-.3.3-.1.5-.3.8-.4.5-.3,1-.6,1.5-1,.5-.4,1-.7,1.4-1.1Z"/>
        <path class="st7" d="M350.6,309.6c-.1-1.1-.3-2.1-.6-3.1-.2-1-.5-2.1-.8-3.1-.2-.5-.3-1-.5-1.5-.2-.5-.4-1-.7-1.4-.2-.5-.5-.9-.8-1.3-.3-.4-.6-.8-1-1.1-.2-.1-.2-.4,0-.6.1-.2.4-.2.6,0,0,0,0,0,0,0,.4.4.8.8,1.1,1.3.3.5.6,1,.8,1.4.2.5.4,1,.6,1.5.2.5.3,1,.5,1.5.3,1,.5,2.1.6,3.1.2,1.1.3,2.1.4,3.2Z"/>
      </g>
      <g>
        <path class="st15" d="M350.4,291.1c.6,3.6-1.9,7-5.6,7.6-3.6.6-7-1.9-7.6-5.6-.6-3.6,1.9-7,5.6-7.6,3.6-.6,7,1.9,7.6,5.6Z"/>
        <path class="st0" d="M348.5,290.3c.4,2.9-1.5,5.6-4.4,6-2.9.4-5.6-1.5-6-4.4-.4-2.9,1.5-5.6,4.4-6,2.9-.4,5.6,1.5,6,4.4Z"/>
        <path class="st9" d="M342.9,288.4c.1.8-.4,1.5-1.2,1.6-.8.1-1.5-.4-1.6-1.2-.1-.8.4-1.5,1.2-1.6.8-.1,1.5.4,1.6,1.2Z"/>
      </g>
      <g>
        <path class="st15" d="M338.7,295.8c.6,3.6-1.9,7-5.6,7.6-3.6.6-7-1.9-7.6-5.6-.6-3.6,1.9-7,5.6-7.6,3.6-.6,7,1.9,7.6,5.6Z"/>
        <path class="st0" d="M336.8,295c.4,2.9-1.5,5.6-4.4,6-2.9.4-5.6-1.5-6-4.4-.4-2.9,1.5-5.6,4.4-6,2.9-.4,5.6,1.5,6,4.4Z"/>
        <path class="st9" d="M331.2,293.1c.1.8-.4,1.5-1.2,1.6-.8.1-1.5-.4-1.6-1.2-.1-.8.4-1.5,1.2-1.6s1.5.4,1.6,1.2Z"/>
      </g>
      <g>
        <path class="st1" d="M341.9,285.7c.6,3.6-1.9,7-5.6,7.6-3.6.6-7-1.9-7.6-5.6-.6-3.6,1.9-7,5.6-7.6,3.6-.6,7,1.9,7.6,5.6Z"/>
        <circle class="st12" cx="334.7" cy="285.7" r="5.3"/>
        <path class="st9" d="M334.3,283c.1.8-.4,1.5-1.2,1.6s-1.5-.4-1.6-1.2c-.1-.8.4-1.5,1.2-1.6.8-.1,1.5.4,1.6,1.2Z"/>
      </g>
    </g>
  </g>
  <path id="frame" class="st9" d="M403.8,451.4V179.2c0-46-15.8-89.2-44.6-121.9-29.1-33-67.9-51.2-109.2-51.2s-80.1,18.2-109.2,51.2c-28.7,32.6-44.6,75.9-44.6,121.9v272.2h-15.7v39.2h338.9v-39.2h-15.7ZM117.6,244.8h121.7v195.9h-121.7v-195.9ZM260.7,244.8h121.7v195.9h-121.7v-195.9ZM382.4,179.2v44.2h-121.7V28.1c68,6.3,121.7,71.6,121.7,151.1ZM239.3,28.1v195.4h-121.7v-44.2c0-79.5,53.7-144.9,121.7-151.1Z"/>
  <g id="number">
    <path class="st9" d="M182.3,150.9c-11,3-20.2,8.1-20.2,10s.2.6.7.6,3.6-2.7,10.2-2.7,14.6,2.7,19.8,2.7,6.7-3.4,7.1-3.4.4.2.4.7c0,3.3-6.9,15.4-16.1,15.4s-13.1-5.7-18.6-5.7-8.1,5.5-9.3,6.1c-.8.3-1.9.4-3,.4-1.7,0-3.6-.3-4.1-.8-.7-.7-1.6-1.5-1.6-3.3,0-9,14-16.7,26.6-24.5,11-6.8,22.5-13.9,22.5-24.7s-3.2-6.5-8.6-6.5c-9.1,0-18.7,9.7-18.7,16.9s.6,2.2,1.9,2.2c6.1,0,11.3-13.3,11.8-13.3s.5,0,.5.5v.2c0,11.5-6.2,20.3-15,20.3s-8.3-2.7-8.3-9c0-9,12.9-23.6,30.4-23.6s17.7,5.1,17.7,14.2c0,14.7-14.6,24-26.1,27.2Z"/>
  </g>
</svg>