<?xml version="1.0" encoding="UTF-8"?>
<svg xmlns="http://www.w3.org/2000/svg" version="1.1" viewBox="0 0 500 500">
  <!-- Generator: Adobe Illustrator 29.0.1, SVG Export Plug-In . SVG Version: 2.1.0 Build 192)  -->
  <defs>
    <style>
      .st0 {
        fill: #c42126;
      }

      .st1 {
        fill: #d32d27;
      }

      .st2 {
        fill: #181012;
      }

      .st3 {
        fill: #010101;
      }

      .st4 {
        mix-blend-mode: multiply;
        opacity: .2;
      }

      .st5 {
        fill: #231f20;
      }

      .st6 {
        fill: #f59bac;
      }

      .st7 {
        fill: #15783d;
      }

      .st8 {
        fill: #066634;
      }

      .st9 {
        fill: #e5bd89;
      }

      .st10 {
        isolation: isolate;
      }

      .st11 {
        fill: #fff;
      }

      .st12 {
        fill: #d3905e;
      }

      .st13 {
        fill: #00a69f;
      }

      .st14 {
        fill: #e84225;
      }

      .st15 {
        fill: #e6bfa6;
      }

      .st16 {
        fill: #ca8150;
      }

      .st17 {
        fill: #f5e3bf;
      }

      .st18 {
        fill: #f7dcb7;
      }

      .st19 {
        fill: #6b4227;
      }

      .st20 {
        fill: #b42025;
      }
    </style>
  </defs>
  <g className="st10">
    <g id="window">
      <g id="color">
        <rect className="st13" x="68.8" y="13.2" width="334" height="465.3"/>
      </g>
     
      <path id="frame" className="st11" d="M416,456.1V0H55.6v456.1h-10.6v44.2h381.6v-44.2h-10.6ZM247.8,456.1v-220.3h141.7v220.3h-141.7ZM389.6,211.7h-141.7V26.4h141.7v185.3ZM223.7,26.4v185.3H82V26.4h141.7ZM82,235.8h141.7v220.3H82v-220.3Z"/>
      <g id="number">
        <path className="st3" d="M132.3,79.1c-6.1,12.6-13.1,34.5-15.9,34.5s-7.7-5.4-7.7-8.2,12.4-27.3,13.6-30l-.4-.2c-2.3,3-6.5,6.8-8.3,6.8s-1.8-.3-1.8-.6,6.1-5.9,12-15.1c5.6-8.9,10.1-18.7,13-18.7s8.5,2.3,8.5,4c0,3.8-6.9,15.1-13,27.6Z"/>
        <path className="st3" d="M166.3,89.2c-11.1,3-20.3,8.2-20.3,10.1s.2.6.7.6,3.6-2.8,10.3-2.8,14.7,2.8,19.9,2.8,6.8-3.4,7.1-3.4.4.2.4.8c0,3.3-6.9,15.6-16.2,15.6s-13.2-5.8-18.7-5.8-8.1,5.5-9.4,6.1c-.8.3-1.9.4-3,.4-1.8,0-3.6-.3-4.1-.8-.8-.7-1.6-1.5-1.6-3.3,0-9,14.1-16.8,26.8-24.7,11-6.9,22.7-14,22.7-24.9s-3.3-6.5-8.6-6.5c-9.1,0-18.8,9.8-18.8,17.1s.6,2.2,1.9,2.2c6.2,0,11.4-13.4,11.9-13.4s.5,0,.5.5v.3c0,11.6-6.3,20.5-15.1,20.5s-8.4-2.7-8.4-9c0-9,13-23.7,30.6-23.7s17.8,5.2,17.8,14.3c0,14.8-14.7,24.2-26.3,27.3Z"/>
      </g>
    </g>
  </g>
</svg>