<?xml version="1.0" encoding="UTF-8"?>
<svg id="Layer_3" xmlns="http://www.w3.org/2000/svg" version="1.1" viewBox="0 0 500 500">
  <!-- Generator: Adobe Illustrator 29.0.1, SVG Export Plug-In . SVG Version: 2.1.0 Build 192)  -->
  <defs>
    <style>
      .st0 {
        fill: #243949;
      }

      .st1 {
        fill: #fff;
      }
    </style>
  </defs>
  <g id="color">
    <rect class="st0" x="94.3" y="12.8" width="334" height="465.2"/>
  </g>
  <g id="snowflakesa">
    <g>
      <g>
        <path class="st1" d="M139.6,321.5c-1.1,0-1.9-.8-2-1.9l-.6-22.8c0-1.1.8-1.9,1.9-2,1.1,0,1.9.8,2,1.9l.6,22.8c0,1.1-.8,1.9-1.9,2Z"/>
        <path class="st1" d="M129.6,316.1c-.7,0-1.3-.3-1.7-.9-.6-.9-.3-2.1.6-2.6l19.5-11.9c.9-.6,2.1-.3,2.6.6.6.9.3,2.1-.6,2.6l-19.5,11.9c-.3.2-.6.3-1,.3h0Z"/>
        <path class="st1" d="M149.4,315.6c-.3,0-.7,0-1-.2l-20.1-10.9c-.9-.5-1.3-1.7-.8-2.6s1.7-1.3,2.6-.8l20.1,10.9c.9.5,1.3,1.7.8,2.6-.3.6-1,1-1.6,1Z"/>
      </g>
      <g>
        <path class="st1" d="M141.6,398.1c-1.1,0-1.9-.8-2-1.9l-.6-22.8c0-1.1.8-1.9,1.9-2,1.1,0,1.9.8,2,1.9l.6,22.8c0,1.1-.8,1.9-1.9,2Z"/>
        <path class="st1" d="M131.6,392.6c-.7,0-1.3-.3-1.7-.9-.6-.9-.3-2.1.6-2.6l19.5-11.9c.9-.6,2.1-.3,2.6.6.6.9.3,2.1-.6,2.6l-19.5,11.9c-.3.2-.6.3-1,.3h0Z"/>
        <path class="st1" d="M151.4,392.1c-.3,0-.7,0-1-.2l-20.1-10.9c-.9-.5-1.3-1.7-.8-2.6s1.7-1.3,2.6-.8l20.1,10.9c.9.5,1.3,1.7.8,2.6-.3.6-1,1-1.6,1Z"/>
      </g>
      <path class="st1" d="M141.3,386.6c-1.1,0-1.9-.8-2-1.9l-2-76.6c0-1.1.8-1.9,1.9-2,1.1,0,1.9.8,2,1.9l2,76.6c0,1.1-.8,1.9-1.9,2Z"/>
      <g>
        <path class="st1" d="M98,374.3c-.7,0-1.3-.3-1.7-.9-.6-.9-.3-2.1.6-2.6l19.5-11.9c.9-.6,2.1-.3,2.6.6.6.9.3,2.1-.6,2.6l-19.5,11.9c-.3.2-.6.3-1,.3h0Z"/>
        <path class="st1" d="M117.7,373.8c-.3,0-.7,0-1-.2l-20.1-10.9c-.9-.5-1.3-1.7-.8-2.6s1.7-1.3,2.6-.8l20.1,10.9c.9.5,1.3,1.7.8,2.6-.3.6-1,1-1.6,1Z"/>
        <path class="st1" d="M108,379.8c-1.1,0-1.9-.8-2-1.9l-.6-22.8c0-1.1.8-1.9,1.9-2,1.1,0,1.9.8,2,1.9l.6,22.8c0,1.1-.8,1.9-1.9,2Z"/>
      </g>
      <g>
        <path class="st1" d="M163.2,334.3c-.7,0-1.3-.3-1.7-.9-.6-.9-.3-2.1.6-2.6l19.5-11.9c.9-.6,2.1-.3,2.6.6.6.9.3,2.1-.6,2.6l-19.5,11.9c-.3.2-.6.3-1,.3h0Z"/>
        <path class="st1" d="M183,333.8c-.3,0-.7,0-1-.2l-20.1-10.9c-.9-.5-1.3-1.7-.8-2.6s1.7-1.3,2.6-.8l20.1,10.9c.9.5,1.3,1.7.8,2.6-.3.6-1,1-1.6,1Z"/>
        <path class="st1" d="M173.3,339.8c-1.1,0-1.9-.8-2-1.9l-.6-22.8c0-1.1.8-1.9,1.9-2,1.1,0,1.9.8,2,1.9l.6,22.8c0,1.1-.8,1.9-1.9,2Z"/>
      </g>
      <path class="st1" d="M107.6,368.4c-.7,0-1.3-.3-1.7-.9-.6-.9-.3-2.1.6-2.6l65.3-40c.9-.6,2.1-.3,2.6.6.6.9.3,2.1-.6,2.6l-65.3,40c-.3.2-.6.3-1,.3h0Z"/>
      <g>
        <path class="st1" d="M184,372.1c-.3,0-.7,0-1-.2l-20.1-10.9c-.9-.5-1.3-1.7-.8-2.6s1.7-1.3,2.6-.8l20.1,10.9c.9.5,1.3,1.7.8,2.6-.3.6-1,1-1.6,1Z"/>
        <path class="st1" d="M174.3,378.1c-1.1,0-1.9-.8-2-1.9l-.6-22.8c0-1.1.8-1.9,1.9-2,1.1,0,1.9.8,2,1.9l.6,22.8c0,1.1-.8,1.9-1.9,2Z"/>
        <path class="st1" d="M164.2,372.6c-.7,0-1.3-.3-1.7-.9-.6-.9-.3-2.1.6-2.6l19.5-11.9c.9-.6,2.1-.3,2.6.6.6.9.3,2.1-.6,2.6l-19.5,11.9c-.3.2-.6.3-1,.3h0Z"/>
      </g>
      <g>
        <path class="st1" d="M116.7,335.6c-.3,0-.7,0-1-.2l-20.1-10.9c-.9-.5-1.3-1.7-.8-2.6s1.7-1.3,2.6-.8l20.1,10.9c.9.5,1.3,1.7.8,2.6-.3.6-1,1-1.6,1Z"/>
        <path class="st1" d="M107,341.5c-1.1,0-1.9-.8-2-1.9l-.6-22.8c0-1.1.8-1.9,1.9-2,1.1,0,1.9.8,2,1.9l.6,22.8c0,1.1-.8,1.9-1.9,2Z"/>
        <path class="st1" d="M97,336.1c-.7,0-1.3-.3-1.7-.9-.6-.9-.3-2.1.6-2.6l19.5-11.9c.9-.6,2.1-.3,2.6.6.6.9.3,2.1-.6,2.6l-19.5,11.9c-.3.2-.6.3-1,.3h0Z"/>
      </g>
      <path class="st1" d="M174,366.7c-.3,0-.7,0-1-.2l-67.3-36.5c-.9-.5-1.3-1.7-.8-2.6s1.7-1.3,2.6-.8l67.3,36.5c.9.5,1.3,1.7.8,2.6-.3.6-1,1-1.6,1h0Z"/>
      <path class="st1" d="M140.9,371.2l-22.8-12.4-.7-25.9,22.1-13.5,22.8,12.4.7,25.9-22.1,13.5ZM121.9,356.5l18.9,10.3,18.3-11.2-.6-21.5-18.9-10.3-18.3,11.2.6,21.5Z"/>
      <polygon class="st1" points="140.5 361 127.7 354.1 127.4 339.5 139.8 331.9 152.6 338.9 153 353.4 140.5 361"/>
    </g>
    <g>
      <g>
        <path class="st1" d="M380.2,39.6c-1.1,0-1.9-.8-2-1.9l-.6-22.8c0-1.1.8-1.9,1.9-2,1.1,0,1.9.8,2,1.9l.6,22.8c0,1.1-.8,1.9-1.9,2Z"/>
        <path class="st1" d="M370.2,34.1c-.7,0-1.3-.3-1.7-.9-.6-.9-.3-2.1.6-2.6l19.5-11.9c.9-.6,2.1-.3,2.6.6.6.9.3,2.1-.6,2.6l-19.5,11.9c-.3.2-.6.3-1,.3h.1Z"/>
        <path class="st1" d="M389.9,33.6c-.3,0-.7,0-1-.2l-20.1-10.9c-.9-.5-1.3-1.7-.8-2.6s1.7-1.3,2.6-.8l20.1,10.9c.9.5,1.3,1.7.8,2.6-.3.6-1,1-1.6,1Z"/>
      </g>
      <g>
        <path class="st1" d="M382.2,116.1c-1.1,0-1.9-.8-2-1.9l-.6-22.8c0-1.1.8-1.9,1.9-2s1.9.8,2,1.9l.6,22.8c0,1.1-.8,1.9-1.9,2Z"/>
        <path class="st1" d="M372.1,110.6c-.7,0-1.3-.3-1.7-.9-.6-.9-.3-2.1.6-2.6l19.5-11.9c.9-.6,2.1-.3,2.6.6.6.9.3,2.1-.6,2.6l-19.5,11.9c-.3.2-.6.3-1,.3h.1Z"/>
        <path class="st1" d="M391.9,110.1c-.3,0-.7,0-1-.2l-20.1-10.9c-.9-.5-1.3-1.7-.8-2.6s1.7-1.3,2.6-.8l20.1,10.9c.9.5,1.3,1.7.8,2.6-.3.6-1,1-1.6,1Z"/>
      </g>
      <path class="st1" d="M381.9,104.6c-1.1,0-1.9-.8-2-1.9l-2-76.6c0-1.1.8-1.9,1.9-2,1.1,0,1.9.8,2,1.9l2,76.6c0,1.1-.8,1.9-1.9,2Z"/>
      <g>
        <path class="st1" d="M338.5,92.4c-.7,0-1.3-.3-1.7-.9-.6-.9-.3-2.1.6-2.6l19.5-11.9c.9-.6,2.1-.3,2.6.6.6.9.3,2.1-.6,2.6l-19.5,11.9c-.3.2-.6.3-1,.3h.1Z"/>
        <path class="st1" d="M358.3,91.9c-.3,0-.7,0-1-.2l-20.1-10.9c-.9-.5-1.3-1.7-.8-2.6s1.7-1.3,2.6-.8l20.1,10.9c.9.5,1.3,1.7.8,2.6-.3.6-1,1-1.6,1Z"/>
        <path class="st1" d="M348.5,97.8c-1.1,0-1.9-.8-2-1.9l-.6-22.8c0-1.1.8-1.9,1.9-2,1.1,0,1.9.8,2,1.9l.6,22.8c0,1.1-.8,1.9-1.9,2Z"/>
      </g>
      <g>
        <path class="st1" d="M403.8,52.4c-.7,0-1.3-.3-1.7-.9-.6-.9-.3-2.1.6-2.6l19.5-11.9c.9-.6,2.1-.3,2.6.6.6.9.3,2.1-.6,2.6l-19.5,11.9c-.3.2-.6.3-1,.3h.1Z"/>
        <path class="st1" d="M423.6,51.9c-.3,0-.7,0-1-.2l-20.1-10.9c-.9-.5-1.3-1.7-.8-2.6.5-.9,1.7-1.3,2.6-.8l20.1,10.9c.9.5,1.3,1.7.8,2.6-.3.6-1,1-1.6,1Z"/>
        <path class="st1" d="M413.8,57.8c-1.1,0-1.9-.8-2-1.9l-.6-22.8c0-1.1.8-1.9,1.9-2,1.1,0,1.9.8,2,1.9l.6,22.8c0,1.1-.8,1.9-1.9,2Z"/>
      </g>
      <path class="st1" d="M348.2,86.5c-.7,0-1.3-.3-1.7-.9-.6-.9-.3-2.1.6-2.6l65.3-40c.9-.6,2.1-.3,2.6.6.6.9.3,2.1-.6,2.6l-65.3,40c-.3.2-.6.3-1,.3h0Z"/>
      <g>
        <path class="st1" d="M424.6,90.1c-.3,0-.7,0-1-.2l-20.1-10.9c-.9-.5-1.3-1.7-.8-2.6s1.7-1.3,2.6-.8l20.1,10.9c.9.5,1.3,1.7.8,2.6-.3.6-1,1-1.6,1Z"/>
        <path class="st1" d="M414.8,96.1c-1.1,0-1.9-.8-2-1.9l-.6-22.8c0-1.1.8-1.9,1.9-2,1.1,0,1.9.8,2,1.9l.6,22.8c0,1.1-.8,1.9-1.9,2Z"/>
        <path class="st1" d="M404.8,90.6c-.7,0-1.3-.3-1.7-.9-.6-.9-.3-2.1.6-2.6l19.5-11.9c.9-.6,2.1-.3,2.6.6.6.9.3,2.1-.6,2.6l-19.5,11.9c-.3.2-.6.3-1,.3h.1Z"/>
      </g>
      <g>
        <path class="st1" d="M357.3,53.6c-.3,0-.7,0-1-.2l-20.1-10.9c-.9-.5-1.3-1.7-.8-2.6.5-.9,1.7-1.3,2.6-.8l20.1,10.9c.9.5,1.3,1.7.8,2.6-.3.6-1,1-1.6,1Z"/>
        <path class="st1" d="M347.5,59.6c-1.1,0-1.9-.8-2-1.9l-.6-22.8c0-1.1.8-1.9,1.9-2,1.1,0,1.9.8,2,1.9l.6,22.8c0,1.1-.8,1.9-1.9,2Z"/>
        <path class="st1" d="M337.5,54.1c-.7,0-1.3-.3-1.7-.9-.6-.9-.3-2.1.6-2.6l19.5-11.9c.9-.6,2.1-.3,2.6.6.6.9.3,2.1-.6,2.6l-19.5,11.9c-.3.2-.6.3-1,.3h.1Z"/>
      </g>
      <path class="st1" d="M414.6,84.7c-.3,0-.7,0-1-.2l-67.3-36.5c-.9-.5-1.3-1.7-.8-2.6.5-.9,1.7-1.3,2.6-.8l67.3,36.5c.9.5,1.3,1.7.8,2.6-.3.6-1,1-1.6,1Z"/>
      <path class="st1" d="M381.5,89.3l-22.8-12.4-.7-25.9,22.1-13.5,22.8,12.4.7,25.9-22.1,13.5ZM362.5,74.6l18.9,10.3,18.3-11.2-.6-21.5-18.9-10.3-18.3,11.2s.6,21.5.6,21.5Z"/>
      <polygon class="st1" points="381.1 79.1 368.3 72.1 367.9 57.6 380.3 50 393.1 56.9 393.5 71.5 381.1 79.1"/>
    </g>
    <path class="st1" d="M355.6,305.3c.2-1.5-.8-2.9-2.3-3.2l-17.1-2.7-11.9-16.5,20.2-2.1,13.4,11c.2.2.4.3.6.4,1.1.5,2.5.2,3.3-.8,1-1.2.8-2.9-.4-3.9l-9.1-7.5,10.7-1.1c1.5-.2,2.6-1.5,2.5-3-.2-1.5-1.5-2.6-3-2.5l-10.7,1.1,7.4-9.2c1-1.2.8-2.9-.4-3.9-1.2-1-2.9-.8-3.9.4l-10.9,13.4-20.2,2.1,8.3-18.6,16.2-6.1c1.4-.5,2.2-2.1,1.6-3.6-.5-1.4-2.1-2.2-3.6-1.6l-11,4.2,4.4-9.8c.6-1.4,0-3-1.4-3.7-1.4-.6-3,0-3.7,1.4l-4.4,9.8-4.2-11c-.5-1.4-2.1-2.1-3.6-1.6-1.4.5-2.1,2.1-1.6,3.6l6.2,16.2-8.3,18.6-11.9-16.5,2.8-17.1c.2-1.5-.8-2.9-2.3-3.2-1.5-.2-2.9.8-3.2,2.3l-1.9,11.6-6.3-8.7c-.9-1.2-2.6-1.5-3.9-.6-1.2.9-1.5,2.6-.6,3.9l6.3,8.7-11.6-1.9c-1.5-.2-2.9.8-3.2,2.3-.2,1.3.5,2.5,1.6,3,.2,0,.5.2.7.2l17.1,2.7,11.9,16.5-20.2,2.1-13.4-11c-1.2-1-2.9-.8-3.9.4-1,1.2-.8,2.9.4,3.9l9.1,7.5-10.7,1.1c-1.5.2-2.6,1.5-2.5,3,.1,1,.7,1.9,1.6,2.2.4.2.9.3,1.4.2l10.7-1.1-7.4,9.2c-1,1.2-.8,2.9.4,3.9.2.2.4.3.6.4,1.1.5,2.5.2,3.3-.8l10.9-13.4,20.2-2.1-8.3,18.6-16.2,6.1c-1.4.5-2.2,2.1-1.6,3.6.5,1.4,2.1,2.2,3.6,1.6l11-4.2-4.4,9.8c-.6,1.4,0,3,1.4,3.7,1.4.6,3,0,3.7-1.4l4.4-9.8,4.2,11c.3.7.8,1.2,1.5,1.5.6.3,1.4.3,2.1,0,1.4-.5,2.1-2.1,1.6-3.6l-6.2-16.2,8.3-18.6,11.9,16.5-2.8,17.1c-.2,1.3.5,2.5,1.6,3,.2,0,.4.2.7.2,1.5.2,2.9-.8,3.2-2.3l1.9-11.6,6.3,8.7c.3.4.7.7,1.1.9.9.4,1.9.3,2.8-.3,1.2-.9,1.5-2.6.6-3.9l-6.3-8.7,11.6,1.9c1.5.2,2.9-.8,3.2-2.3v.2Z"/>
    <path class="st1" d="M431.7,391.6c.2-1.2-.6-2.3-1.8-2.4l-13.2-2.1-9.2-12.7,15.6-1.6,10.3,8.5c.1.1.3.2.5.3.9.4,1.9.2,2.5-.6.7-.9.6-2.3-.3-3l-7-5.8,8.3-.8c1.2-.1,2-1.2,1.9-2.3-.1-1.2-1.2-2-2.3-1.9l-8.3.8,5.7-7.1c.7-.9.6-2.3-.3-3s-2.3-.6-3,.3l-8.4,10.4-15.6,1.6,6.4-14.3,12.5-4.7c1.1-.4,1.7-1.6,1.2-2.8-.4-1.1-1.6-1.7-2.8-1.2l-8.5,3.2,3.4-7.6c.5-1.1,0-2.3-1.1-2.8s-2.3,0-2.8,1.1l-3.4,7.6-3.2-8.5c-.4-1.1-1.7-1.7-2.8-1.2-1.1.4-1.7,1.7-1.2,2.8l4.8,12.5-6.4,14.3-9.2-12.7,2.2-13.2c.2-1.2-.6-2.3-1.8-2.5-1.2-.2-2.3.6-2.5,1.8l-1.5,9-4.9-6.7c-.7-1-2-1.2-3-.5s-1.2,2-.5,3l4.9,6.7-9-1.4c-1.2-.2-2.3.6-2.4,1.8-.2,1,.4,1.9,1.2,2.3.2,0,.3.1.5.2l13.2,2.1,9.2,12.7-15.6,1.6-10.3-8.5c-.9-.7-2.3-.6-3,.3s-.6,2.3.3,3l7,5.8-8.3.8c-1.2.1-2,1.2-1.9,2.3,0,.8.6,1.4,1.3,1.7.3.1.7.2,1.1.2l8.3-.8-5.7,7.1c-.7.9-.6,2.3.3,3,.1.1.3.2.5.3.9.4,1.9.2,2.5-.6l8.4-10.4,15.6-1.6-6.4,14.3-12.5,4.7c-1.1.4-1.7,1.6-1.2,2.8.4,1.1,1.6,1.7,2.8,1.2l8.5-3.2-3.4,7.6c-.5,1.1,0,2.3,1.1,2.8s2.3,0,2.8-1.1l3.4-7.6,3.3,8.5c.2.5.6,1,1.1,1.2s1.1.3,1.6,0c1.1-.4,1.7-1.7,1.2-2.8l-4.8-12.5,6.4-14.3,9.2,12.7-2.2,13.2c-.2,1,.4,1.9,1.2,2.3.2,0,.3.1.5.2,1.2.2,2.3-.6,2.5-1.8l1.5-9,4.9,6.7c.2.3.5.5.9.7.7.3,1.5.2,2.1-.2,1-.7,1.2-2,.5-3l-4.9-6.7,9,1.4c1.2.2,2.3-.6,2.4-1.8h0Z"/>
  </g>
  <g id="snowdots">
    <circle class="st1" cx="202.6" cy="260" r="8.8"/>
    <circle class="st1" cx="321.3" cy="152.1" r="14.5"/>
    <circle class="st1" cx="122.4" cy="44.1" r="5.3"/>
    <circle class="st1" cx="314.1" cy="372.5" r="7.5"/>
    <circle class="st1" cx="207" cy="419.5" r="13.2" transform="translate(-236 269.2) rotate(-45)"/>
    <circle class="st1" cx="411.4" cy="278.6" r="7"/>
    <circle class="st1" cx="143.6" cy="183.3" r="7"/>
  </g>
  <path id="frame" class="st1" d="M441.5,455.6V-.4H81.1v456h-10.6v44.2h381.6v-44.2h-10.6ZM273.3,455.6v-220.2h141.7v220.2h-141.7ZM415.1,211.3h-141.7V26h141.7v185.3h0ZM249.2,26v185.3H107.5V26h141.7ZM107.5,235.4h141.7v220.2H107.5v-220.2h0Z"/>
  <g id="number">
    <path class="st1" d="M153.8,104.7c-7.8,2.1-14.3,5.8-14.3,7.1s.1.4.5.4,2.5-1.9,7.3-1.9,10.4,1.9,14,1.9,4.8-2.4,5-2.4.3.1.3.5c0,2.4-4.9,11-11.4,11s-9.3-4.1-13.2-4.1-5.7,3.9-6.6,4.3c-.6.2-1.4.3-2.1.3-1.2,0-2.5-.2-2.9-.6-.5-.5-1.1-1.1-1.1-2.4,0-6.4,10-11.9,18.9-17.4,7.8-4.8,16-9.9,16-17.6s-2.3-4.6-6.1-4.6c-6.4,0-13.3,6.9-13.3,12s.4,1.5,1.4,1.5c4.4,0,8-9.4,8.4-9.4s.4,0,.4.4v.2c0,8.2-4.4,14.5-10.7,14.5s-5.9-1.9-5.9-6.4c0-6.4,9.1-16.8,21.6-16.8s12.6,3.7,12.6,10.1c0,10.4-10.4,17-18.5,19.3Z"/>
    <path class="st1" d="M205,100.5c-.6,1.1-1.2,2.2-1.8,3.3,1.6.3,3,.5,4,.5,3.8,0,4.9-2,5.2-2s.3.1.3.3c0,1.7-4.8,9.4-11.4,9.5s-1.6,0-2.4-.2c-4.3,7.9-7.5,14.1-8.6,14.1-1.7,0-4.9-2-4.9-5.6s2-6.3,4.3-11c-3.8-1.6-8.7-3.1-11.5-3s-3.5.9-4.2.9-1.2-2.8-1.2-3.7,7.1-6.5,17.1-15.6c9.9-9.1,15.9-16.7,19.1-16.7s10.2,2.7,10.2,3.8-7.2,12.9-14.2,25.5ZM205,80.4c-3.6,2.5-14.3,16-18.5,19.1v.3c1.2,0,4.3.8,7,1.6.7-1.2,1.2-2.2,1.6-3,2.6-4.8,9.6-16.9,10.3-17.9l-.5-.2Z"/>
  </g>
</svg>