<?xml version="1.0" encoding="UTF-8"?>
<svg id="layer" xmlns="http://www.w3.org/2000/svg" version="1.1" viewBox="0 0 500 500">
  <!-- Generator: Adobe Illustrator 29.0.1, SVG Export Plug-In . SVG Version: 2.1.0 Build 192)  -->
  <defs>
    <style>
      .st0 {
        fill: none;
      }

      .st1 {
        fill: #989a9b;
      }

      .st2 {
        fill: #eaeaea;
      }

      .st3 {
        fill: #181012;
      }

      .st4 {
        fill: #010101;
      }

      .st5 {
        fill: #1a0e0f;
      }

      .st6 {
        fill: #231f20;
      }

      .st7 {
        fill: #7f8183;
      }

      .st8 {
        fill: #767d80;
      }

      .st9 {
        fill: #f37f81;
      }

      .st10 {
        fill: #f8e1c3;
      }

      .st11 {
        fill: #edd542;
      }

      .st12 {
        fill: #fff;
      }

      .st13 {
        fill: #d7d7d7;
      }

      .st14 {
        fill: #d32727;
      }

      .st15 {
        fill: #f9bfc0;
      }

      .st16 {
        fill: #31120d;
      }

      .st17 {
        fill: #fbe0c8;
      }
    </style>
  </defs>
  <g id="color">
    <rect className="st11" x="81.7" y="13.1" width="334.2" height="465.6"/>
  </g>
  <g id="cat">
    <path className="st1" d="M233.5,388.9c.6-3.9,1.6-7.6,3-11.1-4.4-7.2-8.5-15.8-10-25.2-4-24.9-11.8-26.8-12.1-15.9-.3,10.8,0,14,0,14,0,0-3.6-12-6.4-2.5-2.8,9.5,1.3,19.4,1.3,19.6,0,0-3.1-3.4-1.8,3.8,3.1,9.7,17.7,16.3,26,17.4Z"/>
    <path className="st7" d="M229.4,392.3c.3-1.9,2.1-3.2,4-3,0-.1,0-.3,0-.4-8.3-1.1-22.9-7.7-26-17.4,0,.2,0,.5.1.7,1.2,6.2,6.7,18.2,22.3,23.9.3-.1.6-.2.9-.3-1-.8-1.6-2.1-1.4-3.5Z"/>
    <path className="st7" d="M347.8,396.3c-1.1.2-2.1.4-3.2.6-.3,0-.6,0-.9.1,0,2,0,4.1,0,6.2,0,0,0,5-.9,12-.4,3-.9,6.3-1.7,9.8h0c-.7,3.2-1.6,6.6-2.7,9.8-.4,1.3-.9,2.5-1.4,3.7-1.1,2.5-2,4.6-2.8,6.5-3.8,8.6-5.2,11.6-5.1,15.5,1.7,1.3,4.6,2.1,7.9,2.6-.6-3.6,1.4-7.3,1.4-7.3,0,0-6.2-3.5-2.7-11.2,3.4-7.7,7.5-4.8,7.5-4.8,9-12.4,15.2-1.2,15.2-1.2,4.8-1.3,7.5-.1,9,1.8.2-.4.4-.8.5-1.2,1.2-2.7,2.3-5.6,3-8.3.9-3,1.4-5.9,1.5-8.6,0-.7,0-1.4,0-2-.1-3.1-.7-6-1.7-8.7-3.4-9.5-11.2-16.1-17.6-16.2-.4,0-.7,0-1.1,0-.3.2-.7.3-1,.4-1,.2-2.1.5-3.1.7Z"/>
    <path className="st7" d="M250,438.5c-.5-1.2-1-2.5-1.4-3.7-1.1-3.2-2-6.6-2.7-9.8h0c-.8-3.5-1.3-6.8-1.7-9.8-.9-7-.9-12-.9-12,0-1.5,0-2.9,0-4.3-5.1-.5-9.5-1.5-13.3-2.8-5.4,2-11,7.8-13.7,15.4-1,2.7-1.6,5.6-1.7,8.7,0,.7,0,1.3,0,2,0,2.7.7,5.6,1.5,8.6.8,2.8,1.9,5.6,3,8.3,0,.2.2.4.3.6,1.6-1.5,4.1-2.3,8.4-1.1,0,0,6.2-11.1,15.2,1.2,0,0,4-2.9,7.5,4.8,3.4,7.7-2.7,11.2-2.7,11.2,0,0,2,3.7,1.4,7.3,3.6-.4,6.9-1.3,8.7-2.7,0-3.9-1.3-6.9-5.1-15.5-.8-1.9-1.8-4-2.8-6.5Z"/>
    <path className="st7" d="M243.2,397.7c-1.9,0-3.8-.2-5.7-.4-1.7-.2-3.4-.4-5.1-.7-.6-.1-1.1-.4-1.6-.7-.3,0-.6.2-.9.3,3.8,1.4,8.2,2.4,13.3,2.8,0-.4,0-.8,0-1.2Z"/>
    <path className="st15" d="M233.5,437.8c-2.1.4-3.4,3.2-2.8,6.4.6,3.1,2.8,5.4,4.9,5,2.1-.4,3.4-3.2,2.8-6.4-.6-3.1-2.8-5.4-4.9-5Z"/>
    <path className="st15" d="M221.8,448.8c1,1.4,2.4,2.3,3.7,2.7-1.6-2.6-3.2-5.6-4.7-8.8-.9,1.5-.5,4,1,6.1Z"/>
    <path className="st15" d="M228.3,451.1c1.7-1.3,1.6-4.4-.3-7-1.9-2.6-4.9-3.6-6.6-2.3-.3.2-.5.5-.7.9,1.5,3.2,3.2,6.2,4.7,8.8,1.1.3,2.1.2,2.9-.4Z"/>
    <path className="st15" d="M222.5,452.4c-2.2-2-5.1-2.4-6.5-.9-1.4,1.5-.6,5,1.6,7,2.2,2,4.1,2.4,6.4.3,2.1-1.9.7-4.3-1.5-6.4Z"/>
    <path className="st15" d="M244.4,443.3c-2-.4-4.1,1.6-4.7,4.5-.6,2.9-.2,5.3,2.4,6.1,3.1.9,4.1-1.6,4.7-4.5.6-2.9-.4-5.6-2.4-6.1Z"/>
    <path className="st15" d="M226.5,460.8c-1.7,1.5-1.1,4.9-1.1,4.9.5,5.4,3.9,4.3,4.8,4.4.9,0,3.9-2.2,5.7-3,1.8-.9,4.5-.6,5-.7,2.1-.7,3.7-1.3,4.5-2.8-6.2.2-12.3-.6-13.5-2.2-.6-.8-1.8-2.5-3.3-4.8,0,.5-.6,3-2.1,4.3Z"/>
    <path className="st15" d="M245.3,463.5c.2-.5.4-1,.5-1.7.4-2.8-2.6-6-4.9-6.2-2.3-.2-3.1-1.9-3.1-1.9-2.9-3.1-5.9-1.3-5.9-1.3-2.6.5-3.3,4-3.3,4,0,0,0,0,0,.1,1.5,2.3,2.7,4,3.3,4.8,1.2,1.6,7.3,2.5,13.5,2.2Z"/>
    <path className="st15" d="M352.5,437.7c-2.1-.4-4.3,1.9-4.9,5-.6,3.1.7,6,2.8,6.4,2.1.4,4.3-1.9,4.9-5,.6-3.1-.7-6-2.8-6.4Z"/>
    <path className="st15" d="M364.3,448.7c1.2-1.7,1.7-3.6,1.4-5.1-1.3,2.6-2.7,5.1-4,7.3.9-.5,1.8-1.2,2.5-2.2Z"/>
    <path className="st15" d="M364.5,441.8c-1.7-1.3-4.7-.3-6.6,2.3-1.9,2.6-2,5.7-.3,7,1.1.8,2.6.7,4,0,1.3-2.2,2.7-4.7,4-7.3-.2-.8-.5-1.4-1.1-1.9Z"/>
    <path className="st15" d="M362,458.6c2.3,2.1,4.2,1.7,6.4-.3,2.2-2,2.9-5.5,1.6-7-1.4-1.5-4.3-1.1-6.5.9-2.2,2-3.6,4.5-1.5,6.4Z"/>
    <path className="st15" d="M341.6,443.2c-2,.4-3.1,3.2-2.4,6.1.6,2.9,1.6,5.4,4.7,4.5,2.7-.8,3.1-3.2,2.4-6.1s-2.8-4.9-4.7-4.5Z"/>
    <path className="st15" d="M345.2,466.2c.5.1,3.2-.2,5,.7,1.8.9,4.7,3.1,5.7,3,.9,0,4.3,1,4.8-4.4,0,0,.6-3.4-1.1-4.9-1-.9-1.5-2.3-1.8-3.3-1.2,1.9-2.2,3.2-2.7,3.9-1.3,1.7-7.9,2.6-14.3,2.2.8,1.5,2.4,2.1,4.5,2.7Z"/>
    <path className="st15" d="M355,461.3c.5-.7,1.5-2,2.7-3.9-.2-.7-.3-1.1-.3-1.1,0,0-.7-3.5-3.3-4,0,0-3.1-1.7-5.9,1.3,0,0-.8,1.6-3.1,1.9s-5.3,3.4-4.9,6.2c0,.7.3,1.3.5,1.7,6.4.4,13-.5,14.3-2.2Z"/>
    <path className="st7" d="M305.7,452.4c3.7-2.9,2.7-13.4,2.7-13.4l-.2-7.8c-9.5,3.6-20,3.6-29.5,0l-.2,7.8s-1.1,10.4,2.7,13.4c3.8,3,4.6,6.3,4.7,8.1,5,.3,10.1.3,15.1,0,.1-1.9.9-5.2,4.7-8.1Z"/>
    <path className="st8" d="M320.5,472.3s4.6-1.4,1.9-7.5c0,0,.3,6.2-1.9,7.5Z"/>
    <path className="st8" d="M308.6,469.7s-.7-4.2,2.4-8.4c0,0-5.1,3.7-2.4,8.4Z"/>
    <path className="st8" d="M264.5,464.9c-2.7,6.1,1.9,7.5,1.9,7.5-2.1-1.3-1.9-7.5-1.9-7.5Z"/>
    <path className="st8" d="M278.3,469.7c2.7-4.8-2.4-8.4-2.4-8.4,3,4.3,2.4,8.4,2.4,8.4Z"/>
    <path className="st13" d="M353.7,391.3c-.4-1.9-2.2-3-4-2.8,0,.4.1.9.2,1.3,0,0,0,0,0,0,.1,0,.3,0,.4,0,.8,0,1.6.6,1.8,1.4.2,1-.4,2-1.4,2.2-1,.2-2,.4-3.1.6-.4,0-.7.1-1.1.2-.7.1-1.4.2-2.1.4-.3,0-.6,0-.9.1-1.1.2-2.2.3-3.3.4-2.4.2-4.7.4-7,.4h0c-5.7,0-11.2-.7-16.2-2.2-.6-.2-1.2-.3-1.8-.5-2-.6-3.8-1.5-5.6-2.7-.9-.6-1.8-1.2-2.6-1.9-.2-.2-.5-.4-.7-.6-3.6-3.1-6.7-7.2-9.5-12.5-.5-.9-.9-1.9-1.4-2.9-1.4-3.1-2.7-6.5-3.9-10.1-.6,0-1.1-.2-1.7-.3-.2,0-.5,0-.7-.1,0,0,0,0-.1,0-.3,0-.7-.1-1.1-.2,0,0-.1,0-.2,0-1.1,3.6-2.4,7-3.8,10.1-.5,1.2-1.1,2.3-1.6,3.4-.8,1.4-1.5,2.8-2.3,4-1.7,2.7-3.6,5-5.5,6.9-.6.6-1.3,1.2-2,1.8-.9.7-1.8,1.4-2.8,2-1.8,1.2-3.7,2.1-5.7,2.7-4.4,1.4-9.2,2.3-14.2,2.6-1.1,0-2.2.1-3.3.1-.2,0-.3,0-.5,0-.7,0-1.5,0-2.3,0-.2,0-.4,0-.6,0-1.5,0-2.9-.2-4.4-.3-.4,0-.8,0-1.1-.1-1.7-.2-3.3-.4-5-.7-.5,0-.9-.4-1.2-.8-.3-.4-.4-.9-.3-1.4.2-.9.9-1.5,1.8-1.5s.2,0,.3,0c0-.3,0-.6.1-.9-1.9-.2-3.7,1.1-4,3-.2,1.4.3,2.7,1.4,3.5.5.3,1,.6,1.6.7,1.7.3,3.4.6,5.1.7,1.9.2,3.8.4,5.7.4.2,0,.4,0,.6,0,.8,0,1.5,0,2.3,0s.8,0,1.2,0c1.5,0,3.1-.1,4.6-.2,4.5-.4,8.8-1.2,12.8-2.5,1.8-.6,3.5-1.4,5.2-2.3,2.2-1.3,4.2-2.8,6.1-4.8.1-.1.2-.2.3-.3,1.3-1.3,2.5-2.8,3.7-4.4,1.4-2,2.8-4.2,4.1-6.6.8-1.6,1.6-3.2,2.3-5,1.2-2.7,2.2-5.7,3.2-8.8,1,3.3,2.1,6.4,3.4,9.2.7,1.5,1.4,3,2.1,4.4,2.3,4.4,5,8.1,7.9,11.1,1.3,1.4,2.7,2.6,4.2,3.6.4.3.9.6,1.3.9,1.9,1.2,4,2.2,6.1,2.9.8.3,1.7.5,2.5.7,5,1.4,10.4,2.1,16,2.1,2.2,0,4.3-.1,6.6-.3,1.3-.1,2.7-.3,4-.5.3,0,.6,0,.9-.1,1.1-.2,2.2-.4,3.2-.6,1.1-.2,2.1-.4,3.1-.7.4,0,.7-.2,1-.4,1.3-.8,2.1-2.4,1.7-4Z"/>
    <g>
      <path className="st2" d="M286.3,361.2c-1,3.3-2.2,6.8-3.7,10.1-.7,1.6-1.5,3.3-2.4,4.8-1.8,3.2-3.9,6.2-6.3,8.7-1,1-2,1.9-3.1,2.8-.3.3-.6.5-1,.7-1.9,1.4-4,2.5-6.3,3.2-4.9,1.6-9.7,2.3-14.5,2.5-.9,0-1.8,0-2.7,0-.8,0-1.7,0-2.5,0-.2,0-.4,0-.6,0-.8,0-1.6,0-2.4-.1-1,0-2-.2-3-.3-1.7-.2-3.3-.4-4.9-.7,0-.9.2-1.8.3-2.7,0,0-.2,0-.3,0-.9,0-1.6.6-1.8,1.5,0,.5,0,1,.3,1.4.3.4.7.7,1.2.8,1.6.3,3.3.5,5,.7.4,0,.8,0,1.1.1,1.5.1,3,.3,4.4.3.2,0,.4,0,.6,0,.8,0,1.5,0,2.3,0s.3,0,.5,0c1.1,0,2.2,0,3.3-.1,5-.3,9.8-1.1,14.2-2.6,2-.6,3.9-1.6,5.7-2.7.9-.6,1.9-1.3,2.8-2,.7-.6,1.3-1.2,2-1.8,2-2,3.8-4.3,5.5-6.9.8-1.3,1.6-2.6,2.3-4,.6-1.1,1.1-2.2,1.6-3.4,1.4-3.1,2.7-6.4,3.8-10.1,0,0,0,0,0,0-.5,0-1-.1-1.6-.2Z"/>
      <path className="st2" d="M352.1,391.1c-.2-.8-.9-1.4-1.8-1.4s-.3,0-.4,0c0,0,0,0,0,0,.1.8.2,1.5.3,2.3-1,.2-2,.4-3,.6-.8.2-1.7.3-2.5.4-.2,0-.4,0-.6,0-.2,0-.4,0-.5,0-1,.1-1.9.3-2.9.4-7.2.8-15.4.6-23.6-1.8-.5-.1-.9-.3-1.4-.4-1.9-.6-3.7-1.5-5.4-2.6-.7-.4-1.3-.9-1.9-1.4-.5-.4-1-.8-1.4-1.2-4.1-3.7-7.4-8.7-9.9-14.1-1.5-3.3-2.8-6.6-3.8-10-.5,0-1.1-.2-1.6-.3,1.1,3.7,2.4,7,3.9,10.1.5,1,.9,1.9,1.4,2.9,2.7,5.3,5.9,9.4,9.5,12.5.2.2.4.4.7.6.8.7,1.7,1.3,2.6,1.9,1.8,1.1,3.7,2,5.6,2.7.6.2,1.2.4,1.8.5,5.1,1.4,10.5,2.2,16.2,2.2h0c2.3,0,4.6-.1,7-.4,1.1-.1,2.2-.2,3.3-.4.3,0,.6,0,.9-.1.7-.1,1.4-.2,2.1-.4.4,0,.7-.1,1.1-.2,1-.2,2.1-.4,3.1-.6,1-.2,1.6-1.2,1.4-2.2Z"/>
    </g>
    <g>
      <path className="st14" d="M282.6,360.7c-.7-.1-1.4-.2-2-.3-6.3-1.1-12.1-2.7-17.5-4.6-2.5-.9-5-1.9-7.3-3,0,0,0,0-.1,0-8.2,6.4-15.2,14.9-19.2,25.1-1.4,3.5-2.4,7.2-3,11.1,0,.1,0,.3,0,.4,0,.3,0,.6-.1.9-.1.9-.2,1.8-.3,2.7,1.6.3,3.2.5,4.9.7,1,.1,2,.2,3,.3.8,0,1.6,0,2.4.1.2,0,.4,0,.6,0,.8,0,1.6,0,2.5,0,.9,0,1.8,0,2.7,0,4.7-.2,9.6-1,14.5-2.5,2.3-.7,4.4-1.8,6.3-3.2.3-.2.7-.5,1-.7,1.1-.8,2.1-1.8,3.1-2.8,2.4-2.5,4.5-5.5,6.3-8.7.9-1.6,1.7-3.2,2.4-4.8,1.5-3.3,2.7-6.8,3.7-10.1-.7,0-1.4-.2-2.1-.3-.5,0-1-.2-1.6-.2Z"/>
      <path className="st14" d="M349.7,388.5c-1.8-11.2-7.1-20.9-14.2-28.6,0,0-.2,0-.3,0-1.1.3-2.3.6-3.5.9,0,0,0,0,0,0h0c-2.8.7-5.7,1.3-8.8,1.7-5.1.8-10.7,1.1-16.5.9-2.9,0-6-.3-9.1-.7-.5,0-1.1-.1-1.6-.2-.8-.1-1.6-.2-2.4-.4,1,3.3,2.3,6.7,3.8,10,2.5,5.4,5.8,10.4,9.9,14.1.5.4.9.8,1.4,1.2.6.5,1.2.9,1.9,1.4,1.7,1.1,3.4,1.9,5.4,2.6.5.2.9.3,1.4.4,8.1,2.4,16.3,2.5,23.6,1.8,1-.1,2-.2,2.9-.4.2,0,.4,0,.5,0,.2,0,.4,0,.6,0,.9-.1,1.7-.3,2.5-.4,1-.2,2-.4,3-.6,0-.8-.2-1.6-.3-2.3,0-.4-.1-.9-.2-1.3Z"/>
      <path className="st14" d="M375.3,148c-17.9-15.5-39.2-13.8-39.2-13.8-37.8-2-58.6,42.1-65.9,61.3,2.3-1.3,4.9-1.9,7.7-1.8,1.9.1,3.8.6,5.4,1.4,2.7-4,7.3-6.5,12.5-6.2,3.6.2,6.8,1.8,9.2,4.2,2.3-1.3,5-2,7.9-1.9,3.6.2,6.7,1.7,9.1,4.1,2.7-2.8,6.6-4.4,10.8-4.2,4.7.3,8.7,2.9,11,6.6,1.2-.3,2.4-.3,3.7-.3,2.7.2,5.2,1.1,7.3,2.6-.6-11.7-1.5-30.8-1.8-37.2-.4-9.4,13.4-2.6,13.4-2.6,1.5.5,2.9.9,4.2,1.3.2-1.5.8-2.9,1.9-4.1.6-.7,1.3-1.2,2.1-1.6-1.4-2.6-1.2-5.8.8-8.1Z"/>
    </g>
    <path className="st7" d="M236.6,183.8c10.9,10.9,20,17.5,26.2,21.2.2-.1.5-.2.7-.4.6-2.8,2.1-5.3,4.2-7.2-7.7-4.4-20.4-12.9-35.8-28.4,0,0-22.4,23.7-8.9,70.5,1.7-1.9,3.4-3.9,5.2-5.8-7.4-33.2,8.4-50,8.4-50Z"/>
    <path className="st15" d="M262.8,205c-6.2-3.7-15.3-10.3-26.2-21.2,0,0-15.8,16.8-8.4,50,10.6-11.5,23.1-22.6,34.6-28.8Z"/>
    <path className="st7" d="M358.5,219.1c.5.5,1,1.1,1.6,1.6,7-1.5,18.2-4.9,32.8-12.5,0,0,10.4,21.7-8.3,51.9,1.1,2.4,2.1,4.7,3,7.1,28.7-41.3,14.3-71.6,14.3-71.6-18.2,9.4-32.3,13.8-41.2,15.8,0,.3,0,.6,0,1-.2,2.5-.9,4.8-2.2,6.7Z"/>
    <path className="st15" d="M392.9,208.2c-14.6,7.6-25.8,11-32.8,12.5,9.3,9.9,17.9,24.9,24.5,39.4,18.6-30.3,8.3-51.9,8.3-51.9Z"/>
    <g>
      <path className="st1" d="M250.4,444.7c-3.4-7.7-7.5-4.8-7.5-4.8-9-12.4-15.2-1.2-15.2-1.2-4.2-1.2-6.8-.4-8.4,1.1-2.8,2.7-2.3,7.8-2.3,7.8-4.9,1.8-5.2,5.8-5.2,5.8-.8,7.3,9.3,11,9.3,11,2.5,12.8,11.1,9.8,13.4,7.4,2.3-2.5,6-2.2,6-2.2,6-.8,8.1-3.5,8.6-6.3.6-3.6-1.4-7.3-1.4-7.3,0,0,6.2-3.5,2.7-11.2ZM239.7,447.8c.6-2.9,2.8-4.9,4.7-4.5s3.1,3.2,2.4,6.1c-.6,2.9-1.6,5.4-4.7,4.5-2.7-.8-3.1-3.2-2.4-6.1ZM233.5,437.8c2.1-.4,4.3,1.9,4.9,5,.6,3.1-.7,6-2.8,6.4-2.1.4-4.3-1.9-4.9-5-.6-3.1.7-6,2.8-6.4ZM221.5,441.9c1.7-1.3,4.7-.3,6.6,2.3,1.9,2.6,2,5.7.3,7-.8.6-1.8.7-2.9.4-1.3-.3-2.7-1.3-3.7-2.7-1.6-2.1-1.9-4.6-1-6.1.2-.3.4-.6.7-.9ZM224,458.8c-2.3,2.1-4.2,1.7-6.4-.3-2.2-2-2.9-5.5-1.6-7,1.4-1.5,4.3-1.1,6.5.9s3.6,4.5,1.5,6.4ZM240.8,466.3c-.5.1-3.2-.2-5,.7-1.8.9-4.7,3.1-5.7,3-.9,0-4.3,1-4.8-4.4,0,0-.6-3.4,1.1-4.9,1.5-1.3,2-3.8,2.1-4.3,0,0,0-.1,0-.1,0,0,.7-3.5,3.3-4,0,0,3.1-1.7,5.9,1.3,0,0,.8,1.6,3.1,1.9,2.3.2,5.3,3.4,4.9,6.2,0,.7-.3,1.2-.5,1.7-.8,1.5-2.4,2.1-4.5,2.8Z"/>
      <path className="st1" d="M369,447.5s.4-4.3-1.7-7.1c-1.5-1.9-4.1-3.1-9-1.8,0,0-6.2-11.1-15.2,1.2,0,0-4-2.9-7.5,4.8-3.4,7.7,2.7,11.2,2.7,11.2,0,0-2,3.7-1.4,7.3.5,2.8,2.6,5.5,8.6,6.3,0,0,3.7-.2,6,2.2,2.3,2.5,10.9,5.4,13.4-7.4,0,0,10.1-3.7,9.4-11,0,0-.3-4-5.2-5.8ZM358,444.1c1.9-2.6,4.9-3.6,6.6-2.3.6.4,1,1.1,1.1,1.9.3,1.5-.2,3.4-1.4,5.1-.7,1-1.6,1.7-2.5,2.2-1.5.8-3,.9-4,0-1.7-1.3-1.6-4.4.3-7ZM347.6,442.7c.6-3.1,2.8-5.4,4.9-5,2.1.4,3.4,3.2,2.8,6.4-.6,3.1-2.8,5.4-4.9,5-2.1-.4-3.4-3.2-2.8-6.4ZM341.6,443.2c2-.4,4.1,1.6,4.7,4.5s.2,5.3-2.4,6.1c-3.1.9-4.1-1.6-4.7-4.5-.6-2.9.4-5.6,2.4-6.1ZM360.6,465.6c-.5,5.4-3.9,4.3-4.8,4.4-.9,0-3.9-2.2-5.7-3-1.8-.9-4.5-.6-5-.7-2-.6-3.6-1.2-4.5-2.7-.3-.5-.4-1-.5-1.7-.4-2.8,2.6-6,4.9-6.2s3.1-1.9,3.1-1.9c2.9-3.1,5.9-1.3,5.9-1.3,2.6.5,3.3,4,3.3,4,0,0,0,.5.3,1.1.3,1,.8,2.4,1.8,3.3,1.7,1.5,1.1,4.9,1.1,4.9ZM368.4,458.4c-2.2,2-4.1,2.4-6.4.3-2.1-1.9-.7-4.3,1.5-6.4,2.2-2,5.1-2.4,6.5-.9,1.4,1.5.6,5-1.6,7Z"/>
      <path className="st1" d="M336.9,438.5c.5-1.2,1-2.5,1.4-3.7,1.1-3.2,2-6.6,2.7-9.8h0c.8-3.5,1.3-6.8,1.7-9.8.9-7,.9-12,.9-12,0-2.1,0-4.2,0-6.2-1.4.2-2.7.3-4,.5-2.2.2-4.4.3-6.6.3-5.6,0-11-.7-16-2.1-.9-.2-1.7-.5-2.5-.7-2.1-.7-4.2-1.7-6.1-2.9-.5.9-.9,1.7-1.2,2.4l1,36.7.2,7.8s1.1,10.4-2.7,13.4c-3.8,3-4.6,6.3-4.7,8.1,0,0,0,0,0,0,0,0,0,0,0,0,0,.9,0,1.4,0,1.4-.4,7.6,7.5,8,7.5,8,5.2,7.9,11.9,2.5,11.9,2.5,6,.5,9.4-4.4,8.7-10.3,0-.6-.1-1.2-.1-1.8,0-3.9,1.3-6.9,5.1-15.5.8-1.9,1.8-4,2.8-6.5ZM308.6,469.7c-2.7-4.8,2.4-8.4,2.4-8.4-3,4.3-2.4,8.4-2.4,8.4ZM320.5,472.3c2.1-1.3,1.9-7.5,1.9-7.5,2.7,6.1-1.9,7.5-1.9,7.5Z"/>
      <path className="st1" d="M285.9,460.6s0,0,0,0c-.1-1.9-.9-5.2-4.7-8.1-3.7-2.9-2.7-13.4-2.7-13.4l.2-7.8,1-36.7c-.8-1.7-2.1-4-3.7-6.6-1.9,1.9-4,3.5-6.1,4.8-1.7,1-3.4,1.7-5.2,2.3-4,1.3-8.3,2.1-12.8,2.5-1.5.1-3,.2-4.6.2-.4,0-.8,0-1.2,0-.8,0-1.5,0-2.3,0-.2,0-.4,0-.6,0,0,.4,0,.8,0,1.2,0,1.4,0,2.8,0,4.3,0,0,0,5,.9,12,.4,3,.9,6.3,1.7,9.8h0c.7,3.2,1.6,6.6,2.7,9.8.4,1.3.9,2.5,1.4,3.7,1.1,2.5,2,4.6,2.8,6.5,3.8,8.6,5.2,11.6,5.1,15.5,0,.6,0,1.1-.1,1.8-.7,5.9,2.7,10.8,8.7,10.3,0,0,6.7,5.3,11.9-2.5,0,0,7.9-.4,7.5-8,0,0,0-.5,0-1.4,0,0,0,0,0,0ZM264.5,464.9s-.3,6.2,1.9,7.5c0,0-4.6-1.4-1.9-7.5ZM278.3,469.7s.7-4.2-2.4-8.4c0,0,5.1,3.7,2.4,8.4Z"/>
      <path className="st1" d="M406.1,312.6c-9.6-14.6-13.6-31.4-13.6-31.5-.3-1.5-.7-2.9-1.2-4.3-1.1-3.1-2.3-6.3-3.7-9.6-1-2.3-2-4.7-3-7.1-6.6-14.5-15.3-29.5-24.5-39.4-.5-.6-1-1.1-1.6-1.6-.5.8-1.2,1.6-1.9,2.3-.2.2-.4.4-.6.6-.8.7-1.8,1.4-2.8,1.9-2.2,1.2-4.7,1.8-7.4,1.6-3.5-.2-6.6-1.7-8.9-4-1.6,6.4-7.6,10.9-14.4,10.5-5.5-.3-10.1-3.9-12.1-8.7-2.6,4.3-7.4,7-12.8,6.7-6.3-.4-11.4-4.9-12.8-10.7-2.4,1.6-5.4,2.5-8.6,2.3-5-.3-9.1-3.2-11.4-7.2-.6-1-1-2.1-1.3-3.2-.4-1.4-.5-2.9-.4-4.4,0-.5.1-1.1.2-1.6,0-.2,0-.5.1-.7-.2.1-.5.2-.7.4-11.5,6.3-24,17.3-34.6,28.8-1.8,1.9-3.5,3.9-5.2,5.8-2.8,3.3-5.5,6.6-7.8,9.7-1,1.3-1.8,2.6-2.6,4-1.3,2-9.8,15.4-22.4,25.6-8.7,7,11.1,5.2,11.4,5.2-.2,0-13.3,6.7-9.9,9.3,3.4,2.7,12.3,2.7,15.3,6.8,1.8,2.4,4.5,11.8,13,23.1-1.4-15.4-6.1-93.4,38.6-84.1,44.4,9.2,35.8,59.1,33.6,69.3,1.2,0,2.7.3,4.2.6,1.9.3,3.6.6,5,1,.9-10.2,7.9-60.6,53.1-55.8,43.6,4.6,19.1,72.1,11.8,90,10-7.6,14.9-14.7,17.2-16.4,4.1-3,12.6-.3,16.7-1.8,4.1-1.5-6.4-11.7-6.5-11.9.2,0,18.5,7.8,12.4-1.5Z"/>
    </g>
    <g>
      <path className="st6" d="M285.9,460.6s0,0,0,0c0,0,0,0,0,0,2.5.1,5,.2,7.5.2,2.5,0,5,0,7.5-.2,0,0,0,0,0,0,0,0,0,0,0,0-5,.3-10.1.3-15.1,0Z"/>
      <path className="st6" d="M289.6,335.8c-.4-.1-.9-.2-1.4-.1-.9,0-1.7.5-2.3,1.1.7,0,1.3,0,2.1,0,.5,0,1,0,1.6.1.6,0,1.3.1,1.9.2,0,0,.1,0,.2,0,.1,0,.2,0,.3,0,.6.1,1.2.2,1.8.4-.6-1-1.6-1.8-2.9-1.9-.5,0-.9,0-1.4.1Z"/>
      <path className="st6" d="M301,333.8c.2,0,.3,0,.5,0-.2,0-.3,0-.5,0,0,0,0,0,0,0Z"/>
      <path className="st6" d="M283.7,331.1c0,0,.2,0,.3,0,0,0-.2,0-.3,0,0,0,0,0,0,0Z"/>
      <path className="st6" d="M310.8,331.5l-.4.3-.4.3c-1.1.7-2.3,1.2-3.6,1.5-1.2.3-2.5.4-3.8.3h0s-.1,0-.1,0c0,0-.1,0-.2,0-.1,0-.3,0-.4,0,0,0,0,0,0,0,.1,0,.3,0,.4,0,0,0,.1,0,.2,0h.1s0,0,0,0c1.3.1,2.6,0,3.8-.3,1.3-.3,2.5-.8,3.6-1.5l.4-.3.4-.3c.1,0,.3-.2.4-.3h0c-.1.1-.3.2-.4.3Z"/>
      <path className="st6" d="M290.1,330.3c.3,0,.5-.2.7-.3l.4-.2h.2c0,0,.2-.2.2-.2l.4-.2.3-.2c.2-.1.4-.3.7-.5,0,0,0,0,0,0,0,0,0,0,0,0,0,0,0,0,0,0-.2.2-.4.3-.7.5l-.3.2-.4.2h-.2c0,.1-.2.2-.2.2l-.4.2c-.2.1-.5.2-.7.3-.5.2-1,.4-1.5.5-1.1.3-2.1.4-3.2.4-.3,0-.5,0-.8,0,.3,0,.5,0,.8,0,1.1,0,2.2-.1,3.2-.4.5-.1,1-.3,1.5-.5Z"/>
    </g>
    <path className="st5" d="M284.9,339.7h0c0-.3,0-.6,0-.8,0,0-.1,0-.2-.1-.2-.1-.3-.2-.5-.3-.2-.1-.3-.2-.5-.3-.2-.1-.3-.2-.5-.4-.1-.1-.3-.2-.4-.4,0,0-.2-.1-.2-.2,0,0,0,0-.1-.1-.5-.4-.9-.9-1.3-1.3,0,0-.2-.2-.2-.3-.4-.5-.9-1-1.3-1.5,0,0-.1-.2-.2-.2-.4-.6-.8-1.1-1.2-1.7,0,0,0-.1-.1-.2-.4-.6-.8-1.3-1.1-2,0,0,0,0,0,0-.6-1.1-1-2.1-1.4-3.1h0s0,0,0,0l-.2-.3-.3-.4c-.2-.2-.4-.5-.6-.8-.4-.5-.7-1.1-1-1.6-.3-.6-.6-1.1-.9-1.7,0,0,0,0,0-.1.4,1.8,1.3,5.1,3.2,8.7,2.1,4.1,4.9,7.3,8.2,9.5.4,0,.7-.1,1.1-.2,0,0,0,0,0,0Z"/>
    <path className="st5" d="M314.4,328.4c-.5.4-.9.9-1.4,1.3-.5.4-.9.9-1.4,1.2-.1,0-.2.2-.3.3-.8,1.1-1.8,2.3-3,3.4-.1.1-.3.3-.5.4-.2.2-.3.3-.5.5-.2.1-.3.3-.5.4-.2.1-.3.3-.5.4-.2.1-.3.3-.5.4-.2.1-.3.3-.5.4-.2.1-.3.2-.5.4-.2.1-.3.2-.5.4-.2.1-.3.2-.5.3-.2.1-.3.2-.5.3-.2.1-.3.2-.5.3-.2,0-.3.2-.5.3-.2,0-.4.2-.5.3-.2,0-.3.2-.5.3-.2,0-.4.2-.5.2-.1,0-.2.1-.3.2,0,0,0,0-.1,0,.8.1,1.6.3,2.4.5,2.3-1.2,4.5-2.9,6.6-4.9,3.4-3.4,5.5-6.9,6.1-8.1-.1,0-.2.1-.3.2-.3.2-.5.4-.8.6Z"/>
    <path className="st5" d="M285.8,339.4c-.2,0-.3-.2-.5-.3-.1,0-.2-.1-.3-.2,0,.2,0,.5,0,.7h0c0,.1,0,.2,0,.2.4,0,.8-.1,1.2-.2-.1,0-.3-.1-.4-.2Z"/>
    <path className="st5" d="M284.9,339.8c-.4,0-.7,0-1.1.2.4.3.8.5,1.1.7,0-.3,0-.6,0-.9Z"/>
    <path className="st5" d="M300.3,340.1c-.2,0-.4.2-.6.2-.2,0-.3.1-.5.2-.2,0-.4.1-.6.2-.2,0-.3.1-.5.2-.2,0-.4.1-.6.2-.2,0-.3,0-.5.1-.2,0-.4,0-.6.1-.2,0-.3,0-.5,0-.2,0-.4,0-.6,0-.2,0-.3,0-.5,0-.2,0-.4,0-.6,0,0,.4,0,.8-.1,1.2,0,0,0,.2,0,.3,3-.1,6-1,8.8-2.4-.8-.2-1.6-.4-2.4-.5,0,0,0,0,0,0Z"/>
    <path className="st5" d="M293.5,341.6c-.3,0-.5,0-.8,0,0,0-.2,0-.3,0,0,0,0,.1,0,.2,0,.4.1.9.2,1.3.4,0,.8,0,1.2,0,0-.1,0-.2,0-.3,0-.4,0-.8.1-1.2,0,0,0,0,0,0-.2,0-.3,0-.5,0Z"/>
    <path className="st5" d="M286.9,340s0,0,0,0c-.2,0-.3-.2-.5-.3,0,0,0,0-.1,0-.4,0-.8.1-1.2.2,0,.3,0,.6,0,.9.5.3,1.1.6,1.7.9,0-.5.1-1,.2-1.5Z"/>
    <path className="st5" d="M292.1,341.5s0,0,0,0c0,.5-.1.9-.2,1.5.3,0,.5,0,.8,0,0-.4-.1-.9-.2-1.3,0,0,0-.1,0-.2,0,0,0,0-.1,0,0,0-.2,0-.3,0Z"/>
    <path className="st5" d="M286.9,340c0,.5-.1,1-.2,1.5.2,0,.4.2.6.3,0-.5-.1-1.1-.2-1.7,0,0-.1,0-.2,0Z"/>
    <path className="st5" d="M292.1,341.5c-.3,0-.6,0-.9,0h0s0,0,0,0c-.1,0-.2,0-.3,0,0,0,0,0,0,0,0,.5.1,1.1.2,1.6,0,0,0,0,0,0h0c.2,0,.5,0,.7,0,0-.5.1-1,.2-1.5,0,0,0,0,0,0Z"/>
    <path className="st5" d="M288.5,341.1c0-.1,0-.3,0-.4,0,0,0,0,0,0-.2,0-.4-.2-.6-.2-.2,0-.3-.1-.5-.2-.1,0-.2,0-.3-.1,0,.6.1,1.2.2,1.7.4.2.7.3,1.1.4,0-.4.1-.7.1-1.1Z"/>
    <path className="st5" d="M290.9,341.4c-.3,0-.6-.1-.8-.2-.1,0-.3,0-.4-.1-.2,0-.5-.1-.7-.2-.1,0-.3-.1-.4-.2,0,.1,0,.3,0,.4,0,.3,0,.7-.1,1.1.8.3,1.6.5,2.5.7h0c0,0,.1,0,.2,0,0,0,0,0,.1,0,0-.5-.1-1-.2-1.6,0,0,0,0,0,0Z"/>
    <path className="st5" d="M314.4,326.5s-1.1,2.1-3.1,4.7c.1,0,.2-.2.3-.3.5-.4,1-.8,1.4-1.2.5-.4.9-.9,1.4-1.3.2-.2.5-.4.8-.6,0,0,.2-.1.3-.2.1-.2.2-.4.2-.4l-1.3-.7Z"/>
    <path className="st5" d="M273.5,323.5c.3.6.6,1.1,1,1.6.2.3.4.5.6.8l.3.4.2.3c-1.4-3.6-1.9-6.4-1.9-6.5l-1.5.2c0,0,0,.5.3,1.3,0,0,0,0,0,.1.3.5.6,1.1.9,1.7Z"/>
    <path className="st5" d="M279.7,333.9c0,0-.1-.2-.2-.2,0,0,.1.2.2.2Z"/>
    <path className="st5" d="M300.5,340c.1,0,.2-.1.3-.2-.1,0-.2.1-.3.2,0,0,0,0,0,0Z"/>
    <path className="st5" d="M301.8,339.4c-.2,0-.3.2-.5.3.2,0,.3-.2.5-.3Z"/>
    <path className="st5" d="M275.6,326.6h0c.4,1,.9,2,1.4,3.1,0,0,0,0,0,0,0,0,0,0,0,0-.6-1.1-1-2.1-1.4-3.1Z"/>
    <path className="st5" d="M281.2,335.7c0,0-.2-.2-.2-.3,0,0,.2.2.2.3Z"/>
    <path className="st5" d="M282.5,337s0,0,.1.1c0,0,0,0,0,0,0,0,0,0-.1-.1Z"/>
    <path className="st5" d="M278.3,331.9c0,0,0-.1-.1-.2,0,0,0,.1.1.2Z"/>
    <path className="st5" d="M302.9,338.8c-.2,0-.3.2-.5.3.2,0,.3-.2.5-.3Z"/>
    <path className="st5" d="M307.8,335.1c-.2.2-.3.3-.5.5.2-.2.3-.3.5-.5Z"/>
    <path className="st5" d="M303.9,338.2c-.2.1-.3.2-.5.3.2-.1.3-.2.5-.3Z"/>
    <path className="st5" d="M305.9,336.8c-.2.1-.3.3-.5.4.2-.1.3-.3.5-.4Z"/>
    <path className="st5" d="M306.9,335.9c-.2.1-.3.3-.5.4.2-.1.3-.3.5-.4Z"/>
    <path className="st5" d="M304.9,337.5c-.2.1-.3.2-.5.4.2-.1.3-.2.5-.4Z"/>
    <path className="st9" d="M300.4,340c-1.6-1-3.9-1.9-6.6-2.5-.6-.1-1.2-.3-1.8-.4-.1,0-.2,0-.3,0,0,0-.1,0-.2,0-.7,0-1.3-.2-1.9-.2-.5,0-1.1,0-1.6-.1-.7,0-1.4,0-2.1,0-1.2,0-2.3.2-3.3.4,0,0,0,0,0,0,0,0,.2.1.2.2.1.1.3.2.4.4.2.1.3.3.5.4.2.1.3.2.5.3.2.1.3.2.5.3,0,0,.1,0,.2.1.1,0,.2.1.3.2.2,0,.3.2.5.3.1,0,.3.1.4.2,0,0,0,0,.1,0,.2,0,.3.2.5.3,0,0,0,0,0,0,0,0,.1,0,.2,0,.1,0,.2,0,.3.1.2,0,.3.1.5.2.2,0,.4.2.6.2,0,0,0,0,0,0,.1,0,.3.1.4.2.2,0,.5.2.7.2.1,0,.3,0,.4.1.3,0,.6.1.8.2.1,0,.2,0,.3,0,0,0,0,0,0,0,.3,0,.6,0,.9,0,0,0,.2,0,.3,0,0,0,0,0,.1,0,0,0,.2,0,.3,0,.3,0,.5,0,.8,0,.2,0,.3,0,.5,0,0,0,0,0,0,0,.2,0,.4,0,.6,0,.2,0,.3,0,.5,0,.2,0,.4,0,.6,0,.2,0,.3,0,.5,0,.2,0,.4,0,.6-.1.2,0,.3,0,.5-.1.2,0,.4,0,.6-.2.2,0,.3,0,.5-.2.2,0,.4-.1.6-.2.2,0,.3-.1.5-.2.2,0,.4-.2.6-.2,0,0,0,0,0,0,0,0,0,0,.1,0,0,0,0,0,0,0Z"/>
    <g>
      <path className="st3" d="M317.5,323.2c-.8-1-2.2-1.1-3.1-.4-.9.7-1.1,2-.5,2.9,0,0,0,0,0,0,0,0,0,0,0,.1,0,0,0,.1,0,.2,0,.1,0,.3-.1.4-.1.3-.2.5-.4.8-.2.3-.3.5-.5.7-.2.2-.4.4-.6.6-.4.4-.9.8-1.3,1.1-.2.2-.5.4-.7.5l-.4.2-.4.2c-1,.6-2.1,1-3.2,1.3-1.1.2-2.3.3-3.4.1h0s-.1,0-.1,0h-.1s-.2,0-.2,0c-.1,0-.2,0-.3,0-.2,0-.4,0-.7-.1-.4,0-.9-.2-1.3-.4-.8-.3-1.7-.8-2.4-1.3-.4-.3-.7-.6-1-.9-.2-.2-.3-.3-.5-.5-.1-.2-.3-.3-.4-.5l-.2-.3-.2-.3c-.1-.2-.2-.4-.4-.6-.1-.2-.2-.4-.3-.6,0,0,0,0,0,0,0-.3,0-.6-.3-.9-.2-.3-.6-.4-.9-.5-.3,0-.5,0-.8,0-.4.2-.6.5-.7.8,0,0,0,0,0,0-.2.2-.3.3-.5.5-.2.2-.3.3-.5.4l-.3.2-.3.2c-.2.1-.4.3-.6.4-.2.1-.4.2-.6.3-.4.2-.8.4-1.2.5-.8.3-1.7.5-2.7.5-.5,0-.9,0-1.4,0-.2,0-.5,0-.7-.1-.1,0-.2,0-.3,0h-.2s-.1,0-.1,0h-.1s0,0,0,0c-1.1-.2-2.2-.6-3.2-1.2-1-.6-1.9-1.3-2.6-2.2l-.3-.3-.3-.3c-.2-.2-.4-.5-.5-.7-.3-.5-.6-1-.9-1.5-.1-.3-.3-.5-.4-.8-.1-.3-.2-.5-.3-.8,0-.3-.1-.6-.1-.9,0-.2,0-.3,0-.5,0,0,0-.2,0-.2,0,0,0,0,0-.1,0,0,0,0,0,0,.9-.8,1-2.2.2-3.1-.8-.9-2.2-1-3.1-.2-.9.7-1,2-.4,2.9l.8,1.1c0,0,0,0,0,.1,0,0,0,0,0,.1,0,0,.1.1.2.2.1.1.2.3.3.4.2.2.3.4.4.7-.2-.8-.3-1.3-.3-1.3l1.5-.2s.5,2.9,1.9,6.5h0c.8,1,1.8,1.9,2.9,2.6,1.1.7,2.3,1.2,3.5,1.5h0s.1,0,.1,0c0,0,.1,0,.2,0,.1,0,.3,0,.4.1.3,0,.5.1.8.2,0,0,.2,0,.3,0,0,0-.2,0-.3,0,0,0,0,0,0,0,0,0,0,0,0,0-.3,0-.5,0-.8-.2-.1,0-.3,0-.4-.1,0,0-.1,0-.2,0h-.1s0,0,0,0c-1.3-.3-2.5-.8-3.5-1.5-1.1-.7-2.1-1.6-2.9-2.5h0c.4.9.9,2,1.4,3,0,0,0,0,0,0,.4.7.7,1.4,1.1,2,0,0,0,.1.1.2.4.6.8,1.2,1.2,1.7,0,0,.1.2.2.2.4.5.8,1,1.3,1.5,0,0,.2.2.2.3.4.5.9.9,1.3,1.3,0,0,0,0,.1.1.9-.2,2.1-.3,3.3-.4.6-.6,1.4-1,2.3-1.1.5,0,1,0,1.4.1.4-.1.9-.2,1.4-.1,1.3.1,2.3.9,2.9,1.9,2.7.6,5,1.5,6.6,2.5.1,0,.2,0,.3-.2.2,0,.4-.2.5-.2.2,0,.3-.2.5-.3.2,0,.4-.2.5-.3.2,0,.3-.2.5-.3.2-.1.3-.2.5-.3.2-.1.3-.2.5-.3.2-.1.3-.2.5-.3.2-.1.3-.2.5-.4.2-.1.3-.2.5-.4.2-.1.3-.3.5-.4.2-.1.3-.2.5-.4.2-.1.3-.3.5-.4.2-.1.3-.3.5-.4.2-.2.3-.3.5-.5.2-.1.3-.3.5-.4,1.2-1.1,2.2-2.3,3-3.4-.1.1-.3.2-.4.3l-.4.3-.4.3c-1.1.7-2.3,1.2-3.6,1.5-1.2.3-2.5.4-3.8.3h0s-.1,0-.1,0c0,0-.1,0-.2,0-.1,0-.3,0-.4,0,0,0,0,0,0,0h0c-.1,0-.2,0-.3,0-.2,0-.3,0-.5,0,0,0,0,0,0,0,.2,0,.3,0,.5,0,.1,0,.2,0,.3,0,.1,0,.3,0,.4,0,0,0,.1,0,.2,0h.1s0,0,0,0c1.3.1,2.6,0,3.8-.3,1.3-.3,2.5-.8,3.6-1.5l.4-.3.4-.3c.1,0,.3-.2.4-.3h0s0,0,0,0c2-2.6,3.1-4.7,3.1-4.7l1.3.7s0,.2-.2.4c0,0,0,0,.1,0,0,0,.1,0,.2-.1,0,0,0,0,.1,0,0,0,0,0,.1,0l1.1-.8c1-.8,1.1-2.2.4-3.1ZM299.5,333.5c-1-.3-2-.8-3-1.4-.5-.3-.9-.6-1.3-1-.2-.2-.4-.4-.6-.5l-.3-.3h-.1c0-.1-.1-.3-.1-.3l-.3-.3-.3-.3c-.2-.2-.3-.4-.5-.6,0,0,0,0,0,0,0,0,0,0,0,0-.2.2-.4.3-.7.5l-.3.2-.4.2h-.2c0,.1-.2.2-.2.2l-.4.2c-.2.1-.5.2-.7.3-.5.2-1,.4-1.5.5-1.1.3-2.1.4-3.2.4-.3,0-.5,0-.8,0,.3,0,.5,0,.8,0,1.1,0,2.2-.1,3.2-.4.5-.1,1-.3,1.5-.5.3,0,.5-.2.7-.3l.4-.2h.2c0,0,.2-.2.2-.2l.4-.2.3-.2c.2-.1.4-.3.7-.5,0,0,0,0,0,0,0,0,0,0,0,0,0,0,0,0,0,0,0,0,0,0,0,0,.2.2.3.4.5.6l.3.3.3.3v.2c.1,0,.3.1.3.1l.3.3c.2.2.4.4.6.5.4.4.9.7,1.3,1,.9.6,1.9,1,3,1.4.5.1,1,.3,1.6.3-.5,0-1-.2-1.6-.3Z"/>
      <path className="st3" d="M294.7,319.5c4.7.7,9.5-3.7,9.9-6.3.3-1.6-1.1-2.5-3.2-3.1-1.4-.4-3.2-.7-5-1-1.5-.2-3-.5-4.2-.6-2.5-.2-4.2.2-4.5,2-.4,2.7,2.4,8.3,7.1,9ZM294.9,312c.2-.6,1.2-1,2.4-.8.9.1,1.6.5,1.9,1,.1.2.2.4.2.6-.1.7-1.2,1.1-2.4.9-1.2-.2-2.2-.9-2.1-1.6,0,0,0,0,0-.1Z"/>
    </g>
    <g>
      <path className="st17" d="M308.4,392.1c-.4-.3-.9-.6-1.3-.9-1.5-1-2.8-2.2-4.2-3.6-2.9-3-5.5-6.7-7.9-11.1-.7-1.4-1.4-2.9-2.1-4.4-1.2-2.9-2.4-5.9-3.4-9.2-1,3.1-2,6-3.2,8.8-.7,1.7-1.5,3.4-2.3,5-1.3,2.4-2.6,4.6-4.1,6.6-1.2,1.6-2.4,3.1-3.7,4.4-.1.1-.2.2-.3.3,1.7,2.6,3,4.9,3.7,6.6l-1,36.7c9.5,3.6,20,3.6,29.5,0l-1-36.7c.3-.7.7-1.5,1.2-2.4Z"/>
      <path className="st17" d="M282.5,330.8c0,0-.1,0-.2,0h-.1s0,0,0,0c-1.3-.3-2.5-.8-3.5-1.5-1.1-.7-2.1-1.6-2.9-2.5h0c0,0,0,0,0,0h0c.8,1,1.8,1.9,2.9,2.6,1.1.7,2.3,1.2,3.5,1.5h0s.1,0,.1,0c0,0,.1,0,.2,0,.1,0,.3,0,.4.1.3,0,.5.1.8.2,0,0,0,0,0,0-.3,0-.5,0-.8-.2-.1,0-.3,0-.4-.1Z"/>
      <path className="st17" d="M296.5,332.1c-.5-.3-.9-.6-1.3-1-.2-.2-.4-.4-.6-.5l-.3-.3h-.1c0-.1-.1-.3-.1-.3l-.3-.3-.3-.3c-.2-.2-.3-.4-.5-.6,0,0,0,0,0,0,0,0,0,0,0,0,0,0,0,0,0,0,.2.2.3.4.5.6l.3.3.3.3v.2c.1,0,.3.1.3.1l.3.3c.2.2.4.4.6.5.4.4.9.7,1.3,1,.9.6,1.9,1,3,1.4.5.1,1,.3,1.6.3-.5,0-1-.2-1.6-.3-1-.3-2-.8-3-1.4Z"/>
      <path className="st17" d="M301,333.8s0,0,0,0c0,0,0,0,0,0,0,0,0,0,0,0Z"/>
      <path className="st17" d="M354.5,254.2c-45.2-4.8-52.2,45.6-53.1,55.8,2.1.6,3.5,1.5,3.2,3.1-.4,2.7-5.2,7.1-9.9,6.3-4.7-.7-7.5-6.3-7.1-9,.3-1.8,2-2.1,4.5-2,2.2-10.2,10.9-60.1-33.6-69.3-44.7-9.3-39.9,68.7-38.6,84.1.5.6,1,1.3,1.5,1.9,6.2,8,17.1,19.4,34.2,27.4,0,0,0,0,.1,0,2.3,1.1,4.7,2.1,7.3,3,5.3,1.9,11.1,3.5,17.5,4.6.7.1,1.3.2,2,.3.5,0,1,.2,1.6.2.7,0,1.4.2,2.1.3.5,0,1,.1,1.6.2,0,0,0,0,0,0,0,0,.1,0,.2,0,.4,0,.7.1,1.1.2,0,0,0,0,.1,0,.2,0,.5,0,.7.1.6.1,1.1.2,1.7.3.6,0,1.1.2,1.6.3.8.1,1.6.3,2.4.4.5,0,1.1.1,1.6.2,3.1.4,6.1.6,9.1.7,5.9.2,11.4-.2,16.5-.9,3.1-.4,6-1,8.8-1.7h0s0,0,0,0c1.2-.3,2.3-.6,3.5-.9,0,0,.2,0,.3,0,11.4-3.3,20.2-8.3,26.2-12.4,1.7-1.1,3.2-2.2,4.6-3.3,7.3-17.8,31.8-85.3-11.8-90ZM259.3,300c-5.7-1-9.4-6.4-8.4-12.1,1-5.7,6.4-9.4,12.1-8.4,5.7,1,9.4,6.4,8.4,12.1-1,5.7-6.4,9.4-12.1,8.4ZM317.1,326.3l-1.1.8c0,0,0,0-.1,0,0,0,0,0-.1,0,0,0-.1.1-.2.1,0,0,0,0-.1,0-.6,1.2-2.7,4.7-6.1,8.1-2.1,2.1-4.3,3.7-6.6,4.9-2.8,1.5-5.8,2.3-8.8,2.4-.4,0-.8,0-1.2,0-.3,0-.5,0-.8,0-.2,0-.5,0-.7,0h0s0,0,0,0c0,0,0,0-.1,0,0,0-.1,0-.2,0h0c-.8-.2-1.7-.5-2.5-.8-.4-.1-.7-.3-1.1-.4-.2,0-.4-.2-.6-.3-.6-.3-1.1-.5-1.7-.9-.4-.2-.8-.5-1.1-.7-3.3-2.2-6.1-5.4-8.2-9.5-1.9-3.6-2.8-6.9-3.2-8.7-.1-.2-.3-.4-.4-.7,0-.1-.2-.3-.3-.4,0,0-.1-.1-.2-.2,0,0,0,0,0-.1,0,0,0,0,0-.1l-.8-1.1c-.6-.9-.5-2.2.4-2.9.9-.8,2.3-.7,3.1.2.8.9.7,2.3-.2,3.1,0,0,0,0,0,0,0,0,0,0,0,.1,0,0,0,.2,0,.2,0,.2,0,.3,0,.5,0,.3,0,.6.1.9,0,.3.2.6.3.8.1.3.3.5.4.8.3.5.6,1,.9,1.5.2.2.3.5.5.7l.3.3.3.3c.8.9,1.7,1.6,2.6,2.2,1,.6,2.1,1,3.2,1.2h0s.1,0,.1,0h.1s.2,0,.2,0c.1,0,.2,0,.3,0,.2,0,.4,0,.7.1.5,0,.9,0,1.4,0,.9,0,1.8-.2,2.7-.5.4-.2.8-.3,1.2-.5.2,0,.4-.2.6-.3.2-.1.4-.2.6-.4l.3-.2.3-.2c.2-.1.3-.3.5-.4.2-.1.3-.3.5-.5,0,0,0,0,0,0,.1-.3.4-.6.7-.8.3-.1.5-.1.8,0,.3,0,.7.2.9.5.2.2.3.6.3.9,0,0,0,0,0,0,.1.2.2.4.3.6.1.2.2.4.4.6l.2.3.2.3c.1.2.3.4.4.5.2.2.3.3.5.5.3.3.7.6,1,.9.7.5,1.5,1,2.4,1.3.4.2.9.3,1.3.4.2,0,.4,0,.7.1.1,0,.2,0,.3,0h.2s.1,0,.1,0h.1s0,0,0,0c1.1.2,2.3.1,3.4-.1,1.1-.3,2.2-.7,3.2-1.3l.4-.2.4-.2c.2-.2.5-.3.7-.5.5-.4.9-.7,1.3-1.1.2-.2.4-.4.6-.6.2-.2.4-.5.5-.7.2-.3.3-.5.4-.8,0-.1,0-.3.1-.4,0,0,0-.1,0-.2,0,0,0,0,0-.1,0,0,0,0,0,0-.6-.9-.4-2.2.5-2.9,1-.8,2.4-.6,3.1.4.8,1,.6,2.4-.4,3.1ZM343.8,304.6c-1,5.7-6.4,9.4-12.1,8.4-5.7-1-9.4-6.4-8.4-12.1,1-5.7,6.4-9.4,12.1-8.4,5.7,1,9.4,6.4,8.4,12.1Z"/>
      <path className="st17" d="M301.9,333.9h0c-.1,0-.2,0-.3,0,.1,0,.2,0,.3,0Z"/>
      <path className="st17" d="M308.3,334.6c-.1.1-.3.3-.5.4.2-.1.3-.3.5-.4,1.2-1.2,2.2-2.3,3-3.4,0,0,0,0,0,0-.8,1.1-1.8,2.3-3,3.4Z"/>
      <path className="st17" d="M284.8,338.8c0,0,.1,0,.2.1.1,0,.2.1.3.2-.1,0-.2-.1-.3-.2,0,0-.1,0-.2-.1Z"/>
      <path className="st17" d="M294,341.5s0,0,0,0c.2,0,.4,0,.6,0-.2,0-.4,0-.6,0,0,0,0,0,0,0Z"/>
      <path className="st17" d="M285.8,339.4c.1,0,.3.1.4.2,0,0,0,0,.1,0,0,0,0,0-.1,0-.1,0-.3-.1-.4-.2Z"/>
      <path className="st17" d="M286.9,340s0,0,0,0c0,0,0,0,0,0,0,0,.1,0,.2,0,.1,0,.2,0,.3.1-.1,0-.2,0-.3-.1,0,0-.1,0-.2,0Z"/>
      <path className="st17" d="M291.2,341.5h0c.3,0,.6,0,.9,0,0,0,.2,0,.3,0,0,0-.2,0-.3,0-.3,0-.6,0-.9,0Z"/>
      <path className="st17" d="M290,341.2c.3,0,.6.1.8.2.1,0,.2,0,.3,0-.1,0-.2,0-.3,0-.3,0-.6-.1-.8-.2Z"/>
      <path className="st17" d="M296.9,313.7c1.2.2,2.3-.2,2.4-.9,0-.2,0-.4-.2-.6-.3-.5-1-.9-1.9-1-1.2-.2-2.2.2-2.4.8,0,0,0,0,0,.1-.1.7.8,1.4,2.1,1.6Z"/>
    </g>
    <path className="st16" d="M263,279.5c-5.7-1-11.1,2.8-12.1,8.4-1,5.7,2.8,11.1,8.4,12.1,5.7,1,11.1-2.8,12.1-8.4,1-5.7-2.8-11.1-8.4-12.1ZM268.3,287.6c-.3,1.8-2.1,3-3.9,2.7-1.8-.3-3-2.1-2.7-3.9s2.1-3,3.9-2.7c1.8.3,3,2.1,2.7,3.9Z"/>
    <path className="st16" d="M335.3,292.5c-5.7-1-11.1,2.8-12.1,8.4-1,5.7,2.8,11.1,8.4,12.1,5.7,1,11.1-2.8,12.1-8.4,1-5.7-2.8-11.1-8.4-12.1ZM340.6,300.6c-.3,1.8-2.1,3-3.9,2.7-1.8-.3-3-2.1-2.7-3.9.3-1.8,2.1-3,3.9-2.7,1.8.3,3,2.1,2.7,3.9Z"/>
    <g>
      <path className="st10" d="M402.6,155.9c-1.3-1.2-2.9-1.8-4.5-1.9.6-2.5,0-5.2-2.1-7.1-2.9-2.7-7.5-2.5-10.2.4-2.9-2.7-7.5-2.5-10.2.4,0,0-.1.2-.2.3-2,2.3-2.2,5.6-.8,8.1-.8.4-1.5.9-2.1,1.6-1.1,1.2-1.7,2.6-1.9,4.1-.3,2.2.5,4.5,2.3,6.2,1.4,1.3,3.2,1.9,5,1.9.1,1.8.9,3.6,2.3,4.9,2.3,2.2,5.7,2.5,8.4,1,0,0,.2.2.3.3,2.9,2.7,7.5,2.5,10.2-.4,2-2.1,2.4-5.1,1.4-7.7.9-.4,1.8-1,2.5-1.8,2.7-2.9,2.5-7.5-.4-10.2ZM398.3,167.7c.2.4.3.9.3,1.4,0,1.9-1.5,3.4-3.4,3.4s-3.4-1.5-3.4-3.4,0,0,0-.1c-.4,0-.8.1-1.3.1-3.6,0-6.6-2.9-6.6-6.6s.7-3.4,1.9-4.6c-1.1-.8-1.9-2.1-1.9-3.6,0-2.5,2-4.4,4.4-4.4s4.4,2,4.4,4.4-.2,1.4-.4,1.9c0,0,.1,0,.2,0,.6-.8,1.6-1.3,2.7-1.3,1.9,0,3.4,1.5,3.4,3.4s0,0,0,.1c2,.5,3.6,2.3,3.6,4.5s-1.7,4.2-3.9,4.6Z"/>
      <path className="st10" d="M354.9,200.2c-2.1-1.5-4.6-2.5-7.3-2.6-1.3,0-2.5,0-3.7.3-2.3-3.7-6.3-6.3-11-6.6-4.2-.3-8.1,1.4-10.8,4.2-2.3-2.3-5.5-3.9-9.1-4.1-2.9-.2-5.6.5-7.9,1.9-2.3-2.4-5.6-4-9.2-4.2-5.1-.3-9.8,2.2-12.5,6.2-1.6-.8-3.5-1.3-5.4-1.4-2.8-.2-5.4.5-7.7,1.8-1,.5-1.8,1.2-2.7,1.9-2,1.9-3.5,4.4-4.2,7.2,0,.2-.1.5-.1.7,0,.5-.2,1-.2,1.6,0,1.5,0,3,.4,4.4.3,1.1.7,2.2,1.3,3.2,2.2,4,6.4,6.9,11.4,7.2,3.2.2,6.1-.7,8.6-2.3,1.4,5.8,6.5,10.3,12.8,10.7,5.4.3,10.2-2.4,12.8-6.7,2,4.8,6.6,8.3,12.1,8.7,6.8.4,12.8-4.1,14.4-10.5,2.3,2.3,5.4,3.7,8.9,4,2.7.2,5.2-.4,7.4-1.6,1-.5,1.9-1.2,2.8-1.9.2-.2.4-.4.6-.6.7-.7,1.3-1.5,1.9-2.3,1.3-1.9,2-4.2,2.2-6.7,0-.3,0-.6,0-1,0-4.6-2.3-8.7-5.8-11.2ZM353,214.4c-.3.5-.7,1-1.2,1.5-1.6,1.7-3.9,2.8-6.5,2.8s-4.8-1-6.4-2.7c-.7,4.2-4.4,7.4-8.8,7.4s-.7,0-1,0c-1.6,2-4.1,3.3-7,3.3s-7.3-2.5-8.5-6.1c-.2,0-.3,0-.5,0-1.5,0-2.9-.4-4.2-1-1.2,3.6-4.5,6.1-8.5,6.1s-9-4-9-9,0-1.4.3-2.1c-.6-.3-1.2-.6-1.7-.9-1.5,1.1-3.3,1.8-5.3,1.8-4.8,0-8.8-3.9-8.8-8.8s0-1.3.2-1.9c.5-2.3,1.9-4.3,3.8-5.5,1.4-.9,3-1.4,4.7-1.4s1.1,0,1.6.2c2-3.4,5.7-5.6,9.9-5.6s8.8,2.9,10.6,7c.2.4.3.8.5,1.3.2-.4.5-.8.7-1.1,1.6-2.1,4.2-3.5,7.1-3.5s5.6,1.5,7.2,3.7c1.7-2.4,4.5-4,7.7-4s8.2,3.2,9.1,7.4c1.6-1.5,3.8-2.4,6.1-2.4,4.9,0,8.9,4,9,8.9,0,0,0,0,0,0,0,1.1-.2,2.1-.5,3-.2.6-.5,1.2-.8,1.7Z"/>
    </g>
    <g>
      <path className="st12" d="M402.2,163.1c0-2.2-1.5-4-3.6-4.5,0,0,0,0,0-.1,0-1.9-1.5-3.4-3.4-3.4s-2,.5-2.7,1.3c0,0-.1,0-.2,0,.3-.6.4-1.2.4-1.9,0-2.5-2-4.4-4.4-4.4s-4.4,2-4.4,4.4.7,2.8,1.9,3.6c-1.2,1.2-1.9,2.8-1.9,4.6,0,3.6,2.9,6.6,6.6,6.6s.9,0,1.3-.1c0,0,0,0,0,.1,0,1.9,1.5,3.4,3.4,3.4s3.4-1.5,3.4-3.4-.1-1-.3-1.4c2.2-.4,3.9-2.3,3.9-4.6Z"/>
      <path className="st12" d="M265.6,283.8c-1.8-.3-3.5.9-3.9,2.7s.9,3.5,2.7,3.9c1.8.3,3.5-.9,3.9-2.7.3-1.8-.9-3.5-2.7-3.9Z"/>
      <path className="st12" d="M337.9,296.8c-1.8-.3-3.5.9-3.9,2.7-.3,1.8.9,3.5,2.7,3.9,1.8.3,3.5-.9,3.9-2.7.3-1.8-.9-3.5-2.7-3.9Z"/>
      <path className="st12" d="M345.4,200.7c-2.4,0-4.5.9-6.1,2.4-.9-4.2-4.6-7.4-9.1-7.4s-6,1.6-7.7,4c-1.6-2.2-4.3-3.7-7.2-3.7s-5.5,1.4-7.1,3.5c-.3.4-.5.7-.7,1.1-.1-.4-.3-.9-.5-1.3-1.7-4.1-5.8-7-10.6-7s-7.9,2.3-9.9,5.6c-.5,0-1.1-.2-1.6-.2-1.7,0-3.4.5-4.7,1.4-1.9,1.2-3.3,3.2-3.8,5.5-.1.6-.2,1.2-.2,1.9,0,4.8,3.9,8.8,8.8,8.8s3.8-.7,5.3-1.8c.5.3,1.1.6,1.7.9-.2.7-.3,1.4-.3,2.1,0,4.9,4,9,9,9s7.3-2.6,8.5-6.1c1.2.7,2.7,1,4.2,1s.3,0,.5,0c1.2,3.5,4.5,6.1,8.5,6.1s5.3-1.3,7-3.3c.3,0,.7,0,1,0,4.4,0,8.1-3.2,8.8-7.4,1.6,1.7,3.9,2.7,6.4,2.7s4.8-1.1,6.5-2.8c.4-.5.8-1,1.2-1.5.3-.5.6-1.1.8-1.7.3-.9.5-2,.5-3s0,0,0,0c0-4.9-4-8.9-9-8.9Z"/>
    </g>
  </g>
  <g id="frame">
    <rect className="st0" x="96.1" y="235.8" width="141.8" height="220.4"/>
    <rect className="st0" x="96.1" y="26.3" width="141.8" height="185.4"/>
    <rect className="st0" x="262.1" y="235.8" width="141.8" height="220.4"/>
    <rect className="st0" x="262.1" y="26.3" width="141.8" height="185.4"/>
    <path className="st12" d="M430.3,456.2V-.1H69.7v456.4h-10.6v44.2h381.9v-44.2h-10.6ZM237.9,456.2H96.1v-220.4h141.8v220.4ZM237.9,211.7H96.1V26.3h141.8v185.4ZM403.9,456.2h-141.8v-220.4h141.8v220.4ZM403.9,211.7h-141.8V26.3h141.8v185.4Z"/>
  </g>
  <g id="number">
    <path className="st4" d="M146.3,88.3c-6.3,13.1-13.7,35.8-16.5,35.8s-8-5.7-8-8.5,12.9-28.4,14.2-31.2l-.4-.2c-2.3,3.1-6.8,7-8.6,7s-1.8-.3-1.8-.6,6.3-6.1,12.4-15.7c5.8-9.2,10.5-19.5,13.5-19.5s8.9,2.4,8.9,4.2c0,3.9-7.1,15.7-13.6,28.7Z"/>
    <path className="st4" d="M162.4,124c-6.8,0-15.7-3-15.7-11.1s3.9-8.6,9-8.6,6.3,2.3,6.3,5.6-1.1,4-2.8,5.6c-.2,0-1.6,1.1-1.6,1.2,0,1,3.9,1.4,4.2,1.4,8,0,17.4-11.7,21.3-17.9l-.3-.3c-3,1.7-6.9,2.5-10.3,2.5-9.5,0-13.4-7.6-13.4-16.1,0-14.7,14.6-30.6,29.6-30.6s18.3,6.8,18.3,18.5c0,21.9-21.3,49.8-44.5,49.8ZM189.4,63.9c-9.7,0-17.4,15.7-17.4,24.1s1.5,8,6.3,8,7.5-1.5,9.7-4.1c2.8-3.3,7-16.3,7-20.5s-1.3-7.5-5.7-7.5Z"/>
  </g>
</svg>