<?xml version="1.0" encoding="UTF-8"?>
<svg id="Layer_2" xmlns="http://www.w3.org/2000/svg" width="500" height="500" version="1.1" viewBox="0 0 500 500">
  <!-- Generator: Adobe Illustrator 29.0.1, SVG Export Plug-In . SVG Version: 2.1.0 Build 192)  -->
  <defs>
    <style>
      .st0 {
        fill: none;
      }

      .st1 {
        fill: #60bbea;
      }

      .st2 {
        fill: #ed912f;
      }

      .st3 {
        fill: #94cce6;
      }

      .st4 {
        fill: #f7dc5d;
      }

      .st5 {
        fill: #e07b26;
      }

      .st6 {
        fill: #87674c;
      }

      .st7 {
        fill: #c4e5c8;
      }

      .st8 {
        fill: #fff;
      }

      .st9 {
        fill: #73563c;
      }

      .st10 {
        fill: #f1b130;
      }

      .st11 {
        fill: #1d63a7;
      }

      .st12 {
        fill: #134b8d;
      }

      .st13 {
        fill: #f4c04c;
      }

      .st14 {
        fill: #2f7abe;
      }

      .st15 {
        fill: #59aa46;
      }

      .st16 {
        fill: #389cd7;
      }

      .st17 {
        fill: #eb4324;
      }

      .st18 {
        fill: #b0d9ed;
      }

      .st19 {
        fill: #46b875;
      }

      .st20 {
        fill: #338e44;
      }
    </style>
  </defs>
  <g id="color">
    <rect class="st7" x="82.4" y="9.6" width="335.2" height="467"/>
  </g>
  <path id="frame" class="st8" d="M428.4,454.3V-.4H69.1v454.7h-10.6v44.1h380.5v-44.1h-10.6ZM402.1,25.9v423.3H95.4V25.9h306.7Z"/>
  <g id="number">
    <path d="M143.7,88.9c0,6.1,4.2,8.7,8,8.7,8.5,0,14.5-8.5,14.5-19.7v-.2c0-.3-.2-.5-.5-.5-.5,0-5.5,12.8-11.4,12.8s-1.8-.7-1.8-2.1c0-7,9.3-16.4,18.1-16.4s8.3,2.6,8.3,6.3c0,10.5-11.2,17.3-21.7,23.9-12.1,7.5-25.7,15-25.7,23.7s.8,2.6,1.5,3.2c.5.5,2.2.8,3.9.8s2.1,0,2.9-.4c1.2-.6,3.8-5.9,9-5.9s11.2,5.5,18,5.5,15.6-11.7,15.6-14.9,0-.7-.4-.7-2.2,3.3-6.8,3.3-11.8-2.6-19.1-2.6-9.5,2.6-9.9,2.6-.6-.3-.6-.6c0-1.8,8.8-6.8,19.5-9.7,11.1-3,25.2-12,25.2-26.2s-7.1-13.7-17.1-13.7c-16.9,0-29.4,14.1-29.4,22.8h-.1Z"/>
    <path d="M198.2,102.5c.6,0,6-7.4,14.9-7.4s4.3,1.8,4.3,4.6c0,7.7-10.3,22.6-18.8,22.6s-6.5-2.2-6.5-5.3,0-.9.3-.9,2,1.2,3.9,1.2c4.8,0,8.2-3.7,8.2-7.8s-2.6-5.6-6.3-5.6c-5.5,0-12.2,5.2-12.2,12.5s6.2,12.9,16,12.9,28.9-14.4,28.9-27.2-5.1-13.6-13.4-13.6-8.4,1.6-11.5,3.7l-.3-.2c1.6-2.2,9.5-16.7,10-16.7s5.8,2.7,13.3,2.7,15.3-9,15.3-11.3-.5-.5-.6-.5-1.5,1.8-8.4,1.8c-11.9,0-20-2.8-20.9-2.8s-6.2,10.3-11.2,18.9c-5.1,8.7-8.6,14.1-8.6,15s3,3.2,3.7,3.2v.2Z"/>
  </g>
  <g>
    <polygon class="st0" points="257 275.6 257.1 275.7 257.1 279.7 257.1 275.7 257 275.6"/>
    <path class="st0" d="M262.3,311.9c-.2.5-.3.9-.4,1.4h2.7s-10.2,17.9-10.2,17.9c.2.5.5,1,.7,1.5l.6-.6h.1s0,.2,0,.2c.1.3.3.4.6.6h.4c9.2-5.4,17.4-14.4,22.3-23.8,1.6-3.2,2.8-6.4,3.9-9.7l1.1-4.4c0-.3,0-.2-.2-.4h-14.5s-.2.5-.2.5c0,1.5-.1,3.1-.7,4.5-1.4,4.4-3.7,8.4-6.3,12.2Z"/>
    <path class="st0" d="M251.4,325.9l1.5-2.6,2.9-5h-8.9s3.5,6.1,3.5,6.1c.2.3.7,1.4,1,1.6Z"/>
    <path class="st0" d="M200.8,326.8c2.6,2.3,5.5,4.3,8.4,6.4.8-.8,1.3-2.1,1.9-3l-9.7-16.8c-.1-.2-.2-.3-.3-.6.8-.3,1.7.1,2.4-.4v-.3c-2.3-4-4.3-7.8-5.5-12.3l-.7-5h-14.8s0,.5,0,.5l.9,4.4c2.8,10.4,9.4,20.1,17.4,27.1Z"/>
    <polygon class="st0" points="233.3 304.8 228.6 313.3 238.1 313.3 233.3 304.8"/>
    <path class="st0" d="M245.5,326.5l-4.7-8.3h-14.5c0,0-.6,0-.6,0l-7.6,13.5,6.6,11.7v.2c0,0,16.6,0,16.6,0l6.9-12h0c-.7-1.8-1.8-3.5-2.7-5.1Z"/>
    <path class="st0" d="M232.7,356.7l.5.7c.6-.8,1.1-1.7,1.6-2.6l3.4-5.8h-9.8s3.3,5.7,3.3,5.7l1.1,1.9Z"/>
    <path class="st0" d="M296.8,294.7c0,.7.1,1.5,0,2.2l-.5,2.9c-.7,2.6-1.4,5.3-2.4,7.8-5.6,14.8-16.4,27.5-30,35.5l-1.1.6c-.4.2-.8.5-1.2.6l2.8,4.7h-20.3c0,0-4.9,8.3-4.9,8.3-.6.9-1.1,2-1.7,2.9l.9,2.5c2.8,0,5.8-.5,8.6-1,11.2-2,21.6-6.7,31-13.1,12.9-8.8,22.9-21.9,28.6-36.3,1.6-4.1,3-8.3,3.8-12.6l.9-5h-14.6Z"/>
    <path class="st0" d="M257.1,282.1h0s8.1,0,8.1,0c.3,0,.6,0,.9,0-.3,0-.6,0-.8,0h-8.1Z"/>
    <path class="st0" d="M247.5,343.6h7.8l-3.9-6.9c-1.3,2.2-2.9,4.5-3.9,6.9Z"/>
    <path class="st0" d="M211.4,343.5c1.8.2,3.6,0,5.3,0,.6,0,1.6.1,2.1-.2l-3.9-6.6c-1.3,2.2-2.6,4.4-3.5,6.7Z"/>
    <path class="st0" d="M213.1,318.2c-.8,0-1.8-.1-2.6,0l4.5,7.8,4.5-7.8h-6.4Z"/>
    <path class="st0" d="M228.8,360.8v-.5s-6.6-11.1-6.6-11.1h0c-.7-.2-1.6-.1-2.3-.1h-3.8s-14.4,0-14.4,0l2.7-4.6c-.3-.3-.7-.6-1.1-.8l-5.2-3.2c-9.9-6.8-17.7-15.9-23-26.8-2.1-4.4-3.9-9.1-4.8-13.9-.4-1.6-.5-3.4-.7-5-1.2-.2-2.8,0-4.1,0h-10.3s.8,5.1.8,5.1c2,9.9,6.2,19,11.8,27.3,2.2,3.2,4.5,6.4,7.2,9.2,5,5.4,10.6,10,16.7,14,8.7,5.8,19.1,9.5,29.3,11.3,2.2.4,4.5.8,6.8.9h.2c.2-.7.4-1.4.9-1.8Z"/>
    <path class="st0" d="M220.2,311.9c.7.5,1.4.9,2.1,1.2.7-.7,1.2-1.9,1.6-2.7l2.9-5.1c.5-1,1.1-2,1.7-2.8,0-.1.1-.3.1-.4,0-.4,0-.6-.1-.9-1-1.2-1.6-2.7-1.8-4.3-.2-.7,0-1.5,0-2.2h-11.6s-3.2,0-3.2,0c-.5,0-1.1,0-1.6.1l1.4,4.7c1.9,4.8,4.9,8.8,8.6,12.4Z"/>
    <path class="st0" d="M238.1,302.5l3.6,6.4c.8,1.4,1.6,3,2.5,4.4.7,0,1.5-.9,2-1.4,3.7-3.6,6.6-7.7,8.9-12.3l1.4-4.9h-16.7c0,2.4-.5,4.3-1.7,6.4-.1.5-.1.9-.1,1.4Z"/>
    <path class="st13" d="M234.1,225.5l.4-.2-.5-.2h0c-.5.3-.5.2-1,0h-1.1s.8.1.8.1c.3.5.1,1.9.1,2.5h1.2s0-2.3,0-2.3Z"/>
    <path class="st4" d="M149.9,242.4h-.1c-.4,0-.7,0-1.1,0h-.2c0,0,.1,2.8.1,2.8h1.3s0-2.7,0-2.7Z"/>
    <path class="st4" d="M291.4,245.2v-2.9s-.7,0-.7,0c-.3,0-.3,0-.6,0-.2.9-.2,2-.2,2.9h1s.4,0,.4,0Z"/>
    <path class="st4" d="M318.2,245.2c.2-.9,0-1.9,0-2.9h-.4s-.5,0-.5,0h-.4s0,2.9,0,2.9h1.2s.1,0,.1,0Z"/>
    <path class="st4" d="M264.5,242.3h-1.2c-.4.9-.3,2-.2,3h1.4c.2-.7,0-2.2,0-3Z"/>
    <path class="st4" d="M203.6,242.4h-.5s-.2,0-.2,0c-.4-.3-.8-.2-1.2-.2h.2s.6.1.6.1v.2c-.4.7-.3,2.1-.3,2.8h1.5s0-3.1,0-3.1Z"/>
    <path class="st4" d="M177.1,242.4h-.3c0,0-.6,0-.6,0h-.5c-.2,1.1,0,2.3,0,3.3.5,0,.9,0,1.4,0v-3.2Z"/>
    <path class="st3" d="M264.4,250.3h9.9c.3,0,.7,0,1-.1v-4.9s-10.8,0-10.8,0v4.7c0,.2,0,.1,0,.3Z"/>
    <path class="st3" d="M291,250.2h4.4c.7,0,1.5,0,2.1,0h2.9s1.5,0,1.5,0v-5.1s-10.6,0-10.6,0h-.4c0,0,0,5,0,5Z"/>
    <path class="st18" d="M291,245.3h-1s-11-.1-11-.1v3.6c0,.3,0,1,0,1.2,0,0,.1.1.2.2h.9s11,0,11,0v-5Z"/>
    <path class="st18" d="M264.4,250.3c0-.2,0-.1,0-.3v-4.7c0,0-1.3,0-1.3,0h-11.2c0,0,0,5,0,5h1.2s11.3,0,11.3,0h.1Z"/>
    <path class="st20" d="M297.1,264.1h-6.2s0,5.1,0,5.1c0,.8,0,1.7-.1,2.4h0c.4,0,.7,0,1.1,0,.4,0,.7,0,1.1,0,1,0,2.1,0,3.1-.2h0s0,0,0,0h0c2-.8,3.3-1.6,4.3-3.7.4-.9,1-2.6.6-3.6h-.6c-1.1,0-2.3,0-3.4,0Z"/>
    <path class="st20" d="M264.2,264.3c-.1.7,0,1.5,0,2.2v5.1c-.6,0-1.7-.1-2.3,0h7.4c1.5-.4,2.9-1,3.9-2.2,1.3-1.5,1.9-3.3,1.8-5.3h-.5c0,0-10.2,0-10.2,0v.2Z"/>
    <path class="st15" d="M197.5,271.6h5.2s0,0,0,0c.1-.9,0-1.9,0-2.8v-4.9c0,0-10,0-10,0h-1.1c-.2.3-.1.5,0,.8.2,2.1.9,4.1,2.6,5.5.8.6,2.2,1.4,3.3,1.3h0Z"/>
    <polygon class="st11" points="323.6 282.2 323.6 282.2 323.6 275.8 311.5 275.7 311.5 282.1 311.5 282.1 323.6 282.2"/>
    <path class="st20" d="M202.8,268.8c0,.9,0,1.9,0,2.8h7.1c0-.1.1-.2.1-.2h0s0,0,0,0l.6-.3c1.7-.8,2.8-2.3,3.4-4,.2-.7.6-2.5.3-3.1h-1.1s-10.5,0-10.5,0v4.9Z"/>
    <path class="st15" d="M290.8,271.6c.2-.7.1-1.7.1-2.4v-5.1c0,0-.1,0-.1,0h-10.8s-.8,0-.8,0c-.3.3-.2,1-.2,1.5.1,1.9,1,3.5,2.4,4.7.7.6,1.6,1,2.5,1.3v3.3s0-3.2,0-3.2h6.7Z"/>
    <path class="st15" d="M261.8,271.6c.6-.2,1.6,0,2.2,0v-5.1c0-.7,0-1.5,0-2.2v-.2s-11.1,0-11.1,0h-1c-.3.3-.2.8-.1,1.3.2,1.9,1,3.6,2.5,4.8.8.6,1.7.8,2.5,1.3,1.5.2,3.3.2,4.9,0Z"/>
    <path class="st18" d="M226.6,232.1h6.9s9.8,0,9.8,0c.2,0,.9,0,1.1,0,0,0,.2-.1.2-.2,0-.2,0-.8,0-1.1v-3.2s-10.5.1-10.5.1h-1.2s-11-.2-11-.2v4.4c.3.2.7.1,1.1,0h0c1.2-.1,2.5,0,3.7,0Z"/>
    <path class="st18" d="M184.5,250.3c.5,0,1.9.2,2.3,0,.4,0,.9,0,1.2-.2v-4.6s-10.8,0-10.8,0c-.5,0-.9,0-1.4,0h-10.9c0,0,0,4.6,0,4.6h1.7c0,0,9.7.1,9.7.1h8.2Z"/>
    <path class="st18" d="M213.1,250.4c.3,2.7,0,5.5,0,8.2.2-.9,0-2,0-2.9v-5.3s1.3,0,1.3,0v-4.9c-.1,0-10.9,0-10.9,0h-1.5s-10.6,0-10.6,0v4.7c.4,0,.8,0,1.3,0h15.5c.9,0,4.1-.2,4.8.1Z"/>
    <path class="st18" d="M138.9,259.8v-9.6s10.5,0,10.5,0h9.8c.4-.1,1,0,1.5,0v-5.1s-10.9,0-10.9,0h-1.3s-11,0-11,0v5c.3.2,1.2.1,1.3.3.2,1,0,2.1,0,3.1v6.8c0,1.2,0,2.4,0,3.5.3-1.1,0-2.8,0-4Z"/>
    <path class="st18" d="M318.1,250.4h10.1s0,5.1,0,5.1c.1-.6,0-1.3,0-2v-3.3s1.7,0,1.7,0v-5s-11.7,0-11.7,0h-.1c0,0-1.2,0-1.2,0h-10.8c0,0,0,3.6,0,3.6,0,.3,0,1,0,1.2,0,0,.1.1.2.2h.6c0,0,11,0,11,0h0Z"/>
    <path class="st11" d="M257.1,279.7v2.4h8.1c.3,0,.6,0,.8,0,.8,0,1.6,0,2.4,0,.2,0,.5,0,.7,0v-6.6s-12.1,0-12.1,0v4Z"/>
    <path class="st12" d="M257.1,275.7h12.1c0,0,0-4.2,0-4.2h-7.4c-1.5.1-3.3.1-4.9,0v4.1s0,0,0,0h0Z"/>
    <path class="st10" d="M297.3,250.4h-6.3s0,8.8,0,8.8v3.3c0,.5.1,1.1-.1,1.6h0s6.2,0,6.2,0c1.1,0,2.3,0,3.4,0-.3-.7-.1-12.1-.1-13.8h-2.9s-.2.1-.2.1Z"/>
    <path class="st10" d="M176.2,259.7v-9.3c0,0-9.7,0-9.7,0v13.7c0,0,9.7,0,9.7,0-.2-1.4,0-2.9,0-4.4Z"/>
    <polygon class="st9" points="149.4 263.9 159.3 264 159.3 250.2 149.5 250.2 149.4 263.9"/>
    <path class="st6" d="M202.7,250.4h10.4c-.7-.3-3.9-.1-4.8-.1h-15.5s0,13.7,0,13.7h9.9s0-13.6,0-13.6Z"/>
    <path class="st9" d="M318.1,250.4c-.3,2.1,0,4.4,0,6.5,0,2.3-.1,4.8,0,7.1h7.2c.9,0,2.1,0,2.9,0v-8.6s0-5.2,0-5.2h-10.1Z"/>
    <path class="st10" d="M264.3,250.3c-.2,1.1-.1,2.3-.1,3.5v6.8c0,1.2,0,2.4,0,3.5h10.2c-.2-.4-.1-.9-.1-1.3v-2.8s0-9.7,0-9.7h-9.9s-.1,0-.1,0Z"/>
    <path class="st9" d="M213.1,250.4h-10.4s0,13.6,0,13.6h10.5s0-5.4,0-5.4c-.1-2.7.2-5.5,0-8.2Z"/>
    <path class="st2" d="M184.5,250.3h-8.2s0,9.3,0,9.3c0,1.4-.1,3,0,4.4h10.6c0,0,0-13.7,0-13.7-.4.2-1.8,0-2.3,0Z"/>
    <path class="st6" d="M149.5,250.2h-10.5s0,9.6,0,9.6c0,1.2.2,2.8,0,4h0c0,.1,10.6.1,10.6.1v-13.7Z"/>
    <path class="st6" d="M318,256.9c0-2.1-.2-4.4,0-6.5h0s-11,0-11,0v13.6s11,0,11,0c-.1-2.3,0-4.8,0-7.1Z"/>
    <path class="st15" d="M182.4,271.5c.4-.1.7-.2,1.1-.4,1.8-.9,2.9-2.3,3.6-4.2.2-.7.7-2.3.4-2.9h-.5c0-.1-10.6,0-10.6,0h-9.7s-1.3,0-1.3,0c-.3.5,0,1.6,0,2.2v.2c.3,1.6,1.3,3.1,2.6,4.1.7.5,1.4.8,2.3,1h0s12.1,0,12.1,0h.1Z"/>
    <path class="st13" d="M291,262.5v-3.3s0-8.8,0-8.8h6.3s.2-.1.2-.1c-.7,0-1.5,0-2.1,0h-4.4s-11,0-11,0v13.8s10.8,0,10.8,0c.2-.5.2-1,.1-1.6Z"/>
    <path class="st13" d="M264.2,260.5v-6.8c0-1.1-.1-2.4.1-3.5h-11.3s0,13.8,0,13.8h11.2c.1-1.2,0-2.4,0-3.5Z"/>
    <path class="st15" d="M155.2,271.6h0c1.8-.6,3.4-1.8,4.3-3.5.5-1,1.1-3,.7-4h-.9c0-.1-9.8-.1-9.8-.1h-10.6s-1.5,0-1.5,0c.2,2.5.5,4.5,2.5,6.2.9.8,1.9,1.1,3,1.4h0s12.4,0,12.4,0Z"/>
    <path class="st10" d="M317.2,242.1c-.2-.4-.6-.7-.8-1.1-.7-1.1-.9-2.4-.5-3.6v-.2c0,0,.1-.2.1-.2.4-1.4,1.1-2.7,1.8-3.9,1.1,2,2.6,4.4,1.8,6.8-.3.9-1.1,1.7-1.7,2.5h.4c1.1-.1,2.1-.3,3.1-.9,1.6-1,2.4-2.5,2.8-4.3.8-3.6-1.5-7.2-3.2-10.2l-3.4-5.6-2.7,4.6c-1,1.8-2.1,3.7-2.9,5.6-.9,2.3-1.4,4.7-.3,7,.6,1.4,2.1,3,3.6,3.5.5.2,1,0,1.5.3h.2c0,0,.4.1.4.1v-.2Z"/>
    <path class="st17" d="M317.7,233.1c-.6,1.3-1.4,2.6-1.8,3.9v.2c0,0-.1.2-.1.2-.4,1.2-.1,2.5.5,3.6.2.4.6.7.8,1.1v.2c.1,0,.6,0,.6,0,.6-.7,1.4-1.5,1.7-2.5.7-2.3-.8-4.8-1.8-6.8Z"/>
    <path class="st10" d="M175.6,241.8c-.9-.8-1.5-2.1-1.5-3.3,0-1.8,1.3-4.2,2.2-5.7,1,2.1,2.6,4.4,2,6.8v.2c-.3,1-.9,1.8-1.6,2.6h.3c0,0,1.1,0,1.1,0,1.6-.3,3.1-1.6,3.9-3,1-1.7,1.2-3.6.7-5.6-.6-2.6-2-5-3.3-7.4-.9-1.7-1.9-3.5-3.1-5-1,1.5-1.9,3-2.8,4.6-1.8,3-4.6,7.2-3.9,10.9.3,1.7,1.4,3.5,2.8,4.5,1,.7,2.1.9,3.3,1.1h.5c0,0-.6-.6-.6-.6Z"/>
    <path class="st17" d="M178.4,239.5c.6-2.4-1-4.7-2-6.8-.9,1.6-2.2,3.9-2.2,5.7,0,1.2.6,2.5,1.5,3.3l.6.5h.6c.7-.8,1.3-1.6,1.5-2.6v-.2Z"/>
    <path class="st10" d="M267.2,241.6c1.5-.9,2.6-2.4,3-4.1v-.2s.2-.6.2-.6c.6-3.6-1.5-7.3-3.2-10.3l-3.3-5.2c-1,1.4-1.9,3-2.8,4.4-1.3,2.1-2.8,4.4-3.5,6.8-.6,2.2-.7,4.5.4,6.6.8,1.4,2.1,2.6,3.7,3,.5.1,1.1.2,1.6.2h1.2c1,0,1.8-.1,2.7-.6ZM263.9,242.2c-.8-.7-1.6-1.5-1.9-2.6-.7-2.3.8-4.9,1.9-6.8.9,1.8,2.1,3.9,2,6,0,1.5-.9,2.4-1.9,3.4Z"/>
    <path class="st17" d="M263.8,232.8c-1.1,1.9-2.6,4.5-1.9,6.8.3,1.1,1.1,1.8,1.9,2.6,1.1-.9,1.8-1.9,1.9-3.4.1-2.1-1.1-4.2-2-6Z"/>
    <path class="st10" d="M147,237.8c.1-1.7,1.2-3.7,2-5.1.7,1.3,1.4,2.6,1.9,4.1v.2c.4,1,.3,2,0,3v.2c-.3.9-.9,1.4-1.2,2.2h.1c1,0,2-.3,2.9-.9,1.5-1,2.5-2.6,2.9-4.4.7-3.4-1.1-6.6-2.7-9.5l-3.8-6.2-3.8,6.2c-1.3,2.3-2.8,4.9-3,7.5-.2,1.9.3,3.6,1.6,5.1,1.3,1.5,2.7,2.1,4.6,2.2h.2c-1.3-1.5-1.8-2.6-1.7-4.6Z"/>
    <path class="st17" d="M150.9,240c.3-1,.3-2,0-3v-.2c-.5-1.4-1.2-2.8-2-4.1-.8,1.4-1.9,3.4-2,5.1-.2,2,.4,3.1,1.7,4.5.4,0,.7,0,1.1,0,.3-.8.9-1.3,1.2-2.2v-.2Z"/>
    <path class="st10" d="M289,240.6c-1-2-.1-3.9.7-5.7.2-.5.4-1.1.7-1.5h0c1.1,1.9,2.5,4.1,1.9,6.5-.3,1-1.1,1.8-1.7,2.5h.7c1.1-.2,2.2-.4,3.1-1.1,1.5-1,2.4-2.7,2.7-4.5.6-3.4-1.3-6.7-2.9-9.6l-4-6.3-3.1,5.4c-1.4,2.4-2.8,4.9-3.3,7.7-.3,1.9.1,3.9,1.3,5.5,1,1.4,2.5,2.4,4.2,2.7h.8c0,.1,0,0,0,0-.1-.5-.8-1-1.1-1.5Z"/>
    <path class="st17" d="M290.7,242.4c.7-.8,1.5-1.5,1.7-2.5.6-2.3-.8-4.6-1.9-6.6h0c-.3.5-.5,1.2-.7,1.6-.9,1.8-1.7,3.8-.7,5.7.2.5,1,1,1.1,1.5v.2c.3,0,.3.1.6,0Z"/>
    <path class="st10" d="M202.9,242.5c0-.2,0,0,.1-.3v-.2c.1,0,0-.1,0-.1-.1,0-.3,0-.4-.1-.7-.4-1.3-1.3-1.5-2.1-.6-2.2.8-4.9,1.9-6.8.7,1.3,1.5,2.7,1.9,4.1.4,1.3.3,2.8-.6,3.9-.3.4-.8.7-1,1.2v.2c0,0,.5,0,.5,0,1.3-.2,2.4-.5,3.5-1.3,1.4-1,2.3-2.7,2.6-4.4.1-.9.2-1.8,0-2.7-.6-2.7-2.1-5.3-3.4-7.7-1-1.9-2.1-3.8-3.4-5.5l-3.4,5.4c-1.5,2.4-3.2,5.3-3.6,8.2-.2,2,.3,3.9,1.6,5.4,1.1,1.3,2.4,2.2,4.1,2.3.5,0,.8,0,1.2.2Z"/>
    <path class="st17" d="M204.2,241c.9-1.1,1-2.6.6-3.9-.4-1.5-1.2-2.8-1.9-4.1-1.1,1.9-2.5,4.6-1.9,6.8.2.8.8,1.7,1.5,2.1.1,0,.2,0,.4.1h0c0,.1-.1.3-.1.3-.1.2,0,.1-.1.3h.2c0,0,0-.3,0-.3.2-.5.7-.8,1-1.2Z"/>
    <path class="st15" d="M326.3,270.5c1.5-.9,2.5-2.3,2.8-4,.1-.6.3-2,0-2.5h-1c-.9-.2-2,0-2.9,0h-7.2s-11,0-11,0h-.9c-.3.4,0,1.7,0,2.2.3,1.8,1.3,3.3,2.8,4.4.8.5,1.6.8,2.5,1.1h12.2c1-.2,1.9-.5,2.7-1Z"/>
    <polygon class="st12" points="323.6 271.6 311.4 271.6 311.5 275.7 323.6 275.8 323.6 271.6"/>
    <path class="st10" d="M231.3,222c0-1.8,1.2-3.9,2-5.4,1,1.7,2.6,4.1,2.1,6.2l-.2.5v.2c-.3.6-.9,1.2-1.2,1.7l.5.2c.9,0,2-.5,2.8-.9,1.7-1,2.6-2.8,3-4.7.9-4.1-1.7-8.2-3.8-11.5l-3.2-5c-1,1.2-1.9,2.7-2.7,4.1-1.6,2.6-3.6,5.5-4.3,8.6-.5,2.2-.2,4.5,1.1,6.4,1.1,1.7,2.5,2.6,4.5,3h1.1c-1-.9-1.6-1.8-1.7-3.2Z"/>
    <path class="st17" d="M235.3,223.3l.2-.5c.5-2.1-1.1-4.5-2.1-6.2-.8,1.5-2.1,3.6-2,5.4,0,1.4.7,2.3,1.7,3.2.5.1.5.2,1,0h0c.4-.5.9-1.1,1.1-1.7v-.2Z"/>
    <polygon class="st11" points="239.7 282.2 239.7 282.2 239.7 253.6 239.6 253.6 239.6 259.5 227.2 259.5 227.1 253.8 227 253.8 227.1 282.1 239.3 282.2 239.7 282.2 239.7 282.2"/>
    <path class="st12" d="M228.4,253.7c-.4,0-.9-.1-1.3,0v5.7s12.5,0,12.5,0v-5.9c0,0-7.3,0-7.3,0-1.2.2-2.7.1-3.9,0Z"/>
    <polygon class="st11" points="239.9 411.5 240 382.3 240 382.3 240 382.3 232.4 382.3 227.2 382.3 227.3 411.5 230.3 411.5 239.9 411.5"/>
    <path class="st3" d="M233.7,245.9h10.4c0,0-.7-.2-.7-.2v-13.5s-9.8,0-9.8,0h-6.9c-1.2,0-2.5-.2-3.7,0v10c0,.9.3,3-.1,3.8h10.7s.2,0,.2,0Z"/>
    <path class="st20" d="M233.7,250.7c0,.4,0,1.3,0,1.7,0,.2-.5.7-.7.8-.2.2-.4.3-.6.5h7.3c0,0,.1,0,.1,0,1.5-.8,2.6-1.2,3.5-2.6.8-1.3,1.2-3.5.9-5.1h-10.4c0,0,0,4.8,0,4.8Z"/>
    <path class="st15" d="M228.4,253.7c1.2,0,2.7.2,3.9,0,.2-.1.4-.3.6-.5.2-.2.6-.6.7-.8.1-.4,0-1.2,0-1.7v-4.8s-.2,0-.2,0h-10.7s-.6,0-.6,0c-.3.6-.1,2.8.1,3.5.5,1.6,1.7,3,3.2,3.7l1.2.5c.2,0,.1,0,.3.2h0c.4-.1.9,0,1.3,0Z"/>
    <path class="st13" d="M296.4,404.5c0-.2-.1-.3-.2-.4l-12.3-.3,6.1-10.4-6.6-10.8-.2-.2v-.2c1.2-.2,2.6,0,3.8,0h9s5.6-10,5.6-10l.3-.6c.6.3,2.7,4.4,3.2,5.3.3-.8.2-1.8.2-2.7v-7.8c0-.9-.1-2.1.3-3l-3.1-5.4-6.6,11.7-2.5,4.6c-.4.7-.8,1.6-1.3,2.1h-20.3s10.1,17.6,10.1,17.6c-.8,1.9-2,3.7-3,5.4l-4.2,7.2-2.8,4.7h20.6c.1-.7.5-1.3.9-1.9l3-4.9Z"/>
    <path class="st20" d="M259.6,425.9c-1.6-.3-3.3-.2-4.9-.2-.4,1.1-1.2,1.9-1.9,2.8-3.7,4.5-9,8-14.4,10.1-3.3,1.4-7.1,2.3-10.6,2.7-3.4.4-7,.2-10.4.2h-18.7s-5.8,0-5.8,0c-1,0-2.1,0-3.1,0-.5,2-.6,3.9-.6,5.9h88.1c-.3-6.2-2.2-11.4-6.7-15.8-3-2.9-6.9-5-11.1-5.7Z"/>
    <path class="st5" d="M185,393.5l11.4-17.8h-21.4s-10.2-16.9-10.2-16.9c-.5,1-.2,3.3-.2,4.4v7.4c0,.9.2,2.3-.2,3.1l.4.9,5.4,8.9h11.6s-6.1,9.7-6.1,9.7h0c.9,1.4,6.1,9.5,6,10.3h-11.3s-5.8,9.4-5.8,9.4v.5c-.1,0-.1,9.9-.1,9.9,0,1.5.2,3.2,0,4.7l.2.2h.2s10.5-16.8,10.5-16.8c.7-.1,1.5,0,2.2,0h4.1s14.7,0,14.7,0l-11.3-17.7Z"/>
    <polygon class="st10" points="181.8 383.4 170.2 383.4 175.7 393.1 181.8 383.4"/>
    <path class="st10" d="M170,400.1c-3,2.1-7,2.8-10.5,3.3,1.7.4,3.4.4,5.1.4v9s5.8-9.4,5.8-9.4h11.3c0-.7-5.1-8.9-6-10.1-1.4,2.9-3.1,5-5.7,6.9Z"/>
    <path class="st2" d="M164.5,423.2v-9.9c-.7-.7-1.2-1.9-1.8-2.8l-3.3-5.1c-.4-.6-.8-1.6-1.3-2-.2-.2-.1-.1-.3-.1h-10.8s5.9-9.6,5.9-9.6c-.6-1.4-1.7-2.8-2.6-4.1l-4-6.2h12.3s.1,0,.1,0l3.4-5.9c.6-1.2,1.4-2.9,2.4-3.8.4-.8.2-2.2.2-3.1v-7.4c0-1.1-.3-3.4.2-4.4-.2-.3-.3-.6-.5-.9l-10.4,17.8h-22.3s12.1,18.1,12.1,18.1l-11.1,17.5h21.2s10.7,16.6,10.7,16.6c.2-1.5,0-3.2,0-4.7Z"/>
    <path class="st10" d="M158.5,383.4h-12.3s4,6.2,4,6.2c.8,1.3,2,2.7,2.6,4.1h0s5.6-10.3,5.6-10.3Z"/>
    <path class="st13" d="M164.5,383.4c.7,0,2-.2,2.6,0l.2.2c-.7,4.4-1.9,8.5-5.1,11.7-.5.5-1,1.1-1.6,1.5l-.4.2h-.2c-1,.8-2.4,1.4-3.6,1.2-1-.2-1.7-1.3-2.2-2.1l-1.4-2.6h0s-5.9,9.6-5.9,9.6h10.8c.2,0,.1,0,.3,0,.5.4.9,1.4,1.3,2l3.3,5.1c.5.8,1.1,2.1,1.7,2.8v-.5c.1,0,.1-9,.1-9-1.7,0-3.4,0-5.1-.4,3.5-.4,7.5-1.2,10.5-3.3,2.6-1.8,4.3-4,5.7-6.9h0c0-.1-5.5-9.8-5.5-9.8l-5.4-8.9c-.2,1.1-.2,2.2-.2,3.4v5.5Z"/>
    <path class="st4" d="M158.6,383.3h-.1s-5.6,10.3-5.6,10.3l1.4,2.6c.5.8,1.2,1.9,2.2,2.1,1.2.2,2.6-.4,3.6-1h.2c0-.1.4-.4.4-.4.6-.4,1.1-1,1.6-1.5,3.2-3.3,4.4-7.3,5.1-11.7l-.2-.2c-.7-.2-1.9,0-2.6,0v-5.5c.1-1.1,0-2.3.3-3.4l-.4-.9c-1,.9-1.7,2.7-2.4,3.8l-3.4,5.9Z"/>
    <path class="st15" d="M192.9,441.4h5.8s18.7,0,18.7,0c3.4,0,7,.2,10.4-.2,3.6-.4,7.3-1.3,10.6-2.7,5.3-2.2,10.7-5.7,14.4-10.1.7-.9,1.4-1.7,1.9-2.8h-.9c0,0-.2,0-.2-.2-.1-.2,0-1.3,0-1.6v-8c0-1.4.2-3,0-4.3v14.1s-40.7,0-40.7,0v-4.4s8,0,8,0c6-.5,12.6-3,16.5-7.8v-.2c.6-.5,1-1.1,1.3-1.7h-8.4c0,0-3,0-3,0h-14.6s0,7.8,0,7.8v6.4c-2.2,0-4.6-.2-6.8.3-5.3,1.2-10.2,4.4-13.2,9-1.3,2-2.2,4.3-2.9,6.6,1-.1,2.1,0,3.1,0Z"/>
    <path class="st20" d="M238.7,411.6c-.4.6-.7,1.2-1.2,1.7v.2c-4.1,4.7-10.6,7.3-16.7,7.8h-8c0,0,0,4.5,0,4.5h40.7s0-14.1,0-14.1c-.7-.3-11.7,0-13.5,0h-9.7s8.4,0,8.4,0Z"/>
    <path class="st14" d="M226.9,363.9c0-.4,0-.4.3-.7.2-.3.3-.5.6-.7-2.3,0-4.6-.5-6.8-.9-10.2-1.8-20.6-5.5-29.3-11.3-6.1-4-11.7-8.7-16.7-14-2.6-2.8-5-6-7.2-9.2-5.7-8.3-9.8-17.4-11.8-27.3h-12.7c.8,4.4,1.8,8.6,3.2,12.8,6.2,18.4,18.9,35.5,35,46.4,10.3,6.9,21.3,11.8,33.4,14.5l8,1.5c1.3.2,3.1.2,4.3.7-.3-2.1-.3-4.2-.3-6.4,0-1.7-.1-3.5,0-5.3Z"/>
    <polygon class="st12" points="155.2 294.7 142.6 294.7 143.2 299.9 155.9 299.8 155.2 294.7"/>
    <path class="st10" d="M335.5,375.6h-23c0,0-6.7-12.3-6.7-12.3-.4.9-.2,2-.2,3v7.8c0,.9,0,1.8-.3,2.7l3.3,6.1h13.4s-4.3,7.2-4.3,7.2c-.7,1.2-1.7,2.4-2.2,3.7l.4.3,6.1,10.1h-13.4s-6.2,10.2-6.2,10.2l-5.8-10.1-3,4.9c-.3.6-.8,1.2-.9,1.9l9.9,16.6,10-16.6h21s-10-16.6-10-16.6c0-1.2,10.5-16.9,12-18.9Z"/>
    <path class="st11" d="M314.3,394c-1.7,1.9-3.3,4-4.8,6.1-.2.3-1,1.1-1,1.4-.2.8,0,2,0,2.9h13.4s-6.1-10.1-6.1-10.1l-.4-.3h-.2c-.3.1-.6.1-.9,0Z"/>
    <path class="st16" d="M302,371.5l-.3.6c.2.2.4.4.5.7.2,1.2,0,2.8,0,4.1v8.4c0,.3,0,.5,0,.8h0c1.9,0,3.6.7,4.9,2,1.4,1.4,2.1,3.1,2.1,5.1,0,2-.7,3.9-2.2,5.4-1.4,1.4-3.3,2.2-5.3,2.1-1.7,0-3.7-.9-4.9-2.2-.5-.5-.7-.8-.7-1.6-.2-.4-.4-.9-.6-1.3v-.2c-.8-1.8-.4-3.5.4-5.2-2.5-1.3-5-2.9-7.3-4.4-1.6-1.1-3.4-2.6-5.2-3.2l6.6,10.8-6.1,10.4,12.3.3c0,.1.2.3.2.4l5.8,10.1,6.2-10.2c0-.9-.2-2,0-2.9,0-.3.8-1.1,1-1.4,1.6-2,3.1-4.1,4.8-6.1.3,0,.6,0,.9,0h.2c.5-1.3,1.5-2.6,2.2-3.8l4.3-7.3h-13.4s-3.3-6.1-3.3-6.1c-.5-.9-2.6-5-3.2-5.3Z"/>
    <path class="st20" d="M305.8,388c1.5,1.1,2.6,2.7,2.8,4.5.2,1.7-.4,3.5-1.5,4.9-1.1,1.3-2.8,2.4-4.5,2.5-1.9.1-4-.7-5.4-2l-.7-.8h-.1c0-.1,0-.2,0-.2,0,.8.2,1.1.7,1.6,1.2,1.3,3.1,2.1,4.9,2.2,2,0,3.9-.7,5.3-2.1,1.5-1.4,2.2-3.3,2.2-5.4,0-2-.7-3.7-2.1-5.1-1.3-1.3-3-2-4.9-2v.8c1.3,0,2.4.3,3.5,1.1Z"/>
    <path class="st1" d="M296,390.2l.6-.9c0-.2,0-.6.1-.8,1.4-1.6,3.3-2.3,5.4-2.4,0-.3,0-.5.1-.8v-8.4c-.1-1.2,0-2.9-.2-4.1,0-.3-.3-.5-.5-.7l-5.6,10h-9c-1.2,0-2.6-.2-3.8,0v.2s.1.2.1.2c1.9.6,3.6,2.2,5.2,3.2,2.3,1.5,4.9,3.2,7.3,4.4Z"/>
    <path class="st19" d="M296.8,388.5c-.2.2-.1.6-.1.8,1.7-1.6,3.4-2.2,5.7-2.4v-.8c0,0-.1,0-.1,0-2.1.1-4,.8-5.4,2.4Z"/>
    <path class="st13" d="M296.4,397.1l.7.8c1.4,1.3,3.4,2.1,5.4,2,1.7,0,3.4-1.2,4.5-2.5,1.1-1.3,1.7-3.1,1.5-4.9-.2-1.9-1.3-3.4-2.8-4.5-1.2,2.7-3.2,4.8-5.2,6.9-.8.9-1.5,1.8-2.5,2.5v-.2c-.5-.3-.7-.6-1.1-.8-.4-.1-.8-.5-1.1-.7-.1-.1,0,0-.2-.2.2.5.4.9.6,1.3h0c0,0,.1.2.1.2Z"/>
    <path class="st4" d="M297,396.5c.4.2.7.4,1,.8v.2c1.1-.7,1.8-1.6,2.6-2.5,2-2.1,4-4.2,5.2-6.9-1.1-.7-2.2-1-3.4-1.1-2.3.2-4,.8-5.7,2.4l-.6.9c-.8,1.7-1.1,3.4-.4,5.2v.2c.2,0,.2,0,.3.2.3.3.7.6,1.1.7Z"/>
    <path class="st11" d="M239.8,375.8c0,.9,0,1.9.1,2.7v-2.7c15.9-1.1,32-6.9,45-16.1,20-14.1,34-35.8,38.2-59.9h-12.6c-.8,4.3-2.2,8.5-3.8,12.6-5.8,14.5-15.7,27.5-28.6,36.3-9.4,6.4-19.8,11.1-31,13.1-2.8.5-5.8.9-8.6,1l-.9-2.5c0,.4-.1.6-.4.9l-.2.3,1.7,3-3,5.5c-.7,1.3-1.4,2.7-2.3,3.8l-4.8-7.7c-.5-.7-1-1.6-1.7-2.1-.1,1.7,0,3.5,0,5.3,0,2.1,0,4.3.3,6.4h0c0,0,0,6.7,0,6.7h0v-6.7s12.6.1,12.6.1Z"/>
    <polygon class="st11" points="240 382.3 240 382.3 232.4 382.3 240 382.3"/>
    <path class="st16" d="M230.4,362.4c-.4-.5-.8-1.1-1.2-1.5h-.2c0-.1-.1-.1-.1-.1-.5.4-.7,1.1-.9,1.7h-.2c-.2.3-.4.5-.6.8-.2.3-.3.3-.3.7.7.5,1.2,1.4,1.7,2.1l4.8,7.7c.9-1.1,1.6-2.5,2.3-3.8l3-5.5-1.7-3c-.9,1.9-2.4,3.7-3.5,5.5l-3.1-4.4Z"/>
    <polygon class="st12" points="240 382.3 240 382.3 239.9 378.5 239.9 378.5 239.9 378.5 240 382.3"/>
    <polygon class="st12" points="227.2 382.3 227.2 382.3 232.4 382.3 227.2 382.3"/>
    <path class="st12" d="M240,382.3v-3.8s0,0,0,0c-.2-.8-.1-1.9-.1-2.7h-12.6c0-.1,0,6.5,0,6.5h5.2s7.5,0,7.5,0Z"/>
    <path class="st16" d="M218.8,343.4c-.5.3-1.5.2-2.1.2-1.8,0-3.6,0-5.3,0-.5-.2-1.4,0-1.9-.1h-4.4s-.7,1.1-.7,1.1l-2.7,4.6h18.3c.7,0,1.6-.1,2.3,0l-3.3-5.7h0Z"/>
    <path class="st11" d="M218.9,343.4l3.3,5.7h0c.7-.1,1.5,0,2.2,0h3.8c-.4-.3-.6-.9-.9-1.3-.9-1.3-1.8-2.8-2.4-4.3v-.2c-2,0-4.1.2-6,0Z"/>
    <path class="st14" d="M209.2,333.2c-2.8-2-5.7-4.1-8.4-6.4-8-7.1-14.6-16.8-17.4-27.1-1.4.3-3,.1-4.4.1h-8.7c.9,4.8,2.7,9.6,4.8,13.9,5.3,10.8,13.1,19.9,23,26.8l5.2,3.2,4.2-7.6c.6-1,1.1-2,1.7-3Z"/>
    <path class="st3" d="M203.5,312.3c-.7.5-1.6.1-2.4.4,0,.3.1.4.3.6h2.2s0-1,0-1Z"/>
    <path class="st12" d="M205,343.3h4.4c.5,0,1.4,0,1.9.1.9-2.3,2.2-4.5,3.5-6.7l3.9,6.6h0c1.9.2,4,0,5.9,0l-6.6-11.7c-1.1-1.8-2.3-3.7-3.2-5.7l-4.5-7.8c.7-.2,1.8,0,2.6,0h6.4s2-3.6,2-3.6c.1-.2.5-.7.5-.9,0-.1,0-.3,0-.4h-18.4s-2.2,0-2.2,0l9.7,16.8.9,1.4-6.9,11.8Z"/>
    <path class="st1" d="M221.9,313.3l.4-.2c-.8-.3-1.5-.7-2.1-1.2h-16.7c0,0,0,.4,0,.4v.9s18.4,0,18.4,0Z"/>
    <path class="st3" d="M211.9,331.5l-.9-1.4c-.6,1-1.1,2.2-1.9,3-.7.9-1.2,2-1.7,3l-4.2,7.6c.4.3.8.5,1.1.8l.7-1.2,6.9-11.8Z"/>
    <path class="st11" d="M284.1,299.8c-.1,0-.6,0-.7,0,0,0-.1-.1-.2-.2-1.1,3.4-2.3,6.6-3.9,9.7-4.9,9.4-13.1,18.3-22.3,23.7.2,1.1,1.1,2.2,1.6,3.1l4.3,7.6,1.1-.6c13.6-8.1,24.3-20.8,30-35.5,1-2.5,1.7-5.2,2.4-7.8h-10.2s-2,0-2,0Z"/>
    <path class="st12" d="M238.1,313.3h-9.5s-2.6,4.7-2.6,4.7c.3.1.1,0,.4.1h14.5c0,0,4.7,8.3,4.7,8.3.9,1.6,2.1,3.3,2.7,5l3.1-5.5,3,5.3,10.2-17.9h-2.7c-.7,0-1.5,0-2.3,0h-4.5s-7.4,0-7.4,0c-1,0-2.6.2-3.5-.1-1-1.3-1.7-2.9-2.5-4.4l-3.6-6.4c-.8-.8-1.5-2.1-2-3l-2.8,5.3,4.8,8.5ZM255.8,318.2l-2.9,5-1.5,2.6c-.2-.1-.8-1.2-1-1.6l-3.5-6.1h8.9Z"/>
    <path class="st1" d="M247.8,313.4h7.4s4.5,0,4.5,0c.7,0,1.6,0,2.3,0,0-.5.2-1,.4-1.4-2.1.2-4.5,0-6.6,0-3.1,0-6.3.1-9.4,0-.5.4-1.3,1.3-2,1.4,1,.3,2.5.1,3.5.1Z"/>
    <path class="st16" d="M222,313.7c0,.2-.4.7-.5.9l-2,3.6-4.5,7.8c.8,1.9,2.1,3.8,3.2,5.7l7.6-13.5h.6c-.3-.1-.1,0-.4-.2l2.6-4.8,4.7-8.5,2.8-5.3-2.6-4.9-3.6,5.9c-.4.6-.9,1.5-1.5,2-.7.9-1.2,1.9-1.7,2.8l-2.9,5.1c-.5.8-1,2-1.6,2.7l-.4.2c0,.1,0,.3,0,.4Z"/>
    <path class="st12" d="M244.2,349h20.3c0,0-2.8-4.7-2.8-4.7l-.5-.7h-5.8s-7.8,0-7.8,0c1-2.4,2.6-4.6,3.9-6.9l-1.7-3.2c-.4-.7-.7-1.4-1.2-2h-.3c0,0-6.9,12.1-6.9,12.1h-16.5c.6,1.4,1.6,2.9,2.4,4.2.2.4.5.9.9,1.2h.1c0,0,9.8,0,9.8,0l-3.4,5.8c-.5.9-1,1.8-1.6,2.6l-.5-.7c-.6.6-1.1,1.3-1.7,1.9-.6.6-1.7,1.4-2,2.1h.2c.5.6.9,1.2,1.2,1.7l3.1,4.4c1.1-1.8,2.5-3.6,3.5-5.5l.2-.3c.2-.3.3-.5.4-.9.7-.8,1.2-2,1.7-2.9l4.9-8.3Z"/>
    <path class="st16" d="M222.2,349.2l6.6,11.1c.1-.9.4-2.1.8-3,.5-1,1.3-1.8,2-2.5l-3.3-5.7h-.1c0,0-3.8,0-3.8,0-.7,0-1.5,0-2.2,0Z"/>
    <path class="st14" d="M229.6,357.3c-.4.8-.6,2-.8,3v.5s.2,0,.2,0c.3-.7,1.4-1.5,2-2.1.6-.6,1.1-1.3,1.7-1.9l-1.1-1.9c-.7.8-1.5,1.6-2,2.5Z"/>
    <path class="st14" d="M255.2,332.8c-.3-.5-.5-1-.7-1.5l-3-5.3-3.1,5.5h0c0,0,.3,0,.3,0,.5.6.8,1.3,1.2,2l1.7,3.2,3.9,6.9h5.8s-4.1-7.3-4.1-7.3c-.6-1.1-1.4-2.3-1.9-3.5Z"/>
    <path class="st1" d="M257,333h-.4c-.3,0-.4-.2-.6-.5v-.2c0,0-.2,0-.2,0l-.6.6c.5,1.2,1.2,2.3,1.9,3.5l4.1,7.3.5.7c.4-.2.8-.4,1.2-.6l-4.3-7.6c-.5-.9-1.4-2.1-1.6-3.1Z"/>
    <polygon class="st16" points="284.1 274.7 284.1 274.9 284.1 275.3 284.1 274.9 284.1 274.7"/>
    <path class="st16" d="M165.5,294.7c1.3,0,2.9-.2,4.1,0h9.3c1.1,0,2.4-.1,3.5,0l.2.4v-.5c0,0,14.9,0,14.9,0h10.1c.5,0,2.4-.2,2.7.1.5-.2,1.1-.1,1.6-.1h3.2s11.6,0,11.6,0c0,.7,0,1.5,0,2.2v-2.2s5.3,0,5.3,0v-.2c.6-.7,1-1.7,1.5-2.2.5.8.9,1.8,1.5,2.5h4.9c0,0,16.7,0,16.7,0h12.5c.2.3.1.2.2.5l.2-.5h14.5c.2.3.1.1.2.5v-.4c.1,0,12.5,0,12.5,0v2.2c.2-.7.1-1.5,0-2.2h14.6s12.1,0,12.1,0v1.7c.2-.5.1-1.1.1-1.7h10.7c0,0,0-12.5,0-12.5h-10.8s-12.1,0-12.1,0h0s-15.3,0-15.3,0v-10.7s0,0,0,0v4.3s0,6.4,0,6.4h-12s0-3.8,0-3.8v3.9s-14.9,0-14.9,0c-.2,0-.5,0-.7,0-.8,0-1.6,0-2.4,0-.3,0-.6,0-.9,0h-8.1s0,0,0,0v-2.4s0-4,0-4h0c0-.1,0-.2,0-.2h0s0,0,0,0v6.6h-11.9c-1.7,0-3.7.3-5.4,0h-.4s-12.2,0-12.2,0h-17.2c0,0,0-10.7,0-10.7h-.1c0,0,0,4.3,0,4.3v6.4c-.5.3-2.4,0-3.1,0h-9.2c0-1.8.2-3.7,0-5.5v5.4s-15.2,0-15.2,0v-6.5c-.2.7,0,1.5-.1,2.2v4.3s-12.1,0-12.1,0v-6.3s0-4.2,0-4.2h0s0,10.6,0,10.6h-14.9v-6.2s0-3.1,0-3.1v3.1s0,6.2,0,6.2c-1.1-.2-2.5,0-3.6,0h-8.7s0-4,0-4c0-.7,0-1.6,0-2.3h0c0-.1,0-3.6,0-3.6v3.5s0,6.4,0,6.4h-10.2s0,12.6,0,12.6h10.1s12.6,0,12.6,0h10.3Z"/>
    <path class="st16" d="M290.8,271.6s0,0,0,0c.4,0,.7,0,1.1,0-.4,0-.8,0-1.1,0h0Z"/>
    <path class="st16" d="M296.1,271.4c-1,.2-2,.2-3.1.2,1,0,2.1,0,3.1-.2h0s0,0,0,0Z"/>
    <polygon class="st16" points="202.7 271.6 202.7 271.6 197.5 271.6 197.5 271.6 202.7 271.6 202.7 271.6"/>
    <polygon class="st16" points="323.6 282.2 323.6 282.2 323.6 282.2 311.5 282.1 311.5 282.1 311.5 282.1 323.6 282.2"/>
    <polygon class="st16" points="209.8 271.5 202.7 271.6 202.7 271.6 209.8 271.5 210 271.4 210 271.4 209.8 271.5"/>
    <polygon class="st16" points="284.1 271.6 290.8 271.6 290.8 271.6 284.1 271.6 284.1 274.7 284.1 274.9 284.1 271.6"/>
    <polygon class="st16" points="257.1 282.1 257.1 282.1 257.1 279.7 257.1 282.1"/>
    <path class="st16" d="M266.1,282.2c.8,0,1.6,0,2.4,0-.8,0-1.6,0-2.4,0Z"/>
    <polygon class="st16" points="257 275.6 257 275.6 257 275.6 257 275.6"/>
    <polygon class="st16" points="239.7 282.2 239.3 282.2 239.7 282.2 239.7 282.2"/>
    <path class="st12" d="M229.7,299.1l2.3-4.4h-5.2s0,2.2,0,2.2c.1,1.6.8,3,1.8,4.3.5-.6.8-1.4,1.1-2.1Z"/>
    <path class="st1" d="M228.5,301.2c.2.3.2.5.1.9,0,.2,0,.3-.1.4.6-.5,1-1.3,1.5-2l3.6-5.9,2.6,4.9c.6,1,1.2,2.3,2,3,0-.5,0-.9.1-1.4l-3.2-6.4c-.6-.7-1-1.7-1.5-2.5-.6.6-.9,1.6-1.4,2.2v.2c-.1,0-2.5,4.4-2.5,4.4-.4.7-.7,1.5-1.1,2.1Z"/>
    <path class="st12" d="M240,294.7h-4.9c0,0,3.2,6.5,3.2,6.5,1.2-2.1,1.6-4,1.7-6.5Z"/>
    <path class="st12" d="M311.4,294.7l-.9,5h12.6c.2-1,.4-2.2.4-3.3v-1.7c0,0-12.2,0-12.2,0Z"/>
    <path class="st12" d="M179,299.8c1.4,0,3,.1,4.4-.1l-.9-4.4-.2-.4c-1.1-.2-2.4,0-3.5,0h-9.3c.2,1.6.3,3.4.7,5h8.7Z"/>
    <path class="st12" d="M283.4,299.7c.1,0,.6,0,.7,0h2s10.2,0,10.2,0l.5-2.9v-2.2s-12.4,0-12.4,0v.4c-.1,0-1.2,4.4-1.2,4.4,0,0,.1.1.2.2Z"/>
    <polygon class="st11" points="284.1 275.8 284.1 278.3 284.1 275.8 284.1 275.8"/>
    <polygon class="st11" points="296.1 282.1 296.1 275.8 284.1 275.8 284.1 278.3 284.1 282.1 296.1 282.1"/>
    <polygon class="st12" points="284.1 275.8 284.1 275.3 284.1 275.8 284.1 275.8 284.1 275.8"/>
    <path class="st12" d="M284.1,275.8h12s0-4.3,0-4.3c-1,.2-2,.2-3.1.2-.4,0-.8,0-1.1,0-.4,0-.8,0-1.1,0h-6.7c0,0,0,3.3,0,3.3v.4s0,.4,0,.4h0Z"/>
    <path class="st11" d="M182.3,271.5h.1c0,1.3.2,2.9,0,4.2h0s0,0,0,0c.2-1.3,0-2.9,0-4.2h-.1Z"/>
    <path class="st11" d="M182.4,271.5h-.1s0,4.2,0,4.2h-12.1s0,6.3,0,6.3h12s0-4.2,0-4.2c0-.7,0-1.5.1-2.2h0c.2-1.3,0-2.9,0-4.2Z"/>
    <polygon class="st12" points="182.3 271.5 182.3 271.5 170.2 271.6 170.2 271.6 182.3 271.5 182.3 271.5"/>
    <polygon class="st12" points="182.3 275.8 182.3 271.5 182.3 271.5 170.2 271.6 170.2 275.8 182.3 275.8"/>
    <polygon class="st11" points="142.9 271.6 142.9 271.6 142.8 271.6 142.8 272.2 142.8 271.6 142.9 271.6"/>
    <path class="st11" d="M142.8,275.8c.2.7,0,1.5,0,2.3v4s8.7,0,8.7,0c1.1,0,2.5-.2,3.6,0v-6.2s-12.3,0-12.3,0v-4.3s-.1,0-.1,0v.6s0,3.5,0,3.5h0Z"/>
    <polygon class="st12" points="142.9 271.6 142.9 271.6 155.2 271.6 155.2 272.8 155.2 271.6 142.9 271.6 142.9 271.6"/>
    <polygon class="st12" points="142.9 271.6 142.9 271.6 142.9 275.9 155.2 275.9 155.2 272.8 155.2 271.6 142.9 271.6"/>
    <path class="st11" d="M197.5,275.7h0v1s0,0,0,0h0s0-1,0-1Z"/>
    <path class="st11" d="M197.6,282.2h9.2c.7,0,2.5.2,3.1,0v-6.4s-12.3,0-12.3,0v1s0,0,0,0c.3,1.7,0,3.7,0,5.4Z"/>
    <polygon class="st12" points="197.5 275.7 197.5 271.6 197.5 271.6 197.5 275.7 197.5 275.7 197.5 275.7"/>
    <polygon class="st12" points="197.5 271.6 197.5 275.7 197.5 275.7 209.8 275.8 209.8 271.5 202.7 271.6 197.5 271.6"/>
    <path class="st14" d="M255.7,312c2.2,0,4.5.2,6.6,0,2.6-3.8,4.9-7.8,6.3-12.2h-9.1c-1.3,0-3.2.3-4.4,0-2.3,4.6-5.2,8.7-8.9,12.3,3.1.2,6.3,0,9.4,0Z"/>
    <path class="st12" d="M259.6,299.7h9.1c.5-1.4.6-3,.7-4.6,0-.3,0-.2-.2-.5h-12.5s-1.4,4.9-1.4,4.9c1.2.4,3.1.1,4.4.1Z"/>
    <path class="st14" d="M211.6,299.5c-1,.4-2.9.1-4,.1h-9.6c1.2,4.5,3.2,8.3,5.4,12.3h16.7c-3.6-3.6-6.7-7.7-8.6-12.4Z"/>
    <path class="st12" d="M207.6,299.7c1.1,0,3,.2,4-.1l-1.4-4.7c-.3-.3-2.2-.1-2.7-.1h-10.1s.7,5,.7,5h9.6Z"/>
  </g>
</svg>