<?xml version="1.0" encoding="UTF-8"?>
<svg id="layer" xmlns="http://www.w3.org/2000/svg" version="1.1" viewBox="0 0 500 500">
  <!-- Generator: Adobe Illustrator 29.0.1, SVG Export Plug-In . SVG Version: 2.1.0 Build 192)  -->
  <defs>
    <style>
     
    </style>
  </defs>
  <rect className="st4" x="58.9" y="14.6" width="332.9" height="463.7"/>
  <g id="tree">
    <path className="st0" d="M183.9,261.6c.4,0,.7,0,1,.2.4-1.1.6-1.7.6-1.7-.5.6-1,1.1-1.6,1.5Z"/>
    <path className="st0" d="M327.1,358.5c.5,1,.9,2,1.4,2.9.6,0,1.3-.2,2-.6,0,0,0,0,0,0-1.3-.8-2.4-1.5-3.5-2.2Z"/>
    <path className="st0" d="M280.8,236.4c.2.4.5.8.7,1.1.2-.3.5-.5.7-.8-.5-.1-1-.2-1.4-.3Z"/>
    <path className="st6" d="M262.2,410c0,13.1,0,26.1,0,39.2,0,3.4-2.4,6.4-5.8,7.1-10.6,2.1-21.5,2.1-32.1,0-3.4-.7-5.8-3.6-5.8-7.1v15.5c16.3,4.3,33.2,4.3,49.4,0v-48.3c-3-4.4-3.9-8.5-3.9-8.5-.7.7-1.3,1.4-1.8,2.1Z"/>
    <path className="st1" d="M224.2,456.2c10.6,2.1,21.5,2.1,32.1,0,3.4-.7,5.8-3.6,5.8-7.1,0-13.1,0-26.1,0-39.2-5.7,8.1-1.1,17-1.1,17-17.6,1.4-26.6-17.8-26.6-17.8-3.1,4.3-10.1,9.2-16.1,12.9v27.1c0,3.4,2.4,6.4,5.8,7.1Z"/>
    <circle className="st7" cx="112" cy="393.5" r="2.3" transform="translate(-61.6 23) rotate(-9.2)"/>
    <path className="st11" d="M155.6,322.3c-.2,1.3-.4,2.8-.6,4.2.9-1.2,1.8-2.4,2.6-3.6-.7-.1-1.4-.4-2-.6Z"/>
    <path className="st11" d="M330.5,360.7s0,0,0,0c0,0,0,0,0,0,0,0,0,0,0,0Z"/>
    <path className="st11" d="M252.9,385.5c-10.6,4.9-23.8,3.3-33.1,1-2.7-.6-5.3-1.4-7.6-2.1-.3,1.3-.7,2.5-1.4,3.6,2.3.7,4.8,1.5,7.6,2.2v-1.4c12.2,0,24.3,0,36.5,0,4.9-2.3,8.9-5.7,12-10.1-1.4-.4-2.7-.8-3.8-1.3-2.7,3.5-6.1,6.2-10.2,8.1Z"/>
    <path className="st11" d="M189.5,380.1c0,0-.2,0-.3,0-1.9.9-3.8,1.5-5.6,1.5,0,0,.3-.9.7-2.3-3.8-.8-7.2-2.1-10.2-3.8-1.5.7-3,1.3-4.4,1.7,5.3,3.7,11.9,6,19.7,6.8,0-.6-.1-1.2-.1-1.9,0-.7,0-1.3.2-2Z"/>
    <path className="st11" d="M311.8,380c-2.6-1.4-4-4.1-10.9-.2.2,0,.3,0,.5,0,3.7.5,7.2.6,10.4.1Z"/>
    <path className="st11" d="M273.7,368.5c.1.2.2.5.3.7,1.9,1.1,4.3,2.5,7.2,3.9,0-1.2.2-2.5.8-3.9-1.5-.7-2.8-1.5-4-2.2-1.3.7-2.7,1.2-4.3,1.4Z"/>
    <path className="st11" d="M218.4,390c11.2,0,22.4,0,33.6,0,.8-.3,1.6-.6,2.4-1,.1,0,.3-.1.4-.2-12.2,0-24.3,0-36.5,0v1.2Z"/>
    <path className="st11" d="M218.4,390.2c.1,0,.3,0,.4,0,6.2,1.5,12.2,2.3,17.6,2.3,0,0,.1,0,.2,0,5.8,0,11-.9,15.5-2.5-11.2,0-22.4,0-33.6,0v.2Z"/>
    <path className="st11" d="M330.6,360.7c.7-.4,1.4-1,2.2-1.8,1.3-1.3,2.4-2.1,3.5-2.7,0-.2.1-.3.2-.5-.3-.1-.5-.3-.8-.4-1,.3-2.1.4-3.2.4,0,0,0,0,0,0-.6,1.8-1.2,3.4-1.9,5,0,0,0,0,0,0Z"/>
    <path className="st11" d="M154.7,349.4h2.7c0,0,.9-2.8.9-2.8,0-.1,0-.3,0-.4l-3.7,1.3c0,.7.2,1.3.2,1.9Z"/>
    <path className="st11" d="M156,329.4c1-1.3,2-2.6,2.9-3.9.1-.8.2-1.6.4-2.3-.6,0-1.2-.1-1.8-.2-.8,1.2-1.7,2.4-2.6,3.6-.2,1.6-.4,3.2-.5,5,.5-.7,1.1-1.4,1.6-2.1Z"/>
    <path className="st11" d="M154.7,349.4c.1.8.2,1.6.4,2.3h1.6s.7-2.4.7-2.4h-2.7Z"/>
    <path className="st11" d="M169.8,377.1c1.4-.5,2.9-1.1,4.4-1.7-2.2-1.2-4.1-2.7-5.8-4.4-1,.5-2.2,1.2-3.4,2,1.5,1.6,3.1,2.9,4.8,4.2Z"/>
    <path className="st11" d="M155.1,352.3c.2.8.3,1.6.5,2.4l1-3.1h-1.6c0,.2,0,.4.1.6Z"/>
    <path className="st11" d="M273,368.5c.3.2.7.4,1.1.7-.1-.2-.2-.5-.3-.7-.2,0-.5,0-.8,0Z"/>
    <path className="st11" d="M189.3,380c-1.7-.2-3.4-.5-4.9-.8-.4,1.4-.7,2.3-.7,2.3,1.8,0,3.7-.5,5.6-1.5Z"/>
    <path className="st11" d="M268.2,367.8c0,.1,0,.3-.1.4.2.6.5,1.1.8,1.8.2.5.4.9.6,1.4-.9-.2-1.7-.4-2.4-.6-1.1,2.5-2.4,4.7-4,6.7,1.2.5,2.5.9,3.8,1.3,2.1-2.9,3.8-6.3,5.1-10.1-1.3,0-2.6-.3-3.8-.8Z"/>
    <path className="st11" d="M175.7,323.8c-1.4.6-2.8,1.2-4.2,1.7,2.1,1.6,4.3,3,6.4,4.2.6-1.1,1.2-2.2,1.9-3.4-1.4-.8-2.7-1.6-4.1-2.6Z"/>
    <path className="st11" d="M210.6,329.4c-3,1.1-6.3,1.8-9.6,2.1-4.5.3-8.9-.2-13.3-1.6-2,.7-3.9,1.4-5.6,2,6.3,2.8,12.7,4,19.2,3.5,6.2-.5,12.4-2.5,18.5-5.9.8-.4,1.6-.9,2.3-1.4-.2-.2-.3-.3-.4-.6-6.4,3.4-13.3,5.6-13.3,5.6.7-.7,1.5-2,2.2-3.6Z"/>
    <path className="st11" d="M336.7,354.9c-.3.1-.7.2-1,.3.3.1.5.3.8.4,0-.2.1-.5.2-.7Z"/>
    <path className="st11" d="M158.5,349.3c-.1-.9-.2-1.8-.3-2.7l-.9,2.8h1.2Z"/>
    <path className="st11" d="M154.4,347.4l3.7-1.3c-.4-4.6-.4-9,0-12.9.2-2.7.5-5.3.8-7.7-.9,1.3-1.9,2.6-2.9,3.9-.5.7-1.1,1.4-1.6,2.1,0,.4,0,.9-.1,1.3-.4,5.2-.3,10.1.2,14.6Z"/>
    <path className="st11" d="M156.6,351.6h2.3c-.1-.8-.3-1.6-.4-2.4h-1.2s-.7,2.4-.7,2.4Z"/>
    <path className="st11" d="M268.8,370c-.3-.6-.5-1.2-.8-1.8-.3.9-.7,1.7-1,2.5.8.2,1.6.4,2.4.6-.2-.5-.4-.9-.6-1.4Z"/>
    <path className="st11" d="M156.6,351.6l-1,3.1c0,.4.2.7.3,1.1,2.2.9,1.9-.2,3.6-1.4-.2-.9-.4-1.9-.6-2.8h-2.3Z"/>
    <path className="st11" d="M289.1,272.3c0,.2.1.4.2.6.7,1.2,1.5,2.4,2.4,3.8.6-1.5,1.1-3.1,1.5-4.8-1.5-1-2.7-2-3.4-2.6-.2,1-.4,2-.7,3Z"/>
    <path className="st11" d="M175.7,323.8c-2.2-1.5-4.4-3.3-6.6-5.3-.8,1-1.7,1.9-2.8,2.7,1.7,1.6,3.4,3,5.1,4.3,1.4-.5,2.8-1.1,4.2-1.7Z"/>
    <path className="st11" d="M208.4,333s6.9-2.1,13.3-5.6c-.2-.4-.4-.9-.5-1.5,0-.7-.1-1.2-.1-1.8-3.2,2.1-6.7,4-10.5,5.3-.7,1.6-1.5,2.9-2.2,3.6Z"/>
    <path className="st11" d="M231.2,315.9c-1.2,1.1-2.5,2.3-3.9,3.5.3,0,.6.1.9.2,0,0,3-5.3,7.2-5.6l-.5-1.9c-1.1,1.2-2.3,2.5-3.6,3.8Z"/>
    <path className="st11" d="M179.8,326.4c-.6,1.2-1.3,2.3-1.9,3.4,1.4.8,2.7,1.5,4.1,2.1,1.7-.6,3.6-1.2,5.6-2-2.6-.9-5.3-2-7.9-3.5Z"/>
    <path className="st11" d="M255.6,302.8c14.4-2.8,24.9-8.7,31.4-17.5-1.2-.5-2.4-1.1-3.5-1.7-3,3.9-6.9,7.1-11.8,9.7.4.5.6,1.1.6,1.8,0,1.6-1.3,2.9-2.9,2.9s-2.6-1-2.8-2.3c-3.1,1.2-6.6,2.3-10.3,3.1,0,0,0,0,0,.1,0,1.4-.3,2.7-.7,4Z"/>
    <path className="st11" d="M291.3,277.7c.1-.3.3-.7.4-1-.9-1.3-1.7-2.6-2.4-3.8.4,1.5,1.2,3.1,2,4.7Z"/>
    <path className="st11" d="M238.2,308.2c-1,1.2-2.1,2.5-3.3,3.9l.5,1.9c.7,0,1.3,0,2,.3.2,0,.4.1.5.2,1.4-1.6,2.7-3.1,3.8-4.5-1.3-.4-2.5-.9-3.6-1.7Z"/>
    <path className="st11" d="M291.7,262.1l-1.2-1.3c0,1,0,2.1,0,3.2.6,2,1.7,4.2,3,6.7.4-2.1.7-4.2.8-6.4-1.6-1.1-2.5-2-2.6-2.1Z"/>
    <path className="st11" d="M294,255.8c-.8.3-1.6.4-2.5.5.9.9,1.9,1.8,2.8,2.6,0-1.1-.1-2.2-.2-3.1Z"/>
    <path className="st11" d="M258.4,252.1l-1.6,3.8c2.4,0,4.8,0,7.3-.2l-2.3-3.7c-1.1,0-2.3,0-3.4,0Z"/>
    <path className="st11" d="M289.8,269.3c.7.6,1.8,1.6,3.4,2.6.1-.4.2-.8.3-1.3-1.3-2.4-2.4-4.7-3-6.7,0,1.7-.3,3.5-.6,5.4Z"/>
    <path className="st11" d="M289.1,272.3c0,0,0,.2,0,.2,0,.1.2.3.2.4,0-.2-.1-.4-.2-.6Z"/>
    <path className="st11" d="M288.1,283.7c1.2-1.9,2.3-3.9,3.2-6.1-.9-1.6-1.6-3.2-2-4.7,0-.1-.2-.3-.2-.4-.9,3.1-2.2,6.1-4.1,9.1-.4.7-.9,1.3-1.4,2,1.1.6,2.3,1.2,3.5,1.7.4-.5.8-1.1,1.1-1.6Z"/>
    <path className="st11" d="M264.1,255.7c5.6-.4,11.5-1.6,17.6-3.3-.9-1-1.6-2.2-2-3.4-6.2,1.7-12.2,2.8-17.8,3l2.3,3.7Z"/>
    <path className="st11" d="M291.7,262.1c.1.1,1,1,2.6,2.1,0-1.7.1-3.5,0-5.2,0,0,0,0,0,0-.9-.8-1.8-1.7-2.8-2.6-.4,0-.8,0-1.2,0,0,0,0,0,0,0,.1,1.3.2,2.8.3,4.4l1.2,1.3Z"/>
    <path className="st11" d="M234,250.7c7,3.2,14.7,4.9,22.8,5.2l1.6-3.8c-8.2,0-15.8-1.6-22.8-4.8-5.6-2.5-10.2-5.9-14-9.4-.4.5-.7.8-.7.8,0-.4,0-.8.1-1.3-3.5-3.3-6.2-6.6-8.2-9.5-.9,1-1.9,1.8-2.9,2.5,4.7,6.6,12.5,15,24,20.3Z"/>
    <path className="st11" d="M212.5,227.3c-.6-.9-1.2-1.8-1.7-2.6-1,.8-2.2,1.4-3.4,1.7.6,1,1.2,1.9,1.9,3,.2.3.5.7.7,1.1,1-.7,2-1.6,2.9-2.5-.1-.2-.3-.4-.4-.6Z"/>
    <path className="st11" d="M221,238.6s.2-.3.7-.8c-.2-.2-.4-.3-.5-.5,0,.4,0,.8-.1,1.3Z"/>
    <path className="st12" d="M379.2,406.1s-11.9-2.7-25.5-13.5c-.6.4-1.4.7-2.2.7-2.2,0-4.1-1.8-4.1-4.1s.1-1.2.4-1.7c-4.5-4.2-9-9.4-13.2-15.6-1.6-.1-3,.3-4.4,1.1,0,0-.1,0-.2.1-1,.6-2.1,1.3-3.4,2.2,1.6.2,3.3.3,5.1.3,7.1,9.7,14.7,16.4,21.1,21,1.9,1.4,3.8,2.6,5.6,3.7-11.1-.3-17.9-3.3-18.3-3.5l-5.8-2.9-1.6,6.3c-1,4.1,0,8.4,3,13-5.1-1.1-9.5-2.9-13.1-5.5-4.2-3-5.9-6.1-6.1-6.4l-3.9-9.4-3.3,5.5c1.3.3,2.4,1.5,2.4,3s-1.4,3.1-3.1,3.1-1.7-.4-2.2-1c-1.7,3.6-2,7.7-1,11.9-3.1-1.2-5.9-3.2-8.4-6-3.3-3.8-4.8-7.7-4.9-7.9l-4-11.7-5.6,11.2c-3.5,7-3.8,12.8-2.7,17.3-3.2-1.1-5.9-3-8.1-5.9-2.7-3.6-3.7-7.3-3.8-7.6v-.3c0,0-2-9.3-2-9.3l-3.7,3.8-3.1,3.2c-4.5,4.6-6.6,10.4-6,16.8-3.3-1.1-6.5-3.2-9.4-6.3-3.5-3.8-5.4-7.6-5.5-7.8l-3.8-8.2-5.2,7.4c-1.8,2.6-6,5.9-10.7,9-1.4.9-2.8,1.9-4.2,2.7-.9-3.3-2.2-5.9-2.4-6.2l-4-7.7-4.8,7c-.9.9-4.8,3.8-10.2,6.6-2.6,1.3-5.8,2.8-9.3,3.8,0-.1,0-.2.1-.3.9-2.6,1.7-4.7,2.2-6.2,1-3,1.7-5.3.1-7.6-1-1.4-2.6-2.3-4.4-2.3s-2.9.3-4.5,2.4c-3.1,4.2-9.2,7.8-17.5,10.5-.8.2-1.5.5-2.2.7,0-.2.1-.5.2-.7,1.2-4,2-7.5,2-7.6l3.8-17.5-12.6,12.7c-1.1,1.1-4.7,3.9-15.3,6.9,2.5-2.8,4.2-5,4.3-5.1l10.1-12.7-15.6,4.4c-5.6,1.6-12.3,2.4-19.7,2.4,7.5-5.2,14.8-12.7,22.1-22.5,3.1-4.1,5.8-8.2,8-11.9-1.7.9-3.6,2.3-5.6,3.7-9.8,15.1-26,34.6-44.9,36.9,0,0,23.4,4.7,42.7-.7,0,0-12,15.1-19,17.7,0,0,29.5-4.2,37.8-12.6,0,0-3,13.6-6.6,16.9,0,0,24.2-3.1,33.3-15.5,1.9-2.6-5.8,17.6-5.8,17.6,13.8,0,30.2-11.5,31.7-13.7,0,0,5.4,10.2.2,13.6,0,0,4.5-2.3,9.9-5.7,6-3.7,13-8.6,16.1-12.9,0,0,9,19.3,26.6,17.8,0,0-4.7-8.9,1.1-17,.5-.7,1.1-1.4,1.8-2.1,0,0,.9,4.1,3.9,8.5,3.7,5.4,10.6,11.2,23,9.8,0,0-9.9-6.2-2.5-20.9,0,0,7,19.8,27.1,18.6,0,0-7.6-9-2.5-17.4,0,0,7.5,16.6,37.1,16,0,0-13.1-9.9-11-18.1,0,0,15.7,7.6,40.2,1.8Z"/>
    <path className="st12" d="M316.8,345.7l-.5,2.3-.5,2.6c-.8,3.9.2,8.4,3,13.6.7-.4,1.3-1,1.9-1.9.7-1,1.3-1.7,1.8-2.1,0,0,0,0,.1,0,2.4-1.9,3.5,1.1,5.9,1.1-.5-.9-1-1.9-1.4-2.9,1,.7,2.2,1.5,3.5,2.2.7-1.6,1.3-3.2,1.9-5-3.2,0-6-1.4-8.1-3.5-1.7-1.8-2.9-4-3.2-6.6,0-.3,0-.5,0-.8l-3.5-3.2-.8,4Z"/>
    <path className="st12" d="M155.1,352.3c0-.2,0-.4-.1-.6-.1-.8-.3-1.5-.4-2.3,0-.6-.2-1.3-.2-1.9l-5.9,2c-.3,0-.5.2-.8.3.3.4.6.8,1,1.2.6.7,1.3,1.4,2.2,2,.7.5,1.4,1,2.3,1.5.9.5,1.5.8,2.1,1.1l.3-.9c-.2-.8-.4-1.6-.5-2.4Z"/>
    <path className="st12" d="M312.5,321.7c2.9,5.1,6.6,10.3,10.9,15.5.9-1.2,2-2.1,3.2-2.9-2.8-3.5-5.4-7.2-7.6-11-2.5-1.6-4.7-2.5-6.5-1.6Z"/>
    <path className="st12" d="M127,354.1c-3.4,1.9-6.8,3.2-10.2,3.7,0,0,5.2,1.3,12.5,1.8-.7-1.7-1.4-3.5-2.2-5.2,0-.1,0-.2-.1-.3Z"/>
    <path className="st12" d="M339.3,353.6c.8.7,1.6,1.5,2.4,2.2,1.9.7,3,2,3,2,2.8,4.2,3.4,7.3,2.8,9.5,4.4.7,9.2.7,13.9-.7,0,0-9-6-19.4-15.7-.7,1.1-1.7,2-2.7,2.7Z"/>
    <path className="st12" d="M142.6,344.3c.1,0,.2,0,.3,0,3.7-3.7,7.6-8,11.4-12.9.1-1.7.3-3.4.5-5-4.4,6-9.6,12.3-15.1,17.6,1.2,0,2.2,0,2.8.1Z"/>
    <path className="st12" d="M159.8,323.2c-.2,0-.3,0-.5,0-.1.7-.3,1.5-.4,2.3.6-.8,1.1-1.6,1.7-2.3-.3,0-.5,0-.8,0Z"/>
    <path className="st12" d="M158.4,346.1h-.2c0,.2,0,.3,0,.5l.2-.5Z"/>
    <path className="st12" d="M336.3,356.2c.2-.1.4-.2.6-.3-.2,0-.3-.2-.5-.2,0,.2-.1.3-.2.5Z"/>
    <path className="st12" d="M233.9,349.9v-2.3c-.1,0-.5-5.2-.5-5.2l-3,5.3-1.3,2.3-3.1,5.4c4.5-.3,8,5.6,8,5.6.3,0,.5-.1.8-.2-.1-.6-.2-1.1-.2-1.2l-.6-9.8Z"/>
    <path className="st12" d="M212.2,379.7c2.1-1.5,5.3-3.7,8.5-6.3-2.6.7-5.3,1.3-7.5,1.6-.5,0-1.1,0-1.6,0,0,.7,0,1.5-.2,2.1.4.8.7,1.7.9,2.6Z"/>
    <path className="st12" d="M298.7,351.5l-2-3-1.5-2.3-1.5-2.3-1.1,2.3-1.1,2.3-1.7,3.6c-1.6,3.4-1.4,7.7.7,12.7-2.7-1.1-5.2-2.5-7.2-3.9-.8,2.2-2.3,4.2-4.2,5.5,1,.8,2.1,1.5,3.3,2.3.1-.2.2-.5.4-.7,4.3-7.7,9.9-.2,14.9,0-1.9-3.6-3.4-7.8-2-10.8,0,0,2.4,3.5,7.1,7.4,4.3-5.4,9.6.3,14.1.2-3.4-1.3-6.6-3.1-9.7-5.3-5.3-3.9-8.2-7.9-8.3-8.1Z"/>
    <path className="st12" d="M141.1,374.5s6.6-1.3,13.4-4c-.9-1.5-1.7-3.2-2.6-4.9-.8-1.5-1.6-2.3-2.6-2.6-1.9,4.4-4.8,10-8.2,11.6Z"/>
    <path className="st12" d="M213,350.4l-.5-2.3-1.4-7.3-4.1,7.4-1.3,2.3-1.6,2.8c-.2.4-.8,1.4-1.8,2.7,2.8-1.2,4.8-1.4,9.9-.4.7.1,1.3.2,1.8.4-.1-.6-.2-1-.2-1.1l-.9-4.5ZM211.1,348.1c-.3.6-.9,1-1.6,1s-1.2-.4-1.5-.9c-.1-.2-.2-.5-.2-.8,0-1,.8-1.7,1.7-1.7s1.7.8,1.7,1.7,0,.5-.2.8Z"/>
    <path className="st12" d="M272.2,368.6c0,0-.2,0-.3,0-1.3,3.8-3,7.2-5.1,10.1,3.4.9,7.6,1.6,12.5,1.9,0,0-2.9-5.8-5.4-11.4-.4-.2-.7-.5-1.1-.7-.2,0-.5,0-.7,0Z"/>
    <path className="st12" d="M245.9,380.6s-1.8-13.2,3.8-17.9c0,0,.1,9.6,13.3,14.8,1.5-2,2.8-4.2,4-6.7-12.1-3.4-13.1-10.2-13.2-11.1l.4-10.2v-1.6c0,0-1.8,1.7-1.8,1.7l-7.2,6.3c-2,1.7-3.5,4-4.5,7,.5,1.1.6,2.6.3,4.6-.5,4.3-5.2,3-8.7,2.3,1.9,4.3,5.8,9.5,13.6,11Z"/>
    <path className="st12" d="M165.6,378.4c1.2-.3,2.7-.7,4.2-1.3-1.8-1.2-3.4-2.6-4.8-4.2-.2.1-.3.2-.5.3-.2,0-.3.2-.4.3-.2.8-.5,1.5-.7,2.2,1.2.4,2.1,1.4,2.3,2.7Z"/>
    <path className="st12" d="M267.8,367.6c0,.2.2.4.3.6,0-.1,0-.3.1-.4-.1,0-.3-.1-.4-.2Z"/>
    <path className="st12" d="M189.3,380c0,0,.2,0,.3-.1.3-1.5.9-2.8,1.6-4-2.2.6-4,.3-5.7-.4-.4,1.4-.8,2.7-1.1,3.8,1.6.3,3.2.6,4.9.8Z"/>
    <path className="st12" d="M180.4,372c-.3-.2-.6-.5-.9-.7-3.6-2.7-6.6-2.8-11.2-.3,1.7,1.7,3.7,3.2,5.8,4.4,2.1-.9,4.2-2.1,6.2-3.4Z"/>
    <path className="st12" d="M287.2,305.9l-1.3-2.4-2.4-4.5-1.8,4.5-1,2.3-1.4,3.5c-.7,1.7-1,3.6-.9,5.7,2.2.7,4.3,1.3,6.4,1.4,0-.8.2-1.6.5-2.2,0,0,.4.8,1.3,2.1.1,0,.2,0,.4,0,3.1-.7,2.8-2.8,4.1-4.1-1.4-1.9-2.2-3.2-2.3-3.4l-1.6-2.9Z"/>
    <path className="st12" d="M172.7,305.5l.6-2.3.8-3-6.8,2.7c.7.6,1.3,1.2,1.8,1.9.7.9,1.2,1.8,1.6,2.9.3.8.5,1.7.6,2.7,0,0,0,0,0,0l1.3-4.8Z"/>
    <path className="st12" d="M149.2,307.4c-3.4,2.3-6.8,3.9-10,4.4,0,0,3.9,1.3,9.4,1.9-.1-.7-.2-1.4-.2-2.2,0-1.5.3-2.9.8-4.1Z"/>
    <path className="st12" d="M161.3,300.2c4.2-4.2,8.7-9.3,13.3-15.2,1.4-1.8,2.7-3.5,3.9-5.2,2-.4,4.6-1,7.4-1.8-1.8-.8-2.4-2.2-3.8-3.4-.6-.5-1.3-1-2.4-1.3,0,0,0,0,0,0-.2.3-.3.6-.5.9-1.2,1.7-2.4,3.5-3.7,5.3-.3.4-.7.8-1,1.1,0,0,0,0,.2,0-4.9,6.7-10.8,14-16.9,19.8.7-.1,1.4-.2,2.2-.2.4,0,.9,0,1.3,0Z"/>
    <path className="st12" d="M339,324.5s-2.4-2.3-6.2-6.2c-1,2.7-1.9,5.2-3,7,3,.4,6.1.2,9.2-.8Z"/>
    <path className="st12" d="M309.8,305.6l-1.7-2-5.4-6.2-1.1,6.2-.4,2.3-.4,2.2c-.2,1.2-.3,2.5-.2,3.9,4.5,1.4,2.8,3.8,6.3,2.1,0-.7,0-1.5.1-2.2,0,0,.5.5,1.3,1.4,0,0,0,0,0,0,.2,0,.4-.2.6-.3,1.7-.9,2.9-1.9,3.9-2.9.3-.3.6-.6.8-.9-.6-.5-1.1-.9-1.5-1.4-1.5-1.3-2.3-2.3-2.3-2.3Z"/>
    <path className="st12" d="M266,306.5l-3.7,1.3c-2.9,1-3.8,3.8-4.2,6.2,1.3.4,2.5.9,4.2,1.7,4.4,2.1.7-3.3,7.7-2.7.3,0,.7,0,1,.1-1.7-1.9-2.7-3.4-2.7-3.4l-2.3-3.3Z"/>
    <path className="st12" d="M244.7,310.3c-.1,0-.2,0-.4,0l-1.9,2.5c-.5.7-1.1,1.5-1.8,2.4,2.7.5,4.4,0,9.2-.9.6-.1,1.1-.2,1.6-.3l-1.5-4.9c-1.6.8-3.4,1.3-5.3,1.3Z"/>
    <path className="st12" d="M184.5,317.4s-2.3,4.6-4.7,9c2.6,1.5,5.2,2.7,7.9,3.5,10.7-3.9,24.9-9.9,27.6-15.7,0,0-2.1,9.5-4.7,15.2,3.8-1.4,7.3-3.2,10.5-5.3,0-4.4,2.5-5.5,6.3-4.7,1.4-1.2,2.7-2.4,3.9-3.5,1.3-1.3,2.5-2.6,3.6-3.8l-1.9-6.4-.7-2.3-1.4,2.3-4.7,7.9c-.4.7-2,3.3-9,6.8,1-3.2,1-11.3.9-14.8,0-1,0-1.6,0-1.6,0,0-.7.6-2,1.6-3.9,2.9-13.1,9.3-25.5,14.3-1.7.7-3.4,1.3-5.1,1.9,1.2-2.3,2.3-15.8,2.3-15.8,0,0-10.5,8.1-17.7,11.1-.3.5-.6.9-.9,1.4,2.2,2,4.4,3.8,6.6,5.3,3.7-1.7,7-3.8,8.8-6.5Z"/>
    <path className="st12" d="M263.1,332.1c-1.9,0-3.8.2-5.6.5,1.6,1.1,3.4,2,5.5,2.5,0,0,0-1.2.1-3.1Z"/>
    <path className="st12" d="M236.4,335.1s1.1-1.6,2.6-3.9c-2.6-.9-4.7-1.9-5.5-2.8-.2-.2-.5-.4-.9-.4.6,2.7,1.7,5.4,3.8,7.2Z"/>
    <path className="st12" d="M290.2,331.8s-1.1-1.7-2.2-4c-1.8,0-3.5.7-5.3,2.1-.2.1-.4.3-.6.4,2.6,1.1,5.3,1.7,8.1,1.5Z"/>
    <path className="st12" d="M310.1,324.6c-1.3,2.6-2.6,5.3-4.2,7,2.8.9,5.9,1.5,9.3,1.4,0,0-2.8-3.7-5.1-8.4Z"/>
    <path className="st12" d="M158.8,328.8s6.2-1,12.7-3.3c-1.7-1.3-3.4-2.7-5.1-4.3-.9.6-1.9,1.1-2.9,1.4-1.4,2.8-2.9,5.3-4.6,6.2Z"/>
    <path className="st12" d="M175.3,334s2.7-.8,6.7-2.1c-1.4-.6-2.8-1.3-4.1-2.1-1,1.8-2,3.4-2.6,4.2Z"/>
    <path className="st12" d="M259.8,248.8l-1.4,3.3c1.1,0,2.2,0,3.4,0l-2-3.2Z"/>
    <path className="st12" d="M294.3,258.9c1.5,1.4,2.9,2.6,4.3,3.8,2.7,2.3,5.3,4.2,7.7,5.9-3.5-.3-6.9-1.3-10.1-3.2-.7-.4-1.4-.8-1.9-1.2-.1,2.2-.4,4.3-.8,6.4,0,.4-.2.9-.3,1.3-.4,1.7-.9,3.3-1.5,4.8,3.9,5.8,9.5,13,17.7,22.4,2.2,2.5,4.4,4.9,6.5,7.2.9-1.3,1.6-2.4,2.8-3-8.8-9.7-18.3-21.1-23.9-30.4,5.6,3.2,15.1,6.3,27.2,1.4,0,0-12.9-6.2-26.1-19.2-.6.3-1.2.6-1.8.8.1,1,.2,2,.2,3.1Z"/>
    <path className="st12" d="M180.5,262.6c1.3-.8,2.4-1.1,3.4-1,.6-.5,1.1-1,1.6-1.5,0,0-.2.6-.6,1.7.7.2,1.3.5,1.8.9,0,0,0,0,0,0,0,0,0-.2,0-.3.9-6,1-12.6,1-12.6,0,0-10.1,6.2-12.2,7,6.8-6.5,12.9-14.5,17.7-21.6,3.6,0,10.5-.4,16.6-4.8-.3-.4-.5-.7-.7-1.1-.7-1-1.3-2-1.9-3-1.1.3-2.3.5-3.5.5-.7,0-1.4,0-2.1-.2-1.5,2-3.7,4.3-6.8,6.3,1.7-2.5,3.2-4.9,4.4-7-.9-.4-1.7-.8-2.4-1.4-5.1,8.6-14.7,23.3-25.6,33.2.4.5.8,1,1.2,1.6,1.9,2.7,4.1,5.5,8,3.3Z"/>
    <path className="st12" d="M160.7,265.3c-1.5.7-2.9,1.3-4.4,1.8,0,0,2.3.2,5.6.2-.4-.5-.7-.9-.9-1.4-.1-.2-.2-.4-.3-.6Z"/>
    <path className="st12" d="M200.1,282.4s22.4-4.8,27-13.9c0,0-3.3,13.4,7.3,17.7,0,0,4.4-17.4,6.5-19.2,0,0,8.5,13.8,22.8,16.4,0,0-5.9-10.7-1.9-20.4,0,0,8.2,13.2,21.6,20.6.5-.6,1-1.3,1.4-2,1.9-2.9,3.2-6,4.1-9.1,0,0,0-.2,0-.2.3-1,.5-2,.7-3,.3-1.8.5-3.6.6-5.4,0-1.1,0-2.2,0-3.2l-4.8-5.4c-.2,0-.4-.2-.6-.3l-1.3,5-.6,2.3-.3,1.3c.4.5.6,1.1.6,1.8s-.4,1.8-1.1,2.3c.1,2.5,1,5.2,2.6,8.4-7.1-3.9-12.7-9.6-16.1-13.8-.7-.9-1.3-1.7-1.8-2.3-1.2-1.6-1.9-2.6-1.9-2.7l-1.1-1.7c-2.5.2-4.9.3-7.3.2l-.9,2.3c-.3.6-.5,1.3-.7,1.9-.2.8-.4,1.6-.6,2.3-.7,3.2-.6,6.4-.2,9.2-4.8-3.2-8.1-7.3-9.5-9.2-.4-.6-.7-1-.7-1l-.8-1.3-2.3-3.7-4.6,3.7h0c-.6.5-1.2,1.1-1.9,2.3-1,1.7-2.1,4.6-3.8,10,0,0,0-.2,0-.2-.2-1.6-1-6.1-1.7-9.8-.2-.8-.3-1.6-.4-2.3-.3-1.7-.5-2.9-.5-2.9,0,0-1.1,1.2-3,2.9-.8.7-1.6,1.5-2.6,2.3-1.2,1.1-2.6,2.2-4.1,3.2,6.3,10.2-5.5,11.3-10.4,9.9-1.2-.3-2.2-.3-3.3-.2-1,2.7-2.5,5.4-4.7,7Z"/>
    <path className="st12" d="M287,285.3c3.6,1.6,7.5,2.7,11.7,3,0,0-4.5-5.2-7.4-10.7-.9,2.1-1.9,4.2-3.2,6.1-.4.5-.7,1.1-1.1,1.6Z"/>
    <path className="st12" d="M208.1,260.1c-.6-2.4-1.2-4.3-1.2-4.3l-4.5,4.3-1.5,1.4c-.1.2-.3.5-.7.9-1,1-2.9,2.5-7,4.3,1.1.2,2.2-.1,3.5-1.1,5.7-5.1,3.8,4,10.8-.9.5-.4,1-.7,1.4-1,0-.4-.2-.9-.3-1.3-.2-.8-.4-1.6-.6-2.3Z"/>
    <path className="st12" d="M216.4,207.3l-1.9,3.6c.1.4.3.7.4,1.1,1.1-.2,2.2-.4,3.4-.7l-1.9-4Z"/>
    <path className="st12" d="M290.5,224.9c4.8.4,9.8.4,13.3-.9,0,0-3.9-1-9.8-4.1.1,2.8-1.4,4.2-3.5,5Z"/>
    <path className="st12" d="M271.4,229.4c-.8.3-1.6.6-2.6.9-1.7.5-2.9.5-3.9.3,2.6,1.3,5.7,2.6,9.2,3.8,1.6,2.7,3.3,5.3,5.1,7.7.4-1.7,1.2-3.3,2.3-4.6-.2-.4-.5-.8-.7-1.1.5.1,1,.2,1.4.3.4-.4.8-.8,1.3-1.1-1.7-2.1-4.7-5.9-6.4-9-.4.2-.8.4-1.2.7-1.3.7-2.7,1.4-4.5,2.1Z"/>
    <path className="st12" d="M192.4,215.2c0-.2,0-.4,0-.6-4.9,3.7-10.6,6.8-18,9.7,0,0,12.5,1.5,21.9-.4-2.4-2.1-3.9-5.3-3.9-8.8Z"/>
    <path className="st12" d="M259.5,189.8c-.2,0-.4,0-.5,0-.3.6-.6,1.1-.9,1.6-.4.7-.8,1.4-1.3,2,2.9,3.6,5.8,6.9,8.7,9.8.6-.4,1.2-.6,2-.6,2,0,3.7,1.7,3.7,3.7s-.2,1.2-.4,1.8c3.2,2.8,6.3,5.2,9.1,7.2-2.2-.5-3.6-.8-3.7-.8l-5.1-1.3-1.3,4.8c.8-.2,1.6-.7,2.4-1.6,4.8-5.8,3.9,3.3,10.2-2,.3-.3.7-.6,1-.8-6.5-4.6-13.7-10.9-20.7-19.7,2.9,1.4,6.2,2.7,10,3.5,0,0-4-5.6-5.8-9.7-1.9,1.4-4.3,2.2-6.9,2.2-.1,0-.3,0-.4,0Z"/>
    <path className="st12" d="M208.3,204.7c1,.4,1.8.9,2.6,1.5l1-5.4-3.6,3.8Z"/>
    <path className="st12" d="M250.8,218.5c2,1,3.9,1.3,5.9-1.1,0,0,0,0,0,0l-4.5-3.3-1.4,4.5Z"/>
    <path className="st12" d="M259.7,227.8c1,.6,2.2,1.3,3.6,2-1.1-.8-1.9-1.8-3.6-2Z"/>
    <path className="st12" d="M212.9,227.9c1.6-1.6,3.1-3.6,4.4-6.1,0,0,4.2,8.8,3.8,15.6.2.2.4.3.5.5,2.3-2.7,10.3-12.1,13.3-15.6h.8c1.2,3.5,7.2,17.6,23.5,19.2,0,0-4.5-5.5-3.7-12.8-.3.1-.7.3-1,.4-7.6,3.4-15.4-.7-15.4-6.5,0-.8.1-1.6.4-2.4.1-.4.3-.8.6-1.3-.4-.9-.6-1.5-.6-1.6l-2.2-8.2c-.9.4-1.7.8-2.6,1.2l-4.2,5.2c-.6.8-1.8,2.2-3.2,3.8,0,0,0,0,.1.1.4.6.6,1.3.6,2.1s0,.3,0,.4c-.2,1.9-1.8,3.4-3.8,3.4s-3.8-1.7-3.8-3.8,0,0,0-.1c0-.9.4-1.7.9-2.4.1-.2.3-.3.5-.5-.4-.9-.7-1.5-.8-1.8l-.9-1.9c-1.6.4-3.1.7-4.6,1,0,1-.2,1.9-.4,2.7-.2.8-.6,1.6-1,2.4-.8,1.5-1.9,2.7-3.3,3.7.5.9,1.1,1.7,1.7,2.6.1.2.3.4.4.6Z"/>
    <path className="st12" d="M256.3,167.3c-1.1-1.3-2.3-2.7-3.7-3.1,1.1,1.1,2.3,2.2,3.4,3.3,0,0,.2,0,.3-.1Z"/>
    <path className="st12" d="M269.4,184.9c4.5,1.1,12.4,2.6,16.9.6,0,0-6.7-3.8-15.2-10.3.3,1,.4,2.1.4,3.2,0,2.4-.8,4.7-2.1,6.6Z"/>
    <path className="st12" d="M206.4,204.1c2.4-3,4.8-6.4,7.2-10.2,3.2-1.5,6.6-4.2,9.1-9.3.3-.1.5-.3.8-.4.3.9.9,2.7,1.4,4.8.6-1,1.7-1.7,2.9-1.7,1.9,0,3.4,1.5,3.4,3.4s0,0,0,.1c2.2-3.1,4.4-6.3,5.3-7.6,0,0,2.4,10.4,10.3,15.3,1.7-1.4,3.1-2.8,4.5-4.3-.4-2.2-.4-4.7.2-7.5,0,0,.3.2.8.6.7,1,1.3,1.9,2,2.8.2-.3.4-.6.5-.9.1-.2.2-.4.3-.6-1.6-.7-3-1.8-4.1-3.2-.5-.6-1-1.3-1.3-2.1-.7-1.4-1.1-2.9-1.2-4.5,0-.3,0-.6,0-.9,0-1,.1-1.9.4-2.8l-1.4-1.3-1.1,4.5-.6,2.5-.4,1.5c-.4,1.7-.6,3.4-.7,5.1-.4-.5-.8-1-1.1-1.6-1.3-2.1-2.2-4.2-2.6-5.5-.3-.8-.4-1.3-.4-1.4l-.2-.9-1.2-5.4c-.7,0-1.5,0-2.3-.3-.7-.2-1.3-.6-1.8-.9l-3.9,5.8c-.4.5-.9,1.4-1.6,2.4-.4.6-.9,1.3-1.3,1.9-.2-.5-.3-1-.5-1.4-.3-.9-.5-1.5-.6-1.7l-3.3-8.5c-1,.6-2.2,1.1-3.4,1.4l-1.4,3.2.4-2.9c-2.9.7-6.1.8-8.6.4-5.6,5.4-12,10.2-18.8,13.5,0,0,17.4,2.5,22.2-3.8,0,0-1.2,8.4-10.1,13.3,0,0,2.4.4,5.5-.1-.9,1.3-1.8,2.6-2.6,3.8.6.3.9.9.9,1.6,0,1.1-.9,1.9-1.9,1.9s-.9-.2-1.3-.5c-.4.6-.9,1.2-1.3,1.7.2,0,.5,0,.7,0,.8,0,1.6,0,2.4.3Z"/>
    <path className="st12" d="M252.5,198.5c-.6.6-1.2,1.2-1.9,1.8,1,.3,2,.5,3.2.7,0,0-.6-.9-1.3-2.5Z"/>
    <path className="st12" d="M225.8,193.4c.2,1.8.3,3.5.1,5.1,0,0,1.4-2,3.3-4.7-.4.2-.8.3-1.3.3-.8,0-1.5-.3-2.1-.7Z"/>
    <path className="st3" d="M212.4,382.3c0,.7,0,1.5-.2,2.2,2.3.7,4.8,1.5,7.6,2.1,9.3,2.2,22.6,3.8,33.1-1,4-1.9,7.4-4.6,10.2-8.1-13.2-5.2-13.3-14.8-13.3-14.8-5.6,4.8-3.8,17.9-3.8,17.9-7.8-1.5-11.6-6.6-13.6-11-1.7-.3-3.1-.5-3.7.2-1,1.2-4.3,2.6-8,3.6-3.2,2.6-6.3,4.9-8.5,6.3.2.8.3,1.7.3,2.5Z"/>
    <path className="st3" d="M311.8,380c-3.2.4-6.7.4-10.4-.1-.2,0-.3,0-.5,0,0,0-.2,0-.2.1-9,5.2-19.3.7-19.5-6.8-2.8-1.4-5.3-2.8-7.2-3.9,2.5,5.6,5.4,11.4,5.4,11.4-5-.3-9.1-.9-12.5-1.9-3.1,4.4-7.1,7.8-12,10.1-.1,0-.3.1-.4.2-.8.4-1.6.7-2.4,1-4.6,1.7-9.8,2.5-15.5,2.5s-.1,0-.2,0c-5.4,0-11.3-.8-17.6-2.3-.1,0-.3,0-.4,0-2.8-.7-5.3-1.4-7.6-2.2-2,3.4-5.8,5.7-10,5.7-5.7,0-10.4-4.3-11.3-9.8-7.8-.8-14.4-3-19.7-6.8-1.6.5-3,1-4.2,1.3,0,.1,0,.3,0,.4,0,1.8-1.5,3.3-3.3,3.3s-3.3-1.5-3.3-3.3,1.5-3.3,3.3-3.3.7,0,1,.1c.3-.7.5-1.4.7-2.2-4.7,2.8-7.4.5-9.6-3.1-6.8,2.8-13.4,4-13.4,4,3.3-1.5,6.3-7.1,8.2-11.6-1.3-.4-2.9,0-4.5,1-2.3,3.7-5,7.8-8,11.9-7.3,9.8-14.6,17.3-22.1,22.5,7.5,0,14.1-.8,19.7-2.4l15.6-4.4-10.1,12.7c0,.1-1.8,2.3-4.3,5.1,10.6-3,14.2-5.8,15.3-6.9l12.6-12.7-3.8,17.5c0,.1-.8,3.7-2,7.6,0,.2-.1.5-.2.7.7-.2,1.5-.4,2.2-.7,8.4-2.7,14.4-6.3,17.5-10.5,1.5-2,3.4-2.4,4.5-2.4,1.7,0,3.4.9,4.4,2.3,1.6,2.4.9,4.7-.1,7.6-.5,1.6-1.2,3.7-2.2,6.2,0,.1,0,.2-.1.3,3.5-1,6.7-2.5,9.3-3.8,5.4-2.7,9.3-5.7,10.2-6.6l4.8-7,4,7.7c.2.3,1.5,2.9,2.4,6.2,1.4-.9,2.8-1.8,4.2-2.7,4.6-3.1,8.8-6.4,10.7-9l5.2-7.4,3.8,8.2c0,.2,2,4.1,5.5,7.8,2.9,3.1,6.1,5.2,9.4,6.3-.6-6.4,1.5-12.2,6-16.8l3.1-3.2,3.7-3.8,2,9.3v.3c.1.3,1.1,4,3.8,7.6,2.2,2.9,4.9,4.8,8.1,5.9-1.1-4.5-.8-10.3,2.7-17.3l5.6-11.2,4,11.7c0,.2,1.6,4.2,4.9,7.9,2.5,2.8,5.3,4.8,8.4,6-1-4.2-.7-8.2,1-11.9-.5-.6-.9-1.3-.9-2.1,0-1.7,1.4-3.1,3.1-3.1s.5,0,.7,0l3.3-5.5,3.9,9.4c.2.4,1.9,3.4,6.1,6.4,3.6,2.5,8,4.4,13.1,5.5-3-4.6-4-9-3-13l1.6-6.3,5.8,2.9c.3.1,7.1,3.2,18.3,3.5-1.8-1.1-3.7-2.3-5.6-3.7-6.4-4.6-14-11.3-21.1-21-1.8,0-3.4,0-5.1-.3-2.2,1.4-4.8,3.1-8.4,4.6-3.2,1.3-5,.9-6.4.2ZM139.2,386c-1.9,0-3.5-1.6-3.5-3.5s1.6-3.5,3.5-3.5,3.5,1.6,3.5,3.5-1.6,3.5-3.5,3.5ZM239.6,402.6c-1.6,0-2.8-1.3-2.8-2.8s1.3-2.8,2.8-2.8,2.8,1.3,2.8,2.8-1.3,2.8-2.8,2.8ZM265.4,390c-.5.7-1.4,1.2-2.4,1.2s-.6,0-.8-.1c-.6-.2-1.2-.6-1.6-1.1-.3-.3-.4-.8-.5-1.2,0-.2,0-.4,0-.6,0-1.7,1.3-3,3-3s3,1.3,3,3-.2,1.3-.6,1.8ZM324.5,398.9c.9,0,1.7.7,1.7,1.7s-.7,1.7-1.7,1.7-1.7-.7-1.7-1.7.7-1.7,1.7-1.7Z"/>
    <path className="st3" d="M189.6,379.9c0,0-.2,0-.3.1,0,0,.2,0,.3,0,0,0,0-.1,0-.2Z"/>
    <path className="st3" d="M295.5,357.3c-1.4,3,0,7.2,2,10.8,1.6.1,3.1-.5,4.5-2.6.2-.3.4-.5.6-.8-4.7-3.9-7.1-7.4-7.1-7.4Z"/>
    <path className="st3" d="M184.3,379.2c.3-1,.7-2.4,1.1-3.8-1.7-.8-3.3-2.1-5.1-3.5-2,1.4-4.1,2.5-6.2,3.4,3,1.7,6.4,3,10.2,3.8Z"/>
    <path className="st3" d="M211.4,375c-.5,0-1.1,0-1.6-.1.6.7,1.1,1.5,1.5,2.3,0-.7.1-1.4.2-2.1Z"/>
    <path className="st3" d="M278,367.1c1.2.7,2.5,1.4,4,2.2,0-.2.1-.3.2-.5-1.2-.7-2.3-1.5-3.3-2.3-.3.2-.6.4-.9.6Z"/>
    <path className="st3" d="M154.4,347.4c-.5-4.5-.5-9.4-.2-14.6,0-.4,0-.9.1-1.3-3.9,4.9-7.7,9.2-11.4,12.9,2.3.7,3,2.9,4.8,5.3.3,0,.5-.2.8-.3l5.9-2Z"/>
    <path className="st3" d="M245.2,355.8l7.2-6.3,1.9-1.7v1.6c0,0-.5,10.2-.5,10.2,0,.9,1.1,7.7,13.2,11.1.4-.8.7-1.7,1-2.5,0-.2-.2-.4-.3-.6-4.1-1.8-7-5.9-7-10.7,0-2.6.9-5,2.4-6.9,0-.1,0-.3,0-.4s0-.3,0-.4c.2-.8.9-1.3,1.7-1.3s.3,0,.4,0c.5-.4,1.1-.8,1.7-1.1,1.6-.9,3.5-1.4,5.5-1.3,1.7,0,3.4.4,4.8,1.1,1.2.6,2.3,1.3,3.2,2.2,2.1,2.1,3.4,5,3.4,8.3,0,1.4-.3,2.6-.7,3.8,2.1,1.4,4.6,2.8,7.2,3.9-2.1-5-2.4-9.3-.7-12.7l1.7-3.6,1.1-2.3,1.1-2.3,1.5,2.3,1.5,2.3,2,3c.2.2,3,4.2,8.3,8.1,3.1,2.3,6.3,4,9.7,5.3.7,0,1.4-.2,2.1-.6-2.8-5.2-3.8-9.8-3-13.6l.5-2.6.5-2.3.8-4,3.5,3.2c0-.3,0-.5,0-.8,0-2.6.9-4.9,2.3-6.8-4.4-5.2-8-10.4-10.9-15.5-.8.4-1.5,1.2-2.2,2.4,0,.2-.2.3-.2.5,2.3,4.7,5.1,8.4,5.1,8.4-3.4,0-6.5-.5-9.3-1.4-2,2-4.4,2.7-8.1.3-4.2-2.7-7.1-4.1-9.7-4.1,1.2,2.4,2.2,4,2.2,4-2.8.2-5.5-.4-8.1-1.5-4.3,3.3-7.5,6.4-13.7,3.1-1.7-.9-3.5-1.3-5.3-1.4,0,1.8-.1,3.1-.1,3.1-2.1-.5-3.9-1.4-5.5-2.5-3,.5-5.9,1.2-8.3,1-3-.3-6.9-1.2-10.1-2.3-1.5,2.3-2.6,3.9-2.6,3.9-2-1.8-3.2-4.5-3.8-7.2-2.5-.3-8.2,2.3-10.5,0-.8.5-1.6,1-2.3,1.4-6.1,3.5-12.3,5.5-18.5,5.9-6.5.5-12.9-.7-19.2-3.5-4,1.3-6.7,2.1-6.7,2.1.6-.8,1.6-2.4,2.6-4.2-2.1-1.2-4.3-2.6-6.4-4.2-6.5,2.3-12.7,3.3-12.7,3.3,1.7-.9,3.3-3.4,4.6-6.2-.9.3-1.8.5-2.8.5-.5.8-1.1,1.6-1.7,2.3-.4,2.4-.7,5-.8,7.7-.3,3.9-.3,8.4,0,12.9h.2c0,0-.2.4-.2.4,0,.9.2,1.8.3,2.7.1.8.2,1.5.4,2.3.2.9.4,1.9.6,2.8.9-.6,2.5-1.3,5.3-1.7,9.6-1.3,5.2,3.9,10.4,5,5.2,1.1,10-2.6,17-3.2,7.1-.7,3.3,4.7,7.7,2.7.9-.4,1.7-.8,2.4-1.1.9-1.3,1.6-2.3,1.8-2.7l1.6-2.8,1.3-2.3,4.1-7.4,1.4,7.3.5,2.3.9,4.5c0,0,0,.4.2,1.1,4.8,1,6,1.2,10.6-.4.4-.1.9-.2,1.3-.3l3.1-5.4,1.3-2.3,3-5.3.3,5.2v2.3c.1,0,.8,9.8.8,9.8,0,0,0,.5.2,1.2,2.9-.6,5-.2,5.9,1.9,1-3,2.5-5.3,4.5-7ZM302.7,348.4c.3-.3.7-.5,1.2-.5s.8.2,1.1.4c.4.3.6.8.6,1.3,0,1-.8,1.7-1.7,1.7s-1.7-.8-1.7-1.7.2-1,.6-1.3ZM165.2,334.6c-1,0-1.8-.8-1.8-1.8s.8-1.8,1.8-1.8,1.8.8,1.8,1.8-.8,1.8-1.8,1.8ZM244,349.1c0-.7.2-1.3.6-1.8.6-.8,1.5-1.3,2.5-1.3s1.8.5,2.4,1.2c.4.5.7,1.2.7,1.9s0,.3,0,.4c-.2,1.5-1.5,2.7-3.1,2.7s-2.8-1.1-3-2.6c0-.2,0-.3,0-.5Z"/>
    <path className="st3" d="M337,355.9c1.9-.7,3.5-.6,4.7-.2-.8-.7-1.6-1.4-2.4-2.2-.8.6-1.7,1-2.6,1.4,0,.2-.1.5-.2.7.2,0,.3.2.5.2Z"/>
    <path className="st3" d="M201,331.5c3.4-.3,6.6-1,9.6-2.1,2.6-5.7,4.7-15.2,4.7-15.2-2.7,5.7-16.9,11.8-27.6,15.7,4.4,1.4,8.8,2,13.3,1.6Z"/>
    <path className="st3" d="M184.5,317.4c-1.8,2.7-5.1,4.8-8.8,6.5,1.3.9,2.7,1.8,4.1,2.6,2.4-4.5,4.7-9,4.7-9Z"/>
    <path className="st3" d="M306.8,314.1c.4-.2.9-.4,1.5-.8-.9-.9-1.3-1.4-1.3-1.4-.1.7-.2,1.4-.1,2.2Z"/>
    <path className="st3" d="M284.8,316.5c.6,0,1.2,0,1.8-.1-.9-1.3-1.3-2.1-1.3-2.1-.3.7-.4,1.4-.5,2.2Z"/>
    <path className="st3" d="M155.4,355.6c.2,0,.4.2.5.2,0-.4-.2-.7-.3-1.1l-.3.9Z"/>
    <path className="st3" d="M185.5,321.8c1.6-.6,3.4-1.2,5.1-1.9,12.3-4.9,21.6-11.3,25.5-14.3,1.3-1,2-1.6,2-1.6,0,0,0,.6,0,1.6,0,3.4,0,11.5-.9,14.8,7-3.6,8.7-6.1,9-6.8l4.7-7.9,1.4-2.3.7,2.3,1.9,6.4c1.2-1.4,2.3-2.7,3.3-3.9-1-.7-1.8-1.5-2.6-2.5-.5-.7-1-1.5-1.4-2.4-.6-1.4-1-3-1-4.7,0-6.4,5.3-11.5,11.6-11.4,6.3,0,11.4,5.2,11.4,11.5,3.7-.8,7.1-1.8,10.3-3.1,0-.2,0-.4,0-.6,0-1.6,1.3-2.9,2.9-2.9s1.8.4,2.3,1.1c4.8-2.6,8.8-5.8,11.8-9.7-13.4-7.4-21.6-20.6-21.6-20.6-4,9.7,1.9,20.4,1.9,20.4-14.3-2.6-22.8-16.4-22.8-16.4-2.1,1.7-6.5,19.2-6.5,19.2-10.6-4.3-7.3-17.7-7.3-17.7-4.6,9.1-27,13.9-27,13.9,2.3-1.6,3.8-4.3,4.7-7-3.4.5-6.9,2.8-14.3,3.3-2.1,0-3.5-.3-4.6-.7-2.8.8-5.4,1.4-7.4,1.8-1.2,1.7-2.6,3.5-3.9,5.2-4.6,5.9-9,11-13.3,15.2,2.3.3,4.4,1.2,6,2.6l6.8-2.7-.8,3-.6,2.3-1.3,4.8s0,0,0,0c0,.5,0,1,0,1.5,0,2-.5,3.8-1.4,5.4,7.2-3,17.7-11.1,17.7-11.1,0,0-1.1,13.5-2.3,15.8ZM195.3,303.2c.7-1,1.8-1.7,3.1-1.7s2.5.7,3.1,1.8c.3.6.6,1.2.6,1.9s0,.3,0,.4c-.2,1.8-1.8,3.3-3.7,3.3s-3.5-1.4-3.7-3.3c0-.1,0-.3,0-.4,0-.7.2-1.4.6-2ZM176.4,300.2c-2.2,0-4-1.8-4-4s1.8-4,4-4,4,1.8,4,4-1.8,4-4,4Z"/>
    <path className="st3" d="M298.7,288.3c-4.2-.3-8.1-1.4-11.7-3-6.5,8.8-17,14.7-31.4,17.5,0,.2-.2.4-.3.6-.4.8-.8,1.6-1.4,2.3-1,1.3-2.4,2.4-3.9,3.2l1.5,4.9c3-.5,4.7-.4,6.5,0,.4-2.3,1.3-5.1,4.2-6.2l3.7-1.3,2.3,3.3s1,1.4,2.7,3.4c2.8.4,5.2,1.2,7.5,1.9-.1-2.1.2-4,.9-5.7l1.4-3.5,1-2.3,1.8-4.5,2.4,4.5,1.3,2.4,1.6,2.9c0,.1.8,1.5,2.3,3.4.9-.9,2.5-1.4,6.3-.9,1.3.2,2.3.4,3.2.7,0-1.4,0-2.7.2-3.9l.4-2.2.4-2.3,1.1-6.2,5.4,6.2,1.7,2s.9,1,2.3,2.3c.5.4,1,.9,1.5,1.4.9-1.1,1.6-2.1,2.2-3-2.1-2.3-4.3-4.7-6.5-7.2-8.2-9.3-13.8-16.6-17.7-22.4-.1.3-.3.7-.4,1,2.9,5.5,7.4,10.7,7.4,10.7Z"/>
    <path className="st3" d="M244.3,310.3c-.9,0-1.7-.2-2.6-.4-1.1,1.4-2.4,2.9-3.8,4.5,1.1.3,2,.6,2.7.7.6-.9,1.2-1.7,1.8-2.4l1.9-2.5Z"/>
    <path className="st3" d="M294.3,264.2c.6.4,1.2.8,1.9,1.2,3.2,1.8,6.6,2.9,10.1,3.2-2.4-1.7-5-3.7-7.7-5.9-1.4-1.1-2.8-2.4-4.3-3.8,0,0,0,0,0,0,0,1.8,0,3.5,0,5.2Z"/>
    <path className="st3" d="M290.2,256.4c-1.6,0-3.1-.4-4.5-1l4.8,5.4c0-1.6-.1-3-.3-4.4Z"/>
    <path className="st3" d="M259.2,241.4c-16.3-1.6-22.2-15.7-23.5-19.1h-.8c-3,3.5-10.9,12.9-13.3,15.6,3.8,3.5,8.4,6.8,14,9.4,7,3.2,14.6,4.8,22.8,4.8l1.4-3.3,2,3.2c5.7-.3,11.6-1.3,17.8-3-.5-1.3-.8-2.7-.8-4.2,0-.9.1-1.8.3-2.6-1.8-2.4-3.5-5-5.1-7.7-3.5-1.2-6.6-2.6-9.2-3.8-.6-.2-1.2-.5-1.6-.8-1.4-.7-2.6-1.4-3.6-2-1-.1-2.3,0-4.2.8-.8,7.3,3.7,12.8,3.7,12.8ZM253,251.5c-1.6,0-2.9-1.3-2.9-2.9s1.3-2.9,2.9-2.9,2.9,1.3,2.9,2.9-1.3,2.9-2.9,2.9Z"/>
    <path className="st3" d="M265.2,257.4s.7,1.1,1.9,2.7c.5.7,1.1,1.5,1.8,2.3,3.4,4.1,9,9.9,16.1,13.8-1.6-3.1-2.4-5.9-2.6-8.4-.5.4-1.2.7-1.9.7-1.6,0-3-1.3-3-3s1.3-3,3-3,1.8.5,2.4,1.2l.3-1.3.6-2.3,1.3-5c-1.3-.7-2.5-1.6-3.4-2.7-6.1,1.8-11.9,2.9-17.6,3.3l1.1,1.7Z"/>
    <path className="st3" d="M217.3,221.8c-1.3,2.4-2.8,4.4-4.4,6.1,2.1,2.9,4.8,6.3,8.2,9.5.3-6.8-3.8-15.6-3.8-15.6Z"/>
    <path className="st3" d="M194.9,232.9c3.1-2,5.3-4.2,6.8-6.3-.8-.2-1.6-.4-2.4-.7-1.3,2.1-2.8,4.5-4.4,7Z"/>
    <path className="st3" d="M225.2,260.1c1.8-1.7,3-2.9,3-2.9,0,0,.2,1.2.5,2.9.1.7.3,1.5.4,2.3.7,3.7,1.5,8.2,1.7,9.8,0,0,0,.2,0,.2,1.6-5.4,2.8-8.3,3.8-10,.7-1.3,1.3-1.9,1.9-2.3h0s4.6-3.7,4.6-3.7l2.3,3.7.8,1.3c0,0,.3.4.7,1,1.4,1.9,4.7,6,9.5,9.2-.4-2.8-.4-6,.2-9.2.2-.8.4-1.6.6-2.3.2-.6.4-1.3.7-1.9l.9-2.3c-8.2-.2-15.8-1.9-22.8-5.2-11.5-5.3-19.3-13.8-24-20.3-6.1,4.4-13.1,4.9-16.6,4.8-4.8,7.1-10.9,15-17.7,21.6,2.1-.8,12.2-7,12.2-7,0,0,0,6.6-1,12.6,0,0,0,.2,0,.3.7.4,1.3,1,2,1.5,0,0,0,0,.1.1,1.3,1.1,2.7,2.2,4.2,2.4,4-1.7,6-3.3,7-4.3.4-.4.6-.7.7-.9l1.5-1.4,4.5-4.3s.5,1.8,1.2,4.3c.2.7.4,1.5.6,2.3,0,.4.2.9.3,1.3,5.6-3.3,8.7.9,8.8.9.2.4.5.7.7,1,1.5-1.1,2.9-2.2,4.1-3.2,1-.8,1.9-1.6,2.6-2.3ZM198.4,249.8c-1.4,0-2.5-1.1-2.5-2.5s1.1-2.5,2.5-2.5,2.5,1.1,2.5,2.5-1.1,2.5-2.5,2.5Z"/>
    <path className="st3" d="M220,214.8l.9,1.9c.1.2.4.9.8,1.8.7-.5,1.5-.8,2.4-.8s2.4.6,3.1,1.6c1.4-1.7,2.6-3,3.2-3.8l4.2-5.2c-1.6.7-3.2,1.3-4.9,1.9-3.3,1.2-6.6,2.1-9.6,2.8Z"/>
    <path className="st3" d="M253.8,201c-1.1-.1-2.2-.4-3.2-.7-.5.4-1,.9-1.5,1.3-3.4,2.8-7.4,5.2-11.9,7.4l2.2,8.2c0,0,.2.7.6,1.6.2-.3.3-.6.5-.9,3.4-5,6.8-1.2,10.2.5l1.4-4.5,4.5,3.3c4.5-5.5,8.9,1.6,13,.5l1.3-4.8,5.1,1.3s1.5.4,3.7.8c-2.8-2-5.9-4.3-9.1-7.2-.6,1.1-1.8,1.9-3.2,1.9-2,0-3.7-1.7-3.7-3.7s.7-2.5,1.7-3.1c-2.9-2.9-5.8-6.1-8.7-9.8-1.2,1.8-2.6,3.5-4.2,5.1.6,1.6,1.3,2.5,1.3,2.5Z"/>
    <path className="st3" d="M252.3,187.4c-.5-.4-.8-.6-.8-.6-.7,2.7-.6,5.3-.2,7.5,1.1-1.3,2.1-2.6,3-4-.7-.9-1.3-1.8-2-2.8Z"/>
    <path className="st3" d="M218.3,211.3c3.2-.7,6.6-1.6,10.1-2.9,7.5-2.6,13.6-5.9,18.4-9.8-7.9-4.9-10.3-15.3-10.3-15.3-.9,1.3-3.1,4.5-5.3,7.6,0,1.3-.9,2.5-2.1,3-1.8,2.6-3.3,4.7-3.3,4.7.2-1.6.1-3.4-.1-5.1-.8-.6-1.3-1.6-1.3-2.7s.2-1.2.5-1.7c-.5-2.1-1.1-3.9-1.4-4.8-.3.1-.5.3-.8.4-2.5,5.1-5.9,7.8-9.1,9.3-2.4,3.8-4.8,7.1-7.2,10.2.7.1,1.3.4,2,.6l3.6-3.8-1,5.4c1.5,1.2,2.8,2.8,3.5,4.6l1.9-3.6,1.9,4Z"/>
    <path className="st3" d="M226,168.3c-.6.7-1.4,1.3-2.3,1.9l3.3,8.5c0,.2.3.8.6,1.7.1.4.3.9.5,1.4.5-.7.9-1.3,1.3-1.9.7-1,1.3-1.9,1.6-2.4l3.9-5.8c-4.3-2.7-5-7.7-8.9-3.3Z"/>
    <path className="st3" d="M218.9,174.8l1.4-3.2c-.3,0-.6.2-.9.3l-.4,2.9Z"/>
    <path className="st3" d="M256,167.4c-1.2-1.1-2.3-2.2-3.4-3.3-.7-.3-1.5-.3-2.4,0-5,2-6.9,8.2-11.1,8.6l1.2,5.4.2.9c0,0,.2.6.4,1.4.5,1.3,1.3,3.4,2.6,5.5.4.6.8,1.1,1.1,1.6,0-1.7.3-3.5.7-5.1l.4-1.5.6-2.5,1.1-4.5,1.4,1.3c1-3.6,3.6-6.6,7.1-7.9Z"/>
    <path className="st9" d="M272.1,216.2c-.8.9-1.6,1.4-2.4,1.6-4.1,1-8.5-6.1-13-.5,0,0,0,0,0,0-2,2.4-3.9,2.1-5.9,1.1-3.4-1.7-6.8-5.5-10.2-.5-.2.3-.4.6-.5.9-.2.4-.4.8-.6,1.3-.3.8-.4,1.6-.4,2.4,0,5.8,7.8,10,15.4,6.5.4-.2.7-.3,1-.4,1.9-.7,3.2-.9,4.2-.8,1.7.2,2.5,1.2,3.6,2,.5.3,1,.6,1.6.8.9.3,2.1.3,3.9-.3.9-.3,1.8-.6,2.6-.9,1.8-.7,3.2-1.5,4.5-2.1.4-.2.8-.5,1.2-.7,2.2-1.2,4-2,6.2-1.5,1.8.4,4.9.6,7.3-.2,2-.7,3.6-2.2,3.5-5,0-1.5-.6-3.4-1.9-5.7,0,0-3.2-4.8-8.8-.8-.3.2-.7.5-1,.8-6.2,5.3-5.4-3.8-10.2,2ZM283.6,214.3c.1-.1.3-.2.4-.3,1.2-.9,2.3-1.4,3.2-1.4s2.1.9,2.3,1.2c1,1.9,1.5,3.5,1.5,4.6,0,.5,0,.9-.3,1.2-.5.9-2.2,1.4-4.4,1.4h0c-1,0-2-.1-2.8-.3-.7-.2-1.3-.2-2-.2-2.5,0-4.4,1.1-6.7,2.3-.2.1-.5.3-.7.4-1,.5-2.1,1.1-3.4,1.7,0,0-.2,0-.3.1-.3.1-.6.3-1,.4-.6.2-1.1.4-1.7.6-.7.2-1.3.3-1.8.3-.8,0-1.1-.2-2-.9-.5-.4-1-.9-1.8-1.2-.9-.5-1.9-.8-3.3-.8s-1.8.1-2.8.4c-.9.3-1.9.6-3,1.1-1.3.6-2.5.9-3.8,1-.2,0-.5,0-.7,0-2.3,0-4.5-.8-5.8-2.2-.3-.3-.5-.6-.7-.9,0,0-.1-.2-.2-.3-.1-.2-.2-.5-.3-.7-.2-.5-.2-1-.1-1.5,0-1,.6-2,1.1-2.7.4-.6,1-1.4,1.6-1.4s2,.8,3.1,1.5c1.1.7,2.2,1.4,3.4,1.8.8.3,1.6.5,2.5.5h0c1.7,0,3.2-.7,4.6-2,.3-.3.5-.5.8-.8,1-1.2,1.6-1.2,1.8-1.2.8,0,2,.6,3.1,1.1,1.5.8,3.3,1.6,5.2,1.6.4,0,.7,0,1.1-.1,1.6-.3,2.9-1.1,4.1-2.6.4-.4.6-.7.8-.9,0,0,0,0,0,0,.7.6,2,1.5,3.8,1.5h0c1.7,0,3.3-.8,5.2-2.4Z"/>
    <path className="st9" d="M344.8,357.8s-1.1-1.4-3-2c-1.3-.4-2.9-.6-4.7.2-.2,0-.4.2-.6.3-1.1.5-2.3,1.4-3.5,2.7-.8.9-1.6,1.5-2.2,1.8,0,0,0,0,0,0-.8.5-1.4.6-2,.6-2.5,0-3.6-3-5.9-1.1,0,0,0,0-.1,0-.5.4-1.1,1.1-1.8,2.1-.6.9-1.2,1.5-1.9,1.9-.7.4-1.4.6-2.1.6-4.5.2-9.7-5.6-14.1-.2-.2.2-.4.5-.6.8-1.4,2.1-2.9,2.7-4.5,2.6-5-.3-10.6-7.8-14.9,0-.1.2-.3.5-.4.7,0,.2-.1.3-.2.5-.6,1.4-.8,2.7-.8,3.9.2,7.5,10.4,11.9,19.5,6.8,0,0,.2,0,.2-.1,6.9-3.9,8.3-1.2,10.9.2,1.4.8,3.2,1.1,6.4-.2,3.7-1.5,6.3-3.2,8.4-4.6,1.2-.8,2.3-1.6,3.4-2.2,0,0,.1,0,.2-.1,1.4-.8,2.8-1.2,4.4-1.1.2,0,.4,0,.6,0,3.6.5,10.9,0,12.3-4.7.6-2.2,0-5.2-2.8-9.5ZM344.4,365c-.3.5-.7.9-1.2,1.2-1.5,1-4,1.3-6,1.3h0c-.9,0-1.6,0-2.1-.1-.5,0-1-.1-1.4-.1s-1.3,0-1.8.2c-.3,0-.6.1-.9.2-1.2.4-2.3.9-3.5,1.6,0,0,0,0,0,0-.7.4-1.4.9-2.2,1.4-1.5,1-3.1,2.1-5.2,3.2-1,.5-2,1-3.2,1.5-1.1.4-2,.7-2.7.7s-.8,0-1.2-.2c-.4-.2-.8-.4-1.3-.8-1.2-.8-2.8-1.9-5.2-1.9s-3,.4-4.8,1.2c-.3.1-.6.3-.9.4-.5.2-.9.5-1.4.7,0,0-.2,0-.3.1-2.1,1.2-4.5,1.9-6.8,1.9s-.1,0-.2,0c-2.8,0-5.3-1-6.9-2.6-.4-.4-.7-.8-.9-1.2-.7-1.1-.9-2.4-.7-3.8,0-.1,0-.2,0-.4.2-.7.5-1.5.9-2.2,1.2-2.1,2.1-2.1,2.4-2.1,1.1,0,2.6.8,4.1,1.5,1.9,1,4.1,2.1,6.4,2.1h0c.2,0,.3,0,.5,0,2.2-.1,4.1-1.3,5.6-3.3.1-.1.2-.3.3-.4,1.3-1.9,2.3-1.9,2.8-1.9,1.1,0,2.5.5,3.9,1.1,1.8.7,3.6,1.4,5.6,1.4s1.3,0,1.9-.2c.4-.1.8-.2,1.2-.4,1.3-.6,2.4-1.6,3.3-3,.2-.3.4-.5.5-.7,0,0,0,0,0,0,.4-.5.6-.7.8-.9.1,0,.3.2.5.3.8.5,2.1,1.4,3.9,1.4h0c.3,0,.5,0,.8,0,.4,0,.8-.2,1.2-.3.4-.1.8-.3,1.3-.6,1-.5,1.9-1.3,2.9-2.4.6-.6,1.2-1.1,1.7-1.5.6-.5,1.3-.8,1.9-1,.4-.1.9-.2,1.3-.2,1.6,0,2.8,1.1,3.1,1.4.1.2.3.4.4.6,1.9,3.1,2.5,5.5,1.7,7Z"/>
    <path className="st9" d="M182.2,274.6c1.3,1.1,1.9,2.5,3.8,3.4,1,.5,2.4.8,4.6.7,7.4-.4,10.9-2.8,14.3-3.3,1.1-.2,2.1-.2,3.3.2,4.9,1.4,16.7.3,10.4-9.9-.2-.3-.4-.7-.7-1-.1,0-3.2-4.3-8.8-.9-.5.3-.9.6-1.4,1-7,4.9-5.1-4.2-10.8.9-1.2,1-2.4,1.3-3.5,1.1-1.5-.2-2.9-1.3-4.2-2.4,0,0,0,0-.1-.1-.7-.5-1.3-1.1-2-1.5,0,0,0,0,0,0-.6-.4-1.2-.7-1.8-.9-.3,0-.7-.1-1-.2-1,0-2.1.2-3.4,1-3.8,2.2-6.1-.6-8-3.3-.4-.5-.8-1.1-1.2-1.6-1.6-2-3.4-3.2-6.9-1.6-4.2,1.9-5.4,5.6-3.7,9.1,0,.2.2.4.3.6.3.5.6.9.9,1.4,2.4,3.1,7,5.7,12.3,5.6,2.5-.1,4.3,0,5.5.5,0,0,0,0,0,0,1,.3,1.8.8,2.4,1.3ZM175.2,268.2c-.5,0-1,0-1.5,0,0,0-.2,0-.2,0-2.1,0-4.1-.5-5.8-1.3-1.8-.9-3.2-2-4.2-3.3-.3-.3-.5-.7-.7-1,0,0,0,0,0,0-.5-.9-1-2.1-.5-3.4.4-1.3,1.7-2.1,2.7-2.6,0,0,0,0,0,0,.7-.3,1.4-.5,1.8-.5.9,0,1.6.8,2.9,2.6v.2c.1,0,.2,0,.2,0,1.5,2.1,3.7,5.2,7.5,5.2,1.3,0,2.6-.4,3.9-1.1,0,0,0,0,0,0,.6-.3,1.1-.5,1.5-.6.1,0,.3,0,.4,0,.4,0,.8.1,1.3.4.4.2.9.6,1.5,1,.2.1.3.3.5.4,0,0,0,0,0,0h.1c.4.5.9.9,1.5,1.3,1,.8,2.2,1.5,3.6,1.8.5.1,1,.2,1.5.2,1.6,0,3.1-.6,4.6-1.8,0,0,0,0,0,0,.5-.5.9-.7,1.1-.8,0,0,.2.1.2.2.8.7,2.1,1.9,4.2,1.9,1.5,0,3.1-.6,5.1-1.9,0,0,0,0,.1,0,.1-.1.3-.2.4-.3,1.3-.9,2.5-1.4,3.6-1.4s2.2.7,2.7,1.3c0,0,0,0,0,0,.6.9,1.1,1.7,1.4,2.5.5,1.2.7,2.2.3,2.9-.6,1.1-2.8,1.8-5.5,1.8h0c-1.2,0-2.3-.1-3.2-.4,0,0,0,0,0,0-.8-.2-1.6-.3-2.3-.4-.1,0-.2,0-.3,0-1.2,0-2.4.2-3.6.6-.8.2-1.6.5-2.4.8-2.5.8-5.4,1.8-9.7,2.1,0,0,0,0-.1,0-3.2,0-3.9-.7-4.9-1.9-.2-.3-.4-.5-.7-.7-.6-.6-1.3-1.2-2.1-1.7-.2,0-.3-.2-.5-.3-1.5-.8-3.5-1.3-6.5-1.3Z"/>
    <path className="st9" d="M315.8,306.3c-.6.9-1.3,2-2.2,3-.3.3-.5.6-.8.9-1,1-2.2,1.9-3.9,2.9-.2.1-.4.2-.6.3,0,0,0,0,0,0-.6.3-1.1.6-1.5.8-3.5,1.7-1.8-.7-6.3-2.1-.8-.3-1.9-.5-3.2-.7-3.8-.5-5.4,0-6.3.9-1.3,1.3-.9,3.4-4.1,4.1-.1,0-.2,0-.4,0-.6.1-1.2.1-1.8.1-2.1,0-4.1-.7-6.4-1.4-2.3-.7-4.7-1.5-7.5-1.9-.3,0-.7,0-1-.1-7.1-.7-3.3,4.7-7.7,2.7-1.7-.8-2.9-1.4-4.2-1.7-1.8-.5-3.5-.6-6.5,0-.5,0-1,.2-1.6.3-4.8.9-6.5,1.4-9.2.9-.8-.2-1.7-.4-2.7-.7-.2,0-.3-.1-.5-.2-.7-.2-1.4-.3-2-.3-4.2.3-7.2,5.6-7.2,5.6-.3,0-.6-.1-.9-.2-3.8-.7-6.3.3-6.3,4.7,0,.5,0,1.1.1,1.8,0,.6.3,1.1.5,1.5.1.2.3.4.4.6,2.3,2.2,8.1-.4,10.5,0,.4,0,.7.2.9.4.8.9,2.9,1.9,5.5,2.8,3.2,1.1,7.1,2,10.1,2.3,2.5.3,5.3-.4,8.3-1,1.8-.3,3.8-.6,5.6-.5,1.8,0,3.6.4,5.3,1.4,6.3,3.3,9.5.2,13.7-3.1.2-.1.4-.3.6-.4,1.8-1.4,3.5-2.1,5.3-2.1,2.6,0,5.6,1.4,9.7,4.1,3.7,2.4,6.2,1.8,8.1-.3,1.6-1.7,2.9-4.4,4.2-7,0-.2.2-.3.2-.5.6-1.2,1.4-2,2.2-2.4,1.8-.9,4,0,6.5,1.6,1.6,1,3.4,2.3,5.2,3.6,2.6,1.7,4.3.7,5.7-1.6,1.1-1.8,2-4.3,3-7,.7-1.8,1.4-3.6,2.2-5.3,3.7-7.7-11.5-11.2-15.5-10.1-.3,0-.6.2-.9.3-1.2.6-2,1.7-2.8,3ZM319.2,303.8c.2-.1.4-.2.6-.3,0,0,.4,0,1.2,0,3.9,0,9.8,1.9,11.3,4.3.3.5.5,1.1,0,2.2-.9,1.8-1.6,3.6-2.3,5.5,0,.2-.2.5-.3.7-.8,2.2-1.6,4.3-2.5,5.8-.8,1.3-1.2,1.4-1.2,1.4,0,0-.3,0-.9-.4-.8-.5-1.5-1-2.2-1.5-2.5-1.8-5-3.5-7.4-4.1-.7-.2-1.4-.3-2.1-.3s-.8,0-1.2.1c-.6.1-1.3.4-2,.8-.8.5-1.6,1.2-2.2,2.3-.2.3-.4.6-.5,1-.2.4-.4.7-.5,1.1-1.7,3.3-3.4,6.8-5.4,6.8-.8,0-1.7-.4-2.9-1.1-1.4-.9-2.6-1.7-3.9-2.3-2.5-1.4-4.9-2.2-7.2-2.2s-1,0-1.6.1c-1.8.3-3.6,1.1-5.4,2.5-.5.4-1,.7-1.4,1.1-.5.4-1,.7-1.4,1.1-1.7,1.3-3.3,2.2-4.9,2.2-1.1,0-2.3-.4-3.7-1.1-1.8-.9-3.7-1.5-5.9-1.6-.4,0-.9,0-1.4,0-2.5,0-4.9.5-7.1.9-.6.1-1.1.2-1.6.3-1.2.2-2.4.4-3.4.4-.3,0-.6,0-.8,0-2.1-.2-4.9-.8-7.4-1.6-.4-.1-.7-.2-1.1-.3-3.6-1.1-5.1-2.1-5.3-2.4-.7-.9-1.8-1.4-3.2-1.4,0,0-.1,0-.2,0-1.1,0-2.3.3-3.6.5-.1,0-.2,0-.3,0-.2,0-.5,0-.7.1-.9.2-1.8.3-2.6.3s-1-.1-1-.2c0,0-.1-.2-.2-.6,0-.4,0-.8,0-1.1,0-1.8.3-2.3.4-2.4.2-.3.9-.3,1.2-.3s1,0,1.6.2c.2,0,.4,0,.6.1.2,0,.4,0,.6,0,.9,0,1.8-.5,2.3-1.3.6-1.1,3-4.3,5.3-4.3s.1,0,.2,0c.2,0,.4,0,.6.1.4.1.7.2,1.1.3,1,.3,2,.6,2.9.7.7.1,1.4.2,2.2.2,1.7,0,3.2-.3,5.6-.8.6-.1,1.2-.2,1.9-.4.6-.1,1.2-.2,1.7-.3,1.2-.2,2.1-.3,2.9-.3,1.2,0,2.2.2,3.3.6.8.3,1.7.7,2.8,1.3,1.1.5,1.9.7,2.7.7s.8,0,1.1-.2c.4-.1.7-.3,1-.5.8-.6,1.3-1.5,1.5-1.9,0-.2.2-.4.2-.5,0,0,.3-.2,1.2-.2s.6,0,.9,0c.9,0,1.7.2,2.5.4,1.8.4,3.4.9,5,1.4.6.2,1.1.4,1.7.5,2,.6,4,1.1,6.1,1.1s.1,0,.2,0c.8,0,1.5,0,2.2-.2,0,0,0,0,0,0,3-.6,4.1-2.4,4.8-3.7,0-.1.1-.3.2-.4.2-.3.3-.7.5-.8,0,0,.4-.3,1.7-.3s1.4,0,2.3.2c2.2.3,3.3.7,4,1.1.4.3.7.5.9.8.5.5,1.4,1.5,3.1,1.5s1.4-.2,2.3-.5c.5-.2,1.1-.5,1.7-.8,0,0,.2,0,.3-.1.3-.2.6-.3.9-.5,1.3-.7,2.4-1.5,3.3-2.3.5-.4.9-.8,1.3-1.2.9-1,1.7-1.9,2.3-2.7.3-.4.6-.9.8-1.3.8-1.2,1.2-1.8,1.7-2.1Z"/>
    <path className="st9" d="M149.2,362.9c1,.3,1.9,1.1,2.6,2.6.8,1.7,1.7,3.4,2.6,4.9,2.2,3.6,4.8,5.9,9.6,3.1.1,0,.3-.2.4-.3.2-.1.3-.2.5-.3,1.2-.8,2.4-1.5,3.4-2,4.6-2.4,7.6-2.4,11.2.3.3.2.6.5.9.7,1.8,1.4,3.4,2.7,5.1,3.5,1.7.8,3.5,1.1,5.7.4,2.1-3.2,5.6-5.2,9.6-5.3,0,0,0,0,.1,0,3.6,0,6.7,1.7,8.8,4.2.6,0,1.1.1,1.6.1.6,0,1.1,0,1.6,0,2.2-.2,5-.8,7.5-1.6,3.7-1.1,7-2.4,8-3.6.5-.7,2-.5,3.7-.2,3.5.7,8.2,2,8.7-2.3.3-2,.1-3.5-.3-4.6-.9-2.1-3-2.5-5.9-1.9-.3,0-.5.1-.8.2,0,0-3.4-6-8-5.6-.4,0-.8.1-1.3.3-4.6,1.6-5.8,1.3-10.6.4-.6-.1-1.1-.2-1.8-.4-5.1-1-7.1-.7-9.9.4-.7.3-1.5.7-2.4,1.1-4.4,2.1-.7-3.3-7.7-2.7-7.1.7-11.9,4.3-17,3.2-5.2-1.1-.7-6.2-10.4-5-2.8.4-4.4,1-5.3,1.7-1.8,1.2-1.5,2.3-3.6,1.4-.2,0-.3-.1-.5-.2-.6-.3-1.2-.6-2.1-1.1-.9-.5-1.7-1-2.3-1.5-.9-.7-1.6-1.4-2.2-2-.4-.4-.7-.8-1-1.2-1.8-2.4-2.5-4.5-4.8-5.3,0,0-.2,0-.3,0-.7-.2-1.7-.2-2.8-.1-5.7.4-15.4,3.7-12.8,10,0,.1,0,.2.1.3.8,1.7,1.5,3.5,2.2,5.2,2.4,6.2,4.2,11.7,8.8,8.7.4-.3.8-.5,1.1-.8,2-1.4,3.8-2.7,5.6-3.7,1.7-.9,3.2-1.4,4.5-1ZM144.3,359.1c-1.9.8-3.9,2.2-5.9,3.6-.7.5-1.5,1-2.2,1.5-.6.4-.9.4-.9.4s-.4,0-1.2-1.4c-.5-.9-1.1-2.1-1.6-3.5-.3-.7-.6-1.5-.9-2.3-.6-1.6-1.3-3.3-2-5-.2-.4-.3-.8-.5-1.1-.5-1.1-.3-1.7,0-2.2,1.3-2.1,6.1-3.9,9.9-4.2.5,0,.9,0,1.4,0,.7,0,1.1,0,1.2,0,.2,0,.4.1.6.2.5.3.9.9,1.7,2.1.6.9,1.2,1.9,2.1,2.9.6.7,1.2,1.4,2.1,2.1.7.6,1.5,1.2,2.4,1.7.4.3.8.5,1.2.7,1.4.8,2.5,1.3,3.5,1.7.4.1.8.2,1.1.3.2,0,.4,0,.6,0,1.6,0,2.5-.9,3-1.4,0,0,0,0,0,0,.6-.6,1.4-1.4,4.9-1.9.9-.1,1.7-.2,2.3-.2,1.3,0,1.7.2,1.7.3.1,0,.3.4.5.8.6,1.2,1.6,3.3,4.9,4,.8.2,1.7.3,2.5.3,2.3,0,4.5-.6,6.8-1.3.3,0,.6-.2.9-.3,1.3-.4,2.7-.9,4.1-1.2,1.1-.3,2.2-.5,3.5-.6.3,0,.6,0,.9,0,.9,0,1.2.2,1.2.2,0,0,.2.3.2.5.3.7,1.2,2.6,3.5,2.6.8,0,1.6-.2,2.7-.7.3-.2.6-.3.9-.4,2.2-1,3.4-1.4,5.2-1.4s2.6.2,4.6.6c.7.1,1.4.3,1.9.4.3,0,.6.1.9.2,1.9.4,3.3.6,4.7.6,2,0,3.9-.5,6.2-1.3.2,0,.3,0,.5-.1.1,0,.2,0,.4,0,2.3,0,4.7,3.2,5.3,4.3.5.8,1.3,1.3,2.3,1.3s.4,0,.6,0c.2,0,.5-.1.7-.2.6-.1,1.1-.2,1.6-.2s1,0,1.2.3c.1.1.6.9.3,3.5,0,.4-.1.5-.2.6,0,0-.3.2-1,.2h0c0,0-.2,0-.3,0-1,0-2.2-.3-3.3-.5-.8-.2-1.7-.3-2.4-.4-.4,0-.8,0-1.2,0s-.2,0-.3,0c-1.3,0-2.4.5-3.1,1.4-.3.3-1.7,1.2-5.3,2.4-2.8.9-6.1,1.6-8.5,1.9-.3,0-.5,0-.8,0s0,0-.1,0c-1.4,0-3.1-.3-4.9-.7-1.3-.3-2.8-.5-4.3-.7-.9-.1-1.9-.2-2.8-.2-2.7,0-5.1.5-7.2,1.7-1.4.7-2.6,1.1-3.7,1.1s-1.2-.1-1.8-.3c-1-.4-2-1-3.1-1.8-.5-.4-1-.7-1.5-1.1-.5-.4-.9-.7-1.4-1.1-1.6-1.2-3.1-2-4.6-2.3-.8-.2-1.6-.3-2.3-.3-1.3,0-2.7.3-4,.8-1.3.5-2.6,1.1-4,1.9-.1,0-.2.1-.3.2-.9.5-1.8,1.1-2.7,1.7-.2.1-.4.2-.5.3-.9.5-1.7.8-2.3.8s-1.5-.5-2.1-1.2c-1.2-1.3-2.2-3.4-3.3-5.5-.2-.4-.4-.7-.5-1.1-.1-.2-.2-.4-.4-.6,0-.1-.2-.3-.2-.4-.8-1.1-1.6-1.9-2.4-2.4-.9-.5-1.8-.7-2.6-.8,0,0,0,0,0,0,0,0-.2,0-.2,0-1.1,0-2.3.3-3.5.8,0,0,0,0,0,0Z"/>
    <path className="st9" d="M219.3,171.9c.3,0,.6-.2.9-.3,1.2-.4,2.4-.8,3.4-1.4.9-.5,1.7-1.1,2.3-1.9,3.9-4.5,4.7.6,8.9,3.3.6.3,1.2.7,1.8.9.9.3,1.6.4,2.3.3,4.2-.4,6.1-6.6,11.1-8.6.9-.3,1.7-.3,2.4,0,1.4.5,2.6,1.8,3.7,3.1,1.2-.4,2.5-.6,3.8-.6.3,0,.6,0,.9,0,.8,0,1.5.2,2.3.4,2.6-7-7-13.1-12.6-19.7-5.9-6.9-7-19-11.5-16.8,0,0-5.3-1.5-15.1,18.2-9.8,19.8-20,18.9-17.3,21.7.8.8,2.2,1.3,4,1.6,2.5.4,5.7.3,8.6-.4ZM210.5,167.2c3.5-2.4,9.8-7.2,15.8-19.4,7.5-15.3,11.9-16.7,12.5-16.8.1,0,.2,0,.3,0,.3,0,.6,0,.9-.2.2.2.5.6.9,1.3.6,1,1.1,2.4,1.8,3.9,1.4,3.4,3.2,7.6,6,10.8,1.5,1.7,3.2,3.4,4.9,5.1,2.5,2.4,5,4.9,6.4,7.2,1.3,2.2,1.4,3.8.5,5.6-.1.3-.3.5-.4.6-.4-.4-1-1.1-1.4-1.6-1.4-1.6-3-3.6-5.2-4.3-.6-.2-1.3-.3-2-.3s-1.5.2-2.3.5c-.3.1-.6.3-.9.4-2.5,1.2-4.2,3.2-5.7,4.9-1.7,1.9-2.7,3.1-3.9,3.1s-.5,0-.7-.1c0,0-.2,0-.3,0,0,0,0,0,0,0-1.7-.6-2.9-1.9-4-3.1-1.2-1.4-2.7-3-4.9-3s-3.7,1.5-4.7,2.7c-.8.9-2.2,1.7-3.9,2.3-1.4.5-3,.8-4.6.9-.5,0-1,0-1.6,0-1.4,0-2.6-.1-3.4-.3Z"/>
    <path className="st7" d="M231.2,190.9c-.7,1-1.4,2-2.1,3,1.2-.5,2-1.6,2.1-3Z"/>
    <path className="st7" d="M225.8,193.4c-.2-1.5-.5-3-.9-4.4-.3.5-.5,1.1-.5,1.7,0,1.1.5,2,1.3,2.7Z"/>
    <path className="st7" d="M227.9,194.1c.5,0,.9,0,1.3-.3.7-.9,1.4-2,2.1-3,0,0,0,0,0-.1,0-1.9-1.5-3.4-3.4-3.4s-2.3.7-2.9,1.7c.3,1.4.7,2.8.9,4.4.6.4,1.3.7,2.1.7Z"/>
    <path className="st7" d="M221.7,218.4c-.2.1-.3.3-.5.5h.7c0-.1-.1-.3-.2-.5Z"/>
    <path className="st7" d="M227.2,219.3s0,0-.1-.1c0,0,0,0-.1.1h.2Z"/>
    <path className="st7" d="M225.1,221.6l2.8.2c0-.1,0-.3,0-.4,0-.8-.2-1.5-.6-2.1h-.2c-.6.7-1.3,1.5-1.9,2.3Z"/>
    <path className="st7" d="M221.9,219h-.7c-.5.6-.9,1.4-.9,2.3l2.6.2c-.3-.9-.7-1.8-.9-2.5Z"/>
    <path className="st7" d="M223.5,223.5c-.2-.7-.4-1.4-.7-2l-2.6-.2s0,0,0,.1c0,2.1,1.7,3.8,3.8,3.8s3.6-1.5,3.8-3.4l-2.8-.2c-.5.6-1,1.2-1.6,1.9Z"/>
    <path className="st7" d="M224.1,217.6c-.9,0-1.7.3-2.4.8,0,.2.1.3.2.5l5.1.3s0,0,.1-.1c-.7-1-1.8-1.6-3.1-1.6Z"/>
    <path className="st7" d="M225.1,221.6c.7-.8,1.3-1.6,1.9-2.3l-5.1-.3c.3.7.6,1.5.9,2.5h2.2Z"/>
    <path className="st7" d="M223.5,223.5c.5-.6,1.1-1.2,1.6-1.9h-2.2c.2.5.4,1.2.7,1.9Z"/>
    <path className="st7" d="M253,245.8c-1.6,0-2.9,1.3-2.9,2.9s1.3,2.9,2.9,2.9,2.9-1.3,2.9-2.9-1.3-2.9-2.9-2.9Z"/>
    <path className="st7" d="M205.9,198.7c-1.1,0-1.9.9-1.9,1.9s.3,1.1.7,1.5c.8-1,1.5-2,2.3-3.1-.3-.2-.6-.3-1-.3Z"/>
    <path className="st7" d="M207.8,200.7c0-.7-.4-1.3-.9-1.6-.8,1.1-1.5,2.1-2.3,3.1.3.3.8.5,1.3.5,1.1,0,1.9-.9,1.9-1.9Z"/>
    <path className="st7" d="M271.1,206.3c0-2-1.7-3.7-3.7-3.7s-1.4.2-2,.6c1.8,1.8,3.5,3.4,5.2,4.9.3-.5.4-1.1.4-1.8Z"/>
    <path className="st7" d="M263.7,206.3c0,2,1.7,3.7,3.7,3.7s2.6-.8,3.2-1.9c-1.7-1.5-3.4-3.1-5.2-4.9-1,.7-1.7,1.8-1.7,3.1Z"/>
    <path className="st7" d="M282.5,267.8c.7-.5,1.1-1.4,1.1-2.3s-.2-1.3-.6-1.8v.6c-.4,1.1-.5,2.3-.5,3.5Z"/>
    <path className="st7" d="M280.6,262.5c-1.6,0-3,1.3-3,3s1.3,3,3,3,1.4-.3,1.9-.7c0-1.3,0-2.4.3-3.5v-.6c-.4-.7-1.2-1.2-2.2-1.2Z"/>
    <circle className="st7" cx="198.4" cy="247.3" r="2.5" transform="translate(-71.3 414) rotate(-83)"/>
    <path className="st7" d="M198.4,301.5c-1.3,0-2.5.7-3.1,1.7h6.3c-.6-1-1.8-1.7-3.1-1.7Z"/>
    <path className="st7" d="M202.1,305.6c0-.1,0-.3,0-.4,0-.7-.2-1.4-.6-1.9h-6.3c-.4.5-.6,1.2-.6,1.9s0,.3,0,.4h7.3Z"/>
    <path className="st7" d="M198.4,308.9c1.9,0,3.5-1.4,3.7-3.3h-7.3c.2,1.8,1.8,3.3,3.7,3.3Z"/>
    <circle className="st7" cx="176.4" cy="296.2" r="4"/>
    <path className="st7" d="M269.4,292.2c-1.6,0-2.9,1.3-2.9,2.9s0,.4,0,.6c1.8-.7,3.5-1.5,5.1-2.4-.5-.7-1.4-1.1-2.3-1.1Z"/>
    <path className="st7" d="M269.4,298c1.6,0,2.9-1.3,2.9-2.9s-.2-1.3-.6-1.8c-1.6.9-3.3,1.7-5.1,2.4.3,1.3,1.4,2.3,2.8,2.3Z"/>
    <path className="st7" d="M247.1,346.1c-1,0-1.9.5-2.5,1.3h4.9c-.6-.8-1.4-1.3-2.4-1.3Z"/>
    <path className="st7" d="M250.2,349.1c0-.7-.3-1.4-.7-1.9h-4.9c-.4.6-.6,1.2-.6,1.9s0,.4,0,.5h6.1c0-.3,0-.4,0-.5Z"/>
    <path className="st7" d="M247.1,352.2c1.6,0,2.9-1.2,3.1-2.7h-6.1c.3,1.6,1.5,2.7,3,2.7Z"/>
    <path className="st7" d="M306.4,402.6c.6.6,1.4,1,2.2,1,1.7,0,3.1-1.4,3.1-3.1s-1-2.7-2.4-3l-2,3.3c-.4.6-.7,1.2-1,1.8Z"/>
    <path className="st7" d="M305.6,400.4c0,.8.3,1.6.9,2.1.3-.6.6-1.2,1-1.8l2-3.3c-.2,0-.5,0-.7,0-1.7,0-3.1,1.4-3.1,3.1Z"/>
    <path className="st7" d="M209.6,345.6c-1,0-1.7.8-1.7,1.7s0,.6.2.8h3.1c.1-.3.2-.6.2-.8,0-1-.8-1.7-1.7-1.7Z"/>
    <path className="st7" d="M209.6,349.1c.7,0,1.3-.4,1.6-1h-3.1c.3.6.9,1,1.5,1Z"/>
    <path className="st7" d="M303.8,347.9c-.5,0-.9.2-1.2.5h2.3c-.3-.3-.7-.5-1.1-.5Z"/>
    <path className="st7" d="M303.8,351.4c1,0,1.7-.8,1.7-1.7s-.2-1-.6-1.3h-2.3c-.3.4-.6.8-.6,1.3,0,1,.8,1.7,1.7,1.7Z"/>
    <path className="st7" d="M265.3,347.9c-.1,0-.2,0-.4,0-.8,0-1.5.6-1.7,1.3h.7c.4-.5.9-.9,1.4-1.3Z"/>
    <path className="st7" d="M263.2,349.2c0,.1,0,.3,0,.4s0,.3,0,.4c.2-.3.4-.5.7-.8h-.7Z"/>
    <path className="st7" d="M165.2,330.9c-1,0-1.8.8-1.8,1.8s.8,1.8,1.8,1.8,1.8-.8,1.8-1.8-.8-1.8-1.8-1.8Z"/>
    <path className="st7" d="M239.6,397c-1.6,0-2.8,1.3-2.8,2.8s1.3,2.8,2.8,2.8,2.8-1.3,2.8-2.8-1.3-2.8-2.8-2.8Z"/>
    <path className="st7" d="M139.2,379.1c-1.9,0-3.5,1.6-3.5,3.5s1.6,3.5,3.5,3.5,3.5-1.6,3.5-3.5-1.6-3.5-3.5-3.5Z"/>
    <path className="st7" d="M163.3,375.7c-.3,0-.6-.1-1-.1-1.8,0-3.3,1.5-3.3,3.3s1.5,3.3,3.3,3.3,3.3-1.5,3.3-3.3,0-.3,0-.4c-2.5.7-4.2.9-4.2.9.7-.8,1.3-2.1,1.9-3.6Z"/>
    <path className="st7" d="M163.3,375.7c-.6,1.6-1.2,2.9-1.9,3.6,0,0,1.7-.3,4.2-.9-.2-1.3-1.1-2.3-2.3-2.7Z"/>
    <path className="st7" d="M355.5,389.2c0-2.2-1.8-4.1-4.1-4.1s-3,1-3.7,2.4c2,1.9,3.9,3.6,5.9,5.1,1.1-.7,1.8-2,1.8-3.4Z"/>
    <path className="st7" d="M351.5,393.3c.8,0,1.6-.2,2.2-.7-1.9-1.5-3.9-3.2-5.9-5.1-.2.5-.4,1.1-.4,1.7,0,2.2,1.8,4.1,4.1,4.1Z"/>
    <circle className="st7" cx="324.5" cy="400.5" r="1.7"/>
    <path className="st7" d="M263,385.2c-1.7,0-3,1.3-3,3s0,.4,0,.6h2.1v1.2h3.2c.4-.5.6-1.1.6-1.8,0-1.7-1.3-3-3-3Z"/>
    <path className="st7" d="M262.2,391.1c.3,0,.5.1.8.1,1,0,1.9-.5,2.4-1.2h-3.2v1.1Z"/>
    <path className="st7" d="M262.2,388.8h-2.1c0,.4.3.8.5,1.2h1.6v-1.2Z"/>
    <path className="st7" d="M260.6,390c.4.5.9.9,1.6,1.1v-1.1h-1.6Z"/>
    <path className="st11" d="M218.3,211.3c-1.2.3-2.3.5-3.4.7.3,1.1.5,2.3.5,3.5,0,.1,0,.2,0,.3,1.4-.3,3-.6,4.6-1l-1.7-3.6Z"/>
    <path className="st11" d="M234.5,210.2c.9-.4,1.8-.8,2.6-1.2l-.4-1.6-2.2,2.7Z"/>
    <path className="st11" d="M258,191.4c-1.2-.7-2.3-1.4-3.2-2.1-.2.3-.4.6-.5.9.8,1.1,1.6,2.2,2.4,3.2.5-.7.9-1.3,1.3-2Z"/>
    <path className="st11" d="M256.7,193.4c-.8-1-1.6-2.1-2.4-3.2-.9,1.4-1.9,2.8-3,4,.3,1.7.8,3.2,1.2,4.3,1.6-1.6,3-3.3,4.2-5.1Z"/>
    <path className="st11" d="M218.3,211.3l1.7,3.6c3-.7,6.3-1.6,9.6-2.8,1.7-.6,3.3-1.2,4.9-1.9l2.2-2.7.4,1.6c4.5-2.1,8.5-4.6,11.9-7.4.5-.4,1-.9,1.5-1.3-1.4-.4-2.6-1-3.8-1.8-4.8,4-10.9,7.2-18.4,9.8-3.5,1.2-7,2.1-10.1,2.9Z"/>
    <path className="st11" d="M259,189.7c-1.3-.1-2.6-.5-3.8-1-.1.2-.2.4-.3.6.9.6,2,1.3,3.2,2.1.3-.5.6-1.1.9-1.6Z"/>
    <path className="st11" d="M252.5,198.5c-.5-1.1-.9-2.6-1.2-4.3-1.3,1.5-2.8,3-4.5,4.3,1.1.7,2.4,1.3,3.8,1.8.7-.6,1.3-1.2,1.9-1.8Z"/>
    <path className="st2" d="M244.3,310.3c.1,0,.2,0,.4,0,1.9,0,3.7-.4,5.3-1.3,1.5-.8,2.8-1.9,3.9-3.2.6-.7,1-1.5,1.4-2.3,0-.2.2-.4.3-.6.5-1.2.7-2.6.7-4,0,0,0,0,0-.1,0-6.3-5.1-11.5-11.4-11.5-6.4,0-11.6,5.1-11.6,11.4,0,1.7.3,3.3,1,4.7.4.8.8,1.6,1.4,2.4.7,1,1.6,1.8,2.6,2.5,1.1.8,2.3,1.3,3.6,1.7.8.2,1.7.4,2.6.4ZM240.4,305.3c-1.1-.5-2-1.1-2.8-1.9-1.7-1.7-2.7-4-2.6-6.5,0-5.1,4.2-9.1,9.2-9.1,5.1,0,9.1,4.2,9.1,9.2,0,.8-.1,1.6-.3,2.4-.4,1.6-1.3,2.9-2.4,4,0,0-.2.2-.3.2-.5.4-1,.8-1.5,1.1-.2.1-.4.2-.6.3-.5.3-1.1.5-1.6.6-.6.2-1.3.3-2,.3-.2,0-.4,0-.6,0-.8,0-1.7-.1-2.4-.4-.4-.1-.8-.3-1.2-.4Z"/>
    <path className="st2" d="M189.5,380.1c-.1.6-.2,1.3-.2,2,0,.6,0,1.3.1,1.9.8,5.5,5.6,9.7,11.3,9.8,4.3,0,8-2.2,10-5.7.6-1.1,1.1-2.3,1.4-3.6.1-.7.2-1.4.2-2.2,0-.9,0-1.7-.3-2.5-.2-.9-.5-1.8-.9-2.6-.4-.8-.9-1.6-1.5-2.3-2.1-2.6-5.3-4.2-8.8-4.2,0,0,0,0-.1,0-4,0-7.6,2.1-9.6,5.3-.8,1.2-1.3,2.6-1.6,4,0,0,0,.1,0,.2ZM191.1,380.2c0-.4,0-.8,0-1.2.2-1.3.7-2.5,1.3-3.6,1.6-2.6,4.5-4.3,7.8-4.2,0,0,0,0,0,0,2.8,0,5.2,1.3,6.9,3.2,1.4,1.6,2.2,3.7,2.2,6,0,1-.2,2-.5,2.9-.4,1.3-1.1,2.4-2,3.4-1.7,1.8-4.1,2.9-6.7,2.8-3.7,0-6.8-2.2-8.3-5.4-.5-1.2-.8-2.5-.8-3.8,0,0,0,0,0,0Z"/>
    <path className="st2" d="M159.3,323.2c.2,0,.3,0,.5,0,.3,0,.5,0,.8,0,1,0,1.9-.2,2.8-.5,1.1-.3,2-.8,2.9-1.4,1.1-.7,2-1.6,2.8-2.7.3-.4.6-.9.9-1.4.9-1.6,1.4-3.4,1.4-5.4,0-.5,0-1,0-1.5-.1-.9-.3-1.8-.6-2.7-.4-1-.9-2-1.6-2.9-.5-.7-1.1-1.3-1.8-1.9-1.7-1.4-3.7-2.3-6-2.6-.4,0-.9,0-1.3,0-.8,0-1.5,0-2.2.2-3.9.7-7.2,3.4-8.6,7.1-.5,1.3-.8,2.7-.8,4.1,0,.7,0,1.5.2,2.2.7,3.9,3.4,7.1,7,8.6.6.3,1.3.5,2,.6.6.1,1.2.2,1.8.2ZM151.1,313.9c-.6-1.3-1-2.7-1-4.2,0-1.2.3-2.4.7-3.5,1.1-2.6,3.5-4.6,6.3-5.3.7-.2,1.4-.2,2.2-.2.5,0,.9,0,1.4.1,2,.3,3.7,1.3,5.1,2.6.9,1,1.7,2.1,2.1,3.4.3,1,.5,2,.5,3,0,.6,0,1.2-.2,1.8-.3,1.5-1,2.9-2,4,0,0,0,0,0,0-.4.5-.9,1-1.5,1.4-.5.3-1,.6-1.5.9-.9.4-1.9.7-2.9.8,0,0-.1,0-.2,0-.3,0-.6,0-.9,0-1,0-2-.2-2.9-.5-2.3-.8-4.1-2.4-5.2-4.6Z"/>
    <path className="st2" d="M281.5,237.5c-1.1,1.3-1.9,2.9-2.3,4.6-.2.8-.3,1.7-.3,2.6,0,1.5.3,2.9.8,4.2.5,1.3,1.2,2.4,2,3.4,1,1.1,2.1,2,3.4,2.7.2.1.4.2.6.3,1.4.6,2.9,1,4.5,1,0,0,0,0,0,0,.4,0,.8,0,1.2,0,.9,0,1.7-.3,2.5-.5.6-.2,1.2-.5,1.8-.8,3.6-1.9,6.1-5.7,6.1-10.1,0-6.4-5.1-11.6-11.4-11.6-2.6,0-5.1.8-7,2.3-.4.3-.9.7-1.3,1.1-.3.3-.5.5-.7.8ZM283.9,236c1.6-1.4,3.7-2.2,6-2.1,5.1,0,9.1,4.2,9.1,9.2,0,3.7-2.3,6.9-5.5,8.3-.2.1-.5.2-.8.3-.9.3-1.9.5-3,.5,0,0,0,0,0,0-.9,0-1.7-.1-2.5-.4-.6-.2-1.1-.4-1.7-.7-1.3-.7-2.5-1.7-3.3-3-.8-1.2-1.4-2.6-1.5-4.1,0-.4,0-.7,0-1.1,0-1.7.5-3.4,1.4-4.8.3-.5.6-.9,1-1.3.3-.3.6-.6.9-.8Z"/>
    <path className="st2" d="M323.4,337.2c-1.4,1.9-2.3,4.3-2.3,6.8,0,.3,0,.5,0,.8,0,.3,0,.5,0,.8.3,2.6,1.5,4.8,3.2,6.6,2.1,2.1,4.9,3.4,8.1,3.5,0,0,0,0,0,0,1.1,0,2.2-.1,3.2-.4.3,0,.7-.2,1-.3.9-.4,1.8-.8,2.6-1.4,1.1-.8,2-1.7,2.7-2.7,1.3-1.9,2.1-4.1,2.1-6.5,0-6.4-5.1-11.6-11.4-11.6-2.2,0-4.3.6-6.1,1.7-1.2.8-2.3,1.7-3.2,2.9ZM326.9,334.7c1.5-1,3.2-1.5,5.1-1.5,5.1,0,9.1,4.2,9.1,9.2,0,2.1-.8,4.1-2,5.6-.8,1-1.9,1.9-3.1,2.5-.5.2-.9.4-1.4.6-.3,0-.6.2-.9.2-.6.1-1.2.2-1.8.2-1.4,0-2.7-.3-3.9-.9-1.1-.5-2.1-1.3-2.9-2.2-1.4-1.6-2.3-3.8-2.3-6.1,0-1.6.4-3.1,1.2-4.4.7-1.3,1.7-2.4,2.9-3.2Z"/>
    <path className="st2" d="M201.7,226.7c.7.1,1.4.2,2.1.2,1.2,0,2.4-.2,3.5-.5,1.2-.4,2.4-1,3.4-1.7,1.3-1,2.5-2.3,3.3-3.7.4-.7.7-1.5,1-2.4.3-.9.4-1.8.4-2.7,0-.1,0-.2,0-.3,0-1.2-.2-2.4-.5-3.5-.1-.4-.2-.7-.4-1.1-.8-1.8-2-3.4-3.5-4.6-.8-.6-1.7-1.1-2.6-1.5-.6-.3-1.3-.5-2-.6-.8-.2-1.5-.3-2.4-.3-.2,0-.5,0-.7,0-5.9.3-10.6,5-10.9,10.8,0,.2,0,.4,0,.6,0,3.5,1.5,6.6,3.9,8.8.2.2.4.4.6.5.7.6,1.5,1,2.4,1.4.7.3,1.5.6,2.4.7ZM194.1,213.5s0,0,0-.1c.1-4.8,4-8.7,8.8-8.9.2,0,.3,0,.5,0,.9,0,1.7.1,2.5.4.6.2,1.2.4,1.8.7,1.2.7,2.2,1.6,3,2.7.9,1.2,1.5,2.7,1.7,4.2,0,.4,0,.8,0,1.2,0,.5,0,1.1-.2,1.6,0,.4-.2.8-.3,1.1-.2.7-.5,1.3-.9,1.9-.5.9-1.2,1.6-2,2.3-.2.1-.3.3-.5.4-.2.1-.4.3-.6.4,0,0-.1,0-.2.1-.8.5-1.8.8-2.7,1-.4,0-.7.1-1.1.2-.3,0-.6,0-.8,0-.6,0-1.2,0-1.8-.2,0,0,0,0,0,0-.9-.2-1.8-.5-2.6-1-2.8-1.6-4.6-4.6-4.6-8Z"/>
    <path className="st2" d="M260.1,166.7c-1.3,0-2.6.2-3.8.6,0,0-.2,0-.3.1-3.5,1.3-6.2,4.2-7.1,7.9-.2.9-.4,1.8-.4,2.8,0,.3,0,.6,0,.9.1,1.6.5,3.1,1.2,4.5.4.7.8,1.4,1.3,2.1,1.1,1.4,2.5,2.5,4.1,3.2,1.2.5,2.4.9,3.8,1,.2,0,.3,0,.5,0,.1,0,.3,0,.4,0,2.6,0,5-.8,6.9-2.2,1-.7,1.9-1.6,2.6-2.7,1.3-1.9,2.1-4.1,2.1-6.6,0-1.1-.1-2.2-.4-3.2-1.1-3.8-4-6.9-7.9-8-.7-.2-1.5-.4-2.3-.4-.3,0-.6,0-.9,0ZM262.9,168c2,.9,3.7,2.4,4.6,4.3.6,1.3,1,2.7,1,4.2,0,4.5-3.3,8.2-7.6,8.9-.5,0-1.1.1-1.6.1-.8,0-1.6-.1-2.4-.3-.2,0-.4-.1-.6-.2-2.5-.9-4.5-2.9-5.5-5.3-.4-1-.6-2.1-.6-3.2,0,0,0-.1,0-.2,0-4,2.6-7.4,6.2-8.6,0,0,.2,0,.2,0,.9-.3,1.8-.4,2.8-.4.9,0,1.8.1,2.6.4.3,0,.6.2.9.3Z"/>
    <path className="st2" d="M272,368.5c0,0,.2,0,.3,0,.2,0,.5,0,.7,0,.3,0,.5,0,.8,0,1.5-.2,3-.7,4.3-1.4.3-.2.6-.4.9-.6,1.9-1.3,3.4-3.3,4.2-5.5.4-1.2.7-2.5.7-3.8,0-3.2-1.3-6.2-3.4-8.3-.9-.9-2-1.7-3.2-2.2-1.5-.7-3.1-1.1-4.8-1.1-2,0-3.9.5-5.5,1.3-.6.3-1.2.7-1.7,1.1-.5.4-1,.8-1.4,1.3-.2.3-.5.5-.7.8-1.5,1.9-2.4,4.3-2.4,6.9,0,4.8,2.8,8.9,7,10.7.1,0,.3.1.4.2,1.2.5,2.5.7,3.8.8ZM265.5,362c-1.8-1.7-3-4.1-2.9-6.8,0-1.6.4-3,1.1-4.3.3-.6.7-1.1,1.1-1.6.3-.4.7-.7,1-1,.7-.6,1.4-1,2.3-1.4,1.1-.5,2.4-.7,3.7-.7,1.1,0,2.1.2,3.1.6,1.3.5,2.5,1.3,3.4,2.2,1.6,1.7,2.6,3.9,2.5,6.4,0,1.2-.3,2.4-.7,3.4-.9,2.2-2.6,3.9-4.7,4.8-.6.3-1.3.5-2,.6-.4,0-.9.1-1.4.2-.1,0-.3,0-.4,0-.8,0-1.5-.1-2.3-.3-1.5-.4-2.8-1.1-3.8-2.1Z"/>
    <path className="st10" d="M244.6,306.1c.7,0,1.3-.1,2-.3.6-.2,1.1-.4,1.6-.6.2,0,.4-.2.6-.3.6-.3,1.1-.7,1.5-1.1,0,0,.2-.2.3-.2,1.1-1.1,1.9-2.5,2.4-4,.2-.8.3-1.5.3-2.4,0-5.1-4-9.2-9.1-9.2-5.1,0-9.2,4-9.2,9.1,0,2.5,1,4.8,2.6,6.5.8.8,1.7,1.5,2.8,1.9.4.2.8.3,1.2.4.8.2,1.6.3,2.4.4.2,0,.4,0,.6,0ZM241.8,294.6c-1.3,0-2.4-1.1-2.4-2.4,0-1.3,1.1-2.4,2.4-2.4,1.3,0,2.4,1.1,2.4,2.4,0,1.3-1.1,2.4-2.4,2.4Z"/>
    <path className="st10" d="M200.1,389.5c2.6,0,5-1.1,6.7-2.8.9-.9,1.6-2.1,2-3.4.3-.9.5-1.9.5-2.9,0-2.3-.8-4.4-2.2-6-1.7-2-4.1-3.2-6.9-3.2,0,0,0,0,0,0-3.3,0-6.2,1.7-7.8,4.2-.7,1.1-1.1,2.3-1.3,3.6,0,.4,0,.8,0,1.2,0,0,0,0,0,0,0,1.4.3,2.7.8,3.8,1.4,3.2,4.6,5.4,8.3,5.4ZM196.2,373.9c.4-.4,1.1-.7,1.7-.7.2,0,.3,0,.4,0,.2,0,.5.1.7.2.8.4,1.3,1.2,1.3,2.1,0,1.3-1.1,2.4-2.4,2.4-1.2,0-2.2-.9-2.4-2.1,0,0,0-.2,0-.3,0-.6.3-1.2.7-1.7Z"/>
    <path className="st10" d="M160.1,319c0,0,.1,0,.2,0,1-.1,2-.4,2.9-.8.5-.3,1-.6,1.5-.9.5-.4,1-.9,1.5-1.4,0,0,0,0,0,0,1-1.1,1.6-2.5,2-4,.1-.6.2-1.2.2-1.8,0-1.1-.2-2.1-.5-3-.4-1.3-1.2-2.5-2.1-3.4-1.3-1.4-3.1-2.3-5.1-2.6-.4,0-.9-.1-1.4-.1-.7,0-1.5,0-2.2.2-2.8.7-5.2,2.7-6.3,5.3-.5,1.1-.7,2.3-.7,3.5,0,1.5.3,2.9,1,4.2,1.1,2.1,2.9,3.8,5.2,4.6.9.3,1.9.5,2.9.5.3,0,.6,0,.9,0ZM156.9,307.5c-1.3,0-2.4-1.1-2.4-2.4,0-1.3,1.1-2.4,2.4-2.4.5,0,1,.2,1.3.4.6.4,1,1.2,1,2,0,.1,0,.2,0,.3-.2,1.2-1.2,2.1-2.4,2Z"/>
    <path className="st10" d="M280.6,243c0,.4,0,.7,0,1.1.2,1.5.7,2.9,1.5,4.1.8,1.2,2,2.3,3.3,3,.5.3,1.1.5,1.7.7.8.2,1.6.4,2.5.4,0,0,0,0,0,0,1,0,2-.2,3-.5.3,0,.5-.2.8-.3,3.2-1.4,5.5-4.6,5.5-8.3,0-5.1-4-9.2-9.1-9.2-2.3,0-4.4.8-6,2.1-.3.3-.6.5-.9.8-.4.4-.7.9-1,1.3-.9,1.4-1.4,3-1.4,4.8ZM287.4,235.9c1.3,0,2.4,1.1,2.4,2.4,0,1.3-1.1,2.4-2.4,2.4-1.3,0-2.4-1.1-2.4-2.4,0-1.3,1.1-2.4,2.4-2.4Z"/>
    <path className="st10" d="M322.8,342.3c0,2.3.8,4.5,2.3,6.1.8.9,1.8,1.7,2.9,2.2,1.2.6,2.5.9,3.9.9.6,0,1.2,0,1.8-.2.3,0,.6-.1.9-.2.5-.2,1-.3,1.4-.6,1.2-.6,2.2-1.5,3.1-2.5,1.2-1.5,2-3.5,2-5.6,0-5.1-4-9.2-9.1-9.2-1.9,0-3.6.5-5.1,1.5-1.2.8-2.2,1.9-2.9,3.2-.7,1.3-1.2,2.8-1.2,4.4ZM327.9,335.9c.4-.4,1.1-.7,1.7-.7,1.3,0,2.4,1.1,2.4,2.4,0,.8-.4,1.5-1,1.9-.4.3-.9.5-1.4.4-1.3,0-2.4-1.1-2.4-2.4,0-.6.3-1.2.7-1.7Z"/>
    <path className="st10" d="M201.3,222.5c.6.1,1.2.2,1.8.2.3,0,.6,0,.8,0,.4,0,.7,0,1.1-.2,1-.2,1.9-.6,2.7-1,0,0,.1,0,.2-.1.2-.1.4-.3.6-.4.2-.1.3-.3.5-.4.8-.7,1.4-1.4,2-2.3.4-.6.7-1.2.9-1.9.1-.4.2-.8.3-1.1,0-.5.2-1.1.2-1.6,0-.4,0-.8,0-1.2-.2-1.6-.8-3-1.7-4.2-.8-1.1-1.8-2-3-2.7-.6-.3-1.2-.5-1.8-.7-.8-.2-1.6-.4-2.5-.4-.2,0-.3,0-.5,0-4.8.2-8.6,4.1-8.8,8.9,0,0,0,0,0,.1,0,3.4,1.8,6.4,4.6,8,.8.5,1.7.8,2.6,1,0,0,0,0,0,0ZM200.1,211.1c-.8-.3-1.4-1-1.6-1.8,0-.2,0-.3,0-.5,0-1.3,1.1-2.4,2.4-2.4,0,0,.2,0,.3,0,.9.1,1.6.7,2,1.5.1.3.2.6.2.9,0,1.3-1.1,2.4-2.4,2.4-.3,0-.5,0-.7-.1Z"/>
    <path className="st10" d="M256.6,167.7c0,0-.2,0-.2,0-3.6,1.2-6.2,4.6-6.2,8.6,0,0,0,.1,0,.2,0,1.1.2,2.2.6,3.2.9,2.5,3,4.4,5.5,5.3.2,0,.4.1.6.2.8.2,1.6.3,2.4.3.5,0,1.1,0,1.6-.1,4.3-.7,7.6-4.4,7.6-8.9,0-1.5-.3-2.9-1-4.2-1-1.9-2.6-3.5-4.6-4.3-.3-.1-.6-.2-.9-.3-.8-.3-1.7-.4-2.6-.4-1,0-1.9.1-2.8.4ZM256.9,174.1c-1.3,0-2.4-1.1-2.4-2.4,0-1.3,1.1-2.4,2.4-2.4,1.3,0,2.4,1.1,2.4,2.4,0,1.3-1.1,2.4-2.4,2.4Z"/>
    <path className="st10" d="M271.6,364.4c.1,0,.3,0,.4,0,.5,0,.9,0,1.4-.2.7-.1,1.4-.3,2-.6,2.1-.9,3.8-2.7,4.7-4.8.4-1.1.7-2.2.7-3.4,0-2.5-1-4.8-2.5-6.4-.9-1-2.1-1.8-3.4-2.2-1-.4-2-.6-3.1-.6-1.3,0-2.5.2-3.7.7-.8.3-1.6.8-2.3,1.4-.4.3-.7.7-1,1-.4.5-.8,1-1.1,1.6-.7,1.3-1.1,2.7-1.1,4.3,0,2.7,1.1,5.1,2.9,6.8,1.1,1,2.4,1.7,3.8,2.1.7.2,1.5.3,2.3.3ZM267.3,351.7c-.2-.4-.3-.8-.3-1.2,0-.5.2-.9.4-1.3.4-.7,1.2-1.1,2-1.1.8,0,1.5.4,1.9,1,.3.4.5.9.5,1.4,0,0,0,.1,0,.2,0,1.2-1.1,2.2-2.4,2.2-.9,0-1.6-.5-2-1.2Z"/>
    <path className="st8" d="M278.4,216.7c-1.8,0-3-.9-3.8-1.5,0,0,0,0,0,0-.2.2-.5.4-.8.9-1.2,1.4-2.6,2.3-4.1,2.6-.4,0-.7.1-1.1.1-1.9,0-3.7-.9-5.2-1.6-1.1-.6-2.3-1.1-3.1-1.1s-.9,0-1.8,1.2c-.3.3-.5.6-.8.8-1.3,1.3-2.9,2-4.6,2h0c-.9,0-1.7-.2-2.5-.5-1.2-.4-2.4-1.2-3.4-1.8-1.1-.7-2.4-1.5-3.1-1.5s-1.2.7-1.6,1.4c-.5.7-1,1.7-1.1,2.7,0,.5,0,1,.1,1.5,0,.2.2.5.3.7,0,0,.1.2.2.3.2.3.4.6.7.9,1.3,1.3,3.5,2.2,5.8,2.2s.5,0,.7,0c1.3,0,2.6-.4,3.8-1,1.1-.5,2.1-.9,3-1.1,1-.3,1.9-.4,2.8-.4,1.4,0,2.5.4,3.3.8.7.4,1.3.9,1.8,1.2.9.7,1.2.9,2,.9s1.1-.1,1.8-.3c.6-.2,1.2-.4,1.7-.6.3-.1.7-.2,1-.4,0,0,.2,0,.3-.1,1.3-.5,2.4-1.1,3.4-1.7.2-.1.5-.3.7-.4,2.3-1.2,4.2-2.3,6.7-2.3s1.3,0,2,.2c.8.2,1.8.3,2.8.3h0c2.2,0,3.9-.6,4.4-1.4.2-.3.3-.7.3-1.2,0-1.1-.5-2.7-1.5-4.6-.2-.3-1.1-1.2-2.3-1.2s-2,.5-3.2,1.4c-.1.1-.3.2-.4.3-1.9,1.6-3.5,2.4-5.2,2.4h0Z"/>
    <path className="st8" d="M342.3,357.4c-.3-.3-1.5-1.4-3.1-1.4s-.9,0-1.3.2c-.6.2-1.2.5-1.9,1-.6.4-1.1.9-1.7,1.5-1,1-2,1.8-2.9,2.4-.4.2-.8.4-1.3.6-.4.1-.8.2-1.2.3-.3,0-.5,0-.8,0h0c-1.7,0-3-.8-3.9-1.4-.1,0-.3-.2-.5-.3-.2.1-.4.4-.8.9,0,0,0,0,0,0-.2.2-.3.4-.5.7-.9,1.4-2,2.4-3.3,3-.4.2-.8.3-1.2.4-.6.2-1.2.2-1.9.2-2,0-3.8-.7-5.6-1.4-1.4-.6-2.8-1.1-3.9-1.1s-1.5,0-2.8,1.9c-.1.2-.2.3-.3.4-1.5,2.1-3.4,3.2-5.6,3.3-.2,0-.3,0-.5,0h0c-2.3,0-4.5-1.1-6.4-2.1-1.5-.7-3-1.5-4.1-1.5s-1.3,0-2.4,2.1c-.4.8-.7,1.5-.9,2.2,0,.1,0,.3,0,.4-.2,1.4,0,2.6.7,3.8.3.4.6.8.9,1.2,1.6,1.6,4.1,2.6,6.9,2.6,0,0,.1,0,.2,0,2.3,0,4.7-.6,6.8-1.9,0,0,.2,0,.3-.1.5-.3.9-.5,1.4-.7.3-.2.6-.3.9-.4,1.8-.8,3.4-1.2,4.8-1.2,2.5,0,4.1,1.1,5.2,1.9.5.4.9.6,1.3.8.4.2.7.2,1.2.2.7,0,1.6-.2,2.7-.7,1.2-.5,2.3-1,3.2-1.5,2-1.1,3.7-2.2,5.2-3.2.7-.5,1.5-1,2.2-1.4,0,0,0,0,0,0,1.1-.7,2.3-1.3,3.5-1.6.3,0,.6-.2.9-.2.6-.1,1.2-.2,1.8-.2s1,0,1.4.1c.4,0,1.1.1,2.1.1h0c2,0,4.5-.4,6-1.3.5-.3.9-.7,1.2-1.2.8-1.4.2-3.9-1.7-7-.1-.2-.3-.4-.4-.6Z"/>
    <path className="st8" d="M182.2,269.8c.8.5,1.5,1.1,2.1,1.7.2.2.5.5.7.7,1,1.2,1.7,1.9,4.9,1.9s0,0,.1,0c4.4-.3,7.2-1.2,9.7-2.1.8-.3,1.6-.5,2.4-.8,1.2-.3,2.3-.6,3.6-.6s.2,0,.3,0c.8,0,1.6.1,2.3.4,0,0,0,0,0,0,.9.2,2,.4,3.2.4h0c2.7,0,4.9-.7,5.5-1.8.3-.6.2-1.6-.3-2.9-.3-.7-.8-1.6-1.4-2.5,0,0,0,0,0,0-.5-.6-1.4-1.3-2.7-1.3s-2.3.5-3.6,1.4c-.1,0-.3.2-.4.3,0,0,0,0-.1,0-1.9,1.3-3.5,1.9-5.1,1.9-2.1,0-3.4-1.2-4.2-1.9,0,0-.2-.1-.2-.2-.2.1-.6.4-1.1.8,0,0,0,0,0,0-1.4,1.2-3,1.8-4.6,1.8-.5,0-1,0-1.5-.2-1.4-.3-2.6-1-3.6-1.8-.5-.4-1-.8-1.5-1.1h-.1c0-.1,0-.1,0-.2-.2-.1-.3-.3-.5-.4-.6-.4-1-.8-1.5-1-.4-.2-.9-.4-1.3-.4s-.2,0-.4,0c-.4,0-1,.3-1.5.6,0,0,0,0,0,0-1.3.8-2.6,1.1-3.9,1.1-3.8,0-6-3.1-7.5-5.2h0s-.1-.2-.1-.2c-1.4-1.8-2-2.6-2.9-2.6s-1.1.2-1.8.5c0,0,0,0,0,0-1,.4-2.3,1.2-2.7,2.6-.4,1.3,0,2.6.5,3.4,0,0,0,0,0,0,.2.3.4.7.7,1,1,1.2,2.4,2.4,4.2,3.3,1.7.8,3.6,1.3,5.8,1.3s.2,0,.2,0c.5,0,1,0,1.5,0,3,0,5,.5,6.5,1.3.2,0,.3.2.5.3Z"/>
    <path className="st8" d="M314.4,309.9c-.4.4-.8.8-1.3,1.2-.9.8-2,1.5-3.3,2.3-.3.2-.6.3-.9.5,0,0-.2,0-.3.1-.6.3-1.2.6-1.7.8-.9.4-1.6.5-2.3.5-1.6,0-2.6-1-3.1-1.5-.2-.2-.5-.5-.9-.8-.7-.4-1.9-.9-4-1.1-.9-.1-1.7-.2-2.3-.2-1.3,0-1.7.2-1.7.3-.1,0-.3.4-.5.8,0,.1-.1.2-.2.4-.6,1.3-1.7,3-4.8,3.7,0,0,0,0,0,0-.7.1-1.5.2-2.2.2,0,0-.1,0-.2,0-2.1,0-4.1-.5-6.1-1.1-.6-.2-1.1-.4-1.7-.5-1.6-.5-3.3-1-5-1.4-.8-.2-1.6-.3-2.5-.4-.3,0-.6,0-.9,0-.9,0-1.2.2-1.2.2,0,0-.2.3-.2.5-.2.4-.6,1.3-1.5,1.9-.3.2-.6.4-1,.5-.3.1-.7.2-1.1.2-.8,0-1.6-.2-2.7-.7-1.2-.5-2-1-2.8-1.3-1.1-.4-2.1-.6-3.3-.6s-1.7,0-2.9.3c-.5,0-1.1.2-1.7.3-.7.1-1.4.3-1.9.4-2.4.5-4,.8-5.6.8s-1.5,0-2.2-.2c-.9-.2-1.9-.4-2.9-.7-.4-.1-.7-.2-1.1-.3-.2,0-.4-.1-.6-.1,0,0-.1,0-.2,0-2.3,0-4.7,3.2-5.3,4.3-.5.8-1.3,1.3-2.3,1.3s-.4,0-.6,0c-.2,0-.4,0-.6-.1-.6-.1-1.2-.2-1.6-.2s-1,0-1.2.3c0,.1-.5.7-.4,2.4,0,.3,0,.7,0,1.1,0,.4.1.5.2.6,0,0,.3.2,1,.2s1.7-.1,2.6-.3c.2,0,.5,0,.7-.1.1,0,.2,0,.3,0,1.3-.3,2.5-.5,3.6-.5s.2,0,.2,0c1.4,0,2.4.5,3.2,1.4.3.3,1.7,1.2,5.3,2.4.4.1.7.2,1.1.3,2.5.7,5.3,1.3,7.4,1.6.3,0,.5,0,.8,0,1,0,2.2-.2,3.4-.4.5,0,1.1-.2,1.6-.3,2.2-.4,4.6-.9,7.1-.9s.9,0,1.4,0c2.2.2,4.1.7,5.9,1.6,1.4.7,2.6,1.1,3.7,1.1,1.7,0,3.2-.9,4.9-2.2.5-.3.9-.7,1.4-1.1.5-.4.9-.7,1.4-1.1,1.9-1.4,3.6-2.2,5.4-2.5.5,0,1-.1,1.6-.1,2.3,0,4.7.8,7.2,2.2,1.2.7,2.5,1.4,3.9,2.3,1.1.7,2.1,1.1,2.9,1.1,2,0,3.7-3.4,5.4-6.8.2-.4.4-.7.5-1.1.2-.3.4-.7.5-1,.7-1.1,1.5-1.8,2.2-2.3.7-.4,1.3-.7,2-.8.4,0,.8-.1,1.2-.1.7,0,1.4.1,2.1.3,2.4.7,4.8,2.4,7.4,4.1.7.5,1.5,1,2.2,1.5.6.4.9.4.9.4s.4,0,1.2-1.4c.8-1.4,1.6-3.5,2.5-5.8,0-.2.2-.5.3-.7.7-1.8,1.4-3.7,2.3-5.5.5-1.1.3-1.7,0-2.2-1.5-2.4-7.4-4.3-11.3-4.3s-1.1,0-1.2,0c-.2,0-.4.1-.6.3-.5.3-.9.9-1.7,2.1-.3.4-.5.8-.8,1.3-.6.9-1.3,1.8-2.3,2.7Z"/>
    <path className="st8" d="M148.1,358.3s0,0,0,0c.8,0,1.7.2,2.6.8.8.5,1.7,1.2,2.4,2.4,0,.1.2.3.2.4.1.2.2.4.4.6.2.4.4.7.5,1.1,1,2.1,2.1,4.2,3.3,5.5.7.8,1.4,1.2,2.1,1.2s1.4-.3,2.3-.8c.2-.1.4-.2.5-.3.9-.6,1.8-1.2,2.7-1.7.1,0,.2-.1.3-.2,1.4-.8,2.7-1.4,4-1.9,1.4-.5,2.7-.8,4-.8s1.6.1,2.3.3c1.5.4,3.1,1.1,4.6,2.3.5.4,1,.7,1.4,1.1.5.4,1,.8,1.5,1.1,1.1.8,2.1,1.5,3.1,1.8.6.2,1.2.3,1.8.3,1.1,0,2.3-.4,3.7-1.1,2.1-1.1,4.5-1.7,7.2-1.7s1.9,0,2.8.2c1.5.2,3,.4,4.3.7,1.8.3,3.5.7,4.9.7,0,0,0,0,.1,0,.3,0,.6,0,.8,0,2.4-.3,5.7-1,8.5-1.9,3.6-1.1,5.1-2.1,5.3-2.4.7-.9,1.8-1.3,3.1-1.4.1,0,.2,0,.3,0,.4,0,.8,0,1.2,0,.8,0,1.6.3,2.4.4,1.1.2,2.3.5,3.3.5,0,0,.2,0,.3,0h0c.8,0,1-.1,1-.2,0,0,.1-.2.2-.6.3-2.6-.2-3.4-.3-3.5-.2-.3-.9-.3-1.2-.3s-1,0-1.6.2c-.2,0-.5,0-.7.2-.2,0-.4,0-.6,0-.9,0-1.8-.5-2.3-1.3-.7-1.1-3-4.3-5.3-4.3s-.2,0-.4,0c-.2,0-.3,0-.5.1-2.3.8-4.1,1.3-6.2,1.3-1.4,0-2.8-.2-4.7-.6-.3,0-.6-.1-.9-.2-.6-.1-1.2-.2-1.9-.4-2-.4-3.5-.6-4.6-.6-1.8,0-3,.5-5.2,1.4-.3.1-.6.3-.9.4-1.1.5-1.9.7-2.7.7-2.3,0-3.2-1.9-3.5-2.6,0-.2-.2-.4-.2-.5,0,0-.3-.2-1.2-.2s-.6,0-.9,0c-1.2.1-2.4.3-3.5.6-1.4.3-2.8.8-4.1,1.2-.3.1-.6.2-.9.3-2.3.7-4.5,1.3-6.8,1.3-.9,0-1.7,0-2.5-.3-3.4-.7-4.3-2.8-4.9-4-.2-.3-.3-.7-.5-.8,0,0-.4-.3-1.7-.3s-1.4,0-2.3.2c-3.6.5-4.4,1.3-4.9,1.9,0,0,0,0,0,0-.5.5-1.4,1.4-3,1.4-.2,0-.4,0-.6,0-.3,0-.7-.1-1.1-.3-.9-.3-2-.9-3.5-1.7-.4-.2-.9-.5-1.2-.7-.9-.6-1.7-1.2-2.4-1.7-.8-.7-1.5-1.4-2.1-2.1-.9-1-1.5-2-2.1-2.9-.8-1.2-1.2-1.8-1.7-2.1-.2-.1-.4-.2-.6-.2,0,0-.4,0-1.2,0s-.9,0-1.4,0c-3.8.4-8.6,2.1-9.9,4.2-.3.5-.5,1.1,0,2.2.2.4.4.8.5,1.1.7,1.7,1.4,3.4,2,5,.3.8.6,1.5.9,2.3.5,1.3,1.1,2.6,1.6,3.5.8,1.3,1.2,1.4,1.2,1.4,0,0,.3,0,.9-.4.8-.5,1.5-1,2.2-1.5,2-1.4,4-2.8,5.9-3.6,0,0,0,0,0,0,1.2-.5,2.3-.8,3.5-.8s.2,0,.2,0Z"/>
    <path className="st8" d="M215.5,167.4c1.7-.1,3.3-.4,4.6-.9,1.7-.6,3.1-1.4,3.9-2.3,1-1.1,2.6-2.7,4.7-2.7s3.6,1.6,4.9,3c1.1,1.2,2.2,2.5,4,3.1,0,0,0,0,0,0,.1,0,.2,0,.3,0,.3,0,.5.1.7.1,1.2,0,2.3-1.2,3.9-3.1,1.5-1.7,3.2-3.7,5.7-4.9.3-.1.6-.3.9-.4.8-.3,1.5-.5,2.3-.5s1.4.1,2,.3c2.2.8,3.8,2.7,5.2,4.3.4.5,1,1.2,1.4,1.6.1-.2.2-.4.4-.6,1-1.7.8-3.4-.5-5.6-1.4-2.3-3.9-4.8-6.4-7.2-1.7-1.6-3.4-3.3-4.9-5.1-2.8-3.2-4.6-7.4-6-10.8-.6-1.5-1.2-2.8-1.8-3.9-.4-.7-.7-1.1-.9-1.3-.3.1-.6.2-.9.2s-.2,0-.3,0c-.5.1-4.9,1.6-12.5,16.8-6,12.2-12.4,17-15.8,19.4.9.2,2,.3,3.4.3s1.1,0,1.6,0Z"/>
    <path className="st8" d="M241.8,289.8c-1.3,0-2.4,1.1-2.4,2.4,0,1.3,1.1,2.4,2.4,2.4,1.3,0,2.4-1.1,2.4-2.4,0-1.3-1.1-2.4-2.4-2.4Z"/>
    <path className="st8" d="M197.8,378c1.3,0,2.4-1.1,2.4-2.4,0-.9-.5-1.7-1.3-2.1-.2-.1-.4-.2-.7-.2-.1,0-.3,0-.4,0-.7,0-1.3.3-1.7.7-.4.4-.7,1-.7,1.7,0,0,0,.2,0,.3.1,1.2,1.1,2.1,2.4,2.1Z"/>
    <path className="st8" d="M159.3,305.1c0-.8-.4-1.6-1-2-.4-.3-.8-.4-1.3-.4-1.3,0-2.4,1.1-2.4,2.4,0,1.3,1.1,2.4,2.4,2.4,1.2,0,2.2-.9,2.4-2,0-.1,0-.2,0-.3Z"/>
    <path className="st8" d="M287.4,240.7c1.3,0,2.4-1.1,2.4-2.4,0-1.3-1.1-2.4-2.4-2.4-1.3,0-2.4,1.1-2.4,2.4,0,1.3,1.1,2.4,2.4,2.4Z"/>
    <path className="st8" d="M329.6,340c.5,0,1-.2,1.4-.4.6-.4,1-1.1,1-1.9,0-1.3-1.1-2.4-2.4-2.4-.7,0-1.3.3-1.7.7-.4.4-.7,1-.7,1.7,0,1.3,1.1,2.4,2.4,2.4Z"/>
    <path className="st8" d="M203.3,208.8c0-.3,0-.6-.2-.9-.3-.8-1.1-1.4-2-1.5,0,0-.2,0-.3,0-1.3,0-2.4,1.1-2.4,2.4,0,.2,0,.3,0,.5.2.8.8,1.5,1.6,1.8.2,0,.5.1.7.1,1.3,0,2.4-1.1,2.4-2.4Z"/>
    <path className="st8" d="M257,169.3c-1.3,0-2.4,1.1-2.4,2.4,0,1.3,1.1,2.4,2.4,2.4,1.3,0,2.4-1.1,2.4-2.4,0-1.3-1.1-2.4-2.4-2.4Z"/>
    <path className="st8" d="M271.7,350.7c0,0,0-.1,0-.2,0-.5-.2-1-.5-1.4-.4-.6-1.1-1-1.9-1-.8,0-1.6.4-2,1.1-.2.4-.4.8-.4,1.3,0,.4.1.9.3,1.2.4.7,1.2,1.2,2,1.2,1.3,0,2.3-1,2.4-2.2Z"/>
  </g>
  <g id="frame">
    <rect className="st0" x="72.1" y="27.8" width="306.5" height="428.2"/>
    <path className="st8" d="M404.9,456V1.4H45.7v454.5h-10.6v44h380.3v-44h-10.6ZM378.6,456H72.1V27.8h306.5v428.2Z"/>
  </g>
  <g id="number">
    <path className="st5" d="M124.7,96.6c-9.7,2.6-17.7,7.1-17.7,8.8s.1.5.6.5,3.1-2.4,9-2.4,12.8,2.4,17.3,2.4,5.9-3,6.2-3,.4.1.4.7c0,2.9-6,13.6-14.1,13.6s-11.5-5-16.3-5-7.1,4.8-8.2,5.3c-.7.3-1.7.4-2.6.4-1.5,0-3.1-.3-3.6-.7-.7-.6-1.4-1.3-1.4-2.9,0-7.9,12.3-14.6,23.3-21.5,9.6-6,19.8-12.2,19.8-21.7s-2.8-5.7-7.5-5.7c-7.9,0-16.4,8.5-16.4,14.9s.5,1.9,1.7,1.9c5.4,0,9.9-11.7,10.3-11.7s.4,0,.4.4v.2c0,10.1-5.5,17.9-13.2,17.9s-7.3-2.3-7.3-7.9c0-7.9,11.3-20.7,26.7-20.7s15.5,4.5,15.5,12.5c0,12.9-12.8,21.1-22.9,23.8Z"/>
    <path className="st5" d="M164.2,117.7c-10.7,0-16.8-7.4-16.8-17.3,0-15.7,14-40,33.6-40s16.3,7.2,16.3,16.5c0,17-15.5,40.8-33,40.8ZM182.3,66.3c-9.8,0-23.3,20-23.3,32.4s3,8.7,7.1,8.7c10.5,0,22-20.7,22-33.5s-1.8-7.7-5.8-7.7Z"/>
  </g>
</svg>