<?xml version="1.0" encoding="UTF-8"?>
<svg id="window" xmlns="http://www.w3.org/2000/svg" version="1.1" viewBox="0 0 500 500">
  <!-- Generator: Adobe Illustrator 29.0.1, SVG Export Plug-In . SVG Version: 2.1.0 Build 192)  -->
  <defs>
    <style>
      .st0 {
        fill: none;
      }

      .st1 {
        fill: #f0639c;
      }

      .st2 {
        fill: #eb9423;
      }

      .st3 {
        fill: #181012;
      }

      .st4 {
        fill: #010101;
      }

      .st5 {
        fill: #2e944c;
      }

      .st6 {
        fill: #f59bac;
      }

      .st7 {
        fill: #f8e1c3;
      }

      .st8 {
        fill: #f9a62c;
      }

      .st9 {
        fill: #fff;
      }

      .st10 {
        fill: #ef4889;
      }

      .st11 {
        fill: #353c40;
      }

      .st12 {
        fill: #232a2d;
      }

      .st13 {
        fill: #d9cfcf;
      }
    </style>
  </defs>
  <g id="color">
    <rect className="st5" x="90.9" y="13.2" width="333.8" height="465"/>
  </g>
  <path id="frame" className="st9" d="M430.1,455.8V0H69.9v455.8h-10.6v44.2h381.4v-44.2h-10.6ZM96.3,26.4h307.4v429.3H96.3V26.4Z"/>
  <g id="character">
    <path className="st0" d="M442.8,261.4s0,0,0,0v-1.7c0-.6,0-1.2-.1-1.7v-1.7c0,0-.2-1.7-.2-1.7-.3-4.6-.9-9.1-1.6-13.6-.8-4.5-1.8-8.9-3-13.3-1.2-4.3-2.6-8.6-4.3-12.8l-.6-1.6c-.2-.5-.4-1-.6-1.5l-.7-1.5c-.1-.3-.2-.5-.3-.8l-.3-.8-.7-1.5c-.1-.3-.2-.5-.4-.8l-.4-.7-.7-1.5-.8-1.5-.4-.7-.2-.4-.2-.4-.8-1.5-.4-.7-.4-.7-.8-1.4c-.3-.5-.6-.9-.8-1.4l-.9-1.4-.9-1.4c-.3-.5-.6-.9-.9-1.4-2.4-3.7-5-7.2-7.8-10.6-2.8-3.4-5.7-6.6-8.7-9.7l-1.2-1.1c-.4-.4-.8-.8-1.2-1.1l-1.2-1.1c-.4-.4-.8-.7-1.2-1.1l-1.2-1.1-.6-.5-.6-.5c-.8-.7-1.6-1.4-2.5-2.1-3.3-2.7-6.8-5.3-10.4-7.6l-.7-.4-.7-.4-1.4-.9c-.2-.1-.5-.3-.7-.4l-.7-.4-1.4-.8c-.5-.3-.9-.5-1.4-.8l-1.4-.8c-.9-.5-1.9-1-2.8-1.5-7.6-4-15.5-7.2-23.7-9.7-4.1-1.2-8.3-2.3-12.5-3.1-4.2-.9-8.5-1.5-12.7-2-4.3-.5-8.6-.8-12.9-.9-4.3-.1-8.6,0-12.9.3-8.6.6-17.2,1.9-25.6,4-1,.3-2.1.5-3.1.8l-1.6.5c-.5.2-1,.3-1.6.5l-1.6.5c-.5.2-1,.3-1.6.5l-1.5.5-.8.3-.8.3c-4.1,1.5-8.1,3.1-12.1,5-7.9,3.7-15.6,8.2-22.7,13.5-3.6,2.6-7,5.4-10.3,8.4-.2.2-.4.4-.6.6l-.6.6-1.2,1.1-.3.3-.3.3-.6.6-1.2,1.2-1.2,1.2-.6.6c-.2.2-.4.4-.6.6l-1.1,1.2-.6.6c-.2.2-.4.4-.6.6-.7.8-1.5,1.7-2.2,2.5l-1.1,1.3c-.4.4-.7.9-1.1,1.3-.4.4-.7.9-1.1,1.3l-1,1.3c-.7.9-1.4,1.8-2,2.7-.2.2-.3.5-.5.7l-.5.7-1,1.4c-.3.5-.6.9-.9,1.4-.3.5-.6.9-.9,1.4l-.9,1.4c-.3.5-.6,1-.9,1.4l-.9,1.5-.4.7-.4.7c-4.5,7.9-8.3,16.3-11,25.1l-.5,1.7v.4c-.1,0-.2.4-.2.4l-.2.8-.5,1.7-.4,1.7c-.1.6-.3,1.1-.4,1.7l-.4,1.7c-.1.4-.2.9-.3,1.3,2.4.5,4.5,1.5,6.1,2.8.1,0,.3,0,.4,0,2.1.2,4,.8,5.8,1.6,26.8-46,66.3-82.2,125-79-1.9-4.6-1.2-9.4,2-11,3.2-1.7,7.8.8,10.4,5.4,1-6.6,5.5-11.5,10.3-10.9,4.9.6,8.2,6.6,7.3,13.5-.4,3-1.5,5.7-3,7.6,49,14.4,75.5,55,89.5,101.4.7,0,1.3.2,2,.4,2-3.1,5.9-5.3,10.5-5.7Z"/>
    <path className="st12" d="M239,405.7c.5-.8,1.1-1.6,1.6-2.3.3-.5.7-.9,1-1.4-2.3-1.5-3.4-4.2-2.7-6.8,1.8-6.3,3.7-12.7,5.5-19,0,0,0,0,0,0-17.2-11.1-39.4-3.6-43.8-2.3-5.4,1.5-21.5,3.5-21.5,3.5-26.2-5.7-18.9,10.4-18.9,10.4,12,35.4,52.5,31,52.5,31,8.2-.6,15.3-2.4,21.3-4.8,1.6-2.9,3.3-5.6,4.9-8.1h0Z"/>
    <path className="st12" d="M372.7,395.1c1,3.4-1.2,6.9-4.8,7.8,0,0,0,0,0,0,.2,1.1.4,2.1.6,3.2.1.6.2,1.1.3,1.7,1.9,3,3.9,6.2,5.7,9.8,5.8.2,12.4-.4,19.4-2.1,0,0,39.9-8.3,40.4-45.7,0,0,2-17.6-21.2-4.1,0,0-8.6,1.6-15.4,2.6-8.8,5.2-18.5,9.4-28.9,12.7,1.4,4.7,2.7,9.4,4.1,14.1Z"/>
    <path className="st11" d="M243.2,444.9c0-3.4.2-7,.5-10.9,0,0,0,0,0,0,.2-2.9.5-6,.9-9.2,1-7.8,3-14.6,5.5-20.6-2.1-.4-4.2-.9-6.3-1.4-.8-.2-1.5-.5-2.2-.9-.3.4-.6.9-1,1.4-.5.8-1.1,1.5-1.6,2.3h0c-1.7,2.5-3.3,5.2-4.9,8.1-1,1.8-2,3.7-3,5.7-4.8,9.7-9,21.6-11.3,35.4h23.7s0,0,0,0c-.2-3-.3-6.4-.2-10Z"/>
    <path className="st11" d="M370.4,420.2c.7,6.9.8,13.7.7,20.5,0,4.7-.2,9.5-.5,14.2h15.8c-.7-4.4-1.6-8.7-2.6-12.7-2.5-9.4-5.8-17.6-9.5-24.7-1.8-3.5-3.8-6.8-5.7-9.8.8,4.2,1.3,8.3,1.7,12.4Z"/>
    <path className="st9" d="M296.4,445.1c-.3-5.3-.5-10.6-.6-16,0-6.4,0-12.8.7-19.3-2.5,0-5-.2-7.4-.4-9.4-.6-18.7-1.6-27.9-3.1-3.7-.6-7.3-1.3-11-2.1-2.5,6-4.5,12.8-5.5,20.6-.4,3.2-.7,6.2-.9,9.2,0,0,0,0,0,0-.3,3.9-.4,7.5-.5,10.9,0,3.6,0,6.9.2,10,0,0,0,0,0,0h53.5c0-.5,0-.9,0-1.4-.2-2.8-.3-5.6-.5-8.4Z"/>
    <path className="st9" d="M335.7,422.4c-.3-4.6-.8-9.2-1.2-13.9-1,.1-2,.2-3,.3,0,.7-.1,1.4-.2,2.1-.5,6.4-.8,12.8-1,19.2-.3,8.3-.3,16.5,0,24.9h6.7c0-4.5,0-8.9-.2-13.4-.2-6.4-.5-12.8-1-19.2Z"/>
    <path className="st10" d="M370.4,420.2c-.4-4.1-1-8.2-1.7-12.4-.1-.6-.2-1.1-.3-1.7-.2-1-.4-2.1-.6-3.2-6.6,1.5-13.3,2.8-20,3.9-4.4.7-8.9,1.3-13.4,1.7.5,4.6.9,9.3,1.2,13.9.5,6.4.8,12.8,1,19.2.1,4.5.2,8.9.2,13.4h33.8c.2-4.8.4-9.5.5-14.2,0-6.8,0-13.6-.7-20.5Z"/>
    <path className="st1" d="M238.9,395.1c-.8,2.7.4,5.4,2.7,6.8.6.4,1.4.7,2.2.9,2.1.5,4.2.9,6.3,1.4,3.7.8,7.3,1.5,11,2.1,9.3,1.5,18.6,2.6,27.9,3.1,2.5.2,5,.3,7.4.4,0-.4,0-.8,0-1.2.4-4.6,1.1-9.3,2-14.1.4-1.8.6-3.7.9-5.6-1.9-.1-3.9-.3-5.8-.5,0,0,0,0,0,0,0,0,0,0,0,0,0,0-.2,0-.2,0-16.4-2.2-33-6.9-48.4-13.6-.2.4-.4.8-.5,1.3,0,0,0,0,0,0-1.8,6.3-3.7,12.7-5.5,19Z"/>
    <path className="st1" d="M333.4,388.4c-.1,1.8-.3,3.6-.5,5.4-.6,5-1,10-1.4,15,1,0,2-.2,3-.3,4.5-.5,8.9-1,13.4-1.7,6.7-1,13.4-2.3,20-3.9,0,0,0,0,0,0,3.6-.8,5.8-4.3,4.8-7.8-1.4-4.7-2.7-9.4-4.1-14.1-2.5.8-5,1.5-7.5,2.2,0,0,0,0-.1,0-8.9,2.4-18.2,4.1-27.6,5.1Z"/>
    <path className="st10" d="M330.2,430c.2-6.4.5-12.8,1-19.2,0-.7.1-1.4.2-2.1.4-5,.8-10,1.4-15,.2-1.8.4-3.6.5-5.4-11.3,1.2-22.7,1.4-33.8.5-.3,1.9-.6,3.8-.9,5.6-.9,4.8-1.6,9.4-2,14.1,0,.4,0,.8,0,1.2-.6,6.5-.7,12.9-.7,19.3,0,5.3.3,10.6.6,16,.1,2.8.3,5.6.5,8.4,0,.5,0,.9,0,1.4h33.3c-.2-8.3-.2-16.6,0-24.9Z"/>
    <path className="st11" d="M418,313.6c0-.2,0-.5.1-.7-2.7-1.1-4.9-2.7-6.6-4.7-5.5,43.6-37.5,67.2-50.5,75.1,2.5-.7,5-1.4,7.5-2.2,10.4-3.3,20.2-7.6,28.9-12.7,16.6-9.8,29.5-22.8,36-38.7-.1,0-.2,0-.3,0-9.4-1.1-16.2-8.3-15.1-16Z"/>
    <path className="st11" d="M293.4,388.4c0,0,.2,0,.2,0,0,0,0,0,0,0,0,0-.1,0-.2,0-22.2-3-44.7-10.5-64.2-21.4-11.5-11.6-39.4-45.8-29.2-94.1,0,0,3-18.7,13-36.5.4-.7.8-1.5,1.3-2.2,7.2-12.1,17.8-23.5,33.1-27.8,38-10.6,55.9,44,50.2,100.5,3.9-.9,8.3-.4,11.8,1.5,8.1-56.2,38.7-104.9,73-85.4,13.9,7.9,21.5,21.7,25.5,35.3.2.8.5,1.7.7,2.5,1.4,5.3,2.3,10.6,2.9,15.4.2-.4.3-.9.6-1.3,1.1-5.8,7.8-9.7,15.3-8.8.9.1,1.8.3,2.7.5.1,0,.2,0,.3,0-14-46.3-40.5-87-89.5-101.4-2,2.6-4.6,4-7.4,3.7-2.5-.3-4.6-2.1-5.9-4.7-.5,1.4-1.3,2.5-2.6,3.1-3.3,1.7-8.1-.9-10.6-5.8-.2-.3-.3-.7-.5-1-58.7-3.2-98.3,33.1-125,79,6.2,2.7,10.2,8.4,9.4,14.5-.5,3.8-2.8,7-6,9.2,2.6,2.9,3.9,6.5,3.4,10.3-.8,6.2-6.4,10.9-13.4,12,0,.2,0,.5,0,.7-.7,5.2-4.7,9.4-10.2,11.2,4,28.2,27,52.8,57.1,69.5,5.1,2.8,10.4,5.4,15.8,7.8,15.4,6.7,31.9,11.3,48.4,13.6Z"/>
    <path className="st11" d="M336.6,144.2c-4.8-.6-9.3,4.2-10.3,10.9,0,.1.2.3.2.4,1.6,3.1,1.9,6.5,1.1,8.9,1.3,2.6,3.4,4.4,5.9,4.7,2.8.3,5.4-1.1,7.4-3.7,1.5-2,2.6-4.6,3-7.6.8-6.9-2.4-12.9-7.3-13.5Z"/>
    <path className="st11" d="M326.5,155.4c0-.1-.2-.3-.2-.4-2.6-4.7-7.2-7.1-10.4-5.4-3.1,1.6-3.9,6.4-2,11,.1.3.3.7.5,1,2.5,4.9,7.3,7.6,10.6,5.8,1.2-.6,2.1-1.7,2.6-3.1.8-2.4.5-5.8-1.1-8.9Z"/>
    <path className="st9" d="M410,290.5c.2-1.8,1-3.4,2.2-4.8-1.1-2.2-1.6-4.6-1.2-7,.1-.9.3-1.7.6-2.5-.6-4.8-1.5-10.1-2.9-15.4-.2-.8-.5-1.7-.7-2.5-4.1-13.7-11.6-27.4-25.5-35.3-34.3-19.5-64.9,29.2-73,85.4,1.9,1,3.5,2.3,4.7,4,4.3,5.9,7.7,12,10.3,18.2,1.3,3.2-2,6.1-5.1,4.9-.5-.2-1-.4-1.6-.6,0,.2,0,.3,0,.5-.8,6.5-9.2,10.7-18.7,9.6-9.5-1.2-16.6-7.4-15.9-13.8,0-.2,0-.3,0-.5-.6,0-1.1.1-1.7.2-3.3.4-5.8-3.1-3.8-6,4-5.4,8.8-10.5,14.4-15.2,1.6-1.4,3.5-2.3,5.5-2.8,5.7-56.5-12.2-111.1-50.2-100.5-15.2,4.3-25.9,15.6-33.1,27.8-.4.7-.9,1.5-1.3,2.2-10,17.8-13,36.5-13,36.5-10.2,48.3,17.7,82.4,29.2,94.1,19.5,10.8,42,18.3,64.2,21.4,0,0,.1,0,.2,0,0,0,0,0,0,0,1.9.2,3.8.4,5.8.5,11.2.9,22.6.7,33.8-.5,9.4-1,18.7-2.7,27.6-5.1,0,0,0,0,.1,0,13-7.9,45-31.5,50.5-75.1-2.4-2.8-3.7-6.3-3.2-10,.2-1.7.8-3.3,1.7-4.8-.2-.9-.2-1.9,0-2.8ZM332.4,304.9c0-.4,0-.8,0-1.3.2-17.8,16.1-35,38.8-23.6,7,3.5,10.3,11,10,18.8,4.5-1.8,14.5-6,17.1-7.5,0,0-8.6,11.3-18.7,16.8,0,0-1.5,3-2.4,5.2-.2.5-.3.9-.3.9,0-.3.2-.6.3-.9.1-.5.3-1.2.4-2.1-.5,1.8-1,2.9-1,2.9.2-.6.2-1.3.2-1.8-.1-4-4.2-6.6-6.4-7.9-14.9-8.9-35.4-.2-38,1-.2,0-.3.1-.3.1,0-.2.2-.4.3-.6ZM230.9,318.2c-.7,5.9-7.7,9.9-15.5,8.9-7.9-1-13.7-6.5-12.9-12.4.7-5.9,7.7-9.9,15.5-8.9,7.9,1,13.7,6.5,12.9,12.4ZM239.7,283.9c-2.5.5-7.1,1.6-8.6,5.4-.2.5-.4,1.1-.4,1.8,0,0-.2-1.3,0-3.1-.2.9-.3,1.6-.3,2.1,0,.3,0,.6,0,.9,0,0,0-.3,0-.9,0-2.4-.6-5.7-.6-5.7-7.8-8.6-12.2-22-12.2-22,2,2.3,10.1,9.5,13.7,12.7,2.2-7.5,7.8-13.5,15.6-14.5,25.2-3.4,34.6,18.1,29,35-.1.4-.3.8-.4,1.2,0,.2,0,.4,0,.6,0,0,0,0-.2-.2-2.1-2-18.6-16.9-35.6-13.3ZM400,339c-.7,5.9-7.7,9.9-15.5,8.9-7.9-1-13.7-6.5-12.9-12.4.7-5.9,7.7-9.9,15.5-8.9,7.9,1,13.7,6.5,12.9,12.4Z"/>
    <path className="st2" d="M283.2,330.8c0,.2,0,.3,0,.5-.8,6.5,6.3,12.6,15.9,13.8,9.5,1.2,17.9-3.1,18.7-9.6,0-.2,0-.3,0-.5-11.1-3.9-22.8-5.3-34.5-4.2Z"/>
    <path className="st8" d="M277.7,325c-2,2.8.5,6.4,3.8,6,.6,0,1.1-.1,1.7-.2,11.7-1.1,23.4.4,34.5,4.2.5.2,1,.4,1.6.6,3.1,1.2,6.4-1.6,5.1-4.9-2.6-6.2-6-12.3-10.3-18.2-1.2-1.7-2.8-3-4.7-4-3.5-1.8-8-2.4-11.8-1.5-2.1.5-4,1.4-5.5,2.8-5.6,4.7-10.4,9.8-14.4,15.2Z"/>
    <path className="st13" d="M354.6,293.8s17.5-1.5,24.5,5.9c0,0,.8-.3,2.2-.9.3-7.8-3-15.3-10-18.8-22.7-11.4-38.6,5.8-38.8,23.6,0,.4,0,.9,0,1.3,3.8-7.4,12.2-11,22.2-11.1Z"/>
    <path className="st3" d="M377.3,313.3c-.1.3-.2.6-.3.9,0,0,.1-.3.3-.9Z"/>
    <path className="st3" d="M354.6,293.8s0,0,0,0c3.5,0,7.1.3,10.8,1.1,13.3,2.8,13.5,11.2,12.4,15.9,0,.1,0,.2,0,.4,0,0,0,0,0,0,0,.9-.2,1.6-.4,2.1.8-2.2,2.4-5.2,2.4-5.2,10.1-5.6,18.7-16.8,18.7-16.8-2.6,1.5-12.6,5.7-17.1,7.5-1.3.5-2.2.9-2.2.9-7-7.4-24.5-5.9-24.5-5.9Z"/>
    <path className="st3" d="M370.5,304.4c2.2,1.3,6.2,3.9,6.4,7.9,0,.6,0,1.2-.2,1.8,0,0,.6-1.2,1-2.9,0,0,0,0,0,0,0-.1,0-.2,0-.4,1.1-4.7,1-13.1-12.4-15.9-3.7-.8-7.4-1.2-10.8-1.1,0,0,0,0,0,0-10,.1-18.4,3.8-22.2,11.1,0,.2-.2.4-.3.6,0,0,0,0,.3-.1,2.7-1.2,23.1-9.9,38-1Z"/>
    <path className="st13" d="M258.2,279c9.4,3.4,16.1,9.6,17.3,17.8.1-.4.3-.8.4-1.2,5.7-16.9-3.8-38.4-29-35-7.7,1-13.4,7-15.6,14.5,1.1,1,1.8,1.5,1.8,1.5,9-4.7,25.1,2.4,25.1,2.4Z"/>
    <path className="st3" d="M230.3,291c0-.3,0-.6,0-.9,0,.6,0,.9,0,.9Z"/>
    <path className="st3" d="M230.7,287.5c.5-4.8,3.3-12.7,16.9-11,3.8.5,7.3,1.3,10.6,2.5,0,0,0,0,0,0,0,0-16.1-7.1-25.1-2.4,0,0-.7-.6-1.8-1.5-3.6-3.2-11.8-10.4-13.7-12.7,0,0,4.4,13.4,12.2,22,0,0,.5,3.3.6,5.7,0-.5.1-1.3.3-2.1,0,0,0,0,0,0,0-.1,0-.2,0-.4Z"/>
    <path className="st3" d="M275.6,297.4c0-.2,0-.4,0-.6-1.2-8.2-7.9-14.4-17.3-17.8,0,0,0,0,0,0-3.3-1.2-6.8-2-10.6-2.5-13.5-1.7-16.4,6.2-16.9,11,0,.1,0,.3,0,.4,0,0,0,0,0,0-.1,1.8,0,3.1,0,3.1,0-.7.2-1.3.4-1.8,1.4-3.7,6.1-4.8,8.6-5.4,17-3.6,33.5,11.3,35.6,13.3.2.1.2.2.2.2Z"/>
    <path className="st6" d="M217.9,305.8c-7.9-1-14.8,3-15.5,8.9-.7,5.9,5.1,11.4,12.9,12.4,7.9,1,14.8-3,15.5-8.9.7-5.9-5.1-11.4-12.9-12.4Z"/>
    <path className="st6" d="M387,326.6c-7.9-1-14.8,3-15.5,8.9-.7,5.9,5.1,11.4,12.9,12.4,7.9,1,14.8-3,15.5-8.9.7-5.9-5.1-11.4-12.9-12.4Z"/>
    <path className="st10" d="M175.7,235.1c.3,0,.5,0,.8.1,0-.4.2-.9.3-1.3l.4-1.7c.1-.6.3-1.1.4-1.7l.4-1.7.5-1.7.2-.8v-.4c.1,0,.2-.4.2-.4l.5-1.7c2.8-8.8,6.5-17.2,11-25.1l.4-.7.4-.7.9-1.5c.3-.5.6-1,.9-1.4l.9-1.4c.3-.5.6-.9.9-1.4.3-.5.6-.9.9-1.4l1-1.4.5-.7c.2-.2.3-.5.5-.7.7-.9,1.3-1.8,2-2.7l1-1.3c.3-.4.7-.9,1.1-1.3.4-.4.7-.9,1.1-1.3l1.1-1.3c.7-.9,1.5-1.7,2.2-2.5.2-.2.4-.4.6-.6l.6-.6,1.1-1.2c.2-.2.4-.4.6-.6l.6-.6,1.2-1.2,1.2-1.2.6-.6.3-.3.3-.3,1.2-1.1.6-.6c.2-.2.4-.4.6-.6,3.3-3,6.8-5.8,10.3-8.4,7.1-5.3,14.8-9.8,22.7-13.5,4-1.9,8-3.5,12.1-5l.8-.3.8-.3,1.5-.5c.5-.2,1-.3,1.6-.5l1.6-.5c.5-.2,1-.3,1.6-.5l1.6-.5c1-.3,2.1-.6,3.1-.8,8.4-2.1,17-3.5,25.6-4,4.3-.3,8.6-.4,12.9-.3,4.3.1,8.6.4,12.9.9,4.3.5,8.5,1.2,12.7,2,4.2.9,8.4,1.9,12.5,3.1,8.2,2.5,16.2,5.7,23.7,9.7.9.5,1.9,1,2.8,1.5l1.4.8c.5.3.9.5,1.4.8l1.4.8.7.4c.2.1.5.3.7.4l1.4.9.7.4.7.4c3.6,2.4,7.1,4.9,10.4,7.6.8.7,1.7,1.4,2.5,2.1l.6.5.6.5,1.2,1.1c.4.4.8.7,1.2,1.1l1.2,1.1c.4.4.8.8,1.2,1.1l1.2,1.1c3.1,3.1,6,6.3,8.7,9.7,2.7,3.4,5.3,6.9,7.8,10.6.3.5.6.9.9,1.4l.9,1.4.9,1.4c.3.5.6.9.8,1.4l.8,1.4.4.7.4.7.8,1.5.2.4.2.4.4.7.8,1.5.7,1.5.4.7c.1.2.2.5.4.8l.7,1.5.3.8c.1.3.2.5.3.8l.7,1.5c.2.5.4,1,.6,1.5l.6,1.6c1.6,4.2,3.1,8.4,4.3,12.8,1.2,4.3,2.2,8.8,3,13.3.8,4.5,1.3,9,1.6,13.6v1.7c.1,0,.2,1.7.2,1.7,0,.6,0,1.2,0,1.7v1.7s0,0,0,0c.5,0,1,0,1.6,0,2.5-.8,5.3-1.2,8.3-.9v-1c.1-.6.1-1.3.2-1.9v-1.9c0,0,.1-1.9.1-1.9v-.9s0-.5,0-.5v-.5s0-1.9,0-1.9v-.9c0-.3,0-.6,0-.9v-1.9c0-.6-.1-1.3-.1-1.9v-1.9c-.1-.6-.2-1.3-.2-1.9,0-.6,0-1.3-.1-1.9-.5-5-1.2-10-2.2-14.9-1-4.9-2.3-9.8-3.8-14.5l-.6-1.8c-.2-.6-.4-1.2-.6-1.8l-.6-1.8c-.1-.3-.2-.6-.3-.9l-.3-.9-.7-1.7c-.1-.3-.2-.6-.3-.9l-.4-.9-.7-1.7-.8-1.7c-2-4.5-4.3-9-6.8-13.2-2.5-4.3-5.2-8.4-8.2-12.4-2.9-4-6.1-7.8-9.4-11.4-3.3-3.6-6.9-7-10.5-10.2-3.7-3.2-7.5-6.2-11.5-9l-.7-.5-.8-.5-1.5-1c-.3-.2-.5-.3-.8-.5l-.8-.5-1.5-1c-.5-.3-1-.6-1.6-1l-1.6-.9c-1-.6-2.1-1.2-3.2-1.8-8.5-4.7-17.4-8.5-26.6-11.4-4.6-1.4-9.3-2.6-14-3.6-4.7-1-9.5-1.7-14.3-2.3-4.8-.5-9.6-.9-14.4-1-4.8,0-9.7,0-14.5.4-9.7.7-19.3,2.4-28.8,5-1.2.3-2.4.7-3.5,1l-1.8.6c-.6.2-1.2.4-1.8.6l-1.7.6c-.6.2-1.2.4-1.7.6l-1.7.6-.9.3-.9.3c-4.6,1.8-9.1,3.8-13.5,6.1-4.4,2.3-8.7,4.7-12.9,7.4-4.2,2.7-8.2,5.6-12.1,8.8-3.9,3.1-7.6,6.5-11.2,10.1-.2.2-.4.4-.7.7l-.7.7-1.3,1.4-.3.3-.3.3-.6.7-1.3,1.4c-.8,1-1.7,1.9-2.5,2.9l-1.2,1.5-.6.7c-.2.2-.4.5-.6.7-.8,1-1.6,2-2.3,3l-1.1,1.5c-.4.5-.7,1-1.1,1.5-.4.5-.7,1-1.1,1.5l-1.1,1.6c-.7,1-1.4,2.1-2.1,3.2-.2.3-.3.5-.5.8l-.5.8-1,1.6c-.6,1.1-1.3,2.2-1.9,3.3l-.9,1.7c-.3.6-.6,1.1-.9,1.7l-.9,1.7c-.1.3-.3.6-.4.8l-.4.9c-4.4,9.1-7.8,18.8-10,28.7l-.4,1.8v.5c0,0-.2.5-.2.5l-.2.9-.3,1.9c0,.6-.2,1.1-.3,1.7,3.3,1.5,6,3.8,7.6,6.6Z"/>
    <path className="st7" d="M145.3,233.5c-.5.7-.9,1.4-1.2,2.2.2,0,.4,0,.6,0,.1-.8.3-1.5.6-2.2Z"/>
    <path className="st7" d="M170.6,235.2c1.5-.3,3.1-.4,4.7-.2.1,0,.3,0,.4,0-1.6-2.8-4.3-5.1-7.6-6.6-1.8-.8-3.8-1.4-6-1.7,0,0,0,0,0,0,4.4,1.4,7.6,4.6,8.6,8.4Z"/>
    <path className="st7" d="M182.2,286.3c0-.2,0-.5,0-.7,7-1.1,12.5-5.8,13.4-12,.5-3.8-.8-7.4-3.4-10.3,3.3-2.2,5.5-5.4,6-9.2.8-6.1-3.1-11.7-9.4-14.5-1.8-.8-3.7-1.3-5.8-1.6-.1,0-.3,0-.4,0,3,2.4,4.7,5.9,4.2,9.6-.4,3-2.1,5.5-4.6,7.3,2,2.3,3,5.1,2.6,8.1-.6,4.9-4.9,8.6-10.3,9.5,0,.2,0,.4,0,.6-.8,6.1-7.3,10.4-14.5,9.6-5.2-.6-9.4-3.7-11-7.8-1.7.4-3.6.6-5.5.4-7.2-.8-12.4-6.5-11.6-12.6.4-2.7,1.8-5,3.9-6.7-3.8-2.3-6.1-6.3-5.5-10.6.2-1.7.9-3.3,1.9-4.6-4.2,2.1-7.2,5.8-7.8,10.2-.7,5.4,2.3,10.4,7.3,13.4-2.7,2.1-4.6,5.1-5,8.5-1,7.8,5.7,15,15.1,16,2.5.3,5,.1,7.2-.4,2.1,5.1,7.5,9.1,14.3,9.9,3.1.4,6.1,0,8.7-.9,5.4-1.8,9.5-6,10.2-11.2Z"/>
    <path className="st7" d="M432.2,267.4c0-.1.1-.2.2-.3-.6-.2-1.3-.3-2-.4-.1,0-.2,0-.3,0,.7.2,1.4.4,2.1.7Z"/>
    <path className="st7" d="M468.2,276.5c1-7.8-5.7-15-15.1-16-.1,0-.3,0-.4,0-2.9-.3-5.7,0-8.3.9.6,0,1.3,0,2,.1,7.7.9,13.3,6.5,12.5,12.5,7.7.9,13.3,6.5,12.5,12.5-.6,4.2-4,7.4-8.6,8.8,1.7,2.1,2.6,4.7,2.2,7.3-.8,6-7.7,10.2-15.4,9.3-2.1-.2-4-.8-5.6-1.6-2.7,3.5-7.9,5.5-13.5,4.8-7.7-.9-13.3-6.5-12.5-12.5,0-.2,0-.4,0-.6-4.2-1.7-7.3-4.9-8-8.6-.9,1.5-1.5,3.1-1.7,4.8-.5,3.7.8,7.2,3.2,10,1.7,2,4,3.6,6.6,4.7,0,.2,0,.5-.1.7-1,7.8,5.7,15,15.1,16,.1,0,.2,0,.3,0,6.7.7,12.9-2,16.2-6.4,2,1.1,4.4,1.8,6.9,2.1,9.4,1.1,17.9-4.3,18.9-12.1.4-3.4-.6-6.6-2.7-9.3,5.6-1.8,9.9-6,10.6-11.4,1-7.8-5.7-15-15.1-16Z"/>
    <path className="st7" d="M412.2,285.7c.8-.9,1.7-1.7,2.7-2.3-2.1-2.2-3.2-5.1-2.8-8,0-.2,0-.3.1-.5-.2.4-.4.9-.6,1.3-.3.8-.5,1.6-.6,2.5-.3,2.5.1,4.9,1.2,7Z"/>
    <path className="st9" d="M135.8,256c-2.1,1.7-3.5,4-3.9,6.7-.8,6.1,4.4,11.8,11.6,12.6,1.9.2,3.8,0,5.5-.4,1.6,4,5.7,7.2,11,7.8,7.2.8,13.7-3.5,14.5-9.6,0-.2,0-.4,0-.6,5.4-.9,9.6-4.6,10.3-9.5.4-3-.6-5.8-2.6-8.1,2.5-1.7,4.2-4.3,4.6-7.3.5-3.7-1.2-7.2-4.2-9.6-1.7-1.3-3.8-2.3-6.1-2.8-.3,0-.5,0-.8-.1-.1,0-.3,0-.4,0-1.6-.2-3.2-.1-4.7.2-1-3.8-4.2-7-8.6-8.4-.9-.3-1.8-.5-2.8-.6-6.3-.7-12,2.5-13.9,7.4-.3.7-.5,1.5-.6,2.2-.2,0-.4,0-.6,0-5-.4-9.5,1.7-12,5-1,1.4-1.7,2.9-1.9,4.6-.6,4.2,1.7,8.2,5.5,10.6Z"/>
    <path className="st9" d="M442.8,261.4c-4.5.4-8.4,2.5-10.5,5.7,0,.1-.1.2-.2.3-.7-.3-1.4-.5-2.1-.7-.9-.2-1.8-.4-2.7-.5-7.5-.9-14.2,3-15.3,8.8,0,.2,0,.3-.1.5-.4,2.9.7,5.8,2.8,8-1,.7-2,1.5-2.7,2.3-1.2,1.4-1.9,3-2.2,4.8-.1,1,0,1.9,0,2.8.7,3.7,3.7,6.9,8,8.6,0,.2,0,.4,0,.6-.8,6,4.8,11.6,12.5,12.5,5.6.6,10.7-1.4,13.5-4.8,1.7.8,3.6,1.4,5.6,1.6,7.7.9,14.6-3.3,15.4-9.3.4-2.6-.5-5.2-2.2-7.3,4.6-1.3,8-4.6,8.6-8.8.8-6-4.8-11.6-12.5-12.5.8-6-4.8-11.6-12.5-12.5-.7,0-1.3-.1-2-.1-.5,0-1.1,0-1.6,0Z"/>
  </g>
  <g id="number">
    <path className="st4" d="M149.2,86.5c-7,14.6-15.2,39.8-18.3,39.8s-8.9-6.3-8.9-9.5,14.3-31.6,15.7-34.6l-.5-.2c-2.6,3.5-7.5,7.8-9.6,7.8s-2-.3-2-.7,7-6.8,13.8-17.5c6.5-10.2,11.7-21.6,15-21.6s9.8,2.7,9.8,4.6c0,4.3-7.9,17.4-15.1,31.8Z"/>
    <path className="st4" d="M176.9,126.2c-14.2,0-22.3-9.8-22.3-22.9,0-20.8,18.5-53,44.5-53s21.5,9.6,21.5,21.8c0,22.5-20.6,54-43.7,54ZM200.8,58.1c-12.9,0-30.9,26.4-30.9,42.9s4,11.6,9.5,11.6c13.9,0,29.1-27.4,29.1-44.4s-2.4-10.1-7.7-10.1Z"/>
  </g>
</svg>