<?xml version="1.0" encoding="UTF-8"?>
<svg id="Layer_2" xmlns="http://www.w3.org/2000/svg" version="1.1" viewBox="0 0 500 500">
  <!-- Generator: Adobe Illustrator 29.0.1, SVG Export Plug-In . SVG Version: 2.1.0 Build 192)  -->
  <defs>
    <style>
      .st0 {
        fill: #c4e3c8;
      }

      .st1 {
        fill: #010101;
      }

      .st2 {
        fill: #dd362e;
      }

      .st3 {
        fill: #fff;
      }
    </style>
  </defs>
  <g id="color">
    <rect className="st0" x="85.3" y="12.9" width="334.1" height="465.4"/>
  </g>
  <g id="candy">
    <g id="red">
      <path className="st2" d="M390.3,260.8c-1.3-2.5-2.8-5-4.4-7.3-4.9-7.1-11-13.1-18.1-17.9-4-2.7-8.3-5-12.8-6.9-3.4-1.4-6.9-2.6-10.6-3.5-8.7-2.2-17.6-2.7-26.4-1.5-1.3.2-2.7.4-4,.7-7.1,1.4-13.9,3.9-20.2,7.5-7.5,4.2-13.9,9.7-19.2,16.3,0,0-.2.2-.2.3-5.5,7.1-9.5,15-11.6,23.7-.2.8-1.3,5.1-2.3,10-.2,1-.4,1.9-.6,2.8-1.5,7.7-2.1,13.1-1.8,17.5.5,6.8,3.6,13.1,8.8,17.6,5.1,4.5,11.8,6.7,18.6,6.3,6.8-.5,13.1-3.6,17.6-8.8,4.2-4.9,6.5-11.1,6.3-17.6.2-1.7.9-5.7,1.9-9.8.4-1.8.8-3.5,1.3-5.2v-.3c1-3.7,3.6-6.7,7-8.4,2.6-1.4,5.8-2.1,9.1-1.8,1.1,0,2.2.2,3.4.5,2.8.7,5.2,1.8,7.1,3.1,2.5,1.7,4.4,3.9,5.7,6.4,2.1,3.8,3,8.1,3.2,12.3,0,1.4,0,2.9,0,4.2-.2,5.9-1.1,13.1-2.6,21.1-1.8,10-4.6,21.4-7.9,33.3-2.9,10.4-6.4,21.3-10.1,32-3.5,10-7.3,19.9-11.2,29.2-2.6,6.3-5.4,12.4-8.1,18.1-3,6.1-3.4,13.2-1.1,19.6,2.2,6.4,7,11.7,13.1,14.7,1.6.8,3.2,1.4,4.9,1.8,4.8,1.2,9.9,1,14.7-.7,6.4-2.2,11.7-7,14.7-13.1,2.6-5.4,5.2-11.2,7.8-17.3,5-11.6,9.8-24.3,14.3-37.3,2.8-7.9,5.4-16,7.8-24,.4-1.3.8-2.6,1.2-4,3.3-11.5,6.9-25,9.6-38.7,2.3-11.4,3.9-22.7,4.3-32.9,0-1.4,0-2.7,0-4.1,0-14-3.2-27-9.1-38.3Z"/>
    </g>
    <g id="white">
      <path className="st3" d="M319.5,276.4c-3.4,1.8-6,4.7-6.9,8.4v.3c-.5,1.6-.9,3.4-1.3,5.2-20.7-6.3-40.2-6.2-51.4-5.3.2-.9.4-1.8.6-2.8,1-4.9,2.1-9.1,2.3-10,2.2-8.7,6.1-16.7,11.6-23.7,0,0,.2-.2.2-.3,16.8,2.9,35.9,19.6,44.8,28.2Z"/>
      <path className="st3" d="M339.1,278.2c-2-1.4-4.3-2.4-7.1-3.1-1.1-.3-2.2-.5-3.4-.5-.5-9.8-3-34.3-14.5-50.1,1.3-.3,2.7-.5,4-.7,8.8-1.2,17.7-.7,26.4,1.5,3.7.9,7.2,2.1,10.6,3.5.2,14.8-4.8,34.4-15.9,49.5Z"/>
      <path className="st3" d="M399.5,299c-10.1,5.8-27.6,6.4-51.4-2.1-.2-4.2-1.1-8.5-3.2-12.3,10.6-2.7,30.5-9.4,45.5-23.9,6,11.2,9.1,24.3,9.1,38.3Z"/>
      <path className="st3" d="M395.1,336c-2.7,13.6-6.3,27.2-9.6,38.7-10.8-1.6-34.8-6.5-48-19.1,3.4-11.9,6.1-23.3,7.9-33.3,9.1,7.9,25.9,18.1,49.7,13.7Z"/>
      <path className="st3" d="M376.5,402.7c-4.5,13-9.4,25.6-14.3,37.3-14-2.7-36.3-9.1-46-23.1,3.9-9.3,7.7-19.2,11.2-29.2,8.5,7.9,25.2,18.8,49.1,15.1Z"/>
    </g>
  </g>
  <path id="frame" className="st3" d="M430.3,455.8V-.4H69.7v456.2h-10.6v44.2h381.7v-44.2h-10.6ZM262.1,455.8v-220.3h141.8v220.3h-141.8ZM403.8,211.4h-141.8V26.1h141.8v185.3ZM237.9,26.1v185.3H96.2V26.1h141.8ZM96.2,235.5h141.8v220.3H96.2v-220.3Z"/>
  <g id="number">
    <path className="st1" d="M164.2,109.1c-8.3,17.2-17.8,46.8-21.6,46.8s-10.5-7.4-10.5-11.1,16.8-37.1,18.5-40.8l-.6-.2c-3.1,4.1-8.9,9.2-11.2,9.2s-2.4-.3-2.4-.8,8.3-8,16.2-20.6c7.6-12,13.7-25.4,17.6-25.4s11.6,3.2,11.6,5.5c0,5.1-9.3,20.4-17.7,37.5Z"/>
    <path className="st1" d="M201.2,109.1c-8.3,17.2-17.8,46.8-21.6,46.8s-10.5-7.4-10.5-11.1,16.8-37.1,18.5-40.8l-.6-.2c-3.1,4.1-8.9,9.2-11.2,9.2s-2.4-.3-2.4-.8,8.3-8,16.2-20.6c7.6-12,13.7-25.4,17.6-25.4s11.6,3.2,11.6,5.5c0,5.1-9.3,20.4-17.7,37.5Z"/>
  </g>
</svg>