<?xml version="1.0" encoding="UTF-8"?>
<svg xmlns="http://www.w3.org/2000/svg" version="1.1" viewBox="0 0 500 500">
  <!-- Generator: Adobe Illustrator 29.0.1, SVG Export Plug-In . SVG Version: 2.1.0 Build 192)  -->
  <defs>
    <style>
      .st0 {
        fill: #eb9423;
      }

      .st1 {
        fill: #181012;
      }

      .st2 {
        fill: #f59bac;
      }

      .st3 {
        fill: #f9a62c;
      }

      .st4, .st5 {
        fill: #fff;
      }

      .st4, .st6 {
        display: none;
      }

      .st7 {
        fill: #edd542;
      }

      .st8 {
        fill: #d7d7d7;
      }

      .st9 {
        fill: #1f92ad;
      }

      .st10 {
        fill: #232a2d;
      }

      .st11 {
        fill: #d9cfcf;
      }
    </style>
  </defs>
  <g id="background_x5F_none" class="st6">
    <rect width="500" height="500"/>
  </g>
  <g id="Layer_1">
    <g id="color" class="st6">
      <path class="st7" d="M392.5,451.5H107.5V180.3c0-89.3,63.8-161.7,142.5-161.7h0c78.7,0,142.5,72.4,142.5,161.7v271.2Z"/>
    </g>
    <g id="character">
      <path class="st10" d="M301.9,429.9c-2-1.3.4-2.3-1.6-3,11.8-11.8,13.4-27.2,9.2-45.7-10.1-43.9-33-85-83.8-91-50.9-4.7-81.9,30.8-100.9,71.6-9.7,20.9-3.7,40.5,10.5,56.1-4.5.7,2.7,20.4-1.9,23.7-7.8,5.7-13.1,8.8,12.8,20.4,0,0,31.5,15.3,51.5-9.9,0,0,.3-.3.8-.9,3.3.7,6.6,1.2,10,1.6,0,0,.1,0,.2,0,9,.8,18.3.7,27.4-.4,0,2.6,2.3,4.7,2.3,4.7,18,20.6,44.2,6.3,44.2,6.3,21.5-10.9,26.2-29.1,19.4-33.6Z"/>
      <g>
        <path class="st5" d="M292.3,387.5s.9-13.3-3.1-27.2c-.2-.6-.3-1.2-.5-1.8-3.1-9.7-8.6-19.5-18.7-24.9-24.9-13.6-46.3,22.2-51.2,62.8,0,.1,0,.3,0,.4l-4.8,4.8-3.7-5.7c0-.1,0-.2,0-.3,3.7-40.8-9.8-80.3-37-72.2-10.8,3.2-18.3,11.5-23.3,20.2-.3.5-.6,1.1-.9,1.6-6.9,12.8-8.8,26.2-8.8,26.2-6.7,34.7,13.7,58.7,22,66.9,14.1,7.5,30.2,12.6,46.1,14.5,0,0,.1,0,.2,0,15.9,1.5,32.7,0,47.9-4.4,9.7-6.1,35-25.4,35.6-60.9Z"/>
        <path class="st0" d="M225.1,414.7c-.5,4.6-6.4,7.8-13.3,7.1s-12-5.1-11.5-9.7c.5-4.6,6.4-7.8,13.3-7.1,6.8.7,12,5.1,11.5,9.7Z"/>
        <path class="st3" d="M199.2,411.9c9.1-1.2,18.4-.2,27,2.8,2.2.8,4.6-1.3,3.6-3.6-1.9-4.4-4.4-8.7-7.6-12.9-3.3-4.6-11.6-5.5-15.8-1.7-3.9,3.4-7.3,7.1-10.1,11-1.4,2,.4,4.5,2.8,4.2Z"/>
        <g>
          <path class="st11" d="M163.2,382s0,0,0,0c.1.3.2.5.3.8,2.5,4.2,6.9,3.9,8.6,4.5,8.5,3.3,17.2,3.1,24.3-4.4,1-5.1-5.6-15.5-23.2-14.5-5.4.3-9,3.2-10.2,7-.6,2-.6,4.3.2,6.5Z"/>
          <path class="st1" d="M162.3,378.1c0,0,0-.2,0-.3.3-1.3.8-2.1.8-2.1-.1.5-.2.9-.2,1.3.1,2.9,3.1,4.7,4.8,5.7,11.3,6.6,26.7.6,28.7-.3.1,0,.2,0,.2,0,0,.1-.1.3-.2.4-2.9,5.2-9.2,7.7-16.7,7.7-2.6,0-5.4-.3-8.1-.9-10.1-2.2-10.2-8.2-9.3-11.5Z"/>
          <polygon class="st1" points="163.2 382 152.7 391.1 166.3 386 163.2 382"/>
        </g>
        <g>
          <path class="st11" d="M268.9,396.5s0,0,0,0c-.2.2-.4.5-.5.7-3.6,3.4-7.7,1.9-9.4,2.1-9.1.9-17.4-1.6-22.3-10.6.4-5.2,9.5-13.4,26.2-7.9,5.1,1.7,7.9,5.5,8,9.5,0,2.1-.6,4.3-1.9,6.2Z"/>
          <path class="st1" d="M271.3,392.4c0,0,0-.2,0-.3,0-1.4-.2-2.3-.2-2.3,0,.5,0,.9-.2,1.4-.9,2.8-4.4,3.9-6.4,4.4-13.1,3.5-26.9-6.7-28.7-8.1-.1,0-.2-.2-.2-.2,0,.2,0,.3.1.5,1.4,6,7.1,10.3,14.6,12.3,2.6.7,5.4,1.1,8.4,1.3,10.7.6,12.4-5.4,12.5-9Z"/>
          <polygon class="st1" points="269.1 396 276.7 408.3 264.8 399 269.1 396"/>
        </g>
      </g>
      <g>
        <path class="st2" d="M162.9,403.5c-.4,4.2-5.4,7.1-11,6.6-5.6-.6-9.8-4.5-9.4-8.7.4-4.2,5.4-7.1,11-6.6,5.6.6,9.8,4.5,9.4,8.7Z"/>
        <ellipse class="st2" cx="273.7" cy="415.1" rx="7.7" ry="10.3" transform="translate(-167.8 643.9) rotate(-84)"/>
      </g>
      <path class="st9" d="M309.2,329.9c-12.1-26.3-35-59.1-67-65.9-5.8-1.6-11-2.5-16-2.7h0c-5.1-.4-10.6,0-16.6,1-32.6,3.5-58.7,33.7-73.4,58.6-16.6,26.8-29.7,61.9-1.7,111.5-10.4-18.8-5.7-70.8,7.3-91.7,19.1-29.4,44.1-46.1,82.3-44.7h0c38.3,2.5,61.6,21.8,77.7,53.1,10.8,22.2,10.1,74.3-2.2,92,33-46.5,23.5-82.7,9.8-111.1Z"/>
      <g>
        <path class="st8" d="M212.4,248.7c-.8.9-1.4,2-1.8,3.3-1.9,5.5,1,11.5,6.5,13.4,2.7.9,5.5.7,7.8-.4,1.2,2.3,3.3,4.2,5.9,5.1,4.4,1.5,9.1,0,11.8-3.5.2,0,.3.1.5.2,5.5,1.9,11.5-1,13.4-6.5,1.4-4,.2-8.3-2.6-11,1-1.1,1.8-2.3,2.3-3.8,1.9-5.5-1-11.5-6.5-13.4-2.4-.8-4.9-.7-7.1,0-.6-3.7-3.2-7-7-8.3-5.5-1.9-11.5,1-13.4,6.5-5.5-1.9-11.5,1-13.4,6.5-1.5,4.4,0,9.1,3.5,11.8Z"/>
        <path class="st8" d="M306.3,344.3h0c-8.9-17.5-19.4-30.4-32.3-39.5-6.9-4.9-14.5-8.8-22.7-11.6-6.7-2.3-14-3.8-21.8-4.7v-.4s-5.9-.2-5.9-.2c-9.9-.4-19.2.4-27.8,2.4-8.4,1.9-16.3,5-23.6,9.2-13.6,7.8-25.4,19.5-36,35.8h0c-6.6,10.8-11.6,29.2-13.3,49.4-.8,9.5-.8,18.8,0,26.8.9,8.8,2.8,15.9,5.5,21-4.1,2.9-6.8,7.6-7.1,12.9-.5,9.4,6.7,17.3,16.1,17.8,9.4.5,17.3-6.7,17.8-16.1.5-9.2-6.5-17.1-15.7-17.8,0-.7-.3-1.4-.7-2-4.2-7.7-5.9-23.6-4.4-41.7,1.5-18.1,5.9-34.9,11.5-44,19.2-29.5,42.3-42.6,74.6-42.1h2.3c33.8,2.3,56.2,17.6,72.8,49.9,4.6,9.6,7.3,26.8,6.9,45-.4,18.1-3.7,33.9-8.7,41-.4.6-.7,1.2-.9,1.9-9.3-.4-17.2,6.8-17.6,16.1-.5,9.4,6.7,17.3,16.1,17.8,9.4.5,17.3-6.7,17.8-16.1.3-5.3-1.9-10.1-5.5-13.4,3.3-4.9,5.9-11.7,7.7-20.4,1.7-7.9,2.6-17.1,2.8-26.7.4-20.2-2.6-39.1-8.1-50.4Z"/>
      </g>
      <path class="st5" d="M219.4,262.7c-4.7-1.6-7.2-6.8-5.6-11.5.4-1.1.9-2,1.6-2.8-3-2.3-4.3-6.3-3-10.1,1.6-4.7,6.8-7.2,11.5-5.6,1.6-4.7,6.8-7.2,11.5-5.6,3.2,1.1,5.4,3.9,5.9,7.1,1.9-.7,4-.8,6,0,4.7,1.6,7.2,6.8,5.6,11.5-.4,1.3-1.1,2.4-2,3.3,2.4,2.4,3.4,6,2.2,9.4-1.6,4.7-6.8,7.2-11.5,5.6-.1,0-.3-.1-.4-.2-2.3,3-6.3,4.3-10.1,3-2.3-.8-4-2.4-5.1-4.4-2,.9-4.4,1.1-6.7.3Z"/>
      <circle class="st5" cx="292.6" cy="454.4" r="13" transform="translate(-247.3 478.7) rotate(-59.8)"/>
      <circle class="st5" cx="138.3" cy="446.4" r="13" transform="translate(-263.3 207.5) rotate(-42)"/>
    </g>
    <g id="day_x5F_number" class="st6">
      <path class="st5" d="M192.4,139.7c-8,16.5-17.2,45.1-20.8,45.1s-10.1-7.1-10.1-10.7,16.2-35.8,17.8-39.3l-.5-.2c-3,3.9-8.5,8.9-10.8,8.9s-2.3-.3-2.3-.8,8-7.7,15.6-19.8c7.3-11.6,13.2-24.5,17-24.5s11.2,3.1,11.2,5.3c0,4.9-9,19.7-17.1,36.1Z"/>
    </g>
    <path id="frame" class="st4" d="M403.2,451.5V180.3c0-45.8-15.8-88.9-44.4-121.4-29-32.9-67.6-51-108.8-51s-79.8,18.1-108.8,51c-28.6,32.5-44.4,75.6-44.4,121.4v271.2h-15.6v39.1h337.7v-39.1h-15.6ZM118.1,245.7h263.7v195.1H118.1v-195.1ZM250,29.3c72.7,0,131.9,67.8,131.9,151.1v44.1H118.1v-44.1c0-83.3,59.2-151.1,131.9-151.1Z"/>
  </g>
</svg>