<?xml version="1.0" encoding="UTF-8"?>
<svg id="layer" xmlns="http://www.w3.org/2000/svg" version="1.1" viewBox="0 0 500 500">
  <!-- Generator: Adobe Illustrator 29.0.1, SVG Export Plug-In . SVG Version: 2.1.0 Build 192)  -->
  <defs>
    <style>
      .st0 {
        fill: #c4e3c8;
      }

      .st1 {
        fill: #010101;
      }

      .st2 {
        fill: #e3a34a;
      }

      .st3 {
        fill: #cb2027;
      }

      .st4 {
        fill: #fff;
      }

      .st5 {
        fill: #e81d25;
      }
    </style>
  </defs>
  <g id="color">
    <rect className="st0" x="86.1" y="13.2" width="333.3" height="464.3"/>
  </g>
  <g id="left">
    <path className="st5" d="M104.3,258.7s0,0,0,0c0,.3,1.5,5.4,3.9,13.7,7.7,27.4,24.8,89.9,33.8,131.6,1,4.5,1.9,8.8,2.6,12.8,2.7,14,3.9,24.1,2.6,27-6.1,13.8-26,12.2-30.6,9.2-.4-.2-.9-.5-1.6-.7-2.7-.8-7.6-1.4-13.4-1.4-5.9,0-12.8.6-19.2,2.1V21.6h172.1c-7.8,33.8-50.2,196-150.1,237.1Z"/>
    <path className="st3" d="M114.9,452.3c-2.7-.8-7.6-1.4-13.4-1.4-1.8-28.6-10.1-166.1-7.8-161.5,2.3,4.5,17.7,133.7,21.2,162.9Z"/>
    <path className="st3" d="M238.1,21.6c-6.2,29.1-38.3,158.8-129.6,225,.4-.4,91.9-96.7,110.2-225h19.4Z"/>
    <path className="st3" d="M172.7,21.6c-23.5,121.5-69,199-69.4,199.6,33.6-66.2,52.6-176.2,56.4-199.6h13Z"/>
    <polygon className="st3" points="113.7 21.6 90.1 257.8 102.7 21.6 113.7 21.6"/>
    <path className="st2" d="M108.1,272.4c-.1,0-.2.1-.4.2-2.9,1.2-15.5-2.5-25.5-10.1v-13.2c5,2.6,14.4,6,22,8.1,1.5.4,3,1,4.3,1.2,0,0,2.9,11.7-.4,13.8Z"/>
  </g>
  <g id="right">
    <path className="st5" d="M404.1,258.7s0,0,0,0c0,.3-1.5,5.4-3.9,13.7-7.7,27.4-24.8,89.9-33.8,131.6-1,4.5-1.9,8.8-2.6,12.8-2.7,14-3.9,24.1-2.6,27,6.1,13.8,26,12.2,30.6,9.2.4-.2.9-.5,1.6-.7,2.7-.8,7.6-1.4,13.4-1.4,5.9,0,12.8.6,19.2,2.1V21.6h-172.1c7.8,33.8,50.2,196,150.1,237.1Z"/>
    <path className="st3" d="M393.5,452.3c2.7-.8,7.6-1.4,13.4-1.4,1.8-28.6,10.1-166.1,7.8-161.5-2.3,4.5-17.7,133.7-21.2,162.9Z"/>
    <path className="st3" d="M270.2,21.6c6.2,29.1,38.3,158.8,129.6,225-.4-.4-91.9-96.7-110.2-225h-19.4Z"/>
    <path className="st3" d="M335.7,21.6c23.5,121.5,69,199,69.4,199.6-33.6-66.2-52.6-176.2-56.4-199.6h-13Z"/>
    <polygon className="st3" points="394.7 21.6 418.3 257.8 405.6 21.6 394.7 21.6"/>
    <path className="st2" d="M400.2,272.4c.1,0,.2.1.4.2,2.9,1.2,15.5-2.5,25.5-10.1v-13.2c-5,2.6-14.4,6-22,8.1-1.5.4-3,1-4.3,1.2,0,0-2.9,11.7.4,13.8Z"/>
  </g>
  <path id="frame" className="st4" d="M429.8,455.1V0H70.2v455.1h-10.6v44.1h380.8v-44.1h-10.6ZM262,455.1v-219.8h141.4v219.8h-141.4ZM403.4,211.3h-141.4V26.4h141.4v184.9ZM238,26.4v184.9H96.6V26.4h141.4ZM96.6,235.3h141.4v219.8H96.6v-219.8Z"/>
  <g id="number">
    <path className="st1" d="M307.9,305.3c-6.2,12.8-13.3,34.8-16.1,34.8s-7.8-5.5-7.8-8.3,12.5-27.7,13.8-30.4l-.4-.2c-2.3,3-6.6,6.9-8.4,6.9s-1.8-.3-1.8-.6,6.2-5.9,12.1-15.3c5.7-9,10.2-18.9,13.1-18.9s8.6,2.4,8.6,4.1c0,3.8-6.9,15.2-13.2,27.9Z"/>
    <path className="st1" d="M342.6,309.4c-9,10.1-16.6,22.8-16.6,31.3s4.2,8.8,4.2,9.2-.2.8-.9.8c-7.8,0-15.6-4.4-15.6-13.6,0-22.7,32.6-41.2,43.1-50.1l-.3-.4c-1.5,1.1-4.7,2.5-7.6,2.5s-5.2-1.3-9.3-1.3c-7.7,0-12.3,6.2-14.8,10.4-.9,1.5-1.9,3-2.9,3s-4.7-.3-4.7-1.5,4.3-8.2,7.3-13.9c3-5.7,6-13.3,7.4-13.3s3.2.5,3.4,1.6c0,1.1-3.4,7.4-4.7,10.3l.3.2c2.7-3.7,8.5-8.8,15.3-8.8s9.5,3.6,13.4,3.6,6.7-5.2,8-5.2,2.5.5,2.5,1.8c0,7-15.2,19.1-27.7,33.3Z"/>
  </g>
</svg>