<?xml version="1.0" encoding="UTF-8"?>
<svg id="Layer_4" xmlns="http://www.w3.org/2000/svg" version="1.1" viewBox="0 0 500 500">
  <!-- Generator: Adobe Illustrator 29.0.1, SVG Export Plug-In . SVG Version: 2.1.0 Build 192)  -->
  <defs>
    <style>
      .st0 {
        fill: #181012;
      }

      .st1 {
        fill: #603923;
      }

      .st2 {
        fill: #dd362e;
      }

      .st3 {
        fill: #f59bac;
      }

      .st4 {
        fill: #b92025;
      }

      .st5 {
        fill: #edd542;
      }

      .st6 {
        fill: #f6d7a8;
      }

      .st7 {
        fill: #fff;
      }

      .st8 {
        fill: #31120d;
      }

      .st9 {
        fill: #cc884a;
      }

      .st10 {
        fill: #fbe0c8;
      }

      .st11 {
        fill: #6b4227;
      }
    </style>
  </defs>
  <g id="color">
    <rect class="st5" x="74.7" y="12.7" width="334" height="465.3"/>
  </g>
  <path id="frame" class="st7" d="M421.9,455.6V-.5H61.5v456.1h-10.6v44.2h381.6v-44.2h-10.6ZM87.9,25.9h307.6v429.7H87.9V25.9Z"/>
  <g id="character">
    <path class="st2" d="M336.5,466.5c-53.2,13.1-108.8,13.1-162,0-4.7-1.2-7.6-6-6.3-10.7,2.4-8.8,4.8-17.5,7.2-26.3,1.2-4.5,5.8-7.2,10.4-6.1,45.8,11.1,93.6,11.1,139.4,0,4.6-1.1,9.2,1.6,10.4,6.1,2.4,8.8,4.8,17.5,7.2,26.3,1.3,4.7-1.6,9.5-6.3,10.7Z"/>
    <g>
      <path class="st4" d="M253.4,460.7c29.6,0,59.1-3.6,87.8-10.6-.2-.7-.4-1.3-.5-2-28.7,7-58,10.5-87.3,10.5s-55.9-3.2-83.3-9.6c-.2.7-.4,1.3-.5,2,27.4,6.4,55.5,9.6,83.7,9.6,0,0,.1,0,.2,0Z"/>
      <path class="st4" d="M168.9,453.3c-.2.8-.4,1.6-.6,2.3,1.3,1.3,2.5,2.6,3.8,3.9-1.2.5-2.4,1-3.7,1.6.2.7.6,1.3.9,1.9,1.7-.7,3.3-1.4,4.9-2.1.3-.1.5-.4.6-.8,0-.3,0-.7-.3-.9-1.9-1.9-3.8-3.9-5.7-5.8Z"/>
      <path class="st4" d="M180.6,454.5c-.4-.4-1.1-.4-1.5,0-.4.4-.4,1.1,0,1.5,2.2,2.1,4.4,4.2,6.6,6.3-2.9,1.4-5.8,2.7-8.7,4-.3.1-.5.4-.6.7.9.2,1.8.4,2.7.6,3-1.3,6-2.7,8.9-4.2.3-.1.5-.4.6-.8,0-.3,0-.7-.3-.9-2.6-2.4-5.2-4.8-7.7-7.3Z"/>
      <path class="st4" d="M194,456.9c-.4-.4-1.1-.4-1.5,0-.4.4-.4,1.1,0,1.5,2.2,2,4.5,4.1,6.8,6-2.8,1.5-5.7,2.9-8.6,4.4-.4.2-.6.7-.5,1.2.7.1,1.4.3,2,.4,3.1-1.6,6.3-3.2,9.4-4.8.3-.2.5-.5.5-.8,0-.3,0-.7-.4-.9-2.7-2.3-5.3-4.6-7.9-7Z"/>
      <path class="st4" d="M207.6,458.9c-.4-.4-1.1-.3-1.5.1-.4.4-.3,1.1.1,1.5,2.3,1.9,4.7,3.9,7,5.8-2.8,1.6-5.6,3.2-8.4,4.7-.5.3-.7.9-.4,1.4,0,0,0,.1.1.2.4,0,.9.1,1.3.2,3.3-1.8,6.5-3.6,9.7-5.4.3-.2.5-.5.5-.8,0-.3-.1-.7-.4-.9-2.7-2.2-5.5-4.4-8.2-6.7Z"/>
      <path class="st4" d="M229.5,466.7c-2.8-2.1-5.7-4.2-8.4-6.4-.4-.4-1.1-.3-1.5.2-.4.4-.3,1.1.2,1.5,2.4,1.9,4.8,3.7,7.2,5.5-2.7,1.7-5.4,3.4-8.2,5-.5.3-.7.9-.4,1.4.2.3.5.5.9.5s.4,0,.5-.1c3.2-1.9,6.4-3.8,9.5-5.8.3-.2.5-.5.5-.8,0-.3-.1-.7-.4-.9Z"/>
      <path class="st4" d="M243.4,467.3c-2.9-2-5.8-4-8.6-6.1-.5-.3-1.1-.2-1.4.2-.3.5-.2,1.1.2,1.4,2.4,1.8,4.9,3.5,7.4,5.3-2.6,1.8-5.3,3.6-8,5.3-.5.3-.6.9-.3,1.4.2.3.5.5.9.5s.4,0,.6-.2c3.1-2,6.3-4.1,9.3-6.2.3-.2.5-.5.5-.9,0-.3-.2-.7-.5-.9Z"/>
      <path class="st4" d="M257.2,467.4c-3-1.9-5.9-3.8-8.8-5.8-.5-.3-1.1-.2-1.4.3-.3.5-.2,1.1.3,1.4,2.5,1.7,5.1,3.4,7.6,5-2.6,1.9-5.2,3.8-7.8,5.6-.5.3-.6,1-.3,1.4.2.3.5.4.9.4s.4,0,.6-.2c3.1-2.1,6.1-4.3,9.1-6.5.3-.2.4-.5.4-.9,0-.3-.2-.7-.5-.8Z"/>
      <path class="st4" d="M336.4,432.5c-.2-.7-.4-1.3-.5-2-52.9,12.8-108,13.2-161,.9-.2.7-.4,1.3-.5,2,25.9,6,52.4,9,79.1,9s55.9-3.3,83-9.9Z"/>
      <path class="st4" d="M178.8,442.3c0-.3,0-.7-.3-.9-1.7-1.7-3.3-3.5-4.9-5.2-.2.8-.4,1.6-.6,2.4,1,1.1,2.1,2.2,3.1,3.3-1.5.7-3,1.4-4.6,2.1-.2.9-.5,1.7-.7,2.6,2.5-1.1,5-2.2,7.5-3.4.3-.1.5-.4.6-.8Z"/>
      <path class="st4" d="M180.2,449.9c.2.4.5.6.9.6s.3,0,.4-.1c3.3-1.5,6.5-3.2,9.7-4.8.3-.2.5-.4.6-.8,0-.3,0-.7-.3-.9-2.4-2.4-4.9-4.8-7.3-7.2-.4-.4-1.1-.4-1.5,0-.4.4-.4,1.1,0,1.5,2,2.1,4.1,4.2,6.3,6.2-2.8,1.4-5.6,2.8-8.4,4.1-.5.2-.7.9-.5,1.4Z"/>
      <path class="st4" d="M193.5,452.4c.2.4.5.6.9.6s.3,0,.5-.1c3.2-1.7,6.4-3.4,9.5-5.2.3-.2.5-.5.5-.8,0-.3,0-.7-.3-.9-2.5-2.3-5.1-4.6-7.5-6.9-.4-.4-1.1-.4-1.5,0-.4.4-.4,1.1,0,1.5,2.1,2,4.3,4,6.5,6-2.7,1.5-5.5,3-8.2,4.4-.5.3-.7.9-.4,1.4Z"/>
      <path class="st4" d="M206.8,454.3c.2.3.5.5.9.5s.4,0,.5-.1c3.1-1.8,6.3-3.6,9.3-5.5.3-.2.5-.5.5-.8,0-.3-.1-.7-.4-.9-2.6-2.2-5.2-4.4-7.7-6.6-.4-.4-1.1-.3-1.5,0-.4.4-.3,1.1,0,1.5,2.2,1.9,4.4,3.9,6.7,5.8-2.6,1.6-5.3,3.2-8,4.7-.5.3-.7.9-.4,1.4Z"/>
      <path class="st4" d="M220.2,455.8c.2.3.5.5.9.5s.4,0,.5-.2c3.1-1.9,6.1-3.9,9.1-5.9.3-.2.4-.5.5-.8,0-.3-.1-.7-.4-.9-2.7-2.1-5.4-4.2-8-6.4-.4-.4-1.1-.3-1.5.1-.4.4-.3,1.1.1,1.5,2.3,1.9,4.6,3.7,6.9,5.5-2.6,1.7-5.2,3.4-7.8,5-.5.3-.6.9-.3,1.4Z"/>
      <path class="st4" d="M233.7,456.8c.2.3.5.5.9.5s.4,0,.6-.2c3-2,6-4.1,8.9-6.2.3-.2.4-.5.4-.8,0-.3-.2-.6-.4-.8-2.8-2-5.5-4-8.2-6.1-.5-.3-1.1-.3-1.5.2s-.3,1.1.2,1.5c2.3,1.8,4.7,3.5,7.1,5.3-2.5,1.8-5.1,3.6-7.7,5.3-.5.3-.6,1-.3,1.4Z"/>
      <path class="st4" d="M247.1,457.2c.2.3.5.4.8.4s.4,0,.6-.2c2.9-2.1,5.8-4.3,8.6-6.5.3-.2.4-.5.4-.9,0-.3-.2-.6-.5-.8-2.8-1.9-5.7-3.8-8.4-5.8-.5-.3-1.1-.2-1.4.2-.3.5-.2,1.1.2,1.4,2.4,1.7,4.8,3.4,7.3,5-2.4,1.9-5,3.8-7.5,5.6-.5.3-.6,1-.2,1.4Z"/>
      <path class="st4" d="M182.7,424.5c0-.3,0-.6-.3-.9,0-.1-.2-.2-.3-.3-2.8.5-5.2,2.4-6.3,5,2.1-1,4.2-2,6.3-3.1.3-.1.5-.4.6-.7Z"/>
      <path class="st4" d="M184.8,432.7c.2,0,.3,0,.5-.1,3.1-1.6,6.3-3.2,9.3-4.9.3-.2.5-.4.5-.8,0-.3,0-.6-.3-.9-.2-.2-.5-.5-.7-.7-1.2-.3-2.5-.5-3.7-.8.6.7,1.3,1.3,1.9,2-2.6,1.4-5.3,2.8-8,4.2-.5.3-.7.9-.5,1.4.2.4.5.6.9.6Z"/>
      <path class="st4" d="M197.4,435c.2,0,.3,0,.5-.1,3.1-1.7,6.1-3.5,9.1-5.2.3-.2.5-.5.5-.8,0-.3,0-.6-.3-.9,0,0-.1-.1-.2-.2-1.2-.2-2.4-.4-3.7-.6.5.5,1,.9,1.5,1.4-2.6,1.5-5.2,3-7.9,4.5-.5.3-.7.9-.4,1.4.2.3.5.5.9.5Z"/>
      <path class="st4" d="M210.1,436.8c.2,0,.4,0,.5-.1,3-1.8,6-3.7,8.9-5.6.3-.2.4-.5.5-.8,0-.2,0-.5-.2-.7-1.2-.1-2.4-.3-3.6-.5.4.3.7.6,1.1.9-2.5,1.6-5.1,3.2-7.7,4.8-.5.3-.6.9-.4,1.4.2.3.5.5.9.5Z"/>
      <path class="st4" d="M222.8,438.2c.2,0,.4,0,.6-.2,2.9-1.9,5.8-3.9,8.7-5.9.3-.2.4-.5.4-.8,0-.1,0-.3,0-.4-1.1,0-2.3-.2-3.4-.3.2.2.5.4.7.6-2.5,1.7-5,3.4-7.5,5.1-.5.3-.6,1-.3,1.4.2.3.5.5.9.5Z"/>
      <path class="st4" d="M235.5,439.1c.2,0,.4,0,.6-.2,2.8-2,5.7-4.1,8.4-6.2.3-.2.4-.5.4-.8,0,0,0-.2,0-.2-1.1,0-2.1,0-3.2-.1.2.1.3.2.5.4-2.4,1.8-4.8,3.6-7.3,5.3-.5.3-.6,1-.2,1.4.2.3.5.4.8.4Z"/>
      <path class="st4" d="M248.3,439.5c.2,0,.4,0,.6-.2,2.8-2.1,5.5-4.3,8.2-6.5.3-.2.4-.5.4-.8,0,0,0,0,0-.1-1,0-2,0-3,0,.1,0,.2.2.3.2-2.3,1.9-4.7,3.8-7.1,5.6-.5.3-.5,1-.2,1.5.2.3.5.4.8.4Z"/>
      <path class="st4" d="M271.4,467c-3-1.8-6.1-3.6-9.1-5.4-.5-.3-1.1-.2-1.4.3-.3.5-.2,1.1.3,1.4,2.6,1.6,5.2,3.2,7.8,4.7-2.5,2-5,3.9-7.6,5.9-.5.3-.6,1-.2,1.5.2.3.5.4.8.4s.4,0,.6-.2c3-2.2,5.9-4.5,8.8-6.8.3-.2.4-.5.4-.9,0-.3-.2-.6-.5-.8Z"/>
      <path class="st4" d="M285.2,466.1c-3.1-1.6-6.2-3.4-9.2-5.1-.5-.3-1.1-.1-1.4.4-.3.5-.1,1.1.4,1.4,2.6,1.5,5.3,3,8,4.4-2.4,2.1-4.9,4.1-7.4,6.1-.4.4-.5,1-.2,1.5.2.3.5.4.8.4s.5,0,.7-.2c2.9-2.3,5.8-4.7,8.6-7.2.3-.2.4-.6.4-.9,0-.3-.2-.6-.5-.8Z"/>
      <path class="st4" d="M299,464.7c-3.2-1.5-6.3-3.1-9.4-4.7-.5-.3-1.1,0-1.4.4-.3.5,0,1.1.4,1.4,2.7,1.4,5.4,2.8,8.1,4.1-2.3,2.2-4.7,4.3-7.2,6.4-.4.4-.5,1-.1,1.5.2.2.5.4.8.4s.5,0,.7-.3c2.8-2.4,5.6-5,8.3-7.5.3-.2.4-.6.3-.9,0-.3-.3-.6-.6-.8Z"/>
      <path class="st4" d="M312.7,462.8c-3.2-1.4-6.5-2.9-9.6-4.4-.5-.2-1.1,0-1.4.5-.2.5,0,1.1.5,1.4,2.7,1.3,5.5,2.6,8.3,3.8-2.3,2.2-4.6,4.5-6.9,6.7-.4.4-.4,1,0,1.5.2.2.5.3.8.3s.5,0,.7-.3c2.7-2.5,5.4-5.2,8-7.8.2-.2.3-.6.3-.9,0-.3-.3-.6-.6-.8Z"/>
      <path class="st4" d="M326.4,460.3c-3.3-1.3-6.6-2.6-9.8-4-.5-.2-1.1,0-1.4.5-.2.5,0,1.1.5,1.4,2.8,1.2,5.6,2.4,8.4,3.5-2.2,2.3-4.4,4.6-6.7,6.9-.4.4-.4,1.1,0,1.5.2.2.5.3.7.3s.5-.1.7-.3c2.6-2.6,5.2-5.4,7.8-8.1.2-.3.3-.6.3-.9,0-.3-.3-.6-.6-.7Z"/>
      <path class="st4" d="M340,457.4c-3.3-1.2-6.7-2.4-9.9-3.7-.5-.2-1.1,0-1.3.6-.2.5,0,1.1.6,1.3,2.8,1.1,5.7,2.2,8.6,3.2-2.1,2.4-4.3,4.8-6.4,7.2-.4.4-.4,1.1,0,1.5.1,0,.2.2.4.2.4,0,.7-.2,1.1-.3,0,0,0,0,0,0,2.5-2.7,5-5.5,7.5-8.4.2-.3.3-.6.2-.9,0-.3-.3-.6-.7-.7Z"/>
      <path class="st4" d="M260.9,457.2c.2.3.5.4.8.4s.5,0,.6-.2c2.8-2.2,5.7-4.5,8.4-6.8.3-.2.4-.5.4-.9,0-.3-.2-.6-.5-.8-2.9-1.8-5.8-3.6-8.6-5.4-.5-.3-1.1-.2-1.4.3-.3.5-.2,1.1.3,1.4,2.4,1.6,4.9,3.2,7.4,4.7-2.4,2-4.8,3.9-7.2,5.9-.4.4-.5,1-.2,1.5Z"/>
      <path class="st4" d="M274.4,456.7c.2.2.5.4.8.4s.5,0,.7-.2c2.7-2.3,5.5-4.7,8.1-7.1.2-.2.4-.6.3-.9s-.2-.6-.5-.8c-3-1.7-5.9-3.4-8.8-5.1-.5-.3-1.1-.1-1.4.4-.3.5-.1,1.1.4,1.4,2.5,1.5,5.1,3,7.6,4.4-2.3,2.1-4.7,4.1-7,6.1-.4.4-.5,1-.1,1.5Z"/>
      <path class="st4" d="M287.8,455.7c.2.2.5.3.8.3s.5,0,.7-.3c2.7-2.4,5.3-4.9,7.9-7.4.2-.2.4-.6.3-.9,0-.3-.3-.6-.6-.8-3-1.5-6.1-3.2-9-4.8-.5-.3-1.1,0-1.4.4-.3.5,0,1.1.4,1.4,2.6,1.4,5.2,2.8,7.8,4.2-2.2,2.1-4.5,4.3-6.8,6.4-.4.4-.5,1,0,1.5Z"/>
      <path class="st4" d="M301.2,452.7c-.4.4-.4,1.1,0,1.5.2.2.5.3.7.3s.5,0,.7-.3c2.6-2.5,5.1-5.1,7.6-7.7.2-.2.3-.6.3-.9,0-.3-.3-.6-.6-.7-3.1-1.4-6.2-2.9-9.2-4.5-.5-.3-1.1,0-1.4.5s0,1.1.5,1.4c2.6,1.3,5.3,2.6,7.9,3.9-2.1,2.2-4.4,4.5-6.6,6.6Z"/>
      <path class="st4" d="M314.5,452.2c.2.2.5.3.7.3s.5-.1.8-.3c2.5-2.6,5-5.3,7.3-8,.2-.2.3-.6.2-.9,0-.3-.3-.6-.6-.7-3.1-1.3-6.3-2.7-9.4-4.1-.5-.2-1.1,0-1.4.5-.2.5,0,1.1.5,1.4,2.7,1.2,5.4,2.4,8.1,3.6-2.1,2.3-4.2,4.6-6.3,6.9-.4.4-.4,1.1,0,1.5Z"/>
      <path class="st4" d="M335.9,439.7c-3.2-1.2-6.4-2.5-9.5-3.8-.5-.2-1.1,0-1.4.6-.2.5,0,1.1.6,1.4,2.7,1.1,5.5,2.2,8.2,3.3-2,2.4-4,4.8-6.1,7.1-.4.4-.3,1.1,0,1.5.2.2.4.3.7.3s.6-.1.8-.4c2.4-2.7,4.8-5.5,7.1-8.3.2-.3.3-.6.2-.9,0-.3-.3-.6-.6-.7Z"/>
      <path class="st4" d="M261.4,439.4c.2,0,.5,0,.7-.2,2.7-2.2,5.4-4.5,8-6.8.2-.2.4-.5.3-.9,0,0,0,0,0-.1-1,0-2,0-3,.1,0,0,.2.1.3.2-2.3,2-4.6,4-6.9,5.9-.4.4-.5,1-.1,1.5.2.2.5.4.8.4Z"/>
      <path class="st4" d="M274.1,438.9c.2,0,.5,0,.7-.3,2.6-2.3,5.2-4.7,7.7-7.1.2-.2.4-.5.3-.9,0,0,0,0,0-.1-1,0-2,.2-3,.3.1,0,.2.1.3.2-2.2,2.1-4.4,4.1-6.7,6.1-.4.4-.5,1,0,1.5.2.2.5.3.8.3Z"/>
      <path class="st4" d="M286.9,437.9c.3,0,.5,0,.7-.3,2.5-2.4,5-4.9,7.5-7.4.2-.2.3-.6.3-.9,0,0,0-.2-.1-.3-1,.1-2.1.3-3.1.4.2,0,.3.2.5.3-2.1,2.1-4.3,4.3-6.4,6.4-.4.4-.4,1.1,0,1.5.2.2.5.3.7.3Z"/>
      <path class="st4" d="M299.6,436.4c.3,0,.5-.1.7-.3,2.4-2.5,4.8-5.1,7.2-7.7.2-.2.3-.6.3-.9,0-.2,0-.3-.2-.4-1.1.2-2.2.4-3.3.6.2.1.5.3.7.4-2,2.2-4.1,4.4-6.2,6.6-.4.4-.4,1.1,0,1.5.2.2.5.3.7.3Z"/>
      <path class="st4" d="M312.3,434.5c.3,0,.6-.1.8-.3,2.3-2.6,4.7-5.3,6.9-7.9.2-.2.3-.6.2-.9,0-.3-.2-.5-.5-.6-1.1.2-2.2.5-3.3.7.4.2.7.3,1.1.5-2,2.3-4,4.6-6,6.8-.4.4-.3,1.1,0,1.5.2.2.4.3.7.3Z"/>
      <path class="st4" d="M324.9,432.1c.3,0,.6-.1.8-.4,2-2.4,4-4.9,6-7.3-.6-.4-1.3-.6-2-.8-1.8,2.3-3.7,4.6-5.6,6.9-.4.4-.3,1.1.1,1.5.2.2.4.2.7.2Z"/>
    </g>
    <g>
      <g>
        <path class="st11" d="M208.3,215.9c-.7-2.8-3.4-4.6-6.3-4.1-3,.5-5,3.4-4.5,6.4.4,2.5.4,6.2-4.8,10.2-1.4,1-2.8,1.9-4.1,2.5-3-6.8-4.6-14.6-3.3-23.1.5-3-1.6-5.8-4.6-6.3-3-.5-5.8,1.6-6.3,4.6-1.4,9.2-.4,18.3,3.2,27.2,2.8,6.9,7.1,13.7,12.8,20.1,1.4,1.6,2.9,3.1,4.3,4.5,3.5-1.7,7.4-3.2,11.5-4.5-3.8-3.3-8.2-7.7-11.9-12.9,1.5-.8,3.2-1.8,4.9-3,3.2-2.4,5.7-5.1,7.3-8.1,2.2-4,2.8-8.4,2-13,0-.1,0-.3,0-.4Z"/>
        <path class="st11" d="M298.7,192.6c-1.1-2.8-4.3-4.3-7.2-3.1-2.8,1.1-4.3,4.3-3.1,7.2,3.1,8,3.2,16,1.7,23.3-1.4-.3-3-.8-4.5-1.6-5.9-2.7-6.8-6.4-6.9-8.9-.1-3.1-2.7-5.4-5.8-5.3-2.9.1-5.2,2.5-5.3,5.4,0,.1,0,.3,0,.4.2,4.7,1.8,8.8,4.8,12.2,2.2,2.6,5.2,4.7,8.9,6.4,1.9.9,3.8,1.5,5.4,1.9-2.6,5.9-5.9,11.1-8.9,15.1,4.2.4,8.3,1.1,12.1,1.9,1.1-1.7,2.2-3.4,3.2-5.3,4.2-7.5,6.9-15,8.2-22.4,1.6-9.4.7-18.6-2.7-27.2Z"/>
      </g>
      <path class="st9" d="M361.6,354c-.3-11.2-2.6-22.6-6.3-32.7-1.1-2.9-2.2-5.7-3.5-8.4-5-10.4-11.3-21.7-18.8-31.9,37.2-16.5,28.4-66.4,24.1-60.7-4.7,6.2-21.7,8.7-37.5,13.6-7.6,2.3-11.5,11.4-13.5,20.2-1.5-1-3-1.8-4.6-2.6-3.3-1.7-7.2-3-11.5-3.9-3.8-.9-7.9-1.5-12.1-1.9-12.2-1.2-25.1-.8-34.1.2h0c-.7,0-1.4.2-2.1.3-.7,0-1.4.1-2.1.2h0c-9,1-21.8,3.4-33.4,7.2-4,1.3-7.9,2.8-11.5,4.5-4,1.9-7.6,4-10.4,6.3-1.3,1.1-2.6,2.3-3.9,3.5-3.8-8.2-9.6-16.2-17.5-16.8-16.5-1.3-33.7-.1-39.6-5.2-5.5-4.7-3.3,46,36.6,54.1-5,11.6-8.9,24-11.5,35.2-.7,2.9-1.2,5.9-1.6,8.9-1.4,10.7-1.2,22.4.9,33.3,2.6,14,8.3,27,17.4,35.6,21.4,26,60.3,35.7,98.2,31.2,37.9-3.7,73.8-21.5,89.2-51.5,7-10.4,9.7-24.3,9.3-38.5Z"/>
    </g>
    <path class="st6" d="M310.4,272.9s-.3-27.3,12.3-31.1c12.6-3.8,26.1-5.8,29.8-10.8,3.7-4.9,11.6,42-27.2,50.9l-15-9Z"/>
    <path class="st6" d="M180.2,287.1s-5.6-26.7-18.7-27.7c-13.1-1-26.8-.1-31.4-4.1-4.7-4-2.3,43.5,37.4,43.9l12.7-12Z"/>
    <path class="st6" d="M361.6,354c.4,14.3-2.3,28.1-9.3,38.5-15.4,30-51.3,47.8-89.2,51.5-37.8,4.6-76.7-5.2-98.2-31.2-9.1-8.7-14.7-21.6-17.4-35.6-.2-6,0-11.9.8-17.6v-.2s10.3-60,67.1-39.3c14.5,5.3,23,15.8,28.4,65l25.3-2.7c-5.3-49.2.7-61.3,13.8-69.6,51-32.4,74,24,74,24v.2c2,5.4,3.6,11.1,4.7,17Z"/>
    <g>
      <path class="st0" d="M275,381.8c.6,5.8-6,17.5-16.2,18.6-10.2,1.1-20.1-8.8-20.7-14.6-.6-5.8,8-6.8,18.2-7.9,10.2-1.1,18-1.9,18.7,3.9Z"/>
      <path class="st10" d="M259.3,384.5c.2,1.5-1.9,2.9-4.6,3.2s-5-.7-5.2-2.1c-.2-1.5,1.9-2.9,4.6-3.2,2.7-.3,5,.7,5.2,2.1Z"/>
    </g>
    <path class="st0" d="M259.5,411.6c-4,.4-7.9-1.3-10.2-4.6-.3-.4-.2-1,.2-1.3.4-.3,1-.2,1.3.2,2,2.7,5.2,4.2,8.6,3.8,3.4-.4,6.2-2.4,7.5-5.5.2-.5.7-.7,1.2-.5.5.2.7.7.5,1.2-1.6,3.7-5,6.2-9,6.6Z"/>
    <g>
      <path class="st3" d="M192.8,400.6c.6,5.4-4.8,10.5-12.1,11.2-7.3.8-13.6-3-14.2-8.4s4.8-10.5,12.1-11.2c7.3-.8,13.6,3,14.2,8.4Z"/>
      <path class="st3" d="M348.7,383.7c.6,5.4-4.8,10.5-12.1,11.2-7.3.8-13.6-3-14.2-8.4-.6-5.4,4.8-10.5,12.1-11.2,7.3-.8,13.6,3,14.2,8.4Z"/>
    </g>
    <path class="st7" d="M269.9,285.2c.5,4.6-4.4,10.4-9,10.9-4.6.5-7.1-4.5-7.6-9.1-.5-4.6,2.8-8.7,7.4-9.2,4.6-.5,8.7,2.8,9.2,7.4Z"/>
    <path class="st7" d="M247.4,267.8c2.3,2.8,1.6,8.8-1.3,11.2-2.8,2.3-6.7,0-9-2.8-2.3-2.8-1.9-7,1-9.3,2.8-2.3,7-1.9,9.3,1Z"/>
    <path class="st7" d="M238,287.7c1.7,2.1.7,6.9-1.8,9-2.5,2-5.6.5-7.3-1.6-1.7-2.1-1.1-5.5,1.5-7.5,2.5-2,5.9-2,7.6.1Z"/>
    <path class="st7" d="M222.9,274.1c.2,2.2-1.4,4.2-3.6,4.5-2.2.2-4.2-1.4-4.5-3.6-.2-2.2,1.4-4.2,3.6-4.5,2.2-.2,4.2,1.4,4.5,3.6Z"/>
    <path class="st7" d="M275.2,265.1c.2,1.8-1.1,3.5-2.9,3.7-1.8.2-3.5-1.1-3.7-2.9-.2-1.8,1.1-3.5,2.9-3.7s3.5,1.1,3.7,2.9Z"/>
    <path class="st7" d="M245.3,255.4c.1,1.3-.8,2.6-2.2,2.7s-2.6-.8-2.7-2.2.8-2.6,2.2-2.7c1.3-.1,2.6.8,2.7,2.2Z"/>
    <g>
      <path class="st8" d="M221.2,366.6c.8,7.2-4.4,13.6-11.6,14.4-7.2.8-13.6-4.4-14.4-11.6-.8-7.2,4.4-13.6,11.6-14.4,7.2-.8,13.6,4.4,14.4,11.6Z"/>
      <path class="st7" d="M216,362.9c.2,2.3-1.4,4.3-3.7,4.6-2.3.2-4.3-1.4-4.6-3.7s1.4-4.3,3.7-4.6c2.3-.2,4.3,1.4,4.6,3.7Z"/>
      <path class="st8" d="M312.7,356.6c.8,7.2-4.4,13.6-11.6,14.4-7.2.8-13.6-4.4-14.4-11.6-.8-7.2,4.4-13.6,11.6-14.4,7.2-.8,13.6,4.4,14.4,11.6Z"/>
      <path class="st7" d="M307.5,353c.2,2.3-1.4,4.3-3.7,4.6-2.3.2-4.3-1.4-4.6-3.7-.2-2.3,1.4-4.3,3.7-4.6,2.3-.2,4.3,1.4,4.6,3.7Z"/>
    </g>
    <g>
      <path class="st9" d="M356.7,428.9c7,6.5,7.6,17.3,1.4,24.5-3.4,4-6.8,7.8-8.9,9.9-7.1,7.1-13.9,12.6-19.8,16.9-6.8,4.9-12.4,8.2-16,10.1-2.5,1.3-5.7.5-7.2-1.9l-13.7-21.8c-1.9-3-.5-6.9,2.8-8.1,4.1-1.5,8.1-3.7,12.1-6.4,8.3-5.6,16.4-13.4,24-21.9,6.6-7.5,18.1-8.1,25.4-1.3h0Z"/>
      <path class="st1" d="M329.3,480.3c-7.7,5.6-13.9,9-17.4,10.8-1.8.9-4,.3-5.1-1.4l-15.6-24.7c-1.4-2.2-.3-5,2.1-5.8,4.6-1.5,9.3-3.9,13.9-7,4.6,7.2,13.1,19.4,22.1,28.1Z"/>
    </g>
    <g>
      <path class="st9" d="M157.8,442.9c-5.7,7.6-4.5,18.3,2.9,24.4,4,3.3,8.1,6.5,10.5,8.2,8.2,5.7,15.9,10.1,22.4,13.3,7.5,3.7,13.6,5.9,17.5,7.2,2.7.9,5.7-.5,6.8-3.1l9.8-23.8c1.3-3.3-.7-6.9-4.1-7.5-4.3-.8-8.6-2.2-13.1-4.2-9.1-4.1-18.5-10.4-27.4-17.5-7.8-6.3-19.2-4.9-25.3,3.1h0Z"/>
      <path class="st1" d="M193.5,488.8c8.5,4.2,15.2,6.5,19,7.7,1.9.6,4-.4,4.7-2.3l11.1-27c1-2.4-.5-5-3.1-5.4-4.8-.7-9.8-2.3-14.9-4.5-3.3,7.9-9.6,21.4-16.9,31.5Z"/>
    </g>
  </g>
  <g id="number">
    <path class="st0" d="M269,97.4v.4c3.3,2.2,5.9,8,5.9,15,0,22.3-25.4,43-56.9,43s-35.1-11.2-35.1-26.3,13.2-24.7,23.3-24.7,14.6,6.4,14.6,13.7-5.9,14.3-13.7,14.3-11.2-5.2-11.2-10,.3-1.9.3-2.7-.1-1.2-.6-1.2c-.9,0-2.2,2.2-2.2,5.2,0,8.6,5.8,15.5,18.4,15.5s36.4-11.3,36.4-26.9-6.2-13.5-17.1-13.5-3,.1-3.9.1-1.3-.7-1.3-2.2,1.9-6.7,4.3-6.7h5.5c25.3,0,37.8-14.1,37.8-26s-6.4-15.5-18.9-15.5c-18.4,0-27.7,16.9-27.7,21.9s.4,1.2,1.2,1.2c7.3,0,16.7-17.5,17.4-17.5s4.8,2.7,4.8,6.2c0,7-17.2,23.8-28,23.8s-10-4.2-10-11.2c0-14.4,18-34.5,44-34.5s39.5,10.4,39.5,28.5-21.6,28.8-27.1,30Z"/>
  </g>
</svg>