<?xml version="1.0" encoding="UTF-8"?>
<svg id="window" xmlns="http://www.w3.org/2000/svg" version="1.1" viewBox="0 0 500 500">
  <!-- Generator: Adobe Illustrator 29.0.1, SVG Export Plug-In . SVG Version: 2.1.0 Build 192)  -->
  <defs>
    <style>
      .st0 {
        fill: #d32d27;
      }

      .st1 {
        fill: #010101;
      }

      .st2 {
        fill: #2e944c;
      }

      .st3 {
        fill: #003a50;
      }

      .st4 {
        fill: #ddc02e;
      }

      .st5 {
        fill: #edd542;
      }

      .st6 {
        fill: #fff;
      }

      .st7 {
        fill: #e84225;
      }

      .st8 {
        fill: #e6bfa6;
      }

      .st9 {
        fill: #238541;
      }

      .st10 {
        fill: #f5e3bf;
      }
    </style>
  </defs>
  <g>
    <path d="M5788,5122.3c-13.6,3.7-24.8,10-24.8,12.4s.2.7.8.7,4.4-3.4,12.6-3.4,18,3.4,24.3,3.4,8.3-4.2,8.7-4.2.5.2.5.9c0,4.1-8.5,19-19.8,19s-16.1-7-22.9-7-9.9,6.7-11.4,7.5c-1,.4-2.3.5-3.7.5-2.1,0-4.4-.4-5-1-.9-.8-1.9-1.8-1.9-4.1,0-11,17.3-20.5,32.7-30.1,13.5-8.4,27.7-17.1,27.7-30.4s-4-8-10.5-8c-11.1,0-23,12-23,20.8s.7,2.7,2.3,2.7c7.6,0,13.9-16.3,14.5-16.3s.6,0,.6.6v.3c0,14.2-7.7,25-18.5,25s-10.2-3.3-10.2-11c0-11,15.8-29,37.4-29s21.8,6.3,21.8,17.5c0,18.1-18,29.5-32.1,33.4Z"/>
    <path d="M5855.7,5122.3c-13.6,3.7-24.8,10-24.8,12.4s.2.7.8.7,4.4-3.4,12.6-3.4,18,3.4,24.3,3.4,8.3-4.2,8.7-4.2.5.2.5.9c0,4.1-8.5,19-19.8,19s-16.1-7-22.9-7-9.9,6.7-11.4,7.5c-1,.4-2.3.5-3.7.5-2.1,0-4.4-.4-5-1-.9-.8-1.9-1.8-1.9-4.1,0-11,17.3-20.5,32.7-30.1,13.5-8.4,27.7-17.1,27.7-30.4s-4-8-10.5-8c-11.1,0-23,12-23,20.8s.7,2.7,2.3,2.7c7.6,0,13.9-16.3,14.5-16.3s.6,0,.6.6v.3c0,14.2-7.7,25-18.5,25s-10.2-3.3-10.2-11c0-11,15.8-29,37.4-29s21.8,6.3,21.8,17.5c0,18.1-18,29.5-32.1,33.4Z"/>
  </g>
  <g id="color">
    <rect class="st3" x="83.9" y="13.2" width="333.9" height="465.1"/>
  </g>
  <g id="stringfour">
    <rect class="st1" x="346.2" y="18.3" width="3" height="200.8" transform="translate(-.6 1.8) rotate(-.3)"/>
    <g>
      <circle class="st8" cx="347.3" cy="107.7" r="19"/>
      <circle class="st10" cx="348.2" cy="104.9" r="15.1"/>
      <path class="st6" d="M347.2,96.8c.2,2.2,2.2,3.7,4.4,3.5,2.2-.2,3.7-2.2,3.5-4.4-.2-2.2-2.2-3.7-4.4-3.5-2.2.2-3.7,2.2-3.5,4.4Z"/>
    </g>
    <g>
      <path class="st9" d="M328.4,57.6c1.2,10.4,10.6,17.9,21,16.8,10.4-1.2,17.9-10.6,16.8-21-1.2-10.4-10.6-17.9-21-16.8-10.4,1.2-17.9,10.6-16.8,21Z"/>
      <circle class="st2" cx="348.2" cy="52.4" r="15.1"/>
      <path class="st6" d="M347.2,44.7c.2,2.2,2.2,3.7,4.4,3.5,2.2-.2,3.7-2.2,3.5-4.4s-2.2-3.7-4.4-3.5-3.7,2.2-3.5,4.4Z"/>
    </g>
    <g>
      <circle class="st0" cx="347.4" cy="162.9" r="19.1"/>
      <path class="st7" d="M333,161.5c.9,8.3,8.4,14.3,16.7,13.4,8.3-.9,14.3-8.4,13.4-16.7s-8.4-14.3-16.7-13.4-14.3,8.4-13.4,16.7Z"/>
      <path class="st6" d="M347.2,152c.2,2.2,2.2,3.7,4.4,3.5,2.2-.2,3.7-2.2,3.5-4.4s-2.2-3.7-4.4-3.5c-2.2.2-3.7,2.2-3.5,4.4Z"/>
    </g>
    <g>
      <circle class="st4" cx="347" cy="222.2" r="19.1"/>
      <path class="st5" d="M333,221.1c.9,8.3,8.4,14.3,16.7,13.4,8.3-.9,14.3-8.4,13.4-16.7s-8.4-14.3-16.7-13.4c-8.3.9-14.3,8.4-13.4,16.7Z"/>
      <path class="st6" d="M347.2,211.6c.2,2.2,2.2,3.7,4.4,3.5,2.2-.2,3.7-2.2,3.5-4.4s-2.2-3.7-4.4-3.5c-2.2.2-3.7,2.2-3.5,4.4Z"/>
    </g>
  </g>
  <g id="stringthree">
    <polygon class="st1" points="277.2 156.4 276.3 26.1 279.3 26.1 280.2 156.3 277.2 156.4"/>
    <g>
      <circle class="st0" cx="278.1" cy="137.9" r="19"/>
      <circle class="st7" cx="279.1" cy="135" r="15.1"/>
      <path class="st6" d="M278.2,126.9c.2,2.2,2.2,3.7,4.4,3.5,2.2-.2,3.7-2.2,3.5-4.4-.2-2.2-2.2-3.7-4.4-3.5-2.2.2-3.7,2.2-3.5,4.4Z"/>
    </g>
    <g>
      <circle class="st8" cx="278.2" cy="66.9" r="19"/>
      <circle class="st10" cx="279" cy="63.6" r="15.1"/>
      <path class="st6" d="M278.2,56c.2,2.2,2.2,3.7,4.4,3.5,2.2-.2,3.7-2.2,3.5-4.4s-2.2-3.7-4.4-3.5c-2.2.2-3.7,2.2-3.5,4.4Z"/>
    </g>
  </g>
  <g id="stringtwo">
    <polygon class="st1" points="217.8 265.5 216.9 22.7 219.9 22.6 220.8 265.5 217.8 265.5"/>
    <g>
      <circle class="st9" cx="218.7" cy="166.8" r="19"/>
      <path class="st2" d="M204.7,165.6c.9,8.3,8.4,14.2,16.7,13.3s14.2-8.4,13.3-16.7-8.4-14.2-16.7-13.3-14.2,8.4-13.3,16.7Z"/>
      <path class="st6" d="M218.8,156.1c.2,2.2,2.2,3.7,4.4,3.5s3.7-2.2,3.5-4.4-2.2-3.7-4.4-3.5-3.7,2.2-3.5,4.4Z"/>
    </g>
    <g>
      <circle class="st0" cx="219" cy="80.7" r="19"/>
      <path class="st7" d="M204.7,79.5c.9,8.3,8.4,14.2,16.7,13.3,8.3-.9,14.2-8.4,13.3-16.7-.9-8.3-8.4-14.2-16.7-13.3s-14.2,8.4-13.3,16.7Z"/>
      <path class="st6" d="M218.8,70.1c.2,2.2,2.2,3.7,4.4,3.5s3.7-2.2,3.5-4.4c-.2-2.2-2.2-3.7-4.4-3.5s-3.7,2.2-3.5,4.4Z"/>
    </g>
    <g>
      <circle class="st4" cx="218.8" cy="246" r="19" transform="translate(-50.1 436) rotate(-83.6)"/>
      <path class="st5" d="M204.7,244.8c.9,8.3,8.4,14.2,16.7,13.3s14.2-8.4,13.3-16.7-8.4-14.2-16.7-13.3-14.2,8.4-13.3,16.7Z"/>
      <path class="st6" d="M218.8,235.4c.2,2.2,2.2,3.7,4.4,3.5s3.7-2.2,3.5-4.4-2.2-3.7-4.4-3.5-3.7,2.2-3.5,4.4Z"/>
    </g>
  </g>
  <g id="stringone">
    <polygon class="st1" points="148.3 269 147.4 26.1 150.5 26.1 151.4 269 148.3 269"/>
    <g>
      <circle class="st8" cx="149.3" cy="109.7" r="19"/>
      <circle class="st10" cx="150.3" cy="106.8" r="15.1" transform="translate(21.8 239) rotate(-81.2)"/>
      <path class="st6" d="M149.3,99c.2,2.2,2.2,3.7,4.4,3.5s3.7-2.2,3.5-4.4c-.2-2.2-2.2-3.7-4.4-3.5s-3.7,2.2-3.5,4.4Z"/>
    </g>
    <g>
      <circle class="st4" cx="149.4" cy="61.5" r="19"/>
      <circle class="st5" cx="150.2" cy="58.4" r="15.1"/>
      <path class="st6" d="M149.3,50.7c.2,2.2,2.2,3.7,4.4,3.5s3.7-2.2,3.5-4.4-2.2-3.7-4.4-3.5-3.7,2.2-3.5,4.4Z"/>
    </g>
    <g>
      <circle class="st0" cx="149.3" cy="224.5" r="19"/>
      <circle class="st7" cx="150.2" cy="221.3" r="15.1"/>
      <path class="st6" d="M149.3,213.7c.2,2.2,2.2,3.7,4.4,3.5s3.7-2.2,3.5-4.4-2.2-3.7-4.4-3.5-3.7,2.2-3.5,4.4Z"/>
    </g>
    <g>
      <circle class="st9" cx="149.4" cy="278.8" r="19"/>
      <circle class="st2" cx="150.2" cy="276" r="15.1"/>
      <path class="st6" d="M149.3,268.1c.2,2.2,2.2,3.7,4.4,3.5s3.7-2.2,3.5-4.4c-.2-2.2-2.2-3.7-4.4-3.5s-3.7,2.2-3.5,4.4Z"/>
    </g>
  </g>
  <path id="frame" class="st6" d="M430.1,455.9V0H69.9v455.9h-10.6v44.2h381.5v-44.2h-10.7ZM96.3,26.4h307.4v429.5H96.3V26.4Z"/>
  <g id="number">
    <path class="st6" d="M177.6,394.4c-12.5,3.4-22.8,9.2-22.8,11.3s.2.7.8.7,4-3.1,11.5-3.1,16.5,3.1,22.3,3.1,7.6-3.8,8-3.8.5.2.5.8c0,3.7-7.8,17.4-18.2,17.4s-14.8-6.5-21-6.5-9.1,6.2-10.5,6.8c-.9.4-2.2.5-3.4.5-2,0-4-.4-4.6-.9-.8-.7-1.8-1.7-1.8-3.7,0-10.1,15.8-18.8,30-27.6,12.4-7.7,25.4-15.7,25.4-27.9s-3.7-7.3-9.7-7.3c-10.2,0-21.1,11-21.1,19.1s.7,2.4,2.2,2.4c6.9,0,12.7-15,13.3-15s.6,0,.6.6v.3c0,13-7,23-17,23s-9.4-3-9.4-10.1c0-10.1,14.5-26.6,34.3-26.6s20,5.8,20,16c0,16.6-16.5,27.1-29.4,30.6Z"/>
    <path class="st6" d="M239.7,394.4c-12.5,3.4-22.8,9.2-22.8,11.3s.2.7.8.7,4-3.1,11.5-3.1,16.5,3.1,22.3,3.1,7.6-3.8,8-3.8.5.2.5.8c0,3.7-7.8,17.4-18.2,17.4s-14.8-6.5-21-6.5-9.1,6.2-10.5,6.8c-.9.4-2.2.5-3.4.5-2,0-4-.4-4.6-.9-.8-.7-1.8-1.7-1.8-3.7,0-10.1,15.8-18.8,30-27.6,12.4-7.7,25.4-15.7,25.4-27.9s-3.7-7.3-9.7-7.3c-10.2,0-21.1,11-21.1,19.1s.7,2.4,2.2,2.4c6.9,0,12.7-15,13.3-15s.6,0,.6.6v.3c0,13-7,23-17,23s-9.4-3-9.4-10.1c0-10.1,14.5-26.6,34.3-26.6s20,5.8,20,16c0,16.6-16.5,27.1-29.4,30.6Z"/>
  </g>
</svg>