<?xml version="1.0" encoding="UTF-8"?>
<svg id="Layer_3" xmlns="http://www.w3.org/2000/svg" version="1.1" viewBox="0 0 500 500">
  <!-- Generator: Adobe Illustrator 29.0.1, SVG Export Plug-In . SVG Version: 2.1.0 Build 192)  -->
  <defs>
    <style>
      .st0 {
        fill: #e7bfa6;
      }

      .st1 {
        fill: #043a1a;
      }

      .st2 {
        fill: #1c663d;
      }

      .st3 {
        fill: #084922;
      }

      .st4 {
        fill: #f12026;
      }

      .st5 {
        fill: #fff;
      }

      .st6 {
        fill: #d32816;
      }

      .st7 {
        fill: #ef4735;
      }

      .st8 {
        fill: #f5e3bf;
      }

      .st9 {
        fill: #edd443;
      }

      .st10 {
        fill: #e93e22;
      }

      .st11 {
        fill: #cc1220;
      }
    </style>
  </defs>
  <g id="dark">
    <g>
      <path d="M190.9,124h58.8V25.6h0c0,0-.1,0-.2,0-.4,0-.8,0-1.2,0-.5,0-.9,0-1.4.1-.4,0-.8,0-1.2.1-.5,0-.9,0-1.4.2-.4,0-.8,0-1.2.1-.5,0-.9.1-1.4.2-.4,0-.8.1-1.1.2-.5,0-.9.1-1.4.2-.4,0-.7.1-1.1.2-.5,0-1,.2-1.4.3-.3,0-.7.1-1,.2-.5.1-1,.2-1.5.3-.3,0-.6.1-1,.2-.5.1-1.1.3-1.6.4-.3,0-.5.1-.8.2-.7.2-1.5.4-2.2.6,0,0-.2,0-.3,0-.8.2-1.6.5-2.4.7-.2,0-.4.1-.5.2-.6.2-1.2.4-1.8.6-.3,0-.5.2-.8.3-.5.2-1.1.4-1.6.5-.3.1-.6.2-.9.3-.5.2-1,.4-1.5.5-.3.1-.6.2-.9.4-.5.2-1,.4-1.4.6-.3.1-.6.3-.9.4-.5.2-.9.4-1.4.6-.3.1-.6.3-.9.4-.5.2-.9.4-1.4.6-.3.1-.6.3-.9.4-.5.2-1,.5-1.4.7-.3.1-.6.3-.8.4-.5.3-1,.5-1.5.8-.2.1-.5.2-.7.4-.6.3-1.2.7-1.8,1-.1,0-.3.1-.4.2-.7.4-1.5.9-2.2,1.3,0,0,0,0-.1,0-.7.4-1.3.8-2,1.2-.2.1-.4.3-.6.4-.5.3-1,.7-1.5,1-.2.2-.5.3-.7.5-.5.3-.9.6-1.4.9-.3.2-.5.4-.8.5-.4.3-.9.6-1.3.9-.3.2-.5.4-.8.6-.4.3-.8.6-1.3,1-.3.2-.5.4-.8.6-.4.3-.8.7-1.2,1-.3.2-.5.4-.8.6-.4.3-.8.7-1.3,1.1-.2.2-.5.4-.7.6-.4.4-.9.8-1.3,1.2-.2.2-.4.4-.6.5-.5.4-1,.9-1.5,1.4-.1.1-.3.3-.4.4-.6.6-1.3,1.2-1.9,1.8-.6.6-1.2,1.2-1.8,1.9-.1.1-.3.3-.4.4-.5.5-.9,1-1.3,1.4-.2.2-.4.4-.6.6-.4.4-.8.9-1.1,1.3-.2.2-.4.5-.6.7-.4.4-.7.8-1.1,1.3-.2.2-.4.5-.6.7-.3.4-.7.8-1,1.3-.2.2-.4.5-.6.7-.3.4-.7.9-1,1.3-.2.2-.4.5-.5.7-.3.5-.7.9-1,1.4-.1.2-.3.4-.4.6-.4.6-.8,1.2-1.2,1.7,0,.1-.2.2-.2.3-.5.7-.9,1.4-1.4,2.1,0,0-.1.2-.2.3-.4.6-.8,1.2-1.1,1.9-.1.2-.3.5-.4.7-.3.5-.6,1-.9,1.5-.2.3-.3.5-.5.8-.3.5-.5.9-.8,1.4-.2.3-.3.6-.5.9-.2.4-.5.9-.7,1.3-.2.3-.3.6-.5.9-.2.4-.4.9-.6,1.3-.1.3-.3.6-.4.9-.2.5-.4.9-.6,1.4-.1.3-.3.6-.4.9-.2.5-.4,1-.6,1.4-.1.3-.2.6-.4.9-.2.6-.5,1.2-.7,1.8,0,.2-.2.4-.2.6-.3.7-.6,1.5-.8,2.2-.1.3-.2.6-.3,1-.2.5-.3.9-.5,1.4-.1.4-.2.7-.4,1.1-.1.4-.3.8-.4,1.2-.1.4-.2.8-.4,1.2-.1.4-.2.8-.3,1.2-.1.4-.2.8-.3,1.2-.1.4-.2.8-.3,1.1-.1.4-.2.9-.3,1.3,0,.4-.2.7-.3,1.1-.1.4-.2.9-.3,1.3,0,.3-.1.7-.2,1,0,.5-.2.9-.3,1.4,0,.3-.1.6-.2.9-.4,2-.7,4-.9,6,0,.1,0,.2,0,.3,0,.6-.1,1.2-.2,1.8,0,.2,0,.4,0,.6,0,.6-.1,1.2-.2,1.8,0,.2,0,.3,0,.5h40.9Z"/>
      <polygon points="323.6 139.1 314.3 139.1 264.7 139.1 264.7 146.1 264.7 221.6 264.7 249.8 264.7 270.3 264.7 336.7 364.8 336.7 364.8 245.4 364.8 230.3 364.8 139.1 323.6 139.1"/>
      <polygon points="190.9 139.1 149.8 139.1 149.6 139.1 149.6 230.3 149.6 245.4 149.6 336.7 149.8 336.7 249.6 336.7 249.8 336.7 249.8 139.1 195.1 139.1 190.9 139.1"/>
      <path d="M264.9,124h99.6c0-.2,0-.3,0-.5,0-.6-.1-1.2-.2-1.7,0-.2,0-.4,0-.7,0-.6-.1-1.2-.2-1.8,0-.1,0-.2,0-.3-.3-2-.6-4-.9-6,0-.3-.1-.6-.2-.9,0-.5-.2-.9-.3-1.4,0-.3-.1-.7-.2-1,0-.4-.2-.9-.3-1.3,0-.4-.2-.7-.3-1.1-.1-.4-.2-.9-.3-1.3,0-.4-.2-.8-.3-1.1-.1-.4-.2-.8-.3-1.2-.1-.4-.2-.8-.3-1.2-.1-.4-.2-.8-.4-1.2-.1-.4-.3-.8-.4-1.2-.1-.4-.2-.8-.4-1.1-.2-.5-.3-.9-.5-1.3-.1-.3-.2-.7-.3-1-.3-.7-.5-1.5-.8-2.2,0-.2-.2-.4-.3-.7-.2-.6-.5-1.2-.7-1.8-.1-.3-.2-.6-.4-.9-.2-.5-.4-.9-.6-1.4-.1-.3-.3-.6-.4-.9-.2-.4-.4-.9-.6-1.3-.1-.3-.3-.6-.4-.9-.2-.4-.4-.9-.6-1.3-.2-.3-.3-.6-.5-.9-.2-.4-.5-.9-.7-1.3-.2-.3-.3-.6-.5-.9-.2-.5-.5-.9-.7-1.4-.2-.3-.3-.6-.5-.8-.3-.5-.6-1-.8-1.5-.1-.2-.3-.5-.4-.7-.4-.6-.7-1.2-1.1-1.8,0-.1-.1-.2-.2-.3-.5-.7-.9-1.4-1.4-2.1,0-.1-.2-.2-.2-.3-.4-.6-.8-1.2-1.2-1.7-.2-.2-.3-.4-.5-.6-.3-.5-.7-.9-1-1.4-.2-.2-.4-.5-.5-.7-.3-.4-.7-.9-1-1.3-.2-.2-.4-.5-.6-.7-.3-.4-.7-.8-1-1.3-.2-.2-.4-.5-.6-.7-.3-.4-.7-.8-1.1-1.3-.2-.2-.4-.5-.6-.7-.4-.4-.8-.9-1.1-1.3-.2-.2-.4-.4-.6-.6-.4-.5-.9-1-1.3-1.4-.1-.1-.3-.3-.4-.4-.6-.6-1.2-1.2-1.8-1.9-.6-.6-1.2-1.2-1.9-1.8-.1-.1-.3-.3-.4-.4-.5-.5-1-.9-1.5-1.4-.2-.2-.4-.4-.6-.5-.4-.4-.9-.8-1.3-1.2-.2-.2-.5-.4-.7-.6-.4-.4-.8-.7-1.3-1.1-.2-.2-.5-.4-.7-.6-.4-.3-.8-.7-1.2-1-.3-.2-.5-.4-.8-.6-.4-.3-.8-.6-1.3-1-.3-.2-.5-.4-.8-.6-.4-.3-.9-.6-1.3-.9-.3-.2-.5-.4-.8-.5-.5-.3-.9-.6-1.4-.9-.2-.2-.5-.3-.7-.5-.5-.3-1-.7-1.5-1-.2-.1-.4-.3-.6-.4-.7-.4-1.3-.8-2-1.2,0,0,0,0-.1,0-.7-.4-1.5-.9-2.2-1.3-.1,0-.3-.1-.4-.2-.6-.3-1.2-.7-1.8-1-.2-.1-.5-.2-.7-.4-.5-.3-1-.5-1.5-.8-.3-.1-.5-.3-.8-.4-.5-.2-1-.5-1.4-.7-.3-.1-.6-.3-.9-.4-.5-.2-.9-.4-1.4-.6-.3-.1-.6-.3-.9-.4-.5-.2-.9-.4-1.4-.6-.3-.1-.6-.3-.9-.4-.5-.2-.9-.4-1.4-.6-.3-.1-.6-.2-.9-.4-.5-.2-1-.4-1.5-.5-.3-.1-.6-.2-.9-.3-.5-.2-1-.4-1.6-.5-.3,0-.5-.2-.8-.3-.6-.2-1.2-.4-1.8-.6-.2,0-.4-.1-.5-.2-.8-.2-1.6-.5-2.4-.7,0,0-.2,0-.3,0-.7-.2-1.4-.4-2.2-.6-.3,0-.5-.1-.8-.2-.5-.1-1.1-.3-1.6-.4-.3,0-.6-.1-1-.2-.5-.1-1-.2-1.5-.3-.3,0-.7-.1-1-.2-.5,0-1-.2-1.4-.3-.4,0-.7-.1-1.1-.2-.5,0-.9-.2-1.4-.2-.4,0-.7-.1-1.1-.2-.5,0-.9-.1-1.4-.2-.4,0-.8,0-1.1-.1-.5,0-.9-.1-1.4-.2-.4,0-.8,0-1.2-.1-.5,0-.9,0-1.4-.1-.4,0-.8,0-1.2,0,0,0-.1,0-.2,0h0v84.8s0,0,.1,0v13.6Z"/>
    </g>
  </g>
  <g id="door">
    <g>
      <path class="st4" d="M149.6,382.7h-1.1v94.8h103.6v-94.8h-102.5ZM246.5,475h-92.4v-89.5h92.4v89.5Z"/>
      <path class="st4" d="M316.5,125.7h49.9v-1.8c-.1,0-.2-.1-.2-.1-1-12.8-4.3-25.2-9.7-36.8-5.4-11.6-12.8-22.2-22-31.4-9.4-9.4-20.1-16.9-32-22.3-11.9-5.4-24.5-8.6-37.6-9.5h-.1s-1.8-.1-1.8-.1v1.8h0v100.3h53.5ZM264.9,124v-13.6s0,0-.1,0V25.6h0c0,0,.1,0,.2,0,.4,0,.8,0,1.2,0,.5,0,.9,0,1.4.1.4,0,.8,0,1.2.1.5,0,.9,0,1.4.2.4,0,.8,0,1.1.1.5,0,.9.1,1.4.2.4,0,.8.1,1.1.2.5,0,.9.1,1.4.2.4,0,.7.1,1.1.2.5,0,1,.2,1.4.3.3,0,.7.1,1,.2.5.1,1,.2,1.5.3.3,0,.6.1,1,.2.5.1,1.1.3,1.6.4.3,0,.5.1.8.2.7.2,1.5.4,2.2.6,0,0,.2,0,.3,0,.8.2,1.6.5,2.4.7.2,0,.4.1.5.2.6.2,1.2.4,1.8.6.3,0,.5.2.8.3.5.2,1.1.4,1.6.5.3.1.6.2.9.3.5.2,1,.4,1.5.5.3.1.6.2.9.4.5.2,1,.4,1.4.6.3.1.6.3.9.4.5.2.9.4,1.4.6.3.1.6.3.9.4.5.2.9.4,1.4.6.3.1.6.3.9.4.5.2,1,.5,1.4.7.3.1.6.3.8.4.5.3,1,.5,1.5.8.2.1.5.2.7.4.6.3,1.2.7,1.8,1,.1,0,.3.1.4.2.7.4,1.5.9,2.2,1.3,0,0,0,0,.1,0,.7.4,1.3.8,2,1.2.2.1.4.3.6.4.5.3,1,.7,1.5,1,.2.2.5.3.7.5.5.3.9.6,1.4.9.3.2.5.4.8.5.4.3.9.6,1.3.9.3.2.5.4.8.6.4.3.8.6,1.3,1,.3.2.5.4.8.6.4.3.8.7,1.2,1,.2.2.5.4.7.6.4.3.8.7,1.3,1.1.2.2.5.4.7.6.4.4.9.8,1.3,1.2.2.2.4.4.6.5.5.4,1,.9,1.5,1.4.1.1.3.3.4.4.6.6,1.3,1.2,1.9,1.8.6.6,1.2,1.2,1.8,1.9.1.1.3.3.4.4.4.5.9,1,1.3,1.4.2.2.4.4.6.6.4.4.8.9,1.1,1.3.2.2.4.5.6.7.4.4.7.8,1.1,1.3.2.2.4.5.6.7.3.4.7.8,1,1.3.2.2.4.5.6.7.3.4.7.9,1,1.3.2.2.4.5.5.7.3.5.7.9,1,1.4.2.2.3.4.5.6.4.6.8,1.1,1.2,1.7,0,.1.2.2.2.3.5.7.9,1.4,1.4,2.1,0,.1.1.2.2.3.4.6.8,1.2,1.1,1.8.1.2.3.5.4.7.3.5.6,1,.8,1.5.2.3.3.6.5.8.3.4.5.9.7,1.4.2.3.3.6.5.9.2.4.5.9.7,1.3.2.3.3.6.5.9.2.4.4.9.6,1.3.2.3.3.6.4.9.2.4.4.9.6,1.3.1.3.3.6.4.9.2.5.4.9.6,1.4.1.3.2.6.4.9.2.6.5,1.2.7,1.8,0,.2.2.4.3.7.3.7.5,1.4.8,2.2.1.3.2.7.3,1,.2.4.3.9.5,1.3.1.4.2.8.4,1.1.1.4.3.8.4,1.2.1.4.2.8.4,1.2.1.4.2.8.3,1.2.1.4.2.8.3,1.2.1.4.2.8.3,1.1.1.4.2.9.3,1.3,0,.4.2.7.3,1.1.1.4.2.9.3,1.3,0,.3.1.7.2,1,0,.5.2.9.3,1.4,0,.3.1.6.2.9.4,2,.7,4,.9,6,0,.1,0,.2,0,.3,0,.6.1,1.2.2,1.8,0,.2,0,.4,0,.7,0,.6.1,1.2.2,1.7,0,.2,0,.3,0,.5h-99.6Z"/>
      <path class="st4" d="M149.6,137.3h-1.8v201.2h103.6v-201.2h-101.8ZM249.8,139.1v197.7h-100.2v-197.7h100.2Z"/>
      <path class="st4" d="M249.5,23.8c-13.1.9-25.8,4.1-37.6,9.5-11.9,5.4-22.7,12.9-32,22.3-9.2,9.2-16.6,19.7-22,31.4-5.4,11.6-8.6,24-9.7,36.8h0c0,.1-.1,1.9-.1,1.9h103.3V25.5h0v-1.8h-1.8c0,.1-.1.1-.1.1ZM249.6,25.6v98.4h-99.7c0-.2,0-.3,0-.5,0-.6.1-1.2.2-1.8,0-.2,0-.4,0-.6,0-.6.1-1.2.2-1.8,0-.1,0-.2,0-.3.3-2,.6-4,.9-6,0-.3.1-.6.2-.9,0-.5.2-.9.3-1.4,0-.3.1-.7.2-1,0-.4.2-.9.3-1.3,0-.4.2-.7.3-1.1.1-.4.2-.9.3-1.3,0-.4.2-.8.3-1.1.1-.4.2-.8.3-1.2.1-.4.2-.8.3-1.2.1-.4.2-.8.4-1.2.1-.4.3-.8.4-1.2.1-.4.2-.7.4-1.1.2-.5.3-.9.5-1.4.1-.3.2-.6.3-1,.3-.7.5-1.5.8-2.2,0-.2.2-.4.2-.6.2-.6.5-1.2.7-1.8.1-.3.2-.6.4-.9.2-.5.4-1,.6-1.4.1-.3.3-.6.4-.9.2-.5.4-.9.6-1.4.1-.3.3-.6.4-.9.2-.4.4-.9.6-1.3.2-.3.3-.6.5-.9.2-.4.5-.9.7-1.3.2-.3.3-.6.5-.9.2-.5.5-.9.8-1.4.2-.3.3-.5.5-.8.3-.5.6-1,.9-1.5.1-.2.3-.5.4-.7.4-.6.8-1.2,1.1-1.9,0,0,.1-.2.2-.3.5-.7.9-1.4,1.4-2.1,0-.1.1-.2.2-.3.4-.6.8-1.2,1.2-1.7.1-.2.3-.4.4-.6.3-.5.7-1,1-1.4.2-.2.4-.5.5-.7.3-.4.7-.9,1-1.3.2-.2.4-.5.6-.7.3-.4.7-.8,1-1.3.2-.2.4-.5.6-.7.4-.4.7-.8,1.1-1.3.2-.2.4-.5.6-.7.4-.4.8-.9,1.1-1.3.2-.2.4-.4.6-.6.4-.5.9-1,1.3-1.4.1-.1.3-.3.4-.4.6-.6,1.2-1.2,1.8-1.9.6-.6,1.2-1.2,1.9-1.8.1-.1.3-.3.4-.4.5-.5,1-.9,1.5-1.4.2-.2.4-.4.6-.5.4-.4.9-.8,1.3-1.2.2-.2.5-.4.7-.6.4-.4.8-.7,1.3-1.1.2-.2.5-.4.8-.6.4-.3.8-.7,1.2-1,.3-.2.5-.4.8-.6.4-.3.8-.6,1.3-1,.3-.2.5-.4.8-.6.4-.3.9-.6,1.3-.9.3-.2.5-.4.8-.5.5-.3.9-.6,1.4-.9.2-.2.5-.3.7-.5.5-.3,1-.7,1.5-1,.2-.1.4-.3.6-.4.7-.4,1.3-.8,2-1.2,0,0,0,0,.1,0,.7-.4,1.5-.9,2.2-1.3.1,0,.3-.1.4-.2.6-.3,1.2-.7,1.8-1,.2-.1.5-.2.7-.4.5-.3,1-.5,1.5-.8.3-.1.6-.3.8-.4.5-.2,1-.5,1.4-.7.3-.1.6-.3.9-.4.5-.2.9-.4,1.4-.6.3-.1.6-.3.9-.4.5-.2.9-.4,1.4-.6.3-.1.6-.3.9-.4.5-.2.9-.4,1.4-.6.3-.1.6-.2.9-.4.5-.2,1-.4,1.5-.5.3-.1.6-.2.9-.3.5-.2,1-.4,1.6-.5.3,0,.5-.2.8-.3.6-.2,1.2-.4,1.8-.6.2,0,.4-.1.5-.2.8-.2,1.6-.5,2.4-.7,0,0,.2,0,.3,0,.7-.2,1.4-.4,2.2-.6.3,0,.5-.1.8-.2.5-.1,1.1-.3,1.6-.4.3,0,.6-.1,1-.2.5-.1,1-.2,1.5-.3.3,0,.7-.1,1-.2.5,0,1-.2,1.4-.3.4,0,.7-.1,1.1-.2.5,0,.9-.2,1.4-.2.4,0,.7-.1,1.1-.2.5,0,.9-.1,1.4-.2.4,0,.8,0,1.2-.1.5,0,.9-.1,1.4-.2.4,0,.8,0,1.2-.1.5,0,.9,0,1.4-.1.4,0,.8,0,1.2,0,0,0,.1,0,.2,0h0Z"/>
      <path class="st4" d="M257.2,4.2h0c-71.1,0-128.7,57.6-128.7,128.7v368.1h257.3V132.9c0-71.1-57.6-128.7-128.7-128.7ZM255.6,479.9v1.1h-110.6v-101.8h110.6v100.8ZM224.7,358.3c0-6.1,5-11.1,11.1-11.1s11.1,5,11.1,11.1-5,11.1-11.1,11.1-11.1-5-11.1-11.1ZM370.1,481h-110.6v-101.8h110.6v101.8ZM274.2,358.3c0-6.1,5-11.1,11.1-11.1s11.1,5,11.1,11.1-5,11.1-11.1,11.1-11.1-5-11.1-11.1ZM311.3,133.8h58.7v208.2h-110.6v-204.7h-4.6v204.7h-110.6v-208.2h107.1v-4.6h-107.2l.4-5.3v-.4c1.1-13.3,4.5-26.1,10-38,5.6-12,13.2-22.9,22.7-32.4,9.7-9.7,20.8-17.4,33-23,12.2-5.6,25.3-8.9,38.9-9.8h.4s5.3-.4,5.3-.4v5.4h0v100.4h4.6V25.3h0v-5.4l5.3.4h.4c13.5,1,26.6,4.3,38.9,9.8,12.3,5.6,23.4,13.3,33,23,9.5,9.5,17.1,20.4,22.7,32.4,5.5,12,8.9,24.8,10,38v.4s.5,5.3.5,5.3h-107.2v4.6h48.4Z"/>
      <path class="st4" d="M263,145.6v192.9h103.6v-201.2h-103.6v8.3ZM264.7,270.3v-131.3h100.1v197.7h-100.1v-66.4Z"/>
      <rect class="st4" x="254.9" y="129.2" width="4.6" height="4.6"/>
      <path class="st4" d="M264.7,382.7h-1.8v94.8h103.6v-94.8h-101.8ZM361.7,475h-92.4v-89.5h92.4v89.5Z"/>
      <rect class="st4" x="157.6" y="389" width="85.4" height="82.5"/>
      <rect class="st4" x="272.8" y="389" width="85.4" height="82.5"/>
    </g>
    <g>
      <path class="st11" d="M154.1,475h92.4v-89.5h-92.4v89.5ZM157.6,389h85.4v82.5h-85.4v-82.5Z"/>
      <path class="st11" d="M269.3,475h92.4v-89.5h-92.4v89.5ZM272.8,389h85.4v82.5h-85.4v-82.5Z"/>
      <path class="st11" d="M149.6,379.2h-4.6v101.8h110.6v-101.8h-106ZM252.1,477.5h-103.6v-94.8h103.6v94.8Z"/>
      <path class="st11" d="M264.7,379.2h-5.3v101.8h110.6v-101.8h-105.3ZM366.6,477.5h-103.6v-94.8h103.6v94.8Z"/>
      <path class="st11" d="M323.6,133.8h-60.6v-4.6h107.2l-.4-5.3v-.4c-1.1-13.3-4.5-26.1-10-38-5.6-12-13.2-22.9-22.7-32.4-9.7-9.7-20.8-17.4-33-23-12.2-5.6-25.3-8.9-38.9-9.8h-.4s-5.3-.4-5.3-.4v5.4h0v100.4h-4.6V25.3h0v-5.4l-5.3.4h-.4c-13.5,1-26.6,4.3-38.9,9.8-12.3,5.6-23.4,13.3-33,23-9.5,9.5-17.1,20.4-22.7,32.4-5.5,12-8.9,24.8-10,38v.4s-.5,5.3-.5,5.3h107.2v4.6h-107.1v208.2h110.6v-204.7h4.6v204.7h110.6v-208.2h-46.4ZM263,25.5h0v-1.8h1.8c0,.1.1.1.1.1,13.1.9,25.8,4.1,37.6,9.5,11.9,5.4,22.7,12.9,32,22.3,9.2,9.2,16.6,19.7,22,31.4,5.4,11.6,8.6,24,9.7,36.8h0c0,.1.1,1.9.1,1.9h-103.3V25.5ZM190.9,125.7h-42.8v-1.8c.1,0,.2-.1.2-.1,1-12.8,4.3-25.2,9.7-36.8,5.4-11.6,12.8-22.2,22-31.4,9.4-9.4,20.1-16.9,32-22.3,11.9-5.4,24.5-8.6,37.6-9.5h.1s1.8-.1,1.8-.1v1.8h0v100.3h-60.5ZM251.4,336.7v1.8h-103.6v-201.2h103.6v199.4ZM254.9,133.8v-4.6h4.6v4.6h-4.6ZM366.6,139.1v199.4h-103.6v-201.2h103.6v1.8Z"/>
    </g>
    <g>
      <path class="st9" d="M190.9,124h58.8V25.6h0c0,0-.1,0-.2,0-.4,0-.8,0-1.2,0-.5,0-.9,0-1.4.1-.4,0-.8,0-1.2.1-.5,0-.9,0-1.4.2-.4,0-.8,0-1.2.1-.5,0-.9.1-1.4.2-.4,0-.8.1-1.1.2-.5,0-.9.1-1.4.2-.4,0-.7.1-1.1.2-.5,0-1,.2-1.4.3-.3,0-.7.1-1,.2-.5.1-1,.2-1.5.3-.3,0-.6.1-1,.2-.5.1-1.1.3-1.6.4-.3,0-.5.1-.8.2-.7.2-1.5.4-2.2.6,0,0-.2,0-.3,0-.8.2-1.6.5-2.4.7-.2,0-.4.1-.5.2-.6.2-1.2.4-1.8.6-.3,0-.5.2-.8.3-.5.2-1.1.4-1.6.5-.3.1-.6.2-.9.3-.5.2-1,.4-1.5.5-.3.1-.6.2-.9.4-.5.2-1,.4-1.4.6-.3.1-.6.3-.9.4-.5.2-.9.4-1.4.6-.3.1-.6.3-.9.4-.5.2-.9.4-1.4.6-.3.1-.6.3-.9.4-.5.2-1,.5-1.4.7-.3.1-.6.3-.8.4-.5.3-1,.5-1.5.8-.2.1-.5.2-.7.4-.6.3-1.2.7-1.8,1-.1,0-.3.1-.4.2-.7.4-1.5.9-2.2,1.3,0,0,0,0-.1,0-.7.4-1.3.8-2,1.2-.2.1-.4.3-.6.4-.5.3-1,.7-1.5,1-.2.2-.5.3-.7.5-.5.3-.9.6-1.4.9-.3.2-.5.4-.8.5-.4.3-.9.6-1.3.9-.3.2-.5.4-.8.6-.4.3-.8.6-1.3,1-.3.2-.5.4-.8.6-.4.3-.8.7-1.2,1-.3.2-.5.4-.8.6-.4.3-.8.7-1.3,1.1-.2.2-.5.4-.7.6-.4.4-.9.8-1.3,1.2-.2.2-.4.4-.6.5-.5.4-1,.9-1.5,1.4-.1.1-.3.3-.4.4-.6.6-1.3,1.2-1.9,1.8-.6.6-1.2,1.2-1.8,1.9-.1.1-.3.3-.4.4-.5.5-.9,1-1.3,1.4-.2.2-.4.4-.6.6-.4.4-.8.9-1.1,1.3-.2.2-.4.5-.6.7-.4.4-.7.8-1.1,1.3-.2.2-.4.5-.6.7-.3.4-.7.8-1,1.3-.2.2-.4.5-.6.7-.3.4-.7.9-1,1.3-.2.2-.4.5-.5.7-.3.5-.7.9-1,1.4-.1.2-.3.4-.4.6-.4.6-.8,1.2-1.2,1.7,0,.1-.2.2-.2.3-.5.7-.9,1.4-1.4,2.1,0,0-.1.2-.2.3-.4.6-.8,1.2-1.1,1.9-.1.2-.3.5-.4.7-.3.5-.6,1-.9,1.5-.2.3-.3.5-.5.8-.3.5-.5.9-.8,1.4-.2.3-.3.6-.5.9-.2.4-.5.9-.7,1.3-.2.3-.3.6-.5.9-.2.4-.4.9-.6,1.3-.1.3-.3.6-.4.9-.2.5-.4.9-.6,1.4-.1.3-.3.6-.4.9-.2.5-.4,1-.6,1.4-.1.3-.2.6-.4.9-.2.6-.5,1.2-.7,1.8,0,.2-.2.4-.2.6-.3.7-.6,1.5-.8,2.2-.1.3-.2.6-.3,1-.2.5-.3.9-.5,1.4-.1.4-.2.7-.4,1.1-.1.4-.3.8-.4,1.2-.1.4-.2.8-.4,1.2-.1.4-.2.8-.3,1.2-.1.4-.2.8-.3,1.2-.1.4-.2.8-.3,1.1-.1.4-.2.9-.3,1.3,0,.4-.2.7-.3,1.1-.1.4-.2.9-.3,1.3,0,.3-.1.7-.2,1,0,.5-.2.9-.3,1.4,0,.3-.1.6-.2.9-.4,2-.7,4-.9,6,0,.1,0,.2,0,.3,0,.6-.1,1.2-.2,1.8,0,.2,0,.4,0,.6,0,.6-.1,1.2-.2,1.8,0,.2,0,.3,0,.5h40.9Z"/>
      <path class="st9" d="M235.8,347.2c-6.1,0-11.1,5-11.1,11.1s5,11.1,11.1,11.1,11.1-5,11.1-11.1-5-11.1-11.1-11.1Z"/>
      <path class="st9" d="M285.3,347.2c-6.1,0-11.1,5-11.1,11.1s5,11.1,11.1,11.1,11.1-5,11.1-11.1-5-11.1-11.1-11.1Z"/>
      <polygon class="st9" points="323.6 139.1 314.3 139.1 264.7 139.1 264.7 146.1 264.7 221.6 264.7 249.8 264.7 270.3 264.7 336.7 364.8 336.7 364.8 245.4 364.8 230.3 364.8 139.1 323.6 139.1"/>
      <polygon class="st9" points="190.9 139.1 149.8 139.1 149.6 139.1 149.6 230.3 149.6 245.4 149.6 336.7 149.8 336.7 249.6 336.7 249.8 336.7 249.8 139.1 195.1 139.1 190.9 139.1"/>
      <path class="st9" d="M264.9,124h99.6c0-.2,0-.3,0-.5,0-.6-.1-1.2-.2-1.7,0-.2,0-.4,0-.7,0-.6-.1-1.2-.2-1.8,0-.1,0-.2,0-.3-.3-2-.6-4-.9-6,0-.3-.1-.6-.2-.9,0-.5-.2-.9-.3-1.4,0-.3-.1-.7-.2-1,0-.4-.2-.9-.3-1.3,0-.4-.2-.7-.3-1.1-.1-.4-.2-.9-.3-1.3,0-.4-.2-.8-.3-1.1-.1-.4-.2-.8-.3-1.2-.1-.4-.2-.8-.3-1.2-.1-.4-.2-.8-.4-1.2-.1-.4-.3-.8-.4-1.2-.1-.4-.2-.8-.4-1.1-.2-.5-.3-.9-.5-1.3-.1-.3-.2-.7-.3-1-.3-.7-.5-1.5-.8-2.2,0-.2-.2-.4-.3-.7-.2-.6-.5-1.2-.7-1.8-.1-.3-.2-.6-.4-.9-.2-.5-.4-.9-.6-1.4-.1-.3-.3-.6-.4-.9-.2-.4-.4-.9-.6-1.3-.1-.3-.3-.6-.4-.9-.2-.4-.4-.9-.6-1.3-.2-.3-.3-.6-.5-.9-.2-.4-.5-.9-.7-1.3-.2-.3-.3-.6-.5-.9-.2-.5-.5-.9-.7-1.4-.2-.3-.3-.6-.5-.8-.3-.5-.6-1-.8-1.5-.1-.2-.3-.5-.4-.7-.4-.6-.7-1.2-1.1-1.8,0-.1-.1-.2-.2-.3-.5-.7-.9-1.4-1.4-2.1,0-.1-.2-.2-.2-.3-.4-.6-.8-1.2-1.2-1.7-.2-.2-.3-.4-.5-.6-.3-.5-.7-.9-1-1.4-.2-.2-.4-.5-.5-.7-.3-.4-.7-.9-1-1.3-.2-.2-.4-.5-.6-.7-.3-.4-.7-.8-1-1.3-.2-.2-.4-.5-.6-.7-.3-.4-.7-.8-1.1-1.3-.2-.2-.4-.5-.6-.7-.4-.4-.8-.9-1.1-1.3-.2-.2-.4-.4-.6-.6-.4-.5-.9-1-1.3-1.4-.1-.1-.3-.3-.4-.4-.6-.6-1.2-1.2-1.8-1.9-.6-.6-1.2-1.2-1.9-1.8-.1-.1-.3-.3-.4-.4-.5-.5-1-.9-1.5-1.4-.2-.2-.4-.4-.6-.5-.4-.4-.9-.8-1.3-1.2-.2-.2-.5-.4-.7-.6-.4-.4-.8-.7-1.3-1.1-.2-.2-.5-.4-.7-.6-.4-.3-.8-.7-1.2-1-.3-.2-.5-.4-.8-.6-.4-.3-.8-.6-1.3-1-.3-.2-.5-.4-.8-.6-.4-.3-.9-.6-1.3-.9-.3-.2-.5-.4-.8-.5-.5-.3-.9-.6-1.4-.9-.2-.2-.5-.3-.7-.5-.5-.3-1-.7-1.5-1-.2-.1-.4-.3-.6-.4-.7-.4-1.3-.8-2-1.2,0,0,0,0-.1,0-.7-.4-1.5-.9-2.2-1.3-.1,0-.3-.1-.4-.2-.6-.3-1.2-.7-1.8-1-.2-.1-.5-.2-.7-.4-.5-.3-1-.5-1.5-.8-.3-.1-.5-.3-.8-.4-.5-.2-1-.5-1.4-.7-.3-.1-.6-.3-.9-.4-.5-.2-.9-.4-1.4-.6-.3-.1-.6-.3-.9-.4-.5-.2-.9-.4-1.4-.6-.3-.1-.6-.3-.9-.4-.5-.2-.9-.4-1.4-.6-.3-.1-.6-.2-.9-.4-.5-.2-1-.4-1.5-.5-.3-.1-.6-.2-.9-.3-.5-.2-1-.4-1.6-.5-.3,0-.5-.2-.8-.3-.6-.2-1.2-.4-1.8-.6-.2,0-.4-.1-.5-.2-.8-.2-1.6-.5-2.4-.7,0,0-.2,0-.3,0-.7-.2-1.4-.4-2.2-.6-.3,0-.5-.1-.8-.2-.5-.1-1.1-.3-1.6-.4-.3,0-.6-.1-1-.2-.5-.1-1-.2-1.5-.3-.3,0-.7-.1-1-.2-.5,0-1-.2-1.4-.3-.4,0-.7-.1-1.1-.2-.5,0-.9-.2-1.4-.2-.4,0-.7-.1-1.1-.2-.5,0-.9-.1-1.4-.2-.4,0-.8,0-1.1-.1-.5,0-.9-.1-1.4-.2-.4,0-.8,0-1.2-.1-.5,0-.9,0-1.4-.1-.4,0-.8,0-1.2,0,0,0-.1,0-.2,0h0v84.8s0,0,.1,0v13.6Z"/>
    </g>
  </g>
  <g id="wreath">
    <g>
      <path class="st3" d="M198.5,187.1c.3.3.6.5.9.7,2,1.5,4.4,2.4,7.1,2.4h0c-2.7,0-5.1-.9-7.1-2.4-.3-.2-.6-.5-.9-.7Z"/>
      <path class="st3" d="M183.9,142.2c0-3.3,2.7-5.9,6-5.9,1,0,1.9.3,2.7.7,0-2-.7-4-2-5.7-.4-.5-.6-1.1-.6-1.8,0-.8.4-1.6,1.1-2.2,1.6-1.3,2.6-3,3.1-4.9-3.4,1.5-6.8,3.4-9.8,6.1-1.6,2-2.6,4.5-2.6,7.3,0,2.6.8,5,2.2,7,0-.2,0-.4,0-.6Z"/>
      <path class="st3" d="M194.1,117.8c-.4-1.3-1-2.5-1.9-3.6-.4-.5-.7-1.2-.7-1.9,0-.6.2-1.2.6-1.7.4-.5.9-.8,1.5-1,2.6-.7,4.7-2.4,5.8-4.8.3-.6.5-1.1.6-1.7-.1,0-.3,0-.5,0-3.3,0-5.9-2.7-5.9-6,0-.2,0-.4,0-.6,0-.6.2-1.2.5-1.8,0-.1.1-.2.2-.3,0,.1-.2.2-.3.3-.5.5-.9,1.1-1.3,1.8-1,1.8-1.7,3.8-1.7,6,0,1.7.3,3.3,1,4.8-5,1.3-8.8,5.9-8.8,11.4,0,1.6.3,3.1.9,4.5,3.5-3.1,5.9-3.9,10-5.4Z"/>
      <path class="st3" d="M186.6,162.7c-.4,1.1-.6,2.3-.6,3.6,0,3.4,1.4,6.5,3.7,8.7-2.3-2.2-3.7-5.3-3.7-8.7,0-1.3.2-2.5.6-3.6Z"/>
      <path class="st3" d="M243.2,204.4c.4.4.8.8,1.2,1.2-.4-.4-.8-.8-1.2-1.2h0Z"/>
      <path class="st3" d="M199.2,164.1c-.9-.6-1.8-1.1-2.9-1.4-1.2-.3-2.1-1.5-2-2.7,0-.4,0-.8.3-1.2,1.9-3.8.8-8.3-2.4-11-.7.3-1.5.5-2.4.5-2.8,0-5.1-1.9-5.7-4.5-.1.2-.3.3-.4.5-.3.9-.4,1.9-.4,2.9,0,4.2,2.1,7.8,5.4,9.9-.7,1.5-1.2,3.2-1.2,5,0,4.3,2.3,8.1,5.8,10.1,1.8-2.8,3.7-5.2,5.7-7.8,0,0,0,0,.1-.1Z"/>
      <path class="st3" d="M218.6,162.2c0-2.6-.8-4.9-2.1-6.9-.9.4-3.5,1.7-6.9,4.5,0,0-.1.1-.2.2.9,2.2,2.7,4.1,5.1,5,.7.3,1.3.9,1.6,1.6,1.4,3.4,4.7,5.6,8.3,5.6.2,0,.5,0,.7,0,0,0,.2,0,.2,0,1.4,0,2.5,1,2.7,2.3.4,2,1.4,3.9,3,5.2,2.7-3,5-4.1,5.4-4.3-2-3.5-5.8-5.8-10.2-5.9-.3,0-.6,0-.9,0-1.2-3-3.7-5.4-6.7-6.6,0-.2,0-.5,0-.8Z"/>
      <path class="st3" d="M215,108.2c0,.7-.2,1.2-.6,1.8-.4.5-.9.8-1.6,1-2,.5-3.7,1.6-5,3.1.6,0,1.1-.2,1.7-.2,1-.1,1.9-.2,2.8-.3,1.2-1.6,2.4-3.5,3.4-5.2,1.6-2.8,3-5.6,5.3-8.7-1.1.4-2.1.9-2.9,1.7-2,1.7-3.2,4.3-3.2,6.9Z"/>
      <path class="st3" d="M238.7,103.2c2,1.6,4.6,2.6,7.3,2.6.5,0,.9,0,1.3,0,.6,0,1.2-.2,1.8-.3,1.3-.3,2.4-.9,3.5-1.6,1.5-1,2.8-2.3,3.7-3.8.3.3.6.6.9.9,1,.9,2.2,1.6,3.5,2.1.6.2,1.2.4,1.8.5.8.2,1.6.3,2.5.3,2.2,0,4.2-.5,5.9-1.5.6,5.5,5,9.8,10.4,10.4-2.2-6.2-5.6-13.2-9.8-16.3-1.1-.8-2.3-1.4-3.6-1.5-.4,0-.8-.1-1.2-.2-1.7-.3-3.1-.9-4.3-1.5-1.2-.6-2.1-1.3-3-2-1.5-1.3-2.4-2.6-2.8-3.3l-2.3-.2s0,0-.2,0c-.4.7-1.3,2.1-3,3.5-1,.8-2.3,1.7-3.8,2.3-1.3.6-2.8,1-4.6,1.2,0,0,0,0-.1,0-1.4.2-2.7.8-3.9,1.8-4.6,3.6-8.3,11.7-10.5,18.1,5.8-.7,10.3-5.5,10.5-11.4Z"/>
      <path class="st3" d="M181.6,150.9c0,.8,0,1.6.2,2.4-.1-.8-.2-1.6-.2-2.4h0Z"/>
      <path class="st3" d="M207.7,153.5c.4.3.7.8.9,1.3,3.7-2.9,5.8-3.8,5.9-3.9-.2-3.1-1.5-5.9-3.6-7.9,3.9-1.9,6.6-5.9,6.6-10.6,0-.2,0-.3,0-.4-1.4.9-2.3,1.5-2.3,1.5l-1.2-11.3-8-2.9c.5,0,1-.3,1.5-.6-.5,0-1,.2-1.5.3-.2,1.9.2,3.9,1.3,5.5.3.4.4.9.4,1.5,0,1.1-.6,2-1.6,2.5-2.6,1.3-4.5,3.8-4.9,6.8-.4,2.9.6,5.9,2.7,7.9.6.6.9,1.3.9,2.1,0,.1,0,.2,0,.3h0c-.4,3,.8,6,3.1,8Z"/>
      <path class="st3" d="M227.8,182.3c-1.3-.7-2.7-1-4.2-1.1-1.4,0-2.7.3-3.9.9-.4.2-.8.3-1.2.3-.6,0-1.1-.2-1.6-.5-.5-.3-.8-.8-1-1.3-1.3-3.5-4.7-5.9-8.4-5.9-.4,0-.9,0-1.3,0-.1,0-.3,0-.4,0-1.6,0-2.8-1.3-2.8-2.8,0,0,0,0,0-.1,0-1.5-.2-3-.8-4.2-1.9,2.4-3.9,5.3-5.8,8.7.7,3.1,2.7,5.7,5.4,7.3,0-3.3,2.7-5.9,6-5.9,3.3,0,5.9,2.7,5.9,6,0,1.6-.7,3-1.7,4.1-.3.3-.5.5-.8.7,2.1,2.4,5.1,3.9,8.6,4,1.5,0,2.9-.3,4.2-.7.6-1.3,1.2-2.5,1.9-3.9,0-.1.1-.3.2-.4.8-1.7,1.7-3.2,2.7-4.6-.2-.2-.5-.3-.7-.5Z"/>
      <path class="st3" d="M221.8,197.6h0c-.8.2-1.7.3-2.6.3.9,0,1.8,0,2.6-.3Z"/>
      <path class="st3" d="M219.2,197.9s0,0,0,0c0,0,0,0,0,0h0Z"/>
      <path class="st3" d="M209.5,192.8c2.1,3,5.6,5.1,9.6,5.1h0c-4,0-7.5-2-9.6-5.1Z"/>
      <path class="st3" d="M267.8,181.8c-1.5-1.3-3.3-2.3-5.4-2.7-.6-.1-1.2-.2-1.8-.2-.2,0-.4,0-.7,0-1,0-1.9.1-2.9.3-1.7.4-3.2,1.2-4.6,2.2-1,.8-1.8,1.7-2.5,2.7-.3-.4-.6-.8-1-1.2-.5-.6-1.1-1.1-1.8-1.6-1.9-1.4-4.3-2.3-6.9-2.3-.8,0-1.6,0-2.4.2v.3c.1,0,.1,0,.2,0,0,0-1.3.6-3,2.3.5.1,1.1.2,1.6.2.7,0,1.4,0,2-.2.2,0,.4,0,.6,0,.5,0,.9.1,1.3.3.4.2.7.5,1,.9,1.3,1.9,3.3,3.2,5.5,3.6.6.1,1.2.2,1.8.2,0,0,0,0,0,0,0,0,.1,0,.2,0h0c1.1,0,2.3-.2,3.3-.7,1.7-.7,3.1-1.8,4.1-3.3.1-.2.3-.3.4-.5.5-.5,1.2-.8,1.9-.7.6,0,1.1.2,1.6.5,0,0,.2.1.3.2.5.4,1,.8,1.5,1.1,1.4.8,2.9,1.2,4.5,1.2.7,0,1.4,0,2-.2,2.8-.6,5.2-2.6,6.4-5.3.4-.9,1.2-1.5,2.2-1.7.2-.9.4-1.8.6-2.7-4.6.2-8.5,3.1-10.3,7.2Z"/>
      <path class="st3" d="M290.4,171.7c.2-.5.5-.9.9-1.3.4-.3.9-.6,1.4-.6,2.8-.4,5.3-2.2,6.6-4.7,1.3-2.5,1.4-5.6.2-8.2-.1-.3-.2-.6-.3-.9-1.4-.8-3-1.6-4.7-2.3h0c-2.2,2.1-3.5,5.1-3.6,8.3,0,1.9.4,3.6,1.2,5.2-4.2.7-7.7,3.5-9.2,7.4-.3,1.1-.5,2.2-.8,3.3,1.3,0,2.6-.4,3.8-1,2.1-1.1,3.8-3,4.6-5.3Z"/>
      <path class="st3" d="M270.9,187.8c-1,.9-1.8,1.9-2.4,3.1-.5,1-1.5,1.7-2.6,1.6-.6,0-1.1-.2-1.6-.5-.6-.4-1.2-.8-1.8-1-.5-.2-.9-.3-1.4-.5.6.5,1.1,1.2,1.4,2,.3.8.5,1.6.5,2.5,0,.9-.2,1.7-.5,2.4-.4.9-1,1.7-1.8,2.2-.4.3-.9.6-1.4.8.5.3.9.6,1.4.8.6.3,1.1.5,1.8.6.9.3,1.9.4,2.9.4,4.6,0,8.6-2.6,10.5-6.6,0-.3,0-.6,0-1,0-2.3,0-4.7.3-7,0-.7.1-1.4.2-2.1-.8,0-1.5.2-2.2.4-1.2.4-2.2,1-3.1,1.7Z"/>
      <path class="st3" d="M295.3,138.7c-.7,1.5-1.1,3.2-1.1,4.9,0,2.5.8,4.9,2.1,6.8,1.8.8,3.5,1.5,5.1,2.2,2-1.4,3.4-3.5,3.8-5.9.5-2.7-.3-5.5-2.1-7.6-.5-.5-.7-1.2-.7-1.9,0-.4,0-.8.3-1.2,2-4.2.4-9.3-3.6-11.7-.4-.3-.8-.6-1-1-.2-.3-.3-.6-.3-1l-1.4.5-1.4,11.2s-2.6-1.5-5.3-3.9c.5,3.6,2.7,6.6,5.7,8.4Z"/>
      <path class="st3" d="M328.1,152.2c0,2.4-.8,4.7-2.1,6.6,1.3-1.9,2-4.1,2.1-6.6,0-1.9-.4-3.7-1.2-5.4.8,1.6,1.2,3.4,1.2,5.4Z"/>
      <path class="st3" d="M294.9,109.5c.4.6.8,1.3,1.1,1.9.3,0,.6,0,.9,0-.6-.8-1.3-1.5-2.1-2Z"/>
      <path class="st3" d="M306.9,187.4c.5-.1,1-.3,1.4-.4-.5.2-.9.3-1.4.4,0,0,0,0,0,0Z"/>
      <path class="st3" d="M324.7,143.7s0,0,0,.1c.3.3.5.6.8.9-.2-.3-.5-.6-.8-.9,0,0,0,0,0-.1Z"/>
      <path class="st3" d="M312.9,111.4c.6.5,1,1.3,1,2.2,0,.4,0,.8-.3,1.2,0,.2-.2.4-.3.6,0,0,.2,0,.3.1,2.9,1.2,5.1,2.3,6.8,3.2,0-.4,0-.9,0-1.3,0-3.5-1.5-6.7-4-8.8.2-.9.3-1.8.4-2.7,0-3.5-1.5-6.6-3.9-8.7-.3-.1-.7-.3-1-.4,0,.4.1.8.1,1.2,0,1.8-.8,3.4-2.1,4.5-.8,3.3.3,6.7,2.9,9Z"/>
      <path class="st3" d="M322.3,114c-.7-1.2-1.5-2.2-2.5-3.1.2-.9.4-1.9.4-2.8,0,0,0,0,0,0,0,0,0,0,0,0,0,1-.1,1.9-.4,2.8,1,.9,1.9,1.9,2.5,3.1Z"/>
      <path class="st3" d="M328.3,135.3c0,1.5-.3,3-.9,4.4.6-1.4.9-2.8.9-4.4,0-4.3-2.2-8.1-5.6-10.2,0,0,0-.2.1-.3h0c0,0,0,.2-.1.3,3.4,2.1,5.7,5.9,5.6,10.2Z"/>
      <path class="st3" d="M324.6,160.6c0,.3,0,.5.1.8,0-.3,0-.5-.1-.8h0Z"/>
      <path class="st3" d="M324.7,148.4c0-1.9-.4-3.7-1.3-5.3-1.1,1-2.5,1.6-4.1,1.6-.5,0-.9,0-1.3-.2.2.4.2.7.2,1.1,0,.8-.3,1.4-.8,2-2.2,2.2-3.1,5.3-2.5,8.3,0,.2,0,.4,0,.6,0,1.3-.9,2.4-2.1,2.7-.3,0-.6.2-.9.3,1.8,1.7,3.3,3.5,4.6,5.4.6.8,1,1.5,1.4,2.2,2.2-2.1,3.6-5,3.6-8.2,0-.9,0-1.7-.3-2.5,2.1-2.1,3.4-4.9,3.4-8Z"/>
      <path class="st3" d="M315.2,134.5c1.1-1,2.6-1.7,4.2-1.6,2,0,3.8,1.1,4.9,2.6.3-1.1.5-2.2.5-3.4,0-3-1.1-5.7-3-7.8-1.6-.9-4.8-2.6-9-4.3.4,2.6,1.8,5,4.2,6.4.4.3.7.6,1,1,.2.4.4.9.4,1.4,0,.8-.3,1.5-.9,2-1,1-1.8,2.3-2.3,3.7Z"/>
      <path class="st3" d="M312.6,167.4c-1.1-1.5-2.5-3.2-4.5-5-1.5,1.8-2.4,4.3-2.1,6.8,0,.1,0,.2,0,.3,0,0,0,.2,0,.3,2.4.8,4.2,3.1,4.1,5.7,0,3.3-2.7,5.9-6,5.9-3,0-5.5-2.3-5.8-5.2-.4.6-.7,1.2-.9,1.9-.4,1.1-1.5,1.9-2.7,1.9,0,0-.1,0-.2,0-.2,0-.4,0-.6,0-3.7,0-7.1,2.2-8.5,5.7-.2.5-.6,1-1,1.3-.5.3-1,.5-1.6.5-.5,0-1-.1-1.4-.4-.2-.1-.4-.2-.6-.3,0,.4,0,.8-.1,1.2-.2,2.6-.3,4.9-.3,6.9,0,.9,0,1.7,0,2.5.4,0,.8,0,1.2,0,4.8,0,9-2.9,10.7-7.1.3,0,.5,0,.8,0,2.6,0,5.1-.8,7-2.3,1.8-1.4,3.2-3.2,4-5.4,5-1.2,8.7-5.7,8.8-11.1,0-.4,0-.9,0-1.3.4-.1.8-.2,1.2-.4-.4-.7-.9-1.4-1.4-2.2Z"/>
      <path class="st3" d="M262.5,207.3c-.6-.2-1.2-.5-1.8-.9.6.3,1.1.6,1.8.9,1.3.5,2.7.8,4.2.8,3.3,0,6.3-1.3,8.5-3.5-2.2,2.2-5.2,3.5-8.5,3.5-1.5,0-2.9-.3-4.2-.8Z"/>
      <path class="st3" d="M295.5,195.5h0c-.3,0-.6,0-.8,0,.3,0,.6,0,.8,0Z"/>
      <path class="st3" d="M295.5,195.5c3.3,0,6.3-1.3,8.4-3.4-2.2,2.1-5.2,3.4-8.4,3.4h0Z"/>
      <path class="st3" d="M293.3,197.9c.4-.6.8-1.2,1.1-1.9-.3.7-.7,1.3-1.1,1.9Z"/>
      <path class="st3" d="M293,198.3c.1-.1.2-.3.3-.4-.1.1-.2.3-.3.4Z"/>
      <path class="st3" d="M292,199.4s0,0,0,0c0,0,0,0,0,0Z"/>
      <path class="st3" d="M292,199.4s0,0,0,0c0,0,0,0,0,0Z"/>
      <path class="st3" d="M292,199.4c.3-.3.7-.7.9-1.1-.3.4-.6.7-.9,1.1Z"/>
      <path class="st3" d="M280.9,202.5c.8.2,1.7.3,2.6.3h0c-.9,0-1.8-.1-2.6-.3h0Z"/>
      <path class="st3" d="M292,199.4c-2.2,2.1-5.1,3.4-8.4,3.4,3.3,0,6.2-1.3,8.4-3.4Z"/>
      <path class="st3" d="M283.5,202.8s0,0,0,0c0,0,0,0,0,0h0Z"/>
      <path class="st3" d="M240.6,71.8c.2-.5.6-1,1-1.3.5-.3,1-.5,1.6-.5,1,0,2,.6,2.5,1.5.4.8,1,1.6,1.6,2.2.5.5,1.1,1,1.8,1.4,1.1.6,2.3,1,3.5,1.2.3,0,.7,0,1.1,0,.3,0,.6,0,.9,0h0c.9,0,1.8-.3,2.6-.6,1.3-.5,2.6-1.4,3.5-2.5.4-.5.8-1,1.2-1.6.2-.3.4-.5.6-.7.5-.5,1.2-.7,1.9-.7.7,0,1.3.2,1.8.7.5.4.8,1,.9,1.7.2,1.4.8,2.7,1.6,3.8,2.1-1.6,4-3.2,5.6-4.6-2.2-2.6-5.4-4.2-9-4.2-1,0-1.9.1-2.8.3-.6.1-1.2.3-1.8.6-1.3.5-2.5,1.3-3.5,2.2-1,.9-1.8,1.9-2.5,3.1,0,0,0,0-.1,0-.5-1-1.2-1.9-2-2.7-1-1-2.2-1.9-3.5-2.5-.6-.3-1.1-.5-1.8-.7-1-.3-2.1-.5-3.2-.5-3.1,0-6,1.2-8.1,3.1,1,1,2.2,2.1,3.6,3.3.4-.6.7-1.2,1-1.9Z"/>
      <path class="st3" d="M199.7,91.3s0,0,0,0c1.6,0,3,.6,4,1.6,1-.4,1.9-.9,2.7-1.6,1.4-1.2,2.4-2.8,2.8-4.6.2-.7.3-1.5.3-2.3,0,0,0,0,0,0,0-.4.1-.8.3-1.2.5-.9,1.4-1.6,2.6-1.6.3,0,.5,0,.8.1.8.2,1.6.4,2.5.4.7,0,1.5,0,2.2-.3,0,0,0,0,0,0,0-.1.1-.2.2-.3,1-1.7,1.3-3.5,1.6-5.6-1.2,1-2.3,2.2-3.1,3.5-1-.3-2.1-.5-3.3-.5-2.8,0-5.4.9-7.4,2.5-.7.5-1.3,1.1-1.8,1.8-.9,1-1.5,2.2-2,3.5-.5,1.3-.7,2.6-.7,4,0,0,0,0,0,.1-.6,0-1.3.2-1.9.4,0,0,0,0,0,0,0,0,.1,0,.2,0s0,0,0,0Z"/>
      <path class="st3" d="M293.1,82.4c.1.2.3.5.4.8.4,1,.7,2.2.8,3.5,0,.2,0,.4,0,.6.7,0,1.4-.2,2.1-.4.3-.1.6-.2.9-.1,1.5,0,2.8,1.3,2.8,2.8,0,0,0,0,0,0,0,.6,0,1.1.1,1.6.2,1.1.6,2.2,1.1,3.1,1.1-1.5,2.9-2.5,4.9-2.5,1.3,0,2.5.4,3.4,1.1-.2-.6-.4-1.2-.6-1.8-.8-1.8-2-3.4-3.5-4.6-2-1.6-4.5-2.6-7.3-2.6-1.4,0-2.7.2-4,.6-.1-.5-.3-1-.5-1.5-.3-.6-.6-1.2-.9-1.8-.2-.3-.4-.6-.6-.9,0,.3.2.6.4.9.2.3.3.7.5,1Z"/>
      <path class="st3" d="M254,84.7h2.1c-.2-.1-.4-.1-.6-.1-.3,0-.7,0-1,0-.2,0-.4,0-.5,0Z"/>
      <path class="st3" d="M250.8,208.5c.4,0,.9,0,1.3,0,.2,0,.4,0,.5,0-.2,0-.4,0-.5,0-.4,0-.9,0-1.3,0Z"/>
      <path class="st3" d="M251.3,202.7c.4,0,.9,0,1.3,0,1.6-.2,3.2-.7,4.6-1.5.2,0,.3-.2.5-.3-.2,0-.3,0-.5,0,0,0-.1,0-.2,0-1.7,0-3.3-.8-4.3-1.9-1-1.1-1.6-2.5-1.6-4.1,0-.7.1-1.3.3-1.9,0,0,0,0,0,0-.8,0-1.6-.4-2.1-1,0,0,0,0-.1-.1-.5-.6-1.1-1.1-1.8-1.5-1.4-.9-3.1-1.5-4.9-1.5-2,0-3.9.6-5.5,1.8-.5.4-1.1.6-1.7.6-.7,0-1.3-.3-1.8-.7-.5-.4-.8-1-.9-1.7,0-.4-.2-.8-.3-1.1-.2-.5-.4-1.1-.6-1.6-.3.5-.7,1-1,1.6-1.4,2.2-2.8,5.1-3.9,8.6,2.1,2.8,5.4,4.6,9.1,4.6,2.6,0,5-.8,7-2.3,1.2,1.4,2.8,2.5,4.6,3.2.6.2,1.2.4,1.8.5.7.1,1.5.2,2.2.2Z"/>
      <path class="st3" d="M259.5,206c0,0,.2-.1.2-.2h0c0,0-.2.1-.2.2Z"/>
      <path class="st3" d="M259.8,205.8c.3.2.6.4.9.6-.3-.2-.6-.4-.9-.6h0Z"/>
      <path class="st3" d="M259.5,206c-.7.6-1.5,1.1-2.3,1.5.8-.4,1.6-.9,2.3-1.5Z"/>
    </g>
    <g>
      <path class="st2" d="M228,174.5c-.2-1.3-1.4-2.3-2.7-2.3,0,0-.2,0-.2,0-.2,0-.5,0-.7,0-3.6,0-6.9-2.2-8.3-5.6-.3-.7-.9-1.3-1.6-1.6-2.4-.9-4.2-2.8-5.1-5-2,1.7-4.6,4.2-7.3,7.5.6,1.3.9,2.7.8,4.2,0,0,0,.1,0,.1,0,1.6,1.2,2.8,2.8,2.8.1,0,.3,0,.4,0,.4,0,.9,0,1.3,0,3.7,0,7.1,2.4,8.4,5.9.2.5.5,1,1,1.3.5.3,1,.5,1.6.5.4,0,.8,0,1.2-.3,1.2-.6,2.6-.9,3.9-.9,1.4,0,2.9.4,4.2,1.1.3.1.5.3.7.5.6-.9,1.3-1.8,2-2.6.2-.2.3-.4.5-.5-1.5-1.3-2.6-3.2-3-5.2Z"/>
      <path class="st2" d="M194.1,117.8c.6-.2,1.3-.5,2-.7,3.7-1.4,7.7-2.4,11.9-3,1.3-1.5,3-2.6,5-3.1.6-.1,1.2-.5,1.6-1,.4-.5.6-1.1.6-1.8,0-2.7,1.1-5.2,3.2-6.9.9-.7,1.9-1.3,2.9-1.7.8-1,1.6-2,2.6-3.1.6-.6,1.1-1.2,1.8-1.8,0,0,.1-.1.2-.2-4-.2-6.4-1.5-7.7-3.3-1-1.4-1.4-3-1.4-4.6,0-1.3.2-2.5.6-3.5.2-.5.4-1,.7-1.4-.7.2-1.4.3-2.2.3-.8,0-1.7-.1-2.5-.4-.2,0-.5-.1-.8-.1-1.1,0-2.1.6-2.6,1.6-.2.4-.3.7-.3,1.2,0,0,0,0,0,0,0,.8-.1,1.5-.3,2.3-.5,1.8-1.5,3.4-2.8,4.6-.8.7-1.7,1.3-2.7,1.6.6.5,1,1.2,1.3,1.9.2.5.4,1.1.5,1.8,0,.2,0,.5,0,.7,0,3.1-2.5,5.7-5.6,5.9-.1.6-.4,1.2-.6,1.7-1.2,2.4-3.3,4.1-5.8,4.8-.6.2-1.1.5-1.5,1-.4.5-.6,1.1-.6,1.7,0,.7.2,1.3.7,1.9.9,1,1.5,2.3,1.9,3.6Z"/>
      <path class="st2" d="M206.8,156.2c.6-.5,1.2-.9,1.7-1.4-.2-.5-.5-.9-.9-1.3-2.3-2-3.5-5-3.1-8h0c0-.1,0-.2,0-.3,0-.8-.3-1.5-.9-2.1-2.1-2-3.1-5-2.7-7.9.4-2.9,2.3-5.4,4.9-6.8,1-.5,1.6-1.4,1.6-2.5,0-.5-.1-1-.4-1.5-1-1.7-1.4-3.6-1.3-5.5-3.6.6-7.7,1.7-11.7,3.4-.5,1.9-1.6,3.7-3.1,4.9-.7.5-1.1,1.3-1.1,2.2,0,.7.2,1.3.6,1.8,1.3,1.7,2,3.7,2,5.7,1.9,1,3.2,3,3.2,5.3,0,2.4-1.5,4.5-3.6,5.4,3.2,2.6,4.2,7.2,2.4,11-.2.4-.3.8-.3,1.2,0,1.3.8,2.4,2,2.7,1.1.3,2,.8,2.9,1.4,2.4-3,5-5.7,7.6-7.9Z"/>
      <path class="st2" d="M313.4,138.7c0-1.7.7-3.2,1.8-4.3.5-1.4,1.2-2.6,2.3-3.7.6-.5.8-1.2.9-2,0-.5-.1-1-.4-1.4-.2-.4-.6-.8-1-1-2.4-1.5-3.8-3.9-4.2-6.4-.3-.1-.7-.3-1-.4-4-1.6-8.2-2.7-12.3-3.3,1.7,2.1,3.4,3.6,4.9,3.9l-6.6,2.3c0,.4.2.7.3,1,.2.4.6.8,1,1,4,2.4,5.6,7.4,3.6,11.7-.2.4-.3.7-.3,1.2,0,.7.2,1.4.7,1.9,1.8,2.1,2.6,4.9,2.1,7.6-.4,2.4-1.8,4.5-3.8,5.9,2.8,1.3,5.5,2.7,7.7,4.5,1,.8,1.9,1.6,2.8,2.5.3-.1.6-.2.9-.3,1.2-.3,2.1-1.4,2.1-2.7,0-.2,0-.4,0-.6-.7-3,.3-6.2,2.5-8.3.5-.5.8-1.2.8-2,0-.4,0-.8-.2-1.1-2.7-.6-4.6-3-4.6-5.9Z"/>
      <path class="st2" d="M275.3,179c-1.2,2.7-3.5,4.6-6.4,5.3-.7.1-1.4.2-2,.2-1.6,0-3.1-.4-4.5-1.2-.5-.3-1-.7-1.5-1.1,0,0-.2-.1-.3-.2-.5-.3-1-.5-1.6-.5-.7,0-1.4.3-1.9.7-.2.1-.3.3-.4.5-1,1.5-2.5,2.7-4.1,3.3-1,.4-2.2.6-3.3.7h0c0,0-.1,0-.2,0,0,0,0,0,0,0-.6,0-1.2,0-1.8-.2-2.2-.5-4.2-1.8-5.5-3.6-.3-.4-.6-.7-1-.9-.4-.2-.8-.3-1.3-.3-.2,0-.4,0-.6,0-.7.1-1.3.2-2,.2-.5,0-1.1,0-1.6-.2-.5.5-1,1-1.5,1.7-.6.8-1.4,1.7-2.1,2.8.3.5.5,1,.6,1.6.1.4.2.8.3,1.1.1.6.4,1.2.9,1.7.5.4,1.1.7,1.8.7.6,0,1.2-.2,1.7-.6,1.6-1.2,3.5-1.8,5.5-1.8,1.8,0,3.4.6,4.9,1.5.6.4,1.2.9,1.8,1.5,0,0,0,0,.1.1.5.6,1.3,1,2.1,1,0,0,0,0,0,0,.3-.8.7-1.5,1.2-2.1,1.1-1.2,2.7-2,4.5-1.9,0,0,0,0,.1,0,1.3,0,2.5.5,3.5,1.3.1,0,.2.2.3.3.5.1,1,.3,1.4.5.6.3,1.3.6,1.8,1,.5.4,1,.5,1.6.5,1.1,0,2.1-.6,2.6-1.6.6-1.2,1.4-2.3,2.4-3.1.9-.8,2-1.4,3.1-1.7.7-.2,1.5-.4,2.2-.4,0-.2,0-.4,0-.6.3-2.9.6-5.2,1.1-7.7-.9.1-1.8.8-2.2,1.7Z"/>
      <path class="st2" d="M299.2,156c0,.3.1.6.3.9,1.2,2.6,1.2,5.6-.2,8.2-1.3,2.5-3.8,4.3-6.6,4.7-.5,0-1,.3-1.4.6-.4.3-.7.8-.9,1.3-.7,2.3-2.4,4.2-4.6,5.3-1.2.6-2.5.9-3.8,1-.6,3.1-1,6-1.3,8.7.2.1.4.2.6.3.4.2.9.4,1.4.4.6,0,1.1-.2,1.6-.5.5-.3.8-.8,1-1.3,1.4-3.5,4.7-5.7,8.5-5.7.2,0,.4,0,.6,0,0,0,.2,0,.2,0,1.2,0,2.3-.8,2.7-1.9.2-.7.5-1.3.9-1.9,0-.3,0-.5,0-.8,0-3.3,2.7-5.9,6-5.9.6,0,1.2.1,1.8.3,0,0,0-.2,0-.3,0-.1,0-.2,0-.3-.3-2.5.5-4.9,2.1-6.8-2.3-2.1-5.2-4.3-9-6.4Z"/>
      <path class="st2" d="M294.6,109c0,.2.2.3.3.5.8.6,1.5,1.2,2.1,2,1,0,2,.2,2.9.3,4.6.6,9.1,1.8,13.4,3.5,0-.2.2-.4.3-.6.2-.4.3-.8.3-1.2,0-.8-.3-1.6-1-2.2-2.6-2.2-3.7-5.7-2.9-9-1.1.9-2.4,1.5-3.9,1.4-3.3,0-5.9-2.7-5.9-6,0-.4,0-.9.2-1.3.1-.6.4-1.2.7-1.8,0-.1.2-.3.3-.4-.6-.9-.9-2-1.1-3.1,0-.5-.1-1.1-.1-1.6,0,0,0,0,0,0,0-1.5-1.2-2.8-2.8-2.8-.3,0-.6,0-.9.1-.7.2-1.4.4-2.1.4,0,1.3-.3,2.7-1,3.9-.9,1.6-2.6,2.9-5.2,3.5-.9.2-2,.3-3.1.3.5.5,1,.9,1.4,1.4,4.3,4.5,6.1,8.6,8.3,12.5Z"/>
      <path class="st2" d="M249.1,81.2c0,0,.2.1.3.2,1.3,1,2.4,1.8,3.2,2.4.8.6,1.2.9,1.2.9h.2c.2,0,.4,0,.5,0,.3,0,.7,0,1,0,.2,0,.4,0,.6,0h1.1c0,0,.3,0,.3,0,.5-.4,1.7-1.2,3.3-2.3.4-.3.7-.5,1.1-.8.2-.1.4-.3.6-.5,1.9-1.4,4.1-3,6.2-4.6-.8-1.1-1.3-2.4-1.6-3.8-.1-.6-.4-1.2-.9-1.7-.5-.4-1.1-.7-1.8-.7-.7,0-1.4.3-1.9.7-.2.2-.4.5-.6.7-.3.6-.7,1.1-1.2,1.6-1,1.1-2.2,1.9-3.5,2.5-.8.3-1.7.5-2.6.6h0c-.3,0-.6,0-.9,0-.4,0-.7,0-1.1,0-1.3-.2-2.4-.6-3.5-1.2-.6-.4-1.2-.8-1.8-1.4-.6-.6-1.2-1.4-1.6-2.2-.5-.9-1.4-1.5-2.5-1.5-.6,0-1.1.2-1.6.5-.5.3-.8.8-1,1.3-.3.7-.6,1.3-1,1.9,2.4,2.1,5.3,4.3,7.8,6.2.6.5,1.2.9,1.8,1.3Z"/>
    </g>
    <g>
      <path class="st1" d="M325.4,144.6c-.2-.3-.5-.6-.8-.9,0,0,0,0,0-.1.8-.8,1.5-1.7,2-2.6.9-1.7,1.5-3.6,1.5-5.7,0-4.3-2.2-8.1-5.6-10.2,0,0,0-.2.1-.3-.2-.1-.5-.3-.9-.5,1.9,2.1,3,4.8,3,7.8,0,1.2-.2,2.3-.5,3.4.6,1,1,2.1,1,3.4,0,1.7-.7,3.2-1.9,4.3.8,1.6,1.3,3.4,1.3,5.3,0,3.1-1.3,6-3.4,8,.2.8.3,1.7.3,2.5,0,3.2-1.4,6.1-3.6,8.2,2.1,3.4,2.3,5.1,2.3,5.2h0c2.8-2.2,4.5-5.5,4.6-9.3,0-.6,0-1.2-.1-1.8,0-.3,0-.5-.1-.8h0c.5-.5,1-1.1,1.4-1.7,1.3-1.9,2-4.1,2.1-6.6,0-1.9-.4-3.7-1.2-5.4-.4-.8-.9-1.6-1.5-2.3Z"/>
      <path class="st1" d="M187.6,162c0-1.8.4-3.5,1.2-5-3.3-2-5.5-5.7-5.4-9.9,0-1,.2-2,.4-2.9,0,0,0,0,0,0-.2.2-.3.5-.5.8,0,0,0,.2-.1.2-.1.2-.2.4-.3.6,0,.1,0,.2-.1.3,0,.2-.2.4-.2.5,0,.1,0,.2-.1.4,0,.2-.1.4-.2.6,0,.1,0,.2-.1.4,0,.2,0,.4-.1.6,0,.1,0,.2,0,.4,0,.2,0,.4,0,.7,0,.1,0,.2,0,.3,0,.3,0,.7,0,1,0,.8,0,1.6.2,2.4.6,3.3,2.6,6.1,5.4,7.9-.2.5-.5,1-.6,1.6-.4,1.1-.6,2.3-.6,3.6,0,3.4,1.4,6.5,3.7,8.7.4.4.9.8,1.4,1.1,0,0,0,0,0,0,.7-1.5,1.5-2.8,2.3-4.1-3.5-2-5.8-5.8-5.8-10.1Z"/>
      <path class="st1" d="M211,188.5c-1,.7-2.2,1.1-3.5,1.1-1.7,0-3.1-.7-4.2-1.8-1.1-1.1-1.7-2.6-1.7-4.2,0,0,0,0,0,0-2.7-1.6-4.7-4.2-5.4-7.3-.5,1-1,1.9-1.6,3h0c.2,2.2.9,4.2,2.1,5.9.2.2.3.5.5.7.4.4.8.9,1.2,1.3.3.3.6.5.9.7,2,1.5,4.4,2.4,7.1,2.4h0c0,0,.2,0,.3,0,.5,0,1,0,1.4-.1.2.5.4.9.6,1.4.2.4.5.9.8,1.3,2.1,3,5.6,5.1,9.6,5.1.9,0,1.8,0,2.7-.3.5-2.4,1.2-4.2,1.9-5.9-1.3.5-2.7.8-4.2.7-3.4,0-6.5-1.6-8.6-4Z"/>
      <path class="st1" d="M316.9,174.3h0c1.2-.4,2.4-1.1,3.4-1.8h0l-3.4,1.8Z"/>
      <path class="st1" d="M314.1,169.6c-.4.1-.8.3-1.2.4,0,.4,0,.9,0,1.3,0,5.4-3.8,9.9-8.8,11.1-.8,2.2-2.1,4.1-4,5.4-1.9,1.5-4.4,2.3-7,2.3-.3,0-.5,0-.8,0-1.7,4.2-5.9,7.2-10.7,7.1-.4,0-.8,0-1.2,0,.1,3.5.4,5.3.5,5.3.8.2,1.7.3,2.6.3,4.8,0,9-2.8,10.9-6.8,0-.2.2-.4.3-.6.3,0,.6,0,.8,0,3.3,0,6.3-1.3,8.4-3.4.4-.4.8-.8,1.1-1.2.7-.9,1.3-1.9,1.7-3,0-.1.1-.3.1-.4,0,0,0,0,0,0,.5-.1,1-.3,1.4-.4,1.3-.5,2.5-1.2,3.5-2.1.8-.7,1.6-1.5,2.2-2.4,1.1-1.6,1.8-3.5,2-5.5,0-.3,0-.7,0-1,0-.5,0-.9,0-1.4,0,0,.2,0,.2,0-.1-.6-.6-2.4-2.1-4.9Z"/>
      <path class="st1" d="M320.5,117.4c0,.4,0,.9,0,1.3,1.6.9,2.7,1.7,3.3,2.1h0c0-.3,0-.5,0-.8,0-2.2-.6-4.2-1.6-6-.7-1.2-1.5-2.2-2.5-3.1.2-.9.4-1.9.4-2.8,0,0,0,0,0,0,0-.3,0-.7,0-1,0-.1,0-.2,0-.3,0-.2,0-.5,0-.7,0-.1,0-.2,0-.4,0-.2,0-.4-.1-.6,0-.1,0-.2,0-.3,0-.2-.1-.5-.2-.7,0,0,0-.2,0-.2-.1-.3-.2-.6-.4-.9,0,0,0-.1-.1-.2-.1-.2-.2-.4-.3-.7,0,0-.1-.2-.2-.3-.1-.2-.2-.4-.4-.5,0,0-.1-.2-.2-.3-.1-.2-.3-.3-.4-.5,0,0-.1-.2-.2-.2-.2-.2-.4-.5-.6-.7,0,0,0,0,0,0-.2-.2-.5-.4-.7-.6,0,0-.2-.1-.2-.2-.2-.1-.4-.3-.5-.4,0,0-.2-.1-.3-.2-.2-.1-.4-.2-.5-.3,0,0-.2-.1-.3-.2-.2-.1-.4-.2-.6-.3,0,0-.1,0-.2-.1,0,0,0,0,0,0,0,0,0,0,0,0,2.4,2.1,4,5.3,3.9,8.7,0,.9-.1,1.9-.4,2.7,2.5,2.1,4,5.3,4,8.8Z"/>
      <path class="st1" d="M276.3,202.9c-.2-1.3-.4-3.8-.4-7.2-1.9,3.9-5.9,6.6-10.5,6.6-1,0-2-.2-2.9-.4-.6-.2-1.2-.4-1.8-.6-.5-.2-1-.5-1.4-.8-.5.2-1,.3-1.6.4-.2.1-.3.2-.5.3-1.4.8-2.9,1.3-4.6,1.5-.4,0-.9,0-1.3,0-.8,0-1.5,0-2.2-.2-.6-.1-1.2-.3-1.8-.5-1.8-.7-3.4-1.8-4.6-3.2-1.9,1.5-4.4,2.3-7,2.3-3.7,0-7-1.9-9.1-4.6-.4,1.1-.7,2.3-1,3.6l-.5-.3c.1.3.3.6.4.9.5.8,1,1.6,1.7,2.3,0,0,0,0,0,0,0,0,.1.1.2.2,2.1,2.2,5.1,3.6,8.4,3.6,2.7,0,5.2-.9,7.2-2.4h0c.4.4.8.8,1.2,1.2.7.6,1.4,1.1,2.1,1.5.3.1.5.3.8.4.5.2,1,.4,1.5.6,0,0,.2,0,.2,0,.1,0,.2,0,.3,0,0,0,0,0,0,0,.8.2,1.7.3,2.6.3.2,0,.4,0,.5,0,1.6,0,3.2-.4,4.6-1.1.9-.4,1.8-1,2.6-1.6.3.2.6.4.9.6.6.3,1.1.6,1.8.9,1.3.5,2.7.8,4.2.8,3.3,0,6.3-1.3,8.5-3.5.4-.4.8-.9,1.1-1.3,0,0,0,0,0,0,0-.1,0-.2,0-.4Z"/>
    </g>
    <path class="st5" d="M198.1,95.1c.3,0,.6-.1.8-.3h-1.6c.2.2.5.3.8.3Z"/>
    <path class="st5" d="M199.3,93.9c0-.7-.5-1.2-1.2-1.2s-1.2.5-1.2,1.2c0,.4.2.7.4,1h1.6c.3-.2.4-.6.4-.9Z"/>
    <path class="st5" d="M302.7,173.3c.6,0,1.2-.5,1.2-1.1-.7.2-1.4.4-2,.8.2.2.5.3.8.3Z"/>
    <path class="st5" d="M302.7,170.8c-.7,0-1.2.5-1.2,1.2,0,.4.2.7.4.9.6-.3,1.3-.6,2-.8,0,0,0,0,0-.1,0-.7-.5-1.2-1.2-1.2Z"/>
    <path class="st5" d="M304.6,95.7c.6,0,1.1-.4,1.2-.9h-2.4c.1.5.6.9,1.2.9Z"/>
    <path class="st5" d="M304.6,93.3c-.7,0-1.2.5-1.2,1.2,0,.1,0,.2,0,.3h2.4c0,0,0-.2,0-.3,0-.7-.5-1.2-1.2-1.2Z"/>
    <path class="st5" d="M206.1,179c-.7,0-1.2.5-1.2,1.2s.5,1.2,1.2,1.2c.7,0,1.2-.5,1.2-1.2s-.5-1.2-1.2-1.2Z"/>
    <path class="st5" d="M255.5,192.8c.7,0,1.2-.5,1.2-1.2,0-.3-.1-.6-.4-.9-.7.2-1.5.5-2.1.9,0,.6.6,1.2,1.2,1.2Z"/>
    <path class="st5" d="M255.5,190.3c-.7,0-1.2.5-1.2,1.2,0,0,0,0,0,0,.7-.4,1.4-.7,2.1-.9-.2-.2-.5-.4-.9-.4Z"/>
    <path class="st5" d="M188.3,137.6c-.7,0-1.2.5-1.2,1.2,0,.7.5,1.2,1.2,1.2.7,0,1.2-.5,1.2-1.2,0-.7-.5-1.2-1.2-1.2Z"/>
    <g>
      <path class="st0" d="M261,190.6c-.1,0-.2-.2-.3-.3-1-.8-2.2-1.2-3.5-1.3,0,0,0,0-.1,0-1.8,0-3.3.7-4.5,1.9-.5.6-1,1.3-1.2,2.1-.2.6-.3,1.2-.3,1.9,0,1.6.6,3,1.6,4.1,1.1,1.2,2.6,1.9,4.3,1.9,0,0,.1,0,.2,0,.2,0,.3,0,.5,0,.6,0,1.1-.2,1.6-.4.5-.2,1-.5,1.4-.8.8-.6,1.4-1.4,1.8-2.2.3-.7.5-1.5.5-2.4,0-.9-.2-1.7-.5-2.5-.3-.7-.8-1.4-1.4-2ZM260.7,196.5c-.7,1.2-2,2.1-3.5,2.2-.2,0-.4,0-.6,0-1.7,0-3.2-.9-4-2.3-.4-.7-.7-1.6-.7-2.5,0-.4,0-.7.1-1,.1-.5.3-.9.5-1.3.8-1.4,2.4-2.3,4.1-2.3.2,0,.3,0,.5,0,.9,0,1.8.5,2.4,1,.4.3.8.7,1.1,1.2.5.7.7,1.6.7,2.5,0,.9-.3,1.7-.7,2.4Z"/>
      <path class="st0" d="M192.6,137c-.8-.4-1.7-.7-2.7-.7-3.3,0-6,2.6-6,5.9,0,.2,0,.4,0,.6,0,.3,0,.6.2.9.7,2.5,3,4.4,5.7,4.5.8,0,1.6-.2,2.4-.5,2.1-.9,3.6-3,3.6-5.4,0-2.3-1.3-4.3-3.2-5.3ZM190.2,146c-.2,0-.5,0-.7,0-2.6,0-4.7-2.2-4.7-4.8,0-2.6,2.2-4.7,4.8-4.7,1.2,0,2.2.4,3,1.1,1,.9,1.7,2.2,1.7,3.7,0,2.4-1.8,4.3-4,4.6Z"/>
      <path class="st0" d="M324.3,135.5c-1.1-1.6-2.9-2.6-4.9-2.6-1.6,0-3.1.6-4.2,1.6-1.1,1.1-1.8,2.6-1.8,4.3,0,2.8,1.9,5.2,4.6,5.9.4,0,.9.2,1.3.2,1.6,0,3.1-.6,4.1-1.6,1.1-1.1,1.9-2.6,1.9-4.3,0-1.2-.4-2.4-1-3.4ZM322.2,141.3c-.9.8-2,1.3-3.3,1.3-1.3,0-2.5-.5-3.3-1.4-.9-.9-1.4-2.1-1.4-3.4,0-.9.3-1.7.7-2.5.8-1.4,2.3-2.2,4.1-2.2,2.3,0,4.2,1.7,4.6,3.9,0,.3,0,.6,0,.9,0,1.3-.6,2.5-1.5,3.4Z"/>
    </g>
    <g>
      <path class="st8" d="M259.6,190.3c-.7-.6-1.5-.9-2.4-1-.2,0-.3,0-.5,0-1.7,0-3.3.9-4.1,2.3-.2.4-.4.9-.5,1.3,0,.3-.1.7-.1,1,0,.9.2,1.8.7,2.5.8,1.4,2.3,2.3,4,2.3.2,0,.4,0,.6,0,1.5-.2,2.8-1,3.5-2.2.4-.7.7-1.5.7-2.4,0-.9-.3-1.8-.7-2.5-.3-.5-.6-.9-1.1-1.2ZM255.5,192.8c-.7,0-1.2-.5-1.2-1.2,0,0,0,0,0,0,0-.7.6-1.2,1.2-1.2.3,0,.7.1.9.4.2.2.4.5.4.9,0,.7-.6,1.2-1.2,1.2Z"/>
      <path class="st8" d="M192.6,137.7c-.8-.7-1.9-1.1-3-1.1-2.6,0-4.7,2.1-4.8,4.7,0,2.6,2.1,4.7,4.7,4.8.2,0,.5,0,.7,0,2.3-.3,4-2.3,4-4.6,0-1.5-.6-2.8-1.7-3.7ZM188.3,140.1c-.7,0-1.2-.6-1.2-1.2,0-.7.6-1.2,1.2-1.2.7,0,1.2.6,1.2,1.2,0,.7-.6,1.2-1.2,1.2Z"/>
      <path class="st8" d="M323.6,137.1c-.4-2.2-2.3-3.9-4.6-3.9-1.7,0-3.2.9-4.1,2.2-.4.7-.7,1.6-.7,2.5,0,1.3.5,2.5,1.4,3.4.8.9,2,1.4,3.3,1.4,1.3,0,2.4-.5,3.3-1.3.9-.9,1.5-2,1.5-3.4,0-.3,0-.6,0-.9ZM317.7,136.6c-.7,0-1.2-.6-1.2-1.2,0-.7.6-1.2,1.2-1.2.7,0,1.2.6,1.2,1.2,0,.7-.6,1.2-1.2,1.2Z"/>
    </g>
    <path class="st5" d="M317.7,136.6c.7,0,1.2-.5,1.2-1.2,0-.7-.5-1.2-1.2-1.2-.7,0-1.2.5-1.2,1.2,0,.7.5,1.2,1.2,1.2Z"/>
    <g>
      <path class="st10" d="M205.9,119c.5,0,1-.2,1.5-.3,1.6-.9,3.3-2.9,5-5.2-.9,0-1.8.2-2.8.3-.6,0-1.1.1-1.7.2-4.2.6-8.2,1.6-11.9,3-.7.3-1.3.5-2,.7-4,1.5-6.5,2.4-10,5.4,0,0,0,0,0,0l.2,5.2s0,0,0,0c3-2.7,6.4-4.7,9.8-6.1,4.1-1.8,8.1-2.8,11.7-3.4Z"/>
      <path class="st10" d="M214.4,150.9s0,0,0,0c-.1,0-2.2,1-5.9,3.9-.5.4-1.1.9-1.7,1.4-2.7,2.2-5.3,4.9-7.6,7.9,0,0,0,0-.1.1-2,2.6-3.9,5-5.7,7.8-.8,1.3-1.6,2.6-2.3,4.1,0,0,0,0,0,0,0,0,0,.2-.1.2l3.7,2.9s0,0,0,0h0c.5-1,1-2,1.6-3,1.9-3.4,3.9-6.3,5.8-8.7,2.7-3.4,5.3-5.8,7.3-7.5,0,0,.1-.1.2-.2,3.4-2.9,6.1-4.1,6.9-4.5.2,0,.3-.1.3-.1h0s-2.3-4.3-2.3-4.3Z"/>
      <path class="st10" d="M238.1,179.2l-.8-1.8-.6-1.4-.3-.6s0,0,0,0c-.4.2-2.7,1.3-5.4,4.3-.2.2-.3.3-.5.5-.7.8-1.4,1.7-2,2.6-1,1.4-1.9,3-2.7,4.6,0,.1-.1.3-.2.4-.7,1.4-1.3,2.6-1.9,3.9-.7,1.7-1.4,3.5-1.9,5.9h0s0,0,0,0l3.4,2.1.5.3c.3-1.3.6-2.5,1-3.6,1.1-3.6,2.5-6.4,3.9-8.6.3-.6.7-1.1,1-1.6.8-1.1,1.5-2.1,2.1-2.8.5-.6,1.1-1.2,1.5-1.7,1.7-1.7,3-2.3,3-2.3,0,0,0,0,0,0v-.3Z"/>
      <path class="st10" d="M278.1,174.7c-.2.9-.4,1.8-.6,2.7-.5,2.5-.8,4.8-1.1,7.7,0,.2,0,.4,0,.6,0,.7-.1,1.4-.2,2.1-.2,2.3-.3,4.7-.3,7,0,.3,0,.6,0,1,0,3.3.3,5.8.4,7.2,0,.1,0,.3,0,.4,0,0,0,0,0,0,0,.4,0,.7,0,.7l3.3-1.1,1.2-.4s0,0,0,0h0c0,0-.3-1.8-.5-5.3,0-.8,0-1.6,0-2.5,0-1.9,0-4.2.3-6.9,0-.4,0-.8.1-1.2.2-2.7.7-5.6,1.3-8.7.2-1.1.5-2.2.8-3.3,0,0,0,0,0,0l-4.6-.2c0,.1,0,.2,0,.3Z"/>
      <path class="st10" d="M320.3,172.4c0-.1-.3-1.8-2.3-5.2-.4-.7-.9-1.4-1.4-2.2-1.3-1.9-2.9-3.7-4.6-5.4-.9-.9-1.8-1.7-2.8-2.5-2.2-1.8-4.9-3.2-7.7-4.5-1.7-.7-3.4-1.5-5.1-2.2-.1,0-.3-.1-.4-.2l-1.4,3.3h0c1.7.8,3.3,1.6,4.7,2.4,3.8,2.1,6.7,4.3,9,6.4,2,1.8,3.4,3.6,4.5,5,.6.8,1,1.5,1.4,2.2,1.4,2.5,2,4.3,2.1,4.9,0,.1,0,.2,0,.2h0s.7-.4.7-.4h0s3.4-1.8,3.4-1.8h0s0,0,0,0h0Z"/>
      <path class="st10" d="M323.8,120.8h0c-.6-.5-1.7-1.2-3.3-2.1-1.7-.9-3.9-2.1-6.8-3.2,0,0-.2,0-.3-.1-4.3-1.7-8.9-2.9-13.4-3.5-1-.1-2-.2-2.9-.3-.3,0-.6,0-.9,0,.8,1.4,1.7,2.7,2.6,3.9.2.3.5.6.7,1,4.2.5,8.3,1.6,12.3,3.3.4.1.7.3,1,.4,4.2,1.8,7.4,3.4,9,4.3.4.2.7.4.9.5h0c.2.1.3.2.3.2l.7-1.4.6-2.4s-.3-.2-.6-.5Z"/>
      <path class="st10" d="M199.3,101c.4,0,.7,0,1.1-.1,2-.4,3.6-2.2,3.7-4.4,0,0,0-.1,0-.2,0-.5,0-1.1-.3-1.6-.2-.6-.5-1.1-.9-1.6-.9-1-2.1-1.6-3.5-1.6-.3,0-.6,0-.9,0-1.1.2-2.1.8-2.8,1.6-.4.4-.7.9-.8,1.5-.2.5-.2,1-.3,1.5,0,0,0,.2,0,.3.1,2.5,2.2,4.5,4.7,4.5ZM196.9,93.8c0-.7.6-1.2,1.2-1.2s1.2.6,1.2,1.2c0,.4-.2.7-.4.9-.2.2-.5.3-.8.3-.3,0-.6-.1-.8-.3-.3-.2-.5-.6-.4-1Z"/>
      <path class="st10" d="M305.9,170.3c-.6-.3-1.3-.5-2-.5-2.6,0-4.7,2.1-4.8,4.7,0,.2,0,.4,0,.6.3,2.3,2.2,4.2,4.7,4.2,2.6,0,4.7-2.1,4.8-4.7,0-1.9-1.1-3.5-2.7-4.3ZM302.7,173.3c-.3,0-.6-.1-.8-.3-.3-.2-.4-.6-.4-.9,0-.7.6-1.2,1.2-1.2.7,0,1.2.6,1.2,1.2,0,0,0,0,0,.1,0,.6-.6,1.1-1.2,1.1Z"/>
      <path class="st10" d="M305.8,101.7c1.5,0,2.9-.7,3.8-1.8.6-.8,1-1.8,1-2.8,0-.2,0-.3,0-.5,0,0,0-.1,0-.2,0-.5-.2-1.1-.5-1.5,0,0,0,0,0-.1-.8-1.4-2.3-2.4-4.1-2.4-1.8,0-3.4,1-4.2,2.6,0,0,0,0,0,0-.3.5-.5,1.1-.5,1.8,0,.1,0,.2,0,.4,0,2.6,2.1,4.7,4.7,4.8ZM303.4,94.5c0-.7.6-1.2,1.2-1.2.7,0,1.2.6,1.2,1.2,0,0,0,.2,0,.3-.1.5-.6.9-1.2.9-.6,0-1.1-.4-1.2-.9,0,0,0-.2,0-.3Z"/>
      <path class="st10" d="M207.3,178c-2.6,0-4.7,2.1-4.8,4.7,0,.5,0,1,.2,1.4.6,1.9,2.4,3.3,4.5,3.3.9,0,1.8-.3,2.5-.7,1.3-.8,2.2-2.3,2.2-4,0-2.6-2.1-4.7-4.7-4.8ZM206.1,179c.7,0,1.2.6,1.2,1.2s-.6,1.2-1.2,1.2c-.7,0-1.2-.6-1.2-1.2,0-.7.6-1.2,1.2-1.2Z"/>
      <path class="st10" d="M254.3,87.4v-.8c-.2,0-1.8.3-4.5.5-.2,0-.4,0-.6,0-.6,0-1.2,0-1.9,0-.2,0-.5,0-.7,0-1.9,0-4.1-.1-6.7-.4-.6,0-1.2-.1-1.8-.2-.2,0-.4-.2-.3-.5,0-.2.2-.4.5-.3,3.5.5,6.6.7,9.1.6,1.1,0,2.1,0,2.9,0,1,0,1.7-.1,2.3-.2.9-.1,1.4-.2,1.4-.2,0,0,0,0,0,0l-.2-1.1h0s-.4-.2-1.2-.4c-.8-.3-2-.7-3.5-1.2-.6-.2-1.1-.4-1.8-.6-.9-.3-1.9-.7-2.9-1.1-3.2-1.2-6.7-2.6-10-4.1-2.8-1.3-5.5-2.6-7.5-4-3.3-2.2-5.1-4.3-3.5-6-1.1.7-2,1.7-2.4,2.9-.8,2.1-1.1,3.9-1.3,5.6-.3,2-.5,3.8-1.6,5.6,0,.1-.1.2-.2.3,0,0,0,0,0,0-.2.4-.5.8-.7,1.4-.4,1-.6,2.2-.6,3.5,0,1.6.4,3.2,1.4,4.6,1.3,1.8,3.7,3.1,7.7,3.3.2,0,.4,0,.7,0,.9,0,1.8,0,2.7,0,5.1-.4,10.7-1.8,15.4-3.2,1-.3,2-.6,2.9-.9,3.5-1.2,6.1-2.2,6.8-2.5.1,0,.2,0,.2,0v-.2s0,0,0,0Z"/>
      <path class="st10" d="M293.5,83.2c-.1-.3-.3-.5-.4-.8-.2-.3-.4-.7-.5-1-.1-.3-.3-.6-.4-.9-.9-2.7-.6-5.6-2-9.6-.4-1.2-1.3-2.2-2.4-2.9,2.2,2.4-2,5.4-7.8,8.3-2.3,1.1-4.9,2.2-7.5,3.2-1.8.7-3.7,1.4-5.4,2-1.7.6-3.3,1.2-4.8,1.6-.1,0-.3,0-.4.1-1.9.6-3.3,1.1-4.2,1.3h0v.4c0,0-.3,1.1-.3,1.1.6.1,1.8.3,3.3.4.5,0,1,0,1.6,0,2.6.1,6.1,0,10.2-.4.2,0,.4.1.5.4,0,.2,0,.3-.2.4,0,0-.1,0-.2,0-.5,0-1,.1-1.5.2-1.4.1-2.6.2-3.8.3-1.1,0-2.2,0-3.2,0-.7,0-1.3,0-1.8,0-.2,0-.4,0-.6,0-.3,0-.5,0-.7,0-1.8-.1-3-.3-3.8-.4v.6c-.1,0-.3.6-.3.6.9.4,2.8,1.2,5.3,2.1,1,.4,2.2.8,3.4,1.2,3.9,1.3,8.7,2.7,13.2,3.4.3,0,.6,0,.9.1,1.6.2,3.1.3,4.5.4.2,0,.4,0,.5,0,1.2,0,2.2-.1,3.1-.3,2.7-.6,4.3-1.9,5.2-3.5.7-1.2,1-2.6,1-3.9,0-.2,0-.4,0-.6,0-1.3-.4-2.6-.8-3.5Z"/>
    </g>
    <g>
      <path class="st6" d="M205.6,97.3c0-.3,0-.5,0-.7,0-.6-.2-1.2-.5-1.8-.3-.7-.8-1.3-1.3-1.9-1-1-2.5-1.6-4-1.6,0,0,0,0,0,0,0,0,0,0,0,0,0,0-.1,0-.2,0-2.2,0-4.1,1.3-5.1,3.2,0,.1-.1.2-.2.3-.2.5-.4,1.1-.5,1.8,0,.2,0,.4,0,.6,0,3.3,2.6,6,5.9,6,.2,0,.3,0,.5,0,3.1-.2,5.5-2.7,5.6-5.9ZM200.3,100.9c-.3,0-.7.1-1.1.1-2.5,0-4.6-2-4.7-4.5,0,0,0-.2,0-.3,0-.5,0-1,.3-1.5.2-.6.5-1.1.8-1.5.7-.8,1.7-1.4,2.8-1.6.3,0,.6,0,.9,0,1.4,0,2.7.6,3.5,1.6.4.5.7,1,.9,1.6.2.5.3,1,.3,1.6,0,0,0,.1,0,.2-.1,2.2-1.7,3.9-3.7,4.4Z"/>
      <path class="st6" d="M306,169.8c-.6-.2-1.1-.3-1.8-.3-3.3,0-6,2.6-6,5.9,0,.3,0,.6,0,.8.4,2.9,2.8,5.2,5.8,5.2,3.3,0,6-2.6,6-5.9,0-2.7-1.7-5-4.1-5.7ZM303.8,179.2c-2.4,0-4.4-1.9-4.7-4.2,0-.2,0-.4,0-.6,0-2.6,2.2-4.7,4.8-4.7.7,0,1.4.2,2,.5,1.6.8,2.7,2.4,2.7,4.3,0,2.6-2.2,4.7-4.8,4.7Z"/>
      <path class="st6" d="M312,96.7c0,0,0-.1,0-.2-.1-.6-.4-1.2-.7-1.8-.4-.7-1-1.3-1.6-1.7-1-.7-2.1-1.1-3.4-1.1-2,0-3.8,1-4.9,2.5,0,.1-.2.3-.3.4-.3.5-.6,1.1-.7,1.8,0,.4-.2.8-.2,1.3,0,3.3,2.6,6,5.9,6,1.5,0,2.9-.5,3.9-1.4,1.3-1.1,2.1-2.7,2.1-4.5,0-.4,0-.8-.1-1.2ZM309.6,99.8c-.9,1.1-2.2,1.9-3.8,1.8-2.6,0-4.7-2.2-4.7-4.8,0-.1,0-.2,0-.4,0-.6.2-1.2.5-1.8,0,0,0,0,0,0,.8-1.5,2.4-2.6,4.2-2.6,1.8,0,3.3,1,4.1,2.4,0,0,0,0,0,.1.2.5.4,1,.5,1.5,0,0,0,.1,0,.2,0,.2,0,.3,0,.5,0,1.1-.4,2.1-1,2.8Z"/>
      <path class="st6" d="M207.7,177.7c-3.3,0-6,2.6-6,5.9,0,0,0,0,0,0,0,1.6.6,3.1,1.7,4.2,1.1,1.1,2.6,1.8,4.2,1.8,1.3,0,2.5-.4,3.5-1.1.3-.2.6-.5.8-.7,1-1.1,1.7-2.5,1.7-4.1,0-3.3-2.6-6-5.9-6ZM209.8,186.7c-.7.5-1.6.7-2.5.7-2.1,0-3.9-1.4-4.5-3.3-.1-.5-.2-.9-.2-1.4,0-2.6,2.2-4.7,4.8-4.7,2.6,0,4.7,2.2,4.7,4.8,0,1.7-.9,3.1-2.2,4Z"/>
      <path class="st6" d="M244.5,91.3c-4.7,1.4-10.3,2.9-15.4,3.2-.9,0-1.8.1-2.7,0-.2,0-.4,0-.7,0,0,0-.1.1-.2.2-.6.6-1.2,1.2-1.8,1.8-1,1-1.9,2.1-2.6,3.1-2.3,3.1-3.7,5.9-5.3,8.7-1,1.8-2.2,3.6-3.4,5.2-1.7,2.3-3.4,4.2-5,5.2-.5.3-1,.5-1.5.6l8,2.9,1.2,11.3s1-.5,2.3-1.5c3-2.1,8-6.1,8.9-10.7.3-1.6,1-4,1.9-6.7,2.2-6.4,5.9-14.5,10.5-18.1,1.2-.9,2.5-1.6,3.9-1.8,0,0,0,0,.1,0,1.8-.2,3.3-.6,4.6-1.2,1.6-.7,2.8-1.5,3.8-2.3,1.7-1.4,2.6-2.8,3-3.5-.7.3-3.3,1.4-6.8,2.5-.9.3-1.9.6-2.9.9Z"/>
      <path class="st6" d="M299.5,116.3c-.2-.3-.5-.6-.7-1-.9-1.2-1.8-2.5-2.6-3.9-.4-.6-.8-1.3-1.1-1.9,0-.2-.2-.3-.3-.5-2.1-3.9-3.9-8-8.3-12.5-.4-.5-.9-.9-1.4-1.4-.2,0-.4,0-.5,0-1.5,0-3-.1-4.5-.4-.3,0-.6,0-.9-.1-4.5-.7-9.2-2.1-13.2-3.4-1.2-.4-2.3-.8-3.4-1.2-2.5-.9-4.4-1.7-5.3-2.1h0s-.4,0-.4,0c.4.7,1.3,2,2.8,3.3.8.7,1.8,1.4,3,2,1.2.6,2.6,1.2,4.3,1.5.4,0,.8.2,1.2.2,1.3.2,2.4.7,3.6,1.5,4.2,3.1,7.6,10.1,9.8,16.3,1.3,3.6,2.2,7,2.6,9,.6,3.2,3.2,6.2,5.8,8.5,2.7,2.4,5.3,3.9,5.3,3.9l1.4-11.2,1.4-.5,6.6-2.3c-1.5-.3-3.2-1.8-4.9-3.9Z"/>
      <path class="st6" d="M226.9,73.4c2,1.3,4.7,2.7,7.5,4,3.3,1.5,6.9,2.9,10,4.1,1,.4,2,.7,2.9,1.1.6.2,1.2.4,1.8.6,1.5.5,2.7.9,3.5,1.2.8.3,1.2.4,1.2.4,0,0-.5-.3-1.2-.9-.8-.6-1.9-1.4-3.2-2.4,0,0-.2-.1-.3-.2-.6-.4-1.1-.9-1.8-1.3-2.5-1.9-5.4-4.1-7.8-6.2-1.4-1.2-2.6-2.3-3.6-3.3-.6-.6-1.1-1.2-1.4-1.6-2.4-3.3-7.8-3.6-11.2-1.4-1.6,1.7.1,3.8,3.5,6Z"/>
      <path class="st6" d="M254,85.8s-.5,0-1.4.2c-.6,0-1.4.1-2.3.2-.8,0-1.8,0-2.9,0-2.5,0-5.5-.1-9.1-.6-.2,0-.4.1-.5.3,0,.2.1.4.3.5.6,0,1.2.2,1.8.2,2.5.3,4.8.4,6.7.4.2,0,.5,0,.7,0,.7,0,1.3,0,1.9,0,.2,0,.4,0,.6,0,2.7-.1,4.3-.4,4.4-.5v-.8c-.1,0-.2,0-.2,0Z"/>
      <path class="st6" d="M262.1,83.2c.1,0,.3,0,.4-.1,1.4-.5,3-1,4.8-1.6,1.7-.6,3.6-1.3,5.4-2,2.6-1,5.1-2.1,7.5-3.2,5.9-2.8,10-5.9,7.8-8.3-3.3-2.2-8.8-2.1-11.2,1.2-.5.7-1.4,1.6-2.4,2.6-1.5,1.4-3.5,3-5.6,4.6-2.1,1.6-4.3,3.3-6.2,4.6-.2.2-.4.3-.6.5-.4.3-.8.6-1.1.8-1.6,1.1-2.7,1.9-3.3,2.3h.4c.8-.3,2.3-.7,4.2-1.3Z"/>
      <path class="st6" d="M261.9,87.2c.2,0,.4,0,.6,0,.6,0,1.2,0,1.8,0,1,0,2,0,3.2,0,1.2,0,2.5-.1,3.8-.3.5,0,1-.1,1.5-.2,0,0,.1,0,.2,0,.1,0,.2-.2.2-.4,0-.2-.2-.4-.5-.4-4.1.5-7.6.6-10.2.4-.6,0-1.1,0-1.6,0-1.5-.1-2.6-.3-3.3-.4l-.2.8h0c.7.2,2,.3,3.8.5.2,0,.5,0,.7,0Z"/>
    </g>
    <path class="st7" d="M254.1,85.8c.2,0,.4.1.5.3,0,.2-.1.4-.3.5,0,0,0,0,0,0v.8c.2,0,.2,0,.2,0,0,0,0,0,0,0v.2s2.3.2,2.3.2c0,0,0-.1-.1-.2,0,0,0,0,0,0h0c0-.2-.1-.3-.1-.3,0,0,0,0,.2,0l.2-.8s0,0,0,0c-.2,0-.4-.3-.3-.5,0-.2.3-.4.5-.3l.2-1.1s0,0,0,0c-.3,0-.7-.1-1-.1h-2.1c0,.1-.1.1-.2.1l.2,1.1Z"/>
    <path class="st7" d="M257.2,84.7v-.2h-1.1c.3,0,.7.1,1,.2,0,0,0,0,0,0Z"/>
    <path class="st7" d="M254,84.7h-.2s0,0,0,0c0,0,.1,0,.2,0Z"/>
    <path class="st7" d="M257.5,84.5h-.3v.2s.1,0,.3-.2Z"/>
    <path class="st7" d="M254.4,87.4s0,0,0,0h0s0,0,0,0Z"/>
    <path class="st7" d="M256.4,87.4s0,0,.1.3v-.3c0,0-.1,0-.1,0Z"/>
    <path class="st7" d="M257.1,88c-.3-.1-.4-.2-.5-.2,0,0,0,.1.1.2h.4s0,0,0,0Z"/>
    <path class="st7" d="M254.2,86.6c.2,0,.4-.3.3-.5,0-.2-.3-.4-.5-.3v.8c.1,0,.2,0,.2,0Z"/>
    <path class="st7" d="M256.6,87.7s0,0,0,0c0,0,0,0,0,0h0Z"/>
    <path class="st7" d="M257.4,86.8c-.4,0-.6-.1-.6-.1l-.2.8c.1,0,.4,0,.6,0v-.6Z"/>
    <path class="st7" d="M257.2,85.9v-1.2s0,0,0,0c0,0,0,0,0,0l-.2,1.1s0,0,0,0c0,0,0,0,.3,0Z"/>
    <path class="st7" d="M257.2,85.9c.1,0,.2,0,.4,0l.2-1.1c-.2,0-.4-.1-.6-.1v1.2Z"/>
    <path class="st7" d="M257.2,84.7h0s0,0,0,0c0,0,0,0,0,0Z"/>
    <path class="st7" d="M257.8,84.9v-.4c0,0,0,0,0,0-.4.1-.6.2-.7.2h0c.2,0,.4.1.6.2Z"/>
    <path class="st7" d="M257.3,87.4c-.3,0-.5,0-.6,0v.3s0,0,0,0c0,0,.3.1.5.2v-.6Z"/>
    <polygon class="st7" points="257.2 84.7 257.2 84.7 257.2 84.7 257.2 84.7"/>
    <path class="st7" d="M257.2,84.7h0s0,0,0,0c0,0,0,0,0,0,0,0,0,0,0,0Z"/>
    <path class="st7" d="M257.2,84.7c0,0,.3,0,.7-.2h-.4c-.1.1-.2.2-.3.2h0Z"/>
    <path class="st7" d="M256.5,86.2c0,.2,0,.4.3.5,0,0,0,0,0,0l.2-.8c-.2,0-.4,0-.5.3Z"/>
    <path class="st7" d="M257.4,86.7h-.2v-.8c-.2,0-.2,0-.3,0,0,0,0,0,0,0l-.2.8s.2,0,.6.1h0Z"/>
    <path class="st7" d="M257.2,85.9v.8h.2l.2-.8c-.2,0-.3,0-.4,0Z"/>
  </g>
  <g id="number">
    <g>
      <path d="M350.8,288.4c-1.8,0-3.9-1.5-3.9-3.5s.7-2.5,1.7-3.5c.1,0,1-.7,1-.8,0-.6-2.4-.9-2.6-.9-5,0-10.8,7.3-13.2,11.1l.2.2c1.8-1,4.3-1.6,6.4-1.6,5.9,0,8.3,4.7,8.3,10,0,9.1-9.1,19-18.4,19s-11.4-4.2-11.4-11.5c0-13.6,13.2-31,27.7-31s9.8,1.8,9.8,6.9-2.4,5.4-5.6,5.4ZM336.6,293.5c-2.1,0-4.6.9-6.1,2.5-1.7,2.1-4.3,10.1-4.3,12.8s.8,4.6,3.6,4.6c6,0,10.8-9.8,10.8-15s-.9-5-3.9-5Z"/>
      <path d="M301.4,302.2c-7.4,2-13.5,5.5-13.5,6.7s.1.4.4.4,2.4-1.8,6.8-1.8,9.8,1.8,13.3,1.8,4.5-2.3,4.7-2.3.3.1.3.5c0,2.2-4.6,10.4-10.8,10.4s-8.8-3.8-12.5-3.8-5.4,3.7-6.2,4.1c-.6.2-1.3.3-2,.3-1.2,0-2.4-.2-2.7-.6-.5-.4-1.1-1-1.1-2.2,0-6,9.4-11.2,17.8-16.4,7.3-4.6,15.1-9.3,15.1-16.6s-2.2-4.3-5.7-4.3c-6.1,0-12.5,6.5-12.5,11.4s.4,1.4,1.3,1.4c4.1,0,7.6-8.9,7.9-8.9s.3,0,.3.3v.2c0,7.7-4.2,13.6-10.1,13.6s-5.6-1.8-5.6-6c0-6,8.6-15.8,20.4-15.8s11.9,3.5,11.9,9.5c0,9.9-9.8,16.1-17.5,18.2Z"/>
    </g>
  </g>
</svg>